<svg width="40" height="41" viewBox="0 0 40 41" fill="none" xmlns="http://www.w3.org/2000/svg">
<path d="M39.2156 30.5614L34.7434 8.19526L26.4441 1.61877C26.0753 0.673114 25.1626 0 24.0851 0H6.33818C4.93871 0 3.80291 1.1358 3.80291 2.53527V38.0291H1.26764C0.566633 38.0291 0 38.5957 0 39.2967V40.5643H3.80291H26.6203H30.4233V39.2967C30.4233 38.5957 29.8579 38.0291 29.1556 38.0291H26.6203V22.8174H28.5142C29.9137 22.8174 31.0495 23.9532 31.0495 25.3527V31.3714C31.0495 33.6443 32.8989 35.4938 35.1718 35.4938C36.4128 35.4938 37.5753 34.9436 38.3625 33.9853C39.1471 33.0244 39.459 31.7758 39.2156 30.5614ZM6.33818 6.33818C6.33818 4.93871 7.47398 3.80291 8.87345 3.80291H21.5498C22.9493 3.80291 24.0851 4.93871 24.0851 6.33818V13.944C24.0851 15.3435 22.9493 16.4793 21.5498 16.4793H8.87345C7.47398 16.4793 6.33818 15.3435 6.33818 13.944V6.33818ZM36.3989 32.3779C36.0985 32.7468 35.6497 32.9585 35.1718 32.9585C34.2984 32.9585 33.5847 32.2448 33.5847 31.3714V25.3527C33.5847 22.5563 31.3119 20.2822 28.5142 20.2822H26.6203V5.10984L29.7818 7.28257V11.4087C29.7818 12.1097 30.3485 12.6764 31.0495 12.6764H33.0523L36.7285 31.0596C36.8223 31.5274 36.7044 32.0078 36.3989 32.3779Z" fill="#00D1FF"/>
<g clip-path="url(#clip0_1516:66294)">
<path d="M10.7891 26.7174C10.7899 26.7485 10.7965 26.7781 10.809 26.8066C10.813 26.8162 10.8161 26.8254 10.8216 26.8342C10.8409 26.8664 10.8654 26.8959 10.8999 26.9168C10.9004 26.9171 10.9013 26.9171 10.9018 26.9175C10.9024 26.9178 10.9025 26.9185 10.9031 26.9188L15.4899 29.6063C15.4934 29.6085 15.4976 29.6074 15.5014 29.6096C15.5344 29.6265 15.5708 29.6392 15.611 29.6392C15.6513 29.6392 15.6876 29.6265 15.7209 29.609C15.7251 29.6073 15.7299 29.6079 15.7339 29.6057L20.2391 26.9178C20.2744 26.8968 20.299 26.8667 20.3191 26.8339C20.3245 26.8248 20.3278 26.8163 20.3317 26.8066C20.3443 26.7779 20.351 26.7485 20.352 26.7174C20.352 26.7107 20.3564 26.7053 20.3559 26.699C20.3559 26.6961 20.3536 26.6941 20.353 26.6912C20.3502 26.6559 20.3414 26.6213 20.3221 26.589L15.8168 19.0468C15.8151 19.0438 15.8122 19.0425 15.8102 19.0396C15.8048 19.031 15.7982 19.0242 15.7915 19.0165C15.7832 19.0068 15.7747 18.9981 15.765 18.9895C15.7576 18.9835 15.751 18.9769 15.7431 18.9719C15.74 18.9698 15.7385 18.9667 15.7354 18.9648C15.7302 18.9616 15.7245 18.9616 15.7192 18.959C15.7088 18.9534 15.6983 18.9494 15.6867 18.9454C15.6772 18.942 15.6676 18.9386 15.6573 18.9366C15.6471 18.9343 15.6372 18.9338 15.6271 18.9334C15.6215 18.9328 15.6166 18.93 15.611 18.93C15.6055 18.93 15.6012 18.9328 15.5956 18.9331C15.5857 18.934 15.5765 18.9342 15.5669 18.9362C15.556 18.9382 15.546 18.9417 15.5352 18.9453C15.5239 18.9491 15.5135 18.9533 15.503 18.9588C15.4982 18.9614 15.4928 18.9614 15.488 18.9641C15.4852 18.9658 15.4835 18.9687 15.4809 18.9704C15.4725 18.9759 15.4652 18.9827 15.4572 18.9896C15.4476 18.998 15.439 19.0061 15.4307 19.0159C15.4247 19.0233 15.418 19.0299 15.4131 19.0377C15.4108 19.0408 15.4079 19.0424 15.4059 19.0454L10.8193 26.5877C10.7994 26.6201 10.7906 26.6554 10.7875 26.6913C10.7872 26.6944 10.7851 26.6964 10.7848 26.6996C10.7846 26.7055 10.7888 26.7111 10.7891 26.7174ZM15.8509 20.0384L19.5144 26.172L15.8509 24.4915V20.0384ZM15.3713 24.4901L11.6316 26.1751L15.3713 20.0255V24.4901ZM15.3713 25.0164V28.9807L11.5462 26.7397L15.3713 25.0164ZM15.8509 28.9768V25.0189L19.6015 26.7397L15.8509 28.9768Z" fill="black"/>
<path d="M20.3355 27.5368C20.2595 27.4536 20.1343 27.4371 20.0372 27.4927L15.6111 30.1059L11.1867 27.4927C11.09 27.4365 10.9649 27.4536 10.888 27.5368C10.8113 27.6207 10.8033 27.7455 10.8688 27.8382L15.4153 34.2436C15.4189 34.2486 15.4247 34.2501 15.4283 34.2546C15.4377 34.266 15.4471 34.276 15.458 34.2854C15.4633 34.2897 15.4664 34.2964 15.4721 34.3002C15.4765 34.3035 15.4822 34.3021 15.487 34.3052C15.4947 34.3096 15.5013 34.3161 15.5098 34.3203C15.5403 34.3351 15.5741 34.3445 15.6102 34.3445C15.6103 34.3445 15.6103 34.3445 15.6106 34.3445C15.6106 34.3445 15.6106 34.3445 15.6109 34.3445C15.6112 34.3445 15.6112 34.3445 15.6112 34.3445C15.6114 34.3445 15.6114 34.3445 15.6117 34.3445C15.6478 34.3445 15.6814 34.3349 15.7121 34.3203C15.7205 34.3163 15.7272 34.3098 15.7349 34.3052C15.7395 34.3019 15.7452 34.3035 15.7498 34.3002C15.7555 34.2965 15.7586 34.2899 15.7639 34.2854C15.7748 34.2759 15.7844 34.266 15.7934 34.2546C15.797 34.2501 15.803 34.2486 15.8064 34.2436L20.3546 27.8382C20.4204 27.7455 20.4122 27.6207 20.3355 27.5368ZM15.3714 30.522V33.3524L11.9115 28.478L15.3714 30.522ZM15.8509 33.3524V30.522L19.3123 28.478L15.8509 33.3524Z" fill="black"/>
</g>
<defs>
<clipPath id="clip0_1516:66294">
<rect width="15.4144" height="15.4144" fill="white" transform="translate(7.88474 18.93)"/>
</clipPath>
</defs>
</svg>
