<svg width="61" height="61" viewBox="0 0 61 61" fill="none" xmlns="http://www.w3.org/2000/svg">
<path d="M30.5 61C47.3447 61 61 47.3447 61 30.5C61 13.6553 47.3447 0 30.5 0C13.6553 0 0 13.6553 0 30.5C0 47.3447 13.6553 61 30.5 61Z" fill="#42DDFF"/>
<path d="M21.6103 38.6064C19.7942 38.6064 18.3063 38.179 17.1464 37.3244C16.0018 36.4546 15.4295 35.2185 15.4295 33.616C15.4295 33.2802 15.4677 32.8681 15.544 32.3798C15.7425 31.281 16.0248 29.9609 16.391 28.4195C17.4287 24.2227 20.1071 22.1243 24.4261 22.1243C25.6012 22.1243 26.6541 22.3227 27.5851 22.7194C28.5161 23.1009 29.2486 23.6809 29.7827 24.4593C30.3168 25.2223 30.584 26.138 30.584 27.2062C30.584 27.5267 30.5458 27.9312 30.4694 28.4195C30.2406 29.7778 29.9658 31.0979 29.6453 32.3798C29.1112 34.4706 28.1879 36.0349 26.8755 37.0726C25.563 38.0951 23.808 38.6064 21.6103 38.6064ZM21.9308 35.31C22.7855 35.31 23.5103 35.0582 24.1056 34.5545C24.7161 34.0509 25.151 33.2802 25.4104 32.2425C25.7613 30.8079 26.0285 29.5564 26.2116 28.4882C26.2726 28.1677 26.3031 27.8397 26.3031 27.5038C26.3031 26.1151 25.5782 25.4206 24.1285 25.4206C23.2738 25.4206 22.5413 25.6725 21.9308 26.1761C21.3357 26.6798 20.9083 27.4505 20.6489 28.4882C20.3742 29.5107 20.0995 30.7622 19.8248 32.2425C19.7637 32.5476 19.7332 32.8681 19.7332 33.2039C19.7332 34.608 20.4658 35.31 21.9308 35.31Z" fill="#0E052F"/>
<path d="M31.6349 38.3776C31.4671 38.3776 31.3373 38.3241 31.2458 38.2172C31.1694 38.0951 31.1466 37.9579 31.1771 37.8053L34.3361 22.9255C34.3666 22.7576 34.4506 22.6203 34.588 22.5134C34.7253 22.4066 34.8703 22.3532 35.0229 22.3532H41.1121C42.8061 22.3532 44.1643 22.7042 45.1868 23.4062C46.2247 24.1083 46.7435 25.1231 46.7435 26.4508C46.7435 26.8323 46.6978 27.2292 46.6062 27.6412C46.2247 29.3963 45.454 30.6935 44.2941 31.5329C43.1495 32.3722 41.5776 32.7919 39.5784 32.7919H36.488L35.435 37.8053C35.4044 37.9731 35.3204 38.1104 35.1832 38.2172C35.0458 38.3241 34.9008 38.3776 34.7483 38.3776H31.6349ZM39.7387 29.6328C40.3795 29.6328 40.9366 29.4573 41.4097 29.1063C41.8981 28.7553 42.2186 28.2517 42.3712 27.5954C42.4169 27.3359 42.4399 27.1071 42.4399 26.9087C42.4399 26.4661 42.3102 26.1303 42.0507 25.9015C41.7912 25.6572 41.3487 25.5352 40.723 25.5352H37.9759L37.106 29.6328H39.7387Z" fill="#0E052F"/>
</svg>
