<svg width="154" height="154" viewBox="0 0 154 154" fill="none" xmlns="http://www.w3.org/2000/svg">
<g filter="url(#filter0_d_2238_85416)">
<path d="M133.467 76.7333C133.467 108.066 108.066 133.467 76.7333 133.467C45.4004 133.467 20 108.066 20 76.7333C20 45.4004 45.4004 20 76.7333 20C108.066 20 133.467 45.4004 133.467 76.7333Z" fill="url(#paint0_linear_2238_85416)"/>
<path fill-rule="evenodd" clip-rule="evenodd" d="M138.467 76.7333C138.467 110.828 110.828 138.467 76.7333 138.467C42.639 138.467 15 110.828 15 76.7333C15 42.639 42.639 15 76.7333 15C110.828 15 138.467 42.639 138.467 76.7333ZM76.7333 133.467C108.066 133.467 133.467 108.066 133.467 76.7333C133.467 45.4004 108.066 20 76.7333 20C45.4004 20 20 45.4004 20 76.7333C20 108.066 45.4004 133.467 76.7333 133.467Z" fill="#ED1EFF"/>
<path d="M56.0369 80.8822L58.1497 64.9571L39.7941 52.2038L56.5651 57.8866L60.5268 51.8074L74.9867 42.8206L106.878 60.3976L108.529 87.2258L94.3327 106.983L83.1081 108.702L88.9185 98.0628V87.8204L84.6928 79.825L80.401 76.9835L73.7982 83.7896V90.9922L68.6481 95.816L62.1114 96.609L59.2062 98.261L54.4523 96.7412L52.4713 89.6046L56.0369 84.5827V80.8822Z" fill="white"/>
<path d="M85.3528 52.0716C81.8533 51.3448 78.0237 51.543 78.0237 51.543C78.0237 51.543 76.7692 57.3579 68.978 58.8778C69.044 58.8778 79.2783 62.38 85.3528 52.0716Z" fill="#94A6C3"/>
<path d="M88.5226 104.803C92.7483 101.499 95.9176 96.9394 97.3702 91.7853C97.4363 91.587 98.0306 91.2567 98.4267 90.9923C99.0869 90.5958 99.7473 90.2655 99.8793 89.7369C100.143 88.2169 100.275 86.631 100.275 85.0451C100.275 84.4505 99.6812 83.8558 99.0869 83.2611C98.6248 82.8646 98.1626 82.4019 98.1626 82.0716C97.5023 76.0583 94.7293 70.4417 90.3053 66.3448L89.8431 66.8073C94.135 70.8381 96.9082 76.3227 97.5023 82.1377C97.5684 82.6663 98.0965 83.195 98.6249 83.7236C99.0869 84.12 99.6152 84.7148 99.6152 84.9792C99.6152 86.499 99.4832 88.0188 99.2191 89.5386C99.153 89.8028 98.5588 90.0672 98.0965 90.3314C97.4363 90.6619 96.8421 90.9923 96.71 91.5209C95.1254 97.1377 91.4939 102.027 86.6738 105.199C87.5322 103.349 90.2394 97.3359 91.692 94.2963L91.4278 84.5165L83.0423 76.3888L78.2884 77.0497L73.0722 85.5078C73.0722 85.5078 75.5152 88.6135 72.0818 92.2478C68.7144 95.8161 66.0732 96.6091 66.0732 96.6091L63.6303 95.2874C64.3566 94.3624 65.8092 92.9746 66.9316 92.0495C68.8464 90.4636 70.7612 90.3314 70.7612 88.6135C70.8273 85.0451 66.9977 86.0364 66.9977 86.0364L65.6112 87.3579L65.0169 92.2478L62.1117 95.8822L61.7815 95.8161L57.0276 94.7588C57.0276 94.7588 59.9328 93.239 60.395 91.5209C60.8571 89.8689 59.4706 84.3844 59.4045 84.0539C59.4706 84.12 60.7911 85.2434 61.3854 87.0937C62.4417 84.1861 63.8284 81.4108 64.2245 81.1465C64.6206 80.8821 69.9688 78.0408 69.9688 78.0408L68.1862 82.7324L69.5068 82.0055L72.6761 74.2082C72.6761 74.2082 75.7793 72.6884 78.0902 72.6884C82.2501 72.6223 88.3905 67.5342 85.6173 58.4153C86.4097 58.7456 100.143 65.6179 102.52 79.0981C104.303 89.4725 98.4267 99.1862 88.5226 104.803Z" fill="#94A6C3"/>
<path d="M72.8084 53.5254C74.3269 51.7414 73.7327 49.0981 73.7327 49.0981L69.3089 55.6399C69.2428 55.6399 70.8936 55.706 72.8084 53.5254Z" fill="#0A192B"/>
<path d="M57.9508 89.2745L58.479 86.6313C58.479 86.6313 56.3001 90.4638 56.1021 90.9925C55.904 91.5872 56.2342 92.6445 57.0925 92.5784C57.9508 92.5123 59.0073 91.2568 59.0073 90.3318C59.0073 89.1423 57.9508 89.2745 57.9508 89.2745Z" fill="#0A192B"/>
<path d="M97.172 47.248C97.172 47.248 100.473 47.3801 103.907 47.7766C96.1817 41.6973 88.8527 39.9132 82.9102 39.9132C74.7227 39.9132 69.1764 43.2832 68.8464 43.4815L71.4214 39.3845C71.4214 39.3845 61.1211 38.3934 57.4896 49.2964C56.5652 46.9836 55.7068 43.6136 55.7068 43.6136C55.7068 43.6136 50.3587 48.3052 52.8677 56.1026C46.7272 53.8559 37.9455 50.7502 37.6154 50.6841C37.1532 50.618 37.0211 50.8163 37.0211 50.8163C37.0211 50.8163 36.8891 51.0146 37.2852 51.3449C38.0115 51.9396 51.8773 62.1818 54.9146 64.1643C54.2542 66.5431 54.2542 67.6664 54.9146 68.7898C55.8389 70.3096 55.905 71.1025 55.7729 72.2258C55.6409 73.3492 54.4523 83.0629 54.1883 84.2524C53.9242 85.4417 51.151 89.6707 51.2831 90.9263C51.4151 92.1819 53.1318 97.5341 54.6505 98.1289C55.7729 98.5255 58.5461 99.3844 60.3948 99.3844C61.055 99.3844 61.6493 99.2522 61.9135 98.988C63.0359 97.9968 63.366 97.7985 64.1584 97.7985C64.2245 97.7985 64.2904 97.7985 64.3565 97.7985C64.6865 97.7985 65.0828 97.8646 65.5449 97.8646C66.6014 97.8646 67.988 97.6663 68.9784 96.7413C70.431 95.2876 72.94 93.3051 73.7324 92.38C74.7227 91.1246 75.2509 89.4065 74.9868 87.6884C74.7888 86.1025 75.6472 84.7149 76.6376 83.3271C77.892 81.6751 80.203 78.7016 80.203 78.7016C84.7589 82.1378 87.5981 87.3581 87.5981 93.173C87.5981 103.481 78.6183 111.807 67.5258 111.807C65.8091 111.807 64.1584 111.609 62.5076 111.213C67.5917 112.997 71.8836 113.591 75.3831 113.591C82.8441 113.591 86.8058 110.882 86.8058 110.882C86.8058 110.882 85.4191 112.666 83.1743 114.715C83.2402 114.715 83.2402 114.715 83.2402 114.715C95.5874 112.997 101.596 102.82 101.596 102.82C101.596 102.82 101.134 106.124 100.539 108.371C116.98 96.0143 114.207 80.5519 114.141 80.0233C114.273 80.2214 115.924 82.2038 116.782 83.261C119.423 56.0365 97.172 47.248 97.172 47.248ZM71.8836 90.728C71.6195 91.0585 70.497 92.0497 69.7047 92.7764C68.9123 93.5034 68.054 94.2303 67.3938 94.891C67.1297 95.1554 66.6014 95.2876 65.8091 95.2876C65.5449 95.2876 65.2808 95.2876 65.0828 95.2876C64.9508 95.2876 64.8186 95.2876 64.6865 95.2876C64.5545 95.2876 64.4885 95.2876 64.4225 95.2876C64.2245 95.2876 64.0263 95.2876 63.8282 95.2876C64.8186 93.9659 67.7238 90.9263 68.7143 90.2655C69.9027 89.4726 70.497 88.6796 69.7707 87.292C69.0444 85.9042 67.1297 86.2347 67.1297 86.2347C67.1297 86.2347 68.2521 85.7722 69.2425 85.7722C67.988 85.4417 66.4034 85.7722 65.6771 86.4989C64.8847 87.2259 65.0167 89.8029 64.6865 91.4549C64.3565 93.173 63.2339 94.032 61.5172 95.6179C60.593 96.4769 59.9326 96.7413 59.4044 96.7413C58.282 96.543 56.9614 96.2126 56.037 95.8823C55.3768 95.0232 54.3862 92.1819 54.1222 90.9924C54.3203 90.3316 55.1125 88.944 55.5088 88.1509C56.3011 86.6311 56.7633 85.7722 56.8953 84.9791C57.1594 83.8558 58.0178 76.9174 58.3479 74.01C59.2063 75.1334 60.3948 76.9835 60.1307 78.173C62.0456 75.4637 60.6589 72.8206 59.9987 71.7633C59.4044 70.706 58.612 68.5915 59.2724 66.3448C59.9326 64.0982 62.3096 57.8866 62.3096 57.8866C62.3096 57.8866 63.1019 59.2744 64.2245 59.01C65.3469 58.7458 74.3926 45.1334 74.3926 45.1334C74.3926 45.1334 76.8357 50.4858 74.2605 54.3845C71.6195 58.2832 69.0444 59.01 69.0444 59.01C69.0444 59.01 72.6759 59.6708 76.0433 57.226C77.4298 60.4639 78.7504 63.8338 78.8165 64.2963C78.6183 64.7589 75.9772 71.1025 75.7131 71.4991C75.5811 71.6311 74.6568 71.8955 73.9964 72.0277C72.874 72.358 72.2136 72.5563 71.9496 72.7545C71.4873 73.1511 69.3745 78.966 68.3841 81.8073C67.1956 82.1378 66.0071 82.7985 65.1488 84.1202C65.611 83.7897 67.0636 83.5915 68.1201 83.4593C69.0444 83.3932 71.8836 84.913 72.6099 87.7545C72.6099 87.8206 72.6099 87.8206 72.6099 87.8867C72.742 88.944 72.4118 89.9351 71.8836 90.728ZM65.6771 91.521C66.2712 90.6619 66.2052 89.2082 66.2712 88.7457C66.3373 88.2831 66.4693 87.4242 66.9975 87.292C67.5258 87.1598 68.7803 87.3581 68.7803 88.2831C68.7803 89.1421 67.856 89.3404 67.1956 89.9351C66.7334 90.3977 65.8091 91.3888 65.6771 91.521ZM92.022 78.8999C92.6822 75.5298 92.7483 72.6224 92.5501 70.2435C95.1252 73.6797 96.7098 77.8427 97.172 82.1378C97.2381 82.6665 97.7663 83.1951 98.2945 83.7237C98.7567 84.1202 99.285 84.6488 99.285 84.9791C99.285 86.4989 99.1528 88.0187 98.8887 89.5387C98.8228 89.7368 98.2285 90.0673 97.7663 90.3316C97.1061 90.6619 96.5118 90.9924 96.3798 91.521C94.9272 96.6091 91.8238 101.103 87.6642 104.274C93.8046 97.8646 96.7759 87.292 92.022 78.8999ZM87.8621 104.869C92.154 101.565 95.4553 96.9396 96.908 91.7192C96.9739 91.521 97.5682 91.1905 97.9644 90.9263C98.6246 90.596 99.285 90.1994 99.417 89.6707C99.6811 88.1509 99.8132 86.565 99.8132 84.9791C99.8132 84.3844 99.2189 83.7897 98.6246 83.1951C98.2945 82.7985 97.7663 82.336 97.7663 82.0056C97.2381 77.1818 95.3233 72.6224 92.352 68.8559C91.0316 60.9264 85.7494 58.4814 85.6173 58.4153C85.7494 58.6136 89.1827 63.5696 86.8058 69.3845C84.3628 75.2656 78.0902 74.3404 77.562 74.4065C77.0337 74.4065 74.9868 77.0496 72.4118 81.9395C72.0816 81.8073 70.6951 81.477 69.1105 81.7412C70.299 78.4374 72.0816 73.7456 72.4118 73.3492C72.5438 73.217 73.5342 72.9528 74.1946 72.7545C75.449 72.4241 76.0433 72.2258 76.2414 71.9616C76.3735 71.7633 77.0337 70.2435 77.694 68.6576C78.2882 68.6576 79.8069 68.5254 79.9389 68.4593C80.0709 68.3273 81.3254 65.0894 81.3254 64.6929C81.3254 64.3624 78.7504 57.9527 77.76 55.5079C78.2222 54.9792 78.6844 54.3184 79.1467 53.5916C92.6822 55.0453 103.247 66.5431 103.247 80.4858C103.247 91.1905 96.9739 100.508 87.8621 104.869Z" fill="#0A192B"/>
<path d="M70.2989 69.1862C71.5533 67.7325 70.8931 65.0232 68.5822 64.5607C69.1763 63.1729 70.0348 60.3977 70.0348 60.3977C70.0348 60.3977 63.2999 70.9704 62.7057 71.1685C62.1114 71.3668 61.5171 69.054 61.5171 69.054C60.2627 73.8778 63.6301 74.5386 64.0262 73.0188C65.875 72.5563 69.0442 70.5738 70.2989 69.1862Z" fill="#0A192B"/>
<path d="M64.5544 71.7635L67.9878 65.8826C67.9878 65.8826 69.9685 66.8737 68.9781 68.4596C67.7237 70.3098 64.5544 71.7635 64.5544 71.7635Z" fill="#FFD923"/>
<path d="M107.01 98.9881C106.019 100.31 104.897 101.697 103.576 103.019C112.094 86.6314 103.973 71.6314 103.642 71.0366C104.237 71.6314 104.831 72.2922 105.359 72.8868C111.896 80.1556 112.688 91.0586 107.01 98.9881Z" fill="#D82122"/>
<path d="M114.934 77.9086C111.963 69.913 107.737 63.1069 98.4269 56.9614C89.4472 51.0144 79.8073 51.477 79.279 51.5431C79.213 51.5431 79.1469 51.5431 79.1469 51.5431C79.4771 51.4109 79.8073 51.3448 80.1373 51.2787C82.1842 50.6178 84.8253 50.0893 87.4664 49.7589C94.4652 48.7677 101.53 51.1465 106.35 56.2347C106.416 56.3008 106.416 56.3008 106.482 56.3669C111.963 62.1818 114.802 69.4505 114.934 77.9086Z" fill="#D82122"/>
<path d="M96.3141 45.1999C86.476 43.3497 80.1373 44.2748 75.5815 45.9928C75.4494 45.4642 74.9872 44.4069 74.5911 43.5479C73.2044 45.1999 71.7518 47.1822 70.8275 48.4378C68.3184 50.1558 67.262 51.8077 67.262 51.8077C68.7146 46.8519 72.9403 43.1514 78.0904 42.2263C79.543 41.962 81.1277 41.8298 82.8445 41.8298C87.4003 41.8959 91.9563 43.0193 96.3141 45.1999Z" fill="#D82122"/>
<path d="M59.9321 57.8869C52.2068 57.6225 54.7818 48.6358 54.914 48.1072C54.914 48.1733 55.4422 55.1777 59.9321 57.8869Z" fill="#D82122"/>
<path d="M67.5265 41.6975C61.5841 45.2658 62.7726 53.79 62.7726 53.79C57.0942 45.1336 67.0645 41.8957 67.5265 41.6975Z" fill="#D82122"/>
<path d="M57.7541 60.2656C58.1502 60.5961 58.5463 61.1906 58.0842 62.0498C57.82 62.5123 57.4239 62.4462 56.8296 62.182C56.0374 61.7854 51.2833 59.0102 46.9916 56.1687C51.8775 57.8868 56.8296 59.7369 57.622 60.1334C57.622 60.1334 57.688 60.1995 57.7541 60.2656Z" fill="white"/>
</g>
<defs>
<filter id="filter0_d_2238_85416" x="0" y="0" width="153.467" height="153.467" filterUnits="userSpaceOnUse" color-interpolation-filters="sRGB">
<feFlood flood-opacity="0" result="BackgroundImageFix"/>
<feColorMatrix in="SourceAlpha" type="matrix" values="0 0 0 0 0 0 0 0 0 0 0 0 0 0 0 0 0 0 127 0" result="hardAlpha"/>
<feOffset/>
<feGaussianBlur stdDeviation="7.5"/>
<feColorMatrix type="matrix" values="0 0 0 0 0.929412 0 0 0 0 0.117647 0 0 0 0 1 0 0 0 1 0"/>
<feBlend mode="normal" in2="BackgroundImageFix" result="effect1_dropShadow_2238_85416"/>
<feBlend mode="normal" in="SourceGraphic" in2="effect1_dropShadow_2238_85416" result="shape"/>
</filter>
<linearGradient id="paint0_linear_2238_85416" x1="76.7333" y1="15" x2="76.7333" y2="195.523" gradientUnits="userSpaceOnUse">
<stop stop-color="#08021E"/>
<stop offset="1" stop-color="#120446"/>
</linearGradient>
</defs>
</svg>
