<svg width="154" height="154" viewBox="0 0 154 154" fill="none" xmlns="http://www.w3.org/2000/svg">
<g filter="url(#filter0_d_2238_85421)">
<path d="M133.467 76.7333C133.467 108.066 108.066 133.467 76.7333 133.467C45.4004 133.467 20 108.066 20 76.7333C20 45.4004 45.4004 20 76.7333 20C108.066 20 133.467 45.4004 133.467 76.7333Z" fill="url(#paint0_linear_2238_85421)"/>
<path fill-rule="evenodd" clip-rule="evenodd" d="M70.4663 43.416C73.9183 44.8232 77.4709 47.791 78.9116 50.4714C80.2886 53.0335 80.0296 56.3937 78.233 59.2757C77.5027 60.4471 76.8842 61.1534 75.1394 62.8085C65.0221 72.4061 52.1768 81.4343 38.8894 88.2868C37.7616 88.8685 36.9145 89.3586 37.0069 89.3759C37.2665 89.4248 52.9512 87.3974 63.5975 85.9389C73.2649 84.6145 74.8549 84.4722 80.0565 84.4663C84.4175 84.4614 85.2584 84.5196 87.5927 84.9876C90.6682 85.6041 93.323 86.8832 94.7399 88.4309L95.2495 88.9875L99.4698 88.99C101.791 88.9913 106.695 89.0209 110.368 89.0557C114.841 89.098 117.03 89.0851 117 89.0164C116.974 88.9599 116.435 88.618 115.802 88.2566C109.544 84.6881 104.966 79.8944 102.268 74.0861C100.163 69.5536 96.8062 61.8002 94.4509 56.0305C92.6091 51.5185 92.4188 51.1172 91.6778 50.1828C88.9316 46.7189 83.3592 44.2273 76.198 43.261C75.473 43.1633 73.8864 43.0787 72.2189 43.0492L69.4456 43L70.4663 43.416ZM84.0367 63.0511C84.9385 64.5618 85.7368 66.5445 86.9438 70.2715C88.0041 73.5457 88.7898 75.7601 89.2129 76.6668L89.5154 77.3146L89.1604 77.2547C88.0215 77.0626 85.8752 76.9663 83.9753 77.0222C79.6057 77.1507 75.093 77.6598 67.1095 78.9249C65.6919 79.1496 64.5122 79.3165 64.4878 79.2961C64.4636 79.2755 65.0963 78.8329 65.8939 78.3124C68.5295 76.5926 70.8559 74.8412 73.7964 72.3629C77.743 69.0368 80.1204 66.6497 82.4901 63.6342C83.0505 62.9209 83.532 62.3372 83.5598 62.3372C83.5878 62.3372 83.8023 62.6585 84.0367 63.0511Z" fill="white"/>
<path fill-rule="evenodd" clip-rule="evenodd" d="M138.467 76.7333C138.467 110.828 110.828 138.467 76.7333 138.467C42.639 138.467 15 110.828 15 76.7333C15 42.639 42.639 15 76.7333 15C110.828 15 138.467 42.639 138.467 76.7333ZM76.7333 133.467C108.066 133.467 133.467 108.066 133.467 76.7333C133.467 45.4004 108.066 20 76.7333 20C45.4004 20 20 45.4004 20 76.7333C20 108.066 45.4004 133.467 76.7333 133.467Z" fill="#ED1EFF"/>
</g>
<defs>
<filter id="filter0_d_2238_85421" x="0" y="0" width="153.467" height="153.467" filterUnits="userSpaceOnUse" color-interpolation-filters="sRGB">
<feFlood flood-opacity="0" result="BackgroundImageFix"/>
<feColorMatrix in="SourceAlpha" type="matrix" values="0 0 0 0 0 0 0 0 0 0 0 0 0 0 0 0 0 0 127 0" result="hardAlpha"/>
<feOffset/>
<feGaussianBlur stdDeviation="7.5"/>
<feColorMatrix type="matrix" values="0 0 0 0 0.929412 0 0 0 0 0.117647 0 0 0 0 1 0 0 0 1 0"/>
<feBlend mode="normal" in2="BackgroundImageFix" result="effect1_dropShadow_2238_85421"/>
<feBlend mode="normal" in="SourceGraphic" in2="effect1_dropShadow_2238_85421" result="shape"/>
</filter>
<linearGradient id="paint0_linear_2238_85421" x1="76.7333" y1="15" x2="76.7333" y2="195.523" gradientUnits="userSpaceOnUse">
<stop stop-color="#08021E"/>
<stop offset="1" stop-color="#120446"/>
</linearGradient>
</defs>
</svg>
