<svg width="152" height="152" viewBox="0 0 152 152" fill="none" xmlns="http://www.w3.org/2000/svg">
<g filter="url(#filter0_d_2238_85418)">
<path d="M132.467 75.7333C132.467 107.066 107.066 132.467 75.7333 132.467C44.4004 132.467 19 107.066 19 75.7333C19 44.4004 44.4004 19 75.7333 19C107.066 19 132.467 44.4004 132.467 75.7333Z" fill="url(#paint0_linear_2238_85418)"/>
<path fill-rule="evenodd" clip-rule="evenodd" d="M137.467 75.7333C137.467 109.828 109.828 137.467 75.7333 137.467C41.639 137.467 14 109.828 14 75.7333C14 41.639 41.639 14 75.7333 14C109.828 14 137.467 41.639 137.467 75.7333ZM75.7333 132.467C107.066 132.467 132.467 107.066 132.467 75.7333C132.467 44.4004 107.066 19 75.7333 19C44.4004 19 19 44.4004 19 75.7333C19 107.066 44.4004 132.467 75.7333 132.467Z" fill="#402FC8"/>
<path d="M81.6805 46.1386L70.6023 50.7989V96.4035L81.6805 91.4103V46.1386Z" fill="#00A2D2"/>
<path d="M100.375 70.8229L89.9892 66.1114V95.0171L100.375 100.065V70.8229Z" fill="#00A2D2"/>
<path d="M52.6001 78.7608L63.6783 74.1005V99.3994L52.6001 104.393V78.7608Z" fill="#00A2D2"/>
</g>
<defs>
<filter id="filter0_d_2238_85418" x="0" y="0" width="151.467" height="151.467" filterUnits="userSpaceOnUse" color-interpolation-filters="sRGB">
<feFlood flood-opacity="0" result="BackgroundImageFix"/>
<feColorMatrix in="SourceAlpha" type="matrix" values="0 0 0 0 0 0 0 0 0 0 0 0 0 0 0 0 0 0 127 0" result="hardAlpha"/>
<feOffset/>
<feGaussianBlur stdDeviation="7"/>
<feColorMatrix type="matrix" values="0 0 0 0 0.25098 0 0 0 0 0.184314 0 0 0 0 0.784314 0 0 0 1 0"/>
<feBlend mode="normal" in2="BackgroundImageFix" result="effect1_dropShadow_2238_85418"/>
<feBlend mode="normal" in="SourceGraphic" in2="effect1_dropShadow_2238_85418" result="shape"/>
</filter>
<linearGradient id="paint0_linear_2238_85418" x1="75.7333" y1="14" x2="75.7333" y2="194.523" gradientUnits="userSpaceOnUse">
<stop stop-color="#08021E"/>
<stop offset="1" stop-color="#120446"/>
</linearGradient>
</defs>
</svg>
