<svg width="154" height="154" viewBox="0 0 154 154" fill="none" xmlns="http://www.w3.org/2000/svg">
<g filter="url(#filter0_d_2238_85420)">
<path d="M133.467 76.7333C133.467 108.066 108.066 133.467 76.7333 133.467C45.4004 133.467 20 108.066 20 76.7333C20 45.4004 45.4004 20 76.7333 20C108.066 20 133.467 45.4004 133.467 76.7333Z" fill="url(#paint0_linear_2238_85420)"/>
<path fill-rule="evenodd" clip-rule="evenodd" d="M138.467 76.7333C138.467 110.828 110.828 138.467 76.7333 138.467C42.639 138.467 15 110.828 15 76.7333C15 42.639 42.639 15 76.7333 15C110.828 15 138.467 42.639 138.467 76.7333ZM76.7333 133.467C108.066 133.467 133.467 108.066 133.467 76.7333C133.467 45.4004 108.066 20 76.7333 20C45.4004 20 20 45.4004 20 76.7333C20 108.066 45.4004 133.467 76.7333 133.467Z" fill="#FFD75C"/>
<path fill-rule="evenodd" clip-rule="evenodd" d="M74.6302 55.3809H79.7142V99.8085H74.6302V55.3809Z" fill="white"/>
<path fill-rule="evenodd" clip-rule="evenodd" d="M71.7477 76.2827V70.9732C69.2515 69.7464 67.244 67.7108 66.0521 65.1978C64.8601 62.6847 64.5538 59.8422 65.1832 57.1329C65.8125 54.4237 67.3403 52.0072 69.5179 50.2768C71.6955 48.5465 74.3947 47.6041 77.1761 47.6032C84.8144 47.6032 90.3289 53.1136 90.3289 59.9155C90.3289 61.6293 89.9763 63.2611 89.1276 65.2045L86.9546 58.1402L82.6045 59.5014L86.4667 74.1958L101.452 68.6813L99.6277 64.3845L94.0394 66.2951C95.0521 64.1016 95.2489 62.4903 95.2489 59.9155C95.2489 50.3953 87.5327 42.675 77.1761 42.675C73.0783 42.6724 69.1135 44.1295 65.9926 46.7851C62.8717 49.4406 60.7987 53.121 60.1453 57.1664C59.4919 61.2118 60.3008 65.3576 62.4269 68.8607C64.5531 72.3638 67.8575 74.995 71.7477 76.2827ZM82.6045 78.9108V84.2203C85.1007 85.4471 87.1082 87.4827 88.3002 89.9958C89.4921 92.5088 89.7984 95.3513 89.1691 98.0606C88.5397 100.77 87.0119 103.186 84.8343 104.917C82.6567 106.647 79.9575 107.589 77.1761 107.59C69.5378 107.59 64.0233 102.076 64.0233 95.278C64.0233 93.5642 64.3759 91.9324 65.2205 89.989L67.3935 97.0492L71.7477 95.688L67.8855 80.9977L52.9 86.5122L54.7204 90.809L60.3087 88.8943C59.3001 91.0878 59.0992 92.6991 59.0992 95.278C59.0992 104.798 66.8195 112.518 77.1761 112.518C81.2739 112.521 85.2387 111.064 88.3596 108.408C91.4805 105.753 93.5535 102.072 94.2069 98.0271C94.8603 93.9817 94.0515 89.8359 91.9253 86.3328C89.7991 82.8297 86.4948 80.1985 82.6045 78.9108Z" fill="white"/>
</g>
<defs>
<filter id="filter0_d_2238_85420" x="0" y="0" width="153.467" height="153.467" filterUnits="userSpaceOnUse" color-interpolation-filters="sRGB">
<feFlood flood-opacity="0" result="BackgroundImageFix"/>
<feColorMatrix in="SourceAlpha" type="matrix" values="0 0 0 0 0 0 0 0 0 0 0 0 0 0 0 0 0 0 127 0" result="hardAlpha"/>
<feOffset/>
<feGaussianBlur stdDeviation="7.5"/>
<feColorMatrix type="matrix" values="0 0 0 0 1 0 0 0 0 0.843137 0 0 0 0 0.360784 0 0 0 1 0"/>
<feBlend mode="normal" in2="BackgroundImageFix" result="effect1_dropShadow_2238_85420"/>
<feBlend mode="normal" in="SourceGraphic" in2="effect1_dropShadow_2238_85420" result="shape"/>
</filter>
<linearGradient id="paint0_linear_2238_85420" x1="76.7333" y1="15" x2="76.7333" y2="195.523" gradientUnits="userSpaceOnUse">
<stop stop-color="#08021E"/>
<stop offset="1" stop-color="#120446"/>
</linearGradient>
</defs>
</svg>
