<svg width="49" height="49" viewBox="0 0 39 54" fill="none" xmlns="http://www.w3.org/2000/svg">
<path d="M7.3125 21.9375H2.4375V2.4375H7.3125V21.9375ZM39 9.75V14.625C39 17.2109 37.9728 19.6908 36.1443 21.5193C34.3158 23.3478 31.8359 24.375 29.25 24.375C26.6641 24.375 24.1842 23.3478 22.3557 21.5193C20.5272 19.6908 19.5 17.2109 19.5 14.625V9.75C19.5 7.16414 20.5272 4.68419 22.3557 2.85571C24.1842 1.02723 26.6641 0 29.25 0C31.8359 0 34.3158 1.02723 36.1443 2.85571C37.9728 4.68419 39 7.16414 39 9.75ZM34.125 9.75C34.125 8.45707 33.6114 7.2171 32.6971 6.30286C31.7829 5.38862 30.5429 4.875 29.25 4.875C27.9571 4.875 26.7171 5.38862 25.8029 6.30286C24.8886 7.2171 24.375 8.45707 24.375 9.75V14.625C24.375 15.9179 24.8886 17.1579 25.8029 18.0721C26.7171 18.9864 27.9571 19.5 29.25 19.5C30.5429 19.5 31.7829 18.9864 32.6971 18.0721C33.6114 17.1579 34.125 15.9179 34.125 14.625V9.75ZM31.6875 51.1875H36.5625V31.6875H31.6875V51.1875ZM19.5 39V43.875C19.5 46.4609 18.4728 48.9408 16.6443 50.7693C14.8158 52.5978 12.3359 53.625 9.75 53.625C7.16414 53.625 4.68419 52.5978 2.85571 50.7693C1.02723 48.9408 0 46.4609 0 43.875V39C0 36.4141 1.02723 33.9342 2.85571 32.1057C4.68419 30.2772 7.16414 29.25 9.75 29.25C12.3359 29.25 14.8158 30.2772 16.6443 32.1057C18.4728 33.9342 19.5 36.4141 19.5 39V39ZM14.625 39C14.625 37.7071 14.1114 36.4671 13.1971 35.5529C12.2829 34.6386 11.0429 34.125 9.75 34.125C8.45707 34.125 7.2171 34.6386 6.30286 35.5529C5.38862 36.4671 4.875 37.7071 4.875 39V43.875C4.875 45.1679 5.38862 46.4079 6.30286 47.3221C7.2171 48.2364 8.45707 48.75 9.75 48.75C11.0429 48.75 12.2829 48.2364 13.1971 47.3221C14.1114 46.4079 14.625 45.1679 14.625 43.875V39Z" fill="#00D1FF"/>
</svg>
