<svg width="52" height="64" viewBox="0 0 52 64" fill="none" xmlns="http://www.w3.org/2000/svg">
<g clip-path="url(#clip0)">
<path d="M13.369 61.1699C10.5962 61.1699 8.15519 60.4813 6.11352 59.1041C3.34538 57.2507 1.56651 54.284 0.969735 50.5346C0.408533 47.0124 0.907762 42.8534 2.41004 38.5072C3.91232 34.161 6.3924 29.7277 9.58402 25.6535C14.3055 19.6295 20.1723 14.8862 26.1022 12.2971C29.2823 10.9119 32.3075 10.2141 35.0986 10.2141C37.8714 10.2141 40.3124 10.9027 42.3541 12.2799C44.3705 13.6307 45.8762 15.5966 46.7691 18.0262C46.9393 17.709 47.0806 17.3771 47.1915 17.0346L48.1096 14.076L48.6409 17.1276C49.7369 23.4316 48.0155 29.163 46.0989 33.2246C46.6001 32.9251 47.0699 32.576 47.5013 32.1825L49.7576 30.0628L48.7144 32.9778C47.0227 37.7027 44.1766 41.9892 40.2436 45.7443C41.1227 45.664 42.0247 45.5067 42.7363 45.2118L45.5974 44.0274L43.589 46.3847C38.7344 52.0862 32.0218 55.0231 27.2074 56.484C25.6628 57.4738 24.044 58.3424 22.3654 59.0823C19.1853 60.4618 16.1589 61.1699 13.369 61.1699ZM35.0895 15.1387C32.9961 15.1387 30.6377 15.7045 28.0796 16.8211C22.8842 19.0889 17.6968 23.3077 13.4711 28.6982C7.84073 35.8814 4.91766 43.9551 5.84267 49.7588C6.22369 52.1539 7.23936 53.919 8.85985 55.0047C10.0798 55.8207 11.5993 56.235 13.3782 56.235C15.4715 56.235 17.8299 55.6692 20.388 54.5525C25.5834 52.2848 30.7708 48.066 34.9965 42.6755C40.6269 35.4912 43.5499 27.422 42.6249 21.6149C42.2439 19.2197 41.2282 17.4547 39.6078 16.369C38.3878 15.553 36.8683 15.1387 35.0895 15.1387Z" fill="#56A4CB"/>
<path d="M43.8804 27.142C45.4527 25.0338 46.0415 22.2473 46.3662 20.4042C45.1233 21.9363 44.1673 22.6088 44.1673 22.6088C44.3108 23.9998 44.3969 25.3632 43.8804 27.142Z" fill="#277DAD"/>
<path d="M23.1539 15.5622C36.2486 7.26811 44.5541 16.1624 44.6838 18.3625C44.1525 14.8908 41.6999 12.4521 38.7918 11.0806C36.2658 9.77343 28.6741 11.5913 28.6741 11.5913L23.1539 15.5622Z" fill="#DDEDF5"/>
<path d="M18.7067 58.5923C16.3632 60.1519 10.4838 59.5299 9.29596 59.1041C9.29596 57.6122 9.77912 56.0215 9.77912 56.0215H12.6643C12.6643 56.0215 12.6276 57.1956 15.6689 56.4496C17.3123 57.292 18.7067 58.5923 18.7067 58.5923Z" fill="#277DAD"/>
<path d="M1.18774 45.9635C3.83538 36.8535 12.8938 19.338 30.1511 11.6487C27.4116 10.4884 15.7147 16.8384 9.58627 25.6501C2.04848 36.4954 2.04848 39.1924 1.18774 45.9635Z" fill="#DDEDF5"/>
<path d="M38.7906 37.2609C38.7906 37.2609 41.7034 36.2797 43.496 34.9266C44.8732 32.6233 47.2075 27.0973 47.2075 22.2645C43.8403 30.1237 41.4693 31.036 41.4693 31.036C40.2195 34.8118 39.7478 35.3742 38.7906 37.2609Z" fill="#277DAD"/>
<path d="M40.6269 47.436C35.233 51.6329 31.5524 53.3142 26.792 54.8957L23.7392 56.5793L23.0254 53.6333C23.0254 53.6333 34.5306 47.537 38.3557 37.9873C40.208 38.8676 45.1831 36.5149 46.3664 34.8118C44.071 38.9433 36.267 47.3602 36.267 47.3602L40.6269 47.436Z" fill="#277DAD"/>
<path d="M35.0986 10.9544C37.6923 10.9544 40.0129 11.5994 41.9386 12.8894C44.242 14.4318 45.8131 16.8097 46.5293 19.8063C47.1031 19.0029 47.6379 18.0963 47.9064 17.2447C49.0656 23.9114 47.025 29.9458 44.7343 34.2736C44.6505 34.4813 44.5645 34.6902 44.4761 34.8979C45.7385 34.3241 47.0824 33.5884 48.012 32.7174C45.8923 38.6392 42.159 43.1725 38.2294 46.5546H38.4922C39.8293 46.5546 41.6965 46.4398 43.022 45.8913C38.3786 51.3426 32.0046 54.2519 26.8929 55.7932C25.3549 56.7846 23.7413 57.6534 22.067 58.3915C18.9684 59.7434 16.0281 60.4194 13.3713 60.4194C10.7776 60.4194 8.45702 59.7744 6.53126 58.4845C3.93986 56.7492 2.27232 53.9593 1.71112 50.4176C1.16943 47.016 1.65718 42.982 3.12158 38.7517C4.59058 34.4928 7.03164 30.1237 10.1739 26.1149C14.8196 20.1861 20.5843 15.5232 26.4029 12.9823C29.5015 11.6304 32.4418 10.9544 35.0986 10.9544ZM13.3782 56.981C15.5472 56.981 18.0239 56.398 20.6864 55.2355C25.9932 52.9195 31.2827 48.6227 35.5841 43.1358C41.3373 35.7908 44.3177 27.5036 43.3617 21.4979C42.9463 18.8893 41.8227 16.9555 40.0232 15.7493C38.6701 14.8438 36.9991 14.3928 35.0883 14.3928C32.9181 14.3928 30.4426 14.9758 27.7801 16.1372C22.4733 18.4543 17.1826 22.7511 12.8824 28.2381C7.12919 35.583 4.14873 43.8703 5.10473 49.8759C5.52018 52.4845 6.64373 54.4183 8.44325 55.6245C9.79519 56.53 11.4673 56.981 13.3782 56.981ZM35.0986 9.4682C32.2043 9.4682 29.078 10.1924 25.8026 11.6212C19.7614 14.2608 13.7925 19.0809 8.99642 25.2002C5.7566 29.3318 3.2352 33.8558 1.70768 38.264C0.162936 42.7249 -0.344326 47.0091 0.2295 50.6517C0.860709 54.6146 2.75434 57.7523 5.69462 59.7182C7.86139 61.17 10.4425 61.9056 13.3655 61.9056C16.2588 61.9056 19.3861 61.1815 22.6615 59.7526C24.3447 59.012 25.9688 58.1437 27.5195 57.1555C30.4241 56.2789 33.2236 55.0858 35.8676 53.5978C41.6908 50.2833 43.8369 47.9398 47.9259 42.7146L42.5125 44.4785C47.9604 38.5555 49.3353 34.9645 51.0808 28.1818L47.9523 30.7227C51.4148 22.6467 49.1195 13.8385 48.385 12.0504C47.9053 13.4655 47.1226 15.4532 46.7106 16.0546C45.7839 14.2813 44.4293 12.7673 42.7695 11.6499C40.6028 10.1981 38.0217 9.46246 35.0986 9.46246V9.4682ZM13.3782 55.4891C11.7496 55.4891 10.369 55.1173 9.2753 54.3851C7.83385 53.4187 6.9272 51.8235 6.57946 49.6418C5.68659 44.0321 8.55228 36.1844 14.0576 29.1585C18.2086 23.8632 23.2939 19.7248 28.378 17.5052C30.8408 16.4299 33.0994 15.8847 35.0895 15.8847C36.718 15.8847 38.0975 16.2566 39.1923 16.9888C40.6338 17.9551 41.5404 19.5503 41.8881 21.732C42.781 27.3418 39.9153 35.1894 34.41 42.2153C30.259 47.5129 25.1737 51.6445 20.0896 53.8686C17.6256 54.944 15.3682 55.4891 13.3782 55.4891Z" fill="#083751"/>
<path d="M13.3782 55.4891C11.7496 55.4891 10.369 55.1172 9.2753 54.385C7.83385 53.4187 6.9272 51.8234 6.57947 49.6418C5.68659 44.032 8.55228 36.1844 14.0576 29.1585C18.2086 23.8632 23.2939 19.7248 28.378 17.5052C30.8408 16.4298 33.0994 15.8847 35.0895 15.8847C36.718 15.8847 38.0975 16.2565 39.1923 16.9887C40.6338 17.9551 41.5404 19.5503 41.8881 21.732C42.781 27.3417 39.9153 35.1894 34.41 42.2153C30.259 47.5129 25.1737 51.6444 20.0896 53.8686C17.6256 54.9439 15.3682 55.4891 13.3782 55.4891Z" fill="#083751"/>
<path d="M5.82659 2.5088C5.75888 3.3638 5.81741 7.45748 7.36215 8.15411C6.29139 5.62927 7.42871 0.923893 12.7974 0.90094C11.815 1.63314 11.0622 2.83473 10.7317 3.63694C10.3764 4.0243 10.0622 4.44735 9.79402 4.89936C10.1808 4.66983 11.4363 2.53749 16.1474 2.52257C17.3984 2.52257 18.7572 2.65914 19.8658 3.29035C17.9607 2.81867 15.9317 3.86418 14.3502 4.92805C15.4646 4.56999 17.0862 3.49693 19.3677 3.94337C20.901 4.2429 21.5311 5.65567 22.7969 6.38442C23.8298 6.98006 25.2965 6.9353 25.9725 5.82437C26.141 5.5485 26.2252 5.22936 26.2146 4.90625C26.5045 5.21265 26.7579 5.55155 26.9698 5.91618C27.4399 6.73014 27.6362 7.67352 27.5299 8.60743C26.4132 8.5007 25.3137 8.88631 24.1936 8.75662C23.109 8.61236 22.0839 8.176 21.2281 7.49421C21.8372 8.40656 22.7568 9.0668 23.816 9.35225C25.1634 9.71377 26.4752 9.2088 27.8214 9.44751C29.3581 9.71836 31.2941 10.7203 33.0478 9.55424C33.3582 9.3427 33.619 9.06625 33.8121 8.744C34.0919 9.51455 34.1137 10.3552 33.8741 11.1391C33.7502 11.58 33.5191 11.9833 33.2015 12.3132C32.9135 12.599 32.5612 12.6965 32.2306 12.8939C31.1197 12.4348 29.8768 12.2799 28.6729 12.2053C29.7551 12.5496 30.8638 12.8939 31.8863 13.384C32.9089 13.874 33.5998 14.6464 34.3159 15.5071C34.9116 16.2233 35.6059 16.8751 36.5389 17.0966C37.1798 17.2492 37.8508 17.2166 38.4739 17.0025C38.6403 17.9378 37.7738 19.4631 36.5653 19.6651C37.1501 20.0381 37.7798 20.3354 38.4394 20.5499C37.9804 20.9631 36.8844 21.2718 36.1797 21.3085C37.8736 22.1968 38.7263 24.5632 38.6873 26.4844C38.4153 25.898 38.1032 25.222 37.3939 24.7101C37.5936 25.5307 37.5569 26.5326 37.4054 27.4645C37.0703 27.1455 35.7987 25.6719 35.257 24.9592C35.5198 24.1386 35.4739 23.5728 35.2926 22.7373C35.063 24.1145 34.0772 25.6948 33.5711 26.3283C33.8006 25.471 33.7111 24.5483 33.5711 23.6887C33.3997 22.7199 33.1171 21.7741 32.7287 20.8701C31.8921 18.8284 31.8921 18.8284 31.1691 17.0507C30.7502 18.7481 30.3909 19.54 29.8343 20.2274C29.863 19.6836 29.826 19.1384 29.7242 18.6035C29.6851 18.3808 29.3374 16.6398 27.7089 14.3021C27.85 15.3855 28.2827 16.672 27.7697 17.8839C27.7364 16.975 27.1362 14.3434 25.3172 13.2933C25.8267 14.1701 26.2743 16.9164 25.6615 17.6211C25.72 16.1062 24.6653 14.7095 23.5154 13.7925C22.6638 13.1131 17.9424 10.4781 17.9492 10.4896C17.9561 10.5011 18.8249 14.2883 16.9255 14.5878C17.5062 13.2784 16.0464 10.5229 14.4007 10.0156C14.5935 9.09174 14.5419 7.98081 14.2228 7.14647C13.4057 8.0336 11.3353 8.07147 10.2141 9.04468C9.73205 9.46013 9.21905 10.0936 9.01133 10.8293L8.3893 11.6877C8.37634 11.6139 8.34905 11.5433 8.30896 11.48L5.21145 8.53513C4.50564 7.19237 4.31284 3.9514 5.82659 2.5088Z" fill="#E61C3F"/>
<path d="M2.30908 6.79187L4.06729 8.56614C3.97203 8.73714 3.84464 8.92765 3.65643 8.97126C3.76635 8.99679 3.8813 8.99013 3.98753 8.95207C4.09377 8.91401 4.1868 8.84617 4.2555 8.75665L5.0864 9.59558C4.9177 9.97546 4.63997 10.4414 4.20845 10.5137C4.76047 10.6721 5.18281 10.3209 5.37906 9.89168L6.43719 10.959C6.29718 11.4628 5.99075 12.1066 5.10821 12.2214C6.0665 12.4509 6.60934 11.8966 6.78723 11.3102L7.5332 12.063C7.77765 12.8664 6.40047 13.8006 5.58219 13.586L2.30908 6.79187Z" fill="white"/>
<path d="M9.10776 56.6516C8.97463 58.4236 8.4754 61.7437 6.61046 62.5792C6.03664 62.3497 5.53397 61.5854 5.13458 60.6845C5.34116 59.3635 5.93794 58.963 7.08559 58.0988C7.75009 57.5996 8.20685 56.7216 8.48803 56.0215C8.75199 56.2993 8.97807 56.5242 9.10776 56.6516Z" fill="#9EA7AC"/>
<path d="M21.499 52.7921C21.7021 53.2764 21.9753 53.9397 22.2495 54.6364C22.4217 55.0748 22.5938 55.5269 22.7488 55.9607C23.1585 57.1004 23.4557 58.1023 23.3226 58.3329C23.1895 58.5636 22.4297 58.6451 21.4198 58.5625C20.8138 57.6983 20.8322 57.0556 20.9607 55.9986C20.9779 55.8517 20.9986 55.6956 21.0193 55.5304C21.0594 55.125 21.0291 54.7158 20.9297 54.3208C20.7741 53.7084 20.5428 53.1178 20.2411 52.5626C20.6678 52.5907 21.0899 52.6677 21.499 52.7921Z" fill="#9EA7AC"/>
<path d="M39.7478 33.4621C38.3219 36.5405 36.5392 39.4406 34.4365 42.1028C33.6515 43.1082 32.8355 44.0699 31.9885 44.988C32.2663 42.8878 31.6603 40.682 30.3164 39.6423C31.5627 42.3071 31.2345 44.5519 30.1867 46.2493C28.6225 48.7638 25.6982 49.846 23.9377 49.8082C22.6035 49.7677 21.3009 49.3916 20.1505 48.7144C20.1505 48.7144 15.2638 47.5129 14.9436 48.6203C14.6234 49.7278 16.3139 52.5625 16.3139 52.5625C16.3139 52.5625 17.481 52.5074 17.5855 53.3475C18.0524 52.9605 18.6149 52.7064 19.214 52.6119C19.6778 52.9205 20.0246 53.376 20.1987 53.9053C20.5154 54.8957 20.1769 55.994 19.9967 56.7847C19.9601 56.9311 19.9317 57.0794 19.9118 57.2289C19.8879 57.4082 19.8952 57.5903 19.9336 57.7671C19.9852 57.9933 20.0833 58.2063 20.2216 58.3926C19.8261 58.3163 19.4353 58.2174 19.051 58.0965C18.6341 57.9666 18.2277 57.8047 17.8357 57.6122C17.2233 57.3271 16.6799 56.9129 16.2427 56.398C14.4467 56.5208 13.8327 56.9052 13.2829 55.9033C13.1181 55.5803 12.9829 55.2431 12.879 54.8957C12.1651 52.6853 10.5584 50.4382 9.90195 49.5247C9.24549 48.6112 10.0764 46.69 11.6475 45.9991C13.2187 45.3082 19.6065 43.6717 20.551 42.4104C21.4955 41.1491 21.0652 38.4625 25.6546 36.7513C24.3429 36.3255 20.5487 38.2134 19.6065 41.5531C17.8265 42.7191 13.276 44.0412 12.0377 44.4085C9.99146 45.0144 8.84266 46.4949 8.51099 47.4314C7.49991 47.7894 5.85073 48.3598 5.83581 49.1528C5.8186 50.04 6.44981 51.3231 6.40964 53.1616C6.40964 53.4508 6.70114 53.9351 7.10626 54.4562C7.36104 54.7855 7.65943 55.1298 7.94979 55.4489C7.8817 56.0673 7.59181 56.6402 7.13381 57.0613C6.80603 57.3689 6.44452 57.6384 6.05616 57.8647C5.6717 58.1011 5.31019 58.2951 5.06229 58.481C4.8477 58.6433 4.67821 58.8578 4.56995 59.1041C4.38527 58.4841 4.26075 57.8476 4.19811 57.2036C3.20998 55.8528 2.84962 55.4822 2.66714 54.9083C2.65276 54.8569 2.64316 54.8043 2.63845 54.7511C2.565 54.0763 2.73945 52.0576 2.84962 50.8904C2.98619 50.8743 3.27425 51.0694 3.82742 51.3816L3.94219 51.4504L3.79414 51.2209C2.99078 49.9883 2.08069 48.6295 2.48122 47.3958C2.69698 46.7324 3.11817 46.3629 3.78496 45.9647C3.78871 45.9613 3.79297 45.9586 3.79758 45.9566C4.05351 45.8017 4.34731 45.6422 4.68013 45.4586C5.88057 44.7941 10.7168 43.231 11.3457 41.9502C11.7035 41.2388 12.1028 40.549 12.5415 39.8844C12.6445 40.8191 12.8469 41.7401 13.1452 42.6319C13.0741 36.205 15.4084 32.1791 16.3277 30.842C16.4337 32.1252 16.4356 33.4147 16.3334 34.6982C17.6165 33.4943 17.698 28.1887 16.0625 23.8861C15.9264 23.5273 15.7775 23.1765 15.6161 22.8337C15.444 22.4676 15.258 22.113 15.0584 21.7733C15.3828 21.0693 15.5245 20.2949 15.4704 19.5216C15.4456 19.1562 15.3817 18.7946 15.2798 18.4428C15.1068 17.8074 14.7983 17.217 14.3755 16.7121C14.5568 17.5258 14.7198 18.2282 14.7393 18.9248C14.7555 19.4126 14.6888 19.8997 14.5419 20.3651C14.5006 20.4948 14.4524 20.6256 14.3973 20.7599C14.4065 20.667 14.4134 20.5751 14.4157 20.4833C14.4292 20.0943 14.3906 19.7053 14.3009 19.3265C14.2486 19.1047 14.1795 18.8871 14.0943 18.6758C14.0817 18.6459 14.0358 18.6677 14.0427 18.6976C14.1016 18.9512 14.1366 19.2098 14.1471 19.47C14.1656 19.9454 14.1145 20.4209 13.9956 20.8816C13.9447 21.0867 13.883 21.2889 13.8109 21.4875C13.7044 21.7805 13.5829 22.0678 13.447 22.3483C12.5438 23.4569 11.1047 23.8046 10.3644 25.121C10.2956 25.0923 10.2176 25.0602 10.1349 25.0269C9.85616 24.9176 9.56959 24.8293 9.27762 24.7629C8.75774 24.6482 8.17702 24.6068 7.69845 24.7997C7.45102 24.8769 7.21601 24.9893 7.00068 25.1336C6.80425 25.2606 6.64002 25.4315 6.52096 25.6329C6.80214 25.3172 7.66861 25.059 8.35721 25.0694C8.54778 25.0887 8.72988 25.158 8.88513 25.2702C9.11134 25.4352 9.28573 25.6613 9.3878 25.9221C9.3878 25.9404 9.37862 25.9519 9.37747 25.9588C9.38263 25.9503 9.38723 25.9415 9.39124 25.9324V25.9416C9.54847 26.3237 9.63799 26.8746 9.57027 27.6688C9.37632 28.4618 9.19155 29.1711 8.923 29.4947C8.41114 30.119 6.73213 31.1198 5.83007 31.2954C5.76205 31.3117 5.69305 31.3235 5.6235 31.3309C5.3839 31.3445 5.14384 31.3138 4.9154 31.2403C4.83621 31.2185 4.75587 31.1909 4.67554 31.1599C4.83076 31.0372 4.99201 30.9223 5.1587 30.8157C5.33511 30.7017 5.51831 30.5986 5.70728 30.5069C5.92839 30.4006 6.13688 30.2981 6.33275 30.1994C7.75698 29.4924 8.51329 29.0219 8.7497 28.5858C8.96661 28.1852 8.80364 27.6286 8.46509 27.1455C8.31167 26.9221 8.1278 26.7212 7.9188 26.5487C7.81849 26.4656 7.71139 26.3911 7.59861 26.326C7.76139 26.282 7.93197 26.2749 8.09784 26.3054C8.24676 26.3304 8.39425 26.3634 8.53968 26.4041C8.45361 26.3077 8.01635 26.2021 7.89011 26.1286C7.47696 25.8853 7.10971 25.9898 6.82853 26.3065C6.46128 26.7197 5.95746 28.1841 5.09902 29.1871C4.51372 29.8757 3.40623 30.1271 2.76125 30.22C1.84313 29.5704 1.2693 28.6799 1.1947 27.9729C1.11093 27.1317 1.30947 25.9967 2.16218 25.4733C2.80716 23.9263 3.95022 19.6903 4.02252 19.0316C4.09482 18.3728 3.29147 16.6077 3.36377 15.7825C3.41656 15.1972 4.26697 13.7994 4.49421 13.4344L4.77538 14.0829C4.78227 14.0898 4.81096 14.123 4.86031 14.1678C4.44141 15.2007 4.40125 16.5125 4.65947 17.5545C4.72029 16.8946 4.77423 16.2428 4.95901 15.6035C5.07377 15.1984 5.22182 14.807 5.36527 14.4145C5.77269 14.5029 6.41308 14.4421 7.35645 13.8499C7.76518 13.6143 8.09138 13.2584 8.29064 12.8308L8.97923 12.0423C9.0272 12.2349 9.09891 12.4207 9.1927 12.5955C9.1927 12.0883 9.53699 11.2424 9.93752 10.6089C10.6835 9.41078 12.1146 9.05156 13.0236 8.60742C12.6609 8.94483 12.2822 9.26388 11.9298 9.61162C11.185 10.3438 10.734 11.2183 10.8533 12.2719C11.2654 11.1472 11.9138 10.3209 12.8365 9.56801C13.066 9.3775 13.4103 9.12387 13.703 8.83121C13.5767 9.66441 13.4734 10.4976 12.9283 11.216C12.2833 12.0733 11.1735 12.9088 12.1709 14.0186C11.8954 13.2784 12.8962 12.5714 13.3185 12.1089C13.6897 11.7006 13.984 11.2286 14.1873 10.7157C16.0235 11.814 17.2343 14.5867 15.4095 15.0951C16.1899 15.5404 19.4676 15.7952 18.9833 12.0848C19.9014 12.6586 20.8804 13.1361 21.8525 13.6812L21.9293 13.7237C22.2193 13.8861 22.5008 14.0631 22.7729 14.2539C23.6646 14.8805 24.2178 15.5163 24.546 16.1188C24.729 16.446 24.8566 16.8012 24.9236 17.1701C25.0957 18.1306 24.756 18.8514 24.5873 19.0063C25.4848 18.9834 26.5383 18.3303 26.5865 16.3093C26.5865 16.2313 26.5865 16.1509 26.5865 16.0695L26.5934 16.0867C26.6152 16.1509 26.6359 16.2129 26.6577 16.2749C27.3302 18.3292 27.3371 19.4952 27.3371 19.4952C27.9109 18.9822 28.5559 18.3166 28.6408 17.0587C28.681 17.2688 29.2766 19.346 29.1366 21.4451C29.5463 21.3062 30.6067 21.0698 31.2162 19.4367C31.4078 20.0105 32.008 21.2316 32.3913 22.5824C32.6461 23.4787 32.8366 24.437 32.7965 25.3735C32.7311 26.9125 31.9931 27.6688 31.9346 27.8432C31.9874 27.8513 33.7031 27.9901 34.7555 26.2101C35.7746 28.0475 37.3526 30.8432 39.7478 33.4621Z" fill="#E5ECEF"/>
<path d="M7.63647 19.4998C8.03127 18.7906 8.68543 17.7944 9.53928 17.0645C9.76881 17.2654 9.90423 17.7152 9.95014 17.9999C10.1315 19.0878 9.1617 18.6999 7.63647 19.4998Z" fill="#FFCE55"/>
<path d="M0.996155 29.0735C0.996155 29.0735 1.19814 27.2476 2.8565 26.8345C2.63959 25.9714 3.28113 24.3728 4.42878 24.7033C4.67897 22.4654 5.29067 19.6536 5.29067 19.6536C5.29067 19.6536 6.51636 20.0266 6.66785 19.3667C6.81934 18.7068 7.35645 16.6123 9.28221 16.0385C7.63992 16.0385 6.70802 17.6142 6.07796 18.7045C5.14033 18.6758 4.38632 17.7577 4.68242 16.3231C4.97851 14.8885 5.14148 13.9417 5.14148 13.9417L4.43338 13.1097C4.43338 13.1097 2.67632 14.8644 2.97127 16.0385C3.26621 17.2125 4.0558 18.6655 3.65986 19.4975C3.26392 20.3296 1.79033 25.0338 1.79033 25.0338C0.550866 26.5407 0.440691 27.6068 0.996155 29.0735Z" fill="white"/>
<path d="M26.933 37.2609C25.5467 37.2609 21.6837 39.9957 21.6837 42.8453C19.5548 43.7634 14.271 45.6961 14.271 45.6961L22.3792 44.3568C22.3792 44.3568 24.7215 45.3323 26.2915 44.3568C27.8615 43.3813 27.4713 41.4785 27.4713 41.4785C25.5409 43.1518 22.4297 39.7857 26.933 37.2609Z" fill="white"/>
<path d="M19.6317 18.561C22.2644 21.0928 27.7376 27.1994 25.5467 32.5934C24.865 28.7396 22.4297 23.1826 19.6317 18.561Z" fill="white"/>
<path d="M1.64679 29.5716C1.64679 29.5716 2.29521 30.0685 2.86904 29.5716C3.72404 28.8314 3.01479 26.9228 3.55763 26.4339C4.10047 25.945 5.21484 26.0518 5.32846 26.2434C5.03351 25.4401 4.78218 24.5598 4.97384 24.2155C5.16549 23.8712 5.84949 21.8055 7.26914 20.8873C6.66318 21.9363 5.60963 24.4933 6.07329 25.6306C6.50366 25.0338 8.49254 24.4749 9.37279 25.3402C10.253 26.2056 10.3116 28.6237 9.37279 29.7862C8.43401 30.9488 5.97918 32.1722 5.32846 32C3.39926 31.2311 2.54884 30.5988 1.64679 29.5716Z" fill="#9EA7AC"/>
<path d="M6.07452 25.6305C7.38514 23.613 8.80479 24.4737 9.97654 21.8054C10.1279 22.1928 10.1279 22.623 9.97654 23.0105C11.9482 22.1509 14.5947 18.4107 13.7018 14.8908C14.5052 15.9994 15.2225 19.4814 14.7634 21.1168C14.3043 22.7522 12.2386 23.8999 11.8369 24.5598C11.4352 25.2197 10.0603 26.2526 10.0603 26.2526C9.37632 25.0361 7.44138 25.3207 6.07452 25.6305Z" fill="#9EA7AC"/>
<path d="M6.81128 20.1987C6.81128 20.1987 8.9551 20.4409 10.0557 19.8831C11.1563 19.3254 11.7462 17.5018 11.7462 16.8705C11.426 17.7313 10.3403 18.32 10.3403 18.32C9.94736 18.7225 9.466 19.0278 8.93444 19.2118C8.0714 19.4998 7.15558 19.7684 7.15558 19.7684L6.81128 20.1987Z" fill="#9EA7AC"/>
<path d="M6.07448 12.0217C6.07448 12.0217 6.60469 11.4903 6.48304 10.7662C6.29023 11.3618 5.87937 11.4766 5.69575 11.4766C5.51213 11.4766 4.7914 10.3289 4.7914 10.3289C4.7914 10.3289 5.57066 9.59212 5.32965 9.10093C5.08749 9.60245 4.42874 10.0477 4.42874 10.0477L3.65637 8.97813C3.65637 8.97813 4.57449 8.55579 4.42874 8.15411C4.14298 8.15411 7.41264 11.0749 7.41264 11.0749L8.07024 12.1422C8.07024 12.1422 8.07024 12.7734 7.08556 13.3886C6.32122 12.5221 6.07448 12.0217 6.07448 12.0217Z" fill="#9EA7AC"/>
<path d="M15.0169 19.5675C16.0315 19.0258 13.6971 15.7206 13.6971 14.8908C17.427 18.2821 20.6404 23.7277 19.2059 28.4457C18.8616 27.4702 17.8861 25.4779 17.8861 25.4779C17.8861 25.4779 19.5525 30.0111 16.8256 33.1098C17.0827 29.093 15.4129 23.0426 14.6153 22.2645C15.3325 21.0193 15.0169 19.5675 15.0169 19.5675Z" fill="#9EA7AC"/>
<path d="M24.5208 36.7881C22.6845 36.6297 19.4355 37.93 18.5748 40.5122C18.6276 39.5574 18.4703 38.4659 19.6673 37.2609C18.0606 37.2609 15.9949 39.5562 15.9949 41.4785C13.2967 42.7409 5.09215 46.6521 4.4311 47.226C3.77006 47.7998 3.87679 48.4069 4.97739 51.0316C4.28765 52.9642 3.26738 54.1084 5.85305 56.3498C6.91807 57.2679 7.41615 57.3827 7.41615 57.3827L8.5179 55.1195C8.5179 55.1195 5.91387 50.2822 6.66444 49.0622C8.43527 47.8572 9.10779 47.685 9.10779 47.685C9.10779 47.685 9.73785 45.7914 12.9513 44.8733C16.1647 43.9552 20.2458 42.0615 20.2458 42.0615C21.0996 37.8152 23.7392 37.2793 24.5208 36.7881Z" fill="#9EA7AC"/>
<path d="M31.3711 45.5045C31.3711 45.5045 31.8302 40.34 29.365 38.2169C29.9939 39.5367 30.2831 42.1763 29.365 43.4961C29.3775 42.3224 28.9705 41.1828 28.2173 40.2826C28.2173 40.2826 29.4614 44.9306 25.9806 46.0496C23.2365 46.6521 22.1348 45.3897 22.1348 45.3897C19.2083 46.4226 15.0194 46.8243 13.8143 47.1112C13.011 48.9474 13.011 52.6543 15.7952 55.2928C15.5904 54.6424 15.4271 53.9796 15.3063 53.3085C15.3063 53.3085 16.1934 54.7431 17.154 54.5135C18.1146 54.284 19.4814 52.9768 21.0365 55.0369C20.4191 52.9068 19.6937 52.1035 19.6937 52.1035L17.714 52.2182L16.3369 51.4722L15.3614 48.89L19.6937 49.2917C19.6937 49.2917 23.9653 51.7098 26.6657 50.0951C29.3662 48.4803 31.3711 45.5045 31.3711 45.5045Z" fill="#9EA7AC"/>
<path d="M7.24509 26.769C7.32569 26.7674 7.40609 26.7775 7.4838 26.7989C7.45856 27.5024 6.6047 28.3964 6.6047 28.3964C7.27608 28.0165 7.7317 27.694 7.99795 27.1237C8.13865 27.2733 8.24177 27.4543 8.29884 27.6516C8.3559 27.8489 8.36528 28.057 8.32618 28.2587C8.20224 28.7969 5.99989 29.7047 4.97504 30.1236C6.44747 29.1699 6.52207 26.7885 7.24509 26.769Z" fill="white"/>
<path d="M35.8469 26.4523L34.9288 25.0338C34.9288 25.0338 33.7123 26.8551 32.9204 27.1994C33.6365 24.1007 32.2892 20.4799 31.1415 18.561C31.0415 19.0581 30.8297 19.5258 30.5221 19.9289C30.2145 20.3319 29.8192 20.6597 29.3661 20.8873C29.3661 20.8873 29.3983 18.8743 28.9415 17.2676C28.8257 16.8179 28.6386 16.3898 28.3872 15.9994C28.3426 16.5597 28.2324 17.1128 28.0589 17.6475C27.9624 17.9712 27.8218 18.2801 27.6412 18.5656C27.6412 18.5656 27.5746 18.3074 27.4679 17.9275C27.3531 17.5293 27.1993 16.9956 27.0283 16.4837C26.7919 15.7699 26.528 15.0997 26.3214 14.8954C26.2927 15.3051 26.4132 16.0614 26.2881 16.8464C26.2151 17.3921 25.985 17.9049 25.6259 18.3223L25.5479 18.2144C25.5048 17.9168 25.4454 17.6218 25.37 17.3307C25.1565 16.4918 24.7181 15.2649 23.8895 14.5993C23.8023 14.5293 23.7036 14.4547 23.5957 14.3789C23.2078 14.1024 22.7017 13.7913 22.1634 13.4792C20.6141 12.5852 18.7928 11.6946 18.7113 11.6544C19.7178 12.2914 20.6515 13.0369 21.4955 13.8774C21.8498 14.2359 22.1777 14.6194 22.4768 15.0251C23.3685 16.2439 23.7151 17.356 23.7851 18.2592C23.8155 18.6369 23.7958 19.017 23.7266 19.3896C22.6742 18.4887 21.3876 17.5212 20.419 17.2182C20.9389 17.7071 22.1405 19.1325 23.2526 20.4971L23.2354 20.5143C23.2847 20.5579 23.3318 20.6061 23.38 20.652C23.9274 21.3222 24.4484 21.9695 24.8512 22.4722C26.9606 25.7671 28.0165 30.795 26.7816 33.6871C28.0727 33.4862 29.4866 31.2035 29.3351 29.2686C29.2204 27.7766 28.6236 25.9232 28.2644 24.9075C35.7597 32.2766 36.392 37.4823 36.594 37.9907C35.5772 36.5791 31.9885 33.22 31.876 33.1155C31.9403 33.2303 34.7681 38.1985 35.7149 40.472C37.6189 37.7865 39.1372 35.0218 40.2091 32.3386L35.8469 26.4523Z" fill="#9EA7AC"/>
<path d="M12.0331 13.2267C12.9008 13.0064 14.0702 12.5955 14.3571 11.9643C15.0457 12.2512 16.5951 13.7409 16.1647 14.8908C17.0461 13.827 16.2381 11.1954 14.1356 10.3289C14.1356 9.86986 13.9268 8.14838 13.9268 8.14838C13.9268 8.14838 9.68045 11.1162 11.115 13.6181C11.3445 12.5152 12.1479 11.3905 12.1479 11.3905L12.0331 13.2267Z" fill="#9EA7AC"/>
<path d="M4.83733 8.66824C4.83733 8.66824 4.67321 5.73828 5.44329 4.78228C5.44329 5.66139 5.91956 7.3163 7.36217 8.15294C6.41879 6.15947 6.21451 1.6687 6.21451 1.6687C3.86756 3.78038 3.68393 5.83812 4.83733 8.66824Z" fill="#F0ABAB"/>
<path d="M6.77106 7.26814C6.77106 7.26814 6.12837 2.5249 9.77906 1.26248C13.4297 6.01113e-05 13.6971 0.496994 13.6971 0.496994C13.6971 0.496994 10.214 3.95946 9.27868 5.7762C9.27868 4.8202 9.63675 2.99888 10.8188 2.10371C8.8047 2.33324 6.96616 5.2104 6.77106 7.26814Z" fill="#F0ABAB"/>
<path d="M11.0668 3.58648C12.6643 3.19628 15.6769 2.8405 17.9045 3.63468C15.3797 4.09374 13.8303 5.06925 13.3242 5.91047C15.8777 4.76282 18.9649 4.37836 20.4626 5.58569C21.9603 6.79302 23.6955 9.14341 26.2892 6.79302C26.2892 7.65146 26.5257 8.30103 26.2892 9.02865C27.6859 9.43147 28.1955 9.02865 28.1955 9.02865C28.1955 9.02865 28.347 5.31714 26.0918 4.39902C26.0689 5.64651 24.6756 6.46479 23.528 6.15837C22.3803 5.85194 20.419 3.67255 20.419 3.67255C20.419 3.67255 20.2721 1.57923 15.3785 1.98895C12.6643 1.93615 11.0668 3.58648 11.0668 3.58648Z" fill="#F0ABAB"/>
<path d="M21.2316 7.49994C21.6906 8.60398 22.6088 10.1981 24.2373 10.4838C25.8658 10.7696 27.3612 10.0122 28.2013 10.4838C29.0413 10.9555 31.6041 11.8174 32.7919 10.7685C33.2131 11.2493 32.1412 13.0087 31.2621 12.8182C28.852 12.1961 29.4373 12.2317 27.0157 12.2053C29.6416 13.0833 31.6752 14.3078 32.3638 15.3786C33.0524 16.4493 34.0956 18.561 36.4953 18.32C36.2279 18.9742 35.7689 19.3047 34.6212 19.2117C34.9655 19.7775 35.9215 20.5717 36.8396 20.5717C36.306 20.8873 34.8886 20.8873 34.8886 20.8873C34.8886 20.8873 37.1943 23.1826 37.4892 24.8846C38.1881 26.7507 38.9169 27.0973 38.9169 27.0973C38.9169 27.0973 39.7857 23.7278 37.643 21.6138C39.3266 20.8873 39.5561 20.6004 39.5561 20.6004L37.4525 19.4998C37.4525 19.4998 40.045 18.0687 38.9444 16.4115C36.9934 16.8705 36.4001 16.8774 35.0883 15.8847C33.7766 14.892 32.7471 13.3828 32.7471 13.3828C32.7471 13.3828 35.692 11.9356 33.7812 8.14836C32.3271 9.46243 31.4124 9.74704 29.3443 9.20765C27.2763 8.66825 24.7147 9.46357 24.1018 9.20765C23.489 8.95172 21.2316 7.49994 21.2316 7.49994Z" fill="#F0ABAB"/>
<path d="M14.0793 41.2387C13.6972 38.7138 14.5086 34.8394 15.6688 33.1098C15.6688 34.4296 16.517 36.4185 16.517 36.4185C16.517 36.4185 19.6007 32.7759 19.2059 30.1237C20.2457 32.5934 18.3222 36.5723 16.6122 38.2169C14.9022 39.8615 14.0793 41.2387 14.0793 41.2387Z" fill="white"/>
<path d="M12.5496 46.3078C11.426 46.4226 9.97652 48.0867 10.4838 49.2343C10.991 50.382 12.5496 52.7921 12.5496 52.7921L11.4857 49.5499C11.4857 49.5499 12.5496 48.8614 12.5496 47.9719C12.5496 47.0825 13.672 46.1931 12.5496 46.3078Z" fill="white"/>
<path d="M23.2342 20.5109C25.8738 24.0032 26.7999 26.7403 27.0272 28.5513C27.1419 29.4878 27.1695 30.8306 27.251 31.3803C27.7223 30.6092 27.9297 29.7056 27.842 28.8061C27.4025 23.8804 23.4121 20.6348 23.2342 20.5109Z" fill="#083751"/>
<path d="M3.64373 25.9783C3.12155 26.2205 3.26041 27.2407 3.33501 27.9775L3.43486 27.8627C3.55536 26.8172 3.73439 26.2411 4.28756 26.178C4.28756 26.1734 4.16706 25.7361 3.64373 25.9783Z" fill="#083751"/>
<path d="M10.2141 19.7121C9.60128 20.0197 8.64988 20.1218 8.07605 20.255C8.79333 20.5362 9.84458 20.3835 10.4092 20.0897C11.1495 19.7121 11.457 18.8456 11.4903 18.0239C11.0863 18.7068 10.8867 19.3724 10.2141 19.7121Z" fill="#082E44"/>
<path d="M37.9528 28.5834C38.0447 28.261 38.2742 27.7801 38.1629 26.9021C38.4277 27.4039 38.5926 27.9523 38.6483 28.5169C40.7864 25.9209 38.6828 22.2048 38.3832 21.9443C39.2015 21.7147 39.7604 21.0503 40.3342 20.108C39.5309 20.1333 39.058 20.0862 38.3419 19.8314C39.7925 19.0763 39.4735 17.0128 39.2015 15.8617C38.3442 16.4562 36.9268 16.3013 36.019 15.7469C34.9253 15.0767 34.7497 14.2355 33.4162 13.3988C33.8134 13.2464 34.1554 12.9776 34.3974 12.6276C34.6623 12.2365 34.8349 11.7903 34.9024 11.3227C35.1181 10.019 34.7337 8.43181 33.8993 7.39203C32.2754 9.59094 28.9989 8.74971 28.7682 8.69347C28.9679 7.26464 27.9315 3.75857 25.4951 3.71495C25.7361 5.65793 24.2579 6.25241 22.8853 5.23559C22.3562 4.07647 21.6114 2.98964 20.5234 2.34121C19.2725 1.59409 17.6314 1.44605 16.2048 1.49195C15.0388 1.52523 13.9164 1.84313 13.0086 2.15989C13.2886 1.36686 14.3456 0.573829 14.535 0.495789C11.7806 -0.9032 7.16362 0.794179 6.5634 3.9112C6.44863 2.38942 6.47617 1.09601 6.51864 0.933045C3.73099 2.10136 3.66098 5.77843 3.69426 7.09135L0.352299 3.90891L3.75853 11.7761C3.67016 12.0274 3.55081 12.3269 3.41424 12.6437C3.18471 13.1739 2.92648 13.7546 2.70499 14.2607C2.51897 14.6495 2.35983 15.0506 2.22871 15.4612C2.09788 16.0591 3.016 18.2465 2.9173 19.012C2.81498 19.7669 2.66743 20.515 2.47546 21.2522C2.21379 22.3 1.88901 23.3479 1.60439 24.1524C1.48044 24.5035 1.36223 24.8088 1.26009 25.0464C0.114735 25.984 0.0894863 27.5219 0.0757145 28.2414C0.0527615 29.4396 1.88212 30.8041 2.59366 31.238C2.70843 31.3068 2.84156 31.3849 2.98731 31.4675C3.48724 31.7518 4.00782 31.9981 4.54467 32.2043C4.88906 32.3433 5.25304 32.4277 5.62347 32.4545C6.74243 32.4763 9.4922 30.8283 9.8606 30.3566C10.229 29.8849 10.5664 27.3038 10.9532 26.388C11.6165 24.8123 12.1008 25.4699 14.2171 23.0495C14.6383 23.862 15.5759 25.9083 16.0786 28.852C13.4665 31.3619 12.5369 34.6453 12.444 37.5615C12.1771 37.8235 11.9272 38.1022 11.6957 38.3959C11.1387 39.0858 10.6649 39.8388 10.2841 40.6395C9.78256 41.7046 8.52244 42.4 7.14066 42.9796C6.71259 43.1586 6.27189 43.3239 5.83923 43.4926C5.20113 43.737 4.57681 43.9735 4.03167 44.2259C2.20805 45.0718 1.45634 46.1288 1.14992 47.3338C0.910058 48.2806 1.42765 49.6647 1.66062 50.2155C1.52864 51.2829 1.1809 54.3632 1.4747 55.1321C1.83277 56.0686 1.91884 56.2717 3.16864 57.7901C3.61737 60.137 4.76273 63.2712 7.03508 64C9.0274 63.6855 10.2703 58.4511 10.3047 56.406L10.1418 56.0525C10.1418 56.0525 7.82122 53.5173 7.71679 52.6658C7.61235 51.8142 7.74203 51.2025 7.09246 49.3043C7.55627 49.093 8.03836 48.9243 8.53277 48.8005C8.59818 49.356 8.84378 50.2798 9.65976 51.4401C11.0289 53.3831 11.8793 57.0383 12.7871 57.6122C13.6949 58.186 15.4267 57.6615 15.4267 57.6615C15.4267 57.6615 20.1849 61.8286 24.6665 59.515C24.8398 58.4396 24.4587 56.7468 23.9698 55.2423C23.8172 54.7706 23.6519 54.3184 23.4913 53.9075C23.0999 52.9114 22.7269 52.1711 22.5731 52.0369C22.5731 52.0369 21.2488 51.2151 18.2993 51.8188C18.1042 51.6157 17.248 51.4194 16.9221 51.3735C16.6513 50.8491 16.1371 49.3961 16.3884 49.2446C16.657 49.0828 18.1512 49.3594 19.1428 49.5774C20.2446 49.8185 21.5081 51.2197 23.8643 51.2634C26.3891 51.3116 30.1178 49.504 31.2988 47.2466C32.6266 44.7137 32.1756 41.0688 30.3244 39.6342C31.5696 42.299 31.2425 44.5438 30.1947 46.2412C28.6293 48.7603 25.7051 49.8414 23.9446 49.8081C22.6104 49.7684 21.3077 49.3926 20.1573 48.7156C20.1573 48.7156 15.2637 47.5128 14.9424 48.6203C14.7989 49.123 15.0664 49.9757 15.4015 50.7607C15.6715 51.379 15.978 51.9807 16.3196 52.5625C16.3196 52.5625 17.4868 52.5051 17.5912 53.3463C17.8785 53.106 18.205 52.917 18.5564 52.7874C18.7711 52.708 18.9928 52.6488 19.2186 52.6107C19.6563 52.9048 19.9897 53.3298 20.1711 53.8249C20.3708 54.3838 20.3513 54.984 20.2629 55.5464C20.1608 56.1994 19.9634 56.7996 19.9106 57.2277C19.8561 57.6413 19.9675 58.0597 20.2205 58.3914C18.7343 58.0999 17.0977 57.4733 16.2415 56.3991C14.0059 56.5506 13.5962 57.1072 12.8789 54.8957C12.1616 52.6841 10.5584 50.4382 9.90192 49.5247C9.71069 49.2297 9.63509 48.8746 9.6896 48.5273C9.75749 48.0285 9.95012 47.5548 10.2497 47.1502C10.603 46.6463 11.086 46.2474 11.6475 45.9956C13.2198 45.307 19.6065 43.667 20.5498 42.4069C21.4932 41.1468 21.064 38.459 25.6534 36.7467C24.3417 36.3209 20.5487 38.2088 19.6065 41.5496C17.8253 42.7145 13.276 44.0377 12.0377 44.4038C10.9709 44.7114 10.0149 45.3189 9.28333 46.154C8.95975 46.5212 8.703 46.9423 8.52473 47.3981C8.52473 47.4107 8.51441 47.4233 8.51096 47.4359C7.49873 47.7929 5.84956 48.3655 5.83464 49.1574C5.81742 50.0445 6.44863 51.3276 6.40846 53.1662C6.39928 53.639 7.20034 54.6306 7.94861 55.4546C7.78335 57.2174 5.853 57.8979 5.068 58.4867C4.85179 58.6467 4.67997 58.8592 4.56877 59.1041C4.38382 58.4841 4.25967 57.8476 4.19808 57.2036C3.20995 55.8528 2.84844 55.4821 2.66597 54.9083C2.53054 54.4814 2.72794 52.17 2.84844 50.8915C2.99534 50.8743 3.31554 51.0992 3.94789 51.4504C3.11699 50.1628 2.06574 48.7087 2.48579 47.3981C2.78647 46.4799 3.48195 46.1253 4.68469 45.4608C5.03702 45.2657 5.7038 44.9926 6.48535 44.6735C6.89736 44.5048 7.34036 44.3223 7.78679 44.1307C9.37629 43.4513 11.0002 42.6583 11.3514 41.9502C11.8839 40.8668 12.2695 40.3434 12.5461 39.8844C12.6499 40.8187 12.8526 41.7393 13.1509 42.6307C13.0786 36.2039 15.4129 32.1767 16.3345 30.8409C16.4386 32.1238 16.4386 33.413 16.3345 34.6958C17.8414 33.2854 17.6945 26.2319 15.0595 21.7721C16.035 19.649 15.1134 17.5258 14.3709 16.711C14.706 18.219 14.9803 19.3506 14.3915 20.7587C14.4619 20.0502 14.3583 19.3352 14.0897 18.6758C14.0782 18.6436 14.0312 18.6654 14.0381 18.6964C14.2573 19.634 14.1322 20.5855 13.8085 21.4864C13.7018 21.7779 13.579 22.0671 13.4436 22.3471C12.5404 23.4557 11.1024 23.8046 10.3621 25.1198C9.80551 24.8811 8.57638 24.4427 7.69269 24.7985C7.44718 24.8765 7.21413 24.9894 7.00065 25.1336C6.80364 25.2602 6.63897 25.4312 6.51978 25.6328C6.80211 25.3172 7.66744 25.059 8.35603 25.0693C8.47079 25.0774 9.06413 25.1588 9.38892 25.9232C9.38892 25.9393 9.38088 25.953 9.37973 25.9588L9.39351 25.9312C9.55188 26.3145 9.64255 26.8688 9.57484 27.6676C9.38547 28.4561 9.20185 29.1687 8.93215 29.4958C8.4203 30.1201 6.74243 31.122 5.84037 31.2953C5.44936 31.3593 5.04819 31.3095 4.68469 31.1519C5.00357 30.8951 5.34999 30.6746 5.71758 30.4943C7.55382 29.6094 8.49489 29.0689 8.76115 28.5731C9.12381 27.9006 8.41685 26.7874 7.6135 26.3226C7.93484 26.2239 8.29291 26.3352 8.55457 26.4006C8.18847 25.9886 7.13837 25.7591 6.74128 26.1435C5.77266 27.0812 5.78299 29.1676 4.11775 29.8608C3.68666 30.0346 3.23561 30.1541 2.77499 30.2166L2.76581 30.2097C1.83621 29.5658 1.26239 28.6787 1.19582 27.974C1.12123 27.2281 1.27157 26.2526 1.89819 25.6787C1.97963 25.6031 2.06844 25.5358 2.16329 25.4779C2.36872 24.9844 2.62236 24.2155 2.88287 23.3765C3.42801 21.5885 3.97429 19.4849 4.02364 19.0373C4.09594 18.3797 3.29144 16.6134 3.36603 15.7871C3.40391 15.3487 3.89051 14.4558 4.22907 13.8809C4.34383 13.6892 4.43794 13.5366 4.49532 13.4402L4.64108 13.7718L4.7765 14.0828C4.80299 14.1126 4.83135 14.1405 4.86143 14.1666C4.44139 15.1995 4.40237 16.5124 4.66059 17.5545C4.72141 16.8946 4.77535 16.2439 4.95898 15.6035C5.07374 15.1984 5.22064 14.8082 5.36639 14.4145C5.77381 14.5029 6.4142 14.4421 7.35757 13.851C7.7555 13.6182 8.07512 13.2723 8.27569 12.8572C8.27903 12.8482 8.28286 12.8393 8.28717 12.8308L8.97576 12.0423C9.0226 12.235 9.09396 12.4209 9.18808 12.5955C9.18808 12.203 9.3958 11.6085 9.67468 11.0668C9.75616 10.9073 9.84453 10.7524 9.93405 10.6078C10.6835 9.41076 12.1134 9.05039 13.0224 8.6074C12.662 8.94366 12.281 9.26271 11.9298 9.6093C11.5991 9.92436 11.325 10.2939 11.1196 10.7019C10.8914 11.1694 10.7969 11.6909 10.8464 12.2087V12.2707C10.8556 12.2478 10.8648 12.2237 10.8728 12.2007C11.1024 11.5864 11.4358 11.0161 11.8587 10.5148C12.152 10.1692 12.477 9.85178 12.8296 9.56684C13.0591 9.37633 13.4034 9.12269 13.6961 8.83119C13.6426 9.26299 13.561 9.69084 13.4516 10.112C13.3455 10.5094 13.1661 10.8834 12.9225 11.2149C12.7733 11.4123 12.6012 11.6074 12.4348 11.8059C11.8782 12.4704 11.3962 13.1624 12.1639 14.0186C11.8897 13.2783 12.8904 12.5702 13.3116 12.1066C13.4955 11.9073 13.66 11.691 13.8028 11.4605C13.9502 11.2233 14.0765 10.9737 14.1804 10.7145C14.4139 10.8554 14.6337 11.0179 14.8368 11.1999C16.2702 12.4738 16.9979 14.6498 15.4026 15.0939C16.1842 15.5381 19.4619 15.7929 18.9764 12.0836C19.9221 12.6678 20.9274 13.1601 21.9247 13.7225C25.9909 16.0178 24.9258 18.6815 24.5827 19.012C25.5146 18.9891 26.614 18.2844 26.5819 16.0729C26.5819 16.0786 26.5876 16.0855 26.5899 16.0924C27.3256 18.2615 27.3325 19.4986 27.3325 19.4986C27.9132 18.9868 28.5524 18.32 28.6362 17.0633C28.6775 17.2733 29.272 19.3494 29.1331 21.4496C29.5417 21.3119 30.6021 21.0744 31.2115 19.4412C31.4032 20.0151 32.0046 21.2362 32.3879 22.587C32.6427 23.4833 32.832 24.4416 32.793 25.378C32.7264 26.9171 31.9896 27.6734 31.9311 27.8478C31.9839 27.8558 33.7008 27.9947 34.7509 26.2158C35.7838 28.0819 37.3997 30.9442 39.8648 33.6021C39.9452 33.6894 40.068 33.8156 40.2091 33.9556C40.3824 33.3933 40.5626 32.8332 40.7543 32.2766C39.8648 31.4629 38.8606 30.2716 37.9528 28.5834ZM20.2457 52.5625C20.6708 52.591 21.0913 52.668 21.4989 52.792C21.7021 53.2763 21.9752 53.9397 22.2495 54.6363C22.4217 55.0747 22.5938 55.5269 22.7487 55.9607C23.1585 57.1003 23.4557 58.1022 23.3226 58.3329C23.1894 58.5636 22.4297 58.6451 21.4198 58.5624C20.8138 57.6982 20.8322 57.0556 20.9607 55.9986C20.9779 55.8517 20.9986 55.6956 21.0192 55.5303C21.0594 55.125 21.0291 54.7157 20.9297 54.3207C20.7756 53.7085 20.5458 53.1179 20.2457 52.5625ZM7.08213 58.0988C7.74662 57.5995 8.20339 56.7216 8.48457 56.0215C8.75197 56.2993 8.97806 56.5242 9.10774 56.6516C8.97461 58.4236 8.47538 61.7437 6.61045 62.5792C6.03662 62.3497 5.53395 61.5853 5.13457 60.6844C5.34115 59.3635 5.93563 58.963 7.08213 58.0988ZM7.2451 26.7679C7.32569 26.7662 7.4061 26.7763 7.48381 26.7977C7.45856 27.5012 6.60471 28.3952 6.60471 28.3952C7.27609 28.0154 7.73171 27.6929 7.99796 27.1225C8.13865 27.2722 8.24178 27.4531 8.29885 27.6504C8.35591 27.8478 8.36528 28.0558 8.32619 28.2575C8.20224 28.7958 5.9999 29.7036 4.97504 30.1224C6.44748 29.1699 6.52208 26.7885 7.2451 26.769V26.7679ZM6.98803 13.1796C6.56913 13.5021 6.00334 13.6961 5.58445 13.5859L5.56264 13.5389L4.94406 12.2569L2.30446 6.79181L4.06725 8.56608C3.972 8.73708 3.84575 8.92759 3.65639 8.97235C3.7666 8.99756 3.88172 8.99063 3.9881 8.95239C4.09449 8.91414 4.18768 8.84619 4.25661 8.75659L5.08751 9.59667C4.91766 9.9754 4.63878 10.4413 4.20841 10.5148C4.76043 10.6732 5.18277 10.322 5.37902 9.89277L6.43715 10.9612C6.32239 11.3744 6.09286 11.8794 5.53051 12.1089C5.39528 12.1652 5.25332 12.2038 5.10817 12.2237C5.73708 12.3728 6.18811 12.1858 6.47388 11.8794C6.61842 11.7179 6.72507 11.5261 6.78604 11.3182L7.16821 11.7026L7.53201 12.071C7.65252 12.4532 7.38626 12.8755 6.98803 13.1808V13.1796ZM37.4008 27.4691C37.0657 27.1512 35.7941 25.6753 35.2524 24.9637C35.5152 24.1432 35.4682 23.5762 35.288 22.7407C35.0585 24.1179 34.0738 25.6994 33.5665 26.334C33.796 25.4756 33.7065 24.5529 33.5665 23.6887C33.3957 22.7199 33.1134 21.774 32.7253 20.8701C31.8886 18.8272 31.8886 18.8272 31.1656 17.0507C30.7467 18.7481 30.3887 19.5399 29.8309 20.2262C29.8608 19.683 29.825 19.1381 29.7242 18.6035C29.684 18.3797 29.3386 16.6398 27.7077 14.3009C27.8512 15.3854 28.2816 16.6708 27.7697 17.8839C27.7353 16.9749 27.1362 14.3434 25.3183 13.2933C25.8267 14.1701 26.2743 16.9176 25.6626 17.6211C25.7223 16.1062 24.6676 14.7106 23.5177 13.7913C22.6684 13.1131 17.9676 10.4907 17.9516 10.4907C17.9596 10.5022 18.8272 14.2883 16.9278 14.5878C17.3353 13.6697 16.7362 12.0331 15.7733 10.967C15.367 10.5159 14.8954 10.1636 14.4065 10.0156C14.4168 9.96622 14.426 9.91687 14.434 9.86637C14.5924 8.9735 14.5304 7.93602 14.2286 7.14988C13.4057 8.03357 11.3365 8.07144 10.2141 9.04465C9.72518 9.46125 9.21333 10.0993 9.0056 10.8293L8.64753 11.3239L8.38357 11.6877C8.37062 11.6139 8.34332 11.5433 8.30324 11.48L8.24585 11.4249L5.21146 8.5351C4.50565 7.19234 4.31285 3.95137 5.8266 2.50877C5.75889 3.36377 5.81742 7.45975 7.36216 8.14834C6.2914 5.6235 7.42872 0.923863 12.7986 0.895172C11.8151 1.62852 11.0622 2.82897 10.7328 3.63232C10.3779 4.02022 10.0634 4.4432 9.79404 4.89474C10.1819 4.66521 11.4375 2.53172 16.1486 2.51795C17.3995 2.51795 18.7584 2.65452 19.867 3.28573C17.9619 2.81405 15.9317 3.85956 14.3502 4.92343C15.4657 4.56537 17.0862 3.49231 19.3689 3.93875C20.9022 4.23828 21.5322 5.65104 22.7981 6.38095C23.831 6.97544 25.2977 6.93183 25.9736 5.8209C26.1413 5.54466 26.2254 5.22578 26.2158 4.90278C26.5054 5.21032 26.7584 5.55038 26.9698 5.91615C27.4397 6.73021 27.6363 7.67339 27.531 8.6074C26.992 8.57346 26.4509 8.59886 25.9174 8.68314C25.3436 8.75315 24.7698 8.82201 24.1959 8.75659C23.3913 8.65615 22.6163 8.38962 21.9201 7.97389C21.6806 7.8314 21.4506 7.67345 21.2315 7.50106C21.3626 7.69038 21.5064 7.87059 21.6619 8.04046C22.2378 8.68053 22.9881 9.13845 23.8206 9.35796C25.1668 9.72062 26.4798 9.21565 27.8248 9.45322C28.6936 9.60586 29.6886 9.99261 30.7066 10.0902C31.4916 10.1648 32.2892 10.0672 33.0524 9.55995C33.3617 9.34743 33.6219 9.07116 33.8156 8.74971C34.0816 9.48145 34.1149 10.2776 33.9108 11.0289L33.8764 11.1437C33.7552 11.5675 33.5358 11.9568 33.236 12.2799L33.2027 12.3143C32.9123 12.6001 32.5612 12.6976 32.2306 12.895C31.1197 12.436 29.8768 12.2799 28.6729 12.2064C29.754 12.5507 30.8626 12.895 31.8863 13.3839C32.9101 13.8728 33.5986 14.6463 34.3148 15.5071C34.9104 16.2255 35.6047 16.8762 36.5378 17.0977C37.1787 17.2498 37.8496 17.2171 38.4727 17.0036C38.6403 17.939 37.7727 19.4642 36.5642 19.6662C37.1491 20.039 37.7788 20.3363 38.4383 20.551C37.9792 20.9653 36.8832 21.2729 36.1774 21.3096C37.8725 22.1979 38.7241 24.5644 38.6862 26.4867C38.4153 25.8991 38.102 25.2243 37.3916 24.7113C37.5936 25.541 37.5569 26.5441 37.4054 27.4702L37.4008 27.4691Z" fill="#083751"/>
<path d="M10.5101 17.9034C10.4344 17.488 10.2806 17.0289 9.98909 16.7191C10.4166 16.4156 10.9083 16.2145 11.426 16.1315C10.1452 15.8239 9.28443 16.3082 8.30893 17.2562C7.69952 17.8484 6.97421 19.3369 6.82616 19.773C6.65057 20.2894 5.44897 19.8671 5.44897 19.8671C5.69916 20.1838 6.21905 20.5878 6.77222 20.5981C7.18652 20.6062 7.19685 20.3835 7.38736 19.9887C8.5155 19.4711 9.73546 19.4643 10.1968 19.0867C10.5491 18.7986 10.587 18.3625 10.5101 17.9034ZM7.64099 19.4987C8.03579 18.7894 8.68995 17.7933 9.5438 17.0634C9.77333 17.2642 9.90876 17.7141 9.95466 17.9987C10.1314 19.0878 9.16163 18.6999 7.6364 19.4998L7.64099 19.4987Z" fill="#083751"/>
<path d="M3.57145 24.5793C2.4674 25.3884 2.47888 27.4243 2.9345 28.137C2.814 27.1753 3.06992 25.1681 3.98919 25.1531C4.59056 25.1405 4.89469 25.3241 5.0347 25.4527L5.1357 25.5732C5.14851 25.4802 5.14384 25.3856 5.12193 25.2943C5.11045 24.1168 5.7933 23.0575 6.21449 21.9466C5.5305 22.7013 4.95497 23.5476 4.50449 24.4611C4.24627 24.3222 3.92263 24.3222 3.57145 24.5793Z" fill="#083751"/>
</g>
<defs>
<clipPath id="clip0">
<rect width="51.0809" height="64" fill="white"/>
</clipPath>
</defs>
</svg>
