<svg width="375" height="594" viewBox="0 0 375 594" fill="none" xmlns="http://www.w3.org/2000/svg">
<g clip-path="url(#clip0)">
<path fill-rule="evenodd" clip-rule="evenodd" d="M281.42 533.662C281.68 533.569 281.815 533.283 281.723 533.023L206.438 321.917C206.345 321.657 206.059 321.522 205.799 321.614C205.539 321.707 205.403 321.993 205.496 322.253L280.781 533.359C280.873 533.619 281.159 533.755 281.42 533.662Z" fill="url(#paint0_linear)"/>
<path fill-rule="evenodd" clip-rule="evenodd" d="M375.302 445.947C375.49 445.745 375.479 445.428 375.277 445.24L242.97 321.72C242.768 321.531 242.452 321.542 242.263 321.744C242.075 321.946 242.086 322.262 242.288 322.451L374.595 445.971C374.797 446.159 375.113 446.148 375.302 445.947Z" fill="url(#paint1_linear)"/>
<path fill-rule="evenodd" clip-rule="evenodd" d="M187.501 533.691C187.777 533.691 188.001 533.467 188.001 533.191L188.137 322.086C188.137 321.809 187.914 321.585 187.638 321.585C187.361 321.585 187.137 321.809 187.137 322.085L187.001 533.191C187.001 533.467 187.225 533.691 187.501 533.691Z" fill="url(#paint2_linear)"/>
<path fill-rule="evenodd" clip-rule="evenodd" d="M375.4 345.863C375.503 345.607 375.378 345.316 375.121 345.213L316.135 321.621C315.879 321.518 315.588 321.643 315.485 321.9C315.383 322.156 315.507 322.447 315.764 322.55L374.75 346.142C375.006 346.244 375.297 346.119 375.4 345.863Z" fill="url(#paint3_linear)"/>
<path fill-rule="evenodd" clip-rule="evenodd" d="M375.408 336.477C375.499 336.216 375.362 335.931 375.101 335.84L334.445 321.613C334.184 321.522 333.899 321.659 333.807 321.92C333.716 322.181 333.854 322.466 334.114 322.557L374.771 336.784C375.031 336.875 375.317 336.737 375.408 336.477Z" fill="url(#paint4_linear)"/>
<path fill-rule="evenodd" clip-rule="evenodd" d="M375.371 375.892C375.506 375.651 375.42 375.346 375.179 375.211L279.532 321.649C279.291 321.514 278.986 321.6 278.851 321.841C278.716 322.082 278.802 322.387 279.043 322.522L374.691 376.084C374.932 376.219 375.237 376.133 375.371 375.892Z" fill="url(#paint5_linear)"/>
<path fill-rule="evenodd" clip-rule="evenodd" d="M375.346 402.163C375.504 401.937 375.449 401.625 375.223 401.467L261.247 321.675C261.021 321.517 260.709 321.572 260.55 321.798C260.392 322.024 260.447 322.336 260.673 322.495L374.649 402.286C374.876 402.444 375.187 402.389 375.346 402.163Z" fill="url(#paint6_linear)"/>
<path fill-rule="evenodd" clip-rule="evenodd" d="M375.388 358.377C375.505 358.127 375.397 357.829 375.147 357.712L297.83 321.632C297.579 321.515 297.282 321.624 297.165 321.874C297.048 322.124 297.157 322.422 297.407 322.538L374.724 358.618C374.974 358.735 375.271 358.627 375.388 358.377Z" fill="url(#paint7_linear)"/>
<path fill-rule="evenodd" clip-rule="evenodd" d="M-0.059848 345.824C0.042654 346.08 0.333613 346.205 0.590026 346.103L59.5091 322.55C59.7655 322.447 59.8903 322.156 59.7878 321.9C59.6853 321.643 59.3943 321.519 59.1379 321.621L0.218834 345.174C-0.03758 345.277 -0.16235 345.568 -0.059848 345.824Z" fill="url(#paint8_linear)"/>
<path fill-rule="evenodd" clip-rule="evenodd" d="M375.413 329.177C375.495 328.914 375.348 328.633 375.084 328.551L352.759 321.608C352.495 321.526 352.215 321.673 352.133 321.937C352.051 322.2 352.198 322.481 352.462 322.563L374.787 329.506C375.051 329.588 375.331 329.441 375.413 329.177Z" fill="url(#paint9_linear)"/>
<path fill-rule="evenodd" clip-rule="evenodd" d="M375.418 323.337C375.492 323.072 375.337 322.796 375.071 322.721L371.076 321.604C370.81 321.529 370.534 321.685 370.46 321.951C370.386 322.217 370.541 322.492 370.807 322.567L374.802 323.684C375.068 323.759 375.343 323.603 375.418 323.337Z" fill="url(#paint10_linear)"/>
<path fill-rule="evenodd" clip-rule="evenodd" d="M-0.0487284 358.323C0.0679854 358.573 0.36548 358.682 0.615745 358.565L77.8659 322.538C78.1162 322.422 78.2245 322.124 78.1078 321.874C77.991 321.624 77.6936 321.515 77.4433 321.632L0.193087 357.659C-0.0571777 357.775 -0.165442 358.073 -0.0487284 358.323Z" fill="url(#paint11_linear)"/>
<path fill-rule="evenodd" clip-rule="evenodd" d="M-0.00538291 402.046C0.15289 402.273 0.464635 402.328 0.690918 402.169L114.602 322.495C114.828 322.337 114.884 322.025 114.725 321.799C114.567 321.572 114.255 321.517 114.029 321.675L0.117762 401.35C-0.108522 401.508 -0.163656 401.82 -0.00538291 402.046Z" fill="url(#paint12_linear)"/>
<path fill-rule="evenodd" clip-rule="evenodd" d="M93.5826 533.662C93.8426 533.755 94.1288 533.619 94.2219 533.359L169.777 322.254C169.87 321.994 169.735 321.708 169.475 321.615C169.215 321.521 168.928 321.657 168.835 321.917L93.2804 533.022C93.1873 533.282 93.3226 533.569 93.5826 533.662Z" fill="url(#paint13_linear)"/>
<path fill-rule="evenodd" clip-rule="evenodd" d="M-0.0675221 336.449C0.0236605 336.71 0.30888 336.847 0.569534 336.756L41.1581 322.557C41.4188 322.466 41.5562 322.181 41.465 321.92C41.3738 321.66 41.0886 321.522 40.8279 321.613L0.239332 335.812C-0.0213212 335.903 -0.158705 336.189 -0.0675221 336.449Z" fill="url(#paint14_linear)"/>
<path fill-rule="evenodd" clip-rule="evenodd" d="M-0.0319429 375.815C0.102906 376.056 0.407574 376.142 0.648552 376.008L96.2293 322.522C96.4702 322.387 96.5563 322.082 96.4214 321.841C96.2866 321.6 95.9819 321.514 95.7409 321.649L0.160222 375.135C-0.0807566 375.27 -0.166792 375.574 -0.0319429 375.815Z" fill="url(#paint15_linear)"/>
<path fill-rule="evenodd" clip-rule="evenodd" d="M0.0386112 445.736C0.226934 445.938 0.543323 445.949 0.745286 445.761L132.987 322.451C133.189 322.263 133.2 321.946 133.012 321.744C132.823 321.542 132.507 321.531 132.305 321.72L0.0633111 445.029C-0.138653 445.218 -0.149711 445.534 0.0386112 445.736Z" fill="url(#paint16_linear)"/>
<path fill-rule="evenodd" clip-rule="evenodd" d="M-0.0770772 323.32C-0.00265915 323.586 0.273244 323.741 0.53917 323.666L4.46846 322.567C4.73439 322.492 4.88964 322.217 4.81522 321.951C4.7408 321.685 4.4649 321.529 4.19897 321.604L0.269679 322.703C0.00375267 322.778 -0.151495 323.054 -0.0770772 323.32Z" fill="url(#paint17_linear)"/>
<path fill-rule="evenodd" clip-rule="evenodd" d="M-0.073024 329.155C0.00896263 329.418 0.28919 329.566 0.55288 329.484L22.8127 322.563C23.0764 322.481 23.2237 322.2 23.1417 321.937C23.0597 321.673 22.7795 321.526 22.5158 321.608L0.25598 328.529C-0.00771038 328.611 -0.155011 328.891 -0.073024 329.155Z" fill="url(#paint18_linear)"/>
<path fill-rule="evenodd" clip-rule="evenodd" d="M-0.289839 533.597C-0.0652257 533.758 0.247079 533.706 0.407714 533.481L151.382 322.376C151.543 322.151 151.491 321.839 151.266 321.678C151.041 321.518 150.729 321.569 150.569 321.794L-0.405683 532.9C-0.566318 533.124 -0.514453 533.437 -0.289839 533.597Z" fill="url(#paint19_linear)"/>
<path fill-rule="evenodd" clip-rule="evenodd" d="M375.292 533.598C375.516 533.437 375.569 533.125 375.408 532.9L224.705 321.795C224.544 321.57 224.232 321.518 224.007 321.678C223.783 321.839 223.731 322.151 223.891 322.376L374.594 533.481C374.755 533.706 375.067 533.758 375.292 533.598Z" fill="url(#paint20_linear)"/>
<path fill-rule="evenodd" clip-rule="evenodd" d="M-0.0957031 444.565C-0.0957031 444.841 0.128154 445.065 0.404297 445.065L374.936 445.065C375.212 445.065 375.436 444.841 375.436 444.565C375.436 444.288 375.212 444.065 374.936 444.065L0.404297 444.065C0.128155 444.065 -0.0957031 444.288 -0.0957031 444.565Z" fill="url(#paint21_linear)"/>
<path fill-rule="evenodd" clip-rule="evenodd" d="M-0.0957031 359.677C-0.0957031 359.954 0.128154 360.177 0.404297 360.177L374.936 360.177C375.212 360.177 375.436 359.954 375.436 359.677C375.436 359.401 375.212 359.177 374.936 359.177L0.404297 359.177C0.128155 359.177 -0.0957031 359.401 -0.0957031 359.677Z" fill="url(#paint22_linear)"/>
<path fill-rule="evenodd" clip-rule="evenodd" d="M-0.0957031 388.406C-0.0957031 388.682 0.128154 388.906 0.404297 388.906L374.936 388.905C375.212 388.905 375.436 388.682 375.436 388.405C375.436 388.129 375.212 387.905 374.936 387.905L0.404297 387.906C0.128155 387.906 -0.0957031 388.129 -0.0957031 388.406Z" fill="url(#paint23_linear)"/>
<path fill-rule="evenodd" clip-rule="evenodd" d="M-0.0957031 420.706C-0.0957031 420.982 0.128154 421.206 0.404297 421.206L374.936 421.206C375.212 421.206 375.436 420.982 375.436 420.706C375.436 420.429 375.212 420.206 374.936 420.206L0.404297 420.206C0.128155 420.206 -0.0957031 420.429 -0.0957031 420.706Z" fill="url(#paint24_linear)"/>
<path fill-rule="evenodd" clip-rule="evenodd" d="M-0.0957031 477.458C-0.0957031 477.734 0.128154 477.958 0.404297 477.958L374.936 477.957C375.212 477.957 375.436 477.734 375.436 477.457C375.436 477.181 375.212 476.957 374.936 476.957L0.404297 476.958C0.128155 476.958 -0.0957031 477.181 -0.0957031 477.458Z" fill="url(#paint25_linear)"/>
<path fill-rule="evenodd" clip-rule="evenodd" d="M-0.0957031 402.604C-0.0957031 402.881 0.128154 403.104 0.404297 403.104L374.936 403.104C375.212 403.104 375.436 402.88 375.436 402.604C375.436 402.328 375.212 402.104 374.936 402.104L0.404297 402.104C0.128155 402.104 -0.0957031 402.328 -0.0957031 402.604Z" fill="url(#paint26_linear)"/>
<path fill-rule="evenodd" clip-rule="evenodd" d="M-0.0957031 376.966C-0.0957031 377.243 0.128154 377.466 0.404297 377.466L374.936 377.466C375.212 377.466 375.436 377.243 375.436 376.966C375.436 376.69 375.212 376.466 374.936 376.466L0.404297 376.466C0.128155 376.466 -0.0957031 376.69 -0.0957031 376.966Z" fill="url(#paint27_linear)"/>
<path fill-rule="evenodd" clip-rule="evenodd" d="M-0.0957031 330.503C-0.0957031 330.779 0.128154 331.003 0.404297 331.003L374.936 331.003C375.212 331.003 375.436 330.779 375.436 330.503C375.436 330.227 375.212 330.003 374.936 330.003L0.404297 330.003C0.128155 330.003 -0.0957031 330.227 -0.0957031 330.503Z" fill="url(#paint28_linear)"/>
<path fill-rule="evenodd" clip-rule="evenodd" d="M-0.0957031 337.839C-0.0957031 338.116 0.128154 338.339 0.404297 338.339L374.936 338.339C375.212 338.339 375.436 338.116 375.436 337.839C375.436 337.563 375.212 337.339 374.936 337.339L0.404297 337.339C0.128155 337.339 -0.0957031 337.563 -0.0957031 337.839Z" fill="url(#paint29_linear)"/>
<path fill-rule="evenodd" clip-rule="evenodd" d="M-0.0957031 342.228C-0.0957031 342.504 0.128154 342.728 0.404297 342.728L374.936 342.728C375.212 342.728 375.436 342.504 375.436 342.228C375.436 341.952 375.212 341.728 374.936 341.728L0.404297 341.728C0.128155 341.728 -0.0957031 341.952 -0.0957031 342.228Z" fill="url(#paint30_linear)"/>
<path fill-rule="evenodd" clip-rule="evenodd" d="M-0.0957031 333.957C-0.0957031 334.234 0.128154 334.457 0.404297 334.457L374.936 334.457C375.212 334.457 375.436 334.234 375.436 333.957C375.436 333.681 375.212 333.457 374.936 333.457L0.404297 333.457C0.128155 333.457 -0.0957031 333.681 -0.0957031 333.957Z" fill="url(#paint31_linear)"/>
<path fill-rule="evenodd" clip-rule="evenodd" d="M-0.0957031 324.613C-0.0957031 324.889 0.128154 325.113 0.404297 325.113L374.936 325.113C375.212 325.113 375.436 324.889 375.436 324.613C375.436 324.337 375.212 324.113 374.936 324.113L0.404297 324.113C0.128155 324.113 -0.0957031 324.337 -0.0957031 324.613Z" fill="url(#paint32_linear)"/>
<path fill-rule="evenodd" clip-rule="evenodd" d="M-0.0957031 327.405C-0.0957031 327.681 0.128154 327.905 0.404297 327.905L374.936 327.905C375.212 327.905 375.436 327.681 375.436 327.405C375.436 327.129 375.212 326.905 374.936 326.905L0.404297 326.905C0.128155 326.905 -0.0957031 327.129 -0.0957031 327.405Z" fill="url(#paint33_linear)"/>
<path fill-rule="evenodd" clip-rule="evenodd" d="M-0.0957031 322.085C-0.0957031 322.361 0.128154 322.585 0.404297 322.585L374.936 322.585C375.212 322.585 375.436 322.361 375.436 322.085C375.436 321.809 375.212 321.585 374.936 321.585L0.404297 321.585C0.128155 321.585 -0.0957031 321.809 -0.0957031 322.085Z" fill="url(#paint34_linear)"/>
<path fill-rule="evenodd" clip-rule="evenodd" d="M-0.0957031 352.985C-0.0957031 353.261 0.128154 353.485 0.404297 353.485L374.936 353.485C375.212 353.485 375.436 353.261 375.436 352.985C375.436 352.709 375.212 352.485 374.936 352.485L0.404297 352.485C0.128155 352.485 -0.0957031 352.709 -0.0957031 352.985Z" fill="url(#paint35_linear)"/>
<path fill-rule="evenodd" clip-rule="evenodd" d="M-0.0957031 367.556C-0.0957031 367.832 0.128154 368.056 0.404297 368.056L374.936 368.056C375.212 368.056 375.436 367.832 375.436 367.556C375.436 367.28 375.212 367.056 374.936 367.056L0.404297 367.056C0.128155 367.056 -0.0957031 367.28 -0.0957031 367.556Z" fill="url(#paint36_linear)"/>
<path fill-rule="evenodd" clip-rule="evenodd" d="M-0.0957031 347.229C-0.0957031 347.506 0.128154 347.729 0.404297 347.729L374.936 347.729C375.212 347.729 375.436 347.506 375.436 347.229C375.436 346.953 375.212 346.729 374.936 346.729L0.404297 346.729C0.128155 346.729 -0.0957031 346.953 -0.0957031 347.229Z" fill="url(#paint37_linear)"/>
<path fill-rule="evenodd" clip-rule="evenodd" d="M-0.59668 532.924C-0.59668 532.371 -0.148964 531.924 0.40332 531.924L374.935 531.924C375.487 531.924 375.935 532.371 375.935 532.924C375.935 533.476 375.487 533.924 374.935 533.924L0.40332 533.924C-0.148965 533.924 -0.59668 533.476 -0.59668 532.924Z" fill="url(#paint38_linear)"/>
<path fill-rule="evenodd" clip-rule="evenodd" d="M280.575 594L280.575 533.594L281.575 533.594L281.575 594L280.575 594Z" fill="url(#paint39_linear)"/>
<path fill-rule="evenodd" clip-rule="evenodd" d="M187.173 594L187.173 533.594L188.173 533.594L188.173 594L187.173 594Z" fill="url(#paint40_linear)"/>
<path fill-rule="evenodd" clip-rule="evenodd" d="M93.25 594L93.25 533.594L94.25 533.594L94.25 594L93.25 594Z" fill="url(#paint41_linear)"/>
<path opacity="0.0344828" fill-rule="evenodd" clip-rule="evenodd" d="M71.3022 294.315C50.6001 263.084 54.9648 221.557 81.7078 195.313C87.8367 189.299 92.919 182.303 96.7453 174.616C113.441 141.072 151.587 124.088 187.686 134.126C195.96 136.427 204.559 137.331 213.129 136.8C250.527 134.487 284.308 159.031 293.665 195.313C295.809 203.628 299.326 211.527 304.071 218.685C324.773 249.915 320.408 291.442 293.665 317.686C287.536 323.701 282.454 330.696 278.628 338.384C261.932 371.928 223.786 388.911 187.687 378.873C179.413 376.573 170.814 375.669 162.243 376.199C124.846 378.512 91.0645 353.969 81.7079 317.687C79.5636 309.372 76.0467 301.473 71.3022 294.315ZM82.4082 196.027C56.0072 221.935 51.6984 262.931 72.1357 293.763C76.9417 301.013 80.5042 309.014 82.6763 317.437C91.9131 353.255 125.262 377.485 162.182 375.201C170.863 374.664 179.574 375.58 187.955 377.91C223.592 387.82 261.25 371.053 277.732 337.938C281.608 330.151 286.756 323.065 292.965 316.973C319.366 291.064 323.674 250.068 303.237 219.237C298.431 211.987 294.869 203.985 292.697 195.563C283.46 159.745 250.111 135.515 213.191 137.799C204.509 138.336 195.799 137.42 187.418 135.09C151.781 125.18 114.123 141.946 97.6405 175.061C93.7647 182.849 88.6165 189.934 82.4082 196.027Z" fill="url(#paint42_linear)"/>
<path opacity="0.0689655" fill-rule="evenodd" clip-rule="evenodd" d="M70.9314 287.786C52.1248 255.909 58.577 215.171 86.3138 190.666C92.6695 185.051 98.0436 178.414 102.215 171.03C120.418 138.804 158.924 124.023 194.015 135.791C202.056 138.488 210.49 139.824 218.971 139.744C255.98 139.395 288.034 165.352 295.388 201.626C297.073 209.937 300.134 217.91 304.443 225.214C323.25 257.091 316.797 297.829 289.061 322.335C282.705 327.95 277.331 334.586 273.16 341.971C254.957 374.196 216.45 388.977 181.36 377.209C173.319 374.513 164.884 373.177 156.404 373.257C119.394 373.605 87.3402 347.648 79.9863 311.375C78.3012 303.063 75.2409 295.091 70.9314 287.786ZM86.9759 191.415C59.5983 215.603 53.2296 255.814 71.7927 287.278C76.1587 294.679 79.2591 302.755 80.9663 311.176C88.225 346.98 119.864 372.601 156.394 372.257C164.986 372.176 173.531 373.529 181.678 376.261C216.314 387.877 254.322 373.287 272.289 341.479C276.515 333.998 281.959 327.274 288.398 321.585C315.776 297.397 322.145 257.187 303.582 225.722C299.216 218.322 296.115 210.245 294.408 201.824C287.149 166.02 255.51 140.4 218.98 140.744C210.388 140.825 201.843 139.471 193.697 136.739C159.06 125.124 121.053 139.713 103.085 171.522C98.8596 179.003 93.415 185.726 86.9759 191.415Z" fill="url(#paint43_linear)"/>
<path opacity="0.103448" fill-rule="evenodd" clip-rule="evenodd" d="M70.9193 281.323C54.0183 248.911 62.4878 209.065 91.1106 186.33C97.6683 181.121 103.311 174.854 107.806 167.788C127.425 136.946 166.167 124.358 200.167 137.778C207.957 140.853 216.205 142.606 224.572 142.965C261.092 144.535 291.365 171.792 296.743 207.948C297.975 216.231 300.581 224.251 304.453 231.677C321.354 264.089 312.884 303.934 284.262 326.67C277.704 331.879 272.061 338.145 267.567 345.211C247.948 376.054 209.206 388.642 175.205 375.222C167.415 372.147 159.167 370.394 150.8 370.034C114.28 368.465 84.0074 341.207 78.6293 305.052C77.3972 296.768 74.7914 288.748 70.9193 281.323ZM91.7326 187.113C63.485 209.55 55.1266 248.873 71.8059 280.86C75.7295 288.385 78.3699 296.511 79.6184 304.904C84.926 340.586 114.802 367.486 150.843 369.035C159.321 369.399 167.679 371.176 175.572 374.291C209.127 387.536 247.361 375.113 266.723 344.675C271.277 337.515 276.995 331.165 283.64 325.887C311.887 303.449 320.246 264.126 303.566 232.139C299.643 224.615 297.002 216.489 295.754 208.095C290.446 172.413 260.571 145.513 224.529 143.964C216.051 143.6 207.694 141.824 199.8 138.708C166.245 125.464 128.011 137.887 108.649 168.325C104.095 175.485 98.3773 181.835 91.7326 187.113Z" fill="url(#paint44_linear)"/>
<path opacity="0.137931" fill-rule="evenodd" clip-rule="evenodd" d="M71.2611 274.945C56.2697 242.109 66.6809 203.254 96.0815 182.313C102.816 177.517 108.703 171.629 113.5 164.895C134.441 135.494 173.296 125.083 206.131 140.074C213.653 143.508 221.695 145.663 229.926 146.45C265.858 149.885 294.302 178.329 297.736 214.261C298.523 222.492 300.678 230.533 304.112 238.055C319.103 270.891 308.692 309.745 279.292 330.686C272.557 335.483 266.67 341.37 261.873 348.105C240.932 377.505 202.077 387.917 169.242 372.925C161.72 369.491 153.678 367.336 145.447 366.55C109.515 363.115 81.0716 334.671 77.6367 298.739C76.8499 290.508 74.6951 282.466 71.2611 274.945ZM96.6617 183.128C67.6514 203.791 57.3784 242.13 72.1708 274.529C75.651 282.152 77.8348 290.302 78.6322 298.644C82.0215 334.099 110.088 362.165 145.543 365.554C153.884 366.352 162.034 368.535 169.657 372.016C202.057 386.808 240.396 376.535 261.058 347.525C265.92 340.699 271.886 334.733 278.711 329.872C307.722 309.209 317.995 270.87 303.202 238.47C299.722 230.848 297.538 222.697 296.741 214.356C293.352 178.901 265.286 150.835 229.831 147.445C221.489 146.648 213.339 144.464 205.716 140.984C173.316 126.192 134.977 136.465 114.315 165.475C109.453 172.3 103.487 178.266 96.6617 183.128Z" fill="url(#paint45_linear)"/>
<path opacity="0.172414" fill-rule="evenodd" clip-rule="evenodd" d="M71.9462 268.671C58.8619 235.522 71.1347 197.75 101.205 178.622C108.092 174.242 114.199 168.742 119.276 162.351C141.442 134.445 180.29 126.188 211.89 142.665C219.127 146.439 226.943 148.979 235.017 150.18C270.267 155.423 296.842 184.937 298.372 220.543C298.722 228.697 300.431 236.736 303.427 244.328C316.512 277.478 304.239 315.249 274.169 334.377C267.282 338.758 261.174 344.257 256.098 350.648C233.932 378.554 195.084 386.812 163.484 370.334C156.247 366.56 148.43 364.02 140.357 362.82C105.107 357.576 78.532 328.062 77.002 292.457C76.6516 284.302 74.9429 276.263 71.9462 268.671ZM101.742 179.466C72.0758 198.336 59.9681 235.6 72.8764 268.304C75.9139 275.999 77.6459 284.148 78.0011 292.414C79.5105 327.54 105.728 356.658 140.504 361.83C148.688 363.048 156.61 365.622 163.946 369.447C195.122 385.703 233.447 377.557 255.315 350.026C260.461 343.548 266.651 337.974 273.632 333.533C303.298 314.663 315.406 277.399 302.497 244.696C299.46 237 297.728 228.851 297.373 220.586C295.863 185.459 269.646 156.342 234.869 151.169C226.686 149.952 218.763 147.377 211.427 143.552C180.252 127.296 141.927 135.442 120.059 162.973C114.913 169.451 108.722 175.026 101.742 179.466Z" fill="url(#paint46_linear)"/>
<path opacity="0.206897" fill-rule="evenodd" clip-rule="evenodd" d="M72.9646 262.52C61.7788 229.165 75.8287 192.564 106.46 175.261C113.474 171.299 119.778 166.195 125.112 160.157C148.405 133.793 187.128 127.66 217.428 145.536C224.366 149.629 231.939 152.536 239.834 154.137C274.313 161.127 298.986 191.595 298.655 226.774C298.579 234.83 299.848 242.841 302.409 250.479C313.595 283.834 299.545 320.435 268.914 337.738C261.9 341.7 255.596 346.805 250.262 352.842C226.969 379.207 188.246 385.34 157.946 367.463C151.008 363.37 143.435 360.463 135.54 358.862C101.061 351.872 76.3879 321.404 76.7191 286.225C76.795 278.17 75.5261 270.158 72.9646 262.52ZM106.952 176.132C76.7378 193.199 62.8792 229.302 73.9128 262.202C76.5095 269.945 77.796 278.068 77.7191 286.234C77.3924 320.934 101.729 350.987 135.738 357.882C143.743 359.505 151.42 362.452 158.454 366.602C188.342 384.235 226.537 378.185 249.513 352.18C254.92 346.059 261.311 340.884 268.422 336.867C298.636 319.8 312.495 283.698 301.461 250.797C298.864 243.054 297.578 234.932 297.655 226.765C297.982 192.065 273.645 162.012 239.636 155.117C231.631 153.494 223.954 150.547 216.92 146.397C187.032 128.764 148.837 134.814 125.861 160.82C120.454 166.94 114.063 172.115 106.952 176.132Z" fill="url(#paint47_linear)"/>
<path opacity="0.241379" fill-rule="evenodd" clip-rule="evenodd" d="M74.3042 256.509C65.0019 223.056 80.7407 187.706 111.826 172.234C118.943 168.692 125.418 163.987 130.987 158.313C155.307 133.53 193.79 129.486 222.732 148.67C229.358 153.063 236.67 156.318 244.368 158.304C277.991 166.974 300.735 198.279 298.592 232.936C298.101 240.87 298.937 248.831 301.067 256.49C310.369 289.943 294.631 325.293 263.545 340.765C256.429 344.307 249.953 349.012 244.385 354.686C220.064 379.469 181.581 383.513 152.64 364.329C146.014 359.937 138.701 356.681 131.003 354.696C97.3807 346.025 74.6362 314.72 76.7798 280.063C77.2706 272.129 76.4339 264.168 74.3042 256.509ZM112.271 173.13C81.6153 188.388 66.0938 223.25 75.2676 256.241C77.4272 264.008 78.2756 272.08 77.7779 280.125C75.6639 314.303 98.0944 345.176 131.253 353.727C139.059 355.74 146.473 359.042 153.192 363.495C181.734 382.415 219.686 378.426 243.671 353.986C249.317 348.232 255.884 343.461 263.1 339.87C293.756 324.611 309.278 289.75 300.104 256.758C297.944 248.992 297.096 240.92 297.593 232.874C299.707 198.696 277.277 167.823 244.118 159.272C236.313 157.259 228.898 153.958 222.179 149.504C193.637 130.584 155.685 134.573 131.7 159.014C126.054 164.767 119.488 169.538 112.271 173.13Z" fill="url(#paint48_linear)"/>
<path opacity="0.275862" fill-rule="evenodd" clip-rule="evenodd" d="M75.9573 250.656C68.518 217.208 85.8537 183.185 117.286 169.544C124.481 166.421 131.105 162.12 136.884 156.817C162.13 133.65 200.263 131.652 227.793 152.052C234.095 156.722 241.132 160.308 248.614 162.661C281.3 172.942 302.097 204.967 298.195 239.009C297.301 246.801 297.715 254.688 299.418 262.344C306.857 295.792 289.521 329.815 258.089 343.456C250.894 346.579 244.27 350.88 238.491 356.183C213.244 379.35 175.112 381.348 147.582 360.948C141.28 356.278 134.243 352.692 126.761 350.339C94.075 340.058 73.2779 308.033 77.1803 273.991C78.0736 266.199 77.6602 258.312 75.9573 250.656ZM117.684 170.461C86.6914 183.912 69.5982 217.459 76.9335 250.439C78.6605 258.204 79.0797 266.202 78.1738 274.105C74.326 307.671 94.8322 339.248 127.061 349.385C134.649 351.772 141.786 355.408 148.177 360.144C175.322 380.259 212.921 378.289 237.815 355.446C243.676 350.068 250.394 345.706 257.691 342.539C288.683 329.088 305.777 295.541 298.441 262.561C296.714 254.796 296.295 246.798 297.201 238.895C301.049 205.329 280.543 173.752 248.314 163.615C240.726 161.228 233.589 157.592 227.198 152.856C200.053 132.741 162.453 134.711 137.56 157.554C131.699 162.932 124.981 167.294 117.684 170.461Z" fill="url(#paint49_linear)"/>
<path opacity="0.310345" fill-rule="evenodd" clip-rule="evenodd" d="M77.9055 244.975C72.3028 211.635 91.1403 179.007 122.815 167.19C130.064 164.485 136.81 160.59 142.777 155.664C168.849 134.142 206.524 134.142 232.596 155.664C238.562 160.59 245.309 164.485 252.558 167.19C284.232 179.007 303.07 211.635 297.467 244.975C296.185 252.605 296.185 260.395 297.467 268.025C303.07 301.365 284.232 333.993 252.558 345.81C245.309 348.515 238.562 352.41 232.596 357.336C206.524 378.858 168.849 378.858 142.777 357.336C136.81 352.41 130.064 348.515 122.815 345.81C91.1403 333.993 72.3028 301.365 77.9055 268.025C79.1878 260.395 79.1878 252.605 77.9055 244.975ZM123.164 168.127C91.9388 179.777 73.3684 211.942 78.8917 244.809C80.1924 252.549 80.1924 260.451 78.8917 268.191C73.3684 301.058 91.9388 333.223 123.164 344.873C130.517 347.617 137.361 351.568 143.414 356.564C169.116 377.781 206.257 377.781 231.959 356.564C238.011 351.568 244.855 347.617 252.208 344.873C283.434 333.223 302.004 301.058 296.481 268.191C295.18 260.451 295.18 252.549 296.481 244.809C302.004 211.942 283.434 179.777 252.208 168.127C244.855 165.383 238.011 161.432 231.959 156.436C206.257 135.219 169.116 135.219 143.414 156.436C137.361 161.432 130.517 165.383 123.164 168.127Z" fill="url(#paint50_linear)"/>
<path opacity="0.344828" fill-rule="evenodd" clip-rule="evenodd" d="M80.1408 239.481C76.3427 206.349 96.5842 175.18 128.397 165.173C135.676 162.883 142.522 159.395 148.653 154.852C175.448 134.997 212.562 136.942 237.134 159.489C242.756 164.648 249.2 168.833 256.2 171.871C286.793 185.148 303.666 218.262 296.425 250.816C294.768 258.265 294.366 265.938 295.235 273.519C299.033 306.652 278.792 337.821 246.979 347.827C239.7 350.117 232.854 353.605 226.723 358.148C199.928 378.004 162.814 376.059 138.242 353.511C132.62 348.352 126.176 344.167 119.176 341.129C88.5829 327.852 71.7104 294.738 78.951 262.184C80.6077 254.735 81.0098 247.062 80.1408 239.481ZM128.697 166.127C97.3414 175.99 77.3908 206.711 81.1343 239.367C82.016 247.059 81.608 254.844 79.9271 262.401C72.7906 294.487 89.4206 327.126 119.574 340.212C126.676 343.294 133.214 347.54 138.918 352.774C163.137 374.998 199.718 376.915 226.127 357.345C232.348 352.735 239.294 349.196 246.679 346.873C278.035 337.011 297.985 306.289 294.242 273.633C293.36 265.941 293.768 258.156 295.449 250.599C302.585 218.513 285.955 185.875 255.802 172.788C248.7 169.706 242.162 165.46 236.458 160.226C212.239 138.002 175.658 136.085 149.249 155.655C143.028 160.265 136.082 163.804 128.697 166.127Z" fill="url(#paint51_linear)"/>
<path opacity="0.37931" fill-rule="evenodd" clip-rule="evenodd" d="M82.6431 234.189C80.6125 201.36 102.158 171.706 134.007 163.492C141.294 161.613 148.215 158.531 154.487 154.374C181.902 136.201 218.356 140.032 241.394 163.508C246.664 168.879 252.794 173.332 259.53 176.685C288.976 191.341 303.885 224.827 295.073 256.516C293.058 263.766 292.266 271.301 292.73 278.811C294.761 311.64 273.216 341.294 241.366 349.508C234.08 351.387 227.158 354.468 220.887 358.626C193.471 376.799 157.017 372.967 133.979 349.491C128.709 344.121 122.579 339.668 115.843 336.315C86.3969 321.659 71.4881 288.173 80.2998 256.484C82.3157 249.234 83.1076 241.699 82.6431 234.189ZM134.257 164.46C102.871 172.554 81.6402 201.776 83.6412 234.127C84.1126 241.748 83.3089 249.395 81.2633 256.751C72.5799 287.979 87.2715 320.977 116.289 335.419C123.124 338.822 129.345 343.341 134.693 348.791C157.395 371.925 193.318 375.701 220.334 357.792C226.698 353.573 233.722 350.446 241.116 348.539C272.502 340.446 293.733 311.223 291.732 278.873C291.261 271.251 292.064 263.605 294.11 256.248C302.793 225.021 288.102 192.023 259.085 177.58C252.249 174.178 246.029 169.659 240.68 164.209C217.978 141.075 182.055 137.299 155.039 155.207C148.675 159.426 141.651 162.554 134.257 164.46Z" fill="url(#paint52_linear)"/>
<path opacity="0.413793" fill-rule="evenodd" clip-rule="evenodd" d="M85.4011 229.112C85.0957 196.679 107.842 168.59 139.63 162.145C146.9 160.671 153.873 157.994 160.263 154.225C188.197 137.744 223.897 143.398 245.372 167.705C250.283 173.264 256.088 177.965 262.547 181.613C290.787 197.565 303.741 231.309 293.428 262.06C291.069 269.093 289.901 276.471 289.971 283.889C290.276 316.321 267.529 344.411 235.742 350.856C228.472 352.33 221.498 355.006 215.109 358.776C187.174 375.257 151.475 369.602 130 345.296C125.088 339.737 119.283 335.036 112.824 331.387C84.5842 315.436 71.6311 281.692 81.9437 250.941C84.3024 243.907 85.4709 236.53 85.4011 229.112ZM139.828 163.125C108.511 169.474 86.1002 197.149 86.401 229.102C86.4719 236.632 85.2859 244.12 82.8918 251.259C72.7316 281.555 85.4933 314.801 113.316 330.517C119.872 334.22 125.764 338.991 130.749 344.634C151.907 368.581 187.079 374.152 214.601 357.915C221.086 354.089 228.164 351.372 235.543 349.876C266.861 343.526 289.271 315.852 288.971 283.898C288.9 276.369 290.086 268.881 292.48 261.742C302.64 231.446 289.878 198.2 262.056 182.484C255.5 178.781 249.608 174.01 244.622 168.367C223.465 144.42 188.293 138.849 160.771 155.086C154.286 158.912 147.208 161.629 139.828 163.125Z" fill="url(#paint53_linear)"/>
<path opacity="0.448276" fill-rule="evenodd" clip-rule="evenodd" d="M88.4 224.261C89.7728 192.314 113.617 165.832 145.245 161.128C152.478 160.052 159.48 157.777 165.963 154.396C194.317 139.612 229.172 147.02 249.061 172.059C253.609 177.785 259.08 182.711 265.25 186.636C292.23 203.798 303.242 237.688 291.502 267.432C288.817 274.233 287.287 281.435 286.973 288.74C285.6 320.687 261.756 347.168 230.128 351.873C222.895 352.949 215.893 355.224 209.409 358.605C181.056 373.389 146.2 365.98 126.312 340.942C121.764 335.216 116.293 330.29 110.123 326.365C83.1427 309.203 72.131 275.312 83.8708 245.569C86.5554 238.768 88.0861 231.566 88.4 224.261ZM145.392 162.117C114.238 166.751 90.7513 192.836 89.3991 224.304C89.0804 231.72 87.5264 239.031 84.801 245.936C73.2371 275.234 84.0838 308.616 110.66 325.521C116.923 329.506 122.478 334.507 127.095 340.32C146.685 364.983 181.019 372.281 208.947 357.718C215.529 354.286 222.638 351.976 229.98 350.884C261.135 346.25 284.621 320.165 285.974 288.697C286.292 281.281 287.846 273.969 290.572 267.064C302.136 237.767 291.289 204.384 264.713 187.479C258.45 183.495 252.895 178.494 248.278 172.681C228.687 148.018 194.354 140.72 166.426 155.283C159.844 158.715 152.735 161.025 145.392 162.117Z" fill="url(#paint54_linear)"/>
<path opacity="0.482759" fill-rule="evenodd" clip-rule="evenodd" d="M91.6202 219.647C94.6195 188.272 119.456 163.435 150.832 160.436C158.005 159.75 165.013 157.872 171.568 154.879C200.24 141.789 234.167 150.88 252.452 176.552C256.633 182.421 261.763 187.552 267.632 191.732C293.305 210.017 302.396 243.945 289.305 272.617C286.313 279.172 284.435 286.18 283.749 293.353C280.75 324.728 255.913 349.565 224.538 352.564C217.365 353.25 210.356 355.128 203.801 358.121C175.13 371.211 141.202 362.12 122.917 336.448C118.737 330.579 113.606 325.448 107.737 321.268C82.0646 302.983 72.9737 269.055 86.064 240.383C89.0567 233.828 90.9345 226.82 91.6202 219.647ZM150.927 161.431C120.028 164.385 95.5694 188.844 92.6157 219.742C91.9194 227.026 90.0125 234.143 86.9736 240.799C74.0824 269.034 83.0351 302.446 108.317 320.453C114.277 324.698 119.487 329.908 123.731 335.868C141.739 361.15 175.15 370.102 203.386 357.211C210.042 354.172 217.159 352.265 224.442 351.569C255.341 348.615 279.8 324.156 282.754 293.258C283.45 285.974 285.357 278.857 288.396 272.201C301.287 243.966 292.334 210.554 267.052 192.547C261.093 188.302 255.883 183.092 251.638 177.132C233.631 151.85 200.219 142.898 171.983 155.789C165.327 158.828 158.211 160.735 150.927 161.431Z" fill="url(#paint55_linear)"/>
<path opacity="0.517241" fill-rule="evenodd" clip-rule="evenodd" d="M95.0514 215.281C99.6213 184.559 125.345 161.397 156.377 160.064C163.47 159.759 170.462 158.272 177.066 155.666C205.958 144.262 238.878 154.959 255.549 181.167C259.359 187.157 264.142 192.469 269.702 196.885C294.023 216.204 301.22 250.062 286.859 277.603C283.576 283.898 281.367 290.697 280.323 297.719C275.753 328.442 250.029 351.604 218.997 352.937C211.904 353.242 204.912 354.728 198.308 357.335C169.417 368.738 136.496 358.042 119.825 331.834C116.015 325.844 111.232 320.531 105.673 316.116C81.3508 296.797 74.1541 262.939 88.5153 235.397C91.7978 229.102 94.0069 222.304 95.0514 215.281ZM156.42 161.063C125.867 162.375 100.54 185.18 96.0405 215.428C94.9796 222.561 92.736 229.466 89.402 235.86C75.2624 262.976 82.3481 296.312 106.295 315.333C111.941 319.817 116.799 325.213 120.669 331.297C137.083 357.101 169.495 367.632 197.941 356.404C204.648 353.757 211.75 352.247 218.954 351.938C249.508 350.625 274.834 327.821 279.334 297.572C280.395 290.44 282.638 283.535 285.972 277.141C300.112 250.024 293.026 216.689 269.08 197.668C263.433 193.183 258.575 187.787 254.705 181.703C238.291 155.9 205.879 145.368 177.433 156.596C170.726 159.243 163.624 160.753 156.42 161.063Z" fill="url(#paint56_linear)"/>
<path opacity="0.551724" fill-rule="evenodd" clip-rule="evenodd" d="M98.6702 211.171C104.751 181.178 131.255 159.716 161.857 160.004C168.849 160.07 175.804 158.968 182.435 156.744C211.449 147.014 243.289 159.236 258.34 185.882C261.779 191.971 266.211 197.443 271.451 202.073C294.386 222.336 299.721 256.02 284.17 282.378C280.617 288.401 278.094 294.975 276.704 301.829C270.623 331.821 244.119 353.284 213.518 352.996C206.525 352.93 199.57 354.031 192.94 356.255C163.925 365.985 132.086 353.764 117.034 327.118C113.595 321.029 109.164 315.556 103.923 310.926C80.9885 290.664 75.6534 256.979 91.2038 230.622C94.7573 224.599 97.2807 218.025 98.6702 211.171ZM161.847 161.004C131.725 160.72 105.636 181.846 99.6503 211.37C98.2387 218.332 95.6751 225.011 92.0651 231.13C76.7582 257.075 82.0097 290.232 104.585 310.177C109.909 314.881 114.411 320.44 117.905 326.626C132.721 352.855 164.061 364.885 192.622 355.307C199.357 353.048 206.423 351.929 213.527 351.996C243.65 352.279 269.739 331.153 275.724 301.63C277.136 294.667 279.699 287.989 283.309 281.87C298.616 255.925 293.364 222.768 270.789 202.823C265.465 198.119 260.963 192.559 257.469 186.374C242.654 160.145 211.313 148.114 182.753 157.693C176.017 159.951 168.951 161.071 161.847 161.004Z" fill="url(#paint57_linear)"/>
<path opacity="0.586207" fill-rule="evenodd" clip-rule="evenodd" d="M102.461 207.325C109.989 178.135 137.167 158.389 167.255 160.25C174.128 160.675 181.025 159.95 187.66 158.105C216.704 150.029 247.393 163.693 260.826 190.681C263.894 196.846 267.97 202.456 272.886 207.28C294.401 228.394 297.913 261.804 281.257 286.931C277.452 292.671 274.632 299.006 272.912 305.675C265.384 334.865 238.206 354.611 208.118 352.75C201.244 352.325 194.348 353.05 187.713 354.895C158.669 362.971 127.98 349.307 114.547 322.32C111.479 316.154 107.403 310.544 102.487 305.72C80.9715 284.606 77.4599 251.196 94.1155 226.069C97.9207 220.329 100.741 213.994 102.461 207.325ZM167.193 161.248C137.583 159.417 110.837 178.849 103.429 207.575C101.682 214.352 98.8156 220.789 94.949 226.622C78.5582 251.349 82.0139 284.228 103.188 305.006C108.182 309.908 112.324 315.609 115.443 321.874C128.661 348.432 158.863 361.879 187.445 353.931C194.187 352.057 201.195 351.32 208.18 351.752C237.789 353.583 264.536 334.151 271.944 305.425C273.691 298.649 276.557 292.211 280.424 286.378C296.815 261.651 293.359 228.772 272.185 207.994C267.19 203.092 263.049 197.391 259.93 191.126C246.712 164.568 216.51 151.121 187.928 159.069C181.186 160.944 174.178 161.68 167.193 161.248Z" fill="url(#paint58_linear)"/>
<path opacity="0.62069" fill-rule="evenodd" clip-rule="evenodd" d="M106.407 203.75C115.314 175.43 143.061 157.412 172.555 160.793C179.292 161.565 186.11 161.207 192.729 159.735C221.708 153.29 251.186 168.31 263.006 195.543C265.705 201.763 269.424 207.489 274.008 212.485C294.08 234.36 295.811 267.398 278.136 291.251C274.099 296.698 270.999 302.782 268.965 309.25C260.057 337.57 232.31 355.589 202.816 352.208C196.079 351.435 189.261 351.793 182.642 353.265C153.663 359.71 124.185 344.691 112.366 317.457C109.666 311.237 105.948 305.511 101.363 300.515C81.2915 278.641 79.56 245.602 97.2353 221.75C101.272 216.302 104.372 210.218 106.407 203.75ZM172.441 161.786C143.423 158.46 116.124 176.188 107.36 204.05C105.293 210.624 102.142 216.808 98.0387 222.345C80.6488 245.812 82.3523 278.318 102.1 299.839C106.76 304.917 110.539 310.737 113.283 317.059C124.911 343.853 153.914 358.63 182.425 352.289C189.153 350.792 196.083 350.429 202.93 351.214C231.948 354.541 259.247 336.813 268.011 308.95C270.079 302.376 273.229 296.192 277.333 290.655C294.722 267.188 293.019 234.682 273.271 213.161C268.612 208.083 264.832 202.263 262.088 195.941C250.46 169.147 221.458 154.37 192.946 160.711C186.219 162.208 179.288 162.571 172.441 161.786Z" fill="url(#paint59_linear)"/>
<path opacity="0.655172" fill-rule="evenodd" clip-rule="evenodd" d="M110.491 200.45C120.709 173.065 148.919 156.778 177.744 161.622C184.327 162.728 191.047 162.728 197.629 161.622C226.455 156.778 254.665 173.065 264.882 200.45C267.215 206.704 270.576 212.524 274.825 217.671C293.433 240.213 293.433 272.787 274.825 295.328C270.576 300.476 267.215 306.296 264.882 312.549C254.665 339.935 226.455 356.222 197.629 351.378C191.047 350.272 184.327 350.272 177.744 351.378C148.919 356.222 120.709 339.935 110.491 312.549C108.158 306.296 104.798 300.476 100.549 295.328C81.941 272.787 81.941 240.213 100.549 217.671C104.798 212.524 108.158 206.704 110.491 200.45ZM177.579 162.608C149.226 157.843 121.478 173.863 111.428 200.8C109.056 207.158 105.64 213.075 101.32 218.308C83.0172 240.48 83.0172 272.52 101.32 294.692C105.64 299.925 109.056 305.842 111.428 312.2C121.478 339.136 149.226 355.156 177.579 350.392C184.271 349.267 191.103 349.267 197.795 350.392C226.148 355.156 253.895 339.136 263.945 312.2C266.317 305.842 269.734 299.925 274.054 294.692C292.356 272.52 292.356 240.48 274.054 218.308C269.734 213.075 266.317 207.158 263.945 200.8C253.895 173.863 226.148 157.843 197.795 162.608C191.103 163.733 184.271 163.733 177.579 162.608Z" fill="url(#paint60_linear)"/>
<path opacity="0.689655" fill-rule="evenodd" clip-rule="evenodd" d="M114.693 197.426C126.147 171.032 154.717 156.475 182.802 162.722C189.214 164.148 195.818 164.494 202.344 163.746C230.929 160.469 257.82 177.933 266.453 205.379C268.423 211.645 271.426 217.537 275.336 222.814C292.467 245.931 290.789 277.951 271.336 299.151C266.895 303.99 263.293 309.537 260.678 315.562C249.223 341.956 220.654 356.512 192.569 350.266C186.157 348.84 179.553 348.493 173.027 349.241C144.442 352.518 117.551 335.055 108.918 307.609C106.948 301.343 103.945 295.45 100.035 290.173C82.9044 267.056 84.5825 235.037 104.035 213.837C108.476 208.997 112.078 203.451 114.693 197.426ZM182.585 163.698C154.967 157.556 126.874 171.87 115.61 197.824C112.951 203.951 109.288 209.592 104.772 214.513C85.6433 235.36 83.9932 266.846 100.838 289.578C104.815 294.944 107.868 300.937 109.872 307.309C118.362 334.298 144.805 351.47 172.913 348.248C179.549 347.487 186.266 347.839 192.786 349.289C220.404 355.432 248.497 341.118 259.761 315.164C262.42 309.037 266.083 303.396 270.599 298.475C289.728 277.628 291.378 246.142 274.533 223.41C270.556 218.043 267.503 212.051 265.499 205.679C257.009 178.69 230.566 161.518 202.458 164.74C195.822 165.5 189.105 165.148 182.585 163.698Z" fill="url(#paint61_linear)"/>
<path opacity="0.724138" fill-rule="evenodd" clip-rule="evenodd" d="M118.998 194.691C131.614 169.343 160.44 156.509 187.719 164.094C193.945 165.825 200.416 166.505 206.865 166.106C235.126 164.358 260.653 182.905 267.723 210.323C269.337 216.58 271.984 222.524 275.554 227.91C291.198 251.51 287.9 282.891 267.691 302.723C263.079 307.249 259.254 312.513 256.375 318.298C243.758 343.646 214.933 356.48 187.653 348.894C181.428 347.163 174.957 346.483 168.507 346.882C140.247 348.63 114.719 330.083 107.649 302.666C106.035 296.409 103.389 290.465 99.8186 285.079C84.1746 261.478 87.4729 230.098 107.682 210.266C112.294 205.74 116.118 200.476 118.998 194.691ZM187.451 165.058C160.633 157.6 132.296 170.217 119.893 195.136C116.964 201.021 113.074 206.375 108.382 210.979C88.5153 230.476 85.2729 261.325 100.652 284.526C104.284 290.005 106.976 296.051 108.617 302.416C115.568 329.369 140.663 347.602 168.445 345.884C175.006 345.478 181.588 346.17 187.921 347.931C214.739 355.388 243.077 342.771 255.48 317.852C258.408 311.967 262.299 306.613 266.99 302.009C286.857 282.513 290.1 251.663 274.72 228.462C271.089 222.984 268.397 216.937 266.755 210.572C259.804 183.619 234.709 165.386 206.927 167.104C200.366 167.51 193.784 166.818 187.451 165.058Z" fill="url(#paint62_linear)"/>
<path opacity="0.758621" fill-rule="evenodd" clip-rule="evenodd" d="M123.385 192.241C137.086 167.987 166.067 156.862 192.478 165.719C198.504 167.74 204.825 168.741 211.18 168.681C239.035 168.419 263.161 187.955 268.696 215.256C269.959 221.485 272.252 227.46 275.481 232.934C289.636 256.926 284.78 287.587 263.904 306.031C259.141 310.239 255.114 315.213 251.988 320.747C238.287 345.001 209.306 356.126 182.895 347.269C176.869 345.248 170.548 344.247 164.193 344.307C136.337 344.569 112.212 325.033 106.677 297.732C105.414 291.503 103.121 285.528 99.8912 280.054C85.7364 256.062 90.5927 225.401 111.469 206.957C116.232 202.749 120.259 197.775 123.385 192.241ZM192.16 166.667C166.204 157.962 137.72 168.896 124.256 192.733C121.075 198.364 116.977 203.424 112.131 207.706C91.6139 225.833 86.8412 255.967 100.752 279.546C104.039 285.116 106.372 291.195 107.657 297.533C113.097 324.365 136.807 343.565 164.183 343.307C170.65 343.246 177.081 344.265 183.212 346.321C209.169 355.026 237.652 344.092 251.117 320.255C254.298 314.624 258.395 309.564 263.242 305.282C283.759 287.155 288.532 257.021 274.62 233.442C271.334 227.872 269.001 221.793 267.716 215.455C262.276 188.624 238.566 169.423 211.19 169.681C204.723 169.742 198.291 168.723 192.16 166.667Z" fill="url(#paint63_linear)"/>
<path opacity="0.793103" fill-rule="evenodd" clip-rule="evenodd" d="M127.837 190.079C142.542 166.961 171.581 157.525 197.067 167.585C202.88 169.879 209.035 171.187 215.278 171.456C242.652 172.632 265.343 193.063 269.374 220.163C270.293 226.345 272.238 232.329 275.127 237.871C287.795 262.165 281.447 292.031 259.993 309.073C255.099 312.96 250.889 317.636 247.535 322.909C232.829 346.027 203.79 355.462 178.305 345.403C172.492 343.109 166.337 341.8 160.093 341.532C132.72 340.356 110.029 319.925 105.998 292.824C105.078 286.643 103.134 280.658 100.244 275.117C87.5761 250.823 93.9243 220.956 115.379 203.915C120.272 200.028 124.483 195.352 127.837 190.079ZM196.7 168.515C171.66 158.631 143.129 167.902 128.681 190.616C125.267 195.982 120.981 200.742 116.001 204.698C94.9216 221.441 88.6843 250.785 101.131 274.655C104.072 280.295 106.051 286.386 106.987 292.677C110.947 319.304 133.241 339.377 160.136 340.533C166.491 340.806 172.755 342.138 178.672 344.473C203.712 354.356 232.243 345.086 246.691 322.372C250.105 317.005 254.39 312.246 259.371 308.29C280.45 291.546 286.687 262.202 274.241 238.333C271.3 232.693 269.321 226.602 268.385 220.311C264.424 193.684 242.13 173.61 215.236 172.455C208.881 172.182 202.616 170.85 196.7 168.515Z" fill="url(#paint64_linear)"/>
<path opacity="0.827586" fill-rule="evenodd" clip-rule="evenodd" d="M132.337 188.204C147.967 166.26 176.968 158.489 201.475 169.678C207.063 172.23 213.038 173.831 219.153 174.415C245.972 176.979 267.202 198.209 269.766 225.027C270.35 231.143 271.951 237.117 274.503 242.706C285.692 267.213 277.921 296.214 255.977 311.843C250.974 315.407 246.6 319.781 243.036 324.785C227.406 346.729 198.406 354.499 173.898 343.31C168.31 340.759 162.335 339.158 156.22 338.573C129.401 336.01 108.171 314.78 105.608 287.961C105.023 281.846 103.422 275.871 100.871 270.283C89.6815 245.775 97.4521 216.775 119.396 201.145C124.4 197.581 128.774 193.207 132.337 188.204ZM201.06 170.588C176.988 159.598 148.504 167.23 133.152 188.784C129.524 193.878 125.071 198.331 119.976 201.96C98.4226 217.311 90.7902 245.796 101.78 269.867C104.378 275.557 106.008 281.64 106.603 287.866C109.121 314.208 129.973 335.06 156.315 337.578C162.541 338.173 168.624 339.803 174.313 342.401C198.385 353.391 226.87 345.758 242.221 324.205C245.85 319.11 250.303 314.657 255.397 311.029C276.951 295.677 284.583 267.193 273.593 243.121C270.995 237.432 269.365 231.349 268.77 225.123C266.252 198.781 245.4 177.929 219.058 175.411C212.832 174.815 206.749 173.185 201.06 170.588Z" fill="url(#paint65_linear)"/>
<path opacity="0.862069" fill-rule="evenodd" clip-rule="evenodd" d="M136.867 186.614C153.339 165.877 182.207 159.741 205.69 171.985C211.043 174.777 216.824 176.655 222.795 177.543C248.99 181.44 268.738 203.372 269.875 229.831C270.134 235.862 271.398 241.808 273.614 247.423C283.338 272.057 274.218 300.126 251.872 314.34C246.778 317.58 242.261 321.648 238.506 326.375C222.034 347.112 193.166 353.248 169.683 341.004C164.33 338.212 158.549 336.334 152.578 335.446C126.383 331.549 106.635 309.617 105.498 283.158C105.239 277.126 103.975 271.181 101.758 265.565C92.0353 240.932 101.155 212.863 123.501 198.649C128.595 195.409 133.112 191.341 136.867 186.614ZM205.227 172.872C182.17 160.849 153.824 166.874 137.65 187.236C133.826 192.05 129.225 196.193 124.038 199.492C102.097 213.449 93.1414 241.01 102.689 265.198C104.946 270.917 106.233 276.972 106.497 283.115C107.613 309.095 127.004 330.631 152.725 334.457C158.807 335.361 164.694 337.274 170.146 340.117C193.203 352.14 221.549 346.115 237.723 325.753C241.547 320.939 246.148 316.796 251.335 313.496C273.276 299.54 282.232 271.979 272.684 247.791C270.427 242.072 269.14 236.017 268.876 229.874C267.76 203.894 248.369 182.358 222.648 178.532C216.566 177.628 210.679 175.715 205.227 172.872Z" fill="url(#paint66_linear)"/>
<path opacity="0.896552" fill-rule="evenodd" clip-rule="evenodd" d="M141.409 185.308C158.641 165.804 187.287 161.267 209.702 174.491C214.81 177.505 220.385 179.645 226.197 180.823C251.704 185.994 269.956 208.534 269.711 234.558C269.655 240.489 270.589 246.387 272.475 252.009C280.75 276.684 270.356 303.761 247.696 316.561C242.532 319.478 237.891 323.236 233.965 327.681C216.733 347.184 188.087 351.722 165.672 338.497C160.564 335.484 154.989 333.344 149.177 332.165C123.67 326.994 105.418 304.454 105.663 278.43C105.718 272.5 104.784 266.602 102.899 260.979C94.6235 236.304 105.017 209.227 127.678 196.427C132.841 193.51 137.482 189.752 141.409 185.308ZM209.194 175.352C187.191 162.371 159.073 166.825 142.158 185.97C138.158 190.498 133.43 194.326 128.17 197.298C105.926 209.862 95.724 236.44 103.847 260.661C105.768 266.389 106.719 272.398 106.663 278.439C106.422 303.985 124.338 326.109 149.375 331.185C155.297 332.386 160.976 334.566 166.18 337.636C188.182 350.617 216.301 346.163 233.215 327.018C237.216 322.491 241.944 318.662 247.204 315.691C269.447 303.126 279.65 276.548 271.527 252.327C269.606 246.599 268.654 240.59 268.711 234.549C268.952 209.004 251.035 186.879 225.998 181.803C220.077 180.603 214.398 178.422 209.194 175.352Z" fill="url(#paint67_linear)"/>
<path opacity="0.931035" fill-rule="evenodd" clip-rule="evenodd" d="M145.945 184.282C163.854 166.033 192.191 163.055 213.502 177.182C218.356 180.4 223.714 182.785 229.354 184.239C254.111 190.624 270.859 213.675 269.281 239.194C268.921 245.008 269.534 250.84 271.095 256.451C277.944 281.085 266.355 307.114 243.466 318.507C238.251 321.102 233.507 324.549 229.427 328.706C211.519 346.955 183.182 349.933 161.871 335.807C157.017 332.589 151.659 330.203 146.019 328.749C121.261 322.364 104.514 299.313 106.092 273.794C106.452 267.981 105.839 262.148 104.278 256.537C97.4287 231.904 109.018 205.874 131.907 194.481C137.121 191.886 141.866 188.439 145.945 184.282ZM212.949 178.015C192.038 164.153 164.232 167.076 146.659 184.982C142.502 189.219 137.667 192.732 132.353 195.377C109.892 206.556 98.5205 232.097 105.242 256.269C106.832 261.988 107.457 267.931 107.09 273.856C105.541 298.896 121.975 321.516 146.269 327.781C152.017 329.263 157.477 331.694 162.424 334.973C183.335 348.835 211.141 345.912 228.714 328.006C232.871 323.769 237.706 320.257 243.02 317.612C265.48 306.433 276.852 280.891 270.131 256.719C268.541 251.001 267.916 245.057 268.283 239.133C269.832 214.092 253.398 191.473 229.104 185.208C223.356 183.725 217.896 181.294 212.949 178.015Z" fill="url(#paint68_linear)"/>
<path opacity="0.965517" fill-rule="evenodd" clip-rule="evenodd" d="M150.461 183.533C168.963 166.556 196.907 165.092 217.082 180.042C221.676 183.446 226.806 186.06 232.261 187.776C256.214 195.31 271.455 218.778 268.595 243.725C267.944 249.406 268.245 255.156 269.486 260.737C274.938 285.248 262.234 310.181 239.2 320.178C233.954 322.455 229.126 325.59 224.913 329.456C206.411 346.433 178.466 347.898 158.292 332.948C153.698 329.544 148.568 326.93 143.113 325.214C119.16 317.68 103.919 294.211 106.779 269.264C107.43 263.584 107.129 257.834 105.887 252.252C100.436 227.741 113.14 202.808 136.174 192.811C141.419 190.535 146.248 187.399 150.461 183.533ZM216.487 180.845C196.697 166.18 169.286 167.617 151.137 184.27C146.842 188.211 141.92 191.408 136.572 193.729C113.977 203.535 101.516 227.992 106.864 252.035C108.129 257.725 108.436 263.587 107.773 269.378C104.967 293.849 119.917 316.87 143.413 324.26C148.974 326.009 154.204 328.674 158.887 332.144C178.677 346.809 206.088 345.373 224.236 328.72C228.532 324.778 233.454 321.582 238.802 319.261C261.396 309.455 273.858 284.998 268.51 260.954C267.245 255.264 266.937 249.403 267.601 243.611C270.407 219.141 255.457 196.12 231.961 188.729C226.4 186.98 221.17 184.316 216.487 180.845Z" fill="url(#paint69_linear)"/>
<path fill-rule="evenodd" clip-rule="evenodd" d="M154.938 183.055C173.95 167.361 201.422 167.361 220.434 183.055C224.762 186.627 229.655 189.452 234.913 191.414C258.01 200.032 271.747 223.824 267.661 248.135C266.731 253.669 266.731 259.32 267.661 264.854C271.747 289.166 258.01 312.958 234.913 321.575C229.655 323.537 224.762 326.362 220.434 329.935C201.422 345.629 173.95 345.629 154.938 329.935C150.61 326.362 145.717 323.537 140.459 321.575C117.362 312.958 103.625 289.166 107.711 264.854C108.641 259.32 108.641 253.669 107.711 248.135C103.625 223.824 117.362 200.032 140.459 191.414C145.717 189.452 150.61 186.627 154.938 183.055ZM219.797 183.826C201.155 168.437 174.217 168.437 155.575 183.826C151.161 187.469 146.17 190.35 140.808 192.351C118.16 200.801 104.691 224.131 108.697 247.97C109.645 253.613 109.645 259.376 108.697 265.02C104.691 288.859 118.16 312.189 140.808 320.639C146.17 322.639 151.161 325.52 155.575 329.164C174.217 344.553 201.155 344.553 219.797 329.164C224.211 325.52 229.201 322.639 234.563 320.639C257.212 312.189 270.681 288.859 266.675 265.02C265.726 259.376 265.726 253.613 266.675 247.97C270.681 224.131 257.212 200.801 234.563 192.351C229.201 190.35 224.211 187.469 219.797 183.826Z" fill="url(#paint70_linear)"/>
<g clip-path="url(#clip1)">
<path d="M172.143 260.596C171.657 260.052 171.059 259.779 170.347 259.779H155.788C155.659 259.779 155.553 259.739 155.473 259.659C155.392 259.58 155.352 259.49 155.352 259.395V249.783C155.352 249.688 155.392 249.6 155.473 249.52C155.553 249.439 155.659 249.399 155.788 249.399H171.172C175.055 249.399 178.404 250.954 181.219 254.061L184.956 258.529L177.676 267.228L172.143 260.596ZM199.03 254.013C201.845 250.937 205.21 249.399 209.125 249.399H224.461C224.59 249.399 224.687 249.432 224.752 249.495C224.816 249.56 224.849 249.655 224.849 249.783V259.395C224.849 259.49 224.816 259.58 224.752 259.659C224.687 259.739 224.59 259.779 224.461 259.779H209.902C209.19 259.779 208.592 260.052 208.106 260.596L197.38 273.379L208.154 286.258C208.64 286.771 209.221 287.027 209.902 287.027H224.461C224.59 287.027 224.687 287.067 224.752 287.148C224.816 287.228 224.849 287.332 224.849 287.459V297.071C224.849 297.166 224.816 297.256 224.752 297.334C224.687 297.415 224.59 297.455 224.461 297.455H209.125C205.21 297.455 201.861 295.901 199.079 292.793L190.149 282.125L181.219 292.793C178.404 295.901 175.039 297.455 171.124 297.455H155.788C155.659 297.455 155.561 297.415 155.497 297.334C155.431 297.254 155.4 297.151 155.4 297.021V287.41C155.4 287.314 155.431 287.226 155.497 287.146C155.561 287.066 155.659 287.026 155.788 287.026H170.347C171.026 287.026 171.624 286.754 172.143 286.208L182.674 273.618L199.03 254.013Z" fill="url(#paint71_linear)"/>
</g>
<rect width="375" height="172" fill="url(#paint72_radial)"/>
</g>
<defs>
<linearGradient id="paint0_linear" x1="243.609" y1="533.691" x2="243.609" y2="321.585" gradientUnits="userSpaceOnUse">
<stop stop-color="#ED1EFF"/>
<stop offset="1" stop-color="#00D1FF"/>
</linearGradient>
<linearGradient id="paint1_linear" x1="308.783" y1="446.105" x2="308.783" y2="321.585" gradientUnits="userSpaceOnUse">
<stop stop-color="#ED1EFF"/>
<stop offset="1" stop-color="#00D1FF"/>
</linearGradient>
<linearGradient id="paint2_linear" x1="187.569" y1="533.691" x2="187.569" y2="321.585" gradientUnits="userSpaceOnUse">
<stop stop-color="#ED1EFF"/>
<stop offset="1" stop-color="#00D1FF"/>
</linearGradient>
<linearGradient id="paint3_linear" x1="345.443" y1="346.177" x2="345.443" y2="321.585" gradientUnits="userSpaceOnUse">
<stop stop-color="#ED1EFF"/>
<stop offset="1" stop-color="#00D1FF"/>
</linearGradient>
<linearGradient id="paint4_linear" x1="354.608" y1="336.812" x2="354.608" y2="321.585" gradientUnits="userSpaceOnUse">
<stop stop-color="#ED1EFF"/>
<stop offset="1" stop-color="#00D1FF"/>
</linearGradient>
<linearGradient id="paint5_linear" x1="327.111" y1="376.148" x2="327.111" y2="321.585" gradientUnits="userSpaceOnUse">
<stop stop-color="#ED1EFF"/>
<stop offset="1" stop-color="#00D1FF"/>
</linearGradient>
<linearGradient id="paint6_linear" x1="317.948" y1="402.377" x2="317.948" y2="321.585" gradientUnits="userSpaceOnUse">
<stop stop-color="#ED1EFF"/>
<stop offset="1" stop-color="#00D1FF"/>
</linearGradient>
<linearGradient id="paint7_linear" x1="336.277" y1="358.666" x2="336.277" y2="321.585" gradientUnits="userSpaceOnUse">
<stop stop-color="#ED1EFF"/>
<stop offset="1" stop-color="#00D1FF"/>
</linearGradient>
<linearGradient id="paint8_linear" x1="29.864" y1="346.138" x2="29.864" y2="321.585" gradientUnits="userSpaceOnUse">
<stop stop-color="#ED1EFF"/>
<stop offset="1" stop-color="#00D1FF"/>
</linearGradient>
<linearGradient id="paint9_linear" x1="363.773" y1="329.529" x2="363.773" y2="321.585" gradientUnits="userSpaceOnUse">
<stop stop-color="#ED1EFF"/>
<stop offset="1" stop-color="#00D1FF"/>
</linearGradient>
<linearGradient id="paint10_linear" x1="372.939" y1="323.703" x2="372.939" y2="321.585" gradientUnits="userSpaceOnUse">
<stop stop-color="#ED1EFF"/>
<stop offset="1" stop-color="#00D1FF"/>
</linearGradient>
<linearGradient id="paint11_linear" x1="39.0295" y1="358.612" x2="39.0295" y2="321.585" gradientUnits="userSpaceOnUse">
<stop stop-color="#ED1EFF"/>
<stop offset="1" stop-color="#00D1FF"/>
</linearGradient>
<linearGradient id="paint12_linear" x1="57.36" y1="402.26" x2="57.3599" y2="321.585" gradientUnits="userSpaceOnUse">
<stop stop-color="#ED1EFF"/>
<stop offset="1" stop-color="#00D1FF"/>
</linearGradient>
<linearGradient id="paint13_linear" x1="131.529" y1="533.691" x2="131.529" y2="321.585" gradientUnits="userSpaceOnUse">
<stop stop-color="#ED1EFF"/>
<stop offset="1" stop-color="#00D1FF"/>
</linearGradient>
<linearGradient id="paint14_linear" x1="20.6987" y1="336.784" x2="20.6987" y2="321.585" gradientUnits="userSpaceOnUse">
<stop stop-color="#ED1EFF"/>
<stop offset="1" stop-color="#00D1FF"/>
</linearGradient>
<linearGradient id="paint15_linear" x1="48.1947" y1="376.071" x2="48.1947" y2="321.585" gradientUnits="userSpaceOnUse">
<stop stop-color="#ED1EFF"/>
<stop offset="1" stop-color="#00D1FF"/>
</linearGradient>
<linearGradient id="paint16_linear" x1="66.5252" y1="445.895" x2="66.5251" y2="321.585" gradientUnits="userSpaceOnUse">
<stop stop-color="#ED1EFF"/>
<stop offset="1" stop-color="#00D1FF"/>
</linearGradient>
<linearGradient id="paint17_linear" x1="2.36907" y1="323.685" x2="2.36907" y2="321.585" gradientUnits="userSpaceOnUse">
<stop stop-color="#ED1EFF"/>
<stop offset="1" stop-color="#00D1FF"/>
</linearGradient>
<linearGradient id="paint18_linear" x1="11.5343" y1="329.506" x2="11.5343" y2="321.585" gradientUnits="userSpaceOnUse">
<stop stop-color="#ED1EFF"/>
<stop offset="1" stop-color="#00D1FF"/>
</linearGradient>
<linearGradient id="paint19_linear" x1="75.4881" y1="533.691" x2="75.4881" y2="321.585" gradientUnits="userSpaceOnUse">
<stop stop-color="#ED1EFF"/>
<stop offset="1" stop-color="#00D1FF"/>
</linearGradient>
<linearGradient id="paint20_linear" x1="299.65" y1="533.691" x2="299.65" y2="321.585" gradientUnits="userSpaceOnUse">
<stop stop-color="#ED1EFF"/>
<stop offset="1" stop-color="#00D1FF"/>
</linearGradient>
<linearGradient id="paint21_linear" x1="187.67" y1="445.065" x2="187.67" y2="444.065" gradientUnits="userSpaceOnUse">
<stop stop-color="#ED1EFF"/>
<stop offset="1" stop-color="#00D1FF"/>
</linearGradient>
<linearGradient id="paint22_linear" x1="187.67" y1="360.177" x2="187.67" y2="359.177" gradientUnits="userSpaceOnUse">
<stop stop-color="#ED1EFF"/>
<stop offset="1" stop-color="#00D1FF"/>
</linearGradient>
<linearGradient id="paint23_linear" x1="187.67" y1="388.905" x2="187.67" y2="387.905" gradientUnits="userSpaceOnUse">
<stop stop-color="#ED1EFF"/>
<stop offset="1" stop-color="#00D1FF"/>
</linearGradient>
<linearGradient id="paint24_linear" x1="187.67" y1="421.206" x2="187.67" y2="420.206" gradientUnits="userSpaceOnUse">
<stop stop-color="#ED1EFF"/>
<stop offset="1" stop-color="#00D1FF"/>
</linearGradient>
<linearGradient id="paint25_linear" x1="187.67" y1="477.957" x2="187.67" y2="476.957" gradientUnits="userSpaceOnUse">
<stop stop-color="#ED1EFF"/>
<stop offset="1" stop-color="#00D1FF"/>
</linearGradient>
<linearGradient id="paint26_linear" x1="187.67" y1="403.104" x2="187.67" y2="402.104" gradientUnits="userSpaceOnUse">
<stop stop-color="#ED1EFF"/>
<stop offset="1" stop-color="#00D1FF"/>
</linearGradient>
<linearGradient id="paint27_linear" x1="187.67" y1="377.466" x2="187.67" y2="376.466" gradientUnits="userSpaceOnUse">
<stop stop-color="#ED1EFF"/>
<stop offset="1" stop-color="#00D1FF"/>
</linearGradient>
<linearGradient id="paint28_linear" x1="187.67" y1="331.003" x2="187.67" y2="330.003" gradientUnits="userSpaceOnUse">
<stop stop-color="#ED1EFF"/>
<stop offset="1" stop-color="#00D1FF"/>
</linearGradient>
<linearGradient id="paint29_linear" x1="187.67" y1="338.339" x2="187.67" y2="337.339" gradientUnits="userSpaceOnUse">
<stop stop-color="#ED1EFF"/>
<stop offset="1" stop-color="#00D1FF"/>
</linearGradient>
<linearGradient id="paint30_linear" x1="187.67" y1="342.728" x2="187.67" y2="341.728" gradientUnits="userSpaceOnUse">
<stop stop-color="#ED1EFF"/>
<stop offset="1" stop-color="#00D1FF"/>
</linearGradient>
<linearGradient id="paint31_linear" x1="187.67" y1="334.457" x2="187.67" y2="333.457" gradientUnits="userSpaceOnUse">
<stop stop-color="#ED1EFF"/>
<stop offset="1" stop-color="#00D1FF"/>
</linearGradient>
<linearGradient id="paint32_linear" x1="187.67" y1="325.113" x2="187.67" y2="324.113" gradientUnits="userSpaceOnUse">
<stop stop-color="#ED1EFF"/>
<stop offset="1" stop-color="#00D1FF"/>
</linearGradient>
<linearGradient id="paint33_linear" x1="187.67" y1="327.905" x2="187.67" y2="326.905" gradientUnits="userSpaceOnUse">
<stop stop-color="#ED1EFF"/>
<stop offset="1" stop-color="#00D1FF"/>
</linearGradient>
<linearGradient id="paint34_linear" x1="187.67" y1="322.585" x2="187.67" y2="321.585" gradientUnits="userSpaceOnUse">
<stop stop-color="#ED1EFF"/>
<stop offset="1" stop-color="#00D1FF"/>
</linearGradient>
<linearGradient id="paint35_linear" x1="187.67" y1="353.485" x2="187.67" y2="352.485" gradientUnits="userSpaceOnUse">
<stop stop-color="#ED1EFF"/>
<stop offset="1" stop-color="#00D1FF"/>
</linearGradient>
<linearGradient id="paint36_linear" x1="187.67" y1="368.056" x2="187.67" y2="367.056" gradientUnits="userSpaceOnUse">
<stop stop-color="#ED1EFF"/>
<stop offset="1" stop-color="#00D1FF"/>
</linearGradient>
<linearGradient id="paint37_linear" x1="187.67" y1="347.729" x2="187.67" y2="346.729" gradientUnits="userSpaceOnUse">
<stop stop-color="#ED1EFF"/>
<stop offset="1" stop-color="#00D1FF"/>
</linearGradient>
<linearGradient id="paint38_linear" x1="187.669" y1="531.924" x2="187.669" y2="533.924" gradientUnits="userSpaceOnUse">
<stop stop-color="#ED1EFF"/>
<stop offset="1" stop-color="#00D1FF"/>
</linearGradient>
<linearGradient id="paint39_linear" x1="281.575" y1="533.594" x2="281.575" y2="594" gradientUnits="userSpaceOnUse">
<stop stop-color="#ED1EFF"/>
<stop offset="0.643466" stop-color="#00D1FF"/>
<stop offset="1" stop-color="#0C0628"/>
</linearGradient>
<linearGradient id="paint40_linear" x1="188.173" y1="533.594" x2="188.173" y2="594" gradientUnits="userSpaceOnUse">
<stop stop-color="#ED1EFF"/>
<stop offset="0.643466" stop-color="#00D1FF"/>
<stop offset="1" stop-color="#0C0628"/>
</linearGradient>
<linearGradient id="paint41_linear" x1="94.25" y1="533.594" x2="94.25" y2="594" gradientUnits="userSpaceOnUse">
<stop stop-color="#ED1EFF"/>
<stop offset="0.643466" stop-color="#00D1FF"/>
<stop offset="1" stop-color="#0C0628"/>
</linearGradient>
<linearGradient id="paint42_linear" x1="58.7131" y1="242.944" x2="316.66" y2="270.055" gradientUnits="userSpaceOnUse">
<stop stop-color="#ED1EFF"/>
<stop offset="1" stop-color="#00D1FF"/>
</linearGradient>
<linearGradient id="paint43_linear" x1="61.1688" y1="236.462" x2="314.206" y2="276.539" gradientUnits="userSpaceOnUse">
<stop stop-color="#ED1EFF"/>
<stop offset="1" stop-color="#00D1FF"/>
</linearGradient>
<linearGradient id="paint44_linear" x1="63.9435" y1="230.197" x2="311.429" y2="282.802" gradientUnits="userSpaceOnUse">
<stop stop-color="#ED1EFF"/>
<stop offset="1" stop-color="#00D1FF"/>
</linearGradient>
<linearGradient id="paint45_linear" x1="67.0243" y1="224.168" x2="308.349" y2="288.831" gradientUnits="userSpaceOnUse">
<stop stop-color="#ED1EFF"/>
<stop offset="1" stop-color="#00D1FF"/>
</linearGradient>
<linearGradient id="paint46_linear" x1="70.3926" y1="218.388" x2="304.981" y2="294.611" gradientUnits="userSpaceOnUse">
<stop stop-color="#ED1EFF"/>
<stop offset="1" stop-color="#00D1FF"/>
</linearGradient>
<linearGradient id="paint47_linear" x1="74.0309" y1="212.871" x2="301.343" y2="300.128" gradientUnits="userSpaceOnUse">
<stop stop-color="#ED1EFF"/>
<stop offset="1" stop-color="#00D1FF"/>
</linearGradient>
<linearGradient id="paint48_linear" x1="77.9197" y1="207.629" x2="297.452" y2="305.371" gradientUnits="userSpaceOnUse">
<stop stop-color="#ED1EFF"/>
<stop offset="1" stop-color="#00D1FF"/>
</linearGradient>
<linearGradient id="paint49_linear" x1="82.0448" y1="202.672" x2="293.33" y2="310.328" gradientUnits="userSpaceOnUse">
<stop stop-color="#ED1EFF"/>
<stop offset="1" stop-color="#00D1FF"/>
</linearGradient>
<linearGradient id="paint50_linear" x1="86.3812" y1="198.011" x2="288.992" y2="314.989" gradientUnits="userSpaceOnUse">
<stop stop-color="#ED1EFF"/>
<stop offset="1" stop-color="#00D1FF"/>
</linearGradient>
<linearGradient id="paint51_linear" x1="90.9148" y1="193.655" x2="284.461" y2="319.345" gradientUnits="userSpaceOnUse">
<stop stop-color="#ED1EFF"/>
<stop offset="1" stop-color="#00D1FF"/>
</linearGradient>
<linearGradient id="paint52_linear" x1="95.6201" y1="189.61" x2="279.753" y2="323.39" gradientUnits="userSpaceOnUse">
<stop stop-color="#ED1EFF"/>
<stop offset="1" stop-color="#00D1FF"/>
</linearGradient>
<linearGradient id="paint53_linear" x1="100.481" y1="185.883" x2="274.891" y2="327.118" gradientUnits="userSpaceOnUse">
<stop stop-color="#ED1EFF"/>
<stop offset="1" stop-color="#00D1FF"/>
</linearGradient>
<linearGradient id="paint54_linear" x1="105.477" y1="182.479" x2="269.896" y2="330.522" gradientUnits="userSpaceOnUse">
<stop stop-color="#ED1EFF"/>
<stop offset="1" stop-color="#00D1FF"/>
</linearGradient>
<linearGradient id="paint55_linear" x1="110.585" y1="179.4" x2="264.784" y2="333.6" gradientUnits="userSpaceOnUse">
<stop stop-color="#ED1EFF"/>
<stop offset="1" stop-color="#00D1FF"/>
</linearGradient>
<linearGradient id="paint56_linear" x1="115.791" y1="176.651" x2="259.583" y2="336.349" gradientUnits="userSpaceOnUse">
<stop stop-color="#ED1EFF"/>
<stop offset="1" stop-color="#00D1FF"/>
</linearGradient>
<linearGradient id="paint57_linear" x1="121.068" y1="174.232" x2="254.306" y2="338.768" gradientUnits="userSpaceOnUse">
<stop stop-color="#ED1EFF"/>
<stop offset="1" stop-color="#00D1FF"/>
</linearGradient>
<linearGradient id="paint58_linear" x1="126.398" y1="172.143" x2="248.975" y2="340.857" gradientUnits="userSpaceOnUse">
<stop stop-color="#ED1EFF"/>
<stop offset="1" stop-color="#00D1FF"/>
</linearGradient>
<linearGradient id="paint59_linear" x1="131.761" y1="170.384" x2="243.61" y2="342.617" gradientUnits="userSpaceOnUse">
<stop stop-color="#ED1EFF"/>
<stop offset="1" stop-color="#00D1FF"/>
</linearGradient>
<linearGradient id="paint60_linear" x1="137.14" y1="168.95" x2="238.234" y2="344.05" gradientUnits="userSpaceOnUse">
<stop stop-color="#ED1EFF"/>
<stop offset="1" stop-color="#00D1FF"/>
</linearGradient>
<linearGradient id="paint61_linear" x1="142.511" y1="167.834" x2="232.86" y2="345.154" gradientUnits="userSpaceOnUse">
<stop stop-color="#ED1EFF"/>
<stop offset="1" stop-color="#00D1FF"/>
</linearGradient>
<linearGradient id="paint62_linear" x1="147.86" y1="167.042" x2="227.513" y2="345.946" gradientUnits="userSpaceOnUse">
<stop stop-color="#ED1EFF"/>
<stop offset="1" stop-color="#00D1FF"/>
</linearGradient>
<linearGradient id="paint63_linear" x1="153.165" y1="166.563" x2="222.208" y2="346.425" gradientUnits="userSpaceOnUse">
<stop stop-color="#ED1EFF"/>
<stop offset="1" stop-color="#00D1FF"/>
</linearGradient>
<linearGradient id="paint64_linear" x1="158.409" y1="166.39" x2="216.962" y2="346.598" gradientUnits="userSpaceOnUse">
<stop stop-color="#ED1EFF"/>
<stop offset="1" stop-color="#00D1FF"/>
</linearGradient>
<linearGradient id="paint65_linear" x1="163.577" y1="166.516" x2="211.796" y2="346.472" gradientUnits="userSpaceOnUse">
<stop stop-color="#ED1EFF"/>
<stop offset="1" stop-color="#00D1FF"/>
</linearGradient>
<linearGradient id="paint66_linear" x1="168.649" y1="166.931" x2="206.724" y2="346.058" gradientUnits="userSpaceOnUse">
<stop stop-color="#ED1EFF"/>
<stop offset="1" stop-color="#00D1FF"/>
</linearGradient>
<linearGradient id="paint67_linear" x1="173.612" y1="167.626" x2="201.762" y2="345.362" gradientUnits="userSpaceOnUse">
<stop stop-color="#ED1EFF"/>
<stop offset="1" stop-color="#00D1FF"/>
</linearGradient>
<linearGradient id="paint68_linear" x1="178.447" y1="168.591" x2="196.925" y2="344.397" gradientUnits="userSpaceOnUse">
<stop stop-color="#ED1EFF"/>
<stop offset="1" stop-color="#00D1FF"/>
</linearGradient>
<linearGradient id="paint69_linear" x1="183.144" y1="169.815" x2="192.23" y2="343.175" gradientUnits="userSpaceOnUse">
<stop stop-color="#ED1EFF"/>
<stop offset="1" stop-color="#00D1FF"/>
</linearGradient>
<linearGradient id="paint70_linear" x1="187.686" y1="171.284" x2="187.686" y2="341.705" gradientUnits="userSpaceOnUse">
<stop stop-color="#ED1EFF"/>
<stop offset="1" stop-color="#00D1FF"/>
</linearGradient>
<linearGradient id="paint71_linear" x1="190.1" y1="249.399" x2="190.245" y2="297.456" gradientUnits="userSpaceOnUse">
<stop stop-color="#00D1FF"/>
<stop offset="1" stop-color="#0F0F39"/>
</linearGradient>
<radialGradient id="paint72_radial" cx="0" cy="0" r="1" gradientUnits="userSpaceOnUse" gradientTransform="translate(187.5 82.3248) rotate(90) scale(89.6752 195.513)">
<stop stop-color="#140635"/>
<stop offset="1" stop-color="#170637" stop-opacity="0"/>
</radialGradient>
<clipPath id="clip0">
<rect width="375" height="594" fill="white"/>
</clipPath>
<clipPath id="clip1">
<rect width="69.4974" height="48.0567" fill="white" transform="translate(155.352 249.399)"/>
</clipPath>
</defs>
</svg>
