<svg width="1440" height="870" viewBox="0 0 1440 870" fill="none" xmlns="http://www.w3.org/2000/svg">
<g clip-path="url(#clip0)">
<rect width="1440" height="870" />
<g opacity="0.5" filter="url(#filter0_f)">
<path d="M1308.5 443.591C1322.7 390.615 1320.34 333.905 1301.6 277.51C1282.85 221.115 1248.19 166.427 1200.08 117.352L804.77 308.617L1308.5 443.591Z" fill="#00D1FF"/>
</g>
<g opacity="0.5" filter="url(#filter1_f)">
<path d="M126.281 319.324C112.105 372.229 114.482 428.869 133.24 485.2C151.999 541.531 186.678 596.161 234.799 645.191L630.011 454.299L126.281 319.324Z" fill="#ED1EFF"/>
</g>
<mask id="mask0" style="mask-type:alpha" maskUnits="userSpaceOnUse" x="0" y="-10" width="1440" height="1195">
<path d="M0 -9.6377H1440V1184.36H0V-9.6377Z" fill="#160654"/>
<path d="M0 -9.6377H1440V1184.36H0V-9.6377Z" fill="black" fill-opacity="0.47"/>
</mask>
<g mask="url(#mask0)">
<path fill-rule="evenodd" clip-rule="evenodd" d="M1080 670.867C1080.21 670.743 1080.23 670.529 1080.04 670.389L790.681 450.338C790.497 450.199 790.181 450.186 789.975 450.311C789.769 450.435 789.751 450.649 789.934 450.789L1079.3 670.839C1079.48 670.979 1079.79 670.991 1080 670.867Z" fill="url(#paint0_linear)"/>
<path fill-rule="evenodd" clip-rule="evenodd" d="M1440.22 579.436C1440.31 579.261 1440.18 579.066 1439.92 579L931.393 450.246C931.134 450.181 930.846 450.27 930.75 450.445C930.653 450.62 930.784 450.815 931.043 450.88L1439.57 579.635C1439.83 579.7 1440.12 579.611 1440.22 579.436Z" fill="url(#paint1_linear)"/>
<path fill-rule="evenodd" clip-rule="evenodd" d="M719.329 670.952C719.605 670.953 719.83 670.801 719.83 670.614L720.354 450.564C720.354 450.377 720.131 450.225 719.855 450.224C719.579 450.224 719.354 450.375 719.354 450.562L718.83 670.613C718.83 670.8 719.053 670.952 719.329 670.952Z" fill="url(#paint2_linear)"/>
<path fill-rule="evenodd" clip-rule="evenodd" d="M1440.24 475.209C1440.29 475.024 1440.1 474.85 1439.83 474.821L1213.11 450.229C1212.84 450.2 1212.58 450.325 1212.54 450.51C1212.49 450.694 1212.68 450.868 1212.95 450.898L1439.67 475.489C1439.94 475.519 1440.2 475.393 1440.24 475.209Z" fill="url(#paint3_linear)"/>
<path fill-rule="evenodd" clip-rule="evenodd" d="M1440.24 465.44C1440.28 465.254 1440.09 465.083 1439.82 465.057L1283.55 450.228C1283.28 450.202 1283.03 450.331 1282.99 450.516C1282.95 450.701 1283.14 450.873 1283.41 450.899L1439.68 465.728C1439.95 465.754 1440.21 465.625 1440.24 465.44Z" fill="url(#paint4_linear)"/>
<path fill-rule="evenodd" clip-rule="evenodd" d="M1440.24 506.469C1440.3 506.287 1440.13 506.106 1439.86 506.065L1072.23 450.233C1071.96 450.192 1071.69 450.307 1071.63 450.489C1071.57 450.672 1071.74 450.853 1072.01 450.894L1439.64 506.726C1439.91 506.767 1440.18 506.652 1440.24 506.469Z" fill="url(#paint5_linear)"/>
<path fill-rule="evenodd" clip-rule="evenodd" d="M1440.23 533.827C1440.3 533.647 1440.15 533.46 1439.88 533.41L1001.81 450.237C1001.54 450.187 1001.27 450.292 1001.19 450.472C1001.12 450.652 1001.27 450.838 1001.54 450.889L1439.61 534.062C1439.88 534.112 1440.15 534.007 1440.23 533.827Z" fill="url(#paint6_linear)"/>
<path fill-rule="evenodd" clip-rule="evenodd" d="M1440.24 488.235C1440.29 488.051 1440.11 487.874 1439.84 487.84L1142.67 450.231C1142.4 450.196 1142.13 450.317 1142.08 450.501C1142.03 450.685 1142.21 450.862 1142.48 450.896L1439.66 488.505C1439.93 488.539 1440.19 488.418 1440.24 488.235Z" fill="url(#paint7_linear)"/>
<path fill-rule="evenodd" clip-rule="evenodd" d="M-0.277816 475.168C-0.234155 475.352 0.0222817 475.478 0.294951 475.449L226.754 450.898C227.027 450.868 227.212 450.694 227.169 450.51C227.125 450.325 226.869 450.199 226.596 450.229L0.136838 474.78C-0.13583 474.81 -0.321478 474.983 -0.277816 475.168Z" fill="url(#paint8_linear)"/>
<path fill-rule="evenodd" clip-rule="evenodd" d="M1440.25 457.843C1440.28 457.658 1440.09 457.488 1439.81 457.465L1354 450.227C1353.73 450.204 1353.48 450.336 1353.44 450.521C1353.41 450.707 1353.6 450.876 1353.88 450.899L1439.69 458.137C1439.96 458.16 1440.21 458.029 1440.25 457.843Z" fill="url(#paint9_linear)"/>
<path fill-rule="evenodd" clip-rule="evenodd" d="M1440.25 451.766C1440.28 451.58 1440.08 451.413 1439.81 451.392L1424.45 450.227C1424.18 450.206 1423.93 450.34 1423.9 450.526C1423.87 450.712 1424.07 450.879 1424.34 450.9L1439.69 452.065C1439.97 452.086 1440.22 451.952 1440.25 451.766Z" fill="url(#paint10_linear)"/>
<path fill-rule="evenodd" clip-rule="evenodd" d="M-0.276564 488.179C-0.225856 488.362 0.0353019 488.483 0.306749 488.449L297.222 450.896C297.494 450.862 297.673 450.685 297.622 450.501C297.571 450.317 297.31 450.196 297.039 450.231L0.123118 487.784C-0.148329 487.818 -0.327273 487.995 -0.276564 488.179Z" fill="url(#paint11_linear)"/>
<path fill-rule="evenodd" clip-rule="evenodd" d="M-0.266489 533.705C-0.191991 533.885 0.0839596 533.99 0.349863 533.94L438.174 450.889C438.44 450.839 438.595 450.652 438.521 450.472C438.446 450.292 438.17 450.187 437.905 450.237L0.0800794 533.288C-0.185824 533.338 -0.340988 533.525 -0.266489 533.705Z" fill="url(#paint12_linear)"/>
<path fill-rule="evenodd" clip-rule="evenodd" d="M358.665 670.866C358.871 670.991 359.187 670.979 359.371 670.84L649.771 450.789C649.955 450.649 649.937 450.435 649.731 450.311C649.525 450.186 649.209 450.198 649.025 450.338L358.625 670.388C358.441 670.528 358.459 670.742 358.665 670.866Z" fill="url(#paint13_linear)"/>
<path fill-rule="evenodd" clip-rule="evenodd" d="M-0.280257 465.411C-0.241936 465.596 0.0108204 465.725 0.284291 465.699L156.289 450.899C156.562 450.873 156.753 450.702 156.715 450.516C156.676 450.331 156.424 450.202 156.15 450.228L0.14552 465.029C-0.12795 465.055 -0.318577 465.226 -0.280257 465.411Z" fill="url(#paint14_linear)"/>
<path fill-rule="evenodd" clip-rule="evenodd" d="M-0.272942 506.39C-0.212543 506.572 0.0548573 506.687 0.324313 506.646L367.694 450.894C367.964 450.853 368.133 450.672 368.073 450.489C368.013 450.307 367.745 450.192 367.476 450.233L0.10559 505.985C-0.163866 506.026 -0.333341 506.207 -0.272942 506.39Z" fill="url(#paint15_linear)"/>
<path fill-rule="evenodd" clip-rule="evenodd" d="M-0.252438 579.216C-0.155816 579.392 0.132218 579.48 0.390905 579.415L508.67 450.88C508.928 450.815 509.06 450.62 508.963 450.445C508.867 450.27 508.579 450.181 508.32 450.246L0.041007 578.781C-0.21768 578.846 -0.34906 579.041 -0.252438 579.216Z" fill="url(#paint16_linear)"/>
<path fill-rule="evenodd" clip-rule="evenodd" d="M-0.281999 451.747C-0.251238 451.933 -0.00383618 452.067 0.270587 452.046L15.3731 450.9C15.6475 450.879 15.845 450.711 15.8142 450.526C15.7835 450.34 15.5361 450.206 15.2617 450.227L0.159189 451.373C-0.115234 451.394 -0.312761 451.561 -0.281999 451.747Z" fill="url(#paint17_linear)"/>
<path fill-rule="evenodd" clip-rule="evenodd" d="M-0.281271 457.819C-0.247143 458.005 0.00266495 458.137 0.27669 458.114L85.8336 450.899C86.1076 450.876 86.3021 450.707 86.2679 450.521C86.2338 450.336 85.984 450.204 85.71 450.227L0.153102 457.442C-0.120923 457.465 -0.315399 457.634 -0.281271 457.819Z" fill="url(#paint18_linear)"/>
<path fill-rule="evenodd" clip-rule="evenodd" d="M-1.77111 670.779C-1.63616 670.942 -1.33146 671 -1.09054 670.909L579.188 450.858C579.429 450.767 579.514 450.561 579.379 450.398C579.245 450.234 578.94 450.176 578.699 450.268L-1.57921 670.318C-1.82013 670.41 -1.90605 670.616 -1.77111 670.779Z" fill="url(#paint19_linear)"/>
<path fill-rule="evenodd" clip-rule="evenodd" d="M1440.44 670.78C1440.57 670.616 1440.49 670.41 1440.24 670.319L861.007 450.268C860.767 450.176 860.462 450.234 860.327 450.397C860.192 450.56 860.277 450.767 860.518 450.858L1439.76 670.909C1440 671.001 1440.3 670.943 1440.44 670.78Z" fill="url(#paint20_linear)"/>
<path fill-rule="evenodd" clip-rule="evenodd" d="M-0.285156 578.232C-0.285156 578.419 -0.0612986 578.571 0.214844 578.571L1439.75 578.571C1440.02 578.571 1440.25 578.419 1440.25 578.232C1440.25 578.045 1440.02 577.894 1439.75 577.894L0.214844 577.894C-0.0612987 577.894 -0.285156 578.045 -0.285156 578.232Z" fill="url(#paint21_linear)"/>
<path fill-rule="evenodd" clip-rule="evenodd" d="M-0.285156 489.748C-0.285156 489.935 -0.0612986 490.087 0.214844 490.087L1439.75 490.087C1440.02 490.087 1440.25 489.935 1440.25 489.748C1440.25 489.561 1440.02 489.41 1439.75 489.41L0.214844 489.41C-0.0612987 489.41 -0.285156 489.561 -0.285156 489.748Z" fill="url(#paint22_linear)"/>
<path fill-rule="evenodd" clip-rule="evenodd" d="M-0.285156 519.694C-0.285156 519.881 -0.0612986 520.032 0.214844 520.032L1439.75 520.032C1440.02 520.032 1440.25 519.881 1440.25 519.694C1440.25 519.507 1440.02 519.355 1439.75 519.355L0.214844 519.355C-0.0612987 519.355 -0.285156 519.507 -0.285156 519.694Z" fill="url(#paint23_linear)"/>
<path fill-rule="evenodd" clip-rule="evenodd" d="M-0.285156 553.362C-0.285156 553.549 -0.0612986 553.701 0.214844 553.701L1439.75 553.701C1440.02 553.701 1440.25 553.549 1440.25 553.362C1440.25 553.175 1440.02 553.024 1439.75 553.024L0.214844 553.024C-0.0612987 553.024 -0.285156 553.175 -0.285156 553.362Z" fill="url(#paint24_linear)"/>
<path fill-rule="evenodd" clip-rule="evenodd" d="M-0.285156 612.519C-0.285156 612.706 -0.0612986 612.858 0.214844 612.858L1439.75 612.858C1440.02 612.858 1440.25 612.706 1440.25 612.519C1440.25 612.332 1440.02 612.181 1439.75 612.181L0.214844 612.181C-0.0612987 612.181 -0.285156 612.332 -0.285156 612.519Z" fill="url(#paint25_linear)"/>
<path fill-rule="evenodd" clip-rule="evenodd" d="M-0.285156 534.494C-0.285156 534.681 -0.0612986 534.833 0.214844 534.833L1439.75 534.833C1440.02 534.833 1440.25 534.681 1440.25 534.494C1440.25 534.307 1440.02 534.156 1439.75 534.156L0.214844 534.156C-0.0612987 534.156 -0.285156 534.307 -0.285156 534.494Z" fill="url(#paint26_linear)"/>
<path fill-rule="evenodd" clip-rule="evenodd" d="M-0.285156 507.77C-0.285156 507.957 -0.0612986 508.109 0.214844 508.109L1439.75 508.109C1440.02 508.109 1440.25 507.957 1440.25 507.77C1440.25 507.583 1440.02 507.432 1439.75 507.432L0.214844 507.431C-0.0612987 507.431 -0.285156 507.583 -0.285156 507.77Z" fill="url(#paint27_linear)"/>
<path fill-rule="evenodd" clip-rule="evenodd" d="M-0.285156 459.338C-0.285156 459.525 -0.0612986 459.677 0.214844 459.677L1439.75 459.677C1440.02 459.677 1440.25 459.525 1440.25 459.338C1440.25 459.151 1440.02 459 1439.75 459L0.214844 459C-0.0612987 459 -0.285156 459.151 -0.285156 459.338Z" fill="url(#paint28_linear)"/>
<path fill-rule="evenodd" clip-rule="evenodd" d="M-0.285156 466.985C-0.285156 467.172 -0.0612986 467.324 0.214844 467.324L1439.75 467.324C1440.02 467.324 1440.25 467.172 1440.25 466.985C1440.25 466.798 1440.02 466.647 1439.75 466.647L0.214844 466.647C-0.0612987 466.647 -0.285156 466.798 -0.285156 466.985Z" fill="url(#paint29_linear)"/>
<path fill-rule="evenodd" clip-rule="evenodd" d="M-0.285156 471.56C-0.285156 471.747 -0.0612986 471.898 0.214844 471.898L1439.75 471.898C1440.02 471.898 1440.25 471.747 1440.25 471.56C1440.25 471.373 1440.02 471.221 1439.75 471.221L0.214844 471.221C-0.0612987 471.221 -0.285156 471.373 -0.285156 471.56Z" fill="url(#paint30_linear)"/>
<path fill-rule="evenodd" clip-rule="evenodd" d="M-0.285156 462.939C-0.285156 463.126 -0.0612986 463.277 0.214844 463.277L1439.75 463.277C1440.02 463.277 1440.25 463.126 1440.25 462.939C1440.25 462.752 1440.02 462.6 1439.75 462.6L0.214844 462.6C-0.0612987 462.6 -0.285156 462.752 -0.285156 462.939Z" fill="url(#paint31_linear)"/>
<path fill-rule="evenodd" clip-rule="evenodd" d="M-0.285156 453.198C-0.285156 453.385 -0.0612986 453.537 0.214844 453.537L1439.75 453.537C1440.02 453.537 1440.25 453.385 1440.25 453.198C1440.25 453.011 1440.02 452.86 1439.75 452.86L0.214844 452.86C-0.0612987 452.86 -0.285156 453.011 -0.285156 453.198Z" fill="url(#paint32_linear)"/>
<path fill-rule="evenodd" clip-rule="evenodd" d="M-0.285156 456.109C-0.285156 456.296 -0.0612986 456.447 0.214844 456.447L1439.75 456.448C1440.02 456.448 1440.25 456.296 1440.25 456.109C1440.25 455.922 1440.02 455.77 1439.75 455.77L0.214844 455.77C-0.0612987 455.77 -0.285156 455.922 -0.285156 456.109Z" fill="url(#paint33_linear)"/>
<path fill-rule="evenodd" clip-rule="evenodd" d="M-0.285156 450.563C-0.285156 450.75 -0.0612986 450.902 0.214844 450.902L1439.75 450.902C1440.02 450.902 1440.25 450.75 1440.25 450.563C1440.25 450.376 1440.02 450.225 1439.75 450.225L0.214844 450.225C-0.0612987 450.225 -0.285156 450.376 -0.285156 450.563Z" fill="url(#paint34_linear)"/>
<path fill-rule="evenodd" clip-rule="evenodd" d="M-0.285156 482.772C-0.285156 482.959 -0.0612986 483.111 0.214844 483.111L1439.75 483.111C1440.02 483.111 1440.25 482.959 1440.25 482.772C1440.25 482.586 1440.02 482.434 1439.75 482.434L0.214844 482.434C-0.0612987 482.434 -0.285156 482.585 -0.285156 482.772Z" fill="url(#paint35_linear)"/>
<path fill-rule="evenodd" clip-rule="evenodd" d="M-0.285156 497.96C-0.285156 498.147 -0.0612986 498.299 0.214844 498.299L1439.75 498.299C1440.02 498.299 1440.25 498.147 1440.25 497.96C1440.25 497.774 1440.02 497.622 1439.75 497.622L0.214844 497.622C-0.0612987 497.622 -0.285156 497.773 -0.285156 497.96Z" fill="url(#paint36_linear)"/>
<path fill-rule="evenodd" clip-rule="evenodd" d="M-0.285156 476.773C-0.285156 476.96 -0.0612986 477.112 0.214844 477.112L1439.75 477.112C1440.02 477.112 1440.25 476.96 1440.25 476.773C1440.25 476.586 1440.02 476.435 1439.75 476.435L0.214844 476.435C-0.0612987 476.435 -0.285156 476.586 -0.285156 476.773Z" fill="url(#paint37_linear)"/>
<path fill-rule="evenodd" clip-rule="evenodd" d="M-0.786133 670.336C-0.786133 669.962 -0.338418 669.659 0.213867 669.659L1439.75 669.659C1440.3 669.659 1440.75 669.962 1440.75 670.336C1440.75 670.71 1440.3 671.013 1439.75 671.013L0.213867 671.013C-0.338418 671.013 -0.786133 670.71 -0.786133 670.336Z" fill="url(#paint38_linear)"/>
<path fill-rule="evenodd" clip-rule="evenodd" d="M1078.5 734L1078.5 671.035L1079.5 671.035L1079.5 734L1078.5 734Z" fill="url(#paint39_linear)"/>
<path fill-rule="evenodd" clip-rule="evenodd" d="M719.5 734L719.5 671.035L720.5 671.035L720.5 734L719.5 734Z" fill="url(#paint40_linear)"/>
<path fill-rule="evenodd" clip-rule="evenodd" d="M358.5 734L358.5 671.035L359.5 671.035L359.5 734L358.5 734Z" fill="url(#paint41_linear)"/>
<path opacity="0.0344828" fill-rule="evenodd" clip-rule="evenodd" d="M548.376 426.584C506.513 382.53 501.788 314.97 537.113 265.518C545.249 254.129 551.427 241.461 555.394 228.038C572.614 169.756 628.76 131.885 689.249 137.751C703.181 139.102 717.24 138.119 730.848 134.842C789.932 120.615 850.803 150.303 875.967 205.621C881.762 218.362 889.643 230.046 899.285 240.193C941.149 284.247 945.873 351.807 910.548 401.258C902.412 412.648 896.234 425.315 892.268 438.739C875.048 497.02 818.901 534.892 758.412 529.025C744.481 527.674 730.421 528.657 716.813 531.934C657.73 546.162 596.859 516.473 571.695 461.155C565.899 448.415 558.018 436.73 548.376 426.584ZM537.927 266.099C502.881 315.161 507.568 382.188 549.101 425.895C558.819 436.122 566.763 447.899 572.605 460.741C597.57 515.623 657.961 545.078 716.579 530.962C730.295 527.659 744.466 526.668 758.509 528.03C818.52 533.85 874.224 496.277 891.309 438.455C895.306 424.925 901.534 412.157 909.734 400.677C944.781 351.616 940.094 284.588 898.56 240.882C888.842 230.654 880.898 218.877 875.056 206.035C850.091 151.154 789.7 121.699 731.082 135.815C717.366 139.117 703.195 140.108 689.153 138.747C629.141 132.926 573.437 170.499 556.353 228.321C552.355 241.851 546.128 254.619 537.927 266.099Z" fill="url(#paint42_linear)"/>
<path opacity="0.0689655" fill-rule="evenodd" clip-rule="evenodd" d="M545.948 416.246C506.931 370.628 505.764 303.742 543.165 256.789C551.778 245.976 558.526 233.802 563.132 220.767C583.131 164.168 640.472 129.714 699.834 138.628C713.505 140.681 727.423 140.438 741.014 137.909C800.029 126.929 858.538 159.361 880.5 215.227C885.557 228.093 892.727 240.025 901.712 250.531C940.729 296.15 941.896 363.035 904.495 409.988C895.882 420.801 889.134 432.976 884.528 446.01C864.529 502.609 807.188 537.063 747.826 528.149C734.155 526.096 720.237 526.339 706.646 528.868C647.631 539.848 589.122 507.416 567.16 451.55C562.102 438.684 554.933 426.752 545.948 416.246ZM543.947 257.412C506.845 303.99 508.003 370.342 546.708 415.596C555.765 426.187 562.992 438.215 568.091 451.184C589.877 506.604 647.919 538.777 706.463 527.885C720.163 525.336 734.193 525.091 747.974 527.16C806.863 536.003 863.746 501.824 883.585 445.677C888.228 432.538 895.031 420.265 903.713 409.365C940.815 362.787 939.657 296.435 900.952 251.181C891.894 240.59 884.667 228.563 879.569 215.593C857.782 160.173 799.741 128 741.197 138.892C727.496 141.441 713.467 141.686 699.686 139.617C640.797 130.774 583.914 164.953 564.075 221.1C559.432 234.24 552.629 246.512 543.947 257.412Z" fill="url(#paint43_linear)"/>
<path opacity="0.103448" fill-rule="evenodd" clip-rule="evenodd" d="M544.116 405.913C507.994 358.904 510.3 292.878 549.613 248.504C558.666 238.286 565.95 226.629 571.165 214.013C593.815 159.226 652.148 128.21 710.233 140.069C723.609 142.8 737.346 143.28 750.88 141.489C809.651 133.71 865.679 168.72 884.451 224.953C888.774 237.902 895.227 250.039 903.545 260.864C939.667 307.872 937.361 373.898 898.048 418.272C888.995 428.49 881.711 440.147 876.496 452.763C853.846 507.55 795.513 538.566 737.428 526.707C724.052 523.976 710.315 523.496 696.781 525.288C638.01 533.066 581.982 498.056 563.21 441.823C558.887 428.874 552.434 416.737 544.116 405.913ZM550.361 249.167C511.366 293.183 509.079 358.675 544.909 405.303C553.295 416.216 559.801 428.452 564.159 441.506C582.779 497.285 638.354 532.012 696.65 524.296C710.294 522.49 724.143 522.974 737.628 525.727C795.244 537.491 853.105 506.725 875.571 452.381C880.829 439.663 888.173 427.91 897.3 417.609C936.295 373.594 938.582 308.101 902.752 261.473C894.366 250.56 887.86 238.324 883.502 225.27C864.882 169.491 809.307 134.764 751.011 142.48C737.367 144.286 723.518 143.802 710.033 141.049C652.417 129.286 594.556 160.051 572.089 214.395C566.831 227.114 559.488 238.866 550.361 249.167Z" fill="url(#paint44_linear)"/>
<path opacity="0.137931" fill-rule="evenodd" clip-rule="evenodd" d="M542.872 395.617C509.681 347.395 515.367 282.407 556.427 240.682C565.881 231.074 573.665 219.957 579.46 207.787C604.625 154.933 663.75 127.363 720.415 142.059C733.462 145.443 746.982 146.625 760.419 145.559C818.775 140.925 872.214 178.344 887.819 234.765C891.412 247.756 897.148 260.056 904.79 271.159C937.98 319.381 932.294 384.369 891.235 426.094C881.781 435.702 873.996 446.819 868.202 458.989C843.036 511.843 783.911 539.413 727.246 524.717C714.199 521.333 700.679 520.151 687.243 521.217C628.887 525.851 575.448 488.432 559.843 432.011C556.25 419.02 550.514 406.72 542.872 395.617ZM557.14 241.383C516.416 282.767 510.777 347.223 543.695 395.05C551.401 406.244 557.184 418.646 560.806 431.744C576.284 487.704 629.285 524.816 687.164 520.22C700.711 519.145 714.343 520.338 727.497 523.749C783.699 538.325 842.339 510.98 867.299 458.559C873.141 446.289 880.99 435.08 890.522 425.393C931.245 384.009 936.885 319.553 903.966 271.726C896.261 260.532 890.478 248.13 886.855 235.032C871.377 179.072 818.376 141.96 760.498 146.556C746.95 147.631 733.319 146.438 720.164 143.027C663.963 128.451 605.322 155.796 580.362 208.217C574.52 220.487 566.672 231.696 557.14 241.383Z" fill="url(#paint45_linear)"/>
<path opacity="0.172414" fill-rule="evenodd" clip-rule="evenodd" d="M542.205 385.391C511.973 336.133 520.937 272.353 563.575 233.336C573.392 224.353 581.64 213.796 587.981 202.098C615.524 151.287 675.241 127.16 730.35 144.577C743.037 148.587 756.305 150.452 769.606 150.094C827.38 148.542 878.134 188.195 890.605 244.629C893.476 257.621 898.494 270.044 905.455 281.384C935.687 330.642 926.723 394.423 884.085 433.439C874.268 442.422 866.02 452.98 859.679 464.677C832.136 515.488 772.418 539.615 717.31 522.198C704.623 518.188 691.355 516.324 678.054 516.681C620.28 518.234 569.526 478.58 557.055 422.146C554.184 409.154 549.165 396.732 542.205 385.391ZM564.25 234.074C521.966 272.767 513.076 336.019 543.058 384.868C550.076 396.303 555.137 408.83 558.032 421.931C570.399 477.897 620.732 517.221 678.027 515.681C691.44 515.321 704.818 517.201 717.611 521.245C772.263 538.518 831.485 514.59 858.8 464.201C865.194 452.405 873.511 441.759 883.41 432.702C925.694 394.008 934.584 330.757 904.602 281.907C897.584 270.472 892.523 257.946 889.628 244.845C877.261 188.879 826.928 149.554 769.633 151.094C756.22 151.454 742.842 149.574 730.049 145.531C675.397 128.258 616.175 152.185 588.86 202.575C582.466 214.37 574.149 225.016 564.25 234.074Z" fill="url(#paint46_linear)"/>
<path opacity="0.206897" fill-rule="evenodd" clip-rule="evenodd" d="M542.107 375.269C514.85 325.151 526.982 262.74 571.029 226.482C581.168 218.135 589.844 208.155 596.698 196.952C626.474 148.288 686.588 127.589 740.013 147.605C752.311 152.213 765.292 154.736 778.421 155.071C835.453 156.525 883.436 198.236 892.814 254.511C894.972 267.466 899.278 279.969 905.552 291.507C932.809 341.625 920.678 404.035 876.631 440.294C866.491 448.641 857.816 458.621 850.961 469.824C821.186 518.488 761.071 539.187 707.647 519.171C695.349 514.563 682.368 512.04 669.239 511.705C612.206 510.251 564.223 468.54 554.846 412.265C552.687 399.31 548.382 386.807 542.107 375.269ZM571.664 227.254C527.987 263.208 515.958 325.094 542.986 374.791C549.313 386.427 553.655 399.036 555.832 412.1C565.131 467.903 612.711 509.263 669.264 510.705C682.504 511.043 695.595 513.587 707.998 518.234C760.973 538.083 820.583 517.557 850.108 469.302C857.021 458.004 865.77 447.939 875.995 439.522C919.672 403.568 931.702 341.682 904.674 291.984C898.346 280.349 894.004 267.74 891.827 254.676C882.529 198.873 834.949 157.513 778.395 156.071C765.155 155.733 752.064 153.188 739.662 148.542C686.686 128.693 627.077 149.218 597.551 197.474C590.639 208.772 581.89 218.836 571.664 227.254Z" fill="url(#paint47_linear)"/>
<path opacity="0.241379" fill-rule="evenodd" clip-rule="evenodd" d="M542.564 365.281C518.289 314.475 533.469 253.591 578.755 220.129C589.178 212.427 598.243 203.04 605.577 192.354C637.437 145.928 697.755 128.632 749.377 151.12C761.259 156.296 773.921 159.453 786.842 160.461C842.978 164.84 888.116 208.429 894.452 264.378C895.91 277.257 899.507 289.801 905.095 301.495C929.37 352.3 914.19 413.185 868.904 446.646C858.481 454.348 849.415 463.735 842.082 474.422C810.221 520.847 749.903 538.143 698.282 515.655C686.4 510.479 673.738 507.322 660.817 506.314C604.681 501.935 559.543 458.346 553.207 402.397C551.749 389.519 548.152 376.974 542.564 365.281ZM579.349 220.933C534.449 254.11 519.397 314.477 543.467 364.849C549.102 376.644 552.73 389.296 554.201 402.284C560.483 457.758 605.236 500.976 660.895 505.317C673.927 506.334 686.698 509.518 698.681 514.739C749.863 537.035 809.668 519.886 841.257 473.856C848.654 463.078 857.797 453.61 868.31 445.842C913.21 412.665 928.261 352.299 904.192 301.926C898.557 290.132 894.929 277.48 893.458 264.491C887.176 209.018 842.423 165.8 786.764 161.458C773.732 160.441 760.961 157.257 748.977 152.037C697.795 129.74 637.991 146.889 606.401 192.92C599.005 203.697 589.862 213.165 579.349 220.933Z" fill="url(#paint48_linear)"/>
<path opacity="0.275862" fill-rule="evenodd" clip-rule="evenodd" d="M543.563 355.456C522.265 304.138 540.368 244.924 586.722 214.289C597.391 207.238 606.808 198.457 614.585 188.307C648.379 144.202 708.712 130.274 758.419 155.1C769.86 160.813 782.173 164.578 794.852 166.238C849.944 173.453 892.173 218.738 895.527 274.199C896.299 286.963 899.196 299.509 904.097 311.32C925.396 362.639 907.292 421.852 860.938 452.488C850.27 459.538 840.853 468.32 833.075 478.47C799.281 522.574 738.949 536.503 689.241 511.677C677.801 505.963 665.488 502.199 652.808 500.538C597.716 493.324 555.487 448.039 552.133 392.577C551.361 379.813 548.465 367.267 543.563 355.456ZM587.274 215.123C541.32 245.494 523.372 304.197 544.487 355.073C549.431 366.987 552.353 379.642 553.132 392.517C556.456 447.5 598.321 492.394 652.938 499.547C665.728 501.221 678.148 505.019 689.688 510.782C738.967 535.394 798.779 521.585 832.282 477.862C840.127 467.623 849.626 458.765 860.387 451.653C906.341 421.282 924.288 362.579 903.174 311.703C898.229 299.79 895.308 287.135 894.529 274.259C891.204 219.277 849.339 174.382 794.722 167.23C781.933 165.555 769.512 161.758 757.973 155.994C708.694 131.382 648.882 145.191 615.379 188.915C607.534 199.153 598.035 208.011 587.274 215.123Z" fill="url(#paint49_linear)"/>
<path opacity="0.310345" fill-rule="evenodd" clip-rule="evenodd" d="M545.086 345.824C526.752 294.163 547.646 236.757 594.898 208.967C605.772 202.572 615.502 194.408 623.688 184.81C659.261 143.101 719.423 132.493 767.116 159.52C778.091 165.739 790.027 170.083 802.432 172.374C856.339 182.326 895.607 229.124 896.048 283.94C896.149 296.555 898.355 309.064 902.574 320.952C920.908 372.614 900.015 430.019 852.762 457.809C841.889 464.204 832.158 472.369 823.972 481.967C788.399 523.676 728.237 534.284 680.545 507.257C669.569 501.038 657.633 496.693 645.228 494.403C591.321 484.45 552.053 437.653 551.613 382.836C551.511 370.222 549.305 357.713 545.086 345.824ZM595.405 209.829C548.566 237.376 527.855 294.28 546.029 345.49C550.285 357.483 552.51 370.103 552.613 382.828C553.049 437.166 591.974 483.554 645.41 493.42C657.924 495.73 669.966 500.113 681.038 506.387C728.313 533.178 787.949 522.662 823.211 481.318C831.47 471.635 841.286 463.399 852.255 456.947C899.094 429.4 919.806 372.497 901.632 321.287C897.375 309.294 895.15 296.674 895.048 283.949C894.611 229.611 855.687 183.223 802.251 173.357C789.736 171.046 777.695 166.664 766.623 160.39C719.347 133.599 659.711 144.115 624.449 185.459C616.191 195.141 606.375 203.378 595.405 209.829Z" fill="url(#paint50_linear)"/>
<path opacity="0.344828" fill-rule="evenodd" clip-rule="evenodd" d="M547.117 336.413C531.723 284.576 555.269 229.106 603.251 204.17C614.291 198.433 624.296 190.893 632.854 181.862C670.05 142.613 729.861 135.269 775.446 164.354C785.935 171.047 797.467 175.942 809.568 178.838C862.156 191.425 898.422 239.551 896.026 293.572C895.475 306.002 897.002 318.437 900.544 330.364C915.937 382.201 892.392 437.671 844.41 462.606C833.37 468.344 823.365 475.883 814.806 484.914C777.611 524.164 717.8 531.508 672.214 502.423C661.725 495.73 650.193 490.835 638.093 487.939C585.504 475.352 549.239 427.226 551.634 373.205C552.186 360.775 550.659 348.34 547.117 336.413ZM603.712 205.058C556.155 229.772 532.818 284.751 548.076 336.128C551.649 348.162 553.19 360.708 552.633 373.249C550.259 426.791 586.203 474.491 638.326 486.966C650.534 489.889 662.169 494.827 672.752 501.58C717.934 530.407 777.215 523.128 814.081 484.227C822.715 475.115 832.81 467.508 843.949 461.719C891.505 437.004 914.842 382.026 899.585 330.649C896.011 318.615 894.471 306.069 895.027 293.528C897.402 239.986 861.458 192.286 809.335 179.81C797.127 176.888 785.491 171.95 774.909 165.197C729.727 136.37 670.446 143.649 633.58 182.55C624.945 191.662 614.851 199.269 603.712 205.058Z" fill="url(#paint51_linear)"/>
<path opacity="0.37931" fill-rule="evenodd" clip-rule="evenodd" d="M549.636 327.248C537.15 275.4 563.203 221.984 611.747 199.902C622.915 194.821 633.157 187.913 642.051 179.461C680.709 142.725 739.996 138.579 783.391 169.578C793.375 176.709 804.479 182.125 816.245 185.602C867.389 200.713 900.623 249.984 895.474 303.064C894.29 315.276 895.152 327.6 898.024 339.528C910.51 391.376 884.457 444.793 835.913 466.875C824.745 471.955 814.503 478.863 805.609 487.315C766.951 524.052 707.664 528.197 664.269 497.199C654.285 490.067 643.182 484.651 631.415 481.175C580.271 466.063 547.038 416.793 552.186 363.712C553.37 351.5 552.508 339.176 549.636 327.248ZM612.161 200.812C564.054 222.695 538.235 275.632 550.608 327.014C553.506 339.05 554.376 351.486 553.181 363.808C548.079 416.412 581.014 465.24 631.698 480.216C643.572 483.724 654.776 489.188 664.85 496.385C707.856 527.105 766.609 522.996 804.921 486.59C813.895 478.062 824.23 471.091 835.499 465.964C883.606 444.081 909.425 391.144 897.052 339.763C894.154 327.726 893.284 315.29 894.479 302.968C899.581 250.364 866.646 201.536 815.962 186.561C804.088 183.053 792.884 177.588 782.81 170.391C739.804 139.671 681.051 143.78 642.739 180.186C633.765 188.714 623.43 195.685 612.161 200.812Z" fill="url(#paint52_linear)"/>
<path opacity="0.413793" fill-rule="evenodd" clip-rule="evenodd" d="M552.623 318.355C543.005 266.657 571.415 215.403 620.355 196.164C631.613 191.738 642.053 185.465 651.246 177.602C691.209 143.423 749.802 142.401 790.933 175.164C800.395 182.701 811.048 188.606 822.453 192.636C872.035 210.155 902.217 260.387 894.408 312.389C892.612 324.352 892.825 336.53 895.037 348.422C904.656 400.121 876.245 451.375 827.305 470.614C816.048 475.04 805.607 481.313 796.414 489.175C756.452 523.354 697.859 524.377 656.727 491.613C647.266 484.077 636.613 478.172 625.207 474.142C575.626 456.622 545.444 406.391 553.252 354.388C555.048 342.426 554.836 330.248 552.623 318.355ZM620.721 197.094C572.227 216.158 544.076 266.945 553.606 318.172C555.839 330.174 556.054 342.464 554.241 354.537C546.504 406.065 576.411 455.839 625.541 473.199C637.051 477.266 647.802 483.225 657.35 490.831C698.107 523.296 756.166 522.283 795.764 488.415C805.042 480.481 815.578 474.15 826.94 469.683C875.433 450.62 903.585 399.833 894.054 348.605C891.821 336.604 891.607 324.313 893.419 312.241C901.157 260.712 871.25 210.939 822.12 193.579C810.61 189.512 799.859 183.552 790.31 175.946C749.554 143.481 691.495 144.495 651.896 178.362C642.619 186.297 632.082 192.628 620.721 197.094Z" fill="url(#paint53_linear)"/>
<path opacity="0.448276" fill-rule="evenodd" clip-rule="evenodd" d="M556.057 309.757C549.255 258.364 579.87 209.371 629.043 192.955C640.353 189.179 650.954 183.543 660.409 176.278C701.516 144.69 759.253 146.707 798.056 181.084C806.981 188.991 817.163 195.354 828.182 199.909C876.091 219.715 903.213 270.725 892.843 321.518C890.457 333.201 890.038 345.2 891.603 357.02C898.405 408.413 867.79 457.407 818.616 473.823C807.306 477.598 796.706 483.235 787.251 490.5C746.144 522.088 688.407 520.071 649.604 485.693C640.679 477.786 630.497 471.424 619.478 466.869C571.569 447.063 544.447 396.053 554.817 345.26C557.202 333.577 557.621 321.578 556.057 309.757ZM629.36 193.903C580.641 210.167 550.309 258.708 557.048 309.626C558.627 321.557 558.204 333.668 555.797 345.46C545.522 395.783 572.394 446.322 619.86 465.945C630.982 470.543 641.259 476.964 650.267 484.945C688.711 519.005 745.915 521.003 786.642 489.707C796.184 482.374 806.884 476.685 818.3 472.874C867.019 456.61 897.351 408.07 890.611 357.152C889.032 345.221 889.455 333.11 891.863 321.318C902.137 270.994 875.266 220.456 827.8 200.833C816.678 196.235 806.401 189.814 797.393 181.833C758.948 147.773 701.745 145.775 661.018 177.071C651.475 184.403 640.776 190.093 629.36 193.903Z" fill="url(#paint54_linear)"/>
<path opacity="0.482759" fill-rule="evenodd" clip-rule="evenodd" d="M559.915 301.477C555.871 250.54 588.532 203.895 637.78 190.274C649.106 187.141 659.829 182.141 669.509 175.478C711.599 146.508 768.326 151.471 804.746 187.31C813.122 195.552 822.814 202.339 833.424 207.39C879.558 229.356 903.623 280.964 890.796 330.425C887.846 341.8 886.814 353.587 887.744 365.301C891.789 416.237 859.127 462.882 809.879 476.504C798.554 479.636 787.83 484.637 778.15 491.299C736.06 520.27 679.334 515.307 642.913 479.467C634.538 471.225 624.845 464.439 614.236 459.387C568.101 437.421 544.036 385.813 556.864 336.352C559.814 324.978 560.845 313.191 559.915 301.477ZM638.047 191.238C589.26 204.731 556.906 250.938 560.912 301.397C561.851 313.222 560.81 325.121 557.832 336.603C545.124 385.6 568.964 436.724 614.666 458.484C625.376 463.584 635.16 470.434 643.615 478.755C679.693 514.258 735.888 519.174 777.583 490.475C787.355 483.75 798.18 478.702 809.613 475.54C858.399 462.046 890.754 415.839 886.748 365.38C885.809 353.555 886.85 341.656 889.828 330.174C902.535 281.177 878.696 230.053 832.994 208.293C822.284 203.194 812.5 196.343 804.045 188.023C767.966 152.519 711.772 147.603 670.076 176.302C660.305 183.028 649.48 188.075 638.047 191.238Z" fill="url(#paint55_linear)"/>
<path opacity="0.517241" fill-rule="evenodd" clip-rule="evenodd" d="M564.174 293.534C562.821 243.199 597.368 198.981 646.535 188.117C657.84 185.618 668.649 181.251 678.517 175.195C721.432 148.856 776.999 156.665 810.992 193.813C818.808 202.354 827.995 209.532 838.173 215.05C882.441 239.045 903.461 291.073 888.287 339.085C884.798 350.125 883.175 361.669 883.486 373.243C884.839 423.578 850.292 467.796 801.125 478.661C789.82 481.159 779.011 485.526 769.143 491.582C726.228 517.921 670.661 510.112 636.668 472.964C628.852 464.423 619.665 457.245 609.487 451.728C565.219 427.732 544.199 375.704 559.373 327.692C562.862 316.652 564.485 305.108 564.174 293.534ZM646.75 189.093C598.052 199.854 563.833 243.651 565.173 293.507C565.487 305.192 563.849 316.848 560.327 327.994C545.297 375.549 566.117 427.081 609.963 450.848C620.24 456.419 629.515 463.665 637.406 472.289C671.075 509.083 726.114 516.818 768.62 490.73C778.582 484.616 789.496 480.206 800.91 477.684C849.608 466.923 883.827 423.126 882.487 373.27C882.173 361.585 883.811 349.929 887.333 338.783C902.363 291.229 881.543 239.696 837.697 215.929C827.42 210.358 818.145 203.112 810.254 194.488C776.585 157.694 721.546 149.959 679.04 176.047C669.078 182.162 658.164 186.571 646.75 189.093Z" fill="url(#paint56_linear)"/>
<path opacity="0.551724" fill-rule="evenodd" clip-rule="evenodd" d="M568.807 285.947C570.072 236.354 606.341 194.631 655.275 186.477C666.525 184.602 677.384 180.863 687.403 175.414C730.984 151.713 785.252 162.262 816.781 200.563C824.029 209.368 832.697 216.903 842.425 222.855C884.741 248.747 902.74 301.019 885.335 347.474C881.333 358.154 879.142 369.427 878.851 380.829C877.587 430.421 841.317 472.145 792.383 480.299C781.133 482.174 770.275 485.912 760.255 491.362C716.675 515.063 662.406 504.514 630.878 466.213C623.629 457.407 614.962 449.873 605.233 443.921C562.917 418.029 544.918 365.757 562.324 319.302C566.325 308.622 568.516 297.349 568.807 285.947ZM655.439 187.463C606.978 195.539 571.059 236.859 569.807 285.972C569.513 297.485 567.301 308.868 563.26 319.653C546.023 365.659 563.848 417.426 605.755 443.068C615.579 449.078 624.33 456.686 631.65 465.578C662.874 503.508 716.618 513.955 759.777 490.483C769.895 484.981 780.859 481.205 792.219 479.313C840.68 471.237 876.599 429.917 877.852 380.803C878.145 369.291 880.358 357.907 884.399 347.123C901.636 301.117 883.811 249.349 841.903 223.708C832.08 217.698 823.328 210.09 816.009 201.198C784.785 163.267 731.041 152.821 687.881 176.293C677.764 181.795 666.799 185.57 655.439 187.463Z" fill="url(#paint57_linear)"/>
<path opacity="0.586207" fill-rule="evenodd" clip-rule="evenodd" d="M573.792 278.735C577.592 230.019 615.42 190.847 663.974 185.349C675.135 184.085 686.007 180.968 696.142 176.125C740.232 155.058 793.069 168.232 822.107 207.532C828.783 216.566 836.918 224.423 846.18 230.778C886.469 258.428 901.479 310.773 881.964 355.571C877.478 365.869 874.741 376.843 873.868 388.042C870.067 436.758 832.24 475.929 783.686 481.428C772.525 482.691 761.653 485.809 751.518 490.652C707.428 511.719 654.591 498.545 625.552 459.245C618.877 450.211 610.741 442.354 601.48 435.998C561.19 408.349 546.181 356.004 565.696 311.206C570.182 300.908 572.918 289.934 573.792 278.735ZM664.086 186.343C616.008 191.787 578.552 230.574 574.789 278.813C573.907 290.122 571.143 301.205 566.613 311.605C547.289 355.964 562.151 407.796 602.046 435.174C611.399 441.593 619.615 449.527 626.356 458.651C655.11 497.565 707.429 510.61 751.087 489.749C761.322 484.859 772.302 481.71 783.573 480.434C831.651 474.99 869.108 436.202 872.871 387.964C873.753 376.654 876.516 365.571 881.047 355.172C900.371 310.813 885.508 258.981 845.614 231.603C836.261 225.184 828.044 217.25 821.303 208.126C792.549 169.212 740.23 156.167 696.573 177.027C686.338 181.918 675.358 185.067 664.086 186.343Z" fill="url(#paint58_linear)"/>
<path opacity="0.62069" fill-rule="evenodd" clip-rule="evenodd" d="M579.099 271.913C585.347 224.2 624.566 187.627 672.599 184.723C683.638 184.055 694.489 181.55 704.704 177.311C749.149 158.865 800.431 174.544 826.962 214.689C833.06 223.916 840.655 232.06 849.434 238.787C887.631 268.054 899.694 320.305 878.193 363.355C873.251 373.249 869.995 383.899 868.559 394.865C862.311 442.577 823.092 479.15 775.06 482.054C764.02 482.722 753.169 485.227 742.954 489.467C698.51 507.912 647.228 492.233 620.696 452.089C614.598 442.862 607.003 434.717 598.224 427.99C560.028 398.723 547.965 346.472 569.466 303.423C574.407 293.528 577.663 282.879 579.099 271.913ZM672.659 185.721C625.105 188.597 586.277 224.805 580.091 272.042C578.64 283.119 575.352 293.876 570.36 303.869C549.074 346.49 561.017 398.221 598.833 427.197C607.7 433.991 615.371 442.218 621.53 451.537C647.798 491.282 698.569 506.805 742.571 488.543C752.889 484.261 763.849 481.731 774.999 481.056C822.553 478.181 861.382 441.972 867.568 394.735C869.018 383.658 872.307 372.902 877.298 362.908C898.585 320.287 886.642 268.556 848.826 239.581C839.959 232.786 832.287 224.56 826.128 215.24C799.861 175.495 749.089 159.973 705.087 178.234C694.77 182.516 683.81 185.047 672.659 185.721Z" fill="url(#paint59_linear)"/>
<path opacity="0.655172" fill-rule="evenodd" clip-rule="evenodd" d="M584.704 265.492C593.306 218.904 633.75 184.967 681.124 184.586C692.011 184.499 702.806 182.595 713.066 178.954C757.714 163.109 807.326 181.166 831.343 222.003C836.862 231.387 843.908 239.785 852.192 246.85C888.238 277.593 897.406 329.587 874.048 370.805C868.681 380.277 864.931 390.578 862.955 401.284C854.353 447.872 813.909 481.809 766.535 482.19C755.648 482.277 744.853 484.181 734.592 487.822C689.945 503.667 640.333 485.61 616.316 444.773C610.797 435.389 603.751 426.991 595.467 419.926C559.421 389.183 550.253 337.189 573.611 295.971C578.978 286.499 582.727 276.198 584.704 265.492ZM681.132 185.586C634.237 185.963 594.202 219.557 585.688 265.674C583.691 276.489 579.903 286.896 574.481 296.464C551.36 337.265 560.435 388.733 596.116 419.165C604.484 426.302 611.603 434.786 617.178 444.266C640.952 484.69 690.062 502.564 734.258 486.88C744.623 483.201 755.529 481.278 766.527 481.19C813.422 480.813 853.457 447.22 861.971 401.102C863.968 390.287 867.756 379.88 873.178 370.312C896.299 329.511 887.224 278.043 851.543 247.611C843.175 240.474 836.056 231.99 830.481 222.51C806.707 182.086 757.597 164.212 713.401 179.896C703.036 183.575 692.13 185.498 681.132 185.586Z" fill="url(#paint60_linear)"/>
<path opacity="0.689655" fill-rule="evenodd" clip-rule="evenodd" d="M590.577 259.478C601.432 214.128 642.934 182.853 689.52 184.92C700.223 185.394 710.931 184.079 721.202 181.029C765.904 167.755 813.74 188.059 835.243 229.437C840.184 238.944 846.677 247.56 854.454 254.93C888.301 287.006 894.634 338.585 869.552 377.896C863.789 386.928 859.574 396.859 857.08 407.279C846.225 452.63 804.723 483.904 758.137 481.838C747.433 481.363 736.725 482.678 726.454 485.728C681.752 499.003 633.917 478.698 612.413 437.32C607.473 427.813 600.98 419.197 593.203 411.827C559.356 379.752 553.023 328.173 578.105 288.861C583.868 279.829 588.083 269.898 590.577 259.478ZM689.475 185.919C643.368 183.874 602.293 214.826 591.55 259.711C589.03 270.239 584.771 280.273 578.948 289.399C554.123 328.306 560.391 379.356 593.891 411.102C601.749 418.548 608.309 427.253 613.301 436.859C634.583 477.811 681.927 497.908 726.17 484.769C736.547 481.687 747.366 480.359 758.181 480.839C804.288 482.884 845.364 451.931 856.107 407.046C858.627 396.518 862.886 386.484 868.709 377.358C893.533 338.451 887.265 287.402 853.766 255.656C845.908 248.209 839.348 239.504 834.356 229.898C813.073 188.946 765.73 168.85 721.487 181.988C711.109 185.07 700.29 186.398 689.475 185.919Z" fill="url(#paint61_linear)"/>
<path opacity="0.724138" fill-rule="evenodd" clip-rule="evenodd" d="M596.692 253.9C609.695 209.893 652.089 181.298 697.762 185.727C708.254 186.745 718.843 186.004 729.091 183.537C773.703 172.794 819.665 195.211 838.665 236.979C843.03 246.575 848.966 255.374 856.227 263.016C887.837 296.28 891.404 347.292 864.732 384.631C858.604 393.209 853.951 402.749 850.964 412.859C837.962 456.865 795.567 485.461 749.894 481.031C739.402 480.014 728.813 480.754 718.565 483.222C673.953 493.965 627.991 471.548 608.991 429.779C604.626 420.184 598.691 411.384 591.429 403.743C559.819 370.479 556.252 319.466 582.925 282.127C589.052 273.549 593.705 264.009 596.692 253.9ZM697.666 186.723C652.47 182.339 610.518 210.636 597.651 254.183C594.633 264.399 589.931 274.04 583.739 282.708C557.344 319.658 560.874 370.137 592.154 403.054C599.492 410.776 605.49 419.668 609.901 429.365C628.703 470.698 674.185 492.88 718.331 482.25C728.688 479.756 739.388 479.008 749.991 480.036C795.187 484.419 837.139 456.122 850.005 412.575C853.024 402.359 857.726 392.718 863.918 384.05C890.312 347.101 886.782 296.621 855.502 263.705C848.164 255.983 842.166 247.09 837.755 237.393C818.953 196.061 773.472 173.878 729.325 184.509C718.969 187.003 708.269 187.751 697.666 186.723Z" fill="url(#paint62_linear)"/>
<path opacity="0.758621" fill-rule="evenodd" clip-rule="evenodd" d="M603.02 248.754C618.06 206.19 661.182 180.28 705.824 186.983C716.078 188.523 726.517 188.341 736.711 186.444C781.092 178.187 825.092 202.577 841.608 244.59C845.402 254.24 850.779 263.189 857.518 271.069C886.86 305.375 887.738 355.675 859.611 390.985C853.151 399.096 848.09 408.227 844.635 418.003C829.595 460.567 786.473 486.478 741.831 479.774C731.577 478.235 721.138 478.417 710.944 480.314C666.563 488.571 622.563 464.181 606.047 422.168C602.253 412.518 596.876 403.569 590.137 395.689C560.795 361.382 559.917 311.082 588.044 275.772C594.504 267.662 599.565 258.531 603.02 248.754ZM705.676 187.972C661.507 181.34 618.843 206.975 603.963 249.088C600.471 258.969 595.355 268.198 588.826 276.395C560.998 311.33 561.867 361.097 590.897 395.039C597.708 403.003 603.143 412.049 606.977 421.802C623.318 463.369 666.851 487.5 710.762 479.33C721.065 477.413 731.615 477.229 741.979 478.785C786.148 485.418 828.812 459.782 843.692 417.67C847.184 407.789 852.3 398.56 858.829 390.362C886.657 355.427 885.788 305.661 856.758 271.719C849.947 263.754 844.512 254.709 840.677 244.956C824.337 203.388 780.804 179.258 736.893 187.427C726.59 189.344 716.04 189.528 705.676 187.972Z" fill="url(#paint63_linear)"/>
<path opacity="0.793103" fill-rule="evenodd" clip-rule="evenodd" d="M609.533 244.05C626.496 203.019 670.183 179.791 713.684 188.672C723.674 190.712 733.934 191.07 744.042 189.732C788.057 183.907 830.017 210.126 844.076 252.24C847.304 261.912 852.124 270.976 858.336 279.061C885.389 314.266 883.662 363.714 854.22 396.947C847.458 404.579 842.018 413.285 838.123 422.707C821.16 463.738 777.474 486.967 733.972 478.085C723.982 476.046 713.722 475.687 703.614 477.025C659.6 482.851 617.64 456.631 603.581 414.517C600.352 404.846 595.532 395.781 589.32 387.696C562.267 352.491 563.994 303.043 593.437 269.811C600.198 262.179 605.638 253.472 609.533 244.05ZM713.484 189.652C670.452 180.866 627.237 203.844 610.458 244.432C606.52 253.957 601.02 262.759 594.185 270.474C565.06 303.347 563.352 352.262 590.113 387.087C596.393 395.26 601.265 404.424 604.529 414.2C618.436 455.86 659.943 481.796 703.483 476.034C713.701 474.681 724.073 475.044 734.172 477.105C777.204 485.891 820.419 462.913 837.199 422.325C841.136 412.8 846.636 403.999 853.471 396.284C882.596 363.41 884.304 314.496 857.543 279.67C851.263 271.497 846.391 262.334 843.127 252.557C829.22 210.898 787.713 184.961 744.173 190.724C733.955 192.076 723.583 191.714 713.484 189.652Z" fill="url(#paint64_linear)"/>
<path opacity="0.827586" fill-rule="evenodd" clip-rule="evenodd" d="M616.202 239.792C634.969 200.377 679.06 179.817 721.316 190.776C731.018 193.293 741.072 194.172 751.064 193.379C794.582 189.924 834.432 217.828 846.07 259.903C848.742 269.563 853.007 278.71 858.69 286.966C883.441 322.926 879.201 371.39 848.581 402.505C841.551 409.649 835.762 417.917 831.453 426.966C812.687 466.381 768.596 486.941 726.339 475.982C716.637 473.466 706.583 472.586 696.592 473.379C653.074 476.834 613.223 448.93 601.586 406.856C598.914 397.195 594.649 388.048 588.966 379.792C564.215 343.832 568.455 295.368 599.074 264.253C606.105 257.109 611.893 248.841 616.202 239.792ZM721.065 191.744C679.273 180.905 635.666 201.239 617.105 240.222C612.748 249.372 606.895 257.731 599.787 264.954C569.504 295.728 565.31 343.66 589.79 379.225C595.536 387.573 599.848 396.821 602.55 406.589C614.059 448.202 653.473 475.8 696.513 472.382C706.615 471.58 716.781 472.47 726.59 475.014C768.383 485.853 811.99 465.519 830.551 426.537C834.907 417.386 840.76 409.027 847.869 401.804C878.152 371.03 882.345 323.098 857.866 287.533C852.12 279.185 847.807 269.937 845.106 260.169C833.596 218.556 794.183 190.959 751.143 194.376C741.041 195.178 730.875 194.288 721.065 191.744Z" fill="url(#paint65_linear)"/>
<path opacity="0.862069" fill-rule="evenodd" clip-rule="evenodd" d="M622.999 235.982C643.448 198.258 687.786 180.344 728.701 193.276C738.093 196.244 747.915 197.625 757.762 197.36C800.657 196.207 838.339 225.648 847.598 267.548C849.723 277.166 853.439 286.362 858.591 294.757C881.037 331.329 874.382 378.683 842.725 407.651C835.458 414.301 829.352 422.117 824.657 430.776C804.208 468.501 759.871 486.414 718.956 473.483C709.563 470.514 699.741 469.134 689.895 469.399C647 470.551 609.317 441.111 600.059 399.211C597.933 389.593 594.218 380.397 589.065 372.001C566.62 335.43 573.275 288.076 604.932 259.108C612.199 252.458 618.305 244.642 622.999 235.982ZM728.4 194.229C687.941 181.442 644.099 199.156 623.878 236.459C619.131 245.216 612.956 253.121 605.607 259.845C574.303 288.49 567.723 335.315 589.918 371.478C595.128 379.968 598.886 389.268 601.035 398.995C610.191 440.427 647.452 469.539 689.868 468.399C699.826 468.131 709.759 469.527 719.257 472.529C759.715 485.316 803.558 467.603 823.778 430.3C828.526 421.542 834.701 413.638 842.05 406.913C873.353 378.269 879.934 331.444 857.739 295.28C852.528 286.79 848.771 277.49 846.621 267.763C837.466 226.332 800.205 197.22 757.789 198.36C747.831 198.627 737.898 197.231 728.4 194.229Z" fill="url(#paint66_linear)"/>
<path opacity="0.896552" fill-rule="evenodd" clip-rule="evenodd" d="M629.895 232.622C651.902 196.654 696.332 181.356 735.818 196.15C744.88 199.545 754.446 201.405 764.12 201.651C806.272 202.726 841.736 233.554 848.667 275.147C850.258 284.693 853.43 293.906 858.054 302.408C878.199 339.45 869.233 385.577 836.678 412.376C829.207 418.526 822.814 425.88 817.763 434.135C795.756 470.103 751.326 485.402 711.84 470.607C702.778 467.212 693.213 465.353 683.538 465.106C641.386 464.031 605.922 433.203 598.991 391.611C597.4 382.065 594.228 372.851 589.604 364.349C569.459 327.307 578.425 281.18 610.98 254.382C618.452 248.231 624.845 240.877 629.895 232.622ZM735.467 197.086C696.43 182.461 652.505 197.585 630.748 233.144C625.639 241.494 619.173 248.933 611.615 255.154C579.431 281.648 570.566 327.25 590.483 363.872C595.16 372.471 598.369 381.79 599.978 391.446C606.83 432.566 641.89 463.044 683.564 464.106C693.349 464.356 703.025 466.237 712.191 469.671C751.228 484.297 795.153 469.172 816.91 433.614C822.019 425.264 828.485 417.825 836.043 411.604C868.228 385.11 877.092 339.507 857.175 302.886C852.499 294.287 849.29 284.967 847.681 275.311C840.829 234.192 805.768 203.714 764.095 202.651C754.309 202.402 744.634 200.521 735.467 197.086Z" fill="url(#paint67_linear)"/>
<path opacity="0.931035" fill-rule="evenodd" clip-rule="evenodd" d="M636.861 229.713C660.299 195.56 704.671 182.836 742.646 199.379C751.36 203.175 760.646 205.491 770.122 206.23C811.418 209.451 844.623 241.517 849.284 282.676C850.354 292.12 852.992 301.32 857.09 309.896C874.948 347.27 863.78 392.06 830.466 416.676C822.822 422.324 816.174 429.209 810.796 437.045C787.358 471.198 742.985 483.922 705.01 467.379C696.296 463.583 687.01 461.267 677.534 460.528C636.238 457.307 603.033 425.241 598.372 384.082C597.302 374.638 594.664 365.438 590.567 356.862C572.708 319.488 583.876 274.698 617.19 250.082C624.834 244.434 631.482 237.55 636.861 229.713ZM742.247 200.296C704.711 183.944 660.852 196.521 637.685 230.279C632.244 238.207 625.518 245.172 617.784 250.887C584.855 275.218 573.817 319.489 591.469 356.431C595.615 365.107 598.284 374.415 599.366 383.97C603.972 424.652 636.793 456.347 677.612 459.531C687.199 460.279 696.594 462.622 705.41 466.462C742.945 482.814 786.804 470.237 809.971 436.479C815.412 428.551 822.138 421.586 829.872 415.871C862.801 391.541 873.839 347.269 856.187 310.327C852.041 301.651 849.373 292.343 848.291 282.788C843.684 242.106 810.863 210.411 770.044 207.227C760.457 206.479 751.062 204.136 742.247 200.296Z" fill="url(#paint68_linear)"/>
<path opacity="0.965517" fill-rule="evenodd" clip-rule="evenodd" d="M643.87 227.252C668.611 194.963 712.78 184.766 749.171 202.941C757.52 207.111 766.506 209.858 775.759 211.07C816.092 216.351 847.008 249.505 849.463 290.108C850.027 299.423 852.14 308.579 855.717 317.198C871.31 354.768 858.056 398.119 824.121 420.547C816.335 425.692 809.463 432.1 803.787 439.508C779.046 471.797 734.877 481.994 698.486 463.819C690.137 459.649 681.151 456.902 671.898 455.69C631.565 450.408 600.649 417.255 598.194 376.652C597.631 367.337 595.517 358.181 591.94 349.562C576.347 311.992 589.601 268.641 623.537 246.213C631.322 241.068 638.194 234.659 643.87 227.252ZM748.725 203.836C712.762 185.874 669.113 195.952 644.664 227.86C638.92 235.356 631.966 241.841 624.088 247.047C590.552 269.211 577.455 312.051 592.863 349.179C596.483 357.901 598.622 367.165 599.192 376.591C601.618 416.716 632.17 449.479 672.028 454.698C681.391 455.925 690.484 458.705 698.933 462.924C734.895 480.885 778.544 470.808 802.993 438.9C808.737 431.404 815.691 424.919 823.569 419.712C857.105 397.549 870.203 354.709 854.794 317.581C851.174 308.859 849.035 299.594 848.465 290.168C846.039 250.043 815.487 217.281 775.629 212.061C766.266 210.835 757.173 208.055 748.725 203.836Z" fill="url(#paint69_linear)"/>
<path fill-rule="evenodd" clip-rule="evenodd" d="M650.894 225.234C676.808 194.851 720.634 187.123 755.376 206.811C763.345 211.327 772.011 214.481 781.018 216.144C820.288 223.394 848.893 257.485 849.214 297.417C849.288 306.575 850.889 315.658 853.952 324.29C867.308 361.923 852.088 403.741 817.666 423.985C809.771 428.628 802.706 434.557 796.763 441.525C770.849 471.909 727.023 479.636 692.281 459.948C684.312 455.433 675.646 452.278 666.639 450.615C627.369 443.365 598.764 409.275 598.443 369.343C598.369 360.184 596.768 351.102 593.704 342.47C580.348 304.836 595.569 263.018 629.991 242.774C637.886 238.131 644.951 232.203 650.894 225.234ZM754.883 207.681C720.558 188.229 677.258 195.864 651.655 225.883C645.639 232.936 638.488 238.937 630.498 243.636C596.489 263.637 581.451 304.953 594.647 342.135C597.747 350.872 599.368 360.065 599.443 369.335C599.76 408.788 628.022 442.469 666.82 449.632C675.937 451.315 684.708 454.508 692.774 459.078C727.099 478.53 770.399 470.895 796.002 440.877C802.018 433.823 809.168 427.823 817.159 423.123C851.168 403.122 866.206 361.806 853.01 324.624C849.91 315.888 848.289 306.695 848.214 297.425C847.897 257.972 819.635 224.291 780.837 217.127C771.72 215.444 762.949 212.252 754.883 207.681Z" fill="url(#paint70_linear)"/>
<g clip-path="url(#clip1)">
<path d="M692.739 325.868C691.898 324.926 690.864 324.454 689.632 324.454H664.451C664.227 324.454 664.044 324.384 663.906 324.246C663.766 324.109 663.696 323.955 663.696 323.789V307.166C663.696 307 663.766 306.848 663.906 306.709C664.044 306.571 664.227 306.501 664.451 306.501H691.06C697.775 306.501 703.567 309.19 708.436 314.564L714.9 322.293L702.309 337.337L692.739 325.868ZM739.243 314.481C744.111 309.161 749.931 306.501 756.702 306.501H783.228C783.452 306.501 783.619 306.557 783.732 306.667C783.842 306.779 783.899 306.944 783.899 307.166V323.789C783.899 323.955 783.842 324.109 783.732 324.246C783.619 324.384 783.452 324.454 783.228 324.454H758.046C756.815 324.454 755.78 324.926 754.94 325.868L736.389 347.977L755.024 370.251C755.864 371.139 756.869 371.582 758.046 371.582H783.228C783.452 371.582 783.619 371.652 783.732 371.79C783.842 371.929 783.899 372.11 783.899 372.33V388.953C783.899 389.119 783.842 389.273 783.732 389.41C783.619 389.548 783.452 389.618 783.228 389.618H756.702C749.931 389.618 744.139 386.931 739.326 381.555L723.882 363.104L708.436 381.555C703.567 386.931 697.747 389.618 690.977 389.618H664.451C664.227 389.618 664.058 389.548 663.947 389.41C663.834 389.271 663.78 389.092 663.78 388.868V372.245C663.78 372.079 663.834 371.927 663.947 371.788C664.058 371.649 664.227 371.58 664.451 371.58H689.632C690.807 371.58 691.842 371.11 692.739 370.166L710.953 348.391L739.243 314.481Z" fill="url(#paint71_linear)"/>
</g>
</g>
<rect x="479" y="45.3623" width="508" height="234" fill="url(#paint72_radial)"/>
</g>
<defs>
<filter id="filter0_f" x="504.771" y="-268.664" width="1178.03" height="1012.25" filterUnits="userSpaceOnUse" color-interpolation-filters="sRGB">
<feFlood flood-opacity="0" result="BackgroundImageFix"/>
<feBlend mode="normal" in="SourceGraphic" in2="BackgroundImageFix" result="shape"/>
<feGaussianBlur stdDeviation="150" result="effect1_foregroundBlur"/>
</filter>
<filter id="filter1_f" x="-247.916" y="19.3244" width="1177.93" height="1011.88" filterUnits="userSpaceOnUse" color-interpolation-filters="sRGB">
<feFlood flood-opacity="0" result="BackgroundImageFix"/>
<feBlend mode="normal" in="SourceGraphic" in2="BackgroundImageFix" result="shape"/>
<feGaussianBlur stdDeviation="150" result="effect1_foregroundBlur"/>
</filter>
<linearGradient id="paint0_linear" x1="934.988" y1="670.953" x2="934.988" y2="450.225" gradientUnits="userSpaceOnUse">
<stop stop-color="#ED1EFF"/>
<stop offset="1" stop-color="#00D1FF"/>
</linearGradient>
<linearGradient id="paint1_linear" x1="1185.48" y1="579.656" x2="1185.48" y2="450.225" gradientUnits="userSpaceOnUse">
<stop stop-color="#ED1EFF"/>
<stop offset="1" stop-color="#00D1FF"/>
</linearGradient>
<linearGradient id="paint2_linear" x1="719.592" y1="670.952" x2="719.592" y2="450.224" gradientUnits="userSpaceOnUse">
<stop stop-color="#ED1EFF"/>
<stop offset="1" stop-color="#00D1FF"/>
</linearGradient>
<linearGradient id="paint3_linear" x1="1326.39" y1="475.494" x2="1326.39" y2="450.225" gradientUnits="userSpaceOnUse">
<stop stop-color="#ED1EFF"/>
<stop offset="1" stop-color="#00D1FF"/>
</linearGradient>
<linearGradient id="paint4_linear" x1="1361.62" y1="465.731" x2="1361.62" y2="450.225" gradientUnits="userSpaceOnUse">
<stop stop-color="#ED1EFF"/>
<stop offset="1" stop-color="#00D1FF"/>
</linearGradient>
<linearGradient id="paint5_linear" x1="1255.93" y1="506.734" x2="1255.93" y2="450.225" gradientUnits="userSpaceOnUse">
<stop stop-color="#ED1EFF"/>
<stop offset="1" stop-color="#00D1FF"/>
</linearGradient>
<linearGradient id="paint6_linear" x1="1220.71" y1="534.074" x2="1220.71" y2="450.224" gradientUnits="userSpaceOnUse">
<stop stop-color="#ED1EFF"/>
<stop offset="1" stop-color="#00D1FF"/>
</linearGradient>
<linearGradient id="paint7_linear" x1="1291.16" y1="488.511" x2="1291.16" y2="450.225" gradientUnits="userSpaceOnUse">
<stop stop-color="#ED1EFF"/>
<stop offset="1" stop-color="#00D1FF"/>
</linearGradient>
<linearGradient id="paint8_linear" x1="113.445" y1="475.453" x2="113.445" y2="450.225" gradientUnits="userSpaceOnUse">
<stop stop-color="#ED1EFF"/>
<stop offset="1" stop-color="#00D1FF"/>
</linearGradient>
<linearGradient id="paint9_linear" x1="1396.84" y1="458.14" x2="1396.84" y2="450.225" gradientUnits="userSpaceOnUse">
<stop stop-color="#ED1EFF"/>
<stop offset="1" stop-color="#00D1FF"/>
</linearGradient>
<linearGradient id="paint10_linear" x1="1432.07" y1="452.067" x2="1432.07" y2="450.225" gradientUnits="userSpaceOnUse">
<stop stop-color="#ED1EFF"/>
<stop offset="1" stop-color="#00D1FF"/>
</linearGradient>
<linearGradient id="paint11_linear" x1="148.673" y1="488.455" x2="148.673" y2="450.225" gradientUnits="userSpaceOnUse">
<stop stop-color="#ED1EFF"/>
<stop offset="1" stop-color="#00D1FF"/>
</linearGradient>
<linearGradient id="paint12_linear" x1="219.127" y1="533.952" x2="219.127" y2="450.225" gradientUnits="userSpaceOnUse">
<stop stop-color="#ED1EFF"/>
<stop offset="1" stop-color="#00D1FF"/>
</linearGradient>
<linearGradient id="paint13_linear" x1="504.198" y1="670.953" x2="504.198" y2="450.225" gradientUnits="userSpaceOnUse">
<stop stop-color="#ED1EFF"/>
<stop offset="1" stop-color="#00D1FF"/>
</linearGradient>
<linearGradient id="paint14_linear" x1="78.2172" y1="465.702" x2="78.2172" y2="450.225" gradientUnits="userSpaceOnUse">
<stop stop-color="#ED1EFF"/>
<stop offset="1" stop-color="#00D1FF"/>
</linearGradient>
<linearGradient id="paint15_linear" x1="183.9" y1="506.654" x2="183.9" y2="450.225" gradientUnits="userSpaceOnUse">
<stop stop-color="#ED1EFF"/>
<stop offset="1" stop-color="#00D1FF"/>
</linearGradient>
<linearGradient id="paint16_linear" x1="254.355" y1="579.437" x2="254.355" y2="450.225" gradientUnits="userSpaceOnUse">
<stop stop-color="#ED1EFF"/>
<stop offset="1" stop-color="#00D1FF"/>
</linearGradient>
<linearGradient id="paint17_linear" x1="7.76612" y1="452.048" x2="7.76612" y2="450.225" gradientUnits="userSpaceOnUse">
<stop stop-color="#ED1EFF"/>
<stop offset="1" stop-color="#00D1FF"/>
</linearGradient>
<linearGradient id="paint18_linear" x1="42.9933" y1="458.116" x2="42.9933" y2="450.225" gradientUnits="userSpaceOnUse">
<stop stop-color="#ED1EFF"/>
<stop offset="1" stop-color="#00D1FF"/>
</linearGradient>
<linearGradient id="paint19_linear" x1="288.804" y1="670.952" x2="288.804" y2="450.224" gradientUnits="userSpaceOnUse">
<stop stop-color="#ED1EFF"/>
<stop offset="1" stop-color="#00D1FF"/>
</linearGradient>
<linearGradient id="paint20_linear" x1="1150.38" y1="670.952" x2="1150.38" y2="450.224" gradientUnits="userSpaceOnUse">
<stop stop-color="#ED1EFF"/>
<stop offset="1" stop-color="#00D1FF"/>
</linearGradient>
<linearGradient id="paint21_linear" x1="719.982" y1="578.571" x2="719.982" y2="577.894" gradientUnits="userSpaceOnUse">
<stop stop-color="#ED1EFF"/>
<stop offset="1" stop-color="#00D1FF"/>
</linearGradient>
<linearGradient id="paint22_linear" x1="719.982" y1="490.087" x2="719.982" y2="489.41" gradientUnits="userSpaceOnUse">
<stop stop-color="#ED1EFF"/>
<stop offset="1" stop-color="#00D1FF"/>
</linearGradient>
<linearGradient id="paint23_linear" x1="719.982" y1="520.032" x2="719.982" y2="519.355" gradientUnits="userSpaceOnUse">
<stop stop-color="#ED1EFF"/>
<stop offset="1" stop-color="#00D1FF"/>
</linearGradient>
<linearGradient id="paint24_linear" x1="719.982" y1="553.701" x2="719.982" y2="553.024" gradientUnits="userSpaceOnUse">
<stop stop-color="#ED1EFF"/>
<stop offset="1" stop-color="#00D1FF"/>
</linearGradient>
<linearGradient id="paint25_linear" x1="719.982" y1="612.858" x2="719.982" y2="612.181" gradientUnits="userSpaceOnUse">
<stop stop-color="#ED1EFF"/>
<stop offset="1" stop-color="#00D1FF"/>
</linearGradient>
<linearGradient id="paint26_linear" x1="719.982" y1="534.833" x2="719.982" y2="534.156" gradientUnits="userSpaceOnUse">
<stop stop-color="#ED1EFF"/>
<stop offset="1" stop-color="#00D1FF"/>
</linearGradient>
<linearGradient id="paint27_linear" x1="719.982" y1="508.109" x2="719.982" y2="507.432" gradientUnits="userSpaceOnUse">
<stop stop-color="#ED1EFF"/>
<stop offset="1" stop-color="#00D1FF"/>
</linearGradient>
<linearGradient id="paint28_linear" x1="719.982" y1="459.677" x2="719.982" y2="459" gradientUnits="userSpaceOnUse">
<stop stop-color="#ED1EFF"/>
<stop offset="1" stop-color="#00D1FF"/>
</linearGradient>
<linearGradient id="paint29_linear" x1="719.982" y1="467.324" x2="719.982" y2="466.647" gradientUnits="userSpaceOnUse">
<stop stop-color="#ED1EFF"/>
<stop offset="1" stop-color="#00D1FF"/>
</linearGradient>
<linearGradient id="paint30_linear" x1="719.982" y1="471.898" x2="719.982" y2="471.221" gradientUnits="userSpaceOnUse">
<stop stop-color="#ED1EFF"/>
<stop offset="1" stop-color="#00D1FF"/>
</linearGradient>
<linearGradient id="paint31_linear" x1="719.982" y1="463.277" x2="719.982" y2="462.6" gradientUnits="userSpaceOnUse">
<stop stop-color="#ED1EFF"/>
<stop offset="1" stop-color="#00D1FF"/>
</linearGradient>
<linearGradient id="paint32_linear" x1="719.982" y1="453.537" x2="719.982" y2="452.86" gradientUnits="userSpaceOnUse">
<stop stop-color="#ED1EFF"/>
<stop offset="1" stop-color="#00D1FF"/>
</linearGradient>
<linearGradient id="paint33_linear" x1="719.982" y1="456.447" x2="719.982" y2="455.77" gradientUnits="userSpaceOnUse">
<stop stop-color="#ED1EFF"/>
<stop offset="1" stop-color="#00D1FF"/>
</linearGradient>
<linearGradient id="paint34_linear" x1="719.982" y1="450.902" x2="719.982" y2="450.225" gradientUnits="userSpaceOnUse">
<stop stop-color="#ED1EFF"/>
<stop offset="1" stop-color="#00D1FF"/>
</linearGradient>
<linearGradient id="paint35_linear" x1="719.982" y1="483.111" x2="719.982" y2="482.434" gradientUnits="userSpaceOnUse">
<stop stop-color="#ED1EFF"/>
<stop offset="1" stop-color="#00D1FF"/>
</linearGradient>
<linearGradient id="paint36_linear" x1="719.982" y1="498.299" x2="719.982" y2="497.622" gradientUnits="userSpaceOnUse">
<stop stop-color="#ED1EFF"/>
<stop offset="1" stop-color="#00D1FF"/>
</linearGradient>
<linearGradient id="paint37_linear" x1="719.982" y1="477.112" x2="719.982" y2="476.435" gradientUnits="userSpaceOnUse">
<stop stop-color="#ED1EFF"/>
<stop offset="1" stop-color="#00D1FF"/>
</linearGradient>
<linearGradient id="paint38_linear" x1="719.981" y1="669.659" x2="719.981" y2="671.013" gradientUnits="userSpaceOnUse">
<stop stop-color="#ED1EFF"/>
<stop offset="1" stop-color="#00D1FF"/>
</linearGradient>
<linearGradient id="paint39_linear" x1="1079.5" y1="671.035" x2="1079.5" y2="734" gradientUnits="userSpaceOnUse">
<stop stop-color="#ED1EFF"/>
<stop offset="0.643466" stop-color="#00D1FF"/>
<stop offset="1" stop-color="#0C0628"/>
</linearGradient>
<linearGradient id="paint40_linear" x1="720.5" y1="671.035" x2="720.5" y2="734" gradientUnits="userSpaceOnUse">
<stop stop-color="#ED1EFF"/>
<stop offset="0.643466" stop-color="#00D1FF"/>
<stop offset="1" stop-color="#0C0628"/>
</linearGradient>
<linearGradient id="paint41_linear" x1="359.5" y1="671.035" x2="359.5" y2="734" gradientUnits="userSpaceOnUse">
<stop stop-color="#ED1EFF"/>
<stop offset="0.643466" stop-color="#00D1FF"/>
<stop offset="1" stop-color="#0C0628"/>
</linearGradient>
<linearGradient id="paint42_linear" x1="513.799" y1="348.075" x2="933.862" y2="318.701" gradientUnits="userSpaceOnUse">
<stop stop-color="#ED1EFF"/>
<stop offset="1" stop-color="#00D1FF"/>
</linearGradient>
<linearGradient id="paint43_linear" x1="515.9" y1="337.018" x2="931.76" y2="329.759" gradientUnits="userSpaceOnUse">
<stop stop-color="#ED1EFF"/>
<stop offset="1" stop-color="#00D1FF"/>
</linearGradient>
<linearGradient id="paint44_linear" x1="518.576" y1="326.221" x2="929.085" y2="340.556" gradientUnits="userSpaceOnUse">
<stop stop-color="#ED1EFF"/>
<stop offset="1" stop-color="#00D1FF"/>
</linearGradient>
<linearGradient id="paint45_linear" x1="521.805" y1="315.713" x2="925.856" y2="351.063" gradientUnits="userSpaceOnUse">
<stop stop-color="#ED1EFF"/>
<stop offset="1" stop-color="#00D1FF"/>
</linearGradient>
<linearGradient id="paint46_linear" x1="525.564" y1="305.523" x2="922.096" y2="361.252" gradientUnits="userSpaceOnUse">
<stop stop-color="#ED1EFF"/>
<stop offset="1" stop-color="#00D1FF"/>
</linearGradient>
<linearGradient id="paint47_linear" x1="529.829" y1="295.678" x2="917.831" y2="371.098" gradientUnits="userSpaceOnUse">
<stop stop-color="#ED1EFF"/>
<stop offset="1" stop-color="#00D1FF"/>
</linearGradient>
<linearGradient id="paint48_linear" x1="534.574" y1="286.201" x2="913.085" y2="380.574" gradientUnits="userSpaceOnUse">
<stop stop-color="#ED1EFF"/>
<stop offset="1" stop-color="#00D1FF"/>
</linearGradient>
<linearGradient id="paint49_linear" x1="539.773" y1="277.116" x2="907.887" y2="389.66" gradientUnits="userSpaceOnUse">
<stop stop-color="#ED1EFF"/>
<stop offset="1" stop-color="#00D1FF"/>
</linearGradient>
<linearGradient id="paint50_linear" x1="545.397" y1="268.444" x2="902.263" y2="398.333" gradientUnits="userSpaceOnUse">
<stop stop-color="#ED1EFF"/>
<stop offset="1" stop-color="#00D1FF"/>
</linearGradient>
<linearGradient id="paint51_linear" x1="551.418" y1="260.204" x2="896.243" y2="406.573" gradientUnits="userSpaceOnUse">
<stop stop-color="#ED1EFF"/>
<stop offset="1" stop-color="#00D1FF"/>
</linearGradient>
<linearGradient id="paint52_linear" x1="557.805" y1="252.413" x2="889.855" y2="414.364" gradientUnits="userSpaceOnUse">
<stop stop-color="#ED1EFF"/>
<stop offset="1" stop-color="#00D1FF"/>
</linearGradient>
<linearGradient id="paint53_linear" x1="564.53" y1="245.087" x2="883.131" y2="421.691" gradientUnits="userSpaceOnUse">
<stop stop-color="#ED1EFF"/>
<stop offset="1" stop-color="#00D1FF"/>
</linearGradient>
<linearGradient id="paint54_linear" x1="571.559" y1="238.24" x2="876.101" y2="428.538" gradientUnits="userSpaceOnUse">
<stop stop-color="#ED1EFF"/>
<stop offset="1" stop-color="#00D1FF"/>
</linearGradient>
<linearGradient id="paint55_linear" x1="578.863" y1="231.882" x2="868.796" y2="434.895" gradientUnits="userSpaceOnUse">
<stop stop-color="#ED1EFF"/>
<stop offset="1" stop-color="#00D1FF"/>
</linearGradient>
<linearGradient id="paint56_linear" x1="586.409" y1="226.024" x2="861.251" y2="440.753" gradientUnits="userSpaceOnUse">
<stop stop-color="#ED1EFF"/>
<stop offset="1" stop-color="#00D1FF"/>
</linearGradient>
<linearGradient id="paint57_linear" x1="594.165" y1="220.673" x2="853.493" y2="446.103" gradientUnits="userSpaceOnUse">
<stop stop-color="#ED1EFF"/>
<stop offset="1" stop-color="#00D1FF"/>
</linearGradient>
<linearGradient id="paint58_linear" x1="602.1" y1="215.835" x2="845.56" y2="450.941" gradientUnits="userSpaceOnUse">
<stop stop-color="#ED1EFF"/>
<stop offset="1" stop-color="#00D1FF"/>
</linearGradient>
<linearGradient id="paint59_linear" x1="610.18" y1="211.515" x2="837.479" y2="455.263" gradientUnits="userSpaceOnUse">
<stop stop-color="#ED1EFF"/>
<stop offset="1" stop-color="#00D1FF"/>
</linearGradient>
<linearGradient id="paint60_linear" x1="618.374" y1="207.711" x2="829.285" y2="459.065" gradientUnits="userSpaceOnUse">
<stop stop-color="#ED1EFF"/>
<stop offset="1" stop-color="#00D1FF"/>
</linearGradient>
<linearGradient id="paint61_linear" x1="626.649" y1="204.418" x2="821.007" y2="462.34" gradientUnits="userSpaceOnUse">
<stop stop-color="#ED1EFF"/>
<stop offset="1" stop-color="#00D1FF"/>
</linearGradient>
<linearGradient id="paint62_linear" x1="634.976" y1="201.65" x2="812.681" y2="465.108" gradientUnits="userSpaceOnUse">
<stop stop-color="#ED1EFF"/>
<stop offset="1" stop-color="#00D1FF"/>
</linearGradient>
<linearGradient id="paint63_linear" x1="643.321" y1="199.394" x2="804.334" y2="467.364" gradientUnits="userSpaceOnUse">
<stop stop-color="#ED1EFF"/>
<stop offset="1" stop-color="#00D1FF"/>
</linearGradient>
<linearGradient id="paint64_linear" x1="651.657" y1="197.644" x2="796" y2="469.114" gradientUnits="userSpaceOnUse">
<stop stop-color="#ED1EFF"/>
<stop offset="1" stop-color="#00D1FF"/>
</linearGradient>
<linearGradient id="paint65_linear" x1="659.95" y1="196.394" x2="787.705" y2="470.364" gradientUnits="userSpaceOnUse">
<stop stop-color="#ED1EFF"/>
<stop offset="1" stop-color="#00D1FF"/>
</linearGradient>
<linearGradient id="paint66_linear" x1="668.175" y1="195.633" x2="779.481" y2="471.126" gradientUnits="userSpaceOnUse">
<stop stop-color="#ED1EFF"/>
<stop offset="1" stop-color="#00D1FF"/>
</linearGradient>
<linearGradient id="paint67_linear" x1="676.302" y1="195.35" x2="771.356" y2="471.407" gradientUnits="userSpaceOnUse">
<stop stop-color="#ED1EFF"/>
<stop offset="1" stop-color="#00D1FF"/>
</linearGradient>
<linearGradient id="paint68_linear" x1="684.302" y1="195.535" x2="763.354" y2="471.223" gradientUnits="userSpaceOnUse">
<stop stop-color="#ED1EFF"/>
<stop offset="1" stop-color="#00D1FF"/>
</linearGradient>
<linearGradient id="paint69_linear" x1="692.152" y1="196.172" x2="755.505" y2="470.587" gradientUnits="userSpaceOnUse">
<stop stop-color="#ED1EFF"/>
<stop offset="1" stop-color="#00D1FF"/>
</linearGradient>
<linearGradient id="paint70_linear" x1="699.824" y1="197.246" x2="747.833" y2="469.514" gradientUnits="userSpaceOnUse">
<stop stop-color="#ED1EFF"/>
<stop offset="1" stop-color="#00D1FF"/>
</linearGradient>
<linearGradient id="paint71_linear" x1="723.798" y1="306.501" x2="724.047" y2="389.62" gradientUnits="userSpaceOnUse">
<stop stop-color="#00D1FF"/>
<stop offset="1" stop-color="#110A36"/>
</linearGradient>
<radialGradient id="paint72_radial" cx="0" cy="0" r="1" gradientUnits="userSpaceOnUse" gradientTransform="translate(733 157.362) rotate(90) scale(122 264.855)">
<stop stop-color="#140635"/>
<stop offset="1" stop-color="#170637" stop-opacity="0"/>
</radialGradient>
<clipPath id="clip0">
<rect width="1440" height="870" fill="white"/>
</clipPath>
<clipPath id="clip1">
<rect width="120.203" height="83.1188" fill="white" transform="translate(663.696 306.501)"/>
</clipPath>
</defs>
</svg>
