<svg width="768" height="774" viewBox="0 0 768 774" fill="none" xmlns="http://www.w3.org/2000/svg">
<g clip-path="url(#clip0)">
<g opacity="0.5" filter="url(#filter0_f)">
<path d="M794.23 399.244C805.123 358.593 803.314 315.076 788.932 271.802C774.551 228.527 747.952 186.562 711.035 148.904L407.692 295.672L794.23 399.244Z" fill="#00D1FF"/>
</g>
<g opacity="0.5" filter="url(#filter1_f)">
<path d="M24.89 303.888C14.0122 344.485 15.8357 387.948 30.2304 431.173C44.625 474.399 71.2355 516.32 108.161 553.943L411.429 407.461L24.89 303.888Z" fill="#ED1EFF"/>
</g>
<path fill-rule="evenodd" clip-rule="evenodd" d="M575.946 544.008C576.056 543.921 576.065 543.772 575.968 543.675L421.918 390.338C421.82 390.241 421.652 390.232 421.542 390.319C421.433 390.405 421.423 390.555 421.521 390.652L575.57 543.988C575.668 544.086 575.836 544.094 575.946 544.008Z" fill="url(#paint0_linear)"/>
<path fill-rule="evenodd" clip-rule="evenodd" d="M767.717 480.296C767.769 480.174 767.699 480.038 767.561 479.993L496.83 390.274C496.693 390.228 496.539 390.29 496.488 390.412C496.436 390.534 496.506 390.67 496.644 390.716L767.375 480.435C767.512 480.48 767.666 480.418 767.717 480.296Z" fill="url(#paint1_linear)"/>
<path fill-rule="evenodd" clip-rule="evenodd" d="M383.933 544.067C384.08 544.067 384.199 543.962 384.199 543.831L384.478 390.495C384.478 390.365 384.36 390.259 384.212 390.259C384.065 390.259 383.946 390.364 383.946 390.494L383.667 543.831C383.667 543.961 383.786 544.067 383.933 544.067Z" fill="url(#paint2_linear)"/>
<path fill-rule="evenodd" clip-rule="evenodd" d="M767.731 407.668C767.754 407.54 767.655 407.419 767.51 407.398L646.81 390.262C646.665 390.241 646.529 390.329 646.505 390.458C646.482 390.586 646.581 390.707 646.726 390.728L767.426 407.864C767.571 407.885 767.707 407.797 767.731 407.668Z" fill="url(#paint3_linear)"/>
<path fill-rule="evenodd" clip-rule="evenodd" d="M767.732 400.861C767.752 400.732 767.651 400.613 767.505 400.595L684.313 390.261C684.167 390.243 684.033 390.333 684.012 390.462C683.992 390.591 684.093 390.71 684.239 390.729L767.431 401.062C767.577 401.08 767.712 400.99 767.732 400.861Z" fill="url(#paint4_linear)"/>
<path fill-rule="evenodd" clip-rule="evenodd" d="M767.727 429.452C767.759 429.324 767.669 429.198 767.526 429.17L571.808 390.265C571.664 390.236 571.522 390.316 571.49 390.443C571.458 390.571 571.548 390.697 571.691 390.725L767.409 429.63C767.552 429.659 767.695 429.579 767.727 429.452Z" fill="url(#paint5_linear)"/>
<path fill-rule="evenodd" clip-rule="evenodd" d="M767.724 448.515C767.764 448.39 767.681 448.259 767.54 448.224L534.319 390.268C534.177 390.232 534.03 390.306 533.99 390.431C533.951 390.556 534.033 390.687 534.175 390.722L767.396 448.678C767.538 448.714 767.685 448.64 767.724 448.515Z" fill="url(#paint6_linear)"/>
<path fill-rule="evenodd" clip-rule="evenodd" d="M767.729 416.745C767.756 416.617 767.661 416.494 767.516 416.47L609.308 390.263C609.164 390.239 609.025 390.324 608.998 390.452C608.971 390.58 609.066 390.703 609.21 390.727L767.418 416.934C767.563 416.958 767.702 416.873 767.729 416.745Z" fill="url(#paint7_linear)"/>
<path fill-rule="evenodd" clip-rule="evenodd" d="M0.82956 407.64C0.852804 407.769 0.989325 407.856 1.13449 407.836L121.696 390.728C121.842 390.707 121.94 390.586 121.917 390.458C121.894 390.329 121.757 390.241 121.612 390.262L1.05031 407.37C0.90515 407.39 0.806315 407.511 0.82956 407.64Z" fill="url(#paint8_linear)"/>
<path fill-rule="evenodd" clip-rule="evenodd" d="M767.731 395.568C767.749 395.438 767.645 395.321 767.499 395.304L721.817 390.261C721.671 390.245 721.538 390.336 721.52 390.466C721.501 390.595 721.605 390.713 721.751 390.729L767.434 395.773C767.58 395.789 767.713 395.697 767.731 395.568Z" fill="url(#paint9_linear)"/>
<path fill-rule="evenodd" clip-rule="evenodd" d="M767.734 391.333C767.751 391.204 767.646 391.087 767.499 391.072L759.325 390.261C759.179 390.246 759.047 390.339 759.031 390.469C759.015 390.598 759.12 390.715 759.266 390.729L767.44 391.541C767.586 391.556 767.718 391.462 767.734 391.333Z" fill="url(#paint10_linear)"/>
<path fill-rule="evenodd" clip-rule="evenodd" d="M0.829769 416.706C0.856765 416.834 0.9958 416.919 1.14031 416.895L159.212 390.727C159.356 390.703 159.452 390.58 159.425 390.452C159.398 390.324 159.259 390.239 159.114 390.263L1.04255 416.431C0.898039 416.455 0.802773 416.578 0.829769 416.706Z" fill="url(#paint11_linear)"/>
<path fill-rule="evenodd" clip-rule="evenodd" d="M0.835133 448.43C0.874795 448.555 1.0217 448.629 1.16327 448.594L234.252 390.722C234.393 390.687 234.476 390.557 234.436 390.431C234.396 390.306 234.25 390.233 234.108 390.268L1.01964 448.139C0.878078 448.174 0.795472 448.305 0.835133 448.43Z" fill="url(#paint12_linear)"/>
<path fill-rule="evenodd" clip-rule="evenodd" d="M191.922 544.007C192.031 544.094 192.2 544.086 192.298 543.988L346.9 390.652C346.998 390.555 346.989 390.406 346.879 390.319C346.77 390.232 346.601 390.241 346.503 390.338L191.901 543.674C191.803 543.771 191.812 543.92 191.922 544.007Z" fill="url(#paint13_linear)"/>
<path fill-rule="evenodd" clip-rule="evenodd" d="M0.827804 400.841C0.848205 400.97 0.982767 401.06 1.12836 401.042L84.1819 390.729C84.3274 390.711 84.4289 390.591 84.4085 390.462C84.3881 390.333 84.2536 390.243 84.108 390.261L1.05448 400.575C0.908888 400.593 0.807403 400.712 0.827804 400.841Z" fill="url(#paint14_linear)"/>
<path fill-rule="evenodd" clip-rule="evenodd" d="M0.831698 429.396C0.863853 429.523 1.00621 429.603 1.14966 429.575L196.73 390.725C196.873 390.697 196.963 390.57 196.931 390.443C196.899 390.316 196.757 390.236 196.613 390.265L1.03322 429.114C0.889768 429.143 0.799543 429.269 0.831698 429.396Z" fill="url(#paint15_linear)"/>
<path fill-rule="evenodd" clip-rule="evenodd" d="M0.84307 480.143C0.89451 480.265 1.04785 480.327 1.18557 480.282L271.782 390.716C271.92 390.67 271.99 390.534 271.939 390.412C271.887 390.29 271.734 390.228 271.596 390.274L0.999294 479.84C0.861575 479.885 0.791631 480.021 0.84307 480.143Z" fill="url(#paint16_linear)"/>
<path fill-rule="evenodd" clip-rule="evenodd" d="M0.826876 391.32C0.843253 391.449 0.974964 391.543 1.12106 391.528L9.16129 390.729C9.30739 390.715 9.41255 390.598 9.39617 390.469C9.37979 390.339 9.24808 390.246 9.10199 390.261L1.06176 391.059C0.915658 391.074 0.810499 391.191 0.826876 391.32Z" fill="url(#paint17_linear)"/>
<path fill-rule="evenodd" clip-rule="evenodd" d="M0.827264 395.551C0.845433 395.68 0.978425 395.772 1.12431 395.756L46.673 390.729C46.8188 390.713 46.9224 390.595 46.9042 390.466C46.886 390.337 46.753 390.245 46.6072 390.261L1.05851 395.288C0.912629 395.304 0.809095 395.422 0.827264 395.551Z" fill="url(#paint18_linear)"/>
<path fill-rule="evenodd" clip-rule="evenodd" d="M0.0339955 543.946C0.105836 544.06 0.268053 544.1 0.396316 544.037L309.324 390.7C309.452 390.637 309.498 390.493 309.426 390.379C309.354 390.266 309.192 390.225 309.064 390.289L0.136158 543.625C0.00789415 543.689 -0.0378454 543.833 0.0339955 543.946Z" fill="url(#paint19_linear)"/>
<path fill-rule="evenodd" clip-rule="evenodd" d="M767.835 543.946C767.907 543.833 767.861 543.689 767.733 543.625L459.359 390.289C459.231 390.225 459.069 390.266 458.997 390.379C458.925 390.493 458.971 390.637 459.099 390.7L767.472 544.037C767.6 544.101 767.763 544.06 767.835 543.946Z" fill="url(#paint20_linear)"/>
<path fill-rule="evenodd" clip-rule="evenodd" d="M0.825195 479.458C0.825195 479.588 0.944372 479.694 1.09138 479.694L767.468 479.694C767.615 479.694 767.734 479.588 767.734 479.458C767.734 479.327 767.615 479.222 767.468 479.222L1.09138 479.222C0.944372 479.222 0.825195 479.327 0.825195 479.458Z" fill="url(#paint21_linear)"/>
<path fill-rule="evenodd" clip-rule="evenodd" d="M0.825195 417.8C0.825195 417.93 0.944372 418.036 1.09138 418.036L767.468 418.036C767.615 418.036 767.734 417.93 767.734 417.8C767.734 417.67 767.615 417.564 767.468 417.564L1.09138 417.564C0.944372 417.564 0.825195 417.67 0.825195 417.8Z" fill="url(#paint22_linear)"/>
<path fill-rule="evenodd" clip-rule="evenodd" d="M0.825195 438.667C0.825195 438.797 0.944372 438.903 1.09138 438.903L767.468 438.903C767.615 438.903 767.734 438.797 767.734 438.667C767.734 438.536 767.615 438.431 767.468 438.431L1.09138 438.431C0.944372 438.431 0.825195 438.536 0.825195 438.667Z" fill="url(#paint23_linear)"/>
<path fill-rule="evenodd" clip-rule="evenodd" d="M0.825195 462.128C0.825195 462.258 0.944372 462.364 1.09138 462.364L767.468 462.364C767.615 462.364 767.734 462.258 767.734 462.128C767.734 461.997 767.615 461.892 767.468 461.892L1.09138 461.892C0.944372 461.892 0.825195 461.997 0.825195 462.128Z" fill="url(#paint24_linear)"/>
<path fill-rule="evenodd" clip-rule="evenodd" d="M0.825195 503.349C0.825195 503.48 0.944372 503.585 1.09138 503.585L767.468 503.585C767.615 503.585 767.734 503.48 767.734 503.35C767.734 503.219 767.615 503.114 767.468 503.114L1.09138 503.114C0.944372 503.114 0.825195 503.219 0.825195 503.349Z" fill="url(#paint25_linear)"/>
<path fill-rule="evenodd" clip-rule="evenodd" d="M0.825195 448.98C0.825195 449.11 0.944372 449.216 1.09138 449.216L767.468 449.216C767.615 449.216 767.734 449.11 767.734 448.98C767.734 448.85 767.615 448.744 767.468 448.744L1.09138 448.744C0.944372 448.744 0.825195 448.85 0.825195 448.98Z" fill="url(#paint26_linear)"/>
<path fill-rule="evenodd" clip-rule="evenodd" d="M0.825195 430.358C0.825195 430.488 0.944372 430.594 1.09138 430.594L767.468 430.594C767.615 430.594 767.734 430.488 767.734 430.358C767.734 430.228 767.615 430.122 767.468 430.122L1.09138 430.122C0.944372 430.122 0.825195 430.228 0.825195 430.358Z" fill="url(#paint27_linear)"/>
<path fill-rule="evenodd" clip-rule="evenodd" d="M0.825195 396.609C0.825195 396.74 0.944372 396.845 1.09138 396.845L767.468 396.845C767.615 396.845 767.734 396.74 767.734 396.609C767.734 396.479 767.615 396.374 767.468 396.374L1.09138 396.374C0.944372 396.374 0.825195 396.479 0.825195 396.609Z" fill="url(#paint28_linear)"/>
<path fill-rule="evenodd" clip-rule="evenodd" d="M0.825195 401.938C0.825195 402.068 0.944372 402.174 1.09138 402.174L767.468 402.174C767.615 402.174 767.734 402.068 767.734 401.938C767.734 401.808 767.615 401.702 767.468 401.702L1.09138 401.702C0.944372 401.702 0.825195 401.808 0.825195 401.938Z" fill="url(#paint29_linear)"/>
<path fill-rule="evenodd" clip-rule="evenodd" d="M0.825195 405.126C0.825195 405.256 0.944372 405.362 1.09138 405.362L767.468 405.362C767.615 405.362 767.734 405.256 767.734 405.126C767.734 404.996 767.615 404.89 767.468 404.89L1.09138 404.89C0.944372 404.89 0.825195 404.995 0.825195 405.126Z" fill="url(#paint30_linear)"/>
<path fill-rule="evenodd" clip-rule="evenodd" d="M0.825195 399.118C0.825195 399.249 0.944372 399.354 1.09138 399.354L767.468 399.354C767.615 399.354 767.734 399.249 767.734 399.118C767.734 398.988 767.615 398.883 767.468 398.883L1.09138 398.882C0.944372 398.882 0.825195 398.988 0.825195 399.118Z" fill="url(#paint31_linear)"/>
<path fill-rule="evenodd" clip-rule="evenodd" d="M0.825195 392.331C0.825195 392.461 0.944372 392.567 1.09138 392.567L767.468 392.567C767.615 392.567 767.734 392.461 767.734 392.331C767.734 392.201 767.615 392.095 767.468 392.095L1.09138 392.095C0.944372 392.095 0.825195 392.201 0.825195 392.331Z" fill="url(#paint32_linear)"/>
<path fill-rule="evenodd" clip-rule="evenodd" d="M0.825195 394.359C0.825195 394.49 0.944372 394.595 1.09138 394.595L767.468 394.595C767.615 394.595 767.734 394.49 767.734 394.359C767.734 394.229 767.615 394.123 767.468 394.123L1.09138 394.123C0.944372 394.123 0.825195 394.229 0.825195 394.359Z" fill="url(#paint33_linear)"/>
<path fill-rule="evenodd" clip-rule="evenodd" d="M0.825195 390.495C0.825195 390.625 0.944372 390.731 1.09138 390.731L767.468 390.731C767.615 390.731 767.734 390.625 767.734 390.495C767.734 390.365 767.615 390.259 767.468 390.259L1.09138 390.259C0.944372 390.259 0.825195 390.365 0.825195 390.495Z" fill="url(#paint34_linear)"/>
<path fill-rule="evenodd" clip-rule="evenodd" d="M0.825195 412.939C0.825195 413.069 0.944372 413.175 1.09138 413.175L767.468 413.175C767.615 413.175 767.734 413.069 767.734 412.939C767.734 412.809 767.615 412.703 767.468 412.703L1.09138 412.703C0.944372 412.703 0.825195 412.809 0.825195 412.939Z" fill="url(#paint35_linear)"/>
<path fill-rule="evenodd" clip-rule="evenodd" d="M0.825195 423.522C0.825195 423.653 0.944372 423.758 1.09138 423.758L767.468 423.758C767.615 423.758 767.734 423.653 767.734 423.522C767.734 423.392 767.615 423.286 767.468 423.286L1.09138 423.286C0.944372 423.286 0.825195 423.392 0.825195 423.522Z" fill="url(#paint36_linear)"/>
<path fill-rule="evenodd" clip-rule="evenodd" d="M0.825195 408.759C0.825195 408.889 0.944372 408.994 1.09138 408.994L767.468 408.994C767.615 408.994 767.734 408.889 767.734 408.759C767.734 408.628 767.615 408.523 767.468 408.523L1.09138 408.523C0.944372 408.523 0.825195 408.628 0.825195 408.759Z" fill="url(#paint37_linear)"/>
<path fill-rule="evenodd" clip-rule="evenodd" d="M0.558594 543.637C0.558594 543.377 0.796948 543.166 1.09097 543.166L767.468 543.166C767.762 543.166 768 543.377 768 543.637C768 543.898 767.762 544.109 767.468 544.109L1.09097 544.109C0.796948 544.109 0.558594 543.898 0.558594 543.637Z" fill="url(#paint38_linear)"/>
<path fill-rule="evenodd" clip-rule="evenodd" d="M575.146 588L575.146 544.124L575.679 544.124L575.679 588L575.146 588Z" fill="url(#paint39_linear)"/>
<path fill-rule="evenodd" clip-rule="evenodd" d="M384.023 588L384.023 544.124L384.556 544.124L384.556 588L384.023 588Z" fill="url(#paint40_linear)"/>
<path fill-rule="evenodd" clip-rule="evenodd" d="M191.835 588L191.835 544.124L192.367 544.124L192.367 588L191.835 588Z" fill="url(#paint41_linear)"/>
<path opacity="0.0344828" fill-rule="evenodd" clip-rule="evenodd" d="M231.765 369.767C195.478 331.581 191.383 273.019 222.003 230.154C229.055 220.281 234.41 209.301 237.848 197.665C252.775 147.146 301.443 114.319 353.875 119.404C365.951 120.575 378.138 119.723 389.934 116.883C441.148 104.55 493.912 130.284 515.724 178.234C520.748 189.278 527.579 199.406 535.937 208.201C572.224 246.388 576.319 304.949 545.699 347.814C538.647 357.687 533.292 368.667 529.854 380.303C514.927 430.822 466.259 463.649 413.827 458.564C401.751 457.393 389.564 458.245 377.768 461.086C326.554 473.418 273.79 447.684 251.978 399.734C246.954 388.69 240.123 378.562 231.765 369.767ZM222.708 230.658C192.329 273.185 196.392 331.285 232.394 369.17C240.818 378.035 247.703 388.243 252.767 399.375C274.407 446.947 326.755 472.478 377.565 460.243C389.454 457.38 401.738 456.521 413.91 457.701C465.929 462.746 514.214 430.178 529.023 380.057C532.488 368.329 537.886 357.262 544.994 347.311C575.373 304.784 571.31 246.684 535.308 208.798C526.884 199.933 519.999 189.725 514.935 178.593C493.295 131.021 440.947 105.49 390.137 117.725C378.248 120.588 365.964 121.447 353.792 120.267C301.773 115.222 253.488 147.79 238.679 197.911C235.214 209.639 229.816 220.706 222.708 230.658Z" fill="url(#paint42_linear)"/>
<path opacity="0.0689655" fill-rule="evenodd" clip-rule="evenodd" d="M229.661 360.806C195.841 321.263 194.829 263.286 227.249 222.587C234.715 213.214 240.564 202.661 244.556 191.363C261.892 142.303 311.595 112.438 363.051 120.164C374.902 121.943 386.966 121.733 398.746 119.541C449.901 110.024 500.617 138.136 519.654 186.561C524.038 197.713 530.252 208.056 538.041 217.162C571.861 256.705 572.873 314.682 540.454 355.381C532.988 364.754 527.138 375.307 523.146 386.606C505.811 435.666 456.107 465.531 404.651 457.805C392.801 456.025 380.737 456.236 368.956 458.428C317.801 467.945 267.085 439.833 248.048 391.408C243.664 380.255 237.45 369.913 229.661 360.806ZM227.927 223.127C195.766 263.502 196.77 321.016 230.32 360.243C238.171 369.423 244.436 379.848 248.855 391.09C267.74 439.129 318.051 467.017 368.797 457.576C380.673 455.366 392.834 455.154 404.779 456.947C455.825 464.612 505.132 434.986 522.328 386.317C526.353 374.928 532.249 364.29 539.776 354.841C571.936 314.467 570.932 256.953 537.382 217.726C529.531 208.546 523.267 198.12 518.847 186.878C499.962 138.839 449.652 110.952 398.905 120.393C387.029 122.603 374.868 122.815 362.923 121.021C311.877 113.357 262.571 142.983 245.374 191.652C241.349 203.041 235.453 213.679 227.927 223.127Z" fill="url(#paint43_linear)"/>
<path opacity="0.103448" fill-rule="evenodd" clip-rule="evenodd" d="M228.073 351.849C196.762 311.102 198.761 253.87 232.838 215.406C240.685 206.549 246.999 196.444 251.52 185.509C271.152 138.019 321.716 111.134 372.065 121.413C383.659 123.781 395.567 124.196 407.298 122.644C458.242 115.901 506.807 146.248 523.079 194.992C526.826 206.216 532.419 216.736 539.63 226.119C570.941 266.866 568.942 324.098 534.865 362.562C527.018 371.419 520.704 381.524 516.183 392.459C496.55 439.949 445.987 466.834 395.638 456.555C384.044 454.187 372.136 453.772 360.405 455.324C309.461 462.067 260.896 431.72 244.624 382.976C240.877 371.752 235.283 361.232 228.073 351.849ZM233.487 215.981C199.685 254.133 197.703 310.903 228.761 351.321C236.029 360.78 241.669 371.386 245.446 382.702C261.587 431.051 309.759 461.153 360.291 454.465C372.118 452.9 384.122 453.319 395.811 455.705C445.753 465.902 495.908 439.234 515.382 392.128C519.94 381.104 526.305 370.917 534.216 361.987C568.018 323.835 570 267.065 538.942 226.647C531.673 217.188 526.034 206.582 522.256 195.266C506.116 146.917 457.943 116.815 407.412 123.503C395.585 125.068 383.58 124.649 371.892 122.263C321.95 112.066 271.795 138.734 252.321 185.84C247.763 196.864 241.398 207.051 233.487 215.981Z" fill="url(#paint44_linear)"/>
<path opacity="0.137931" fill-rule="evenodd" clip-rule="evenodd" d="M226.994 342.924C198.225 301.126 203.153 244.793 238.744 208.625C246.939 200.297 253.686 190.661 258.709 180.112C280.523 134.297 331.773 110.399 380.89 123.138C392.2 126.071 403.919 127.096 415.566 126.172C466.149 122.156 512.471 154.59 525.998 203.497C529.112 214.757 534.084 225.419 540.708 235.044C569.478 276.842 564.549 333.175 528.958 369.343C520.764 377.67 514.016 387.307 508.993 397.856C487.18 443.67 435.93 467.569 386.812 454.83C375.503 451.897 363.783 450.871 352.136 451.796C301.553 455.812 255.232 423.378 241.705 374.471C238.59 363.21 233.619 352.548 226.994 342.924ZM239.362 209.233C204.062 245.105 199.174 300.976 227.708 342.433C234.387 352.136 239.4 362.886 242.54 374.24C255.956 422.746 301.898 454.915 352.068 450.932C363.811 450 375.627 451.033 387.03 453.991C435.745 466.625 486.576 442.923 508.211 397.483C513.275 386.847 520.078 377.131 528.341 368.735C563.64 332.863 568.528 276.991 539.994 235.535C533.315 225.831 528.302 215.081 525.162 203.728C511.746 155.222 465.804 123.053 415.635 127.036C403.892 127.968 392.075 126.934 380.673 123.977C331.957 111.342 281.127 135.045 259.492 180.485C254.428 191.12 247.624 200.837 239.362 209.233Z" fill="url(#paint45_linear)"/>
<path opacity="0.172414" fill-rule="evenodd" clip-rule="evenodd" d="M226.417 334.061C200.211 291.364 207.981 236.078 244.94 202.258C253.449 194.472 260.599 185.32 266.095 175.18C289.97 131.137 341.733 110.223 389.502 125.321C400.499 128.797 412 130.413 423.529 130.103C473.609 128.757 517.603 163.129 528.412 212.047C530.901 223.309 535.251 234.076 541.284 243.906C567.49 286.604 559.72 341.889 522.761 375.709C514.252 383.495 507.102 392.647 501.605 402.787C477.731 446.83 425.967 467.744 378.199 452.646C367.201 449.17 355.701 447.554 344.172 447.864C294.092 449.21 250.098 414.838 239.289 365.921C236.8 354.659 232.45 343.891 226.417 334.061ZM245.525 202.897C208.873 236.437 201.167 291.264 227.155 333.607C233.239 343.52 237.626 354.377 240.135 365.734C250.855 414.245 294.484 448.332 344.148 446.997C355.774 446.685 367.371 448.315 378.46 451.82C425.833 466.792 477.167 446.052 500.843 402.374C506.386 392.149 513.596 382.921 522.176 375.07C558.828 341.53 566.534 286.703 540.546 244.36C534.462 234.448 530.075 223.59 527.566 212.234C516.846 163.722 473.217 129.635 423.553 130.97C411.927 131.282 400.33 129.652 389.241 126.147C341.868 111.175 290.534 131.916 266.857 175.593C261.315 185.818 254.105 195.046 245.525 202.897Z" fill="url(#paint46_linear)"/>
<path opacity="0.206897" fill-rule="evenodd" clip-rule="evenodd" d="M226.332 325.287C202.705 281.844 213.221 227.746 251.401 196.317C260.19 189.082 267.71 180.431 273.652 170.72C299.462 128.537 351.569 110.595 397.878 127.946C408.538 131.94 419.79 134.127 431.171 134.417C480.607 135.677 522.199 171.833 530.328 220.613C532.199 231.842 535.931 242.68 541.369 252.681C564.996 296.124 554.481 350.222 516.3 381.651C507.511 388.886 499.991 397.537 494.05 407.248C468.24 449.43 416.132 467.373 369.823 450.022C359.163 446.028 347.911 443.841 336.531 443.551C287.094 442.29 245.502 406.135 237.374 357.355C235.503 346.126 231.771 335.288 226.332 325.287ZM251.952 196.986C214.092 228.151 203.665 281.794 227.093 324.873C232.578 334.958 236.342 345.888 238.229 357.212C246.289 405.582 287.532 441.434 336.553 442.684C348.029 442.977 359.377 445.182 370.127 449.21C416.047 466.415 467.717 448.624 493.31 406.795C499.302 397.002 506.886 388.278 515.749 380.982C553.609 349.816 564.036 296.173 540.608 253.095C535.123 243.009 531.36 232.08 529.473 220.755C521.412 172.385 480.17 136.533 431.149 135.284C419.672 134.991 408.325 132.785 397.574 128.757C351.654 111.553 299.984 129.344 274.391 171.173C268.399 180.965 260.816 189.689 251.952 196.986Z" fill="url(#paint47_linear)"/>
<path opacity="0.241379" fill-rule="evenodd" clip-rule="evenodd" d="M226.728 316.629C205.686 272.59 218.844 219.815 258.098 190.81C267.134 184.134 274.992 175.997 281.348 166.734C308.965 126.492 361.25 111.499 405.995 130.992C416.295 135.479 427.271 138.215 438.471 139.089C487.13 142.885 526.256 180.668 531.748 229.166C533.012 240.329 536.13 251.202 540.973 261.339C562.016 305.377 548.857 358.152 509.603 387.157C500.568 393.833 492.71 401.97 486.353 411.233C458.736 451.475 406.452 466.468 361.706 446.975C351.407 442.488 340.431 439.752 329.231 438.878C280.571 435.082 241.446 397.299 235.954 348.801C234.69 337.639 231.572 326.765 226.728 316.629ZM258.614 191.507C219.694 220.265 206.647 272.591 227.511 316.255C232.395 326.478 235.54 337.445 236.815 348.704C242.26 396.789 281.053 434.25 329.298 438.014C340.595 438.895 351.665 441.655 362.052 446.18C406.417 465.507 458.256 450.642 485.638 410.743C492.05 401.4 499.975 393.193 509.088 386.46C548.008 357.702 561.054 305.376 540.191 261.712C535.306 251.489 532.161 240.522 530.886 229.263C525.441 181.179 486.649 143.717 438.403 139.953C427.107 139.072 416.037 136.312 405.649 131.787C361.284 112.46 309.445 127.325 282.063 167.225C275.652 176.567 267.726 184.774 258.614 191.507Z" fill="url(#paint48_linear)"/>
<path opacity="0.275862" fill-rule="evenodd" clip-rule="evenodd" d="M227.594 308.113C209.133 263.63 224.825 212.302 265.005 185.748C274.252 179.636 282.415 172.024 289.157 163.226C318.45 124.996 370.746 112.922 413.834 134.442C423.75 139.395 434.423 142.658 445.414 144.097C493.168 150.351 529.773 189.604 532.68 237.678C533.349 248.743 535.86 259.618 540.109 269.855C558.57 314.339 542.878 365.666 502.698 392.221C493.45 398.332 485.288 405.944 478.546 414.742C449.253 452.972 396.956 465.046 353.869 443.526C343.953 438.574 333.28 435.31 322.289 433.871C274.534 427.618 237.93 388.364 235.023 340.29C234.354 329.226 231.843 318.351 227.594 308.113ZM265.483 186.471C225.65 212.797 210.093 263.681 228.395 307.781C232.681 318.107 235.213 329.077 235.888 340.237C238.77 387.897 275.059 426.812 322.401 433.012C333.488 434.463 344.254 437.755 354.257 442.751C396.972 464.085 448.818 452.115 477.858 414.215C484.658 405.34 492.892 397.662 502.22 391.497C542.053 365.172 557.61 314.287 539.308 270.188C535.022 259.861 532.49 248.891 531.815 237.731C528.933 190.071 492.644 151.156 445.301 144.956C434.215 143.505 423.449 140.213 413.446 135.217C370.731 113.883 318.885 125.853 289.845 163.753C283.044 172.628 274.811 180.306 265.483 186.471Z" fill="url(#paint49_linear)"/>
<path opacity="0.310345" fill-rule="evenodd" clip-rule="evenodd" d="M228.914 299.764C213.021 254.983 231.132 205.223 272.091 181.135C281.517 175.592 289.951 168.514 297.047 160.195C327.882 124.041 380.03 114.846 421.371 138.273C430.884 143.664 441.231 147.43 451.984 149.415C498.711 158.042 532.749 198.607 533.131 246.122C533.218 257.057 535.13 267.9 538.787 278.204C554.68 322.985 536.569 372.745 495.61 396.833C486.185 402.377 477.75 409.454 470.655 417.774C439.82 453.927 387.671 463.122 346.33 439.695C336.817 434.304 326.471 430.539 315.718 428.553C268.99 419.926 234.953 379.362 234.571 331.846C234.483 320.912 232.571 310.069 228.914 299.764ZM272.531 181.882C231.93 205.76 213.977 255.085 229.731 299.474C233.42 309.87 235.349 320.808 235.437 331.839C235.816 378.939 269.556 419.149 315.875 427.701C326.723 429.704 337.16 433.503 346.757 438.941C387.737 462.163 439.43 453.049 469.995 417.211C477.153 408.818 485.662 401.678 495.171 396.086C535.771 372.208 553.724 322.883 537.971 278.494C534.281 268.099 532.352 257.16 532.264 246.129C531.885 199.029 498.145 158.819 451.826 150.267C440.978 148.265 430.541 144.466 420.944 139.027C379.965 115.805 328.272 124.92 297.706 160.757C290.548 169.15 282.039 176.29 272.531 181.882Z" fill="url(#paint50_linear)"/>
<path opacity="0.344828" fill-rule="evenodd" clip-rule="evenodd" d="M230.674 291.606C217.331 246.673 237.74 198.591 279.331 176.977C288.901 172.004 297.574 165.468 304.992 157.64C337.233 123.618 389.078 117.252 428.592 142.464C437.684 148.265 447.68 152.508 458.169 155.018C503.753 165.929 535.189 207.645 533.112 254.471C532.634 265.246 533.957 276.024 537.028 286.363C550.371 331.295 529.961 379.377 488.37 400.992C478.801 405.965 470.128 412.5 462.71 420.328C430.469 454.35 378.623 460.716 339.109 435.505C330.018 429.704 320.021 425.461 309.533 422.95C263.948 412.039 232.513 370.323 234.59 323.497C235.068 312.723 233.744 301.945 230.674 291.606ZM279.731 177.746C238.509 199.169 218.28 246.825 231.505 291.359C234.603 301.79 235.938 312.665 235.456 323.536C233.397 369.947 264.554 411.293 309.735 422.107C320.317 424.64 330.402 428.921 339.576 434.774C378.739 459.762 430.125 453.453 462.08 419.732C469.565 411.834 478.315 405.24 487.971 400.222C529.193 378.8 549.422 331.144 536.197 286.609C533.099 276.178 531.764 265.303 532.246 254.433C534.304 208.022 503.147 166.675 457.967 155.861C447.385 153.329 437.299 149.047 428.126 143.195C388.962 118.207 337.576 124.516 305.621 158.236C298.136 166.134 289.386 172.728 279.731 177.746Z" fill="url(#paint51_linear)"/>
<path opacity="0.37931" fill-rule="evenodd" clip-rule="evenodd" d="M232.857 283.661C222.035 238.719 244.618 192.417 286.696 173.277C296.376 168.873 305.254 162.885 312.963 155.559C346.473 123.715 397.863 120.122 435.479 146.992C444.133 153.173 453.757 157.868 463.957 160.881C508.289 173.98 537.096 216.688 532.634 262.699C531.607 273.284 532.354 283.967 534.844 294.306C545.666 339.249 523.083 385.55 481.006 404.691C471.325 409.095 462.447 415.083 454.738 422.409C421.228 454.253 369.838 457.846 332.222 430.976C323.569 424.795 313.944 420.1 303.744 417.087C259.412 403.988 230.605 361.28 235.067 315.269C236.094 304.683 235.347 294.001 232.857 283.661ZM287.054 174.066C245.355 193.034 222.975 238.92 233.7 283.458C236.212 293.892 236.966 304.671 235.93 315.353C231.508 360.95 260.056 403.275 303.99 416.255C314.282 419.296 323.994 424.033 332.726 430.271C370.004 456.9 420.932 453.338 454.141 421.781C461.92 414.388 470.878 408.346 480.647 403.902C522.346 384.933 544.726 339.048 534.001 294.509C531.489 284.076 530.735 273.297 531.771 262.615C536.193 217.018 507.645 174.693 463.711 161.712C453.419 158.672 443.707 153.935 434.975 147.697C397.697 121.068 346.769 124.63 313.56 156.187C305.781 163.579 296.823 169.622 287.054 174.066Z" fill="url(#paint52_linear)"/>
<path opacity="0.413793" fill-rule="evenodd" clip-rule="evenodd" d="M235.447 275.953C227.11 231.141 251.736 186.713 294.158 170.036C303.916 166.2 312.966 160.763 320.934 153.947C355.575 124.321 406.363 123.434 442.016 151.834C450.218 158.367 459.452 163.485 469.338 166.979C512.316 182.165 538.478 225.706 531.71 270.782C530.153 281.151 530.337 291.707 532.255 302.016C540.592 346.829 515.966 391.256 473.544 407.933C463.786 411.769 454.736 417.207 446.767 424.022C412.127 453.649 361.338 454.535 325.685 426.135C317.484 419.602 308.25 414.484 298.364 410.99C255.386 395.805 229.224 352.263 235.992 307.187C237.549 296.818 237.365 286.262 235.447 275.953ZM294.475 170.843C252.44 187.368 228.038 231.39 236.299 275.795C238.235 286.198 238.421 296.851 236.849 307.316C230.143 351.981 256.066 395.126 298.652 410.173C308.63 413.699 317.949 418.864 326.225 425.457C361.554 453.598 411.88 452.72 446.204 423.363C454.246 416.485 463.379 410.997 473.227 407.126C515.262 390.601 539.664 346.579 531.403 302.174C529.467 291.771 529.281 281.118 530.852 270.653C537.559 225.988 511.635 182.843 469.049 167.796C459.072 164.271 449.753 159.105 441.476 152.512C406.148 124.371 355.822 125.249 321.498 154.606C313.456 161.484 304.323 166.972 294.475 170.843Z" fill="url(#paint53_linear)"/>
<path opacity="0.448276" fill-rule="evenodd" clip-rule="evenodd" d="M238.424 268.501C232.528 223.953 259.065 181.484 301.689 167.255C311.493 163.982 320.682 159.097 328.877 152.799C364.509 125.419 414.556 127.167 448.191 156.966C455.927 163.819 464.753 169.334 474.304 173.283C515.832 190.451 539.342 234.667 530.353 278.695C528.285 288.822 527.922 299.222 529.278 309.469C535.174 354.017 508.637 396.485 466.013 410.714C456.209 413.987 447.02 418.873 438.825 425.17C403.193 452.55 353.146 450.803 319.511 421.004C311.775 414.15 302.949 408.635 293.398 404.686C251.87 387.518 228.36 343.302 237.349 299.274C239.417 289.148 239.78 278.747 238.424 268.501ZM301.964 168.077C259.733 182.175 233.442 224.251 239.283 268.387C240.652 278.729 240.285 289.226 238.198 299.448C229.292 343.069 252.585 386.876 293.729 403.885C303.37 407.871 312.278 413.437 320.086 420.355C353.41 449.878 402.994 451.61 438.297 424.483C446.569 418.127 455.843 413.195 465.738 409.892C507.969 395.794 534.26 353.719 528.419 309.582C527.05 299.24 527.417 288.743 529.503 278.522C538.41 234.9 515.117 191.093 473.973 174.084C464.332 170.098 455.424 164.532 447.616 157.614C414.292 128.091 364.708 126.359 329.405 153.486C321.133 159.843 311.859 164.774 301.964 168.077Z" fill="url(#paint54_linear)"/>
<path opacity="0.482759" fill-rule="evenodd" clip-rule="evenodd" d="M241.768 261.323C238.263 217.17 266.574 176.738 309.262 164.931C319.08 162.216 328.375 157.881 336.765 152.106C373.25 126.994 422.42 131.296 453.99 162.362C461.25 169.506 469.651 175.389 478.848 179.768C518.838 198.808 539.698 243.542 528.579 286.415C526.022 296.275 525.128 306.492 525.934 316.646C529.439 360.799 501.128 401.231 458.44 413.038C448.622 415.753 439.327 420.088 430.937 425.863C394.452 450.975 345.281 446.673 313.712 415.607C306.452 408.462 298.05 402.58 288.854 398.201C248.864 379.161 228.004 334.426 239.123 291.553C241.68 281.694 242.574 271.477 241.768 261.323ZM309.493 165.766C267.205 177.463 239.16 217.516 242.632 261.254C243.446 271.504 242.544 281.818 239.962 291.771C228.947 334.242 249.612 378.557 289.226 397.418C298.51 401.839 306.991 407.777 314.32 414.989C345.593 445.764 394.303 450.025 430.445 425.149C438.915 419.319 448.298 414.943 458.209 412.202C500.497 400.506 528.542 360.453 525.07 316.715C524.256 306.465 525.158 296.151 527.74 286.198C538.755 243.727 518.09 199.412 478.475 180.551C469.192 176.13 460.711 170.192 453.382 162.98C422.109 132.205 373.399 127.944 337.257 152.82C328.787 158.65 319.404 163.026 309.493 165.766Z" fill="url(#paint55_linear)"/>
<path opacity="0.517241" fill-rule="evenodd" clip-rule="evenodd" d="M245.459 254.438C244.287 210.807 274.232 172.479 316.851 163.061C326.65 160.896 336.02 157.11 344.573 151.86C381.772 129.03 429.939 135.799 459.404 167.999C466.179 175.403 474.142 181.624 482.965 186.407C521.336 207.207 539.557 252.305 526.404 293.922C523.379 303.491 521.973 313.498 522.243 323.531C523.415 367.161 493.47 405.49 450.851 414.907C441.052 417.073 431.682 420.858 423.129 426.108C385.93 448.939 337.763 442.17 308.298 409.97C301.523 402.566 293.56 396.344 284.737 391.562C246.366 370.762 228.145 325.664 241.298 284.047C244.323 274.477 245.729 264.47 245.459 254.438ZM317.038 163.908C274.825 173.235 245.165 211.199 246.326 254.415C246.598 264.543 245.178 274.647 242.125 284.308C229.097 325.529 247.144 370.198 285.15 390.8C294.058 395.628 302.098 401.91 308.938 409.385C338.122 441.278 385.83 447.983 422.675 425.369C431.311 420.069 440.77 416.247 450.664 414.061C492.877 404.733 522.537 366.769 521.376 323.554C521.104 313.425 522.524 303.322 525.577 293.661C538.605 252.44 520.558 207.771 482.552 187.169C473.644 182.34 465.604 176.059 458.764 168.584C429.58 136.691 381.872 129.986 345.027 152.599C336.391 157.899 326.931 161.721 317.038 163.908Z" fill="url(#paint56_linear)"/>
<path opacity="0.551724" fill-rule="evenodd" clip-rule="evenodd" d="M249.475 247.862C250.572 204.874 282.01 168.708 324.427 161.64C334.179 160.015 343.591 156.774 352.276 152.051C390.052 131.506 437.092 140.65 464.421 173.85C470.705 181.483 478.217 188.013 486.65 193.173C523.33 215.616 538.932 260.926 523.845 301.194C520.376 310.451 518.477 320.223 518.225 330.106C517.129 373.093 485.69 409.26 443.274 416.328C433.522 417.953 424.109 421.194 415.425 425.917C377.649 446.461 330.608 437.317 303.279 404.118C296.996 396.485 289.483 389.954 281.05 384.795C244.37 362.352 228.768 317.042 243.855 276.774C247.324 267.516 249.224 257.745 249.475 247.862ZM324.569 162.495C282.563 169.495 251.427 205.312 250.342 247.884C250.088 257.863 248.17 267.73 244.667 277.078C229.726 316.957 245.177 361.829 281.502 384.055C290.018 389.265 297.604 395.86 303.948 403.567C331.013 436.446 377.599 445.501 415.01 425.155C423.78 420.386 433.284 417.113 443.131 415.473C485.138 408.473 516.273 372.656 517.358 330.084C517.613 320.105 519.531 310.238 523.033 300.889C537.974 261.011 522.524 216.138 486.198 193.912C477.683 188.702 470.097 182.108 463.752 174.401C436.687 141.522 390.101 132.466 352.69 152.812C343.92 157.582 334.416 160.854 324.569 162.495Z" fill="url(#paint57_linear)"/>
<path opacity="0.586207" fill-rule="evenodd" clip-rule="evenodd" d="M253.797 241.61C257.091 199.383 289.88 165.428 331.967 160.662C341.642 159.567 351.066 156.865 359.851 152.667C398.068 134.406 443.868 145.825 469.039 179.891C474.825 187.721 481.877 194.532 489.905 200.041C524.829 224.008 537.839 269.381 520.923 308.212C517.034 317.139 514.663 326.651 513.905 336.358C510.611 378.586 477.822 412.54 435.735 417.306C426.06 418.402 416.636 421.104 407.851 425.302C369.634 443.563 323.834 432.143 298.663 398.078C292.877 390.247 285.825 383.437 277.797 377.928C242.874 353.961 229.863 308.588 246.779 269.756C250.668 260.83 253.04 251.317 253.797 241.61ZM332.065 161.524C290.39 166.243 257.923 199.864 254.661 241.678C253.896 251.481 251.501 261.088 247.574 270.102C230.824 308.553 243.707 353.481 278.287 377.213C286.395 382.777 293.517 389.655 299.36 397.563C324.284 431.294 369.635 442.601 407.478 424.519C416.35 420.28 425.867 417.551 435.638 416.445C477.312 411.726 509.779 378.104 513.041 336.291C513.806 326.488 516.201 316.881 520.128 307.866C536.879 269.416 523.996 224.487 489.415 200.756C481.307 195.192 474.185 188.314 468.342 180.406C443.418 146.674 398.067 135.367 360.225 153.449C351.353 157.688 341.835 160.417 332.065 161.524Z" fill="url(#paint58_linear)"/>
<path opacity="0.62069" fill-rule="evenodd" clip-rule="evenodd" d="M258.397 235.696C263.813 194.339 297.809 162.637 339.443 160.119C349.013 159.541 358.418 157.369 367.273 153.695C405.798 137.706 450.25 151.296 473.247 186.094C478.533 194.092 485.116 201.152 492.726 206.983C525.835 232.352 536.291 277.644 517.654 314.959C513.371 323.536 510.549 332.767 509.304 342.273C503.888 383.63 469.893 415.332 428.258 417.849C418.688 418.428 409.283 420.6 400.428 424.274C361.904 440.263 317.452 426.673 294.454 391.875C289.168 383.877 282.585 376.817 274.975 370.986C241.866 345.617 231.41 300.325 250.047 263.01C254.33 254.433 257.152 245.202 258.397 235.696ZM339.496 160.985C298.276 163.477 264.619 194.863 259.257 235.809C257.999 245.41 255.149 254.734 250.822 263.397C232.371 300.341 242.723 345.182 275.502 370.298C283.188 376.188 289.838 383.318 295.177 391.397C317.946 425.848 361.955 439.303 400.096 423.474C409.04 419.762 418.54 417.569 428.205 416.984C469.426 414.492 503.083 383.106 508.444 342.16C509.702 332.559 512.552 323.235 516.879 314.572C535.33 277.628 524.978 232.787 492.199 207.671C484.513 201.781 477.863 194.65 472.524 186.572C449.755 152.121 405.746 138.666 367.605 154.495C358.661 158.207 349.161 160.4 339.496 160.985Z" fill="url(#paint59_linear)"/>
<path opacity="0.655172" fill-rule="evenodd" clip-rule="evenodd" d="M263.255 230.131C270.711 189.748 305.768 160.331 346.833 160.001C356.269 159.925 365.627 158.275 374.521 155.119C413.222 141.384 456.226 157.037 477.044 192.434C481.828 200.569 487.936 207.848 495.116 213.972C526.361 240.62 534.308 285.689 514.061 321.417C509.409 329.627 506.159 338.557 504.445 347.837C496.99 388.22 461.932 417.636 420.868 417.967C411.431 418.042 402.073 419.692 393.18 422.849C354.479 436.583 311.475 420.931 290.657 385.533C285.873 377.399 279.765 370.12 272.585 363.996C241.34 337.347 233.393 292.279 253.639 256.551C258.292 248.34 261.542 239.411 263.255 230.131ZM346.84 160.868C306.191 161.195 271.488 190.314 264.108 230.288C262.377 239.663 259.094 248.684 254.393 256.978C234.352 292.345 242.218 336.957 273.147 363.336C280.401 369.523 286.571 376.876 291.404 385.094C312.011 420.134 354.581 435.628 392.89 422.032C401.874 418.843 411.328 417.176 420.861 417.1C461.51 416.773 496.213 387.654 503.593 347.679C505.324 338.304 508.607 329.284 513.307 320.99C533.349 285.623 525.482 241.01 494.553 214.631C487.3 208.445 481.129 201.091 476.297 192.874C455.689 157.834 413.12 142.34 374.811 155.936C365.826 159.124 356.373 160.791 346.84 160.868Z" fill="url(#paint60_linear)"/>
<path opacity="0.689655" fill-rule="evenodd" clip-rule="evenodd" d="M268.346 224.918C277.755 185.608 313.73 158.499 354.111 160.29C363.389 160.702 372.671 159.562 381.573 156.918C420.322 145.411 461.786 163.012 480.425 198.878C484.708 207.119 490.336 214.587 497.077 220.976C526.416 248.779 531.906 293.488 510.164 327.564C505.169 335.393 501.515 344.001 499.353 353.033C489.944 392.344 453.97 419.452 413.589 417.661C404.311 417.25 395.029 418.39 386.126 421.033C347.378 432.54 305.914 414.94 287.274 379.073C282.991 370.833 277.364 363.364 270.623 356.976C241.283 329.172 235.794 284.463 257.535 250.388C262.531 242.558 266.184 233.95 268.346 224.918ZM354.072 161.156C314.106 159.383 278.502 186.214 269.189 225.12C267.005 234.246 263.313 242.943 258.266 250.854C236.748 284.579 242.181 328.829 271.219 356.347C278.03 362.801 283.716 370.347 288.043 378.674C306.491 414.171 347.529 431.591 385.879 420.203C394.875 417.531 404.253 416.38 413.627 416.796C453.593 418.568 489.198 391.738 498.51 352.832C500.695 343.706 504.386 335.008 509.434 327.098C530.952 293.372 525.518 249.123 496.481 221.605C489.67 215.15 483.983 207.604 479.656 199.278C461.208 163.78 420.17 146.36 381.82 157.749C372.825 160.42 363.447 161.572 354.072 161.156Z" fill="url(#paint61_linear)"/>
<path opacity="0.724138" fill-rule="evenodd" clip-rule="evenodd" d="M273.647 220.083C284.918 181.937 321.666 157.151 361.255 160.99C370.35 161.872 379.528 161.23 388.412 159.091C427.082 149.779 466.922 169.21 483.392 205.416C487.175 213.733 492.32 221.361 498.615 227.985C526.014 256.818 529.106 301.036 505.986 333.402C500.675 340.837 496.642 349.107 494.052 357.87C482.782 396.015 446.034 420.802 406.444 416.962C397.349 416.08 388.171 416.722 379.288 418.861C340.617 428.173 300.777 408.742 284.308 372.537C280.524 364.219 275.379 356.592 269.085 349.968C241.685 321.135 238.593 276.916 261.713 244.55C267.025 237.115 271.058 228.846 273.647 220.083ZM361.172 161.853C321.995 158.053 285.631 182.581 274.478 220.328C271.862 229.184 267.786 237.541 262.419 245.054C239.54 277.082 242.6 320.839 269.713 349.371C276.074 356.064 281.273 363.773 285.097 372.178C301.394 408.005 340.818 427.233 379.085 418.019C388.062 415.857 397.337 415.208 406.528 416.1C445.704 419.899 482.068 395.371 493.221 357.624C495.838 348.769 499.913 340.412 505.281 332.898C528.159 300.87 525.1 257.114 497.986 228.582C491.625 221.888 486.426 214.18 482.603 205.775C466.305 169.947 426.881 150.719 388.615 159.934C379.638 162.096 370.363 162.744 361.172 161.853Z" fill="url(#paint62_linear)"/>
<path opacity="0.758621" fill-rule="evenodd" clip-rule="evenodd" d="M279.132 215.623C292.168 178.728 329.547 156.268 368.244 162.079C377.132 163.413 386.18 163.256 395.016 161.612C433.486 154.454 471.626 175.595 485.942 212.013C489.231 220.377 493.892 228.135 499.733 234.965C525.167 264.702 525.928 308.303 501.548 338.91C495.948 345.94 491.56 353.855 488.566 362.329C475.53 399.224 438.151 421.683 399.454 415.873C390.566 414.538 381.518 414.696 372.682 416.34C334.212 423.498 296.072 402.357 281.756 365.939C278.467 357.575 273.806 349.817 267.965 342.987C242.531 313.25 241.77 269.649 266.15 239.042C271.75 232.012 276.137 224.097 279.132 215.623ZM368.115 162.936C329.829 157.187 292.847 179.408 279.949 215.911C276.923 224.477 272.488 232.477 266.828 239.582C242.707 269.864 243.46 313.002 268.623 342.424C274.528 349.327 279.239 357.168 282.562 365.622C296.727 401.653 334.461 422.57 372.523 415.488C381.454 413.827 390.6 413.667 399.583 415.016C437.869 420.765 474.851 398.544 487.749 362.04C490.775 353.475 495.21 345.475 500.87 338.37C524.991 308.088 524.238 264.95 499.075 235.528C493.17 228.625 488.459 220.784 485.136 212.33C470.971 176.299 433.237 155.382 395.175 162.464C386.244 164.125 377.098 164.285 368.115 162.936Z" fill="url(#paint63_linear)"/>
<path opacity="0.793103" fill-rule="evenodd" clip-rule="evenodd" d="M284.778 211.545C299.481 175.979 337.349 155.844 375.056 163.543C383.716 165.311 392.609 165.621 401.371 164.462C439.523 159.412 475.895 182.139 488.081 218.644C490.88 227.027 495.057 234.885 500.442 241.893C523.892 272.409 522.395 315.271 496.874 344.077C491.013 350.692 486.298 358.239 482.921 366.407C468.218 401.973 430.35 422.107 392.642 414.409C383.983 412.641 375.09 412.33 366.328 413.49C328.175 418.539 291.804 395.812 279.618 359.307C276.819 350.924 272.641 343.067 267.256 336.059C243.807 305.543 245.304 262.68 270.825 233.874C276.685 227.259 281.401 219.712 284.778 211.545ZM374.883 164.392C337.583 156.777 300.123 176.694 285.579 211.876C282.165 220.133 277.398 227.762 271.474 234.449C246.228 262.944 244.747 305.344 267.944 335.531C273.387 342.615 277.611 350.558 280.44 359.033C292.495 395.144 328.474 417.626 366.214 412.63C375.071 411.458 384.062 411.772 392.816 413.559C430.116 421.175 467.575 401.258 482.12 366.076C485.533 357.819 490.301 350.19 496.225 343.502C521.471 315.007 522.951 272.608 499.755 242.421C494.311 235.336 490.088 227.393 487.259 218.919C475.204 182.808 439.225 160.326 401.484 165.321C392.627 166.493 383.637 166.179 374.883 164.392Z" fill="url(#paint64_linear)"/>
<path opacity="0.827586" fill-rule="evenodd" clip-rule="evenodd" d="M290.558 207.854C306.825 173.689 345.043 155.867 381.672 165.367C390.082 167.548 398.796 168.31 407.457 167.623C445.179 164.628 479.722 188.815 489.809 225.286C492.125 233.66 495.822 241.588 500.748 248.745C522.203 279.915 518.527 321.924 491.986 348.895C485.892 355.088 480.875 362.254 477.14 370.099C460.873 404.264 422.654 422.085 386.026 412.586C377.616 410.404 368.901 409.642 360.24 410.33C322.519 413.325 287.976 389.137 277.888 352.666C275.572 344.293 271.875 336.364 266.949 329.207C245.495 298.037 249.17 256.028 275.711 229.057C281.805 222.864 286.823 215.698 290.558 207.854ZM381.454 166.206C345.228 156.81 307.429 174.436 291.341 208.226C287.564 216.158 282.491 223.403 276.329 229.665C250.079 256.34 246.444 297.888 267.663 328.716C272.644 335.952 276.382 343.969 278.724 352.435C288.7 388.506 322.864 412.428 360.172 409.466C368.929 408.77 377.74 409.541 386.244 411.747C422.47 421.142 460.269 403.516 476.357 369.726C480.133 361.794 485.207 354.549 491.368 348.287C517.618 321.612 521.253 280.065 500.034 249.236C495.054 242 491.315 233.984 488.974 225.517C478.997 189.447 444.833 165.525 407.526 168.487C398.769 169.182 389.957 168.411 381.454 166.206Z" fill="url(#paint65_linear)"/>
<path opacity="0.862069" fill-rule="evenodd" clip-rule="evenodd" d="M296.45 204.552C314.175 171.852 352.608 156.324 388.073 167.533C396.215 170.107 404.729 171.303 413.264 171.074C450.445 170.074 483.109 195.594 491.134 231.913C492.977 240.25 496.197 248.221 500.663 255.498C520.12 287.199 514.351 328.246 486.911 353.356C480.611 359.12 475.318 365.895 471.249 373.401C453.524 406.101 415.092 421.629 379.626 410.419C371.485 407.846 362.971 406.65 354.436 406.879C317.254 407.878 284.591 382.359 276.565 346.04C274.723 337.703 271.502 329.731 267.036 322.454C247.58 290.754 253.348 249.707 280.789 224.597C287.088 218.833 292.381 212.058 296.45 204.552ZM387.812 168.36C352.742 157.276 314.74 172.63 297.212 204.965C293.097 212.556 287.744 219.407 281.374 225.236C254.24 250.066 248.536 290.654 267.775 322.001C272.291 329.36 275.548 337.422 277.411 345.853C285.347 381.766 317.646 407.001 354.412 406.013C363.044 405.781 371.654 406.991 379.887 409.593C414.957 420.677 452.96 405.323 470.487 372.988C474.602 365.397 479.955 358.545 486.325 352.716C513.459 327.887 519.164 287.298 499.925 255.952C495.408 248.593 492.151 240.531 490.288 232.1C482.352 196.186 450.053 170.952 413.287 171.94C404.655 172.172 396.046 170.962 387.812 168.36Z" fill="url(#paint66_linear)"/>
<path opacity="0.896552" fill-rule="evenodd" clip-rule="evenodd" d="M302.428 201.639C321.503 170.462 360.016 157.201 394.242 170.025C402.098 172.968 410.389 174.58 418.775 174.793C455.313 175.725 486.053 202.447 492.061 238.5C493.44 246.774 496.19 254.761 500.197 262.13C517.66 294.239 509.888 334.222 481.669 357.451C475.192 362.782 469.651 369.157 465.273 376.313C446.197 407.49 407.685 420.751 373.458 407.927C365.603 404.984 357.311 403.372 348.926 403.158C312.388 402.227 281.647 375.504 275.64 339.452C274.261 331.177 271.511 323.191 267.503 315.821C250.041 283.713 257.813 243.73 286.031 220.501C292.508 215.169 298.049 208.794 302.428 201.639ZM393.938 170.836C360.101 158.159 322.026 171.269 303.167 202.091C298.739 209.329 293.133 215.777 286.582 221.17C258.684 244.135 251.001 283.664 268.264 315.407C272.318 322.861 275.1 330.94 276.495 339.309C282.434 374.952 312.825 401.371 348.948 402.292C357.43 402.508 365.817 404.138 373.762 407.115C407.6 419.793 445.674 406.683 464.533 375.86C468.962 368.623 474.567 362.175 481.118 356.782C509.016 333.817 516.7 294.288 499.436 262.544C495.382 255.09 492.601 247.012 491.206 238.642C485.267 202.999 454.875 176.581 418.753 175.66C410.27 175.444 401.884 173.813 393.938 170.836Z" fill="url(#paint67_linear)"/>
<path opacity="0.931035" fill-rule="evenodd" clip-rule="evenodd" d="M308.465 199.117C328.781 169.513 367.244 158.484 400.161 172.824C407.714 176.114 415.763 178.121 423.977 178.762C459.773 181.554 488.556 209.349 492.596 245.026C493.523 253.213 495.809 261.187 499.361 268.621C514.841 301.017 505.161 339.841 476.284 361.178C469.658 366.074 463.895 372.042 459.233 378.835C438.917 408.439 400.455 419.468 367.538 405.128C359.984 401.838 351.935 399.831 343.721 399.19C307.925 396.398 279.143 368.603 275.103 332.926C274.176 324.74 271.889 316.765 268.337 309.331C252.857 276.935 262.537 238.111 291.414 216.774C298.04 211.878 303.803 205.91 308.465 199.117ZM399.814 173.618C367.278 159.445 329.261 170.346 309.18 199.608C304.463 206.48 298.633 212.518 291.929 217.471C263.386 238.561 253.818 276.936 269.119 308.958C272.713 316.478 275.026 324.546 275.964 332.829C279.957 368.092 308.407 395.566 343.789 398.326C352.099 398.974 360.242 401.005 367.884 404.334C400.42 418.507 438.437 407.606 458.519 378.345C463.235 371.472 469.065 365.435 475.769 360.481C504.312 339.391 513.88 301.016 498.579 268.995C494.986 261.474 492.672 253.406 491.734 245.124C487.741 209.86 459.292 182.386 423.91 179.626C415.6 178.978 407.456 176.947 399.814 173.618Z" fill="url(#paint68_linear)"/>
<path opacity="0.965517" fill-rule="evenodd" clip-rule="evenodd" d="M314.541 196.984C335.986 168.996 374.273 160.157 405.817 175.911C413.053 179.525 420.843 181.907 428.863 182.957C463.824 187.535 490.622 216.273 492.751 251.468C493.239 259.543 495.071 267.479 498.172 274.95C511.688 307.516 500.199 345.093 470.783 364.534C464.035 368.994 458.078 374.549 453.158 380.97C431.713 408.958 393.426 417.797 361.882 402.042C354.645 398.428 346.856 396.047 338.836 394.996C303.875 390.418 277.076 361.681 274.948 326.485C274.46 318.411 272.628 310.475 269.527 303.004C256.011 270.437 267.499 232.861 296.915 213.42C303.664 208.96 309.621 203.405 314.541 196.984ZM405.429 176.687C374.257 161.118 336.421 169.853 315.229 197.511C310.25 204.009 304.222 209.63 297.393 214.143C268.324 233.355 256.971 270.489 270.327 302.671C273.465 310.232 275.319 318.262 275.813 326.433C277.917 361.214 304.399 389.613 338.948 394.137C347.064 395.2 354.946 397.609 362.269 401.267C393.442 416.836 431.277 408.101 452.47 380.442C457.449 373.945 463.477 368.324 470.305 363.811C499.375 344.599 510.728 307.465 497.371 275.282C494.234 267.722 492.38 259.691 491.886 251.521C489.782 216.74 463.3 188.341 428.751 183.817C420.634 182.754 412.752 180.344 405.429 176.687Z" fill="url(#paint69_linear)"/>
<path fill-rule="evenodd" clip-rule="evenodd" d="M320.629 195.235C343.091 168.898 381.08 162.2 411.195 179.266C418.102 183.18 425.615 185.914 433.422 187.356C467.461 193.64 492.256 223.19 492.535 257.803C492.598 265.742 493.987 273.615 496.642 281.097C508.219 313.718 495.026 349.967 465.189 367.514C458.345 371.539 452.221 376.678 447.069 382.718C424.607 409.055 386.619 415.753 356.503 398.688C349.596 394.773 342.084 392.039 334.277 390.598C300.237 384.313 275.442 354.763 275.164 320.15C275.1 312.211 273.712 304.338 271.056 296.856C259.479 264.235 272.673 227.987 302.51 210.439C309.353 206.414 315.477 201.276 320.629 195.235ZM410.768 180.02C381.014 163.159 343.481 169.777 321.289 195.797C316.074 201.911 309.876 207.112 302.949 211.186C273.47 228.523 260.435 264.336 271.873 296.566C274.561 304.139 275.966 312.107 276.031 320.143C276.305 354.341 300.803 383.536 334.434 389.745C342.336 391.204 349.939 393.972 356.931 397.933C386.684 414.794 424.217 408.176 446.41 382.156C451.624 376.042 457.823 370.841 464.749 366.767C494.228 349.43 507.263 313.617 495.825 281.387C493.138 273.814 491.732 265.846 491.668 257.81C491.393 223.612 466.895 194.417 433.265 188.208C425.362 186.749 417.759 183.982 410.768 180.02Z" fill="url(#paint70_linear)"/>
<g clip-path="url(#clip1)">
<path d="M357.174 282.465C356.446 281.649 355.549 281.24 354.482 281.24H332.654C332.46 281.24 332.302 281.179 332.182 281.059C332.061 280.941 332 280.807 332 280.664V266.254C332 266.111 332.061 265.979 332.182 265.858C332.302 265.738 332.46 265.678 332.654 265.678H355.719C361.539 265.678 366.561 268.009 370.781 272.667L376.383 279.366L365.47 292.407L357.174 282.465ZM397.484 272.595C401.705 267.984 406.749 265.678 412.618 265.678H435.611C435.805 265.678 435.95 265.727 436.048 265.822C436.144 265.919 436.193 266.062 436.193 266.254V280.664C436.193 280.807 436.144 280.941 436.048 281.059C435.95 281.179 435.805 281.24 435.611 281.24H413.784C412.716 281.24 411.819 281.649 411.091 282.465L395.011 301.629L411.163 320.937C411.892 321.707 412.763 322.091 413.784 322.091H435.611C435.805 322.091 435.95 322.151 436.048 322.271C436.144 322.392 436.193 322.549 436.193 322.739V337.148C436.193 337.292 436.144 337.426 436.048 337.544C435.95 337.664 435.805 337.724 435.611 337.724H412.618C406.749 337.724 401.728 335.395 397.557 330.736L384.17 314.742L370.781 330.736C366.561 335.395 361.516 337.724 355.647 337.724H332.654C332.46 337.724 332.313 337.664 332.217 337.544C332.119 337.424 332.072 337.269 332.072 337.075V322.665C332.072 322.522 332.119 322.39 332.217 322.27C332.313 322.149 332.46 322.089 332.654 322.089H354.482C355.5 322.089 356.397 321.682 357.174 320.864L372.962 301.988L397.484 272.595Z" fill="url(#paint71_linear)"/>
</g>
<path d="M164 39.3205H604.339V242.154H164V39.3205Z" fill="url(#paint72_radial)"/>
</g>
<defs>
<filter id="filter0_f" x="107.691" y="-217.1" width="1043.55" height="916.344" filterUnits="userSpaceOnUse" colorInterpolationFilters="sRGB">
<feFlood floodOpacity="0" result="BackgroundImageFix"/>
<feBlend mode="normal" in="SourceGraphic" in2="BackgroundImageFix" result="shape"/>
<feGaussianBlur stdDeviation="150" result="effect1_foregroundBlur"/>
</filter>
<filter id="filter1_f" x="-332.046" y="3.88818" width="1043.47" height="916.059" filterUnits="userSpaceOnUse" colorInterpolationFilters="sRGB">
<feFlood floodOpacity="0" result="BackgroundImageFix"/>
<feBlend mode="normal" in="SourceGraphic" in2="BackgroundImageFix" result="shape"/>
<feGaussianBlur stdDeviation="150" result="effect1_foregroundBlur"/>
</filter>
<linearGradient id="paint0_linear" x1="498.744" y1="544.067" x2="498.744" y2="390.259" gradientUnits="userSpaceOnUse">
<stop stopColor="#ED1EFF"/>
<stop offset="1" stopColor="#00D1FF"/>
</linearGradient>
<linearGradient id="paint1_linear" x1="632.102" y1="480.45" x2="632.102" y2="390.259" gradientUnits="userSpaceOnUse">
<stop stopColor="#ED1EFF"/>
<stop offset="1" stopColor="#00D1FF"/>
</linearGradient>
<linearGradient id="paint2_linear" x1="384.073" y1="544.067" x2="384.073" y2="390.259" gradientUnits="userSpaceOnUse">
<stop stopColor="#ED1EFF"/>
<stop offset="1" stopColor="#00D1FF"/>
</linearGradient>
<linearGradient id="paint3_linear" x1="707.118" y1="407.867" x2="707.118" y2="390.259" gradientUnits="userSpaceOnUse">
<stop stopColor="#ED1EFF"/>
<stop offset="1" stopColor="#00D1FF"/>
</linearGradient>
<linearGradient id="paint4_linear" x1="725.872" y1="401.064" x2="725.872" y2="390.259" gradientUnits="userSpaceOnUse">
<stop stopColor="#ED1EFF"/>
<stop offset="1" stopColor="#00D1FF"/>
</linearGradient>
<linearGradient id="paint5_linear" x1="669.608" y1="429.636" x2="669.608" y2="390.259" gradientUnits="userSpaceOnUse">
<stop stopColor="#ED1EFF"/>
<stop offset="1" stopColor="#00D1FF"/>
</linearGradient>
<linearGradient id="paint6_linear" x1="650.857" y1="448.687" x2="650.857" y2="390.259" gradientUnits="userSpaceOnUse">
<stop stopColor="#ED1EFF"/>
<stop offset="1" stopColor="#00D1FF"/>
</linearGradient>
<linearGradient id="paint7_linear" x1="688.363" y1="416.938" x2="688.363" y2="390.259" gradientUnits="userSpaceOnUse">
<stop stopColor="#ED1EFF"/>
<stop offset="1" stopColor="#00D1FF"/>
</linearGradient>
<linearGradient id="paint8_linear" x1="61.3734" y1="407.839" x2="61.3734" y2="390.259" gradientUnits="userSpaceOnUse">
<stop stopColor="#ED1EFF"/>
<stop offset="1" stopColor="#00D1FF"/>
</linearGradient>
<linearGradient id="paint9_linear" x1="744.625" y1="395.774" x2="744.625" y2="390.259" gradientUnits="userSpaceOnUse">
<stop stopColor="#ED1EFF"/>
<stop offset="1" stopColor="#00D1FF"/>
</linearGradient>
<linearGradient id="paint10_linear" x1="763.383" y1="391.543" x2="763.383" y2="390.259" gradientUnits="userSpaceOnUse">
<stop stopColor="#ED1EFF"/>
<stop offset="1" stopColor="#00D1FF"/>
</linearGradient>
<linearGradient id="paint11_linear" x1="80.1272" y1="416.899" x2="80.1272" y2="390.259" gradientUnits="userSpaceOnUse">
<stop stopColor="#ED1EFF"/>
<stop offset="1" stopColor="#00D1FF"/>
</linearGradient>
<linearGradient id="paint12_linear" x1="117.636" y1="448.602" x2="117.636" y2="390.259" gradientUnits="userSpaceOnUse">
<stop stopColor="#ED1EFF"/>
<stop offset="1" stopColor="#00D1FF"/>
</linearGradient>
<linearGradient id="paint13_linear" x1="269.401" y1="544.067" x2="269.401" y2="390.259" gradientUnits="userSpaceOnUse">
<stop stopColor="#ED1EFF"/>
<stop offset="1" stopColor="#00D1FF"/>
</linearGradient>
<linearGradient id="paint14_linear" x1="42.6182" y1="401.044" x2="42.6182" y2="390.259" gradientUnits="userSpaceOnUse">
<stop stopColor="#ED1EFF"/>
<stop offset="1" stopColor="#00D1FF"/>
</linearGradient>
<linearGradient id="paint15_linear" x1="98.8814" y1="429.58" x2="98.8814" y2="390.259" gradientUnits="userSpaceOnUse">
<stop stopColor="#ED1EFF"/>
<stop offset="1" stopColor="#00D1FF"/>
</linearGradient>
<linearGradient id="paint16_linear" x1="136.391" y1="480.297" x2="136.391" y2="390.259" gradientUnits="userSpaceOnUse">
<stop stopColor="#ED1EFF"/>
<stop offset="1" stopColor="#00D1FF"/>
</linearGradient>
<linearGradient id="paint17_linear" x1="5.11152" y1="391.53" x2="5.11152" y2="390.259" gradientUnits="userSpaceOnUse">
<stop stopColor="#ED1EFF"/>
<stop offset="1" stopColor="#00D1FF"/>
</linearGradient>
<linearGradient id="paint18_linear" x1="23.8657" y1="395.758" x2="23.8657" y2="390.259" gradientUnits="userSpaceOnUse">
<stop stopColor="#ED1EFF"/>
<stop offset="1" stopColor="#00D1FF"/>
</linearGradient>
<linearGradient id="paint19_linear" x1="154.73" y1="544.067" x2="154.73" y2="390.259" gradientUnits="userSpaceOnUse">
<stop stopColor="#ED1EFF"/>
<stop offset="1" stopColor="#00D1FF"/>
</linearGradient>
<linearGradient id="paint20_linear" x1="613.416" y1="544.067" x2="613.416" y2="390.259" gradientUnits="userSpaceOnUse">
<stop stopColor="#ED1EFF"/>
<stop offset="1" stopColor="#00D1FF"/>
</linearGradient>
<linearGradient id="paint21_linear" x1="384.28" y1="479.694" x2="384.28" y2="479.222" gradientUnits="userSpaceOnUse">
<stop stopColor="#ED1EFF"/>
<stop offset="1" stopColor="#00D1FF"/>
</linearGradient>
<linearGradient id="paint22_linear" x1="384.28" y1="418.036" x2="384.28" y2="417.564" gradientUnits="userSpaceOnUse">
<stop stopColor="#ED1EFF"/>
<stop offset="1" stopColor="#00D1FF"/>
</linearGradient>
<linearGradient id="paint23_linear" x1="384.28" y1="438.903" x2="384.28" y2="438.431" gradientUnits="userSpaceOnUse">
<stop stopColor="#ED1EFF"/>
<stop offset="1" stopColor="#00D1FF"/>
</linearGradient>
<linearGradient id="paint24_linear" x1="384.28" y1="462.364" x2="384.28" y2="461.892" gradientUnits="userSpaceOnUse">
<stop stopColor="#ED1EFF"/>
<stop offset="1" stopColor="#00D1FF"/>
</linearGradient>
<linearGradient id="paint25_linear" x1="384.28" y1="503.585" x2="384.28" y2="503.114" gradientUnits="userSpaceOnUse">
<stop stopColor="#ED1EFF"/>
<stop offset="1" stopColor="#00D1FF"/>
</linearGradient>
<linearGradient id="paint26_linear" x1="384.28" y1="449.216" x2="384.28" y2="448.744" gradientUnits="userSpaceOnUse">
<stop stopColor="#ED1EFF"/>
<stop offset="1" stopColor="#00D1FF"/>
</linearGradient>
<linearGradient id="paint27_linear" x1="384.28" y1="430.594" x2="384.28" y2="430.122" gradientUnits="userSpaceOnUse">
<stop stopColor="#ED1EFF"/>
<stop offset="1" stopColor="#00D1FF"/>
</linearGradient>
<linearGradient id="paint28_linear" x1="384.28" y1="396.845" x2="384.28" y2="396.374" gradientUnits="userSpaceOnUse">
<stop stopColor="#ED1EFF"/>
<stop offset="1" stopColor="#00D1FF"/>
</linearGradient>
<linearGradient id="paint29_linear" x1="384.28" y1="402.174" x2="384.28" y2="401.702" gradientUnits="userSpaceOnUse">
<stop stopColor="#ED1EFF"/>
<stop offset="1" stopColor="#00D1FF"/>
</linearGradient>
<linearGradient id="paint30_linear" x1="384.28" y1="405.362" x2="384.28" y2="404.89" gradientUnits="userSpaceOnUse">
<stop stopColor="#ED1EFF"/>
<stop offset="1" stopColor="#00D1FF"/>
</linearGradient>
<linearGradient id="paint31_linear" x1="384.28" y1="399.354" x2="384.28" y2="398.883" gradientUnits="userSpaceOnUse">
<stop stopColor="#ED1EFF"/>
<stop offset="1" stopColor="#00D1FF"/>
</linearGradient>
<linearGradient id="paint32_linear" x1="384.28" y1="392.567" x2="384.28" y2="392.095" gradientUnits="userSpaceOnUse">
<stop stopColor="#ED1EFF"/>
<stop offset="1" stopColor="#00D1FF"/>
</linearGradient>
<linearGradient id="paint33_linear" x1="384.28" y1="394.595" x2="384.28" y2="394.123" gradientUnits="userSpaceOnUse">
<stop stopColor="#ED1EFF"/>
<stop offset="1" stopColor="#00D1FF"/>
</linearGradient>
<linearGradient id="paint34_linear" x1="384.28" y1="390.731" x2="384.28" y2="390.259" gradientUnits="userSpaceOnUse">
<stop stopColor="#ED1EFF"/>
<stop offset="1" stopColor="#00D1FF"/>
</linearGradient>
<linearGradient id="paint35_linear" x1="384.28" y1="413.175" x2="384.28" y2="412.703" gradientUnits="userSpaceOnUse">
<stop stopColor="#ED1EFF"/>
<stop offset="1" stopColor="#00D1FF"/>
</linearGradient>
<linearGradient id="paint36_linear" x1="384.28" y1="423.758" x2="384.28" y2="423.286" gradientUnits="userSpaceOnUse">
<stop stopColor="#ED1EFF"/>
<stop offset="1" stopColor="#00D1FF"/>
</linearGradient>
<linearGradient id="paint37_linear" x1="384.28" y1="408.994" x2="384.28" y2="408.523" gradientUnits="userSpaceOnUse">
<stop stopColor="#ED1EFF"/>
<stop offset="1" stopColor="#00D1FF"/>
</linearGradient>
<linearGradient id="paint38_linear" x1="384.279" y1="543.166" x2="384.279" y2="544.109" gradientUnits="userSpaceOnUse">
<stop stopColor="#ED1EFF"/>
<stop offset="1" stopColor="#00D1FF"/>
</linearGradient>
<linearGradient id="paint39_linear" x1="575.679" y1="544.124" x2="575.679" y2="588" gradientUnits="userSpaceOnUse">
<stop stopColor="#ED1EFF"/>
<stop offset="0.643466" stopColor="#00D1FF"/>
<stop offset="1" stopColor="#0C0628"/>
</linearGradient>
<linearGradient id="paint40_linear" x1="384.556" y1="544.124" x2="384.556" y2="588" gradientUnits="userSpaceOnUse">
<stop stopColor="#ED1EFF"/>
<stop offset="0.643466" stopColor="#00D1FF"/>
<stop offset="1" stopColor="#0C0628"/>
</linearGradient>
<linearGradient id="paint41_linear" x1="192.367" y1="544.124" x2="192.367" y2="588" gradientUnits="userSpaceOnUse">
<stop stopColor="#ED1EFF"/>
<stop offset="0.643466" stopColor="#00D1FF"/>
<stop offset="1" stopColor="#0C0628"/>
</linearGradient>
<linearGradient id="paint42_linear" x1="201.794" y1="301.715" x2="565.908" y2="276.253" gradientUnits="userSpaceOnUse">
<stop stopColor="#ED1EFF"/>
<stop offset="1" stopColor="#00D1FF"/>
</linearGradient>
<linearGradient id="paint43_linear" x1="203.615" y1="292.13" x2="564.087" y2="285.838" gradientUnits="userSpaceOnUse">
<stop stopColor="#ED1EFF"/>
<stop offset="1" stopColor="#00D1FF"/>
</linearGradient>
<linearGradient id="paint44_linear" x1="205.935" y1="282.771" x2="561.768" y2="295.197" gradientUnits="userSpaceOnUse">
<stop stopColor="#ED1EFF"/>
<stop offset="1" stopColor="#00D1FF"/>
</linearGradient>
<linearGradient id="paint45_linear" x1="208.734" y1="273.663" x2="558.969" y2="304.305" gradientUnits="userSpaceOnUse">
<stop stopColor="#ED1EFF"/>
<stop offset="1" stopColor="#00D1FF"/>
</linearGradient>
<linearGradient id="paint46_linear" x1="211.992" y1="264.83" x2="555.709" y2="313.137" gradientUnits="userSpaceOnUse">
<stop stopColor="#ED1EFF"/>
<stop offset="1" stopColor="#00D1FF"/>
</linearGradient>
<linearGradient id="paint47_linear" x1="215.689" y1="256.296" x2="552.012" y2="321.671" gradientUnits="userSpaceOnUse">
<stop stopColor="#ED1EFF"/>
<stop offset="1" stopColor="#00D1FF"/>
</linearGradient>
<linearGradient id="paint48_linear" x1="219.802" y1="248.082" x2="547.899" y2="329.885" gradientUnits="userSpaceOnUse">
<stop stopColor="#ED1EFF"/>
<stop offset="1" stopColor="#00D1FF"/>
</linearGradient>
<linearGradient id="paint49_linear" x1="224.309" y1="240.207" x2="543.394" y2="337.761" gradientUnits="userSpaceOnUse">
<stop stopColor="#ED1EFF"/>
<stop offset="1" stopColor="#00D1FF"/>
</linearGradient>
<linearGradient id="paint50_linear" x1="229.183" y1="232.69" x2="538.518" y2="345.278" gradientUnits="userSpaceOnUse">
<stop stopColor="#ED1EFF"/>
<stop offset="1" stopColor="#00D1FF"/>
</linearGradient>
<linearGradient id="paint51_linear" x1="234.402" y1="225.547" x2="533.299" y2="352.421" gradientUnits="userSpaceOnUse">
<stop stopColor="#ED1EFF"/>
<stop offset="1" stopColor="#00D1FF"/>
</linearGradient>
<linearGradient id="paint52_linear" x1="239.939" y1="218.794" x2="527.762" y2="359.174" gradientUnits="userSpaceOnUse">
<stop stopColor="#ED1EFF"/>
<stop offset="1" stopColor="#00D1FF"/>
</linearGradient>
<linearGradient id="paint53_linear" x1="245.768" y1="212.444" x2="521.934" y2="365.525" gradientUnits="userSpaceOnUse">
<stop stopColor="#ED1EFF"/>
<stop offset="1" stopColor="#00D1FF"/>
</linearGradient>
<linearGradient id="paint54_linear" x1="251.861" y1="206.508" x2="515.841" y2="371.461" gradientUnits="userSpaceOnUse">
<stop stopColor="#ED1EFF"/>
<stop offset="1" stopColor="#00D1FF"/>
</linearGradient>
<linearGradient id="paint55_linear" x1="258.192" y1="200.997" x2="509.51" y2="376.972" gradientUnits="userSpaceOnUse">
<stop stopColor="#ED1EFF"/>
<stop offset="1" stopColor="#00D1FF"/>
</linearGradient>
<linearGradient id="paint56_linear" x1="264.734" y1="195.92" x2="502.968" y2="382.049" gradientUnits="userSpaceOnUse">
<stop stopColor="#ED1EFF"/>
<stop offset="1" stopColor="#00D1FF"/>
</linearGradient>
<linearGradient id="paint57_linear" x1="271.456" y1="191.281" x2="496.244" y2="386.687" gradientUnits="userSpaceOnUse">
<stop stopColor="#ED1EFF"/>
<stop offset="1" stopColor="#00D1FF"/>
</linearGradient>
<linearGradient id="paint58_linear" x1="278.335" y1="187.088" x2="489.368" y2="390.88" gradientUnits="userSpaceOnUse">
<stop stopColor="#ED1EFF"/>
<stop offset="1" stopColor="#00D1FF"/>
</linearGradient>
<linearGradient id="paint59_linear" x1="285.338" y1="183.343" x2="482.363" y2="394.626" gradientUnits="userSpaceOnUse">
<stop stopColor="#ED1EFF"/>
<stop offset="1" stopColor="#00D1FF"/>
</linearGradient>
<linearGradient id="paint60_linear" x1="292.441" y1="180.046" x2="475.26" y2="397.922" gradientUnits="userSpaceOnUse">
<stop stopColor="#ED1EFF"/>
<stop offset="1" stopColor="#00D1FF"/>
</linearGradient>
<linearGradient id="paint61_linear" x1="299.614" y1="177.191" x2="468.086" y2="400.76" gradientUnits="userSpaceOnUse">
<stop stopColor="#ED1EFF"/>
<stop offset="1" stopColor="#00D1FF"/>
</linearGradient>
<linearGradient id="paint62_linear" x1="306.832" y1="174.792" x2="460.868" y2="403.16" gradientUnits="userSpaceOnUse">
<stop stopColor="#ED1EFF"/>
<stop offset="1" stopColor="#00D1FF"/>
</linearGradient>
<linearGradient id="paint63_linear" x1="314.065" y1="172.836" x2="453.633" y2="405.116" gradientUnits="userSpaceOnUse">
<stop stopColor="#ED1EFF"/>
<stop offset="1" stopColor="#00D1FF"/>
</linearGradient>
<linearGradient id="paint64_linear" x1="321.29" y1="171.32" x2="446.408" y2="406.632" gradientUnits="userSpaceOnUse">
<stop stopColor="#ED1EFF"/>
<stop offset="1" stopColor="#00D1FF"/>
</linearGradient>
<linearGradient id="paint65_linear" x1="328.479" y1="170.236" x2="439.218" y2="407.716" gradientUnits="userSpaceOnUse">
<stop stopColor="#ED1EFF"/>
<stop offset="1" stopColor="#00D1FF"/>
</linearGradient>
<linearGradient id="paint66_linear" x1="335.609" y1="169.577" x2="432.09" y2="408.376" gradientUnits="userSpaceOnUse">
<stop stopColor="#ED1EFF"/>
<stop offset="1" stopColor="#00D1FF"/>
</linearGradient>
<linearGradient id="paint67_linear" x1="342.653" y1="169.332" x2="425.047" y2="408.62" gradientUnits="userSpaceOnUse">
<stop stopColor="#ED1EFF"/>
<stop offset="1" stopColor="#00D1FF"/>
</linearGradient>
<linearGradient id="paint68_linear" x1="349.588" y1="169.492" x2="418.111" y2="408.461" gradientUnits="userSpaceOnUse">
<stop stopColor="#ED1EFF"/>
<stop offset="1" stopColor="#00D1FF"/>
</linearGradient>
<linearGradient id="paint69_linear" x1="356.392" y1="170.044" x2="411.307" y2="407.909" gradientUnits="userSpaceOnUse">
<stop stopColor="#ED1EFF"/>
<stop offset="1" stopColor="#00D1FF"/>
</linearGradient>
<linearGradient id="paint70_linear" x1="363.042" y1="170.974" x2="404.656" y2="406.979" gradientUnits="userSpaceOnUse">
<stop stopColor="#ED1EFF"/>
<stop offset="1" stopColor="#00D1FF"/>
</linearGradient>
<linearGradient id="paint71_linear" x1="384.096" y1="265.678" x2="384.313" y2="337.726" gradientUnits="userSpaceOnUse">
<stop stopColor="#00D1FF"/>
<stop offset="1" stopColor="#110A36"/>
</linearGradient>
<radialGradient id="paint72_radial" cx="0" cy="0" r="1" gradientUnits="userSpaceOnUse" gradientTransform="translate(384.17 136.403) rotate(90) scale(105.751 229.579)">
<stop stopColor="#140635"/>
<stop offset="1" stopColor="#170637" stop-opacity="0"/>
</radialGradient>
<clipPath id="clip0">
<rect width="768" height="774" fill="white"/>
</clipPath>
<clipPath id="clip1">
<rect width="104.193" height="72.0481" fill="white" transform="translate(332 265.678)"/>
</clipPath>
</defs>
</svg>
