<svg width="1440" height="826" viewBox="0 0 1440 826" fill="none" xmlns="http://www.w3.org/2000/svg">
<g clip-path="url(#clip0_1561:70252)">
<path d="M1440 826.165L0 826.165L1.76594e-05 624.165L1440 624.165L1440 826.165Z" fill="url(#paint0_linear_1561:70252)"/>
<path fill-rule="evenodd" clip-rule="evenodd" d="M1080 625.032C1080.21 624.908 1080.22 624.694 1080.04 624.554L790.68 404.503C790.496 404.363 790.18 404.351 789.974 404.475C789.768 404.6 789.75 404.814 789.933 404.953L1079.29 625.004C1079.48 625.144 1079.79 625.156 1080 625.032Z" fill="url(#paint1_linear_1561:70252)"/>
<path fill-rule="evenodd" clip-rule="evenodd" d="M1440.22 533.601C1440.31 533.426 1440.18 533.231 1439.92 533.165L931.392 404.411C931.133 404.346 930.845 404.434 930.749 404.61C930.652 404.785 930.783 404.98 931.042 405.045L1439.57 533.799C1439.83 533.865 1440.12 533.776 1440.22 533.601Z" fill="url(#paint2_linear_1561:70252)"/>
<path fill-rule="evenodd" clip-rule="evenodd" d="M719.329 625.117C719.605 625.117 719.83 624.966 719.83 624.779L720.354 404.728C720.354 404.541 720.131 404.389 719.855 404.389C719.579 404.389 719.354 404.54 719.354 404.727L718.83 624.778C718.83 624.965 719.053 625.117 719.329 625.117Z" fill="url(#paint3_linear_1561:70252)"/>
<path fill-rule="evenodd" clip-rule="evenodd" d="M1440.24 429.373C1440.28 429.189 1440.1 429.015 1439.83 428.986L1213.11 404.394C1212.84 404.364 1212.58 404.49 1212.54 404.675C1212.49 404.859 1212.68 405.033 1212.95 405.062L1439.67 429.654C1439.94 429.684 1440.2 429.558 1440.24 429.373Z" fill="url(#paint4_linear_1561:70252)"/>
<path fill-rule="evenodd" clip-rule="evenodd" d="M1440.24 419.604C1440.28 419.419 1440.09 419.248 1439.82 419.222L1283.55 404.393C1283.28 404.367 1283.03 404.496 1282.99 404.681C1282.95 404.866 1283.14 405.037 1283.41 405.063L1439.68 419.893C1439.95 419.919 1440.2 419.79 1440.24 419.604Z" fill="url(#paint5_linear_1561:70252)"/>
<path fill-rule="evenodd" clip-rule="evenodd" d="M1440.24 460.634C1440.3 460.452 1440.13 460.271 1439.86 460.23L1072.23 404.398C1071.96 404.357 1071.69 404.472 1071.63 404.654C1071.57 404.837 1071.74 405.018 1072.01 405.059L1439.64 460.89C1439.91 460.931 1440.18 460.817 1440.24 460.634Z" fill="url(#paint6_linear_1561:70252)"/>
<path fill-rule="evenodd" clip-rule="evenodd" d="M1440.23 487.992C1440.3 487.812 1440.15 487.625 1439.88 487.574L1001.81 404.402C1001.54 404.351 1001.27 404.456 1001.19 404.636C1001.12 404.816 1001.27 405.003 1001.54 405.054L1439.61 488.226C1439.88 488.277 1440.15 488.172 1440.23 487.992Z" fill="url(#paint7_linear_1561:70252)"/>
<path fill-rule="evenodd" clip-rule="evenodd" d="M1440.24 442.399C1440.29 442.216 1440.11 442.039 1439.84 442.004L1142.67 404.395C1142.39 404.361 1142.13 404.482 1142.08 404.666C1142.03 404.85 1142.21 405.027 1142.48 405.061L1439.65 442.67C1439.93 442.704 1440.19 442.583 1440.24 442.399Z" fill="url(#paint8_linear_1561:70252)"/>
<path fill-rule="evenodd" clip-rule="evenodd" d="M-0.277816 429.333C-0.234155 429.517 0.0222817 429.643 0.294951 429.613L226.754 405.062C227.027 405.033 227.212 404.859 227.169 404.674C227.125 404.49 226.869 404.364 226.596 404.394L0.136838 428.945C-0.13583 428.974 -0.321478 429.148 -0.277816 429.333Z" fill="url(#paint9_linear_1561:70252)"/>
<path fill-rule="evenodd" clip-rule="evenodd" d="M1440.24 412.008C1440.28 411.822 1440.08 411.653 1439.81 411.63L1354 404.392C1353.73 404.369 1353.48 404.501 1353.44 404.686C1353.41 404.872 1353.6 405.041 1353.88 405.064L1439.69 412.302C1439.96 412.325 1440.21 412.194 1440.24 412.008Z" fill="url(#paint10_linear_1561:70252)"/>
<path fill-rule="evenodd" clip-rule="evenodd" d="M1440.25 405.931C1440.28 405.745 1440.08 405.578 1439.8 405.557L1424.45 404.392C1424.18 404.371 1423.93 404.505 1423.9 404.691C1423.87 404.876 1424.06 405.044 1424.34 405.065L1439.69 406.23C1439.97 406.25 1440.22 406.117 1440.25 405.931Z" fill="url(#paint11_linear_1561:70252)"/>
<path fill-rule="evenodd" clip-rule="evenodd" d="M-0.276564 442.343C-0.225856 442.527 0.0353019 442.648 0.306749 442.614L297.222 405.061C297.494 405.026 297.673 404.85 297.622 404.666C297.571 404.482 297.31 404.361 297.039 404.395L0.123118 441.948C-0.148329 441.983 -0.327273 442.159 -0.276564 442.343Z" fill="url(#paint12_linear_1561:70252)"/>
<path fill-rule="evenodd" clip-rule="evenodd" d="M-0.266489 487.87C-0.191991 488.05 0.0839596 488.155 0.349863 488.105L438.174 405.054C438.44 405.003 438.595 404.817 438.521 404.637C438.446 404.457 438.17 404.352 437.905 404.402L0.0800794 487.453C-0.185824 487.503 -0.340988 487.69 -0.266489 487.87Z" fill="url(#paint13_linear_1561:70252)"/>
<path fill-rule="evenodd" clip-rule="evenodd" d="M358.665 625.031C358.871 625.156 359.187 625.144 359.371 625.004L649.771 404.953C649.955 404.814 649.937 404.6 649.731 404.476C649.525 404.351 649.209 404.363 649.025 404.502L358.625 624.553C358.441 624.693 358.459 624.907 358.665 625.031Z" fill="url(#paint14_linear_1561:70252)"/>
<path fill-rule="evenodd" clip-rule="evenodd" d="M-0.280257 419.576C-0.241936 419.761 0.0108204 419.89 0.284291 419.864L156.289 405.063C156.562 405.037 156.753 404.866 156.715 404.681C156.676 404.496 156.424 404.367 156.15 404.393L0.14552 419.193C-0.12795 419.219 -0.318577 419.39 -0.280257 419.576Z" fill="url(#paint15_linear_1561:70252)"/>
<path fill-rule="evenodd" clip-rule="evenodd" d="M-0.272942 460.554C-0.212543 460.737 0.0548573 460.851 0.324313 460.811L367.694 405.058C367.964 405.017 368.133 404.836 368.073 404.654C368.013 404.472 367.745 404.357 367.476 404.398L0.10559 460.15C-0.163866 460.191 -0.333341 460.372 -0.272942 460.554Z" fill="url(#paint16_linear_1561:70252)"/>
<path fill-rule="evenodd" clip-rule="evenodd" d="M-0.252438 533.381C-0.155816 533.556 0.132218 533.645 0.390905 533.58L508.67 405.045C508.928 404.98 509.06 404.785 508.963 404.61C508.867 404.434 508.579 404.346 508.32 404.411L0.041007 532.946C-0.21768 533.011 -0.34906 533.206 -0.252438 533.381Z" fill="url(#paint17_linear_1561:70252)"/>
<path fill-rule="evenodd" clip-rule="evenodd" d="M-0.281999 405.912C-0.251238 406.098 -0.00383618 406.232 0.270587 406.211L15.3731 405.065C15.6475 405.044 15.845 404.876 15.8142 404.69C15.7835 404.505 15.5361 404.371 15.2617 404.392L0.159189 405.538C-0.115234 405.559 -0.312761 405.726 -0.281999 405.912Z" fill="url(#paint18_linear_1561:70252)"/>
<path fill-rule="evenodd" clip-rule="evenodd" d="M-0.281271 411.984C-0.247143 412.17 0.00266495 412.301 0.27669 412.278L85.8336 405.064C86.1076 405.041 86.3021 404.872 86.2679 404.686C86.2338 404.501 85.984 404.369 85.71 404.392L0.153102 411.607C-0.120923 411.63 -0.315399 411.799 -0.281271 411.984Z" fill="url(#paint19_linear_1561:70252)"/>
<path fill-rule="evenodd" clip-rule="evenodd" d="M-1.77111 624.944C-1.63616 625.107 -1.33146 625.165 -1.09054 625.074L579.188 405.023C579.429 404.932 579.514 404.725 579.379 404.562C579.245 404.399 578.94 404.341 578.699 404.432L-1.57921 624.483C-1.82013 624.574 -1.90605 624.781 -1.77111 624.944Z" fill="url(#paint20_linear_1561:70252)"/>
<path fill-rule="evenodd" clip-rule="evenodd" d="M1440.43 624.944C1440.57 624.781 1440.48 624.575 1440.24 624.483L861.006 404.433C860.766 404.341 860.461 404.399 860.326 404.562C860.191 404.725 860.276 404.931 860.517 405.023L1439.75 625.074C1439.99 625.165 1440.3 625.107 1440.43 624.944Z" fill="url(#paint21_linear_1561:70252)"/>
<path fill-rule="evenodd" clip-rule="evenodd" d="M-0.285156 532.397C-0.285156 532.584 -0.0612986 532.736 0.214844 532.736L1439.75 532.736C1440.02 532.736 1440.25 532.584 1440.25 532.397C1440.25 532.21 1440.02 532.059 1439.75 532.059L0.214844 532.059C-0.0612987 532.059 -0.285156 532.21 -0.285156 532.397Z" fill="url(#paint22_linear_1561:70252)"/>
<path fill-rule="evenodd" clip-rule="evenodd" d="M-0.285156 443.913C-0.285156 444.1 -0.0612986 444.252 0.214844 444.252L1439.75 444.252C1440.02 444.252 1440.25 444.1 1440.25 443.913C1440.25 443.726 1440.02 443.575 1439.75 443.575L0.214844 443.575C-0.0612987 443.575 -0.285156 443.726 -0.285156 443.913Z" fill="url(#paint23_linear_1561:70252)"/>
<path fill-rule="evenodd" clip-rule="evenodd" d="M-0.285156 473.859C-0.285156 474.046 -0.0612986 474.197 0.214844 474.197L1439.75 474.197C1440.02 474.197 1440.25 474.046 1440.25 473.859C1440.25 473.672 1440.02 473.52 1439.75 473.52L0.214844 473.52C-0.0612987 473.52 -0.285156 473.672 -0.285156 473.859Z" fill="url(#paint24_linear_1561:70252)"/>
<path fill-rule="evenodd" clip-rule="evenodd" d="M-0.285156 507.527C-0.285156 507.714 -0.0612986 507.866 0.214844 507.866L1439.75 507.866C1440.02 507.866 1440.25 507.714 1440.25 507.527C1440.25 507.34 1440.02 507.189 1439.75 507.189L0.214844 507.189C-0.0612987 507.189 -0.285156 507.34 -0.285156 507.527Z" fill="url(#paint25_linear_1561:70252)"/>
<path fill-rule="evenodd" clip-rule="evenodd" d="M-0.285156 566.684C-0.285156 566.871 -0.0612986 567.023 0.214844 567.023L1439.75 567.023C1440.02 567.023 1440.25 566.871 1440.25 566.684C1440.25 566.497 1440.02 566.346 1439.75 566.346L0.214844 566.346C-0.0612987 566.346 -0.285156 566.497 -0.285156 566.684Z" fill="url(#paint26_linear_1561:70252)"/>
<path fill-rule="evenodd" clip-rule="evenodd" d="M-0.285156 488.659C-0.285156 488.846 -0.0612986 488.998 0.214844 488.998L1439.75 488.998C1440.02 488.998 1440.25 488.846 1440.25 488.659C1440.25 488.472 1440.02 488.321 1439.75 488.321L0.214844 488.321C-0.0612987 488.321 -0.285156 488.472 -0.285156 488.659Z" fill="url(#paint27_linear_1561:70252)"/>
<path fill-rule="evenodd" clip-rule="evenodd" d="M-0.285156 461.935C-0.285156 462.122 -0.0612986 462.273 0.214844 462.273L1439.75 462.273C1440.02 462.273 1440.25 462.122 1440.25 461.935C1440.25 461.748 1440.02 461.596 1439.75 461.596L0.214844 461.596C-0.0612987 461.596 -0.285156 461.748 -0.285156 461.935Z" fill="url(#paint28_linear_1561:70252)"/>
<path fill-rule="evenodd" clip-rule="evenodd" d="M-0.285156 413.503C-0.285156 413.69 -0.0612986 413.841 0.214844 413.841L1439.75 413.841C1440.02 413.841 1440.25 413.69 1440.25 413.503C1440.25 413.316 1440.02 413.164 1439.75 413.164L0.214844 413.164C-0.0612987 413.164 -0.285156 413.316 -0.285156 413.503Z" fill="url(#paint29_linear_1561:70252)"/>
<path fill-rule="evenodd" clip-rule="evenodd" d="M-0.285156 421.15C-0.285156 421.337 -0.0612986 421.488 0.214844 421.488L1439.75 421.488C1440.02 421.488 1440.25 421.337 1440.25 421.15C1440.25 420.963 1440.02 420.811 1439.75 420.811L0.214844 420.811C-0.0612987 420.811 -0.285156 420.963 -0.285156 421.15Z" fill="url(#paint30_linear_1561:70252)"/>
<path fill-rule="evenodd" clip-rule="evenodd" d="M-0.285156 425.724C-0.285156 425.911 -0.0612986 426.063 0.214844 426.063L1439.75 426.063C1440.02 426.063 1440.25 425.911 1440.25 425.725C1440.25 425.538 1440.02 425.386 1439.75 425.386L0.214844 425.386C-0.0612987 425.386 -0.285156 425.538 -0.285156 425.724Z" fill="url(#paint31_linear_1561:70252)"/>
<path fill-rule="evenodd" clip-rule="evenodd" d="M-0.285156 417.103C-0.285156 417.29 -0.0612986 417.442 0.214844 417.442L1439.75 417.442C1440.02 417.442 1440.25 417.29 1440.25 417.103C1440.25 416.916 1440.02 416.765 1439.75 416.765L0.214844 416.765C-0.0612987 416.765 -0.285156 416.916 -0.285156 417.103Z" fill="url(#paint32_linear_1561:70252)"/>
<path fill-rule="evenodd" clip-rule="evenodd" d="M-0.285156 407.363C-0.285156 407.55 -0.0612986 407.702 0.214844 407.702L1439.75 407.702C1440.02 407.702 1440.25 407.55 1440.25 407.363C1440.25 407.176 1440.02 407.025 1439.75 407.025L0.214844 407.025C-0.0612987 407.025 -0.285156 407.176 -0.285156 407.363Z" fill="url(#paint33_linear_1561:70252)"/>
<path fill-rule="evenodd" clip-rule="evenodd" d="M-0.285156 410.274C-0.285156 410.461 -0.0612986 410.612 0.214844 410.612L1439.75 410.612C1440.02 410.612 1440.25 410.461 1440.25 410.274C1440.25 410.087 1440.02 409.935 1439.75 409.935L0.214844 409.935C-0.0612987 409.935 -0.285156 410.087 -0.285156 410.274Z" fill="url(#paint34_linear_1561:70252)"/>
<path fill-rule="evenodd" clip-rule="evenodd" d="M-0.285156 404.728C-0.285156 404.915 -0.0612986 405.067 0.214844 405.067L1439.75 405.067C1440.02 405.067 1440.25 404.915 1440.25 404.728C1440.25 404.541 1440.02 404.39 1439.75 404.39L0.214844 404.39C-0.0612987 404.39 -0.285156 404.541 -0.285156 404.728Z" fill="url(#paint35_linear_1561:70252)"/>
<path fill-rule="evenodd" clip-rule="evenodd" d="M-0.285156 436.937C-0.285156 437.124 -0.0612986 437.276 0.214844 437.276L1439.75 437.276C1440.02 437.276 1440.25 437.124 1440.25 436.937C1440.25 436.75 1440.02 436.599 1439.75 436.599L0.214844 436.599C-0.0612987 436.599 -0.285156 436.75 -0.285156 436.937Z" fill="url(#paint36_linear_1561:70252)"/>
<path fill-rule="evenodd" clip-rule="evenodd" d="M-0.285156 452.125C-0.285156 452.312 -0.0612986 452.464 0.214844 452.464L1439.75 452.464C1440.02 452.464 1440.25 452.312 1440.25 452.125C1440.25 451.938 1440.02 451.787 1439.75 451.787L0.214844 451.787C-0.0612987 451.787 -0.285156 451.938 -0.285156 452.125Z" fill="url(#paint37_linear_1561:70252)"/>
<path fill-rule="evenodd" clip-rule="evenodd" d="M-0.285156 430.938C-0.285156 431.125 -0.0612986 431.276 0.214844 431.276L1439.75 431.276C1440.02 431.276 1440.25 431.125 1440.25 430.938C1440.25 430.751 1440.02 430.599 1439.75 430.599L0.214844 430.599C-0.0612987 430.599 -0.285156 430.751 -0.285156 430.938Z" fill="url(#paint38_linear_1561:70252)"/>
<path fill-rule="evenodd" clip-rule="evenodd" d="M-0.786133 624.501C-0.786133 624.127 -0.338418 623.823 0.213867 623.823L1439.75 623.824C1440.3 623.824 1440.75 624.127 1440.75 624.501C1440.75 624.875 1440.3 625.178 1439.75 625.178L0.213867 625.178C-0.338418 625.178 -0.786133 624.874 -0.786133 624.501Z" fill="url(#paint39_linear_1561:70252)"/>
<path fill-rule="evenodd" clip-rule="evenodd" d="M1078.5 688.165L1078.5 625.2L1079.5 625.2L1079.5 688.165L1078.5 688.165Z" fill="url(#paint40_linear_1561:70252)"/>
<path fill-rule="evenodd" clip-rule="evenodd" d="M719.5 688.165L719.5 625.2L720.5 625.2L720.5 688.165L719.5 688.165Z" fill="url(#paint41_linear_1561:70252)"/>
<path fill-rule="evenodd" clip-rule="evenodd" d="M358.5 688.165L358.5 625.199L359.5 625.199L359.5 688.165L358.5 688.165Z" fill="url(#paint42_linear_1561:70252)"/>
</g>
<defs>
<linearGradient id="paint0_linear_1561:70252" x1="720" y1="826.165" x2="720" y2="624" gradientUnits="userSpaceOnUse">
<stop stop-color="#0E052F"/>
<stop offset="1" stop-color="#0E052F" stop-opacity="0"/>
</linearGradient>
<linearGradient id="paint1_linear_1561:70252" x1="934.987" y1="625.118" x2="934.987" y2="404.39" gradientUnits="userSpaceOnUse">
<stop stop-color="#ED1EFF"/>
<stop offset="1" stop-color="#00D1FF"/>
</linearGradient>
<linearGradient id="paint2_linear_1561:70252" x1="1185.48" y1="533.821" x2="1185.48" y2="404.39" gradientUnits="userSpaceOnUse">
<stop stop-color="#ED1EFF"/>
<stop offset="1" stop-color="#00D1FF"/>
</linearGradient>
<linearGradient id="paint3_linear_1561:70252" x1="719.592" y1="625.117" x2="719.592" y2="404.389" gradientUnits="userSpaceOnUse">
<stop stop-color="#ED1EFF"/>
<stop offset="1" stop-color="#00D1FF"/>
</linearGradient>
<linearGradient id="paint4_linear_1561:70252" x1="1326.39" y1="429.658" x2="1326.39" y2="404.39" gradientUnits="userSpaceOnUse">
<stop stop-color="#ED1EFF"/>
<stop offset="1" stop-color="#00D1FF"/>
</linearGradient>
<linearGradient id="paint5_linear_1561:70252" x1="1361.62" y1="419.896" x2="1361.62" y2="404.39" gradientUnits="userSpaceOnUse">
<stop stop-color="#ED1EFF"/>
<stop offset="1" stop-color="#00D1FF"/>
</linearGradient>
<linearGradient id="paint6_linear_1561:70252" x1="1255.93" y1="460.899" x2="1255.93" y2="404.39" gradientUnits="userSpaceOnUse">
<stop stop-color="#ED1EFF"/>
<stop offset="1" stop-color="#00D1FF"/>
</linearGradient>
<linearGradient id="paint7_linear_1561:70252" x1="1220.71" y1="488.239" x2="1220.71" y2="404.389" gradientUnits="userSpaceOnUse">
<stop stop-color="#ED1EFF"/>
<stop offset="1" stop-color="#00D1FF"/>
</linearGradient>
<linearGradient id="paint8_linear_1561:70252" x1="1291.16" y1="442.676" x2="1291.16" y2="404.39" gradientUnits="userSpaceOnUse">
<stop stop-color="#ED1EFF"/>
<stop offset="1" stop-color="#00D1FF"/>
</linearGradient>
<linearGradient id="paint9_linear_1561:70252" x1="113.445" y1="429.618" x2="113.445" y2="404.389" gradientUnits="userSpaceOnUse">
<stop stop-color="#ED1EFF"/>
<stop offset="1" stop-color="#00D1FF"/>
</linearGradient>
<linearGradient id="paint10_linear_1561:70252" x1="1396.84" y1="412.305" x2="1396.84" y2="404.39" gradientUnits="userSpaceOnUse">
<stop stop-color="#ED1EFF"/>
<stop offset="1" stop-color="#00D1FF"/>
</linearGradient>
<linearGradient id="paint11_linear_1561:70252" x1="1432.07" y1="406.232" x2="1432.07" y2="404.39" gradientUnits="userSpaceOnUse">
<stop stop-color="#ED1EFF"/>
<stop offset="1" stop-color="#00D1FF"/>
</linearGradient>
<linearGradient id="paint12_linear_1561:70252" x1="148.673" y1="442.62" x2="148.673" y2="404.389" gradientUnits="userSpaceOnUse">
<stop stop-color="#ED1EFF"/>
<stop offset="1" stop-color="#00D1FF"/>
</linearGradient>
<linearGradient id="paint13_linear_1561:70252" x1="219.127" y1="488.117" x2="219.127" y2="404.389" gradientUnits="userSpaceOnUse">
<stop stop-color="#ED1EFF"/>
<stop offset="1" stop-color="#00D1FF"/>
</linearGradient>
<linearGradient id="paint14_linear_1561:70252" x1="504.198" y1="625.117" x2="504.198" y2="404.389" gradientUnits="userSpaceOnUse">
<stop stop-color="#ED1EFF"/>
<stop offset="1" stop-color="#00D1FF"/>
</linearGradient>
<linearGradient id="paint15_linear_1561:70252" x1="78.2172" y1="419.867" x2="78.2172" y2="404.39" gradientUnits="userSpaceOnUse">
<stop stop-color="#ED1EFF"/>
<stop offset="1" stop-color="#00D1FF"/>
</linearGradient>
<linearGradient id="paint16_linear_1561:70252" x1="183.9" y1="460.819" x2="183.9" y2="404.389" gradientUnits="userSpaceOnUse">
<stop stop-color="#ED1EFF"/>
<stop offset="1" stop-color="#00D1FF"/>
</linearGradient>
<linearGradient id="paint17_linear_1561:70252" x1="254.355" y1="533.601" x2="254.355" y2="404.389" gradientUnits="userSpaceOnUse">
<stop stop-color="#ED1EFF"/>
<stop offset="1" stop-color="#00D1FF"/>
</linearGradient>
<linearGradient id="paint18_linear_1561:70252" x1="7.76612" y1="406.213" x2="7.76612" y2="404.39" gradientUnits="userSpaceOnUse">
<stop stop-color="#ED1EFF"/>
<stop offset="1" stop-color="#00D1FF"/>
</linearGradient>
<linearGradient id="paint19_linear_1561:70252" x1="42.9933" y1="412.281" x2="42.9933" y2="404.39" gradientUnits="userSpaceOnUse">
<stop stop-color="#ED1EFF"/>
<stop offset="1" stop-color="#00D1FF"/>
</linearGradient>
<linearGradient id="paint20_linear_1561:70252" x1="288.804" y1="625.117" x2="288.804" y2="404.389" gradientUnits="userSpaceOnUse">
<stop stop-color="#ED1EFF"/>
<stop offset="1" stop-color="#00D1FF"/>
</linearGradient>
<linearGradient id="paint21_linear_1561:70252" x1="1150.38" y1="625.117" x2="1150.38" y2="404.389" gradientUnits="userSpaceOnUse">
<stop stop-color="#ED1EFF"/>
<stop offset="1" stop-color="#00D1FF"/>
</linearGradient>
<linearGradient id="paint22_linear_1561:70252" x1="719.982" y1="532.736" x2="719.982" y2="532.059" gradientUnits="userSpaceOnUse">
<stop stop-color="#ED1EFF"/>
<stop offset="1" stop-color="#00D1FF"/>
</linearGradient>
<linearGradient id="paint23_linear_1561:70252" x1="719.982" y1="444.252" x2="719.982" y2="443.575" gradientUnits="userSpaceOnUse">
<stop stop-color="#ED1EFF"/>
<stop offset="1" stop-color="#00D1FF"/>
</linearGradient>
<linearGradient id="paint24_linear_1561:70252" x1="719.982" y1="474.197" x2="719.982" y2="473.52" gradientUnits="userSpaceOnUse">
<stop stop-color="#ED1EFF"/>
<stop offset="1" stop-color="#00D1FF"/>
</linearGradient>
<linearGradient id="paint25_linear_1561:70252" x1="719.982" y1="507.866" x2="719.982" y2="507.189" gradientUnits="userSpaceOnUse">
<stop stop-color="#ED1EFF"/>
<stop offset="1" stop-color="#00D1FF"/>
</linearGradient>
<linearGradient id="paint26_linear_1561:70252" x1="719.982" y1="567.023" x2="719.982" y2="566.346" gradientUnits="userSpaceOnUse">
<stop stop-color="#ED1EFF"/>
<stop offset="1" stop-color="#00D1FF"/>
</linearGradient>
<linearGradient id="paint27_linear_1561:70252" x1="719.982" y1="488.998" x2="719.982" y2="488.321" gradientUnits="userSpaceOnUse">
<stop stop-color="#ED1EFF"/>
<stop offset="1" stop-color="#00D1FF"/>
</linearGradient>
<linearGradient id="paint28_linear_1561:70252" x1="719.982" y1="462.273" x2="719.982" y2="461.596" gradientUnits="userSpaceOnUse">
<stop stop-color="#ED1EFF"/>
<stop offset="1" stop-color="#00D1FF"/>
</linearGradient>
<linearGradient id="paint29_linear_1561:70252" x1="719.982" y1="413.841" x2="719.982" y2="413.164" gradientUnits="userSpaceOnUse">
<stop stop-color="#ED1EFF"/>
<stop offset="1" stop-color="#00D1FF"/>
</linearGradient>
<linearGradient id="paint30_linear_1561:70252" x1="719.982" y1="421.488" x2="719.982" y2="420.811" gradientUnits="userSpaceOnUse">
<stop stop-color="#ED1EFF"/>
<stop offset="1" stop-color="#00D1FF"/>
</linearGradient>
<linearGradient id="paint31_linear_1561:70252" x1="719.982" y1="426.063" x2="719.982" y2="425.386" gradientUnits="userSpaceOnUse">
<stop stop-color="#ED1EFF"/>
<stop offset="1" stop-color="#00D1FF"/>
</linearGradient>
<linearGradient id="paint32_linear_1561:70252" x1="719.982" y1="417.442" x2="719.982" y2="416.765" gradientUnits="userSpaceOnUse">
<stop stop-color="#ED1EFF"/>
<stop offset="1" stop-color="#00D1FF"/>
</linearGradient>
<linearGradient id="paint33_linear_1561:70252" x1="719.982" y1="407.702" x2="719.982" y2="407.025" gradientUnits="userSpaceOnUse">
<stop stop-color="#ED1EFF"/>
<stop offset="1" stop-color="#00D1FF"/>
</linearGradient>
<linearGradient id="paint34_linear_1561:70252" x1="719.982" y1="410.612" x2="719.982" y2="409.935" gradientUnits="userSpaceOnUse">
<stop stop-color="#ED1EFF"/>
<stop offset="1" stop-color="#00D1FF"/>
</linearGradient>
<linearGradient id="paint35_linear_1561:70252" x1="719.982" y1="405.067" x2="719.982" y2="404.39" gradientUnits="userSpaceOnUse">
<stop stop-color="#ED1EFF"/>
<stop offset="1" stop-color="#00D1FF"/>
</linearGradient>
<linearGradient id="paint36_linear_1561:70252" x1="719.982" y1="437.276" x2="719.982" y2="436.599" gradientUnits="userSpaceOnUse">
<stop stop-color="#ED1EFF"/>
<stop offset="1" stop-color="#00D1FF"/>
</linearGradient>
<linearGradient id="paint37_linear_1561:70252" x1="719.982" y1="452.464" x2="719.982" y2="451.787" gradientUnits="userSpaceOnUse">
<stop stop-color="#ED1EFF"/>
<stop offset="1" stop-color="#00D1FF"/>
</linearGradient>
<linearGradient id="paint38_linear_1561:70252" x1="719.982" y1="431.276" x2="719.982" y2="430.599" gradientUnits="userSpaceOnUse">
<stop stop-color="#ED1EFF"/>
<stop offset="1" stop-color="#00D1FF"/>
</linearGradient>
<linearGradient id="paint39_linear_1561:70252" x1="719.981" y1="623.824" x2="719.981" y2="625.178" gradientUnits="userSpaceOnUse">
<stop stop-color="#ED1EFF"/>
<stop offset="1" stop-color="#00D1FF"/>
</linearGradient>
<linearGradient id="paint40_linear_1561:70252" x1="1079.5" y1="625.2" x2="1079.5" y2="688.165" gradientUnits="userSpaceOnUse">
<stop stop-color="#ED1EFF"/>
<stop offset="0.643466" stop-color="#00D1FF"/>
<stop offset="1" stop-color="#0C0628"/>
</linearGradient>
<linearGradient id="paint41_linear_1561:70252" x1="720.5" y1="625.2" x2="720.5" y2="688.165" gradientUnits="userSpaceOnUse">
<stop stop-color="#ED1EFF"/>
<stop offset="0.643466" stop-color="#00D1FF"/>
<stop offset="1" stop-color="#0C0628"/>
</linearGradient>
<linearGradient id="paint42_linear_1561:70252" x1="359.5" y1="625.199" x2="359.5" y2="688.165" gradientUnits="userSpaceOnUse">
<stop stop-color="#ED1EFF"/>
<stop offset="0.643466" stop-color="#00D1FF"/>
<stop offset="1" stop-color="#0C0628"/>
</linearGradient>
<clipPath id="clip0_1561:70252">
<rect width="1440" height="826" fill="white"/>
</clipPath>
</defs>
</svg>
