<svg width="64" height="64" viewBox="0 0 64 64" fill="none" xmlns="http://www.w3.org/2000/svg">
<path d="M32 64C49.6731 64 64 49.6731 64 32C64 14.3269 49.6731 0 32 0C14.3269 0 0 14.3269 0 32C0 49.6731 14.3269 64 32 64Z" fill="#1E1A31"/>
<path opacity="0.5" fill-rule="evenodd" clip-rule="evenodd" d="M25.0505 44.4861L22.3874 42.5861L39.1375 19.3127L41.8007 21.2127L25.0505 44.4861Z" fill="white"/>
<path fill-rule="evenodd" clip-rule="evenodd" d="M33.6785 30.3679H34.5727C38.6894 30.3679 42.0267 33.6941 42.0267 37.7973C42.0267 41.9004 38.6894 45.2266 34.5727 45.2266H23.6108C22.7065 45.2266 21.9733 44.4959 21.9733 43.5945C21.9733 42.6931 22.7065 41.9624 23.6108 41.9624H34.5727C36.8806 41.9624 38.7516 40.0976 38.7516 37.7973C38.7516 35.4969 36.8806 33.6321 34.5727 33.6321H30.3222H30.3215H29.4273C25.3106 33.6321 21.9733 30.3058 21.9733 26.2027C21.9733 22.0996 25.3106 18.7733 29.4273 18.7733H40.3891C41.2935 18.7733 42.0267 19.504 42.0267 20.4054C42.0267 21.3068 41.2935 22.0375 40.3891 22.0375H29.4273C27.1193 22.0375 25.2484 23.9023 25.2484 26.2027C25.2484 28.5031 27.1193 30.3679 29.4273 30.3679H33.6778C33.6781 30.3679 33.6783 30.3679 33.6785 30.3679Z" fill="white"/>
</svg>
