<svg width="64" height="61" viewBox="0 0 64 61" fill="none" xmlns="http://www.w3.org/2000/svg">
<path d="M26.8726 14.2615C26.2488 14.1646 26.2225 14.1533 26.5161 14.1081C27.0788 14.0216 28.4073 14.1396 29.3226 14.3573C31.4598 14.8653 33.4047 16.1667 35.4806 18.4781L36.032 19.0921L36.8209 18.9652C40.1447 18.4311 43.5259 18.8556 46.3539 20.1621C47.1319 20.5214 48.3587 21.2369 48.5119 21.4207C48.5607 21.4794 48.6504 21.8565 48.711 22.259C48.9212 23.6515 48.816 24.7187 48.3901 25.516C48.1583 25.9497 48.1454 26.0871 48.3012 26.4585C48.4257 26.7548 48.7724 26.974 49.1157 26.9734C49.8185 26.9726 50.575 25.8365 50.9256 24.2557L51.0647 23.6278L51.3406 23.9401C52.8533 25.6542 54.0415 27.9916 54.2457 29.6555L54.2989 30.0893L54.0446 29.6949C53.6069 29.0163 53.1672 28.5544 52.6042 28.1818C51.5892 27.5101 50.5159 27.2815 47.6736 27.1318C45.1066 26.9966 43.6537 26.7772 42.213 26.3075C39.7619 25.5084 38.5263 24.4441 35.6148 20.6241C34.3216 18.9273 33.5222 17.9886 32.7272 17.2327C30.9204 15.5148 29.1452 14.614 26.8726 14.2615Z" fill="#FF007A"/>
<path d="M49.091 18.0497C49.1555 16.9127 49.3096 16.1629 49.6197 15.478C49.7423 15.2068 49.8574 14.985 49.875 14.985C49.8928 14.985 49.8395 15.1851 49.7565 15.4297C49.5312 16.0942 49.4942 17.0034 49.6495 18.061C49.8465 19.4031 49.9585 19.5967 51.377 21.0463C52.0423 21.7264 52.8161 22.584 53.0967 22.9522L53.6067 23.6216L53.0967 23.1432C52.4729 22.5581 51.0383 21.417 50.7214 21.2539C50.5089 21.1446 50.4773 21.1464 50.3463 21.2769C50.2254 21.397 50.2001 21.5777 50.1833 22.4316C50.1572 23.7624 49.9758 24.6166 49.538 25.4707C49.3012 25.9327 49.2639 25.8341 49.4782 25.3126C49.6382 24.9234 49.6544 24.7522 49.6532 23.4638C49.6507 20.8753 49.3434 20.2531 47.5412 19.1869C47.0847 18.9168 46.3324 18.5274 45.8696 18.3214C45.4067 18.1154 45.0391 17.936 45.0525 17.9225C45.1034 17.8718 46.861 18.3848 47.5685 18.6568C48.6207 19.0617 48.7944 19.114 48.9222 19.0653C49.0079 19.0326 49.0494 18.783 49.091 18.0497Z" fill="#FF007A"/>
<path d="M28.0846 22.4779C26.8181 20.7344 26.0344 18.0608 26.2041 16.0624L26.2566 15.444L26.5448 15.4966C27.0862 15.5953 28.0197 15.9428 28.4567 16.2082C29.6563 16.9367 30.1755 17.8958 30.7038 20.3586C30.8585 21.08 31.0616 21.8964 31.1551 22.1727C31.3054 22.6176 31.8737 23.6566 32.3358 24.3315C32.6686 24.8175 32.4474 25.0478 31.7119 24.9814C30.5883 24.8799 29.0664 23.8295 28.0846 22.4779Z" fill="#FF007A"/>
<path d="M47.5547 35.4552C41.6359 33.072 39.5513 31.0035 39.5513 27.5133C39.5513 26.9996 39.569 26.5795 39.5906 26.5795C39.6121 26.5795 39.8411 26.749 40.0995 26.9561C41.2997 27.9188 42.6436 28.3299 46.3644 28.8728C48.5538 29.1922 49.786 29.4502 50.9225 29.8272C54.535 31.0252 56.7702 33.4566 57.3032 36.7682C57.458 37.7304 57.3672 39.535 57.116 40.4859C56.9177 41.2372 56.3128 42.5912 56.1524 42.6431C56.1079 42.6576 56.0642 42.487 56.0529 42.2551C55.992 41.0115 55.3637 39.801 54.3083 38.894C53.1084 37.863 51.4963 37.0422 47.5547 35.4552Z" fill="#FF007A"/>
<path d="M43.3996 36.445C43.3253 36.0038 43.1967 35.4402 43.1138 35.1927L42.9626 34.7427L43.2432 35.0575C43.6313 35.4932 43.9382 36.0508 44.1981 36.7934C44.3965 37.3602 44.4188 37.5288 44.4173 38.4498C44.4158 39.354 44.391 39.5435 44.2079 40.0536C43.9189 40.858 43.5604 41.4285 42.9588 42.0407C41.8775 43.141 40.4875 43.7504 38.4816 44.0031C38.1329 44.0469 37.1166 44.1209 36.2232 44.1674C33.9716 44.2845 32.4897 44.5263 31.1582 44.9938C30.9667 45.0612 30.7958 45.102 30.7784 45.0847C30.7246 45.0311 31.6311 44.4906 32.38 44.13C33.4358 43.6213 34.4869 43.3437 36.8419 42.9516C38.0053 42.7578 39.2066 42.5228 39.5117 42.4292C42.3926 41.5459 43.8734 39.2665 43.3996 36.445Z" fill="#FF007A"/>
<path d="M46.1128 41.2637C45.3264 39.5732 45.1459 37.941 45.5766 36.4189C45.6228 36.2562 45.6968 36.123 45.7414 36.123C45.7859 36.123 45.9715 36.2234 46.1537 36.346C46.5161 36.5899 47.243 37.0008 49.1791 38.0565C51.5954 39.3738 52.9731 40.3939 53.9098 41.5594C54.7303 42.58 55.238 43.7423 55.4823 45.1598C55.6207 45.9628 55.5397 47.8948 55.3337 48.7034C54.684 51.2526 53.1741 53.2552 51.0206 54.4237C50.7051 54.5948 50.4219 54.7354 50.3912 54.7359C50.3606 54.7366 50.4755 54.4444 50.6467 54.0864C51.3712 52.572 51.4536 51.099 50.906 49.4593C50.5706 48.4555 49.8869 47.2305 48.5063 45.1602C46.9011 42.7531 46.5077 42.1125 46.1128 41.2637Z" fill="#FF007A"/>
<path d="M23.8812 50.3847C26.0777 48.5303 28.8106 47.2127 31.2999 46.8084C32.3727 46.6341 34.16 46.7032 35.1535 46.9575C36.7458 47.3651 38.1704 48.2778 38.9113 49.3653C39.6353 50.4283 39.9459 51.3544 40.2693 53.4153C40.3969 54.2281 40.5356 55.0446 40.5777 55.2294C40.8204 56.2974 41.2931 57.1511 41.8787 57.5799C42.809 58.2606 44.4107 58.303 45.9864 57.6883C46.2539 57.584 46.4861 57.5119 46.5025 57.5282C46.5595 57.585 45.7661 58.116 45.2063 58.3956C44.4532 58.7719 43.8542 58.9173 43.0584 58.9173C41.6153 58.9173 40.4171 58.1831 39.4174 56.6863C39.2206 56.3917 38.7785 55.5092 38.4347 54.7254C37.3791 52.3177 36.8579 51.5844 35.6322 50.7817C34.5656 50.0832 33.19 49.9581 32.1553 50.4655C30.7959 51.132 30.4167 52.869 31.3903 53.9699C31.7772 54.4074 32.4988 54.7848 33.0887 54.8583C34.1926 54.9955 35.1412 54.1558 35.1412 53.0413C35.1412 52.3177 34.8631 51.9048 34.1628 51.5888C33.2067 51.1572 32.1787 51.6617 32.1837 52.56C32.1858 52.943 32.3526 53.1836 32.7365 53.3574C32.9829 53.4689 32.9887 53.4777 32.7878 53.4359C31.9103 53.254 31.7047 52.1962 32.4102 51.494C33.2573 50.6509 35.0088 51.023 35.6101 52.1737C35.8628 52.657 35.8922 53.6196 35.6718 54.2008C35.1788 55.5019 33.7413 56.1861 32.2829 55.8137C31.2901 55.5602 30.8858 55.2858 29.6886 54.0527C27.6085 51.91 26.8008 51.4948 23.802 51.0266L23.2274 50.9369L23.8812 50.3847Z" fill="#FF007A"/>
<path fill-rule="evenodd" clip-rule="evenodd" d="M8.19549 2.38509C15.1422 10.8164 25.8523 23.9437 26.384 24.6785C26.8229 25.2854 26.6577 25.8309 25.9056 26.2585C25.4874 26.4962 24.6275 26.7372 24.1971 26.7372C23.7101 26.7372 23.1615 26.5027 22.7621 26.1238C22.4797 25.856 21.3401 24.1542 18.7093 20.0723C16.6966 16.949 15.012 14.3581 14.966 14.3147C14.8597 14.2143 14.8615 14.2176 18.5042 20.7352C20.7914 24.8278 21.5635 26.2746 21.5635 26.4681C21.5635 26.8616 21.4562 27.0686 20.9706 27.6102C20.1613 28.513 19.7994 29.5276 19.5383 31.6273C19.2455 33.981 18.4222 35.6436 16.1404 38.4893C14.8049 40.1549 14.5864 40.4603 14.2493 41.1316C13.8248 41.9771 13.708 42.4506 13.6608 43.5183C13.6108 44.6471 13.7082 45.3762 14.0529 46.4554C14.3549 47.4002 14.67 48.0242 15.4757 49.2719C16.171 50.3488 16.5713 51.1491 16.5713 51.4622C16.5713 51.7112 16.6188 51.7115 17.6963 51.4682C20.2746 50.8861 22.3681 49.862 23.5456 48.6072C24.2742 47.8304 24.4454 47.4015 24.4509 46.3371C24.4545 45.6409 24.4301 45.4951 24.2418 45.0946C23.9355 44.4427 23.3777 43.9008 22.1486 43.0604C20.538 41.9594 19.85 41.0731 19.66 39.854C19.5041 38.8539 19.6851 38.1482 20.5761 36.2808C21.4982 34.3478 21.7268 33.5242 21.8814 31.5759C21.9812 30.3172 22.1195 29.8207 22.4811 29.4222C22.8584 29.0067 23.1979 28.866 24.1313 28.7384C25.6531 28.5306 26.6223 28.1368 27.4187 27.4028C28.1098 26.7662 28.3989 26.1525 28.4432 25.2289L28.477 24.5289L28.0908 24.0787C26.6924 22.4482 7.259 1.10339 7.17295 1.10339C7.15456 1.10339 7.61472 1.68019 8.19549 2.38509ZM17.3563 44.7955C17.6724 44.2355 17.5045 43.5156 16.9756 43.164C16.4759 42.8318 15.6996 42.9883 15.6996 43.4212C15.6996 43.5534 15.7728 43.6496 15.9374 43.7343C16.2147 43.8769 16.2348 44.0375 16.0167 44.3653C15.7957 44.6974 15.8136 44.9894 16.067 45.1876C16.4754 45.5075 17.0534 45.3316 17.3563 44.7955Z" fill="#FF007A"/>
<path fill-rule="evenodd" clip-rule="evenodd" d="M29.4373 29.1057C28.7229 29.3252 28.0285 30.0824 27.8135 30.8762C27.6823 31.3607 27.7567 32.2102 27.9532 32.4727C28.2706 32.8964 28.5774 33.0082 29.4085 33.0023C31.0354 32.991 32.4498 32.2932 32.6142 31.4208C32.7491 30.7058 32.1279 29.7147 31.2722 29.2797C30.8307 29.0554 29.8916 28.9662 29.4373 29.1057ZM31.3393 30.5929C31.5902 30.2364 31.4804 29.8511 31.0538 29.5906C30.241 29.0944 29.0122 29.505 29.0122 30.2727C29.0122 30.6548 29.6531 31.0717 30.2405 31.0717C30.6314 31.0717 31.1665 30.8386 31.3393 30.5929Z" fill="#FF007A"/>
</svg>
