<svg width="152" height="152" viewBox="0 0 152 152" fill="none" xmlns="http://www.w3.org/2000/svg">
<g filter="url(#filter0_bd)">
<circle cx="75.7333" cy="75.7333" r="56.7333" fill="url(#paint0_linear)"/>
<circle cx="75.7333" cy="75.7333" r="59.2333" stroke="#FFD75C" stroke-width="5"/>
</g>
<path d="M73.3496 97.4554V54.7256H78.0022V97.4554H73.3496Z" fill="white"/>
<path d="M97.0335 68.9619L82.6648 72.7726L79.4605 57.8583L83.733 56.8927L85.4173 63.9596C85.4173 63.9596 89.2996 57.5912 84.1233 50.9969C81.0729 47.6072 79.6248 47.4634 76.2046 46.9293C73.1954 46.4979 66.2011 47.5148 64.1162 55.6807C63.2328 60.9398 64.2292 64.8327 71.0078 69.9274L70.6277 75.5973C70.6277 75.5973 63.0584 70.2664 61.1068 66.5275C59.5971 63.5693 57.0089 57.7247 61.682 49.5896C64.1984 45.5222 69.1591 41.6189 77.8994 42.0298C82.2952 42.2147 93.0277 47.5867 91.364 60.1386C91.0764 62.4908 89.8542 65.6236 89.8542 65.6236L95.7495 64.3088L97.0335 68.9619Z" fill="white"/>
<path d="M88.8273 102.396C86.198 106.392 81.1348 110.161 72.415 109.525C68.0192 109.227 57.4406 103.567 59.433 91.0666C59.7823 88.7247 61.0865 85.6329 61.0865 85.6329L55.1605 86.7833L54 82.1097L68.4712 78.679L71.2852 93.6756L66.9818 94.5281L65.4824 87.4099C65.4824 87.4099 61.4358 93.6653 66.4273 100.403C69.3851 103.875 70.8232 104.05 74.2432 104.676C77.232 105.19 84.2569 104.348 86.5575 96.2435C87.5744 91.0152 86.6808 87.0915 80.046 81.8119L80.5801 76.1522C80.5801 76.1522 88.0058 81.6783 89.8545 85.4686C91.2718 88.4781 93.7059 94.3946 88.8273 102.396Z" fill="white"/>
<defs>
<filter id="filter0_bd" x="0" y="0" width="151.467" height="151.467" filterUnits="userSpaceOnUse" color-interpolation-filters="sRGB">
<feFlood flood-opacity="0" result="BackgroundImageFix"/>
<feGaussianBlur in="BackgroundImage" stdDeviation="2"/>
<feComposite in2="SourceAlpha" operator="in" result="effect1_backgroundBlur"/>
<feColorMatrix in="SourceAlpha" type="matrix" values="0 0 0 0 0 0 0 0 0 0 0 0 0 0 0 0 0 0 127 0" result="hardAlpha"/>
<feOffset/>
<feGaussianBlur stdDeviation="7"/>
<feComposite in2="hardAlpha" operator="out"/>
<feColorMatrix type="matrix" values="0 0 0 0 1 0 0 0 0 0.886275 0 0 0 0 0 0 0 0 1 0"/>
<feBlend mode="normal" in2="effect1_backgroundBlur" result="effect2_dropShadow"/>
<feBlend mode="normal" in="SourceGraphic" in2="effect2_dropShadow" result="shape"/>
</filter>
<linearGradient id="paint0_linear" x1="75.7333" y1="19" x2="75.7333" y2="184.902" gradientUnits="userSpaceOnUse">
<stop stop-color="#08021E"/>
<stop offset="1" stop-color="#120446"/>
</linearGradient>
</defs>
</svg>
