<svg width="24" height="24" viewBox="0 0 24 24" fill="none" xmlns="http://www.w3.org/2000/svg">
<g clip-path="url(#clip0)">
<path fill-rule="evenodd" clip-rule="evenodd" d="M12 0C5.37308 0 0 5.50947 0 12.3046C0 17.7407 3.43766 22.3537 8.20666 23.9796C8.80676 24.0937 9.02732 23.7127 9.02732 23.3867C9.02732 23.0933 9.0154 22.1234 9.01143 21.0965C5.67114 21.8402 4.96771 19.6458 4.96771 19.6458C4.42126 18.2236 3.63636 17.8446 3.63636 17.8446C2.54744 17.0806 3.71783 17.0969 3.71783 17.0969C4.92201 17.1845 5.55787 18.3642 5.55787 18.3642C6.62891 20.2448 8.36562 19.7008 9.04918 19.3871C9.15648 18.5924 9.46846 18.0484 9.81023 17.7407C7.14555 17.429 4.34377 16.3736 4.34377 11.6608C4.34377 10.318 4.81272 9.2198 5.57973 8.35793C5.45455 8.04822 5.04521 6.79718 5.69498 5.10196C5.69498 5.10196 6.70243 4.77188 8.99553 6.36319C9.9533 6.09016 10.9786 5.95365 12 5.94957C13.0194 5.95365 14.0467 6.09016 15.0065 6.36319C17.2976 4.77188 18.303 5.10196 18.303 5.10196C18.9568 6.79718 18.5455 8.04822 18.4203 8.35793C19.1893 9.2198 19.6542 10.318 19.6542 11.6608C19.6542 16.3858 16.8465 17.427 14.1759 17.7326C14.6071 18.1136 14.9906 18.8634 14.9906 20.0105C14.9906 21.6569 14.9767 22.9812 14.9767 23.3867C14.9767 23.7148 15.1932 24.0978 15.8013 23.9776C20.5663 22.3496 24 17.7387 24 12.3046C24 5.50947 18.6269 0 12 0Z" fill="white"/>
<path d="M4.54454 17.6653C4.51871 17.7265 4.42333 17.7448 4.33788 17.702C4.25045 17.6613 4.20276 17.5777 4.23058 17.5166C4.25641 17.4534 4.34981 17.4371 4.43724 17.4779C4.52467 17.5207 4.57435 17.6042 4.54454 17.6653Z" fill="white"/>
<path d="M5.03146 18.2216C4.97383 18.2766 4.86256 18.2501 4.78705 18.1646C4.70756 18.079 4.69365 17.9649 4.75128 17.9099C4.81089 17.8549 4.91819 17.8814 4.99768 17.9669C5.07517 18.0525 5.09107 18.1666 5.03146 18.2216Z" fill="white"/>
<path d="M5.50431 18.9307C5.43078 18.9837 5.30957 18.9348 5.23605 18.8247C5.16253 18.7147 5.16253 18.5843 5.23804 18.5313C5.31156 18.4784 5.43078 18.5252 5.50629 18.6353C5.57981 18.7453 5.57981 18.8777 5.50431 18.9307Z" fill="white"/>
<path d="M6.15202 19.6152C6.08645 19.6906 5.94536 19.6702 5.84402 19.5683C5.73871 19.4685 5.71089 19.3279 5.77646 19.2545C5.84402 19.1792 5.98312 19.2016 6.08645 19.3014C6.18977 19.3992 6.22157 19.5418 6.15202 19.6152Z" fill="white"/>
<path d="M7.04604 20.0125C7.01623 20.1083 6.88111 20.1531 6.74599 20.1124C6.61087 20.0696 6.52145 19.9575 6.54927 19.8597C6.57709 19.7619 6.71221 19.7171 6.84932 19.7599C6.98643 19.8027 7.07386 19.9147 7.04604 20.0125Z" fill="white"/>
<path d="M8.02784 20.0858C8.03181 20.1877 7.91656 20.2712 7.77349 20.2733C7.63042 20.2774 7.51318 20.1938 7.51318 20.094C7.51318 19.9921 7.62645 19.9086 7.76952 19.9065C7.9106 19.9045 8.02784 19.986 8.02784 20.0858Z" fill="white"/>
<path d="M8.94193 19.927C8.95981 20.0269 8.86046 20.1267 8.71739 20.1552C8.57829 20.1817 8.44913 20.1206 8.43125 20.0228C8.41336 19.9209 8.5147 19.8191 8.6538 19.7926C8.79687 19.7661 8.92404 19.8272 8.94193 19.927Z" fill="white"/>
</g>
<defs>
<clipPath id="clip0">
<rect width="24" height="24" fill="white"/>
</clipPath>
</defs>
</svg>
