<svg xmlns="http://www.w3.org/2000/svg">
<defs>
<font id="GTAmerica-CondensedBold" horiz-adv-x="544" >
  <font-face 
    font-family="GT America Condensed Bold"
    font-weight="700"
    font-stretch="condensed"
    units-per-em="1000"
    panose-1="0 0 8 6 0 0 0 0 0 0"
    ascent="800"
    descent="-200"
    x-height="500"
    cap-height="710"
    bbox="-433 -241 1133 968"
    underline-thickness="50"
    underline-position="-100"
    stemh="119"
    stemv="155"
    unicode-range="U+000D-FB02"
  />
<missing-glyph horiz-adv-x="1018" 
d="M998 663h-552v-47h552v-48h-552v-47h552v-48h-552v-47h552v-47h-552v-48h552v-47h-978v426h978v-47zM67 667l13 9h-16l-5 15l-4 -15h-16l13 -9l-5 -15l12 9l13 -9zM142 676h-16l13 -9l-5 -15l12 10l13 -10l-5 15l12 9h-15l-5 15zM229 676h-16l13 -9l-5 -15l12 10l13 -10
l-5 15l12 9h-15l-5 15zM315 676h-15l13 -9l-5 -15l12 10l13 -10l-5 15l12 9h-15l-5 15zM415 667l12 9h-15l-5 15l-5 -15h-15l12 -9l-4 -15l12 10l13 -10zM98 632h-15l12 -9l-4 -14l12 9l12 -9l-4 14l12 9h-15l-5 15zM371 623l13 9h-16l-4 15l-5 -15h-15l12 -9l-5 -14l13 9
l12 -9zM273 364v93h94v80h-94v94h-80v-94h-93v-80h93v-93h80zM67 580l13 9h-16l-5 14l-4 -14h-16l13 -9l-5 -15l12 9l13 -9zM142 589h-16l13 -9l-5 -15l12 9l13 -9l-5 15l12 9h-15l-5 14zM315 589h-15l13 -9l-5 -15l12 9l13 -9l-5 15l12 9h-15l-5 14zM415 580l12 9h-15
l-5 14l-5 -14h-15l12 -9l-4 -15l12 9l13 -9zM67 492l13 10h-16l-5 14l-4 -14h-16l13 -10l-5 -14l12 9l13 -9zM415 492l12 10h-15l-5 14l-5 -14h-15l12 -10l-4 -14l12 9l13 -9zM67 405l13 9h-16l-5 15l-4 -15h-16l13 -9l-5 -14l12 9l13 -9zM154 405l12 9h-15l-5 15l-4 -15
h-16l13 -9l-5 -14l12 9l13 -9zM328 405l12 9h-15l-5 15l-5 -15h-15l13 -9l-5 -14l12 9l13 -9zM415 405l12 9h-15l-5 15l-5 -15h-15l12 -9l-4 -14l12 9l13 -9zM115 347l-4 15l12 9h-15l-5 14l-5 -14h-15l12 -9l-4 -15l12 9zM376 347l-5 15l13 9h-16l-4 14l-5 -14h-15l12 -9

<glyph glyph-name="fi" unicode="fi" horiz-adv-x="602" 
d="M326 500v-100h-96v-400h-147v400h-68v100h68v61c0 112 60 170 176 170c23 0 46 -2 67 -7v-110c-14 2 -26 4 -37 4c-40 0 -59 -21 -59 -64v-54h96zM395 571v141h152v-141h-152zM399 0v500h145v-500h-145z" />
    <glyph glyph-name="fl" unicode="fl" horiz-adv-x="610" 
d="M326 500v-100h-96v-400h-147v400h-68v100h68v61c0 112 60 170 176 170c23 0 46 -2 67 -7v-110c-14 2 -26 4 -37 4c-40 0 -59 -21 -59 -64v-54h96zM549 725v-725h-147v725h147z" />
    <glyph glyph-name="g_g.liga" unicode="gg" horiz-adv-x="943" 
d="M329 498c14 54 55 87 120 87c8 0 14 0 22 -2v-102c-15 3 -27 5 -43 5c-19 0 -36 -4 -50 -14c37 -28 57 -69 57 -121v-20c0 -101 -75 -161 -200 -161c-29 0 -56 3 -80 10c-7 -6 -11 -13 -11 -23c0 -22 17 -33 56 -37l95 -9c106 -8 158 -58 158 -142v-11
c0 -101 -78 -165 -227 -165c-127 0 -209 41 -209 115v6c0 45 33 76 84 92c-45 17 -68 49 -68 91c0 51 33 84 80 99c-49 27 -77 73 -77 134v21c0 101 75 161 199 161c35 0 67 -5 94 -14zM935 481c-15 4 -27 5 -43 5c-21 0 -39 -4 -53 -14c36 -28 56 -69 56 -121v-21
c0 -100 -75 -160 -199 -160c-26 0 -50 3 -71 8c-6 -6 -9 -12 -9 -21c0 -22 16 -34 57 -37l101 -10c108 -8 159 -58 159 -142v-10c0 -102 -85 -165 -233 -165c-127 0 -209 40 -209 115v6c0 45 32 75 83 92c-47 16 -70 48 -70 91c0 48 30 81 74 97c-53 26 -82 73 -82 136v21
c0 101 75 161 200 161c35 0 67 -5 94 -14c14 54 56 87 122 87c9 0 15 0 23 -2v-102zM296 320v41c0 46 -24 74 -61 74c-36 0 -60 -28 -60 -74v-41c0 -46 24 -73 60 -73c37 0 61 27 61 73zM756 320v41c0 46 -24 74 -60 74c-37 0 -61 -28 -61 -74v-41c0 -46 24 -73 61 -73
c36 0 60 27 60 73zM266 -13l-105 7c-4 0 -9 1 -13 1c-11 -11 -17 -26 -17 -45v-8c0 -46 37 -66 100 -66c67 0 96 20 96 56v8c0 30 -22 44 -61 47zM746 -14l-113 8l-10 1c-11 -11 -17 -26 -17 -45v-8c0 -46 38 -66 100 -66c68 0 100 19 100 56v7c0 30 -21 44 -60 47z" />
    <glyph glyph-name=".notdef" horiz-adv-x="1018" 
d="M998 663h-552v-47h552v-48h-552v-47h552v-48h-552v-47h552v-47h-552v-48h552v-47h-978v426h978v-47zM67 667l13 9h-16l-5 15l-4 -15h-16l13 -9l-5 -15l12 9l13 -9zM142 676h-16l13 -9l-5 -15l12 10l13 -10l-5 15l12 9h-15l-5 15zM229 676h-16l13 -9l-5 -15l12 10l13 -10
l-5 15l12 9h-15l-5 15zM315 676h-15l13 -9l-5 -15l12 10l13 -10l-5 15l12 9h-15l-5 15zM415 667l12 9h-15l-5 15l-5 -15h-15l12 -9l-4 -15l12 10l13 -10zM98 632h-15l12 -9l-4 -14l12 9l12 -9l-4 14l12 9h-15l-5 15zM371 623l13 9h-16l-4 15l-5 -15h-15l12 -9l-5 -14l13 9
l12 -9zM273 364v93h94v80h-94v94h-80v-94h-93v-80h93v-93h80zM67 580l13 9h-16l-5 14l-4 -14h-16l13 -9l-5 -15l12 9l13 -9zM142 589h-16l13 -9l-5 -15l12 9l13 -9l-5 15l12 9h-15l-5 14zM315 589h-15l13 -9l-5 -15l12 9l13 -9l-5 15l12 9h-15l-5 14zM415 580l12 9h-15
l-5 14l-5 -14h-15l12 -9l-4 -15l12 9l13 -9zM67 492l13 10h-16l-5 14l-4 -14h-16l13 -10l-5 -14l12 9l13 -9zM415 492l12 10h-15l-5 14l-5 -14h-15l12 -10l-4 -14l12 9l13 -9zM67 405l13 9h-16l-5 15l-4 -15h-16l13 -9l-5 -14l12 9l13 -9zM154 405l12 9h-15l-5 15l-4 -15
h-16l13 -9l-5 -14l12 9l13 -9zM328 405l12 9h-15l-5 15l-5 -15h-15l13 -9l-5 -14l12 9l13 -9zM415 405l12 9h-15l-5 15l-5 -15h-15l12 -9l-4 -14l12 9l13 -9zM115 347l-4 15l12 9h-15l-5 14l-5 -14h-15l12 -9l-4 -15l12 9zM376 347l-5 15l13 9h-16l-4 14l-5 -14h-15l12 -9
l-5 -15l13 9zM72 303l-5 15l13 9h-16l-5 15l-4 -15h-16l13 -9l-5 -15l12 9zM159 303l-5 15l12 9h-15l-5 15l-4 -15h-16l13 -9l-5 -15l12 9zM246 303l-5 15l12 9h-15l-5 15l-4 -15h-16l13 -9l-5 -15l12 9zM333 303l-5 15l12 9h-15l-5 15l-5 -15h-15l13 -9l-5 -15l12 9z
M420 303l-5 15l12 9h-15l-5 15l-5 -15h-15l12 -9l-4 -15l12 9zM20 189v48h977v-48h-977zM20 95v47h978v-47h-978zM20 0v47h978v-47h-978z" />
    <glyph glyph-name=".null" horiz-adv-x="0" 
 />
    <glyph glyph-name=".null" horiz-adv-x="0" 
 />
    <glyph glyph-name="CR" unicode="&#xd;" horiz-adv-x="0" 
 />
    <glyph glyph-name="space" unicode=" " horiz-adv-x="208" 
 />
    <glyph glyph-name="exclam" unicode="!" horiz-adv-x="294" 
d="M85 229l-22 490h169l-23 -490h-124zM228 152v-152h-162v152h162z" />
    <glyph glyph-name="quotedbl" unicode="&#x22;" horiz-adv-x="413" 
d="M64 418l-17 292h135l-16 -292h-102zM248 418l-17 292h135l-16 -292h-102z" />
    <glyph glyph-name="numbersign" unicode="#" horiz-adv-x="589" 
d="M583 412h-116l-23 -129h105v-101h-123l-32 -182h-113l32 182h-97l-32 -182h-113l32 182h-97v101h115l23 129h-98v101h115l32 179h112l-31 -179h97l32 179h113l-32 -179h99v-101zM331 283l23 129h-98l-23 -129h98z" />
    <glyph glyph-name="dollar" unicode="$" horiz-adv-x="533" 
d="M521 198c0 -118 -87 -202 -226 -212v-93h-55v93c-124 8 -206 76 -237 185l119 61c19 -77 59 -122 118 -134v207l-48 12c-113 27 -163 106 -163 200c0 116 85 184 211 192v87h55v-87c102 -8 185 -58 215 -166l-109 -59c-17 70 -53 108 -106 119v-188l62 -16
c120 -31 164 -97 164 -201zM161 521c0 -38 21 -71 79 -91v175c-51 -6 -79 -36 -79 -84zM295 95c56 5 90 38 90 92c0 50 -19 85 -90 104v-196z" />
    <glyph glyph-name="percent" unicode="%" horiz-adv-x="772" 
d="M121 -14l438 741h95l-436 -741h-97zM183 338c-104 0 -171 71 -171 191c0 117 67 187 171 187s171 -69 171 -187c0 -120 -67 -191 -171 -191zM183 422c36 0 59 27 59 107c0 77 -23 103 -59 103s-60 -25 -60 -103c0 -80 24 -107 60 -107zM590 -10c-104 0 -171 71 -171 191
c0 117 67 187 171 187s171 -69 171 -187c0 -120 -67 -191 -171 -191zM590 74c36 0 59 27 59 107c0 77 -23 103 -59 103s-60 -25 -60 -103c0 -80 24 -107 60 -107z" />
    <glyph glyph-name="ampersand" unicode="&#x26;" horiz-adv-x="618" 
d="M581 110c16 0 21 1 27 2v-113c-18 -5 -36 -7 -57 -7c-43 0 -81 15 -118 46c-52 -38 -115 -55 -182 -55c-144 0 -237 79 -237 203c0 82 37 136 128 192c-55 71 -76 117 -76 185c0 111 74 174 191 174c118 0 190 -63 190 -168c0 -88 -47 -141 -125 -190l-8 -6l116 -141
c13 41 22 94 24 160l118 -28c-3 -97 -23 -174 -56 -232c20 -16 40 -22 65 -22zM259 644c-36 0 -56 -21 -56 -76c0 -36 13 -68 52 -122c42 26 59 69 59 118c0 56 -21 80 -55 80zM165 199c0 -59 43 -103 106 -103c30 0 60 8 86 26l-150 178c-31 -28 -42 -58 -42 -101z" />
    <glyph glyph-name="quotesingle" unicode="'" horiz-adv-x="229" 
d="M64 418l-17 292h135l-16 -292h-102z" />
    <glyph glyph-name="parenleft" unicode="(" horiz-adv-x="315" 
d="M205 -140c-100 126 -159 296 -159 468s59 334 159 454l113 -43c-91 -124 -133 -257 -133 -413s41 -290 134 -421z" />
    <glyph glyph-name="parenright" unicode=")" horiz-adv-x="315" 
d="M110 -140l-114 45c93 131 134 265 134 421s-42 289 -133 413l113 43c100 -120 159 -282 159 -454s-59 -342 -159 -468z" />
    <glyph glyph-name="asterisk" unicode="*" horiz-adv-x="360" 
d="M356 552l-128 -16l99 -92l-92 -65l-55 120l-55 -120l-92 65l99 92l-128 16l36 108l110 -66l-26 126h113l-26 -125l109 65z" />
    <glyph glyph-name="plus" unicode="+" horiz-adv-x="496" 
d="M458 380v-102h-155v-168h-111v168h-154v102h154v157h111v-157h155z" />
    <glyph glyph-name="comma" unicode="," horiz-adv-x="255" 
d="M88 -156l-34 68c52 18 63 41 63 85v3h-70v163h161v-153c0 -84 -34 -138 -120 -166z" />
    <glyph glyph-name="hyphen" unicode="-" horiz-adv-x="360" 
d="M38 343h284v-130h-284v130z" />
    <glyph glyph-name="period" unicode="." horiz-adv-x="249" 
d="M202 163v-163h-155v163h155z" />
    <glyph glyph-name="slash" unicode="/" horiz-adv-x="451" 
d="M174 -117h-131l235 877h130z" />
    <glyph glyph-name="zero" unicode="0" horiz-adv-x="574" 
d="M287 -15c-159 0 -255 89 -255 362c0 274 96 363 255 363c160 0 256 -89 256 -363c0 -273 -96 -362 -256 -362zM287 103c63 0 99 42 99 244s-36 245 -99 245c-62 0 -99 -43 -99 -245s37 -244 99 -244z" />
    <glyph glyph-name="one" unicode="1" horiz-adv-x="376" 
d="M147 0v486c-24 -22 -66 -32 -109 -32h-20v138h14c72 1 120 34 143 103h120v-695h-148z" />
    <glyph glyph-name="two" unicode="2" horiz-adv-x="515" 
d="M24 0v111c102 87 173 149 222 208c53 63 75 117 75 182c0 60 -24 90 -70 90c-47 0 -73 -31 -73 -88c0 -20 3 -40 6 -63l-156 17c-3 17 -5 35 -5 52c0 124 90 201 234 201c146 0 226 -62 226 -205c0 -79 -31 -151 -94 -224c-41 -49 -95 -95 -172 -160h271v-121h-464z" />
    <glyph glyph-name="three" unicode="3" horiz-adv-x="519" 
d="M258 -15c-151 0 -237 77 -239 228l155 15c0 -85 31 -126 83 -126c50 0 77 32 77 95c0 71 -30 103 -95 103h-31v109h30c58 0 86 36 86 101c0 61 -24 85 -69 85c-53 0 -79 -35 -79 -125l-153 19c0 144 88 221 235 221c143 0 223 -64 223 -187c0 -80 -45 -145 -123 -163
c88 -14 135 -73 135 -167c0 -131 -89 -208 -235 -208z" />
    <glyph glyph-name="four" unicode="4" horiz-adv-x="518" 
d="M511 152h-88v-152h-146v152h-270v106l247 437h169v-431h88v-112zM281 468c0 31 0 55 2 80h-2c-7 -25 -17 -47 -33 -77l-81 -149c-14 -27 -24 -43 -36 -58h150v204z" />
    <glyph glyph-name="five" unicode="5" horiz-adv-x="515" 
d="M256 -15c-135 0 -221 76 -232 198l151 21c6 -65 34 -102 80 -102c54 0 83 45 83 132c0 84 -28 127 -80 127c-43 0 -72 -27 -83 -75l-138 13l32 396h389v-122h-274l-14 -164c27 42 74 64 136 64c118 0 185 -83 185 -235c0 -161 -86 -253 -235 -253z" />
    <glyph glyph-name="six" unicode="6" horiz-adv-x="527" 
d="M318 470c109 0 185 -76 185 -230c0 -157 -88 -255 -228 -255c-163 0 -247 107 -247 361c0 261 91 364 247 364c135 0 209 -61 220 -182l-149 -21c-6 59 -29 90 -74 90c-59 0 -91 -49 -95 -194c29 43 75 67 141 67zM271 99c52 0 83 42 83 134c0 85 -32 125 -84 125
c-44 0 -76 -28 -93 -77c3 -132 37 -182 94 -182z" />
    <glyph glyph-name="seven" unicode="7" horiz-adv-x="455" 
d="M100 0v24c1 203 76 390 200 546h-287v125h433v-109c-123 -149 -186 -326 -186 -532v-54h-160z" />
    <glyph glyph-name="eight" unicode="8" horiz-adv-x="533" 
d="M389 380c83 -35 123 -90 123 -187c0 -129 -97 -208 -247 -208s-244 77 -244 201c0 79 38 132 119 161c-70 33 -105 86 -105 171c0 117 90 192 226 192c137 0 228 -67 228 -182c0 -73 -30 -118 -100 -148zM262 608c-51 0 -80 -29 -80 -88c0 -54 27 -80 87 -101l22 -7
c37 22 52 52 52 104c0 60 -29 92 -81 92zM267 96c56 0 90 34 90 97c0 62 -27 88 -91 111l-26 8c-45 -24 -64 -57 -64 -116c0 -64 34 -100 91 -100z" />
    <glyph glyph-name="nine" unicode="9" horiz-adv-x="525" 
d="M256 710c160 0 241 -79 241 -358c0 -283 -82 -367 -245 -367c-130 0 -209 68 -220 188l147 23c6 -60 34 -96 79 -96c60 0 90 41 93 207c-28 -41 -76 -60 -131 -60c-122 0 -196 85 -196 225c0 144 85 238 232 238zM257 360c43 0 78 26 95 77c-3 128 -34 162 -94 162
c-54 0 -85 -40 -85 -121c0 -73 32 -118 84 -118z" />
    <glyph glyph-name="colon" unicode=":" horiz-adv-x="249" 
d="M202 500v-163h-155v163h155zM202 163v-163h-155v163h155z" />
    <glyph glyph-name="semicolon" unicode=";" horiz-adv-x="256" 
d="M203 516v-163h-155v163h155zM89 -156l-34 68c52 18 63 41 63 85v3h-70v163h161v-153c0 -84 -34 -138 -120 -166z" />
    <glyph glyph-name="less" unicode="&#x3c;" 
d="M452 84l-399 187v110l399 187v-121l-279 -120l279 -120v-123z" />
    <glyph glyph-name="equal" unicode="=" horiz-adv-x="496" 
d="M38 367v104h420v-104h-420zM38 187v104h420v-104h-420z" />
    <glyph glyph-name="greater" unicode="&#x3e;" 
d="M92 84v123l279 120l-279 120v121l399 -187v-110z" />
    <glyph glyph-name="question" unicode="?" horiz-adv-x="469" 
d="M150 215v43c0 50 20 88 60 125l44 42c30 29 45 67 45 116c0 50 -24 83 -67 83c-47 0 -73 -32 -73 -89c0 -21 2 -42 7 -63l-150 12c-6 24 -7 43 -7 63c0 118 82 190 223 190c140 0 222 -65 222 -189c0 -70 -29 -126 -73 -168l-44 -44c-27 -28 -40 -52 -40 -91v-30h-147z
M146 0v157h156v-157h-156z" />
    <glyph glyph-name="at" unicode="@" horiz-adv-x="737" 
d="M377 -99c-215 0 -348 128 -348 375c0 244 141 384 347 384c204 0 332 -120 332 -358c0 -172 -59 -236 -158 -236c-64 0 -110 28 -122 77c-20 -49 -62 -77 -117 -77c-73 0 -121 48 -121 121c0 75 47 114 144 132l84 15v32c0 42 -12 62 -44 62s-51 -18 -51 -72h-122
c1 101 68 154 174 154c107 0 161 -49 161 -148v-162c0 -45 12 -64 39 -64c38 0 60 40 60 163c0 201 -93 297 -261 297c-167 0 -270 -108 -270 -320c0 -208 110 -309 282 -309c54 0 113 13 156 35l24 -58c-52 -28 -115 -43 -189 -43zM358 151c38 0 61 28 61 71v48l-45 -8
c-41 -9 -59 -29 -59 -61v-1c0 -29 17 -49 43 -49z" />
    <glyph glyph-name="A" unicode="A" horiz-adv-x="613" 
d="M444 0l-40 165h-196l-40 -165h-156l200 710h189l199 -710h-156zM235 276h142l-50 209c-7 33 -14 61 -20 102h-2c-5 -41 -12 -69 -20 -102z" />
    <glyph glyph-name="B" unicode="B" horiz-adv-x="578" 
d="M425 373c81 -18 126 -79 126 -172c0 -118 -73 -201 -221 -201h-268v710h259c148 0 217 -79 217 -189c0 -72 -39 -129 -113 -148zM287 603h-70v-190h71c64 0 89 38 89 98c0 55 -27 92 -90 92zM295 107c66 0 94 40 94 102c0 67 -30 104 -93 104h-79v-206h78z" />
    <glyph glyph-name="C" unicode="C" horiz-adv-x="596" 
d="M306 -17c-180 0 -277 92 -277 372c0 276 108 372 278 372c155 0 252 -86 256 -260l-154 -28c-5 128 -38 164 -103 164c-73 0 -118 -57 -118 -247s42 -248 119 -248c61 0 97 44 104 165l153 -33c-12 -168 -109 -257 -258 -257z" />
    <glyph glyph-name="D" unicode="D" horiz-adv-x="619" 
d="M62 0v710h231c184 0 297 -105 297 -354c0 -252 -114 -356 -299 -356h-229zM217 113h74c91 0 138 87 138 243c0 177 -44 241 -137 241h-75v-484z" />
    <glyph glyph-name="E" unicode="E" horiz-adv-x="509" 
d="M217 117h259v-117h-414v710h407v-117h-252v-171h237v-116h-237v-189z" />
    <glyph glyph-name="F" unicode="F" horiz-adv-x="487" 
d="M469 591h-252v-173h236v-117h-236v-301h-155v710h407v-119z" />
    <glyph glyph-name="G" unicode="G" horiz-adv-x="617" 
d="M273 -17c-157 0 -244 116 -244 379c0 252 104 365 283 365c158 0 246 -82 256 -223l-153 -29c-7 88 -37 135 -105 135c-79 0 -120 -62 -120 -248c0 -196 39 -259 123 -259c73 0 108 60 108 157v18h-122v116h270v-394h-113l-6 109c-25 -78 -86 -126 -177 -126z" />
    <glyph glyph-name="H" unicode="H" horiz-adv-x="637" 
d="M574 710v-710h-155v301h-202v-301h-155v710h155v-289h202v289h155z" />
    <glyph glyph-name="I" unicode="I" horiz-adv-x="280" 
d="M217 0h-155v710h155v-710z" />
    <glyph glyph-name="J" unicode="J" horiz-adv-x="355" 
d="M301 179c0 -139 -84 -191 -203 -191c-32 0 -64 2 -87 7v131c19 -3 38 -5 54 -5c48 0 82 23 82 90v499h154v-531z" />
    <glyph glyph-name="K" unicode="K" horiz-adv-x="602" 
d="M419 0l-134 312l-68 -105v-207h-155v710h155v-321l195 321h170l-189 -285l198 -425h-172z" />
    <glyph glyph-name="L" unicode="L" horiz-adv-x="463" 
d="M62 0v710h155v-580h233v-130h-388z" />
    <glyph glyph-name="M" unicode="M" horiz-adv-x="768" 
d="M62 0v710h212l94 -402c8 -36 13 -69 15 -95h3c2 26 7 60 15 96l92 401h212v-710h-138v421c0 42 1 94 3 136h-3c-3 -27 -8 -55 -14 -87l-109 -470h-123l-112 470c-7 32 -13 67 -14 86h-4c3 -40 3 -92 3 -135v-421h-132z" />
    <glyph glyph-name="N" unicode="N" horiz-adv-x="649" 
d="M62 0v710h169l179 -370c17 -36 27 -69 35 -118h2c-2 47 -2 94 -2 142v346h142v-710h-156l-190 388c-20 42 -29 77 -36 119h-2c1 -37 2 -89 2 -137v-370h-143z" />
    <glyph glyph-name="O" unicode="O" horiz-adv-x="623" 
d="M312 -17c-177 0 -283 107 -283 372c0 266 106 373 283 373c176 0 282 -107 282 -373c0 -265 -106 -372 -282 -372zM312 105c77 0 121 58 121 250c0 194 -44 250 -121 250c-78 0 -123 -56 -123 -250c0 -192 45 -250 123 -250z" />
    <glyph glyph-name="P" unicode="P" horiz-adv-x="561" 
d="M319 710c146 0 231 -83 231 -221c0 -144 -85 -226 -230 -226h-103v-263h-155v710h257zM291 372c62 0 96 40 96 117c0 76 -33 112 -96 112h-74v-229h74z" />
    <glyph glyph-name="Q" unicode="Q" horiz-adv-x="623" 
d="M440 8c26 -22 62 -25 87 -25c21 0 34 2 52 6v-123c-23 -4 -38 -6 -67 -6c-98 0 -165 46 -194 123h-6c-177 0 -283 107 -283 372c0 266 106 373 283 373c176 0 282 -107 282 -373c0 -193 -56 -302 -154 -347zM189 355c0 -192 45 -250 123 -250c77 0 121 58 121 250
c0 194 -44 250 -121 250c-78 0 -123 -56 -123 -250z" />
    <glyph glyph-name="R" unicode="R" horiz-adv-x="587" 
d="M400 0l-105 281h-78v-281h-155v710h253c165 0 237 -82 237 -213c0 -93 -41 -159 -114 -188l128 -309h-166zM217 382h75c68 0 97 43 97 115c0 70 -28 106 -97 106h-75v-221z" />
    <glyph glyph-name="S" unicode="S" horiz-adv-x="536" 
d="M269 -17c-144 0 -233 72 -266 201l136 60c23 -93 64 -137 136 -137c55 0 87 33 87 82c0 48 -19 76 -78 94l-102 32c-101 32 -148 105 -148 205c0 130 99 207 239 207c128 0 219 -52 248 -180l-126 -63c-20 88 -67 127 -128 127c-52 0 -85 -30 -85 -75
c0 -43 26 -74 82 -93l102 -34c106 -36 149 -99 149 -205c0 -129 -90 -221 -246 -221z" />
    <glyph glyph-name="T" unicode="T" horiz-adv-x="503" 
d="M500 710v-127h-171v-583h-155v583h-171v127h497z" />
    <glyph glyph-name="U" unicode="U" horiz-adv-x="613" 
d="M53 710h155v-492c0 -67 36 -107 98 -107s99 40 99 107v492h154v-499c0 -140 -92 -228 -253 -228c-160 0 -253 88 -253 228v499z" />
    <glyph glyph-name="V" unicode="V" horiz-adv-x="568" 
d="M190 0l-188 710h163l100 -460c9 -45 14 -76 17 -108h4c3 32 8 63 17 108l100 460h163l-188 -710h-188z" />
    <glyph glyph-name="W" unicode="W" horiz-adv-x="807" 
d="M145 0l-126 710h150l64 -447c3 -28 5 -58 6 -87h4c2 27 5 54 9 83l75 451h153l76 -451c4 -29 6 -56 9 -83h3c1 29 3 59 6 87l64 447h151l-126 -710h-178l-73 444c-4 30 -5 60 -6 87h-5c-1 -27 -2 -57 -6 -87l-73 -444h-177z" />
    <glyph glyph-name="X" unicode="X" horiz-adv-x="582" 
d="M7 0l181 373l-169 337h168l84 -189c9 -22 14 -40 18 -65h2c5 24 10 42 18 65l87 189h165l-167 -343l181 -367h-170l-96 218c-10 22 -16 41 -21 69h-2c-4 -23 -11 -44 -20 -68l-92 -219h-167z" />
    <glyph glyph-name="Y" unicode="Y" horiz-adv-x="541" 
d="M193 0v256l-194 454h163l93 -249c7 -25 12 -47 15 -73h3c3 26 7 48 15 73l91 249h163l-193 -454v-256h-156z" />
    <glyph glyph-name="Z" unicode="Z" horiz-adv-x="504" 
d="M26 113l276 472h-264v125h436v-112l-273 -474h286v-124h-461v113z" />
    <glyph glyph-name="bracketleft" unicode="[" horiz-adv-x="312" 
d="M62 -114v871h237v-104h-102v-663h102v-104h-237z" />
    <glyph glyph-name="backslash" unicode="\" horiz-adv-x="451" 
d="M277 -117l-234 877h130l235 -877h-131z" />
    <glyph glyph-name="bracketright" unicode="]" horiz-adv-x="312" 
d="M250 -114h-237v104h102v663h-102v104h237v-871z" />
    <glyph glyph-name="asciicircum" unicode="^" horiz-adv-x="443" 
d="M158 709h127l138 -262h-121l-80 168l-82 -168h-120z" />
    <glyph glyph-name="underscore" unicode="_" horiz-adv-x="414" 
d="M0 -90h414v-85h-414v85z" />
    <glyph glyph-name="grave" unicode="`" horiz-adv-x="600" 
d="M252 568h-117l-126 154h145z" />
    <glyph glyph-name="a" unicode="a" horiz-adv-x="505" 
d="M175 -12c-91 0 -147 58 -147 146c0 48 19 84 48 109c27 23 71 40 131 51l99 17v37c0 48 -17 69 -54 69c-47 0 -62 -30 -63 -85h-149c1 125 89 181 214 181c141 0 202 -56 202 -182v-205c0 -56 3 -90 11 -126h-144c-4 24 -7 54 -7 78c-15 -54 -70 -90 -141 -90zM236 86
c44 0 74 31 74 80v69l-57 -12c-47 -10 -71 -33 -71 -76c0 -37 19 -61 54 -61z" />
    <glyph glyph-name="b" unicode="b" horiz-adv-x="540" 
d="M333 -12c-62 0 -108 32 -128 87l-10 -75h-134v725h150v-297c22 53 68 84 131 84c107 0 166 -84 166 -262c0 -179 -60 -262 -175 -262zM278 93c49 0 72 38 72 157c0 117 -22 157 -71 157c-44 0 -71 -39 -71 -105v-103c0 -68 26 -106 70 -106z" />
    <glyph glyph-name="c" unicode="c" horiz-adv-x="484" 
d="M252 -12c-131 0 -224 82 -224 262c0 181 87 262 225 262c115 0 200 -62 208 -184l-146 -28c-3 78 -27 104 -65 104c-45 0 -72 -32 -72 -154c0 -120 26 -152 73 -152c39 0 62 31 65 108l145 -31c-7 -124 -99 -187 -209 -187z" />
    <glyph glyph-name="d" unicode="d" horiz-adv-x="539" 
d="M207 -12c-108 0 -175 83 -175 259c0 182 69 265 174 265c59 0 104 -28 123 -82v295h150v-725h-143v83c-21 -60 -70 -95 -129 -95zM262 93c45 0 69 38 69 107v101c0 67 -24 106 -67 106c-52 0 -76 -38 -76 -160c0 -118 24 -154 74 -154z" />
    <glyph glyph-name="e" unicode="e" horiz-adv-x="494" 
d="M463 284v-64h-289c2 -88 30 -125 84 -125c38 0 68 22 78 82l125 -37c-19 -98 -100 -152 -205 -152c-139 0 -228 75 -228 262c0 180 88 262 221 262c138 0 214 -86 214 -228zM174 302h141c0 96 -23 122 -68 122c-43 0 -71 -29 -73 -122z" />
    <glyph glyph-name="f" unicode="f" horiz-adv-x="341" 
d="M326 500v-100h-96v-400h-147v400h-68v100h68v61c0 112 60 170 176 170c23 0 46 -2 67 -7v-110c-14 2 -26 4 -37 4c-40 0 -59 -21 -59 -64v-54h96z" />
    <glyph glyph-name="g" unicode="g" horiz-adv-x="485" 
d="M481 481c-15 3 -28 5 -42 5c-22 0 -40 -5 -55 -15c39 -30 58 -75 58 -130c0 -103 -66 -169 -203 -169c-31 0 -58 3 -81 10c-8 -6 -12 -13 -12 -24c0 -22 17 -35 55 -37l122 -8c102 -7 158 -60 158 -146c0 -108 -89 -174 -247 -174c-138 0 -216 46 -216 118
c0 43 29 76 82 94c-43 16 -67 49 -67 91c0 50 32 85 85 101c-55 28 -83 79 -83 144c0 102 68 171 204 171c37 0 68 -5 95 -14c16 56 60 87 127 87c8 0 13 0 20 -2v-102zM239 246c40 0 61 31 61 95s-21 94 -61 94c-41 0 -62 -30 -62 -94s21 -95 62 -95zM296 -14l-136 7
c-4 0 -8 0 -11 1c-11 -13 -17 -29 -17 -48c0 -47 41 -73 108 -73c80 0 113 23 113 61c0 32 -18 50 -57 52z" />
    <glyph glyph-name="h" unicode="h" horiz-adv-x="532" 
d="M61 0v725h147v-309c25 64 72 97 138 97c90 0 135 -57 135 -173v-340h-149v323c0 53 -18 78 -56 78c-45 0 -68 -35 -68 -108v-293h-147z" />
    <glyph glyph-name="i" unicode="i" horiz-adv-x="261" 
d="M54 571v141h152v-141h-152zM58 0v500h145v-500h-145z" />
    <glyph glyph-name="j" unicode="j" horiz-adv-x="266" 
d="M57 571v141h152v-141h-152zM41 -201c-22 0 -52 2 -66 5v112c13 -2 26 -2 35 -2c37 0 51 16 51 65v521h147v-531c0 -109 -37 -170 -167 -170z" />
    <glyph glyph-name="k" unicode="k" horiz-adv-x="518" 
d="M348 0l-92 212l-48 -69v-143h-147v725h147v-434l132 209h165l-145 -190l149 -310h-161z" />
    <glyph glyph-name="l" unicode="l" horiz-adv-x="269" 
d="M208 725v-725h-147v725h147z" />
    <glyph glyph-name="m" unicode="m" horiz-adv-x="770" 
d="M58 500h141v-85c26 66 68 97 133 97c62 0 101 -30 121 -96c28 65 73 96 136 96c84 0 130 -58 130 -164v-348h-147v322c0 55 -16 79 -52 79c-38 0 -58 -31 -58 -93v-308h-147v322c0 54 -17 79 -51 79c-39 0 -59 -32 -59 -93v-308h-147v500z" />
    <glyph glyph-name="n" unicode="n" horiz-adv-x="529" 
d="M58 0v500h141v-89c28 67 75 101 143 101c91 0 136 -57 136 -173v-339h-149v318c0 57 -17 83 -57 83c-44 0 -67 -35 -67 -107v-294h-147z" />
    <glyph glyph-name="o" unicode="o" horiz-adv-x="510" 
d="M255 -12c-134 0 -227 76 -227 262s93 262 227 262s227 -76 227 -262s-93 -262 -227 -262zM255 90c45 0 74 34 74 160s-29 160 -74 160s-74 -34 -74 -160s29 -160 74 -160z" />
    <glyph glyph-name="p" unicode="p" horiz-adv-x="538" 
d="M58 -195v695h144v-79c22 56 72 91 137 91c107 0 167 -84 167 -262s-61 -262 -174 -262c-62 0 -103 33 -124 80v-263h-150zM276 93c49 0 72 38 72 157c0 117 -22 157 -71 157c-44 0 -71 -39 -71 -105v-103c0 -68 26 -106 70 -106z" />
    <glyph glyph-name="q" unicode="q" horiz-adv-x="535" 
d="M327 -195v273c-19 -53 -64 -90 -120 -90c-106 0 -175 81 -175 259c0 187 73 265 175 265c58 0 102 -27 122 -82l3 70h145v-695h-150zM260 93c46 0 69 39 69 107v101c0 66 -23 106 -68 106c-50 0 -73 -40 -73 -160c0 -117 23 -154 72 -154z" />
    <glyph glyph-name="r" unicode="r" horiz-adv-x="359" 
d="M195 380c19 78 64 131 142 131c4 0 6 0 10 -1v-147c-10 1 -19 2 -30 2c-37 0 -63 -11 -82 -31c-23 -25 -30 -63 -30 -108v-226h-147v500h137v-120z" />
    <glyph glyph-name="s" unicode="s" horiz-adv-x="445" 
d="M232 -12c-99 0 -183 38 -217 136l104 57c19 -58 64 -89 109 -89c39 0 59 19 59 47s-13 46 -56 55l-72 13c-86 17 -128 72 -128 150c0 91 79 155 198 155c101 0 175 -42 197 -125l-110 -51c-13 53 -48 77 -89 77c-36 0 -57 -18 -57 -46c0 -25 9 -43 47 -51l82 -16
c85 -17 125 -68 125 -149c0 -92 -73 -163 -192 -163z" />
    <glyph glyph-name="t" unicode="t" horiz-adv-x="348" 
d="M6 400v100h72v117l148 54v-171h100v-100h-100v-215c0 -45 20 -68 62 -68c16 0 27 1 40 3v-120c-29 -5 -54 -8 -83 -8c-117 0 -167 52 -167 155v253h-72z" />
    <glyph glyph-name="u" unicode="u" horiz-adv-x="526" 
d="M192 -12c-102 0 -141 64 -141 168v344h148v-322c0 -52 19 -78 57 -78c40 0 65 35 65 94v306h147v-500h-141v84c-21 -60 -70 -96 -135 -96z" />
    <glyph glyph-name="v" unicode="v" horiz-adv-x="452" 
d="M143 0l-145 500h152l62 -293c6 -31 9 -53 13 -81h3c3 28 7 50 13 81l61 293h153l-145 -500h-167z" />
    <glyph glyph-name="w" unicode="w" horiz-adv-x="674" 
d="M119 0l-110 500h143l46 -303c2 -21 4 -41 5 -62h3c2 21 4 41 7 61l58 304h132l58 -304c3 -20 6 -40 7 -61h2c2 21 3 41 6 62l46 303h143l-110 -500h-151l-60 296c-3 21 -5 46 -5 62h-4c0 -16 -2 -41 -5 -62l-60 -296h-151z" />
    <glyph glyph-name="x" unicode="x" horiz-adv-x="487" 
d="M7 0l147 261l-136 239h159l47 -102c9 -18 17 -37 20 -56h3c3 19 11 38 20 56l45 102h154l-135 -238l150 -262h-163l-56 118c-10 21 -18 39 -21 55h-2c-3 -16 -12 -34 -22 -55l-56 -118h-154z" />
    <glyph glyph-name="y" unicode="y" horiz-adv-x="457" 
d="M79 -202c-16 0 -35 2 -55 5v114c22 -3 32 -4 42 -4c48 0 74 20 86 62l6 23l-160 502h160l66 -293c6 -31 9 -57 11 -87h3c1 31 4 55 10 86l61 294h151l-151 -526c-36 -128 -107 -176 -230 -176z" />
    <glyph glyph-name="z" unicode="z" horiz-adv-x="412" 
d="M18 90l201 305h-190v105h356v-87l-197 -306h209v-107h-379v90z" />
    <glyph glyph-name="braceleft" unicode="{" horiz-adv-x="335" 
d="M264 -116c-115 0 -165 43 -165 148v149c0 62 -10 97 -75 99v98c67 2 74 32 74 95v150c0 93 59 143 167 143h54v-105h-23c-44 0 -63 -19 -63 -69v-120c0 -73 -17 -123 -90 -142c73 -23 89 -76 89 -148v-125c0 -51 19 -68 60 -68h30v-105h-58z" />
    <glyph glyph-name="bar" unicode="|" horiz-adv-x="227" 
d="M61 -117v877h106v-877h-106z" />
    <glyph glyph-name="braceright" unicode="}" horiz-adv-x="335" 
d="M71 -116h-58v105h30c41 0 60 17 60 68v125c0 72 16 125 89 148c-73 19 -90 69 -90 142v120c0 50 -19 69 -63 69h-23v105h54c108 0 167 -50 167 -143v-150c0 -63 7 -93 74 -95v-98c-65 -2 -75 -37 -75 -99v-149c0 -105 -50 -148 -165 -148z" />
    <glyph glyph-name="asciitilde" unicode="~" 
d="M359 213c-83 0 -116 68 -171 68c-31 0 -53 -20 -62 -60l-83 23c17 93 74 138 141 138c83 0 118 -68 171 -68c32 0 54 26 63 65l82 -25c-19 -94 -73 -141 -141 -141z" />
    <glyph glyph-name="uni00A0" unicode="&#xa0;" horiz-adv-x="208" 
 />
    <glyph glyph-name="exclamdown" unicode="&#xa1;" horiz-adv-x="294" 
d="M228 428h-162v152h162v-152zM85 351h124l23 -490h-169z" />
    <glyph glyph-name="cent" unicode="&#xa2;" horiz-adv-x="506" 
d="M287 90c45 9 67 42 69 116l127 -28c-10 -118 -85 -181 -196 -189v-93h-51v93c-130 10 -208 100 -208 259c0 163 76 253 208 263v83h51v-83c115 -8 187 -72 196 -188l-127 -22c-4 72 -26 103 -69 112v-323zM159 248c0 -96 26 -146 77 -157v322c-51 -12 -77 -65 -77 -165z
" />
    <glyph glyph-name="sterling" unicode="&#xa3;" horiz-adv-x="580" 
d="M426 197l143 -23c-10 -119 -76 -189 -179 -189c-83 0 -124 25 -216 25c-41 0 -85 -6 -132 -18l-38 100c83 28 122 81 122 165c0 22 -2 43 -5 62h-89v74h72c-7 33 -14 67 -14 109c0 134 81 208 219 208c136 0 214 -64 223 -200l-147 -28c-2 81 -29 118 -74 118
c-48 0 -71 -31 -71 -90c0 -45 8 -80 16 -117h138v-74h-125c1 -14 2 -28 2 -44c0 -74 -36 -132 -97 -159c19 5 40 7 63 7c47 0 76 -12 118 -12s66 30 71 86z" />
    <glyph glyph-name="currency" unicode="&#xa4;" horiz-adv-x="514" 
d="M466 273c0 -43 -11 -81 -31 -112l50 -56l-66 -63l-51 57c-31 -17 -67 -26 -107 -26c-42 0 -80 10 -112 28l-54 -60l-67 63l55 62c-18 30 -28 67 -28 109v52c0 44 10 83 29 114l-56 62l67 62l55 -59c31 18 69 27 111 27c39 0 75 -8 105 -24l53 57l66 -62l-51 -57
c21 -32 32 -72 32 -119v-55zM346 277v53c0 63 -36 98 -85 98s-86 -35 -86 -99v-52c0 -63 37 -99 86 -99s85 36 85 99z" />
    <glyph glyph-name="yen" unicode="&#xa5;" horiz-adv-x="522" 
d="M523 695l-180 -388h134v-68h-141v-49h141v-68h-141v-122h-150v122h-141v68h141v49h-141v68h134l-180 388h162l68 -188c14 -38 24 -68 31 -100h2c7 32 17 62 32 100l67 188h162z" />
    <glyph glyph-name="brokenbar" unicode="&#xa6;" horiz-adv-x="227" 
d="M166 760v-380h-105v380h105zM166 269v-386h-105v386h105z" />
    <glyph glyph-name="section" unicode="&#xa7;" horiz-adv-x="434" 
d="M354 187c44 -32 59 -70 59 -124c0 -85 -78 -158 -202 -158c-107 0 -180 49 -208 136l100 55c21 -60 60 -92 110 -92c38 0 61 17 61 47c0 32 -13 47 -71 74l-82 37c-80 36 -112 84 -112 153c0 57 29 99 81 122c-45 32 -64 70 -64 120c0 101 74 158 193 158
c96 0 167 -39 195 -118l-98 -56c-21 51 -54 76 -97 76c-36 0 -57 -17 -57 -46s11 -45 61 -67l82 -34c85 -35 117 -80 117 -152c0 -57 -24 -102 -68 -131zM133 336c0 -37 16 -54 78 -82l65 -27c18 13 26 30 26 56c0 37 -25 61 -81 88l-51 24c-25 -10 -37 -29 -37 -59z" />
    <glyph glyph-name="dieresis" unicode="&#xa8;" horiz-adv-x="600" 
d="M50 575v127h127v-127h-127zM245 575v127h127v-127h-127z" />
    <glyph glyph-name="copyright" unicode="&#xa9;" horiz-adv-x="717" 
d="M357 -17c-185 0 -328 125 -328 372s143 372 328 372s327 -125 327 -372s-142 -372 -327 -372zM357 40c147 0 262 103 262 315s-115 315 -262 315c-148 0 -262 -103 -262 -315s114 -315 262 -315zM363 142c-106 0 -169 69 -169 186v56c0 115 63 184 171 184
c94 0 153 -50 159 -137v-13l-96 -16v15c-3 47 -26 73 -64 73c-47 0 -74 -39 -74 -104v-60c0 -65 28 -105 74 -105c37 0 61 27 65 72v15l95 -18v-11c-10 -86 -70 -137 -161 -137z" />
    <glyph glyph-name="ordfeminine" unicode="&#xaa;" horiz-adv-x="409" 
d="M137 301c-68 0 -113 39 -113 106c0 76 46 102 132 117l81 14v28c0 28 -12 40 -37 40c-26 0 -40 -13 -41 -52h-125c4 87 66 130 167 130c112 0 162 -41 162 -135v-153c0 -36 3 -67 8 -86h-121c-3 16 -5 37 -5 53c-13 -38 -55 -62 -108 -62zM191 378c29 0 49 20 49 49v55
l-38 -8c-35 -7 -52 -21 -52 -54c0 -27 15 -42 41 -42z" />
    <glyph glyph-name="guillemotleft" unicode="&#xab;" horiz-adv-x="519" 
d="M153 67l-139 209l142 206h129l-139 -205l137 -210h-130zM366 67l-139 209l142 206h129l-139 -205l137 -210h-130z" />
    <glyph glyph-name="logicalnot" unicode="&#xac;" 
d="M60 386h413v-262h-106v158h-307v104z" />
    <glyph glyph-name="registered" unicode="&#xae;" horiz-adv-x="717" 
d="M357 727c185 0 327 -125 327 -372s-142 -372 -327 -372s-328 125 -328 372s143 372 328 372zM357 40c147 0 262 103 262 315s-115 315 -262 315c-148 0 -262 -103 -262 -315s114 -315 262 -315zM515 432c0 -51 -27 -89 -71 -106l82 -170h-101l-70 157h-35v-157h-94v406
h149c91 0 140 -42 140 -121v-9zM320 493v-114h40c36 0 57 18 57 52v11c0 35 -20 51 -57 51h-40z" />
    <glyph glyph-name="macron" unicode="&#xaf;" horiz-adv-x="600" 
d="M50 592v95h316v-95h-316z" />
    <glyph glyph-name="degree" unicode="&#xb0;" horiz-adv-x="372" 
d="M186 376c-95 0 -163 63 -163 165v11c0 102 67 165 163 165s163 -64 163 -165v-11c0 -102 -67 -165 -163 -165zM186 457c43 0 70 30 70 82v15c0 52 -27 82 -70 82s-71 -30 -71 -82v-15c0 -52 28 -82 71 -82z" />
    <glyph glyph-name="plusminus" unicode="&#xb1;" 
d="M326 379h158v-102h-158v-138h-111v138h-155v102h155v142h111v-142zM60 0v103h424v-103h-424z" />
    <glyph glyph-name="acute" unicode="&#xb4;" horiz-adv-x="600" 
d="M50 568l98 154h145l-126 -154h-117z" />
    <glyph glyph-name="uni00B5" unicode="&#xb5;" horiz-adv-x="533" 
d="M328 500h147v-500h-141v84c-21 -60 -70 -96 -135 -96h-10v-183h-131v695h148v-322c0 -52 19 -78 57 -78c40 0 65 35 65 94v306z" />
    <glyph glyph-name="paragraph" unicode="&#xb6;" horiz-adv-x="651" 
d="M267 334c-109 0 -214 45 -214 192c0 143 110 194 231 194h292v-72h-64v-747h-80v747h-85v-747h-80v433z" />
    <glyph glyph-name="periodcentered" unicode="&#xb7;" horiz-adv-x="249" 
d="M202 425v-163h-155v163h155z" />
    <glyph glyph-name="cedilla" unicode="&#xb8;" horiz-adv-x="600" 
d="M112 4h78l-28 -51c10 8 28 13 49 13c50 0 84 -28 84 -83v-4c0 -60 -49 -92 -123 -92c-62 0 -105 24 -120 66l82 20c6 -17 18 -24 35 -24c21 0 34 12 34 35v2c0 21 -13 33 -33 33c-13 0 -23 -5 -30 -15l-65 14z" />
    <glyph glyph-name="ordmasculine" unicode="&#xba;" horiz-adv-x="413" 
d="M207 301c-103 0 -178 56 -178 166v52c0 110 75 165 178 165s177 -55 177 -165v-52c0 -110 -74 -166 -177 -166zM207 384c31 0 49 24 49 77v64c0 54 -18 76 -49 76c-32 0 -50 -22 -50 -76v-64c0 -53 18 -77 50 -77z" />
    <glyph glyph-name="guillemotright" unicode="&#xbb;" horiz-adv-x="519" 
d="M153 67h-130l137 210l-139 205h129l142 -206zM366 67h-130l137 210l-139 205h129l142 -206z" />
    <glyph glyph-name="onequarter" unicode="&#xbc;" horiz-adv-x="719" 
d="M88 -17l401 744h97l-398 -744h-100zM96 333v250c-14 -9 -39 -13 -60 -13h-16v88h11c41 0 70 16 83 52h76v-377h-94zM707 79h-52v-79h-92v79h-161v67l143 231h110v-227h52v-71zM563 292l-83 -142h83v142z" />
    <glyph glyph-name="onehalf" unicode="&#xbd;" horiz-adv-x="753" 
d="M88 -17l401 744h97l-398 -744h-100zM96 333v250c-14 -9 -39 -13 -60 -13h-16v88h11c41 0 70 16 83 52h76v-377h-94zM451 0v71c92 62 172 124 172 196c0 29 -12 43 -37 43s-39 -16 -39 -43c0 -9 1 -19 2 -30l-97 11c-2 9 -2 18 -2 26c0 69 52 112 141 112
c86 0 133 -40 133 -114c0 -90 -76 -149 -152 -194h154v-78h-275z" />
    <glyph glyph-name="threequarters" unicode="&#xbe;" horiz-adv-x="800" 
d="M169 -17l401 744h97l-398 -744h-100zM162 325c-90 0 -143 41 -143 120l96 10c0 -40 18 -55 48 -55c28 0 42 14 42 45c0 33 -17 45 -58 45h-16v70h16c36 0 52 15 52 47c0 26 -14 38 -39 38c-28 0 -43 -18 -43 -58l-95 14c0 76 53 118 141 118c85 0 133 -36 133 -103
c0 -44 -27 -76 -72 -86c52 -7 79 -37 79 -89c0 -75 -52 -116 -141 -116zM788 79h-52v-79h-92v79h-161v67l143 231h110v-227h52v-71zM644 292l-83 -142h83v142z" />
    <glyph glyph-name="questiondown" unicode="&#xbf;" horiz-adv-x="464" 
d="M318 580v-157h-156v157h156zM314 365v-43c0 -50 -20 -88 -60 -125l-44 -42c-30 -29 -45 -67 -45 -116c0 -50 24 -83 67 -83c47 0 73 32 73 89c0 21 -2 42 -7 63l150 -12c6 -24 7 -43 7 -63c0 -118 -82 -190 -223 -190c-140 0 -222 65 -222 189c0 70 29 126 73 168l44 44
c27 28 40 52 40 91v30h147z" />
    <glyph glyph-name="Agrave" unicode="&#xc0;" horiz-adv-x="613" 
d="M361 753h-119l-109 115h137zM444 0l-40 165h-196l-40 -165h-156l200 710h189l199 -710h-156zM235 276h142l-50 209c-7 33 -14 61 -20 102h-2c-5 -41 -12 -69 -20 -102z" />
    <glyph glyph-name="Aacute" unicode="&#xc1;" horiz-adv-x="613" 
d="M474 868l-109 -115h-119l91 115h137zM444 0l-40 165h-196l-40 -165h-156l200 710h189l199 -710h-156zM235 276h142l-50 209c-7 33 -14 61 -20 102h-2c-5 -41 -12 -69 -20 -102z" />
    <glyph glyph-name="Acircumflex" unicode="&#xc2;" horiz-adv-x="613" 
d="M306 824l-59 -71h-116l95 115h159l95 -115h-116zM444 0l-40 165h-196l-40 -165h-156l200 710h189l199 -710h-156zM235 276h142l-50 209c-7 33 -14 61 -20 102h-2c-5 -41 -12 -69 -20 -102z" />
    <glyph glyph-name="Atilde" unicode="&#xc3;" horiz-adv-x="613" 
d="M242 796c-21 0 -33 -14 -40 -48l-77 25c9 71 50 111 111 111c69 0 94 -54 133 -54c21 0 33 14 40 48l77 -25c-9 -70 -50 -111 -111 -111c-69 0 -94 54 -133 54zM444 0l-40 165h-196l-40 -165h-156l200 710h189l199 -710h-156zM235 276h142l-50 209c-7 33 -14 61 -20 102
h-2c-5 -41 -12 -69 -20 -102z" />
    <glyph glyph-name="Adieresis" unicode="&#xc4;" horiz-adv-x="613" 
d="M268 863v-110h-124v110h124zM468 863v-110h-124v110h124zM444 0l-40 165h-196l-40 -165h-156l200 710h189l199 -710h-156zM235 276h142l-50 209c-7 33 -14 61 -20 102h-2c-5 -41 -12 -69 -20 -102z" />
    <glyph glyph-name="Aring" unicode="&#xc5;" horiz-adv-x="613" 
d="M306 742c-72 0 -121 46 -121 113s49 113 121 113s121 -46 121 -113s-49 -113 -121 -113zM306 907c-30 0 -49 -22 -49 -52s19 -51 49 -51s49 21 49 51s-19 52 -49 52zM444 0l-40 165h-196l-40 -165h-156l200 710h189l199 -710h-156zM235 276h142l-50 209
c-7 33 -14 61 -20 102h-2c-5 -41 -12 -69 -20 -102z" />
    <glyph glyph-name="AE" unicode="&#xc6;" horiz-adv-x="833" 
d="M552 117h248v-117h-402v162h-181l-66 -162h-154l318 710h478v-117h-241v-171h225v-116h-225v-189zM262 270h136v333z" />
    <glyph glyph-name="Ccedilla" unicode="&#xc7;" horiz-adv-x="596" 
d="M564 240c-11 -156 -95 -243 -226 -256l-17 -31c10 8 28 13 49 13c50 0 84 -28 84 -83v-4c0 -60 -49 -92 -123 -92c-62 0 -105 24 -120 66l82 20c6 -17 18 -24 35 -24c21 0 34 12 34 35v2c0 21 -13 33 -33 33c-13 0 -23 -5 -30 -15l-65 14l29 67
c-152 15 -234 113 -234 370c0 276 108 372 278 372c155 0 252 -86 256 -260l-154 -28c-5 128 -38 164 -103 164c-73 0 -118 -57 -118 -247s42 -248 119 -248c61 0 97 44 104 165z" />
    <glyph glyph-name="Egrave" unicode="&#xc8;" horiz-adv-x="509" 
d="M319 753h-119l-109 115h137zM217 117h259v-117h-414v710h407v-117h-252v-171h237v-116h-237v-189z" />
    <glyph glyph-name="Eacute" unicode="&#xc9;" horiz-adv-x="509" 
d="M432 868l-109 -115h-119l91 115h137zM217 117h259v-117h-414v710h407v-117h-252v-171h237v-116h-237v-189z" />
    <glyph glyph-name="Ecircumflex" unicode="&#xca;" horiz-adv-x="509" 
d="M264 824l-59 -71h-116l95 115h159l95 -115h-116zM217 117h259v-117h-414v710h407v-117h-252v-171h237v-116h-237v-189z" />
    <glyph glyph-name="Edieresis" unicode="&#xcb;" horiz-adv-x="509" 
d="M226 863v-110h-124v110h124zM426 863v-110h-124v110h124zM217 117h259v-117h-414v710h407v-117h-252v-171h237v-116h-237v-189z" />
    <glyph glyph-name="Igrave" unicode="&#xcc;" horiz-adv-x="280" 
d="M199 753h-118l-83 115h132zM217 0h-155v710h155v-710z" />
    <glyph glyph-name="Iacute" unicode="&#xcd;" horiz-adv-x="280" 
d="M82 753l69 115h132l-83 -115h-118zM217 0h-155v710h155v-710z" />
    <glyph glyph-name="Icircumflex" unicode="&#xce;" horiz-adv-x="280" 
d="M286 753h-108l-37 71l-37 -71h-108l65 115h159zM217 0h-155v710h155v-710z" />
    <glyph glyph-name="Idieresis" unicode="&#xcf;" horiz-adv-x="280" 
d="M3 753v110h119v-110h-119zM160 753v110h120v-110h-120zM217 0h-155v710h155v-710z" />
    <glyph glyph-name="Eth" unicode="&#xd0;" horiz-adv-x="619" 
d="M293 710c184 0 297 -105 297 -354c0 -252 -114 -356 -299 -356h-229v325h-60v87h60v298h231zM291 113c91 0 138 87 138 243c0 177 -44 241 -137 241h-75v-185h107v-87h-107v-212h74z" />
    <glyph glyph-name="Ntilde" unicode="&#xd1;" horiz-adv-x="649" 
d="M394 742c-69 0 -94 54 -133 54c-21 0 -33 -14 -40 -48l-77 25c9 71 50 111 111 111c69 0 94 -54 133 -54c21 0 33 14 40 48l77 -25c-9 -70 -50 -111 -111 -111zM62 0v710h169l179 -370c17 -36 27 -69 35 -118h2c-2 47 -2 94 -2 142v346h142v-710h-156l-190 388
c-20 42 -29 77 -36 119h-2c1 -37 2 -89 2 -137v-370h-143z" />
    <glyph glyph-name="Ograve" unicode="&#xd2;" horiz-adv-x="623" 
d="M369 753h-119l-109 115h137zM312 -17c-177 0 -283 107 -283 372c0 266 106 373 283 373c176 0 282 -107 282 -373c0 -265 -106 -372 -282 -372zM312 105c77 0 121 58 121 250c0 194 -44 250 -121 250c-78 0 -123 -56 -123 -250c0 -192 45 -250 123 -250z" />
    <glyph glyph-name="Oacute" unicode="&#xd3;" horiz-adv-x="623" 
d="M254 753l91 115h137l-109 -115h-119zM312 -17c-177 0 -283 107 -283 372c0 266 106 373 283 373c176 0 282 -107 282 -373c0 -265 -106 -372 -282 -372zM312 105c77 0 121 58 121 250c0 194 -44 250 -121 250c-78 0 -123 -56 -123 -250c0 -192 45 -250 123 -250z" />
    <glyph glyph-name="Ocircumflex" unicode="&#xd4;" horiz-adv-x="623" 
d="M488 753h-116l-58 71l-59 -71h-116l95 115h159zM312 -17c-177 0 -283 107 -283 372c0 266 106 373 283 373c176 0 282 -107 282 -373c0 -265 -106 -372 -282 -372zM312 105c77 0 121 58 121 250c0 194 -44 250 -121 250c-78 0 -123 -56 -123 -250
c0 -192 45 -250 123 -250z" />
    <glyph glyph-name="Otilde" unicode="&#xd5;" horiz-adv-x="623" 
d="M383 742c-69 0 -94 54 -133 54c-21 0 -33 -14 -40 -48l-77 25c9 71 50 111 111 111c69 0 94 -54 133 -54c21 0 33 14 40 48l77 -25c-9 -70 -50 -111 -111 -111zM312 -17c-177 0 -283 107 -283 372c0 266 106 373 283 373c176 0 282 -107 282 -373
c0 -265 -106 -372 -282 -372zM312 105c77 0 121 58 121 250c0 194 -44 250 -121 250c-78 0 -123 -56 -123 -250c0 -192 45 -250 123 -250z" />
    <glyph glyph-name="Odieresis" unicode="&#xd6;" horiz-adv-x="623" 
d="M152 753v110h124v-110h-124zM352 753v110h124v-110h-124zM312 -17c-177 0 -283 107 -283 372c0 266 106 373 283 373c176 0 282 -107 282 -373c0 -265 -106 -372 -282 -372zM312 105c77 0 121 58 121 250c0 194 -44 250 -121 250c-78 0 -123 -56 -123 -250
c0 -192 45 -250 123 -250z" />
    <glyph glyph-name="multiply" unicode="&#xd7;" 
d="M494 480l-147 -152l147 -152l-76 -77l-146 151l-147 -151l-76 76l148 153l-147 152l76 76l145 -150l145 150z" />
    <glyph glyph-name="Oslash" unicode="&#xd8;" horiz-adv-x="623" 
d="M526 633c44 -60 68 -151 68 -278c0 -265 -106 -372 -282 -372c-67 0 -124 15 -169 49l-40 -62l-48 32l46 72c-47 60 -72 152 -72 281c0 266 106 373 283 373c69 0 127 -16 172 -52l40 63l49 -32zM189 355c0 -52 3 -94 10 -127l204 321c-20 41 -51 56 -91 56
c-78 0 -123 -56 -123 -250zM312 105c77 0 121 58 121 250c0 48 -3 88 -8 120l-203 -318c21 -38 51 -52 90 -52z" />
    <glyph glyph-name="Ugrave" unicode="&#xd9;" horiz-adv-x="613" 
d="M361 753h-119l-109 115h137zM53 710h155v-492c0 -67 36 -107 98 -107s99 40 99 107v492h154v-499c0 -140 -92 -228 -253 -228c-160 0 -253 88 -253 228v499z" />
    <glyph glyph-name="Uacute" unicode="&#xda;" horiz-adv-x="613" 
d="M246 753l91 115h137l-109 -115h-119zM53 710h155v-492c0 -67 36 -107 98 -107s99 40 99 107v492h154v-499c0 -140 -92 -228 -253 -228c-160 0 -253 88 -253 228v499z" />
    <glyph glyph-name="Ucircumflex" unicode="&#xdb;" horiz-adv-x="613" 
d="M480 753h-116l-58 71l-59 -71h-116l95 115h159zM53 710h155v-492c0 -67 36 -107 98 -107s99 40 99 107v492h154v-499c0 -140 -92 -228 -253 -228c-160 0 -253 88 -253 228v499z" />
    <glyph glyph-name="Udieresis" unicode="&#xdc;" horiz-adv-x="613" 
d="M144 753v110h124v-110h-124zM344 753v110h124v-110h-124zM53 710h155v-492c0 -67 36 -107 98 -107s99 40 99 107v492h154v-499c0 -140 -92 -228 -253 -228c-160 0 -253 88 -253 228v499z" />
    <glyph glyph-name="Yacute" unicode="&#xdd;" horiz-adv-x="541" 
d="M211 753l91 115h137l-109 -115h-119zM193 0v256l-194 454h163l93 -249c7 -25 12 -47 15 -73h3c3 26 7 48 15 73l91 249h163l-193 -454v-256h-156z" />
    <glyph glyph-name="Thorn" unicode="&#xde;" horiz-adv-x="546" 
d="M312 591c139 0 223 -84 223 -215c0 -139 -85 -221 -224 -221h-94v-155h-155v710h155v-119h95zM277 262c61 0 95 40 95 114c0 69 -33 106 -95 106h-60v-220h60z" />
    <glyph glyph-name="germandbls" unicode="&#xdf;" horiz-adv-x="548" 
d="M56 522c0 141 75 215 220 215c135 0 214 -65 214 -182c0 -79 -48 -145 -130 -158c89 -13 158 -80 158 -192c0 -133 -76 -213 -205 -213c-18 0 -41 1 -64 4v106c10 -1 20 -2 29 -2c57 0 89 41 89 118c0 81 -34 121 -101 121h-17v104h19c47 0 71 40 71 105
c0 57 -22 86 -64 86c-45 0 -68 -28 -68 -91v-543h-151v522z" />
    <glyph glyph-name="agrave" unicode="&#xe0;" horiz-adv-x="505" 
d="M310 568h-117l-126 154h145zM175 -12c-91 0 -147 58 -147 146c0 48 19 84 48 109c27 23 71 40 131 51l99 17v37c0 48 -17 69 -54 69c-47 0 -62 -30 -63 -85h-149c1 125 89 181 214 181c141 0 202 -56 202 -182v-205c0 -56 3 -90 11 -126h-144c-4 24 -7 54 -7 78
c-15 -54 -70 -90 -141 -90zM236 86c44 0 74 31 74 80v69l-57 -12c-47 -10 -71 -33 -71 -76c0 -37 19 -61 54 -61z" />
    <glyph glyph-name="aacute" unicode="&#xe1;" horiz-adv-x="505" 
d="M194 568l98 154h145l-126 -154h-117zM175 -12c-91 0 -147 58 -147 146c0 48 19 84 48 109c27 23 71 40 131 51l99 17v37c0 48 -17 69 -54 69c-47 0 -62 -30 -63 -85h-149c1 125 89 181 214 181c141 0 202 -56 202 -182v-205c0 -56 3 -90 11 -126h-144c-4 24 -7 54 -7 78
c-15 -54 -70 -90 -141 -90zM236 86c44 0 74 31 74 80v69l-57 -12c-47 -10 -71 -33 -71 -76c0 -37 19 -61 54 -61z" />
    <glyph glyph-name="acircumflex" unicode="&#xe2;" horiz-adv-x="505" 
d="M422 568h-111l-60 102l-59 -102h-112l96 154h151zM175 -12c-91 0 -147 58 -147 146c0 48 19 84 48 109c27 23 71 40 131 51l99 17v37c0 48 -17 69 -54 69c-47 0 -62 -30 -63 -85h-149c1 125 89 181 214 181c141 0 202 -56 202 -182v-205c0 -56 3 -90 11 -126h-144
c-4 24 -7 54 -7 78c-15 -54 -70 -90 -141 -90zM236 86c44 0 74 31 74 80v69l-57 -12c-47 -10 -71 -33 -71 -76c0 -37 19 -61 54 -61z" />
    <glyph glyph-name="atilde" unicode="&#xe3;" horiz-adv-x="505" 
d="M323 570c-69 0 -96 61 -135 61c-22 0 -34 -16 -41 -53l-77 25c9 75 49 121 113 121c69 0 95 -61 135 -61c22 0 34 16 41 53l78 -25c-9 -75 -49 -121 -114 -121zM175 -12c-91 0 -147 58 -147 146c0 48 19 84 48 109c27 23 71 40 131 51l99 17v37c0 48 -17 69 -54 69
c-47 0 -62 -30 -63 -85h-149c1 125 89 181 214 181c141 0 202 -56 202 -182v-205c0 -56 3 -90 11 -126h-144c-4 24 -7 54 -7 78c-15 -54 -70 -90 -141 -90zM236 86c44 0 74 31 74 80v69l-57 -12c-47 -10 -71 -33 -71 -76c0 -37 19 -61 54 -61z" />
    <glyph glyph-name="adieresis" unicode="&#xe4;" horiz-adv-x="505" 
d="M91 575v127h127v-127h-127zM286 575v127h127v-127h-127zM175 -12c-91 0 -147 58 -147 146c0 48 19 84 48 109c27 23 71 40 131 51l99 17v37c0 48 -17 69 -54 69c-47 0 -62 -30 -63 -85h-149c1 125 89 181 214 181c141 0 202 -56 202 -182v-205c0 -56 3 -90 11 -126h-144
c-4 24 -7 54 -7 78c-15 -54 -70 -90 -141 -90zM236 86c44 0 74 31 74 80v69l-57 -12c-47 -10 -71 -33 -71 -76c0 -37 19 -61 54 -61z" />
    <glyph glyph-name="aring" unicode="&#xe5;" horiz-adv-x="505" 
d="M252 548c-72 0 -121 46 -121 113c0 68 49 114 121 114s121 -46 121 -114c0 -67 -49 -113 -121 -113zM252 612c28 0 47 21 47 49c0 29 -19 49 -47 49c-29 0 -47 -20 -47 -49c0 -28 18 -49 47 -49zM175 -12c-91 0 -147 58 -147 146c0 48 19 84 48 109c27 23 71 40 131 51
l99 17v37c0 48 -17 69 -54 69c-47 0 -62 -30 -63 -85h-149c1 125 89 181 214 181c141 0 202 -56 202 -182v-205c0 -56 3 -90 11 -126h-144c-4 24 -7 54 -7 78c-15 -54 -70 -90 -141 -90zM236 86c44 0 74 31 74 80v69l-57 -12c-47 -10 -71 -33 -71 -76c0 -37 19 -61 54 -61z
" />
    <glyph glyph-name="ae" unicode="&#xe6;" horiz-adv-x="770" 
d="M739 223h-281v-7c0 -91 33 -122 80 -122c41 1 69 32 76 86l125 -37c-16 -96 -97 -155 -205 -155c-77 0 -136 29 -171 82c-33 -55 -96 -82 -171 -82c-100 0 -164 52 -164 147c0 87 58 133 170 150l110 17v31c0 58 -19 81 -58 81c-36 0 -60 -25 -61 -83h-148
c1 116 85 181 205 181c64 0 110 -18 141 -51c35 33 82 51 142 51c135 0 210 -76 210 -225v-64zM526 426c-45 0 -68 -30 -68 -121v-3h132c1 87 -16 124 -64 124zM311 167v64l-59 -9c-48 -8 -71 -34 -71 -77c0 -38 22 -58 56 -58c42 0 74 31 74 80z" />
    <glyph glyph-name="ccedilla" unicode="&#xe7;" horiz-adv-x="484" 
d="M251 98c39 0 62 31 65 108l145 -31c-6 -112 -83 -175 -179 -185l-20 -37c10 8 28 13 49 13c50 0 84 -28 84 -83v-4c0 -60 -49 -92 -123 -92c-62 0 -105 24 -120 66l82 20c6 -17 18 -24 35 -24c21 0 34 12 34 35v2c0 21 -13 33 -33 33c-13 0 -23 -5 -30 -15l-65 14l32 74
c-107 17 -179 100 -179 258c0 181 87 262 225 262c115 0 200 -62 208 -184l-146 -28c-3 78 -27 104 -65 104c-45 0 -72 -32 -72 -154c0 -120 26 -152 73 -152z" />
    <glyph glyph-name="egrave" unicode="&#xe8;" horiz-adv-x="494" 
d="M304 568h-117l-126 154h145zM463 284v-64h-289c2 -88 30 -125 84 -125c38 0 68 22 78 82l125 -37c-19 -98 -100 -152 -205 -152c-139 0 -228 75 -228 262c0 180 88 262 221 262c138 0 214 -86 214 -228zM174 302h141c0 96 -23 122 -68 122c-43 0 -71 -29 -73 -122z" />
    <glyph glyph-name="eacute" unicode="&#xe9;" horiz-adv-x="494" 
d="M431 722l-126 -154h-117l98 154h145zM463 284v-64h-289c2 -88 30 -125 84 -125c38 0 68 22 78 82l125 -37c-19 -98 -100 -152 -205 -152c-139 0 -228 75 -228 262c0 180 88 262 221 262c138 0 214 -86 214 -228zM174 302h141c0 96 -23 122 -68 122
c-43 0 -71 -29 -73 -122z" />
    <glyph glyph-name="ecircumflex" unicode="&#xea;" horiz-adv-x="494" 
d="M245 670l-59 -102h-112l96 154h151l95 -154h-111zM463 284v-64h-289c2 -88 30 -125 84 -125c38 0 68 22 78 82l125 -37c-19 -98 -100 -152 -205 -152c-139 0 -228 75 -228 262c0 180 88 262 221 262c138 0 214 -86 214 -228zM174 302h141c0 96 -23 122 -68 122
c-43 0 -71 -29 -73 -122z" />
    <glyph glyph-name="edieresis" unicode="&#xeb;" horiz-adv-x="494" 
d="M212 702v-127h-127v127h127zM407 702v-127h-127v127h127zM463 284v-64h-289c2 -88 30 -125 84 -125c38 0 68 22 78 82l125 -37c-19 -98 -100 -152 -205 -152c-139 0 -228 75 -228 262c0 180 88 262 221 262c138 0 214 -86 214 -228zM174 302h141c0 96 -23 122 -68 122
c-43 0 -71 -29 -73 -122z" />
    <glyph glyph-name="igrave" unicode="&#xec;" horiz-adv-x="261" 
d="M186 568h-117l-93 154h135zM58 0v500h145v-500h-145z" />
    <glyph glyph-name="iacute" unicode="&#xed;" horiz-adv-x="261" 
d="M72 568l75 154h135l-93 -154h-117zM58 0v500h145v-500h-145z" />
    <glyph glyph-name="icircumflex" unicode="&#xee;" horiz-adv-x="261" 
d="M275 568h-106l-40 105l-40 -105h-105l69 154h152zM58 0v500h145v-500h-145z" />
    <glyph glyph-name="idieresis" unicode="&#xef;" horiz-adv-x="261" 
d="M-8 575v127h117v-127h-117zM150 575v127h118v-127h-118zM58 0v500h145v-500h-145z" />
    <glyph glyph-name="eth" unicode="&#xf0;" horiz-adv-x="508" 
d="M392 620c55 -79 87 -180 87 -303v-66c-1 -169 -90 -263 -230 -263c-143 0 -217 82 -217 230v55c0 146 66 234 175 234c59 0 99 -34 119 -82h2c-10 58 -35 108 -68 152l-98 -32l-17 50l77 25c-20 21 -42 40 -65 56l119 60c30 -20 57 -44 81 -71l70 23l17 -51zM331 214v70
c0 76 -27 120 -75 120c-50 0 -75 -40 -75 -120v-70c0 -79 26 -122 73 -122c51 0 77 42 77 122z" />
    <glyph glyph-name="ntilde" unicode="&#xf1;" horiz-adv-x="529" 
d="M351 570c-69 0 -96 61 -135 61c-22 0 -34 -16 -41 -53l-77 25c9 75 49 121 113 121c69 0 95 -61 135 -61c22 0 34 16 41 53l78 -25c-9 -75 -49 -121 -114 -121zM58 0v500h141v-89c28 67 75 101 143 101c91 0 136 -57 136 -173v-339h-149v318c0 57 -17 83 -57 83
c-44 0 -67 -35 -67 -107v-294h-147z" />
    <glyph glyph-name="ograve" unicode="&#xf2;" horiz-adv-x="510" 
d="M313 568h-117l-126 154h145zM255 -12c-134 0 -227 76 -227 262s93 262 227 262s227 -76 227 -262s-93 -262 -227 -262zM255 90c45 0 74 34 74 160s-29 160 -74 160s-74 -34 -74 -160s29 -160 74 -160z" />
    <glyph glyph-name="oacute" unicode="&#xf3;" horiz-adv-x="510" 
d="M197 568l98 154h145l-126 -154h-117zM255 -12c-134 0 -227 76 -227 262s93 262 227 262s227 -76 227 -262s-93 -262 -227 -262zM255 90c45 0 74 34 74 160s-29 160 -74 160s-74 -34 -74 -160s29 -160 74 -160z" />
    <glyph glyph-name="ocircumflex" unicode="&#xf4;" horiz-adv-x="510" 
d="M425 568h-111l-60 102l-59 -102h-112l96 154h151zM255 -12c-134 0 -227 76 -227 262s93 262 227 262s227 -76 227 -262s-93 -262 -227 -262zM255 90c45 0 74 34 74 160s-29 160 -74 160s-74 -34 -74 -160s29 -160 74 -160z" />
    <glyph glyph-name="otilde" unicode="&#xf5;" horiz-adv-x="510" 
d="M326 570c-69 0 -96 61 -135 61c-22 0 -34 -16 -41 -53l-77 25c9 75 49 121 113 121c69 0 95 -61 135 -61c22 0 34 16 41 53l78 -25c-9 -75 -49 -121 -114 -121zM255 -12c-134 0 -227 76 -227 262s93 262 227 262s227 -76 227 -262s-93 -262 -227 -262zM255 90
c45 0 74 34 74 160s-29 160 -74 160s-74 -34 -74 -160s29 -160 74 -160z" />
    <glyph glyph-name="odieresis" unicode="&#xf6;" horiz-adv-x="510" 
d="M94 575v127h127v-127h-127zM289 575v127h127v-127h-127zM255 -12c-134 0 -227 76 -227 262s93 262 227 262s227 -76 227 -262s-93 -262 -227 -262zM255 90c45 0 74 34 74 160s-29 160 -74 160s-74 -34 -74 -160s29 -160 74 -160z" />
    <glyph glyph-name="divide" unicode="&#xf7;" horiz-adv-x="496" 
d="M246 428c-38 0 -66 27 -66 66c0 40 28 66 66 66s66 -25 66 -66c0 -39 -28 -66 -66 -66zM38 277v103h420v-103h-420zM246 95c-38 0 -66 27 -66 66c0 40 28 66 66 66s66 -25 66 -66c0 -39 -28 -66 -66 -66z" />
    <glyph glyph-name="oslash" unicode="&#xf8;" horiz-adv-x="510" 
d="M421 448c39 -42 61 -107 61 -198c0 -186 -93 -262 -227 -262c-52 0 -98 11 -135 36l-32 -45l-35 25l35 49c-38 42 -60 107 -60 197c0 186 93 262 227 262c51 0 97 -11 133 -35l31 43l35 -26zM181 250c0 -24 1 -44 3 -61l128 181c-12 30 -32 40 -57 40
c-45 0 -74 -34 -74 -160zM255 90c45 0 74 34 74 160c0 25 -1 46 -3 64l-129 -182c13 -31 33 -42 58 -42z" />
    <glyph glyph-name="ugrave" unicode="&#xf9;" horiz-adv-x="526" 
d="M318 568h-117l-126 154h145zM192 -12c-102 0 -141 64 -141 168v344h148v-322c0 -52 19 -78 57 -78c40 0 65 35 65 94v306h147v-500h-141v84c-21 -60 -70 -96 -135 -96z" />
    <glyph glyph-name="uacute" unicode="&#xfa;" horiz-adv-x="526" 
d="M202 568l98 154h145l-126 -154h-117zM192 -12c-102 0 -141 64 -141 168v344h148v-322c0 -52 19 -78 57 -78c40 0 65 35 65 94v306h147v-500h-141v84c-21 -60 -70 -96 -135 -96z" />
    <glyph glyph-name="ucircumflex" unicode="&#xfb;" horiz-adv-x="526" 
d="M430 568h-111l-60 102l-59 -102h-112l96 154h151zM192 -12c-102 0 -141 64 -141 168v344h148v-322c0 -52 19 -78 57 -78c40 0 65 35 65 94v306h147v-500h-141v84c-21 -60 -70 -96 -135 -96z" />
    <glyph glyph-name="udieresis" unicode="&#xfc;" horiz-adv-x="526" 
d="M99 575v127h127v-127h-127zM294 575v127h127v-127h-127zM192 -12c-102 0 -141 64 -141 168v344h148v-322c0 -52 19 -78 57 -78c40 0 65 35 65 94v306h147v-500h-141v84c-21 -60 -70 -96 -135 -96z" />
    <glyph glyph-name="yacute" unicode="&#xfd;" horiz-adv-x="457" 
d="M174 568l98 154h145l-126 -154h-117zM79 -202c-16 0 -35 2 -55 5v114c22 -3 32 -4 42 -4c48 0 74 20 86 62l6 23l-160 502h160l66 -293c6 -31 9 -57 11 -87h3c1 31 4 55 10 86l61 294h151l-151 -526c-36 -128 -107 -176 -230 -176z" />
    <glyph glyph-name="thorn" unicode="&#xfe;" horiz-adv-x="541" 
d="M61 -195v920h152v-297c21 51 69 84 132 84c105 0 164 -82 164 -262c0 -181 -60 -262 -170 -262c-62 0 -106 32 -127 78v-261h-151zM279 93c48 0 72 37 72 157c0 119 -23 157 -70 157c-45 0 -71 -39 -71 -105v-103c0 -68 25 -106 69 -106z" />
    <glyph glyph-name="ydieresis" unicode="&#xff;" horiz-adv-x="457" 
d="M71 575v127h127v-127h-127zM266 575v127h127v-127h-127zM79 -202c-16 0 -35 2 -55 5v114c22 -3 32 -4 42 -4c48 0 74 20 86 62l6 23l-160 502h160l66 -293c6 -31 9 -57 11 -87h3c1 31 4 55 10 86l61 294h151l-151 -526c-36 -128 -107 -176 -230 -176z" />
    <glyph glyph-name="Amacron" unicode="&#x100;" horiz-adv-x="613" 
d="M470 849v-93h-328v93h328zM444 0l-40 165h-196l-40 -165h-156l200 710h189l199 -710h-156zM235 276h142l-50 209c-7 33 -14 61 -20 102h-2c-5 -41 -12 -69 -20 -102z" />
    <glyph glyph-name="amacron" unicode="&#x101;" horiz-adv-x="505" 
d="M94 592v95h316v-95h-316zM175 -12c-91 0 -147 58 -147 146c0 48 19 84 48 109c27 23 71 40 131 51l99 17v37c0 48 -17 69 -54 69c-47 0 -62 -30 -63 -85h-149c1 125 89 181 214 181c141 0 202 -56 202 -182v-205c0 -56 3 -90 11 -126h-144c-4 24 -7 54 -7 78
c-15 -54 -70 -90 -141 -90zM236 86c44 0 74 31 74 80v69l-57 -12c-47 -10 -71 -33 -71 -76c0 -37 19 -61 54 -61z" />
    <glyph glyph-name="Abreve" unicode="&#x102;" horiz-adv-x="613" 
d="M306 748c-99 0 -156 43 -161 120h100c2 -27 25 -44 61 -44c37 0 59 17 62 44h99c-5 -77 -61 -120 -161 -120zM444 0l-40 165h-196l-40 -165h-156l200 710h189l199 -710h-156zM235 276h142l-50 209c-7 33 -14 61 -20 102h-2c-5 -41 -12 -69 -20 -102z" />
    <glyph glyph-name="abreve" unicode="&#x103;" horiz-adv-x="505" 
d="M190 715c2 -47 23 -73 62 -73s60 26 62 73h99c-4 -105 -66 -152 -161 -152s-157 47 -161 152h99zM175 -12c-91 0 -147 58 -147 146c0 48 19 84 48 109c27 23 71 40 131 51l99 17v37c0 48 -17 69 -54 69c-47 0 -62 -30 -63 -85h-149c1 125 89 181 214 181
c141 0 202 -56 202 -182v-205c0 -56 3 -90 11 -126h-144c-4 24 -7 54 -7 78c-15 -54 -70 -90 -141 -90zM236 86c44 0 74 31 74 80v69l-57 -12c-47 -10 -71 -33 -71 -76c0 -37 19 -61 54 -61z" />
    <glyph glyph-name="Aogonek" unicode="&#x104;" horiz-adv-x="613" 
d="M532 -92l74 -27c-19 -59 -64 -83 -127 -83c-71 0 -118 32 -118 93c0 46 27 81 83 109l-40 165h-196l-40 -165h-156l200 710h189l199 -710h-41c-72 -21 -104 -58 -104 -96c0 -22 12 -35 33 -35c20 0 33 13 44 39zM235 276h142l-50 209c-7 33 -14 61 -20 102h-2
c-5 -41 -12 -69 -20 -102z" />
    <glyph glyph-name="aogonek" unicode="&#x105;" horiz-adv-x="505" 
d="M554 -92l74 -27c-19 -59 -64 -83 -127 -83c-71 0 -118 32 -118 93c0 46 27 81 83 109h-143c-4 24 -7 54 -7 78c-15 -54 -70 -90 -141 -90c-91 0 -147 58 -147 146c0 48 19 84 48 109c27 23 71 40 131 51l99 17v37c0 48 -17 69 -54 69c-47 0 -62 -30 -63 -85h-149
c1 125 89 181 214 181c141 0 202 -56 202 -182v-205c0 -56 3 -90 11 -126h114c-72 -21 -104 -58 -104 -96c0 -22 12 -35 33 -35c20 0 33 13 44 39zM310 166v69l-57 -12c-47 -10 -71 -33 -71 -76c0 -37 19 -61 54 -61c44 0 74 31 74 80z" />
    <glyph glyph-name="Cacute" unicode="&#x106;" horiz-adv-x="596" 
d="M243 753l91 115h137l-109 -115h-119zM306 -17c-180 0 -277 92 -277 372c0 276 108 372 278 372c155 0 252 -86 256 -260l-154 -28c-5 128 -38 164 -103 164c-73 0 -118 -57 -118 -247s42 -248 119 -248c61 0 97 44 104 165l153 -33c-12 -168 -109 -257 -258 -257z" />
    <glyph glyph-name="cacute" unicode="&#x107;" horiz-adv-x="484" 
d="M188 568l98 154h145l-126 -154h-117zM252 -12c-131 0 -224 82 -224 262c0 181 87 262 225 262c115 0 200 -62 208 -184l-146 -28c-3 78 -27 104 -65 104c-45 0 -72 -32 -72 -154c0 -120 26 -152 73 -152c39 0 62 31 65 108l145 -31c-7 -124 -99 -187 -209 -187z" />
    <glyph glyph-name="Ccircumflex" unicode="&#x108;" horiz-adv-x="596" 
d="M477 753h-116l-58 71l-59 -71h-116l95 115h159zM306 -17c-180 0 -277 92 -277 372c0 276 108 372 278 372c155 0 252 -86 256 -260l-154 -28c-5 128 -38 164 -103 164c-73 0 -118 -57 -118 -247s42 -248 119 -248c61 0 97 44 104 165l153 -33
c-12 -168 -109 -257 -258 -257z" />
    <glyph glyph-name="ccircumflex" unicode="&#x109;" horiz-adv-x="484" 
d="M416 568h-111l-60 102l-59 -102h-112l96 154h151zM252 -12c-131 0 -224 82 -224 262c0 181 87 262 225 262c115 0 200 -62 208 -184l-146 -28c-3 78 -27 104 -65 104c-45 0 -72 -32 -72 -154c0 -120 26 -152 73 -152c39 0 62 31 65 108l145 -31
c-7 -124 -99 -187 -209 -187z" />
    <glyph glyph-name="Cdotaccent" unicode="&#x10a;" horiz-adv-x="596" 
d="M230 753v114h147v-114h-147zM306 -17c-180 0 -277 92 -277 372c0 276 108 372 278 372c155 0 252 -86 256 -260l-154 -28c-5 128 -38 164 -103 164c-73 0 -118 -57 -118 -247s42 -248 119 -248c61 0 97 44 104 165l153 -33c-12 -168 -109 -257 -258 -257z" />
    <glyph glyph-name="cdotaccent" unicode="&#x10b;" horiz-adv-x="484" 
d="M170 571v141h152v-141h-152zM252 -12c-131 0 -224 82 -224 262c0 181 87 262 225 262c115 0 200 -62 208 -184l-146 -28c-3 78 -27 104 -65 104c-45 0 -72 -32 -72 -154c0 -120 26 -152 73 -152c39 0 62 31 65 108l145 -31c-7 -124 -99 -187 -209 -187z" />
    <glyph glyph-name="Ccaron" unicode="&#x10c;" horiz-adv-x="596" 
d="M478 863l-95 -115h-159l-95 115h116l59 -71l58 71h116zM306 -17c-180 0 -277 92 -277 372c0 276 108 372 278 372c155 0 252 -86 256 -260l-154 -28c-5 128 -38 164 -103 164c-73 0 -118 -57 -118 -247s42 -248 119 -248c61 0 97 44 104 165l153 -33
c-12 -168 -109 -257 -258 -257z" />
    <glyph glyph-name="ccaron" unicode="&#x10d;" horiz-adv-x="484" 
d="M75 717h111l60 -102l59 102h112l-96 -154h-151zM252 -12c-131 0 -224 82 -224 262c0 181 87 262 225 262c115 0 200 -62 208 -184l-146 -28c-3 78 -27 104 -65 104c-45 0 -72 -32 -72 -154c0 -120 26 -152 73 -152c39 0 62 31 65 108l145 -31c-7 -124 -99 -187 -209 -187
z" />
    <glyph glyph-name="Dcaron" unicode="&#x10e;" horiz-adv-x="619" 
d="M472 863l-95 -115h-159l-95 115h116l59 -71l58 71h116zM62 0v710h231c184 0 297 -105 297 -354c0 -252 -114 -356 -299 -356h-229zM217 113h74c91 0 138 87 138 243c0 177 -44 241 -137 241h-75v-484z" />
    <glyph glyph-name="dcaron" unicode="&#x10f;" horiz-adv-x="607" 
d="M207 -12c-108 0 -175 83 -175 259c0 182 69 265 174 265c59 0 104 -28 123 -82v295h150v-725h-143v83c-21 -60 -70 -95 -129 -95zM553 526l-25 46c32 8 46 19 46 40h-62v98h124v-83c0 -53 -24 -88 -83 -101zM262 93c45 0 69 38 69 107v101c0 67 -24 106 -67 106
c-52 0 -76 -38 -76 -160c0 -118 24 -154 74 -154z" />
    <glyph glyph-name="Dcroat" unicode="&#x110;" horiz-adv-x="619" 
d="M293 710c184 0 297 -105 297 -354c0 -252 -114 -356 -299 -356h-229v325h-60v87h60v298h231zM291 113c91 0 138 87 138 243c0 177 -44 241 -137 241h-75v-185h107v-87h-107v-212h74z" />
    <glyph glyph-name="dcroat" unicode="&#x111;" horiz-adv-x="539" 
d="M548 641v-60h-69v-581h-143v83c-21 -60 -70 -95 -129 -95c-108 0 -175 83 -175 259c0 182 69 265 174 265c59 0 104 -28 123 -82v151h-141v60h141v84h150v-84h69zM331 200v101c0 67 -24 106 -67 106c-52 0 -76 -38 -76 -160c0 -118 24 -154 74 -154c45 0 69 38 69 107z
" />
    <glyph glyph-name="Emacron" unicode="&#x112;" horiz-adv-x="509" 
d="M428 849v-93h-328v93h328zM217 117h259v-117h-414v710h407v-117h-252v-171h237v-116h-237v-189z" />
    <glyph glyph-name="emacron" unicode="&#x113;" horiz-adv-x="494" 
d="M404 687v-95h-316v95h316zM463 284v-64h-289c2 -88 30 -125 84 -125c38 0 68 22 78 82l125 -37c-19 -98 -100 -152 -205 -152c-139 0 -228 75 -228 262c0 180 88 262 221 262c138 0 214 -86 214 -228zM174 302h141c0 96 -23 122 -68 122c-43 0 -71 -29 -73 -122z" />
    <glyph glyph-name="Ebreve" unicode="&#x114;" horiz-adv-x="509" 
d="M264 748c-99 0 -156 43 -161 120h100c2 -27 25 -44 61 -44c37 0 59 17 62 44h99c-5 -77 -61 -120 -161 -120zM217 117h259v-117h-414v710h407v-117h-252v-171h237v-116h-237v-189z" />
    <glyph glyph-name="ebreve" unicode="&#x115;" horiz-adv-x="494" 
d="M246 563c-95 0 -157 47 -161 152h99c2 -47 23 -73 62 -73s60 26 62 73h99c-4 -105 -66 -152 -161 -152zM463 284v-64h-289c2 -88 30 -125 84 -125c38 0 68 22 78 82l125 -37c-19 -98 -100 -152 -205 -152c-139 0 -228 75 -228 262c0 180 88 262 221 262
c138 0 214 -86 214 -228zM174 302h141c0 96 -23 122 -68 122c-43 0 -71 -29 -73 -122z" />
    <glyph glyph-name="Edotaccent" unicode="&#x116;" horiz-adv-x="509" 
d="M338 867v-114h-147v114h147zM217 117h259v-117h-414v710h407v-117h-252v-171h237v-116h-237v-189z" />
    <glyph glyph-name="edotaccent" unicode="&#x117;" horiz-adv-x="494" 
d="M322 712v-141h-152v141h152zM463 284v-64h-289c2 -88 30 -125 84 -125c38 0 68 22 78 82l125 -37c-19 -98 -100 -152 -205 -152c-139 0 -228 75 -228 262c0 180 88 262 221 262c138 0 214 -86 214 -228zM174 302h141c0 96 -23 122 -68 122c-43 0 -71 -29 -73 -122z" />
    <glyph glyph-name="Eogonek" unicode="&#x118;" horiz-adv-x="509" 
d="M449 -92l74 -27c-19 -59 -64 -83 -127 -83c-71 0 -118 32 -118 93c0 46 27 81 83 109h-299v710h407v-117h-252v-171h237v-116h-237v-189h259v-117c-72 -21 -104 -58 -104 -96c0 -22 12 -35 33 -35c20 0 33 13 44 39z" />
    <glyph glyph-name="eogonek" unicode="&#x119;" horiz-adv-x="494" 
d="M424 -92l74 -27c-19 -59 -64 -83 -127 -83c-71 0 -118 32 -118 93c0 46 27 81 83 109c-25 -8 -51 -12 -80 -12c-139 0 -228 75 -228 262c0 180 88 262 221 262c138 0 214 -86 214 -228v-64h-289c2 -88 30 -125 84 -125c38 0 68 22 78 82l125 -37
c-14 -71 -60 -119 -125 -140h115c-72 -21 -104 -58 -104 -96c0 -22 12 -35 33 -35c20 0 33 13 44 39zM247 424c-43 0 -71 -29 -73 -122h141c0 96 -23 122 -68 122z" />
    <glyph glyph-name="Ecaron" unicode="&#x11a;" horiz-adv-x="509" 
d="M344 748h-159l-95 115h116l59 -71l58 71h116zM217 117h259v-117h-414v710h407v-117h-252v-171h237v-116h-237v-189z" />
    <glyph glyph-name="ecaron" unicode="&#x11b;" horiz-adv-x="494" 
d="M321 563h-151l-95 154h111l60 -102l59 102h112zM463 284v-64h-289c2 -88 30 -125 84 -125c38 0 68 22 78 82l125 -37c-19 -98 -100 -152 -205 -152c-139 0 -228 75 -228 262c0 180 88 262 221 262c138 0 214 -86 214 -228zM174 302h141c0 96 -23 122 -68 122
c-43 0 -71 -29 -73 -122z" />
    <glyph glyph-name="Gcircumflex" unicode="&#x11c;" horiz-adv-x="617" 
d="M482 753h-116l-58 71l-59 -71h-116l95 115h159zM273 -17c-157 0 -244 116 -244 379c0 252 104 365 283 365c158 0 246 -82 256 -223l-153 -29c-7 88 -37 135 -105 135c-79 0 -120 -62 -120 -248c0 -196 39 -259 123 -259c73 0 108 60 108 157v18h-122v116h270v-394h-113
l-6 109c-25 -78 -86 -126 -177 -126z" />
    <glyph glyph-name="gcircumflex" unicode="&#x11d;" horiz-adv-x="485" 
d="M242 677l-59 -80h-112l96 125h151l95 -125h-111zM481 481c-15 3 -28 5 -42 5c-22 0 -40 -5 -55 -15c39 -30 58 -75 58 -130c0 -103 -66 -169 -203 -169c-31 0 -58 3 -81 10c-8 -6 -12 -13 -12 -24c0 -22 17 -35 55 -37l122 -8c102 -7 158 -60 158 -146
c0 -108 -89 -174 -247 -174c-138 0 -216 46 -216 118c0 43 29 76 82 94c-43 16 -67 49 -67 91c0 50 32 85 85 101c-55 28 -83 79 -83 144c0 102 68 171 204 171c37 0 68 -5 95 -14c16 56 60 87 127 87c8 0 13 0 20 -2v-102zM239 246c40 0 61 31 61 95s-21 94 -61 94
c-41 0 -62 -30 -62 -94s21 -95 62 -95zM296 -14l-136 7c-4 0 -8 0 -11 1c-11 -13 -17 -29 -17 -48c0 -47 41 -73 108 -73c80 0 113 23 113 61c0 32 -18 50 -57 52z" />
    <glyph glyph-name="Gbreve" unicode="&#x11e;" horiz-adv-x="617" 
d="M247 868c2 -27 25 -44 61 -44c37 0 59 17 62 44h99c-5 -77 -61 -120 -161 -120c-99 0 -156 43 -161 120h100zM273 -17c-157 0 -244 116 -244 379c0 252 104 365 283 365c158 0 246 -82 256 -223l-153 -29c-7 88 -37 135 -105 135c-79 0 -120 -62 -120 -248
c0 -196 39 -259 123 -259c73 0 108 60 108 157v18h-122v116h270v-394h-113l-6 109c-25 -78 -86 -126 -177 -126z" />
    <glyph glyph-name="gbreve" unicode="&#x11f;" horiz-adv-x="485" 
d="M243 563c-95 0 -157 47 -161 152h99c2 -47 23 -73 62 -73s60 26 62 73h99c-4 -105 -66 -152 -161 -152zM481 481c-15 3 -28 5 -42 5c-22 0 -40 -5 -55 -15c39 -30 58 -75 58 -130c0 -103 -66 -169 -203 -169c-31 0 -58 3 -81 10c-8 -6 -12 -13 -12 -24
c0 -22 17 -35 55 -37l122 -8c102 -7 158 -60 158 -146c0 -108 -89 -174 -247 -174c-138 0 -216 46 -216 118c0 43 29 76 82 94c-43 16 -67 49 -67 91c0 50 32 85 85 101c-55 28 -83 79 -83 144c0 102 68 171 204 171c37 0 68 -5 95 -14c16 56 60 87 127 87c8 0 13 0 20 -2
v-102zM239 246c40 0 61 31 61 95s-21 94 -61 94c-41 0 -62 -30 -62 -94s21 -95 62 -95zM296 -14l-136 7c-4 0 -8 0 -11 1c-11 -13 -17 -29 -17 -48c0 -47 41 -73 108 -73c80 0 113 23 113 61c0 32 -18 50 -57 52z" />
    <glyph glyph-name="Gdotaccent" unicode="&#x120;" horiz-adv-x="617" 
d="M235 753v114h147v-114h-147zM273 -17c-157 0 -244 116 -244 379c0 252 104 365 283 365c158 0 246 -82 256 -223l-153 -29c-7 88 -37 135 -105 135c-79 0 -120 -62 -120 -248c0 -196 39 -259 123 -259c73 0 108 60 108 157v18h-122v116h270v-394h-113l-6 109
c-25 -78 -86 -126 -177 -126z" />
    <glyph glyph-name="gdotaccent" unicode="&#x121;" horiz-adv-x="485" 
d="M319 712v-141h-152v141h152zM481 481c-15 3 -28 5 -42 5c-22 0 -40 -5 -55 -15c39 -30 58 -75 58 -130c0 -103 -66 -169 -203 -169c-31 0 -58 3 -81 10c-8 -6 -12 -13 -12 -24c0 -22 17 -35 55 -37l122 -8c102 -7 158 -60 158 -146c0 -108 -89 -174 -247 -174
c-138 0 -216 46 -216 118c0 43 29 76 82 94c-43 16 -67 49 -67 91c0 50 32 85 85 101c-55 28 -83 79 -83 144c0 102 68 171 204 171c37 0 68 -5 95 -14c16 56 60 87 127 87c8 0 13 0 20 -2v-102zM239 246c40 0 61 31 61 95s-21 94 -61 94c-41 0 -62 -30 -62 -94
s21 -95 62 -95zM296 -14l-136 7c-4 0 -8 0 -11 1c-11 -13 -17 -29 -17 -48c0 -47 41 -73 108 -73c80 0 113 23 113 61c0 32 -18 50 -57 52z" />
    <glyph glyph-name="Gcommaaccent" unicode="&#x122;" horiz-adv-x="617" 
d="M273 -17c-157 0 -244 116 -244 379c0 252 104 365 283 365c158 0 246 -82 256 -223l-153 -29c-7 88 -37 135 -105 135c-79 0 -120 -62 -120 -248c0 -196 39 -259 123 -259c73 0 108 60 108 157v18h-122v116h270v-394h-113l-6 109c-25 -78 -86 -126 -177 -126zM290 -228
l-27 48c33 9 46 20 46 44h-62v98h124v-83c0 -55 -23 -93 -81 -107z" />
    <glyph glyph-name="gcommaaccent" unicode="&#x123;" horiz-adv-x="485" 
d="M304 666v-98h-124v83c0 55 23 93 81 107l27 -48c-33 -9 -46 -20 -46 -44h62zM481 481c-15 3 -28 5 -42 5c-22 0 -40 -5 -55 -15c39 -30 58 -75 58 -130c0 -103 -66 -169 -203 -169c-31 0 -58 3 -81 10c-8 -6 -12 -13 -12 -24c0 -22 17 -35 55 -37l122 -8
c102 -7 158 -60 158 -146c0 -108 -89 -174 -247 -174c-138 0 -216 46 -216 118c0 43 29 76 82 94c-43 16 -67 49 -67 91c0 50 32 85 85 101c-55 28 -83 79 -83 144c0 102 68 171 204 171c37 0 68 -5 95 -14c16 56 60 87 127 87c8 0 13 0 20 -2v-102zM239 246
c40 0 61 31 61 95s-21 94 -61 94c-41 0 -62 -30 -62 -94s21 -95 62 -95zM296 -14l-136 7c-4 0 -8 0 -11 1c-11 -13 -17 -29 -17 -48c0 -47 41 -73 108 -73c80 0 113 23 113 61c0 32 -18 50 -57 52z" />
    <glyph glyph-name="Hcircumflex" unicode="&#x124;" horiz-adv-x="637" 
d="M493 753h-116l-58 71l-59 -71h-116l95 115h159zM574 710v-710h-155v301h-202v-301h-155v710h155v-289h202v289h155z" />
    <glyph glyph-name="hcircumflex" unicode="&#x125;" horiz-adv-x="532" 
d="M309 753h-116l-58 71l-59 -71h-116l95 115h159zM61 0v725h147v-309c25 64 72 97 138 97c90 0 135 -57 135 -173v-340h-149v323c0 53 -18 78 -56 78c-45 0 -68 -35 -68 -108v-293h-147z" />
    <glyph glyph-name="Hbar" unicode="&#x126;" horiz-adv-x="637" 
d="M636 595v-69h-62v-526h-155v301h-202v-301h-155v526h-60v69h60v115h155v-115h202v115h155v-115h62zM419 421v105h-202v-105h202z" />
    <glyph glyph-name="hbar" unicode="&#x127;" horiz-adv-x="515" 
d="M346 513c90 0 135 -57 135 -173v-340h-149v323c0 53 -18 78 -56 78c-45 0 -68 -35 -68 -108v-293h-147v577h-66v58h66v90h147v-90h159v-58h-159v-161c25 64 72 97 138 97z" />
    <glyph glyph-name="Itilde" unicode="&#x128;" horiz-adv-x="280" 
d="M204 745c-62 0 -88 54 -120 54c-16 0 -27 -13 -29 -43l-72 25c4 63 38 106 93 106c62 0 88 -55 120 -55c17 0 27 14 29 44l72 -25c-3 -64 -37 -106 -93 -106zM217 0h-155v710h155v-710z" />
    <glyph glyph-name="itilde" unicode="&#x129;" horiz-adv-x="261" 
d="M191 570c-57 0 -82 58 -110 58c-14 0 -22 -14 -26 -49l-76 25c8 75 41 120 93 120c57 0 82 -58 110 -58c13 0 22 14 26 49l75 -26c-7 -74 -40 -119 -92 -119zM58 0v500h145v-500h-145z" />
    <glyph glyph-name="Imacron" unicode="&#x12a;" horiz-adv-x="280" 
d="M15 759v93h251v-93h-251zM217 0h-155v710h155v-710z" />
    <glyph glyph-name="imacron" unicode="&#x12b;" horiz-adv-x="261" 
d="M10 592v95h240v-95h-240zM58 0v500h145v-500h-145z" />
    <glyph glyph-name="Ibreve" unicode="&#x12c;" horiz-adv-x="280" 
d="M98 868c0 -27 16 -44 43 -44c28 0 43 17 44 44h99c-3 -77 -53 -120 -143 -120c-89 0 -140 43 -143 120h100zM217 0h-155v710h155v-710z" />
    <glyph glyph-name="ibreve" unicode="&#x12d;" horiz-adv-x="261" 
d="M91 715c-1 -51 12 -73 39 -73s39 22 40 73h98c-2 -107 -54 -152 -138 -152s-136 45 -138 152h99zM58 0v500h145v-500h-145z" />
    <glyph glyph-name="Iogonek" unicode="&#x12e;" horiz-adv-x="280" 
d="M150 -92l74 -27c-19 -59 -64 -83 -127 -83c-71 0 -118 32 -118 93c0 46 27 81 83 109v710h155v-710h-40c-72 -21 -104 -58 -104 -96c0 -22 12 -35 33 -35c20 0 33 13 44 39z" />
    <glyph glyph-name="iogonek" unicode="&#x12f;" horiz-adv-x="261" 
d="M206 712v-141h-152v141h152zM146 -92l74 -27c-19 -59 -64 -83 -127 -83c-71 0 -118 32 -118 93c0 46 27 81 83 109v500h145v-500h-30c-72 -21 -104 -58 -104 -96c0 -22 12 -35 33 -35c20 0 33 13 44 39z" />
    <glyph glyph-name="Idotaccent" unicode="&#x130;" horiz-adv-x="280" 
d="M68 753v114h147v-114h-147zM217 0h-155v710h155v-710z" />
    <glyph glyph-name="dotlessi" unicode="&#x131;" horiz-adv-x="261" 
d="M58 0v500h145v-500h-145z" />
    <glyph glyph-name="IJ" unicode="&#x132;" horiz-adv-x="635" 
d="M217 0h-155v710h155v-710zM581 179c0 -139 -84 -191 -203 -191c-32 0 -64 2 -87 7v131c19 -3 38 -5 54 -5c48 0 82 23 82 90v499h154v-531z" />
    <glyph glyph-name="ij" unicode="&#x133;" horiz-adv-x="530" 
d="M54 571v141h152v-141h-152zM321 571v141h152v-141h-152zM58 0v500h145v-500h-145zM305 -201c-22 0 -52 2 -66 5v112c13 -2 26 -2 35 -2c37 0 51 16 51 65v521h147v-531c0 -109 -37 -170 -167 -170z" />
    <glyph glyph-name="Jcircumflex" unicode="&#x134;" horiz-adv-x="355" 
d="M369 753h-108l-37 71l-37 -71h-108l65 115h159zM301 179c0 -139 -84 -191 -203 -191c-32 0 -64 2 -87 7v131c19 -3 38 -5 54 -5c48 0 82 23 82 90v499h154v-531z" />
    <glyph glyph-name="jcircumflex" unicode="&#x135;" horiz-adv-x="266" 
d="M278 568h-106l-40 105l-40 -105h-105l69 154h152zM41 -201c-22 0 -52 2 -66 5v112c13 -2 26 -2 35 -2c37 0 51 16 51 65v521h147v-531c0 -109 -37 -170 -167 -170z" />
    <glyph glyph-name="Kcommaaccent" unicode="&#x136;" horiz-adv-x="602" 
d="M393 425l198 -425h-172l-134 312l-68 -105v-207h-155v710h155v-321l195 321h170zM243 -136v98h124v-83c0 -55 -23 -93 -81 -107l-27 48c33 9 46 20 46 44h-62z" />
    <glyph glyph-name="kcommaaccent" unicode="&#x137;" horiz-adv-x="518" 
d="M360 310l149 -310h-161l-92 212l-48 -69v-143h-147v725h147v-434l132 209h165zM211 -136v98h124v-83c0 -55 -23 -93 -81 -107l-27 48c33 9 46 20 46 44h-62z" />
    <glyph glyph-name="kgreenlandic" unicode="&#x138;" horiz-adv-x="515" 
d="M345 0l-92 212l-48 -68v-144h-147v500h147v-209l132 209h165l-145 -190l149 -310h-161z" />
    <glyph glyph-name="Lacute" unicode="&#x139;" horiz-adv-x="463" 
d="M81 753l91 115h137l-109 -115h-119zM62 0v710h155v-580h233v-130h-388z" />
    <glyph glyph-name="lacute" unicode="&#x13a;" horiz-adv-x="269" 
d="M75 753l91 115h137l-109 -115h-119zM208 725v-725h-147v725h147z" />
    <glyph glyph-name="Lcommaaccent" unicode="&#x13b;" horiz-adv-x="463" 
d="M62 0v710h155v-580h233v-130h-388zM246 -228l-27 48c33 9 46 20 46 44h-62v98h124v-83c0 -55 -23 -93 -81 -107z" />
    <glyph glyph-name="lcommaaccent" unicode="&#x13c;" horiz-adv-x="269" 
d="M208 725v-725h-147v725h147zM116 -228l-27 48c33 9 46 20 46 44h-62v98h124v-83c0 -55 -23 -93 -81 -107z" />
    <glyph glyph-name="Lcaron" unicode="&#x13d;" horiz-adv-x="463" 
d="M62 0v710h155v-580h233v-130h-388zM301 526l-25 46c32 8 46 19 46 40h-62v98h124v-83c0 -53 -24 -88 -83 -101z" />
    <glyph glyph-name="lcaron" unicode="&#x13e;" horiz-adv-x="344" 
d="M208 725v-725h-147v725h147zM284 526l-25 46c32 8 46 19 46 40h-62v98h124v-83c0 -53 -24 -88 -83 -101z" />
    <glyph glyph-name="Ldot" unicode="&#x13f;" horiz-adv-x="463" 
d="M62 0v710h155v-580h233v-130h-388zM434 500v-163h-155v163h155z" />
    <glyph glyph-name="ldot" unicode="&#x140;" horiz-adv-x="413" 
d="M208 725v-725h-147v725h147zM418 500v-163h-155v163h155z" />
    <glyph glyph-name="Lslash" unicode="&#x141;" horiz-adv-x="463" 
d="M217 130h233v-130h-388v249l-66 -37v96l66 37v365h155v-278l156 88v-97l-156 -87v-206z" />
    <glyph glyph-name="lslash" unicode="&#x142;" horiz-adv-x="269" 
d="M259 543v-84l-51 -45v-414h-147v283l-49 -43v84l49 43v358h147v-227z" />
    <glyph glyph-name="Nacute" unicode="&#x143;" horiz-adv-x="649" 
d="M265 753l91 115h137l-109 -115h-119zM62 0v710h169l179 -370c17 -36 27 -69 35 -118h2c-2 47 -2 94 -2 142v346h142v-710h-156l-190 388c-20 42 -29 77 -36 119h-2c1 -37 2 -89 2 -137v-370h-143z" />
    <glyph glyph-name="nacute" unicode="&#x144;" horiz-adv-x="529" 
d="M222 568l98 154h145l-126 -154h-117zM58 0v500h141v-89c28 67 75 101 143 101c91 0 136 -57 136 -173v-339h-149v318c0 57 -17 83 -57 83c-44 0 -67 -35 -67 -107v-294h-147z" />
    <glyph glyph-name="Ncommaaccent" unicode="&#x145;" horiz-adv-x="649" 
d="M62 0v710h169l179 -370c17 -36 27 -69 35 -118h2c-2 47 -2 94 -2 142v346h142v-710h-156l-190 388c-20 42 -29 77 -36 119h-2c1 -37 2 -89 2 -137v-370h-143zM306 -228l-27 48c33 9 46 20 46 44h-62v98h124v-83c0 -55 -23 -93 -81 -107z" />
    <glyph glyph-name="ncommaaccent" unicode="&#x146;" horiz-adv-x="529" 
d="M58 0v500h141v-89c28 67 75 101 143 101c91 0 136 -57 136 -173v-339h-149v318c0 57 -17 83 -57 83c-44 0 -67 -35 -67 -107v-294h-147zM246 -228l-27 48c33 9 46 20 46 44h-62v98h124v-83c0 -55 -23 -93 -81 -107z" />
    <glyph glyph-name="Ncaron" unicode="&#x147;" horiz-adv-x="649" 
d="M500 863l-95 -115h-159l-95 115h116l59 -71l58 71h116zM62 0v710h169l179 -370c17 -36 27 -69 35 -118h2c-2 47 -2 94 -2 142v346h142v-710h-156l-190 388c-20 42 -29 77 -36 119h-2c1 -37 2 -89 2 -137v-370h-143z" />
    <glyph glyph-name="ncaron" unicode="&#x148;" horiz-adv-x="529" 
d="M109 717h111l60 -102l59 102h112l-96 -154h-151zM58 0v500h141v-89c28 67 75 101 143 101c91 0 136 -57 136 -173v-339h-149v318c0 57 -17 83 -57 83c-44 0 -67 -35 -67 -107v-294h-147z" />
    <glyph glyph-name="napostrophe" unicode="&#x149;" horiz-adv-x="540" 
d="M54 526l-25 46c32 8 46 19 46 40h-62v98h124v-83c0 -53 -24 -88 -83 -101zM70 0v500h141v-89c28 67 75 101 143 101c91 0 136 -57 136 -173v-339h-149v318c0 57 -17 83 -57 83c-44 0 -67 -35 -67 -107v-294h-147z" />
    <glyph glyph-name="Eng" unicode="&#x14a;" horiz-adv-x="649" 
d="M445 710h142v-740c0 -138 -85 -178 -184 -178c-36 0 -63 3 -88 7v124c24 -5 49 -5 66 -5c30 0 63 14 63 61v21h-13l-190 388c-20 42 -29 77 -36 119h-2c1 -37 2 -89 2 -137v-370h-143v710h169l179 -370c17 -36 27 -69 35 -118h2c-2 47 -2 94 -2 142v346z" />
    <glyph glyph-name="eng" unicode="&#x14b;" horiz-adv-x="529" 
d="M342 512c91 0 136 -57 136 -173v-364c0 -115 -36 -176 -163 -176c-23 0 -52 2 -70 5v112c17 -2 26 -3 37 -3c34 0 47 17 47 67v338c0 57 -17 83 -57 83c-44 0 -67 -35 -67 -107v-294h-147v500h141v-89c28 67 75 101 143 101z" />
    <glyph glyph-name="Omacron" unicode="&#x14c;" horiz-adv-x="623" 
d="M150 756v93h328v-93h-328zM312 -17c-177 0 -283 107 -283 372c0 266 106 373 283 373c176 0 282 -107 282 -373c0 -265 -106 -372 -282 -372zM312 105c77 0 121 58 121 250c0 194 -44 250 -121 250c-78 0 -123 -56 -123 -250c0 -192 45 -250 123 -250z" />
    <glyph glyph-name="omacron" unicode="&#x14d;" horiz-adv-x="510" 
d="M97 592v95h316v-95h-316zM255 -12c-134 0 -227 76 -227 262s93 262 227 262s227 -76 227 -262s-93 -262 -227 -262zM255 90c45 0 74 34 74 160s-29 160 -74 160s-74 -34 -74 -160s29 -160 74 -160z" />
    <glyph glyph-name="Obreve" unicode="&#x14e;" horiz-adv-x="623" 
d="M253 868c2 -27 25 -44 61 -44c37 0 59 17 62 44h99c-5 -77 -61 -120 -161 -120c-99 0 -156 43 -161 120h100zM312 -17c-177 0 -283 107 -283 372c0 266 106 373 283 373c176 0 282 -107 282 -373c0 -265 -106 -372 -282 -372zM312 105c77 0 121 58 121 250
c0 194 -44 250 -121 250c-78 0 -123 -56 -123 -250c0 -192 45 -250 123 -250z" />
    <glyph glyph-name="obreve" unicode="&#x14f;" horiz-adv-x="510" 
d="M193 715c2 -47 23 -73 62 -73s60 26 62 73h99c-4 -105 -66 -152 -161 -152s-157 47 -161 152h99zM255 -12c-134 0 -227 76 -227 262s93 262 227 262s227 -76 227 -262s-93 -262 -227 -262zM255 90c45 0 74 34 74 160s-29 160 -74 160s-74 -34 -74 -160s29 -160 74 -160z
" />
    <glyph glyph-name="Ohungarumlaut" unicode="&#x150;" horiz-adv-x="623" 
d="M175 754l89 114h122l-102 -114h-109zM341 754l89 114h122l-102 -114h-109zM312 -17c-177 0 -283 107 -283 372c0 266 106 373 283 373c176 0 282 -107 282 -373c0 -265 -106 -372 -282 -372zM312 105c77 0 121 58 121 250c0 194 -44 250 -121 250
c-78 0 -123 -56 -123 -250c0 -192 45 -250 123 -250z" />
    <glyph glyph-name="ohungarumlaut" unicode="&#x151;" horiz-adv-x="510" 
d="M122 568l86 154h110l-98 -154h-98zM279 568l86 154h110l-98 -154h-98zM255 -12c-134 0 -227 76 -227 262s93 262 227 262s227 -76 227 -262s-93 -262 -227 -262zM255 90c45 0 74 34 74 160s-29 160 -74 160s-74 -34 -74 -160s29 -160 74 -160z" />
    <glyph glyph-name="OE" unicode="&#x152;" horiz-adv-x="827" 
d="M534 117h259v-117h-471c-185 0 -293 132 -293 355s107 355 292 355h465v-117h-252v-171h237v-116h-237v-189zM333 113h46v484h-46c-97 0 -145 -90 -145 -242c0 -146 53 -242 145 -242z" />
    <glyph glyph-name="oe" unicode="&#x153;" horiz-adv-x="790" 
d="M760 284v-64h-289c2 -88 30 -125 84 -125c38 0 68 22 78 82l125 -37c-19 -98 -100 -152 -205 -152c-66 0 -121 17 -161 55c-34 -36 -82 -55 -140 -55c-134 0 -224 85 -224 262c0 173 90 262 224 262c59 0 106 -20 140 -56c39 38 91 56 154 56c138 0 214 -86 214 -228z
M471 302h141c0 96 -23 122 -68 122c-43 0 -71 -29 -73 -122zM252 90c45 0 73 32 73 160c0 127 -28 160 -73 160s-72 -33 -72 -160c0 -128 28 -160 72 -160z" />
    <glyph glyph-name="Racute" unicode="&#x154;" horiz-adv-x="587" 
d="M445 868l-109 -115h-119l91 115h137zM400 0l-105 281h-78v-281h-155v710h253c165 0 237 -82 237 -213c0 -93 -41 -159 -114 -188l128 -309h-166zM217 382h75c68 0 97 43 97 115c0 70 -28 106 -97 106h-75v-221z" />
    <glyph glyph-name="racute" unicode="&#x155;" horiz-adv-x="359" 
d="M129 568l98 154h145l-126 -154h-117zM195 380c19 78 64 131 142 131c4 0 6 0 10 -1v-147c-10 1 -19 2 -30 2c-37 0 -63 -11 -82 -31c-23 -25 -30 -63 -30 -108v-226h-147v500h137v-120z" />
    <glyph glyph-name="Rcommaaccent" unicode="&#x156;" horiz-adv-x="587" 
d="M438 309l128 -309h-166l-105 281h-78v-281h-155v710h253c165 0 237 -82 237 -213c0 -93 -41 -159 -114 -188zM217 382h75c68 0 97 43 97 115c0 70 -28 106 -97 106h-75v-221zM238 -136v98h124v-83c0 -55 -23 -93 -81 -107l-27 48c33 9 46 20 46 44h-62z" />
    <glyph glyph-name="rcommaaccent" unicode="&#x157;" horiz-adv-x="359" 
d="M195 380c19 78 64 131 142 131c4 0 6 0 10 -1v-147c-10 1 -19 2 -30 2c-37 0 -63 -11 -82 -31c-23 -25 -30 -63 -30 -108v-226h-147v500h137v-120zM113 -228l-27 48c33 9 46 20 46 44h-62v98h124v-83c0 -55 -23 -93 -81 -107z" />
    <glyph glyph-name="Rcaron" unicode="&#x158;" horiz-adv-x="587" 
d="M357 748h-159l-95 115h116l59 -71l58 71h116zM400 0l-105 281h-78v-281h-155v710h253c165 0 237 -82 237 -213c0 -93 -41 -159 -114 -188l128 -309h-166zM217 382h75c68 0 97 43 97 115c0 70 -28 106 -97 106h-75v-221z" />
    <glyph glyph-name="rcaron" unicode="&#x159;" horiz-adv-x="359" 
d="M16 717h111l60 -102l59 102h112l-96 -154h-151zM195 380c19 78 64 131 142 131c4 0 6 0 10 -1v-147c-10 1 -19 2 -30 2c-37 0 -63 -11 -82 -31c-23 -25 -30 -63 -30 -108v-226h-147v500h137v-120z" />
    <glyph glyph-name="Sacute" unicode="&#x15a;" horiz-adv-x="536" 
d="M212 753l91 115h137l-109 -115h-119zM269 -17c-144 0 -233 72 -266 201l136 60c23 -93 64 -137 136 -137c55 0 87 33 87 82c0 48 -19 76 -78 94l-102 32c-101 32 -148 105 -148 205c0 130 99 207 239 207c128 0 219 -52 248 -180l-126 -63c-20 88 -67 127 -128 127
c-52 0 -85 -30 -85 -75c0 -43 26 -74 82 -93l102 -34c106 -36 149 -99 149 -205c0 -129 -90 -221 -246 -221z" />
    <glyph glyph-name="sacute" unicode="&#x15b;" horiz-adv-x="445" 
d="M163 568l98 154h145l-126 -154h-117zM232 -12c-99 0 -183 38 -217 136l104 57c19 -58 64 -89 109 -89c39 0 59 19 59 47s-13 46 -56 55l-72 13c-86 17 -128 72 -128 150c0 91 79 155 198 155c101 0 175 -42 197 -125l-110 -51c-13 53 -48 77 -89 77
c-36 0 -57 -18 -57 -46c0 -25 9 -43 47 -51l82 -16c85 -17 125 -68 125 -149c0 -92 -73 -163 -192 -163z" />
    <glyph glyph-name="Scircumflex" unicode="&#x15c;" horiz-adv-x="536" 
d="M446 753h-116l-58 71l-59 -71h-116l95 115h159zM269 -17c-144 0 -233 72 -266 201l136 60c23 -93 64 -137 136 -137c55 0 87 33 87 82c0 48 -19 76 -78 94l-102 32c-101 32 -148 105 -148 205c0 130 99 207 239 207c128 0 219 -52 248 -180l-126 -63
c-20 88 -67 127 -128 127c-52 0 -85 -30 -85 -75c0 -43 26 -74 82 -93l102 -34c106 -36 149 -99 149 -205c0 -129 -90 -221 -246 -221z" />
    <glyph glyph-name="scircumflex" unicode="&#x15d;" horiz-adv-x="445" 
d="M391 568h-111l-60 102l-59 -102h-112l96 154h151zM232 -12c-99 0 -183 38 -217 136l104 57c19 -58 64 -89 109 -89c39 0 59 19 59 47s-13 46 -56 55l-72 13c-86 17 -128 72 -128 150c0 91 79 155 198 155c101 0 175 -42 197 -125l-110 -51c-13 53 -48 77 -89 77
c-36 0 -57 -18 -57 -46c0 -25 9 -43 47 -51l82 -16c85 -17 125 -68 125 -149c0 -92 -73 -163 -192 -163z" />
    <glyph glyph-name="Scedilla" unicode="&#x15e;" horiz-adv-x="536" 
d="M366 409c106 -36 149 -99 149 -205c0 -117 -74 -204 -205 -219l-18 -32c10 8 28 13 49 13c50 0 84 -28 84 -83v-4c0 -60 -49 -92 -123 -92c-62 0 -105 24 -120 66l82 20c6 -17 18 -24 35 -24c21 0 34 12 34 35v2c0 21 -13 33 -33 33c-13 0 -23 -5 -30 -15l-65 14l29 67
c-124 11 -201 81 -231 199l136 60c23 -93 64 -137 136 -137c55 0 87 33 87 82c0 48 -19 76 -78 94l-102 32c-101 32 -148 105 -148 205c0 130 99 207 239 207c128 0 219 -52 248 -180l-126 -63c-20 88 -67 127 -128 127c-52 0 -85 -30 -85 -75c0 -43 26 -74 82 -93z" />
    <glyph glyph-name="scedilla" unicode="&#x15f;" horiz-adv-x="445" 
d="M299 300c85 -17 125 -68 125 -149c0 -84 -61 -150 -162 -161l-20 -37c10 8 28 13 49 13c50 0 84 -28 84 -83v-4c0 -60 -49 -92 -123 -92c-62 0 -105 24 -120 66l82 20c6 -17 18 -24 35 -24c21 0 34 12 34 35v2c0 21 -13 33 -33 33c-13 0 -23 -5 -30 -15l-65 14l31 73
c-78 10 -142 50 -171 133l104 57c19 -58 64 -89 109 -89c39 0 59 19 59 47s-13 46 -56 55l-72 13c-86 17 -128 72 -128 150c0 91 79 155 198 155c101 0 175 -42 197 -125l-110 -51c-13 53 -48 77 -89 77c-36 0 -57 -18 -57 -46c0 -25 9 -43 47 -51z" />
    <glyph glyph-name="Scaron" unicode="&#x160;" horiz-adv-x="536" 
d="M447 863l-95 -115h-159l-95 115h116l59 -71l58 71h116zM269 -17c-144 0 -233 72 -266 201l136 60c23 -93 64 -137 136 -137c55 0 87 33 87 82c0 48 -19 76 -78 94l-102 32c-101 32 -148 105 -148 205c0 130 99 207 239 207c128 0 219 -52 248 -180l-126 -63
c-20 88 -67 127 -128 127c-52 0 -85 -30 -85 -75c0 -43 26 -74 82 -93l102 -34c106 -36 149 -99 149 -205c0 -129 -90 -221 -246 -221z" />
    <glyph glyph-name="scaron" unicode="&#x161;" horiz-adv-x="445" 
d="M50 717h111l60 -102l59 102h112l-96 -154h-151zM232 -12c-99 0 -183 38 -217 136l104 57c19 -58 64 -89 109 -89c39 0 59 19 59 47s-13 46 -56 55l-72 13c-86 17 -128 72 -128 150c0 91 79 155 198 155c101 0 175 -42 197 -125l-110 -51c-13 53 -48 77 -89 77
c-36 0 -57 -18 -57 -46c0 -25 9 -43 47 -51l82 -16c85 -17 125 -68 125 -149c0 -92 -73 -163 -192 -163z" />
    <glyph glyph-name="uni0162" unicode="&#x162;" horiz-adv-x="503" 
d="M329 0h-39l-26 -47c10 8 28 13 49 13c50 0 84 -28 84 -83v-4c0 -60 -49 -92 -123 -92c-62 0 -105 24 -120 66l82 20c6 -17 18 -24 35 -24c21 0 34 12 34 35v2c0 21 -13 33 -33 33c-13 0 -23 -5 -30 -15l-65 14l35 82h-38v583h-171v127h497v-127h-171v-583z" />
    <glyph glyph-name="uni0163" unicode="&#x163;" horiz-adv-x="348" 
d="M284 -34c50 0 84 -28 84 -83v-4c0 -60 -49 -92 -123 -92c-62 0 -105 24 -120 66l82 20c6 -17 18 -24 35 -24c21 0 34 12 34 35v2c0 21 -13 33 -33 33c-13 0 -23 -5 -30 -15l-65 14l35 80c-73 17 -105 67 -105 149v253h-72v100h72v117l148 54v-171h100v-100h-100v-215
c0 -45 20 -68 62 -68c16 0 27 1 40 3v-120c-25 -4 -47 -7 -71 -8l-22 -39c10 8 28 13 49 13z" />
    <glyph glyph-name="Tcaron" unicode="&#x164;" horiz-adv-x="503" 
d="M332 748h-159l-95 115h116l59 -71l58 71h116zM500 710v-127h-171v-583h-155v583h-171v127h497z" />
    <glyph glyph-name="tcaron" unicode="&#x165;" horiz-adv-x="363" 
d="M293 526l-25 46c32 8 46 19 46 40h-62v98h124v-83c0 -53 -24 -88 -83 -101zM6 400v100h72v117l148 54v-171h100v-100h-100v-215c0 -45 20 -68 62 -68c16 0 27 1 40 3v-120c-29 -5 -54 -8 -83 -8c-117 0 -167 52 -167 155v253h-72z" />
    <glyph glyph-name="Tbar" unicode="&#x166;" horiz-adv-x="503" 
d="M500 583h-171v-120h127v-71h-127v-392h-155v392h-128v71h128v120h-171v127h497v-127z" />
    <glyph glyph-name="tbar" unicode="&#x167;" horiz-adv-x="350" 
d="M289 117c16 0 27 1 40 3v-120c-29 -5 -54 -8 -83 -8c-117 0 -167 52 -167 155v90h-66v78h66v85h-72v100h72v117l148 54v-171h100v-100h-100v-85h92v-78h-92v-52c0 -45 20 -68 62 -68z" />
    <glyph glyph-name="Utilde" unicode="&#x168;" horiz-adv-x="613" 
d="M375 742c-69 0 -94 54 -133 54c-21 0 -33 -14 -40 -48l-77 25c9 71 50 111 111 111c69 0 94 -54 133 -54c21 0 33 14 40 48l77 -25c-9 -70 -50 -111 -111 -111zM53 710h155v-492c0 -67 36 -107 98 -107s99 40 99 107v492h154v-499c0 -140 -92 -228 -253 -228
c-160 0 -253 88 -253 228v499z" />
    <glyph glyph-name="utilde" unicode="&#x169;" horiz-adv-x="526" 
d="M331 570c-69 0 -96 61 -135 61c-22 0 -34 -16 -41 -53l-77 25c9 75 49 121 113 121c69 0 95 -61 135 -61c22 0 34 16 41 53l78 -25c-9 -75 -49 -121 -114 -121zM192 -12c-102 0 -141 64 -141 168v344h148v-322c0 -52 19 -78 57 -78c40 0 65 35 65 94v306h147v-500h-141
v84c-21 -60 -70 -96 -135 -96z" />
    <glyph glyph-name="Umacron" unicode="&#x16a;" horiz-adv-x="613" 
d="M142 756v93h328v-93h-328zM53 710h155v-492c0 -67 36 -107 98 -107s99 40 99 107v492h154v-499c0 -140 -92 -228 -253 -228c-160 0 -253 88 -253 228v499z" />
    <glyph glyph-name="umacron" unicode="&#x16b;" horiz-adv-x="526" 
d="M102 592v95h316v-95h-316zM192 -12c-102 0 -141 64 -141 168v344h148v-322c0 -52 19 -78 57 -78c40 0 65 35 65 94v306h147v-500h-141v84c-21 -60 -70 -96 -135 -96z" />
    <glyph glyph-name="Ubreve" unicode="&#x16c;" horiz-adv-x="613" 
d="M245 868c2 -27 25 -44 61 -44c37 0 59 17 62 44h99c-5 -77 -61 -120 -161 -120c-99 0 -156 43 -161 120h100zM53 710h155v-492c0 -67 36 -107 98 -107s99 40 99 107v492h154v-499c0 -140 -92 -228 -253 -228c-160 0 -253 88 -253 228v499z" />
    <glyph glyph-name="ubreve" unicode="&#x16d;" horiz-adv-x="526" 
d="M198 715c2 -47 23 -73 62 -73s60 26 62 73h99c-4 -105 -66 -152 -161 -152s-157 47 -161 152h99zM192 -12c-102 0 -141 64 -141 168v344h148v-322c0 -52 19 -78 57 -78c40 0 65 35 65 94v306h147v-500h-141v84c-21 -60 -70 -96 -135 -96z" />
    <glyph glyph-name="Uring" unicode="&#x16e;" horiz-adv-x="613" 
d="M306 742c-72 0 -121 46 -121 113s49 113 121 113s121 -46 121 -113s-49 -113 -121 -113zM306 804c30 0 49 21 49 51s-19 52 -49 52s-49 -22 -49 -52s19 -51 49 -51zM53 710h155v-492c0 -67 36 -107 98 -107s99 40 99 107v492h154v-499c0 -140 -92 -228 -253 -228
c-160 0 -253 88 -253 228v499z" />
    <glyph glyph-name="uring" unicode="&#x16f;" horiz-adv-x="526" 
d="M260 548c-72 0 -121 46 -121 113c0 68 49 114 121 114s121 -46 121 -114c0 -67 -49 -113 -121 -113zM260 612c28 0 47 21 47 49c0 29 -19 49 -47 49c-29 0 -47 -20 -47 -49c0 -28 18 -49 47 -49zM192 -12c-102 0 -141 64 -141 168v344h148v-322c0 -52 19 -78 57 -78
c40 0 65 35 65 94v306h147v-500h-141v84c-21 -60 -70 -96 -135 -96z" />
    <glyph glyph-name="Uhungarumlaut" unicode="&#x170;" horiz-adv-x="613" 
d="M167 754l89 114h122l-102 -114h-109zM333 754l89 114h122l-102 -114h-109zM53 710h155v-492c0 -67 36 -107 98 -107s99 40 99 107v492h154v-499c0 -140 -92 -228 -253 -228c-160 0 -253 88 -253 228v499z" />
    <glyph glyph-name="uhungarumlaut" unicode="&#x171;" horiz-adv-x="526" 
d="M127 568l86 154h110l-98 -154h-98zM284 568l86 154h110l-98 -154h-98zM192 -12c-102 0 -141 64 -141 168v344h148v-322c0 -52 19 -78 57 -78c40 0 65 35 65 94v306h147v-500h-141v84c-21 -60 -70 -96 -135 -96z" />
    <glyph glyph-name="Uogonek" unicode="&#x172;" horiz-adv-x="613" 
d="M405 710h154v-499c0 -115 -62 -195 -174 -220c-54 -22 -78 -54 -78 -87c0 -22 12 -35 33 -35c20 0 33 13 44 39l74 -27c-19 -59 -64 -83 -127 -83c-71 0 -118 32 -118 93c0 38 18 68 56 94c-137 12 -216 97 -216 226v499h155v-492c0 -67 36 -107 98 -107s99 40 99 107
v492z" />
    <glyph glyph-name="uogonek" unicode="&#x173;" horiz-adv-x="526" 
d="M415 -92l74 -27c-19 -59 -64 -83 -127 -83c-71 0 -118 32 -118 93c0 46 27 81 83 109v84c-21 -60 -70 -96 -135 -96c-102 0 -141 64 -141 168v344h148v-322c0 -52 19 -78 57 -78c40 0 65 35 65 94v306h147v-500h-26c-72 -21 -104 -58 -104 -96c0 -22 12 -35 33 -35
c20 0 33 13 44 39z" />
    <glyph glyph-name="Wcircumflex" unicode="&#x174;" horiz-adv-x="807" 
d="M578 753h-116l-58 71l-59 -71h-116l95 115h159zM145 0l-126 710h150l64 -447c3 -28 5 -58 6 -87h4c2 27 5 54 9 83l75 451h153l76 -451c4 -29 6 -56 9 -83h3c1 29 3 59 6 87l64 447h151l-126 -710h-178l-73 444c-4 30 -5 60 -6 87h-5c-1 -27 -2 -57 -6 -87l-73 -444h-177
z" />
    <glyph glyph-name="wcircumflex" unicode="&#x175;" horiz-adv-x="674" 
d="M507 568h-111l-60 102l-59 -102h-112l96 154h151zM119 0l-110 500h143l46 -303c2 -21 4 -41 5 -62h3c2 21 4 41 7 61l58 304h132l58 -304c3 -20 6 -40 7 -61h2c2 21 3 41 6 62l46 303h143l-110 -500h-151l-60 296c-3 21 -5 46 -5 62h-4c0 -16 -2 -41 -5 -62l-60 -296
h-151z" />
    <glyph glyph-name="Ycircumflex" unicode="&#x176;" horiz-adv-x="541" 
d="M445 753h-116l-58 71l-59 -71h-116l95 115h159zM193 0v256l-194 454h163l93 -249c7 -25 12 -47 15 -73h3c3 26 7 48 15 73l91 249h163l-193 -454v-256h-156z" />
    <glyph glyph-name="ycircumflex" unicode="&#x177;" horiz-adv-x="457" 
d="M402 568h-111l-60 102l-59 -102h-112l96 154h151zM79 -202c-16 0 -35 2 -55 5v114c22 -3 32 -4 42 -4c48 0 74 20 86 62l6 23l-160 502h160l66 -293c6 -31 9 -57 11 -87h3c1 31 4 55 10 86l61 294h151l-151 -526c-36 -128 -107 -176 -230 -176z" />
    <glyph glyph-name="Ydieresis" unicode="&#x178;" horiz-adv-x="541" 
d="M109 753v110h124v-110h-124zM309 753v110h124v-110h-124zM193 0v256l-194 454h163l93 -249c7 -25 12 -47 15 -73h3c3 26 7 48 15 73l91 249h163l-193 -454v-256h-156z" />
    <glyph glyph-name="Zacute" unicode="&#x179;" horiz-adv-x="504" 
d="M194 753l91 115h137l-109 -115h-119zM26 113l276 472h-264v125h436v-112l-273 -474h286v-124h-461v113z" />
    <glyph glyph-name="zacute" unicode="&#x17a;" horiz-adv-x="412" 
d="M150 568l98 154h145l-126 -154h-117zM18 90l201 305h-190v105h356v-87l-197 -306h209v-107h-379v90z" />
    <glyph glyph-name="Zdotaccent" unicode="&#x17b;" horiz-adv-x="504" 
d="M181 753v114h147v-114h-147zM26 113l276 472h-264v125h436v-112l-273 -474h286v-124h-461v113z" />
    <glyph glyph-name="zdotaccent" unicode="&#x17c;" horiz-adv-x="412" 
d="M132 571v141h152v-141h-152zM18 90l201 305h-190v105h356v-87l-197 -306h209v-107h-379v90z" />
    <glyph glyph-name="Zcaron" unicode="&#x17d;" horiz-adv-x="504" 
d="M429 863l-95 -115h-159l-95 115h116l59 -71l58 71h116zM26 113l276 472h-264v125h436v-112l-273 -474h286v-124h-461v113z" />
    <glyph glyph-name="zcaron" unicode="&#x17e;" horiz-adv-x="412" 
d="M37 717h111l60 -102l59 102h112l-96 -154h-151zM18 90l201 305h-190v105h356v-87l-197 -306h209v-107h-379v90z" />
    <glyph glyph-name="florin" unicode="&#x192;" horiz-adv-x="423" 
d="M373 593c-57 0 -72 -33 -81 -99l-9 -66h92v-98h-104l-63 -480h-154l63 480h-90v98h103l7 55c20 151 74 226 216 226c29 0 50 -4 61 -7v-113c-10 1 -26 4 -41 4z" />
    <glyph glyph-name="AEacute" unicode="&#x1fc;" horiz-adv-x="833" 
d="M741 868l-109 -115h-119l91 115h137zM552 117h248v-117h-402v162h-181l-66 -162h-154l318 710h478v-117h-241v-171h225v-116h-225v-189zM262 270h136v333z" />
    <glyph glyph-name="aeacute" unicode="&#x1fd;" horiz-adv-x="770" 
d="M570 722l-126 -154h-117l98 154h145zM739 223h-281v-7c0 -91 33 -122 80 -122c41 1 69 32 76 86l125 -37c-16 -96 -97 -155 -205 -155c-77 0 -136 29 -171 82c-33 -55 -96 -82 -171 -82c-100 0 -164 52 -164 147c0 87 58 133 170 150l110 17v31c0 58 -19 81 -58 81
c-36 0 -60 -25 -61 -83h-148c1 116 85 181 205 181c64 0 110 -18 141 -51c35 33 82 51 142 51c135 0 210 -76 210 -225v-64zM526 426c-45 0 -68 -30 -68 -121v-3h132c1 87 -16 124 -64 124zM311 167v64l-59 -9c-48 -8 -71 -34 -71 -77c0 -38 22 -58 56 -58c42 0 74 31 74 80
z" />
    <glyph glyph-name="Oslashacute" unicode="&#x1fe;" horiz-adv-x="623" 
d="M484 868l-109 -115h-119l91 115h137zM526 633c44 -60 68 -151 68 -278c0 -265 -106 -372 -282 -372c-67 0 -124 15 -169 49l-40 -62l-48 32l46 72c-47 60 -72 152 -72 281c0 266 106 373 283 373c69 0 127 -16 172 -52l40 63l49 -32zM189 355c0 -52 3 -94 10 -127
l204 321c-20 41 -51 56 -91 56c-78 0 -123 -56 -123 -250zM312 105c77 0 121 58 121 250c0 48 -3 88 -8 120l-203 -318c21 -38 51 -52 90 -52z" />
    <glyph glyph-name="oslashacute" unicode="&#x1ff;" horiz-adv-x="510" 
d="M434 722l-126 -154h-117l98 154h145zM421 448c39 -42 61 -107 61 -198c0 -186 -93 -262 -227 -262c-52 0 -98 11 -135 36l-32 -45l-35 25l35 49c-38 42 -60 107 -60 197c0 186 93 262 227 262c51 0 97 -11 133 -35l31 43l35 -26zM181 250c0 -24 1 -44 3 -61l128 181
c-12 30 -32 40 -57 40c-45 0 -74 -34 -74 -160zM255 90c45 0 74 34 74 160c0 25 -1 46 -3 64l-129 -182c13 -31 33 -42 58 -42z" />
    <glyph glyph-name="Scommaaccent" unicode="&#x218;" horiz-adv-x="536" 
d="M269 -17c-144 0 -233 72 -266 201l136 60c23 -93 64 -137 136 -137c55 0 87 33 87 82c0 48 -19 76 -78 94l-102 32c-101 32 -148 105 -148 205c0 130 99 207 239 207c128 0 219 -52 248 -180l-126 -63c-20 88 -67 127 -128 127c-52 0 -85 -30 -85 -75
c0 -43 26 -74 82 -93l102 -34c106 -36 149 -99 149 -205c0 -129 -90 -221 -246 -221zM261 -228l-27 48c33 9 46 20 46 44h-62v98h124v-83c0 -55 -23 -93 -81 -107z" />
    <glyph glyph-name="scommaaccent" unicode="&#x219;" horiz-adv-x="445" 
d="M232 -12c-99 0 -183 38 -217 136l104 57c19 -58 64 -89 109 -89c39 0 59 19 59 47s-13 46 -56 55l-72 13c-86 17 -128 72 -128 150c0 91 79 155 198 155c101 0 175 -42 197 -125l-110 -51c-13 53 -48 77 -89 77c-36 0 -57 -18 -57 -46c0 -25 9 -43 47 -51l82 -16
c85 -17 125 -68 125 -149c0 -92 -73 -163 -192 -163zM211 -228l-27 48c33 9 46 20 46 44h-62v98h124v-83c0 -55 -23 -93 -81 -107z" />
    <glyph glyph-name="uni021A" unicode="&#x21a;" horiz-adv-x="503" 
d="M500 710v-127h-171v-583h-155v583h-171v127h497zM190 -136v98h124v-83c0 -55 -23 -93 -81 -107l-27 48c33 9 46 20 46 44h-62z" />
    <glyph glyph-name="uni021B" unicode="&#x21b;" horiz-adv-x="348" 
d="M6 400v100h72v117l148 54v-171h100v-100h-100v-215c0 -45 20 -68 62 -68c16 0 27 1 40 3v-120c-29 -5 -54 -8 -83 -8c-117 0 -167 52 -167 155v253h-72zM204 -228l-27 48c33 9 46 20 46 44h-62v98h124v-83c0 -55 -23 -93 -81 -107z" />
    <glyph glyph-name="uni0237" unicode="&#x237;" horiz-adv-x="266" 
d="M41 -201c-22 0 -52 2 -66 5v112c13 -2 26 -2 35 -2c37 0 51 16 51 65v521h147v-531c0 -109 -37 -170 -167 -170z" />
    <glyph glyph-name="uni0243" unicode="&#x243;" horiz-adv-x="568" 
d="M418 365c77 -17 122 -70 122 -159v-11c0 -101 -56 -175 -168 -192v-110h-61v107h-65v-107h-60v107h-124v695h124v90h60v-90h65v90h61v-94c106 -15 155 -79 155 -170v-11c0 -71 -38 -126 -109 -145zM373 508c0 54 -25 83 -88 83h-76v-189h76c65 0 88 36 88 95v11zM386 203
v12c0 62 -29 93 -90 93h-87v-204h87c62 0 90 37 90 99z" />
    <glyph glyph-name="circumflex" unicode="&#x2c6;" horiz-adv-x="600" 
d="M387 568h-111l-60 102l-59 -102h-112l96 154h151z" />
    <glyph glyph-name="caron" unicode="&#x2c7;" horiz-adv-x="600" 
d="M46 717h111l60 -102l59 102h112l-96 -154h-151z" />
    <glyph glyph-name="breve" unicode="&#x2d8;" horiz-adv-x="600" 
d="M152 715c2 -47 23 -73 62 -73s60 26 62 73h99c-4 -105 -66 -152 -161 -152s-157 47 -161 152h99z" />
    <glyph glyph-name="dotaccent" unicode="&#x2d9;" horiz-adv-x="600" 
d="M50 571v141h152v-141h-152z" />
    <glyph glyph-name="ring" unicode="&#x2da;" horiz-adv-x="600" 
d="M164 548c-72 0 -121 46 -121 113c0 68 49 114 121 114s121 -46 121 -114c0 -67 -49 -113 -121 -113zM164 612c28 0 47 21 47 49c0 29 -19 49 -47 49c-29 0 -47 -20 -47 -49c0 -28 18 -49 47 -49z" />
    <glyph glyph-name="ogonek" unicode="&#x2db;" horiz-adv-x="600" 
d="M291 -119c-19 -59 -64 -83 -127 -83c-71 0 -118 32 -118 93c0 46 27 81 83 109h115c-72 -21 -104 -58 -104 -96c0 -22 12 -35 33 -35c20 0 33 13 44 39z" />
    <glyph glyph-name="tilde" unicode="&#x2dc;" horiz-adv-x="600" 
d="M305 570c-69 0 -96 61 -135 61c-22 0 -34 -16 -41 -53l-77 25c9 75 49 121 113 121c69 0 95 -61 135 -61c22 0 34 16 41 53l78 -25c-9 -75 -49 -121 -114 -121z" />
    <glyph glyph-name="hungarumlaut" unicode="&#x2dd;" horiz-adv-x="600" 
d="M75 568l86 154h110l-98 -154h-98zM232 568l86 154h110l-98 -154h-98z" />
    <glyph glyph-name="gravecomb" unicode="&#x300;" horiz-adv-x="0" 
d="M-24 568h-117l-126 154h145z" />
    <glyph glyph-name="acutecomb" unicode="&#x301;" horiz-adv-x="0" 
d="M-280 568l98 154h145l-126 -154h-117z" />
    <glyph glyph-name="uni0302" unicode="&#x302;" horiz-adv-x="0" 
d="M-46 568h-111l-60 102l-59 -102h-112l96 154h151z" />
    <glyph glyph-name="tildecomb" unicode="&#x303;" horiz-adv-x="0" 
d="M-165 570c-69 0 -96 61 -135 61c-22 0 -34 -16 -41 -53l-77 25c9 75 49 121 113 121c69 0 95 -61 135 -61c22 0 34 16 41 53l78 -25c-9 -75 -49 -121 -114 -121z" />
    <glyph glyph-name="uni0304" unicode="&#x304;" horiz-adv-x="0" 
d="M-364 592v95h316v-95h-316z" />
    <glyph glyph-name="uni0306" unicode="&#x306;" horiz-adv-x="0" 
d="M-276 715c2 -47 23 -73 62 -73s60 26 62 73h99c-4 -105 -66 -152 -161 -152s-157 47 -161 152h99z" />
    <glyph glyph-name="uni0307" unicode="&#x307;" horiz-adv-x="0" 
d="M-202 571v141h152v-141h-152z" />
    <glyph glyph-name="uni0308" unicode="&#x308;" horiz-adv-x="0" 
d="M-371 575v127h127v-127h-127zM-176 575v127h127v-127h-127z" />
    <glyph glyph-name="uni030A" unicode="&#x30a;" horiz-adv-x="0" 
d="M-164 548c-72 0 -121 46 -121 113c0 68 49 114 121 114s121 -46 121 -114c0 -67 -49 -113 -121 -113zM-164 612c28 0 47 21 47 49c0 29 -19 49 -47 49c-29 0 -47 -20 -47 -49c0 -28 18 -49 47 -49z" />
    <glyph glyph-name="uni030B" unicode="&#x30b;" horiz-adv-x="0" 
d="M-433 568l86 154h110l-98 -154h-98zM-276 568l86 154h110l-98 -154h-98z" />
    <glyph glyph-name="uni030C" unicode="&#x30c;" horiz-adv-x="0" 
d="M-387 717h111l60 -102l59 102h112l-96 -154h-151z" />
    <glyph glyph-name="uni0312" unicode="&#x312;" horiz-adv-x="0" 
d="M-94 758l27 -48c-33 -9 -46 -20 -46 -44h62v-98h-124v83c0 55 23 93 81 107z" />
    <glyph glyph-name="uni0326" unicode="&#x326;" horiz-adv-x="0" 
d="M-132 -228l-27 48c33 9 46 20 46 44h-62v98h124v-83c0 -55 -23 -93 -81 -107z" />
    <glyph glyph-name="uni0327" unicode="&#x327;" horiz-adv-x="0" 
d="M-237 4h78l-28 -51c10 8 28 13 49 13c50 0 84 -28 84 -83v-4c0 -60 -49 -92 -123 -92c-62 0 -105 24 -120 66l82 20c6 -17 18 -24 35 -24c21 0 34 12 34 35v2c0 21 -13 33 -33 33c-13 0 -23 -5 -30 -15l-65 14z" />
    <glyph glyph-name="uni0328" unicode="&#x328;" horiz-adv-x="0" 
d="M-62 -119c-19 -59 -64 -83 -127 -83c-71 0 -118 32 -118 93c0 46 27 81 83 109h115c-72 -21 -104 -58 -104 -96c0 -22 12 -35 33 -35c20 0 33 13 44 39z" />
    <glyph glyph-name="uni0394" unicode="&#x394;" horiz-adv-x="567" 
d="M11 0l182 710h184l179 -710h-545zM284 567l-104 -457h202z" />
    <glyph glyph-name="uni03A9" unicode="&#x3a9;" horiz-adv-x="584" 
d="M546 0h-214l-14 268c55 12 84 58 84 128v90c0 74 -43 121 -110 121s-110 -47 -110 -121v-90c0 -70 30 -116 84 -128l-14 -268h-213v120h110l5 69c-76 28 -119 103 -119 204v92c0 145 102 240 257 240s258 -95 258 -240v-92c0 -101 -44 -176 -120 -204l5 -69h111v-120z
" />
    <glyph glyph-name="uni03BC" unicode="&#x3bc;" horiz-adv-x="533" 
d="M328 500h147v-500h-141v84c-21 -60 -70 -96 -135 -96h-10v-183h-131v695h148v-322c0 -52 19 -78 57 -78c40 0 65 35 65 94v306z" />
    <glyph glyph-name="pi" unicode="&#x3c0;" horiz-adv-x="563" 
d="M544 2c-15 -4 -46 -10 -70 -10c-110 0 -144 58 -144 145v264h-96v-401h-145v401h-71v99h527v-99h-69v-252c0 -35 13 -50 41 -50c12 0 22 2 27 3v-100z" />
    <glyph glyph-name="uni0E3F" unicode="&#xe3f;" horiz-adv-x="570" 
d="M420 365c79 -17 123 -73 123 -159v-11c0 -127 -82 -195 -219 -195h-12v-107h-54v107h-196v695h196v91h54v-91h4c135 0 213 -58 213 -171v-17c0 -72 -40 -124 -109 -142zM194 594v-195h64v195h-64zM388 510c0 51 -25 79 -76 83v-193c50 5 76 37 76 96v14zM194 101h64v210
h-64v-210zM401 202v14c0 61 -30 93 -89 95v-210c58 2 89 37 89 101z" />
    <glyph glyph-name="Wgrave" unicode="&#x1e80;" horiz-adv-x="807" 
d="M459 753h-119l-109 115h137zM145 0l-126 710h150l64 -447c3 -28 5 -58 6 -87h4c2 27 5 54 9 83l75 451h153l76 -451c4 -29 6 -56 9 -83h3c1 29 3 59 6 87l64 447h151l-126 -710h-178l-73 444c-4 30 -5 60 -6 87h-5c-1 -27 -2 -57 -6 -87l-73 -444h-177z" />
    <glyph glyph-name="wgrave" unicode="&#x1e81;" horiz-adv-x="674" 
d="M395 568h-117l-126 154h145zM119 0l-110 500h143l46 -303c2 -21 4 -41 5 -62h3c2 21 4 41 7 61l58 304h132l58 -304c3 -20 6 -40 7 -61h2c2 21 3 41 6 62l46 303h143l-110 -500h-151l-60 296c-3 21 -5 46 -5 62h-4c0 -16 -2 -41 -5 -62l-60 -296h-151z" />
    <glyph glyph-name="Wacute" unicode="&#x1e82;" horiz-adv-x="807" 
d="M344 753l91 115h137l-109 -115h-119zM145 0l-126 710h150l64 -447c3 -28 5 -58 6 -87h4c2 27 5 54 9 83l75 451h153l76 -451c4 -29 6 -56 9 -83h3c1 29 3 59 6 87l64 447h151l-126 -710h-178l-73 444c-4 30 -5 60 -6 87h-5c-1 -27 -2 -57 -6 -87l-73 -444h-177z" />
    <glyph glyph-name="wacute" unicode="&#x1e83;" horiz-adv-x="674" 
d="M279 568l98 154h145l-126 -154h-117zM119 0l-110 500h143l46 -303c2 -21 4 -41 5 -62h3c2 21 4 41 7 61l58 304h132l58 -304c3 -20 6 -40 7 -61h2c2 21 3 41 6 62l46 303h143l-110 -500h-151l-60 296c-3 21 -5 46 -5 62h-4c0 -16 -2 -41 -5 -62l-60 -296h-151z" />
    <glyph glyph-name="Wdieresis" unicode="&#x1e84;" horiz-adv-x="807" 
d="M242 753v110h124v-110h-124zM442 753v110h124v-110h-124zM145 0l-126 710h150l64 -447c3 -28 5 -58 6 -87h4c2 27 5 54 9 83l75 451h153l76 -451c4 -29 6 -56 9 -83h3c1 29 3 59 6 87l64 447h151l-126 -710h-178l-73 444c-4 30 -5 60 -6 87h-5c-1 -27 -2 -57 -6 -87
l-73 -444h-177z" />
    <glyph glyph-name="wdieresis" unicode="&#x1e85;" horiz-adv-x="674" 
d="M176 575v127h127v-127h-127zM371 575v127h127v-127h-127zM119 0l-110 500h143l46 -303c2 -21 4 -41 5 -62h3c2 21 4 41 7 61l58 304h132l58 -304c3 -20 6 -40 7 -61h2c2 21 3 41 6 62l46 303h143l-110 -500h-151l-60 296c-3 21 -5 46 -5 62h-4c0 -16 -2 -41 -5 -62
l-60 -296h-151z" />
    <glyph glyph-name="Ygrave" unicode="&#x1ef2;" horiz-adv-x="541" 
d="M326 753h-119l-109 115h137zM193 0v256l-194 454h163l93 -249c7 -25 12 -47 15 -73h3c3 26 7 48 15 73l91 249h163l-193 -454v-256h-156z" />
    <glyph glyph-name="ygrave" unicode="&#x1ef3;" horiz-adv-x="457" 
d="M290 568h-117l-126 154h145zM79 -202c-16 0 -35 2 -55 5v114c22 -3 32 -4 42 -4c48 0 74 20 86 62l6 23l-160 502h160l66 -293c6 -31 9 -57 11 -87h3c1 31 4 55 10 86l61 294h151l-151 -526c-36 -128 -107 -176 -230 -176z" />
    <glyph glyph-name="uni2002" unicode="&#x2002;" horiz-adv-x="500" 
 />
    <glyph glyph-name="uni2003" unicode="&#x2003;" horiz-adv-x="1000" 
 />
    <glyph glyph-name="uni2004" unicode="&#x2004;" horiz-adv-x="0" 
 />
    <glyph glyph-name="uni2005" unicode="&#x2005;" horiz-adv-x="250" 
 />
    <glyph glyph-name="uni2009" unicode="&#x2009;" horiz-adv-x="135" 
 />
    <glyph glyph-name="uni200A" unicode="&#x200a;" horiz-adv-x="75" 
 />
    <glyph glyph-name="endash" unicode="&#x2013;" horiz-adv-x="531" 
d="M38 333h455v-110h-455v110z" />
    <glyph glyph-name="emdash" unicode="&#x2014;" horiz-adv-x="762" 
d="M38 333h686v-110h-686v110z" />
    <glyph glyph-name="quoteleft" unicode="&#x2018;" horiz-adv-x="255" 
d="M167 738l34 -68c-52 -18 -63 -41 -63 -85v-3h70v-163h-161v153c0 84 34 138 120 166z" />
    <glyph glyph-name="quoteright" unicode="&#x2019;" horiz-adv-x="255" 
d="M88 391l-34 68c52 18 63 41 63 85v3h-70v163h161v-153c0 -84 -34 -138 -120 -166z" />
    <glyph glyph-name="quotesinglbase" unicode="&#x201a;" horiz-adv-x="255" 
d="M88 -156l-34 68c52 18 63 41 63 85v3h-70v163h161v-153c0 -84 -34 -138 -120 -166z" />
    <glyph glyph-name="quotedblleft" unicode="&#x201c;" horiz-adv-x="459" 
d="M167 739l34 -68c-52 -18 -63 -41 -63 -85v-3h70v-163h-161v153c0 84 34 138 120 166zM371 739l34 -68c-52 -18 -63 -41 -63 -85v-3h70v-163h-161v153c0 84 34 138 120 166z" />
    <glyph glyph-name="quotedblright" unicode="&#x201d;" horiz-adv-x="459" 
d="M88 390l-34 68c52 18 63 41 63 85v3h-70v163h161v-153c0 -84 -34 -138 -120 -166zM292 390l-34 68c52 18 63 41 63 85v3h-70v163h161v-153c0 -84 -34 -138 -120 -166z" />
    <glyph glyph-name="quotedblbase" unicode="&#x201e;" horiz-adv-x="459" 
d="M88 -157l-34 68c52 18 63 41 63 85v3h-70v163h161v-153c0 -84 -34 -138 -120 -166zM292 -157l-34 68c52 18 63 41 63 85v3h-70v163h161v-153c0 -84 -34 -138 -120 -166z" />
    <glyph glyph-name="dagger" unicode="&#x2020;" horiz-adv-x="458" 
d="M287 401v-495h-117v495h-130v99h130v218h117v-218h130v-99h-130z" />
    <glyph glyph-name="daggerdbl" unicode="&#x2021;" horiz-adv-x="458" 
d="M417 401h-130v-180h130v-99h-130v-216h-117v216h-130v99h130v180h-130v99h130v218h117v-218h130v-99z" />
    <glyph glyph-name="bullet" unicode="&#x2022;" horiz-adv-x="335" 
d="M167 221c-69 0 -120 48 -120 119c0 73 51 122 120 122c70 0 121 -48 121 -122c0 -71 -51 -119 -121 -119z" />
    <glyph glyph-name="ellipsis" unicode="&#x2026;" horiz-adv-x="765" 
d="M202 160v-160h-155v160h155zM460 160v-160h-155v160h155zM718 160v-160h-155v160h155z" />
    <glyph glyph-name="perthousand" unicode="&#x2030;" horiz-adv-x="1144" 
d="M121 -14l438 741h95l-436 -741h-97zM183 338c-104 0 -171 71 -171 191c0 117 67 187 171 187s171 -69 171 -187c0 -120 -67 -191 -171 -191zM183 422c36 0 59 27 59 107c0 77 -23 103 -59 103s-60 -25 -60 -103c0 -80 24 -107 60 -107zM590 -10c-104 0 -171 71 -171 191
c0 117 67 187 171 187s171 -69 171 -187c0 -120 -67 -191 -171 -191zM962 -10c-104 0 -171 71 -171 191c0 117 67 187 171 187s171 -69 171 -187c0 -120 -67 -191 -171 -191zM590 74c36 0 59 27 59 107c0 77 -23 103 -59 103s-60 -25 -60 -103c0 -80 24 -107 60 -107z
M962 74c36 0 59 27 59 107c0 77 -23 103 -59 103s-60 -25 -60 -103c0 -80 24 -107 60 -107z" />
    <glyph glyph-name="guilsinglleft" unicode="&#x2039;" horiz-adv-x="306" 
d="M153 67l-139 209l142 206h129l-139 -205l137 -210h-130z" />
    <glyph glyph-name="guilsinglright" unicode="&#x203a;" horiz-adv-x="306" 
d="M153 67h-130l137 210l-139 205h129l142 -206z" />
    <glyph glyph-name="fraction" unicode="&#x2044;" horiz-adv-x="181" 
d="M-159 -17l401 744h97l-398 -744h-100z" />
    <glyph glyph-name="uni20A9" unicode="&#x20a9;" horiz-adv-x="797" 
d="M779 401h-61l-14 -77h75v-57h-84l-46 -267h-166l-39 267h-91l-39 -267h-165l-46 267h-85v57h76l-14 77h-62v56h53l-41 238h133l29 -238h97l38 238h143l38 -238h98l28 238h134l-41 -238h52v-56zM382 460v-3h33v3c-7 57 -11 97 -14 146h-5c-3 -49 -6 -89 -14 -146zM199 401
l9 -77h60l12 77h-81zM362 324h73l-11 77h-51zM590 324l9 77h-82l12 -77h61zM251 221l7 46h-43l5 -40c6 -57 9 -92 11 -136h4c4 43 8 75 16 130zM578 227l5 40h-44l7 -46c8 -55 12 -87 16 -130h4c2 44 5 79 12 136z" />
    <glyph glyph-name="Euro" unicode="&#x20ac;" horiz-adv-x="586" 
d="M420 210l148 -29c-20 -127 -112 -195 -250 -195c-158 0 -246 85 -266 271h-51v61h47c-1 11 -1 22 -1 33s0 22 1 33h-47v62h51c23 182 114 263 270 263c135 0 229 -70 243 -187l-148 -29c-7 62 -42 97 -96 97c-63 0 -101 -40 -113 -144h183v-62h-188v-33v-33h188v-61h-183
c12 -109 50 -152 115 -152c50 0 89 38 97 105z" />
    <glyph glyph-name="uni20B9" unicode="&#x20b9;" horiz-adv-x="490" 
d="M487 603h-153c24 -25 38 -57 44 -96h109v-64h-108c-7 -91 -65 -153 -161 -172l177 -271h-161l-182 284v66h63c65 0 101 30 108 93h-171v64h171c-7 65 -42 96 -106 96h-65v92h435v-92z" />
    <glyph glyph-name="uni20BA" unicode="&#x20ba;" horiz-adv-x="518" 
d="M386 231l130 -22c-21 -100 -77 -209 -244 -209h-197v257l-65 -19v70l65 19v79l-65 -19v70l65 19v219h151v-175l168 49v-70l-168 -49v-78l168 49v-71l-168 -49v-187h33c84 0 113 56 127 117z" />
    <glyph glyph-name="uni20BD" unicode="&#x20bd;" horiz-adv-x="537" 
d="M295 695c144 0 231 -75 231 -202v-18c0 -135 -87 -214 -236 -214h-71v-77h110v-63h-110v-121h-150v121h-73v63h73v77h-73v101h73v333h226zM366 472v14c0 69 -32 103 -92 103h-55v-227h54c61 0 93 37 93 110z" />
    <glyph glyph-name="uni2105" unicode="&#x2105;" horiz-adv-x="778" 
d="M207 -13h-106l466 746h105zM12 514v42c0 104 57 169 167 169c94 0 151 -49 157 -135v-5l-109 -16v10c-3 39 -21 60 -50 60c-36 0 -55 -31 -55 -82v-42c0 -52 19 -85 56 -85c29 0 47 22 49 60v12l109 -17v-8c-10 -80 -63 -132 -159 -132c-109 0 -165 70 -165 169zM597 -4
c-101 0 -167 63 -167 169v42c0 107 65 170 167 170s166 -63 166 -169v-44c0 -106 -66 -168 -166 -168zM652 165v43c0 55 -21 83 -55 83c-35 0 -56 -28 -56 -84v-42c0 -56 21 -85 56 -85c34 0 55 29 55 85z" />
    <glyph glyph-name="uni2113" unicode="&#x2113;" horiz-adv-x="485" 
d="M228 226c0 -91 28 -120 99 -120c24 0 43 3 62 7v-113c-25 -8 -53 -13 -99 -13c-139 0 -201 61 -208 180c-20 -7 -40 -13 -61 -20l-35 107c35 12 66 23 95 34v246c0 140 73 199 186 199c120 0 186 -68 186 -181c0 -137 -74 -240 -225 -321v-5zM228 571v-209
c57 43 83 98 83 185c0 61 -15 83 -43 83c-26 0 -40 -21 -40 -59z" />
    <glyph glyph-name="uni2116" unicode="&#x2116;" horiz-adv-x="1089" 
d="M62 0v710h169l179 -370c17 -36 27 -69 35 -118h2c-2 47 -2 94 -2 142v346h142v-710h-156l-190 388c-20 42 -29 77 -36 119h-2c1 -37 2 -89 2 -137v-370h-143zM840 172c-128 0 -207 80 -207 209v65c0 129 79 209 207 209s207 -80 207 -209v-65c0 -129 -79 -209 -207 -209z
M840 277c46 0 72 38 72 102v69c0 64 -26 102 -72 102c-45 0 -72 -38 -72 -102v-69c0 -63 27 -102 72 -102zM632 0v104h416v-104h-416z" />
    <glyph glyph-name="trademark" unicode="&#x2122;" horiz-adv-x="771" 
d="M107 304v328h-101v78h298v-78h-103v-328h-94zM340 304v406h129l54 -219c5 -25 7 -43 9 -63h2c1 20 4 38 9 63l53 219h129v-406h-82v216c0 39 1 66 3 104h-2c-3 -20 -7 -35 -15 -73l-59 -247h-74l-59 247l-15 73h-2c2 -38 3 -65 3 -104v-216h-83z" />
    <glyph glyph-name="uni2126" unicode="&#x2126;" horiz-adv-x="584" 
d="M546 0h-214l-14 268c55 12 84 58 84 128v90c0 74 -43 121 -110 121s-110 -47 -110 -121v-90c0 -70 30 -116 84 -128l-14 -268h-213v120h110l5 69c-76 28 -119 103 -119 204v92c0 145 102 240 257 240s258 -95 258 -240v-92c0 -101 -44 -176 -120 -204l5 -69h111v-120z
" />
    <glyph glyph-name="estimated" unicode="&#x212e;" horiz-adv-x="626" 
d="M597 347h-400v-254c37 -27 83 -36 126 -36c101 0 160 44 204 148l59 -32c-48 -124 -137 -187 -264 -187c-164 0 -293 95 -293 320v94c0 212 126 317 290 317c173 0 278 -110 278 -296v-74zM436 617c-35 27 -79 36 -120 36c-39 0 -83 -10 -119 -36v-206h239v206z" />
    <glyph glyph-name="uni2153" unicode="&#x2153;" horiz-adv-x="756" 
d="M88 -17l401 744h97l-398 -744h-100zM96 333v250c-14 -9 -39 -13 -60 -13h-16v88h11c41 0 70 16 83 52h76v-377h-94zM590 -8c-90 0 -143 41 -143 120l96 10c0 -40 18 -55 48 -55c28 0 42 14 42 45c0 33 -17 45 -58 45h-16v70h16c36 0 52 15 52 47c0 26 -14 38 -39 38
c-28 0 -43 -18 -43 -58l-95 14c0 76 53 118 141 118c85 0 133 -36 133 -103c0 -44 -27 -76 -72 -86c52 -7 79 -37 79 -89c0 -75 -52 -116 -141 -116z" />
    <glyph glyph-name="uni2154" unicode="&#x2154;" horiz-adv-x="834" 
d="M166 -17l401 744h97l-398 -744h-100zM23 333v71c92 62 172 124 172 196c0 29 -12 43 -37 43s-39 -16 -39 -43c0 -9 1 -19 2 -30l-97 11c-2 9 -2 18 -2 26c0 69 52 112 141 112c86 0 133 -40 133 -114c0 -90 -76 -149 -152 -194h154v-78h-275zM668 -8
c-90 0 -143 41 -143 120l96 10c0 -40 18 -55 48 -55c28 0 42 14 42 45c0 33 -17 45 -58 45h-16v70h16c36 0 52 15 52 47c0 26 -14 38 -39 38c-28 0 -43 -18 -43 -58l-95 14c0 76 53 118 141 118c85 0 133 -36 133 -103c0 -44 -27 -76 -72 -86c52 -7 79 -37 79 -89
c0 -75 -52 -116 -141 -116z" />
    <glyph glyph-name="oneeighth" unicode="&#x215b;" horiz-adv-x="768" 
d="M489 727h97l-398 -744h-100zM96 333v250c-14 -9 -39 -13 -60 -13h-16v88h11c41 0 70 16 83 52h76v-377h-94zM679 207c45 -20 67 -51 67 -99c0 -71 -58 -116 -148 -116s-148 41 -148 106c0 46 22 76 69 90c-40 20 -59 49 -59 93c0 64 54 105 136 105c84 0 136 -38 136 -99
c0 -37 -16 -64 -53 -80zM596 320c-28 0 -43 -13 -43 -39s16 -39 48 -48l13 -4c19 11 25 25 25 50c0 27 -14 41 -43 41zM599 63c32 0 50 15 50 46c0 27 -16 40 -49 50l-21 7c-24 -11 -32 -27 -32 -54c0 -32 20 -49 52 -49z" />
    <glyph glyph-name="threeeighths" unicode="&#x215c;" horiz-adv-x="849" 
d="M570 727h97l-398 -744h-100zM303 441c0 -75 -52 -116 -141 -116c-90 0 -143 41 -143 120l96 10c0 -40 18 -55 48 -55c28 0 42 14 42 45c0 33 -17 45 -58 45h-16v70h16c36 0 52 15 52 47c0 26 -14 38 -39 38c-28 0 -43 -18 -43 -58l-95 14c0 76 53 118 141 118
c85 0 133 -36 133 -103c0 -44 -27 -76 -72 -86c52 -7 79 -37 79 -89zM760 207c45 -20 67 -51 67 -99c0 -71 -58 -116 -148 -116s-148 41 -148 106c0 46 22 76 69 90c-40 20 -59 49 -59 93c0 64 54 105 136 105c84 0 136 -38 136 -99c0 -37 -16 -64 -53 -80zM677 320
c-28 0 -43 -13 -43 -39s16 -39 48 -48l13 -4c19 11 25 25 25 50c0 27 -14 41 -43 41zM680 63c32 0 50 15 50 46c0 27 -16 40 -49 50l-21 7c-24 -11 -32 -27 -32 -54c0 -32 20 -49 52 -49z" />
    <glyph glyph-name="fiveeighths" unicode="&#x215d;" horiz-adv-x="849" 
d="M570 727h97l-398 -744h-100zM304 462c0 -90 -50 -137 -140 -137c-82 0 -133 39 -139 107l95 13c3 -30 17 -46 44 -46c29 0 44 18 44 59s-15 62 -44 62c-24 0 -38 -11 -44 -33l-88 8l20 215h232v-78h-159l-9 -70c16 20 42 31 77 31c71 0 111 -46 111 -131zM760 207
c45 -20 67 -51 67 -99c0 -71 -58 -116 -148 -116s-148 41 -148 106c0 46 22 76 69 90c-40 20 -59 49 -59 93c0 64 54 105 136 105c84 0 136 -38 136 -99c0 -37 -16 -64 -53 -80zM677 320c-28 0 -43 -13 -43 -39s16 -39 48 -48l13 -4c19 11 25 25 25 50c0 27 -14 41 -43 41z
M680 63c32 0 50 15 50 46c0 27 -16 40 -49 50l-21 7c-24 -11 -32 -27 -32 -54c0 -32 20 -49 52 -49z" />
    <glyph glyph-name="seveneighths" unicode="&#x215e;" horiz-adv-x="781" 
d="M502 727h97l-398 -744h-100zM64 333v15c1 99 46 206 117 282h-165v80h262v-68c-70 -69 -110 -169 -111 -274v-35h-103zM692 207c45 -20 67 -51 67 -99c0 -71 -58 -116 -148 -116s-148 41 -148 106c0 46 22 76 69 90c-40 20 -59 49 -59 93c0 64 54 105 136 105
c84 0 136 -38 136 -99c0 -37 -16 -64 -53 -80zM609 320c-28 0 -43 -13 -43 -39s16 -39 48 -48l13 -4c19 11 25 25 25 50c0 27 -14 41 -43 41zM612 63c32 0 50 15 50 46c0 27 -16 40 -49 50l-21 7c-24 -11 -32 -27 -32 -54c0 -32 20 -49 52 -49z" />
    <glyph glyph-name="arrowleft" unicode="&#x2190;" horiz-adv-x="874" 
d="M812 285h-551v-104l-199 149l199 149v-104h551v-90z" />
    <glyph glyph-name="arrowup" unicode="&#x2191;" horiz-adv-x="423" 
d="M163 -35v587h-101l150 198l149 -198h-101v-587h-97z" />
    <glyph glyph-name="arrowright" unicode="&#x2192;" horiz-adv-x="874" 
d="M62 375h551v104l199 -149l-199 -149v104h-551v90z" />
    <glyph glyph-name="arrowdown" unicode="&#x2193;" horiz-adv-x="423" 
d="M260 745v-587h101l-150 -198l-149 198h101v587h97z" />
    <glyph glyph-name="arrowboth" unicode="&#x2194;" horiz-adv-x="908" 
d="M647 285h-386v-104l-199 149l199 149v-104h386v104l198 -149l-198 -149v104z" />
    <glyph glyph-name="arrowupdn" unicode="&#x2195;" horiz-adv-x="423" 
d="M62 159h101v393h-101l150 198l149 -198h-101v-393h101l-149 -198z" />
    <glyph glyph-name="uni2196" unicode="&#x2196;" horiz-adv-x="857" 
d="M155 549l-93 -99v260h247l-87 -92l573 -572l-67 -70z" />
    <glyph glyph-name="uni2197" unicode="&#x2197;" horiz-adv-x="857" 
d="M702 550l-573 -573l-67 70l573 572l-87 92h247v-260z" />
    <glyph glyph-name="uni2198" unicode="&#x2198;" horiz-adv-x="857" 
d="M702 172l93 99v-260h-247l87 92l-573 572l67 70z" />
    <glyph glyph-name="uni2199" unicode="&#x2199;" horiz-adv-x="857" 
d="M155 172l573 573l67 -70l-573 -572l87 -92h-247v260z" />
    <glyph glyph-name="uni21A9" unicode="&#x21a9;" horiz-adv-x="864" 
d="M261 181l-199 149l199 149v-104h309c79 0 127 39 127 111v14c0 74 -47 111 -126 111h-182v90h195c134 0 218 -68 218 -198v-17c0 -129 -84 -201 -218 -201h-323v-104z" />
    <glyph glyph-name="uni21AA" unicode="&#x21aa;" horiz-adv-x="864" 
d="M603 181v104h-323c-134 0 -218 72 -218 201v17c0 130 84 198 218 198h195v-90h-182c-79 0 -126 -37 -126 -111v-14c0 -72 48 -111 127 -111h309v104l199 -149z" />
    <glyph glyph-name="uni21B0" unicode="&#x21b0;" horiz-adv-x="764" 
d="M603 -8v563h-342v-104l-199 149l199 149v-104h440v-653h-98z" />
    <glyph glyph-name="uni21B1" unicode="&#x21b1;" horiz-adv-x="764" 
d="M161 -8h-98v653h440v104l199 -149l-199 -149v104h-342v-563z" />
    <glyph glyph-name="uni21B2" unicode="&#x21b2;" horiz-adv-x="764" 
d="M603 718h98v-653h-440v-104l-199 149l199 149v-104h342v563z" />
    <glyph glyph-name="uni21B3" unicode="&#x21b3;" horiz-adv-x="764" 
d="M161 718v-563h342v104l199 -149l-199 -149v104h-440v653h98z" />
    <glyph glyph-name="uni21B4" unicode="&#x21b4;" horiz-adv-x="796" 
d="M634 708v-540h99l-148 -198l-149 198h101v449h-475v91h572z" />
    <glyph glyph-name="uni21BB" unicode="&#x21bb;" horiz-adv-x="882" 
d="M670 189l-149 198h101c-1 164 -102 245 -229 245s-229 -81 -229 -246v-62c0 -164 102 -248 229 -248c76 0 139 37 184 90l67 -69c-56 -67 -142 -116 -251 -116c-179 0 -331 118 -331 341v62c0 224 151 342 331 342c179 0 327 -116 328 -339h98z" />
    <glyph glyph-name="uni21C4" unicode="&#x21c4;" horiz-adv-x="928" 
d="M781 405h-520v-104l-199 149l199 149v-104h520v-90zM667 254v104l198 -149l-198 -149v104h-519v90h519z" />
    <glyph glyph-name="uni21C5" unicode="&#x21c5;" horiz-adv-x="672" 
d="M412 27v525h-100l149 198l149 -198h-100v-525h-98zM212 -40l-150 198h101v529h97v-529h101z" />
    <glyph glyph-name="partialdiff" unicode="&#x2202;" horiz-adv-x="550" 
d="M223 720c185 0 285 -125 285 -357v-77c0 -199 -84 -302 -246 -302c-141 0 -227 81 -227 226v31c0 135 73 216 191 216c60 0 106 -23 138 -63c-3 134 -54 203 -150 203c-31 0 -60 -7 -92 -23l-49 110c40 21 94 36 150 36zM269 91c60 0 95 52 95 141v64
c-21 36 -51 56 -93 56c-54 0 -87 -40 -87 -115v-36c0 -68 34 -110 85 -110z" />
    <glyph glyph-name="emptyset" unicode="&#x2205;" horiz-adv-x="490" 
d="M462 516l-50 -59c25 -33 39 -76 39 -127v-54c0 -124 -84 -203 -206 -203c-49 0 -92 13 -126 37l-48 -57l-43 38l50 59c-25 33 -39 76 -39 127v53c0 125 84 204 206 204c50 0 93 -13 127 -37l47 56zM156 277c0 -11 1 -21 3 -31l140 166c-14 11 -33 17 -54 17
c-52 0 -89 -36 -89 -99v-53zM334 330c0 11 -1 21 -3 31l-140 -166c14 -11 33 -17 54 -17c52 0 89 35 89 99v53z" />
    <glyph glyph-name="uni2206" unicode="&#x2206;" horiz-adv-x="567" 
d="M11 0l182 710h184l179 -710h-545zM284 567l-104 -457h202z" />
    <glyph glyph-name="product" unicode="&#x220f;" horiz-adv-x="584" 
d="M380 -88v672h-175v-672h-144v793h462v-793h-143z" />
    <glyph glyph-name="summation" unicode="&#x2211;" horiz-adv-x="505" 
d="M42 -88v120l204 295l-191 259v119h398v-116h-239l190 -262l-208 -298h269v-117h-423z" />
    <glyph glyph-name="minus" unicode="&#x2212;" horiz-adv-x="496" 
d="M38 277v103h420v-103h-420z" />
    <glyph glyph-name="radical" unicode="&#x221a;" horiz-adv-x="559" 
d="M22 351h162l68 -280l152 663h133l-209 -828h-148l-94 330h-64v115z" />
    <glyph glyph-name="infinity" unicode="&#x221e;" horiz-adv-x="565" 
d="M402 481c80 0 137 -55 137 -149v-6c0 -92 -57 -150 -135 -150c-57 0 -94 31 -121 72c-28 -44 -62 -72 -120 -72c-79 0 -137 55 -137 149v6c0 92 57 150 135 150c57 0 94 -31 121 -72c28 44 62 72 120 72zM170 267c32 0 50 25 69 60c-17 34 -37 63 -69 63
c-28 0 -47 -20 -47 -60v-3c0 -40 20 -60 47 -60zM442 327v3c0 40 -19 60 -47 60c-32 0 -50 -25 -68 -60c16 -34 36 -63 68 -63c28 0 47 20 47 60z" />
    <glyph glyph-name="integral" unicode="&#x222b;" horiz-adv-x="526" 
d="M133 -116c-16 0 -37 2 -58 5v112c15 -2 28 -3 40 -3c55 0 78 27 78 90v439c0 125 64 197 198 196c24 0 42 -2 62 -4v-112c-14 2 -27 3 -41 3c-56 0 -75 -31 -75 -93v-441c0 -123 -68 -192 -204 -192z" />
    <glyph glyph-name="approxequal" unicode="&#x2248;" 
d="M375 345c-72 0 -141 53 -202 53c-39 0 -82 -17 -108 -42v110c23 23 68 40 105 40c82 0 139 -54 202 -54c39 0 82 18 107 42v-109c-22 -24 -66 -40 -104 -40zM375 162c-72 0 -141 54 -202 54c-39 0 -82 -18 -108 -42v109c23 24 68 40 105 40c83 0 139 -53 202 -53
c39 0 82 17 107 42v-110c-22 -23 -66 -40 -104 -40z" />
    <glyph glyph-name="notequal" unicode="&#x2260;" 
d="M467 367h-144l-30 -76h174v-104h-214l-44 -113h-78l44 113h-128v104h168l29 76h-197v104h237l41 105h79l-41 -105h104v-104z" />
    <glyph glyph-name="lessequal" unicode="&#x2264;" 
d="M466 129l-399 187v110l399 187v-121l-279 -120l279 -120v-123zM67 102h398v-102h-398v102z" />
    <glyph glyph-name="greaterequal" unicode="&#x2265;" 
d="M78 129v123l279 120l-279 120v121l399 -187v-110zM477 102v-102h-398v102h398z" />
    <glyph glyph-name="uni2460" unicode="&#x2460;" horiz-adv-x="717" 
d="M357 -17c-185 0 -328 125 -328 372s143 372 328 372s327 -125 327 -372s-142 -372 -327 -372zM357 40c147 0 262 103 262 315s-115 315 -262 315c-148 0 -262 -103 -262 -315s114 -315 262 -315zM323 166v250c-14 -9 -39 -13 -60 -13h-16v88h11c41 0 70 16 83 52h76v-377
h-94z" />
    <glyph glyph-name="uni2461" unicode="&#x2461;" horiz-adv-x="717" 
d="M357 -17c-185 0 -328 125 -328 372s143 372 328 372s327 -125 327 -372s-142 -372 -327 -372zM357 40c147 0 262 103 262 315s-115 315 -262 315c-148 0 -262 -103 -262 -315s114 -315 262 -315zM222 169v71c92 62 172 124 172 196c0 29 -12 43 -37 43s-39 -16 -39 -43
c0 -9 1 -19 2 -30l-97 11c-2 9 -2 18 -2 26c0 69 52 112 141 112c86 0 133 -40 133 -114c0 -90 -76 -149 -152 -194h154v-78h-275z" />
    <glyph glyph-name="uni2462" unicode="&#x2462;" horiz-adv-x="717" 
d="M357 -17c-185 0 -328 125 -328 372s143 372 328 372s327 -125 327 -372s-142 -372 -327 -372zM357 40c147 0 262 103 262 315s-115 315 -262 315c-148 0 -262 -103 -262 -315s114 -315 262 -315zM360 158c-90 0 -143 41 -143 120l96 10c0 -40 18 -55 48 -55
c28 0 42 14 42 45c0 33 -17 45 -58 45h-16v70h16c36 0 52 15 52 47c0 26 -14 38 -39 38c-28 0 -43 -18 -43 -58l-95 14c0 76 53 118 141 118c85 0 133 -36 133 -103c0 -44 -27 -76 -72 -86c52 -7 79 -37 79 -89c0 -75 -52 -116 -141 -116z" />
    <glyph glyph-name="uni2463" unicode="&#x2463;" horiz-adv-x="717" 
d="M357 -17c-185 0 -328 125 -328 372s143 372 328 372s327 -125 327 -372s-142 -372 -327 -372zM357 40c147 0 262 103 262 315s-115 315 -262 315c-148 0 -262 -103 -262 -315s114 -315 262 -315zM504 246h-52v-79h-92v79h-161v67l143 231h110v-227h52v-71zM360 459
l-83 -142h83v142z" />
    <glyph glyph-name="uni2464" unicode="&#x2464;" horiz-adv-x="717" 
d="M357 -17c-185 0 -328 125 -328 372s143 372 328 372s327 -125 327 -372s-142 -372 -327 -372zM357 40c147 0 262 103 262 315s-115 315 -262 315c-148 0 -262 -103 -262 -315s114 -315 262 -315zM359 163c-82 0 -133 39 -139 107l95 13c3 -30 17 -46 44 -46
c29 0 44 18 44 59s-15 62 -44 62c-24 0 -38 -11 -44 -33l-88 8l20 215h232v-78h-159l-9 -70c16 20 42 31 77 31c71 0 111 -46 111 -131c0 -90 -50 -137 -140 -137z" />
    <glyph glyph-name="uni2465" unicode="&#x2465;" horiz-adv-x="717" 
d="M357 727c185 0 327 -125 327 -372s-142 -372 -327 -372s-328 125 -328 372s143 372 328 372zM357 40c147 0 262 103 262 315s-115 315 -262 315c-148 0 -262 -103 -262 -315s114 -315 262 -315zM386 422c70 0 111 -42 111 -128c0 -87 -53 -136 -137 -136
c-97 0 -145 61 -145 193c0 141 54 201 150 201c76 0 122 -31 128 -94l-93 -15c-5 28 -18 37 -38 37c-32 0 -50 -21 -53 -91c16 23 41 33 77 33zM359 231c28 0 44 17 44 61c0 39 -16 58 -45 58c-22 0 -38 -10 -49 -31c5 -71 25 -88 50 -88z" />
    <glyph glyph-name="uni2466" unicode="&#x2466;" horiz-adv-x="717" 
d="M357 -17c-185 0 -328 125 -328 372s143 372 328 372s327 -125 327 -372s-142 -372 -327 -372zM357 40c147 0 262 103 262 315s-115 315 -262 315c-148 0 -262 -103 -262 -315s114 -315 262 -315zM228 463v80h262v-68c-70 -69 -110 -169 -111 -274v-35h-103v15
c1 99 46 206 117 282h-165z" />
    <glyph glyph-name="uni2467" unicode="&#x2467;" horiz-adv-x="717" 
d="M357 727c185 0 327 -125 327 -372s-142 -372 -327 -372s-328 125 -328 372s143 372 328 372zM357 40c147 0 262 103 262 315s-115 315 -262 315c-148 0 -262 -103 -262 -315s114 -315 262 -315zM440 373c45 -20 67 -51 67 -99c0 -71 -58 -116 -148 -116s-148 41 -148 106
c0 46 22 76 69 90c-40 20 -59 49 -59 93c0 64 54 105 136 105c84 0 136 -38 136 -99c0 -37 -16 -64 -53 -80zM357 486c-28 0 -43 -13 -43 -39s16 -39 48 -48l13 -4c19 11 25 25 25 50c0 27 -14 41 -43 41zM360 229c32 0 50 15 50 46c0 27 -16 40 -49 50l-21 7
c-24 -11 -32 -27 -32 -54c0 -32 20 -49 52 -49z" />
    <glyph glyph-name="uni2468" unicode="&#x2468;" horiz-adv-x="717" 
d="M357 727c185 0 327 -125 327 -372s-142 -372 -327 -372s-328 125 -328 372s143 372 328 372zM357 40c147 0 262 103 262 315s-115 315 -262 315c-148 0 -262 -103 -262 -315s114 -315 262 -315zM357 552c99 0 143 -56 143 -194s-45 -200 -146 -200
c-79 0 -126 37 -133 100l94 17c3 -28 16 -45 42 -45c31 0 45 23 48 91c-18 -14 -41 -21 -70 -21c-73 0 -117 41 -117 123c0 80 51 129 139 129zM357 372c21 0 37 8 48 23c-3 66 -17 86 -48 86c-29 0 -46 -17 -46 -56c0 -34 17 -53 46 -53z" />
    <glyph glyph-name="uni24EA" unicode="&#x24ea;" horiz-adv-x="717" 
d="M357 -17c-185 0 -328 125 -328 372s143 372 328 372s327 -125 327 -372s-142 -372 -327 -372zM357 40c147 0 262 103 262 315s-115 315 -262 315c-148 0 -262 -103 -262 -315s114 -315 262 -315zM359 158c-98 0 -154 61 -154 196c0 137 56 198 154 198s154 -61 154 -197
s-55 -197 -154 -197zM359 233c38 0 57 29 57 122c0 92 -19 122 -57 122c-37 0 -56 -30 -56 -123c0 -92 19 -121 56 -121z" />
    <glyph glyph-name="uni24FF" unicode="&#x24ff;" horiz-adv-x="717" 
d="M359 -17c-185 0 -330 131 -330 343v59c0 212 144 342 330 342s329 -130 329 -342v-59c0 -212 -144 -343 -329 -343zM359 158c98 0 154 61 154 197c0 137 -56 197 -154 197s-155 -61 -155 -197s57 -197 155 -197zM359 234c-37 0 -55 29 -55 121s19 122 55 122
s55 -29 55 -122c0 -92 -19 -121 -55 -121z" />
    <glyph glyph-name="lozenge" unicode="&#x25ca;" horiz-adv-x="549" 
d="M332 -17h-117l-189 372l189 372h117l191 -372zM274 612l-123 -257l123 -257l125 257z" />
    <glyph glyph-name="circle" unicode="&#x25cb;" horiz-adv-x="713" 
d="M357 -17c-185 0 -328 125 -328 372s143 372 328 372s327 -125 327 -372s-142 -372 -327 -372zM357 40c147 0 262 103 262 315s-115 315 -262 315c-148 0 -262 -103 -262 -315s114 -315 262 -315z" />
    <glyph glyph-name="uni2776" unicode="&#x2776;" horiz-adv-x="717" 
d="M359 -17c-185 0 -330 131 -330 343v59c0 212 144 342 330 342s329 -130 329 -342v-59c0 -212 -144 -343 -329 -343zM322 166h96v378h-77c-14 -37 -42 -53 -84 -53h-10v-89h15c22 0 46 4 60 13v-249z" />
    <glyph glyph-name="uni2777" unicode="&#x2777;" horiz-adv-x="717" 
d="M359 -17c-185 0 -330 131 -330 343v59c0 212 144 342 330 342s329 -130 329 -342v-59c0 -212 -144 -343 -329 -343zM221 169h277v79h-153c76 46 152 103 152 193c0 75 -49 114 -135 114c-89 0 -142 -43 -142 -112c0 -8 1 -17 2 -26l99 -11c-2 11 -2 21 -2 30
c0 27 13 43 38 43c24 0 37 -15 37 -43c0 -72 -79 -132 -173 -195v-72z" />
    <glyph glyph-name="uni2778" unicode="&#x2778;" horiz-adv-x="717" 
d="M359 -17c-185 0 -330 131 -330 343v59c0 212 144 342 330 342s329 -130 329 -342v-59c0 -212 -144 -343 -329 -343zM359 158c90 0 143 42 143 116c0 52 -28 81 -78 89c44 11 70 43 70 86c0 67 -47 103 -133 103c-89 0 -142 -41 -142 -117l96 -15c0 40 15 58 42 58
c25 0 39 -12 39 -38c0 -32 -16 -47 -51 -47h-14v-69h14c40 0 57 -12 57 -46c0 -30 -14 -44 -42 -44c-29 0 -46 15 -46 55l-98 -11c0 -79 53 -120 143 -120z" />
    <glyph glyph-name="uni2779" unicode="&#x2779;" horiz-adv-x="717" 
d="M359 -17c-185 0 -330 131 -330 343v59c0 212 144 342 330 342s329 -130 329 -342v-59c0 -212 -144 -343 -329 -343zM363 168h94v78h52v73h-52v226h-112l-143 -231v-68h161v-78zM281 319l82 139v-139h-82z" />
    <glyph glyph-name="uni277A" unicode="&#x277a;" horiz-adv-x="717" 
d="M359 -17c-185 0 -330 131 -330 343v59c0 212 144 342 330 342s329 -130 329 -342v-59c0 -212 -144 -343 -329 -343zM358 162c91 0 141 47 141 137c0 86 -40 131 -111 131c-35 0 -61 -10 -77 -30l9 69h159v79h-233l-20 -216l89 -7c6 22 20 32 43 32c29 0 44 -20 44 -61
s-15 -58 -44 -58c-26 0 -40 15 -43 46l-96 -14c6 -69 58 -108 139 -108z" />
    <glyph glyph-name="uni277B" unicode="&#x277b;" horiz-adv-x="717" 
d="M359 -17c-185 0 -330 131 -330 343v59c0 212 144 342 330 342s329 -130 329 -342v-59c0 -212 -144 -343 -329 -343zM360 158c84 0 137 49 137 136s-41 128 -111 128c-36 0 -61 -10 -77 -33c3 69 21 90 53 90c19 0 33 -8 36 -36l96 15c-7 63 -53 94 -130 94
c-96 0 -150 -59 -150 -201c0 -131 49 -193 146 -193zM359 232c-25 0 -44 16 -50 89c11 19 27 29 49 29c28 0 44 -18 44 -58c0 -44 -16 -60 -43 -60z" />
    <glyph glyph-name="uni277C" unicode="&#x277c;" horiz-adv-x="717" 
d="M359 -17c-185 0 -330 131 -330 343v59c0 212 144 342 330 342s329 -130 329 -342v-59c0 -212 -144 -343 -329 -343zM276 166h105c0 138 37 236 109 308v70h-262v-82h165c-77 -81 -117 -186 -117 -296z" />
    <glyph glyph-name="uni277D" unicode="&#x277d;" horiz-adv-x="717" 
d="M359 -17c-185 0 -330 131 -330 343v59c0 212 144 342 330 342s329 -130 329 -342v-59c0 -212 -144 -343 -329 -343zM358 158c91 0 149 45 149 117c0 48 -21 79 -67 99c37 16 53 42 53 79c0 61 -53 99 -136 99s-137 -41 -137 -104c0 -45 19 -74 58 -94
c-47 -14 -68 -44 -68 -89c0 -66 58 -107 148 -107zM375 396l-13 3c-32 10 -48 22 -48 48s15 39 42 39c29 0 44 -14 44 -41c0 -25 -7 -39 -25 -49zM360 230c-32 0 -52 17 -52 48c0 28 8 42 31 53l21 -6c33 -10 49 -23 49 -49c0 -31 -18 -46 -49 -46z" />
    <glyph glyph-name="uni277E" unicode="&#x277e;" horiz-adv-x="717" 
d="M359 -17c-185 0 -330 131 -330 343v59c0 212 144 342 330 342s329 -130 329 -342v-59c0 -212 -144 -343 -329 -343zM357 158c101 0 147 62 147 200s-45 194 -144 194c-88 0 -140 -49 -140 -129c0 -82 45 -123 118 -123c28 0 52 7 70 21c-3 -68 -17 -90 -48 -90
c-25 0 -38 17 -41 44l-95 -17c6 -63 54 -100 133 -100zM360 373c-28 0 -45 18 -45 52c0 39 17 56 45 56c31 0 45 -19 48 -85c-12 -15 -28 -23 -48 -23z" />
    <glyph glyph-name="uniE000" unicode="&#xe000;" horiz-adv-x="796" 
d="M162 708h572v-91h-475v-449h101l-149 -198l-148 198h99v540z" />
    <glyph glyph-name="i.loclTRK" horiz-adv-x="261" 
d="M54 571v141h152v-141h-152zM58 0v500h145v-500h-145z" />
    <glyph glyph-name="dollar.tf" 
d="M507 191c0 -116 -82 -197 -212 -205v-93h-44v93c-113 7 -190 76 -215 205l130 34c11 -77 42 -116 85 -127v199l-55 16c-104 30 -150 108 -150 204c0 118 82 186 205 193v86h44v-87c97 -7 182 -59 203 -186l-129 -39c-10 74 -36 108 -74 118v-192l62 -19
c110 -37 150 -95 150 -200zM177 521c0 -42 18 -77 74 -98v182c-47 -5 -74 -35 -74 -84zM295 95c46 4 78 35 78 85s-19 80 -78 104v-189z" />
    <glyph glyph-name="cent.tf" 
d="M297 90c48 8 71 42 73 116l125 -28c-9 -119 -85 -182 -198 -189v-93h-47v93c-128 9 -204 96 -204 259c0 165 74 253 204 263v83h47v-83c116 -6 190 -71 198 -188l-125 -22c-4 74 -27 105 -73 112v-323zM174 248c0 -100 25 -148 76 -158v323c-50 -11 -76 -61 -76 -165z
" />
    <glyph glyph-name="sterling.tf" 
d="M379 197l139 -24c-9 -118 -72 -188 -170 -188c-67 0 -101 25 -177 25c-34 0 -70 -6 -109 -18l-40 100c70 30 104 86 104 168c0 21 -2 40 -5 58h-84v74h65c-11 36 -21 72 -21 118c0 127 76 200 208 200c125 0 198 -59 206 -193l-141 -28c-2 83 -25 113 -66 113
c-44 0 -64 -27 -64 -83c0 -50 11 -88 22 -127h119v-74h-104c1 -13 2 -26 2 -40c0 -80 -38 -136 -101 -165c16 3 33 5 52 5c42 0 64 -12 100 -12c38 0 61 32 65 91z" />
    <glyph glyph-name="florin.tf" 
d="M406 710c25 0 46 -3 62 -6v-111c-14 3 -27 4 -44 4c-51 0 -69 -27 -78 -99l-9 -69h87v-98h-99l-61 -481h-154l61 481h-85v98h97l7 56c21 163 82 225 216 225z" />
    <glyph glyph-name="yen.tf" 
d="M518 695l-158 -370h117v-68h-131v-62h131v-68h-131v-127h-149v127h-131v68h131v62h-131v68h117l-157 370h158l71 -220c8 -25 12 -44 16 -73h2c4 29 7 48 15 73l72 220h158z" />
    <glyph glyph-name="Euro.tf" 
d="M382 206l135 -33c-13 -124 -97 -187 -219 -187c-138 0 -212 84 -229 274h-53v61h49v30c0 12 0 23 1 34h-50v62h54c20 187 103 263 239 263c115 0 196 -57 206 -182l-134 -33c-7 73 -29 104 -75 104c-47 0 -77 -29 -86 -152h130v-62h-133v-34v-30h133v-61h-130
c8 -127 37 -160 83 -160c45 0 71 31 79 106z" />
    <glyph glyph-name="perthousand.tf" 
d="M144 422c-73 0 -119 47 -119 134v25c0 88 46 134 120 134c73 0 119 -46 119 -134v-25c0 -87 -46 -134 -120 -134zM111 591v-46c0 -35 11 -54 33 -54c23 0 34 19 34 54v46c0 36 -11 55 -34 55c-22 0 -33 -19 -33 -55zM485 536v-71l-443 -226v71zM399 280
c74 0 119 -46 119 -133v-26c0 -87 -46 -133 -119 -133c-30 0 -54 8 -73 25c-18 -17 -43 -25 -72 -25c-73 0 -119 46 -119 133v26c0 87 46 133 119 133c29 0 54 -8 73 -25c18 17 43 25 72 25zM288 111v46c0 35 -11 54 -34 54c-22 0 -34 -19 -34 -54v-46c0 -36 12 -54 34 -54
c23 0 34 18 34 54zM432 111v46c0 35 -11 54 -33 54c-23 0 -34 -19 -34 -54v-46c0 -36 11 -54 34 -54c22 0 33 18 33 54z" />
    <glyph glyph-name="zero.zero" horiz-adv-x="569" 
d="M287 710c160 0 256 -89 256 -363c0 -273 -96 -362 -256 -362c-159 0 -255 89 -255 362c0 274 96 363 255 363zM287 592c-62 0 -99 -43 -99 -245c0 -37 1 -69 4 -97l171 289c-17 41 -43 53 -76 53zM287 103c63 0 99 42 99 244c0 44 -2 81 -5 111l-173 -293
c17 -48 44 -62 79 -62z" />
    <glyph glyph-name="zero.tf" 
d="M272 -15c-151 0 -241 89 -241 362c0 275 90 363 241 363s241 -88 241 -363c0 -273 -90 -362 -241 -362zM272 97c57 0 85 43 85 250c0 208 -28 251 -85 251s-85 -43 -85 -251c0 -207 28 -250 85 -250z" />
    <glyph glyph-name="one.tf" 
d="M359 119h137v-119h-432v119h147v374c-23 -22 -62 -36 -113 -36h-30v138h25c79 0 122 36 147 100h119v-576z" />
    <glyph glyph-name="two.tf" 
d="M48 0v111c95 87 161 148 207 207c52 65 75 122 75 190c0 55 -22 83 -64 83c-44 0 -67 -31 -67 -88c0 -20 2 -40 6 -63l-152 17c-4 17 -6 35 -6 52c0 124 87 201 226 201c123 0 212 -62 212 -205c0 -79 -32 -151 -94 -225c-42 -49 -86 -94 -156 -159h261v-121h-448z" />
    <glyph glyph-name="three.tf" 
d="M273 -15c-147 0 -230 77 -232 228l154 15c1 -85 28 -126 77 -126c46 0 72 32 72 95c0 71 -27 103 -83 103h-37v109h36c49 0 74 36 74 101c0 61 -22 85 -62 85c-50 0 -75 -35 -75 -125l-153 19c2 141 86 221 231 221c133 0 211 -64 211 -187c0 -80 -39 -145 -105 -163
c77 -14 116 -73 116 -167c0 -131 -84 -208 -224 -208z" />
    <glyph glyph-name="four.tf" 
d="M294 0v152h-268v106l238 437h170v-431h83v-112h-83v-152h-140zM146 264h148v196c0 30 0 58 3 98h-2c-9 -36 -18 -58 -34 -90l-82 -151c-12 -23 -22 -40 -33 -53z" />
    <glyph glyph-name="five.tf" 
d="M272 -15c-131 0 -215 76 -225 198l144 21c5 -65 34 -102 80 -102c52 0 80 43 80 128c0 87 -27 132 -78 132c-43 0 -72 -28 -82 -76l-132 13l32 396h376v-122h-267l-14 -164c26 42 74 64 136 64c110 0 176 -85 176 -238c0 -160 -82 -250 -226 -250z" />
    <glyph glyph-name="six.tf" 
d="M325 470c105 0 178 -76 178 -230c0 -157 -85 -255 -221 -255c-160 0 -242 100 -242 361c0 268 90 364 242 364c131 0 203 -61 213 -182l-148 -21c-5 60 -27 90 -68 90c-55 0 -87 -49 -90 -194c29 43 72 67 136 67zM278 99c48 0 76 42 76 134c0 85 -29 125 -77 125
c-42 0 -72 -28 -88 -76c3 -133 36 -183 89 -183z" />
    <glyph glyph-name="seven.tf" 
d="M145 0v24c0 199 73 387 200 546h-288v125h432v-109c-119 -144 -185 -318 -185 -532v-54h-159z" />
    <glyph glyph-name="eight.tf" 
d="M394 380c81 -35 120 -90 120 -187c0 -129 -95 -208 -243 -208s-241 77 -241 201c0 79 37 132 116 161c-67 33 -102 86 -102 171c0 117 89 192 223 192s224 -67 224 -182c0 -73 -29 -118 -97 -148zM268 608c-50 0 -79 -29 -79 -88c0 -54 27 -80 85 -101l23 -7
c36 22 50 52 50 104c0 60 -28 92 -79 92zM273 96c55 0 88 34 88 97c0 62 -27 88 -89 111l-25 8c-45 -24 -64 -57 -64 -116c0 -64 33 -100 90 -100z" />
    <glyph glyph-name="nine.tf" 
d="M264 710c155 0 235 -79 235 -358c0 -283 -81 -367 -238 -367c-127 0 -203 68 -214 188l141 23c6 -60 33 -96 79 -96c60 0 89 41 93 207c-28 -41 -76 -60 -132 -60c-118 0 -189 85 -189 225c0 144 82 238 225 238zM265 360c43 0 78 26 95 77c-3 128 -33 162 -94 162
c-53 0 -85 -40 -85 -121c0 -73 32 -118 84 -118z" />
    <glyph glyph-name="gcommaaccent.ss01" horiz-adv-x="531" 
d="M285 758l27 -48c-33 -9 -46 -20 -46 -44h62v-98h-124v83c0 55 23 93 81 107zM253 -207c-132 0 -211 58 -212 171h146c2 -51 29 -73 67 -73c48 0 70 28 70 93v103c-22 -60 -66 -88 -124 -88c-100 0 -168 76 -168 252c0 193 72 261 175 261c61 0 105 -32 124 -85l11 73h131
v-509c0 -136 -75 -198 -220 -198zM256 102c43 0 69 39 69 108v88c0 67 -26 105 -68 105c-47 0 -71 -28 -71 -152c0 -116 26 -149 70 -149z" />
    <glyph glyph-name="gdotaccent.ss01" horiz-adv-x="531" 
d="M191 571v141h152v-141h-152zM253 -207c-132 0 -211 58 -212 171h146c2 -51 29 -73 67 -73c48 0 70 28 70 93v103c-22 -60 -66 -88 -124 -88c-100 0 -168 76 -168 252c0 193 72 261 175 261c61 0 105 -32 124 -85l11 73h131v-509c0 -136 -75 -198 -220 -198zM256 102
c43 0 69 39 69 108v88c0 67 -26 105 -68 105c-47 0 -71 -28 -71 -152c0 -116 26 -149 70 -149z" />
    <glyph glyph-name="Iacute_J.loclNLD" horiz-adv-x="635" 
d="M82 753l69 115h132l-83 -115h-118zM445 753l69 115h132l-83 -115h-118zM217 0h-155v710h155v-710zM581 179c0 -139 -84 -191 -203 -191c-32 0 -64 2 -87 7v131c19 -3 38 -5 54 -5c48 0 82 23 82 90v499h154v-531z" />
    <glyph glyph-name="iacute_j.loclNLD" horiz-adv-x="527" 
d="M72 568l75 154h135l-93 -154h-117zM336 568l75 154h135l-93 -154h-117zM58 0v500h145v-500h-145zM302 -201c-22 0 -52 2 -66 5v112c13 -2 26 -2 35 -2c37 0 51 16 51 65v521h147v-531c0 -109 -37 -170 -167 -170z" />
    <glyph glyph-name="g.ss01" horiz-adv-x="531" 
d="M253 -207c-132 0 -211 58 -212 171h146c2 -51 29 -73 67 -73c48 0 70 28 70 93v103c-22 -60 -66 -88 -124 -88c-100 0 -168 76 -168 252c0 193 72 261 175 261c61 0 105 -32 124 -85l11 73h131v-509c0 -136 -75 -198 -220 -198zM256 102c43 0 69 39 69 108v88
c0 67 -26 105 -68 105c-47 0 -71 -28 -71 -152c0 -116 26 -149 70 -149z" />
    <glyph glyph-name="gbreve.ss01" horiz-adv-x="531" 
d="M205 715c2 -47 23 -73 62 -73s60 26 62 73h99c-4 -105 -66 -152 -161 -152s-157 47 -161 152h99zM253 -207c-132 0 -211 58 -212 171h146c2 -51 29 -73 67 -73c48 0 70 28 70 93v103c-22 -60 -66 -88 -124 -88c-100 0 -168 76 -168 252c0 193 72 261 175 261
c61 0 105 -32 124 -85l11 73h131v-509c0 -136 -75 -198 -220 -198zM256 102c43 0 69 39 69 108v88c0 67 -26 105 -68 105c-47 0 -71 -28 -71 -152c0 -116 26 -149 70 -149z" />
    <glyph glyph-name="gcircumflex.ss01" horiz-adv-x="531" 
d="M437 568h-111l-60 102l-59 -102h-112l96 154h151zM253 -207c-132 0 -211 58 -212 171h146c2 -51 29 -73 67 -73c48 0 70 28 70 93v103c-22 -60 -66 -88 -124 -88c-100 0 -168 76 -168 252c0 193 72 261 175 261c61 0 105 -32 124 -85l11 73h131v-509
c0 -136 -75 -198 -220 -198zM256 102c43 0 69 39 69 108v88c0 67 -26 105 -68 105c-47 0 -71 -28 -71 -152c0 -116 26 -149 70 -149z" />
    <glyph glyph-name="g.sups.ss01" horiz-adv-x="435" 
d="M208 159c-106 0 -166 33 -170 121v7h121v-1c2 -34 22 -49 51 -49c33 1 48 21 48 61v73c-16 -41 -50 -60 -94 -60c-77 0 -130 59 -130 154v52c0 112 56 167 135 167c48 0 81 -23 95 -60l8 51h112v-363c0 -103 -59 -153 -176 -153zM212 394c30 0 47 23 47 65v72
c0 43 -18 68 -45 68c-34 0 -50 -27 -50 -82v-45c0 -51 19 -78 48 -78z" />
    <glyph glyph-name="a.sups" horiz-adv-x="409" 
d="M137 301c-68 0 -113 39 -113 106c0 76 46 102 132 117l81 14v28c0 28 -12 40 -37 40c-26 0 -40 -13 -41 -52h-125c4 87 66 130 167 130c112 0 162 -41 162 -135v-153c0 -36 3 -67 8 -86h-121c-3 16 -5 37 -5 53c-13 -38 -55 -62 -108 -62zM191 378c29 0 49 20 49 49v55
l-38 -8c-35 -7 -52 -21 -52 -54c0 -27 15 -42 41 -42z" />
    <glyph glyph-name="b.sups" horiz-adv-x="436" 
d="M273 301c-47 0 -83 21 -98 57l-7 -48h-115v529h126v-208c17 32 52 53 100 53c77 0 125 -59 125 -156v-60c0 -105 -48 -167 -131 -167zM225 386c31 0 48 26 48 77v58c0 52 -17 78 -49 77c-29 0 -46 -24 -46 -65v-80c0 -43 16 -67 47 -67z" />
    <glyph glyph-name="c.sups" horiz-adv-x="401" 
d="M209 301c-110 0 -180 65 -180 173v31c0 117 67 179 181 179c97 0 157 -42 165 -132l-122 -24c-3 51 -19 68 -45 68c-32 0 -49 -23 -49 -80v-43c0 -58 17 -82 49 -82c27 0 42 18 45 70l122 -26c-7 -85 -73 -134 -166 -134z" />
    <glyph glyph-name="d.sups" horiz-adv-x="436" 
d="M160 301c-78 0 -127 63 -127 158v60c0 104 50 165 131 165c45 0 79 -18 93 -54v209h126v-529h-120v54c-17 -39 -55 -63 -103 -63zM214 386c28 0 45 25 45 65v81c0 44 -17 67 -47 67c-31 0 -48 -27 -48 -77v-57c0 -49 18 -79 50 -79z" />
    <glyph glyph-name="e.sups" horiz-adv-x="406" 
d="M374 471h-221v-20c0 -39 22 -62 60 -62c34 0 57 14 71 51l85 -42c-16 -61 -74 -97 -157 -97c-116 0 -183 62 -183 166v47c0 107 66 170 176 170c109 0 169 -59 169 -170v-43zM204 616c-32 0 -51 -22 -51 -65v-19h98v13c1 50 -15 71 -47 71z" />
    <glyph glyph-name="f.sups" horiz-adv-x="290" 
d="M269 675v-82h-72v-283h-126v283h-49v82h49v37c0 88 47 132 145 132c17 0 36 -2 53 -5v-92c-11 2 -19 3 -27 3c-30 0 -45 -15 -45 -43v-32h72z" />
    <glyph glyph-name="g.sups" horiz-adv-x="401" 
d="M261 398c81 -4 123 -38 123 -102v-7c0 -82 -72 -130 -195 -130c-104 0 -167 30 -167 81v4c0 29 22 51 62 63c-32 12 -51 36 -51 68c0 39 25 66 68 78c-43 20 -67 54 -67 101v12c0 75 60 118 161 118c28 0 53 -3 75 -10c12 42 47 64 99 64c5 0 10 0 14 -1v-83
c-12 3 -22 4 -33 4c-13 0 -25 -2 -35 -6c26 -20 41 -49 41 -86v-12c0 -75 -59 -118 -160 -118c-23 0 -45 2 -63 7c-4 -4 -6 -8 -6 -13c0 -17 13 -25 40 -27zM151 575v-32c0 -31 18 -52 43 -52c27 0 44 21 44 52v32c0 33 -17 51 -44 51c-26 0 -43 -19 -43 -51zM277 259v4
c0 19 -11 30 -37 31l-109 4h-7c-5 -6 -7 -14 -7 -24v-6c0 -33 28 -50 77 -50c54 0 83 13 83 41z" />
    <glyph glyph-name="h.sups" horiz-adv-x="436" 
d="M53 310v529h127v-221c19 44 56 67 106 67c69 0 104 -43 104 -127v-248h-128v231c0 35 -13 51 -39 51c-28 0 -43 -21 -43 -62v-220h-127z" />
    <glyph glyph-name="i.sups" horiz-adv-x="227" 
d="M49 720v115h128v-115h-128zM51 310v365h124v-365h-124z" />
    <glyph glyph-name="j.sups" horiz-adv-x="233" 
d="M52 720v115h128v-115h-128zM40 163c-17 0 -42 2 -53 5v91c7 0 18 -1 26 -1c31 0 41 13 41 50v367h127v-377c0 -91 -33 -135 -141 -135z" />
    <glyph glyph-name="k.sups" horiz-adv-x="424" 
d="M275 310l-63 147l-32 -46v-101h-127v529h127v-308l89 144h139l-107 -140l110 -225h-136z" />
    <glyph glyph-name="l.sups" horiz-adv-x="233" 
d="M179 839v-529h-126v529h126z" />
    <glyph glyph-name="m.sups" horiz-adv-x="624" 
d="M51 675h122v-59c19 46 52 68 103 68c50 0 79 -21 94 -68c22 46 57 68 107 68c65 0 101 -44 101 -124v-250h-127v228c0 37 -11 53 -35 53c-26 0 -39 -18 -39 -55v-226h-126v228c0 37 -10 53 -35 53c-26 0 -39 -19 -39 -56v-225h-126v365z" />
    <glyph glyph-name="n.sups" horiz-adv-x="434" 
d="M51 310v365h122v-62c20 47 57 71 109 71c71 0 105 -42 105 -128v-246h-128v227c0 37 -12 54 -38 54c-29 0 -44 -19 -44 -59v-222h-126z" />
    <glyph glyph-name="o.sups" horiz-adv-x="413" 
d="M207 301c-103 0 -178 56 -178 166v52c0 110 75 165 178 165s177 -55 177 -165v-52c0 -110 -74 -166 -177 -166zM207 384c31 0 49 24 49 77v64c0 54 -18 76 -49 76c-32 0 -50 -22 -50 -76v-64c0 -53 18 -77 50 -77z" />
    <glyph glyph-name="p.sups" horiz-adv-x="434" 
d="M51 168v507h122v-51c18 39 57 60 103 60c78 0 125 -60 125 -155v-64c0 -101 -49 -164 -128 -164c-45 0 -74 16 -96 50v-183h-126zM223 386c30 0 47 29 47 79v57c0 51 -16 77 -48 77c-31 0 -47 -24 -47 -73v-70c0 -43 17 -70 48 -70z" />
    <glyph glyph-name="q.sups" horiz-adv-x="434" 
d="M257 168v193c-19 -39 -53 -60 -100 -60c-76 0 -124 61 -124 156v65c0 103 49 162 130 162c49 0 86 -21 99 -57l8 48h113v-507h-126zM212 386c29 0 47 24 47 67v81c0 42 -18 65 -48 65c-31 0 -47 -26 -47 -77v-57c0 -51 17 -79 48 -79z" />
    <glyph glyph-name="r.sups" horiz-adv-x="306" 
d="M168 586c15 60 51 97 112 97h6v-125c-10 1 -17 2 -28 2c-25 0 -44 -6 -58 -17c-15 -14 -23 -35 -23 -65v-168h-126v365h117v-89z" />
    <glyph glyph-name="s.sups" horiz-adv-x="359" 
d="M182 301c-86 0 -143 30 -165 90l84 44c18 -36 46 -54 82 -54c27 0 39 10 39 31c0 22 -10 30 -49 39l-32 7c-77 18 -110 51 -110 115c0 68 57 111 154 111c71 0 128 -25 151 -77l-81 -42c-18 30 -42 44 -74 44c-23 0 -33 -10 -33 -28c0 -19 7 -28 40 -37l45 -10
c75 -19 104 -49 104 -115c0 -75 -55 -118 -155 -118z" />
    <glyph glyph-name="t.sups" horiz-adv-x="298" 
d="M16 593v82h55v83l126 45v-128h75v-82h-75v-138c0 -30 16 -48 48 -48c11 0 19 1 28 2v-99c-23 -4 -43 -6 -66 -6c-93 0 -136 37 -136 116v173h-55z" />
    <glyph glyph-name="u.sups" horiz-adv-x="433" 
d="M261 368c-17 -42 -54 -67 -106 -67c-76 0 -108 44 -108 121v253h127v-231c0 -34 14 -50 39 -50c27 0 43 19 43 50v231h126v-365h-121v58z" />
    <glyph glyph-name="v.sups" horiz-adv-x="377" 
d="M116 310l-110 365h130l42 -202c4 -26 7 -40 9 -61h2c3 21 4 36 9 61l42 202h130l-109 -365h-145z" />
    <glyph glyph-name="w.sups" horiz-adv-x="543" 
d="M97 310l-82 365h121l29 -201c2 -17 3 -33 4 -50h3c1 16 2 33 4 50l41 201h109l40 -201c3 -17 5 -34 6 -50h2c1 17 2 33 4 50l30 201h121l-83 -365h-127l-42 194c-3 17 -3 36 -4 49h-3c0 -13 -1 -32 -4 -49l-42 -194h-127z" />
    <glyph glyph-name="x.sups" horiz-adv-x="410" 
d="M16 310l112 191l-104 174h136l30 -62c6 -12 13 -27 15 -44h3c3 17 10 33 15 44l31 62h129l-103 -171l114 -194h-139l-36 75c-7 16 -14 30 -17 44h-2c-3 -14 -9 -28 -16 -44l-38 -75h-130z" />
    <glyph glyph-name="y.sups" horiz-adv-x="377" 
d="M70 162c-13 0 -29 2 -45 4v94c19 -4 26 -4 35 -4c36 0 55 13 63 38l4 12l-121 369h138l42 -198c4 -26 6 -47 7 -73h3c1 28 3 47 8 72l40 199h127l-110 -378c-28 -95 -85 -135 -191 -135z" />
    <glyph glyph-name="z.sups" horiz-adv-x="343" 
d="M23 383l148 205h-139v87h281v-70l-145 -207h154v-88h-299v73z" />
    <glyph glyph-name="g_g.liga.ss01" horiz-adv-x="1062" 
d="M253 -207c-132 0 -211 58 -212 171h146c2 -51 29 -73 67 -73c48 0 70 28 70 93v103c-22 -60 -66 -88 -124 -88c-100 0 -168 76 -168 252c0 193 72 261 175 261c61 0 105 -32 124 -85l11 73h131v-509c0 -136 -75 -198 -220 -198zM784 -207c-132 0 -211 58 -212 171h146
c2 -51 29 -73 67 -73c48 0 70 28 70 93v103c-22 -60 -66 -88 -124 -88c-100 0 -168 76 -168 252c0 193 72 261 175 261c61 0 105 -32 124 -85l11 73h131v-509c0 -136 -75 -198 -220 -198zM256 102c43 0 69 39 69 108v88c0 67 -26 105 -68 105c-47 0 -71 -28 -71 -152
c0 -116 26 -149 70 -149zM787 102c43 0 69 39 69 108v88c0 67 -26 105 -68 105c-47 0 -71 -28 -71 -152c0 -116 26 -149 70 -149z" />
    <glyph glyph-name="zero.case" horiz-adv-x="574" 
d="M287 -15c-159 0 -255 91 -255 370c0 281 96 372 255 372c160 0 256 -91 256 -372c0 -279 -96 -370 -256 -370zM287 103c63 0 99 44 99 252c0 209 -36 254 -99 254c-62 0 -99 -45 -99 -254c0 -208 37 -252 99 -252z" />
    <glyph glyph-name="one.case" horiz-adv-x="376" 
d="M147 0v501c-24 -22 -66 -33 -109 -33h-20v138h14c72 0 120 34 143 104h120v-710h-148z" />
    <glyph glyph-name="two.case" horiz-adv-x="515" 
d="M24 0v111c102 89 173 154 222 214c53 65 75 122 75 189c0 63 -24 94 -70 94c-47 0 -73 -33 -73 -92c0 -20 3 -41 6 -64l-156 17c-3 17 -5 36 -5 53c0 127 90 205 234 205c146 0 226 -63 226 -209c0 -81 -33 -154 -94 -231c-41 -50 -95 -99 -172 -166h271v-121h-464z" />
    <glyph glyph-name="three.case" horiz-adv-x="519" 
d="M258 -15c-151 0 -237 78 -239 232l155 16c0 -89 31 -131 83 -131c50 0 77 33 77 99c0 74 -30 108 -95 108h-31v109h30c58 0 86 37 86 104c0 64 -24 90 -69 90c-53 0 -79 -37 -79 -130l-153 19c0 147 88 226 235 226c143 0 223 -66 223 -191c0 -83 -45 -149 -123 -167
c88 -15 135 -75 135 -172c0 -134 -89 -212 -235 -212z" />
    <glyph glyph-name="four.case" horiz-adv-x="518" 
d="M511 161h-88v-161h-146v161h-270v105l247 444h169v-437h88v-112zM281 481c0 32 0 56 2 82h-2c-7 -25 -18 -47 -33 -78l-81 -154c-14 -27 -24 -44 -36 -58h150v208z" />
    <glyph glyph-name="five.case" horiz-adv-x="515" 
d="M256 -15c-135 0 -221 77 -232 202l151 21c6 -67 34 -106 80 -106c54 0 83 47 83 136c0 88 -28 133 -80 133c-43 0 -72 -29 -83 -78l-138 13l32 404h389v-122h-274l-14 -172c27 44 74 68 136 68c118 0 185 -86 185 -242c0 -163 -86 -257 -235 -257z" />
    <glyph glyph-name="six.case" horiz-adv-x="527" 
d="M318 481c109 0 185 -78 185 -236c0 -160 -88 -260 -228 -260c-163 0 -247 109 -247 369c0 267 91 373 247 373c135 0 209 -63 220 -187l-149 -20c-6 61 -29 94 -74 94c-59 0 -92 -53 -95 -204c29 46 75 71 141 71zM271 99c52 0 83 44 83 139c0 89 -32 131 -84 131
c-44 0 -76 -30 -93 -81c3 -137 37 -189 94 -189z" />
    <glyph glyph-name="seven.case" horiz-adv-x="455" 
d="M100 0v24c1 205 76 404 200 561h-287v125h433v-109c-123 -151 -186 -340 -186 -547v-54h-160z" />
    <glyph glyph-name="eight.case" horiz-adv-x="533" 
d="M388 389c84 -36 124 -92 124 -192c0 -132 -97 -212 -247 -212s-244 78 -244 205c0 82 38 136 119 165c-70 34 -105 88 -105 176c0 119 90 196 226 196c137 0 228 -69 228 -186c0 -76 -30 -122 -101 -152zM262 625c-51 0 -80 -31 -80 -92c0 -57 27 -84 87 -104l22 -7
c37 22 52 53 52 107c0 63 -29 96 -81 96zM267 96c56 0 90 35 90 101c0 65 -27 92 -91 114l-27 9c-45 -25 -63 -59 -63 -120c0 -67 34 -104 91 -104z" />
    <glyph glyph-name="nine.case" horiz-adv-x="525" 
d="M256 727c160 0 241 -81 241 -366c0 -290 -82 -376 -245 -376c-130 0 -209 69 -220 192l147 23c6 -63 34 -100 79 -100c60 0 90 43 93 217c-28 -43 -76 -64 -131 -64c-122 0 -196 87 -196 231c0 147 85 243 232 243zM257 366c43 0 78 28 95 81c-3 133 -34 169 -94 169
c-54 0 -85 -43 -85 -126c0 -77 32 -124 84 -124z" />
    <glyph glyph-name="one.ss02.case" horiz-adv-x="477" 
d="M329 119h136v-119h-431v119h147v389c-23 -22 -63 -36 -113 -36h-30v138h24c79 0 123 36 147 100h120v-591z" />
    <glyph glyph-name="zero.tf.case" 
d="M272 -15c-151 0 -241 91 -241 370c0 281 90 372 241 372s241 -91 241 -372c0 -279 -90 -370 -241 -370zM272 97c57 0 85 45 85 258c0 214 -28 260 -85 260s-85 -46 -85 -260c0 -213 28 -258 85 -258z" />
    <glyph glyph-name="one.tf.case" 
d="M359 119h137v-119h-432v119h147v389c-23 -23 -62 -36 -113 -36h-30v137h25c79 0 122 36 147 101h119v-591z" />
    <glyph glyph-name="two.tf.case" 
d="M48 0v111c95 89 160 154 207 214c52 67 75 125 75 196c0 57 -22 87 -64 87c-44 0 -67 -33 -67 -92c0 -21 2 -41 6 -65l-152 17c-4 18 -6 36 -6 54c0 126 87 205 226 205c123 0 212 -64 212 -209c0 -81 -32 -155 -94 -232c-42 -51 -86 -98 -156 -165h261v-121h-448z" />
    <glyph glyph-name="three.tf.case" 
d="M273 -15c-147 0 -230 78 -232 232l154 16c1 -89 28 -131 77 -131c46 0 72 33 72 99c0 74 -27 108 -83 108h-37v109h36c49 0 74 37 74 104c0 64 -22 90 -62 90c-50 0 -75 -37 -75 -130l-153 19c2 144 86 226 231 226c133 0 211 -66 211 -191c0 -83 -39 -149 -105 -167
c77 -15 116 -75 116 -172c0 -134 -84 -212 -224 -212z" />
    <glyph glyph-name="four.tf.case" 
d="M294 0v161h-268v105l238 444h170v-437h83v-112h-83v-161h-140zM146 273h148v203c0 30 0 58 3 98h-2c-9 -36 -18 -58 -34 -90l-82 -158c-13 -24 -22 -41 -33 -53z" />
    <glyph glyph-name="five.tf.case" 
d="M272 -15c-131 0 -215 77 -225 201l144 21c5 -67 34 -105 80 -105c52 0 80 45 80 133c0 90 -27 136 -78 136c-43 0 -72 -29 -82 -79l-132 13l32 405h376v-122h-267l-14 -172c26 44 74 67 136 67c110 0 176 -87 176 -243c0 -163 -82 -255 -226 -255z" />
    <glyph glyph-name="six.tf.case" 
d="M325 480c105 0 178 -77 178 -235c0 -160 -85 -260 -221 -260c-160 0 -242 102 -242 369c0 273 90 373 242 373c131 0 203 -63 213 -187l-148 -21c-5 63 -27 95 -68 95c-55 0 -87 -53 -90 -203c29 45 72 69 136 69zM278 99c48 0 76 44 76 139c0 88 -29 130 -77 130
c-42 0 -72 -30 -88 -80c3 -137 36 -189 89 -189z" />
    <glyph glyph-name="seven.tf.case" 
d="M145 0v24c0 201 73 400 200 561h-288v125h432v-109c-119 -146 -185 -332 -185 -547v-54h-159z" />
    <glyph glyph-name="eight.tf.case" 
d="M393 389c81 -35 121 -92 121 -192c0 -132 -95 -212 -243 -212s-241 78 -241 205c0 82 38 136 117 166c-68 33 -103 87 -103 175c0 119 89 196 223 196s224 -69 224 -186c0 -76 -29 -122 -98 -152zM268 625c-50 0 -79 -31 -79 -92c0 -57 26 -85 85 -104l23 -7
c36 22 50 53 50 107c0 63 -28 96 -79 96zM273 96c55 0 88 35 88 101c0 65 -26 93 -89 114l-26 9c-45 -25 -63 -59 -63 -120c0 -67 33 -104 90 -104z" />
    <glyph glyph-name="nine.tf.case" 
d="M264 727c155 0 235 -81 235 -366c0 -290 -81 -376 -238 -376c-127 0 -203 69 -214 192l141 23c6 -63 33 -100 79 -100c60 0 89 43 93 217c-28 -43 -76 -64 -132 -64c-118 0 -189 87 -189 231c0 147 82 243 225 243zM265 366c43 0 78 28 95 81c-3 133 -33 169 -94 169
c-53 0 -85 -43 -85 -126c0 -77 32 -124 84 -124z" />
    <glyph glyph-name="zero.zero.case" horiz-adv-x="569" 
d="M287 727c160 0 256 -91 256 -372c0 -279 -96 -370 -256 -370c-159 0 -255 91 -255 370c0 281 96 372 255 372zM287 609c-62 0 -99 -45 -99 -254c0 -40 1 -74 4 -102l174 293c-17 49 -44 63 -79 63zM287 103c63 0 99 44 99 252c0 41 -1 76 -4 105l-174 -293
c17 -50 44 -64 79 -64z" />
    <glyph glyph-name="zero.tf.zero.case" 
d="M272 727c151 0 241 -91 241 -372c0 -279 -90 -370 -241 -370s-241 91 -241 370c0 281 90 372 241 372zM272 615c-57 0 -85 -46 -85 -260c0 -36 1 -67 2 -94l156 271c-13 65 -38 83 -73 83zM272 97c57 0 85 45 85 258c0 33 -1 61 -2 87l-154 -270c13 -59 37 -75 71 -75z
" />
    <glyph glyph-name="zero.osf" horiz-adv-x="543" 
d="M271 -15c-144 0 -242 84 -242 283s98 282 242 282c145 0 243 -83 243 -282s-98 -283 -243 -283zM271 100c54 0 91 35 91 168s-37 167 -91 167c-53 0 -91 -34 -91 -167s38 -168 91 -168z" />
    <glyph glyph-name="one.osf" horiz-adv-x="502" 
d="M338 120h137v-120h-427v120h144v234c-25 -24 -76 -39 -122 -39h-21v132h16c63 0 131 30 152 88h121v-415z" />
    <glyph glyph-name="two.osf" horiz-adv-x="515" 
d="M30 105c68 39 141 87 192 124c67 50 93 90 93 138c0 43 -19 67 -61 67c-38 0 -64 -24 -64 -69c0 -16 1 -32 5 -49l-156 16c-3 16 -4 31 -4 43c0 110 90 175 219 175c139 0 219 -62 219 -176c0 -58 -21 -99 -59 -134c-40 -38 -98 -80 -174 -120h247v-120h-457v105z" />
    <glyph glyph-name="three.osf" horiz-adv-x="519" 
d="M258 -165c-151 0 -237 76 -239 227l155 16c0 -86 31 -127 83 -127c50 0 77 32 77 96c0 69 -30 100 -95 100h-31v109h30c58 0 86 32 86 93s-24 85 -69 85c-53 0 -79 -35 -79 -124l-153 19c0 143 88 221 235 221c143 0 223 -65 223 -188c0 -80 -45 -143 -123 -160
c88 -14 135 -71 135 -160c0 -131 -89 -207 -235 -207z" />
    <glyph glyph-name="four.osf" horiz-adv-x="523" 
d="M282 -150v160h-275v105l253 420h169v-413h87v-112h-87v-160h-147zM133 122h149v175c0 29 0 56 2 92h-2c-12 -32 -23 -54 -33 -75l-81 -134c-12 -22 -23 -43 -35 -58z" />
    <glyph glyph-name="five.osf" horiz-adv-x="515" 
d="M256 -165c-135 0 -221 76 -232 198l151 21c6 -65 34 -102 80 -102c54 0 83 43 83 128c0 79 -28 121 -80 121c-43 0 -72 -27 -83 -75l-138 13l32 396h389v-122h-274l-14 -164c27 42 74 64 136 64c118 0 185 -82 185 -228c0 -160 -86 -250 -235 -250z" />
    <glyph glyph-name="six.osf" horiz-adv-x="523" 
d="M318 470c109 0 185 -76 185 -230c0 -157 -88 -255 -228 -255c-163 0 -247 107 -247 361c0 261 91 364 247 364c135 0 209 -61 220 -182l-149 -21c-6 59 -29 90 -74 90c-59 0 -91 -49 -95 -194c29 43 75 67 141 67zM271 99c52 0 83 42 83 134c0 85 -32 125 -84 125
c-44 0 -76 -28 -93 -77c3 -132 37 -182 94 -182z" />
    <glyph glyph-name="seven.osf" horiz-adv-x="456" 
d="M101 -150v28c1 194 74 379 200 532h-288v125h434v-110c-122 -143 -186 -317 -186 -519v-56h-160z" />
    <glyph glyph-name="eight.osf" horiz-adv-x="529" 
d="M389 380c83 -35 123 -90 123 -187c0 -129 -97 -208 -247 -208s-244 77 -244 201c0 79 38 132 119 161c-70 33 -105 86 -105 171c0 117 90 192 226 192c137 0 228 -67 228 -182c0 -73 -30 -118 -100 -148zM262 608c-51 0 -80 -29 -80 -88c0 -54 27 -80 87 -101l22 -7
c37 22 52 52 52 104c0 60 -29 92 -81 92zM267 96c56 0 90 34 90 97c0 62 -27 88 -91 111l-26 8c-45 -24 -64 -57 -64 -116c0 -64 34 -100 91 -100z" />
    <glyph glyph-name="nine.osf" horiz-adv-x="525" 
d="M256 550c174 0 241 -100 241 -358c0 -256 -69 -357 -245 -357c-129 0 -209 65 -220 181l147 23c6 -60 35 -94 79 -94c66 0 91 54 93 211c-26 -39 -72 -61 -131 -61c-122 0 -196 82 -196 217c0 148 88 238 232 238zM257 208c47 0 79 25 95 76c-4 114 -30 156 -94 156
c-55 0 -85 -43 -85 -122c0 -68 32 -110 84 -110z" />
    <glyph glyph-name="one.ss02" horiz-adv-x="478" 
d="M329 119h137v-119h-432v119h147v374c-23 -22 -62 -36 -113 -36h-30v138h25c79 0 122 36 147 100h119v-576z" />
    <glyph glyph-name="zero.tosf" 
d="M272 -15c-141 0 -237 83 -237 282c0 200 96 283 237 283s237 -83 237 -282s-96 -283 -237 -283zM272 100c51 0 86 35 86 169c0 133 -35 166 -86 166s-86 -33 -86 -167s35 -168 86 -168z" />
    <glyph glyph-name="one.tosf" 
d="M359 117h133v-117h-419v117h141v240c-24 -26 -80 -42 -123 -42h-15v132h13c60 1 125 33 149 88h121v-418z" />
    <glyph glyph-name="two.tosf" 
d="M42 105c69 39 140 86 191 123c67 50 93 91 93 139c0 43 -20 67 -61 67c-39 0 -64 -24 -64 -69c0 -16 1 -32 5 -49l-155 16c-3 16 -3 31 -3 43c0 110 88 175 217 175c138 0 219 -62 219 -176c0 -58 -21 -99 -59 -135c-41 -38 -98 -79 -175 -119h247v-120h-455v105z" />
    <glyph glyph-name="three.tosf" 
d="M273 -165c-147 0 -230 74 -232 220l154 15c1 -79 28 -118 77 -118c46 0 72 32 72 95c0 69 -27 99 -83 99h-37v108h36c49 0 74 33 74 95c0 61 -22 85 -62 85c-50 0 -75 -31 -75 -119l-153 19c2 138 86 216 231 216c133 0 211 -64 211 -187c0 -79 -39 -140 -105 -157
c77 -14 116 -75 116 -163c0 -131 -84 -208 -224 -208z" />
    <glyph glyph-name="four.tosf" 
d="M294 -150v160h-268v105l238 420h169v-413h86v-112h-86v-160h-139zM150 122h144v182c0 30 0 55 2 86h-2c-11 -28 -22 -53 -34 -76l-70 -126c-14 -25 -26 -46 -40 -66z" />
    <glyph glyph-name="five.tosf" 
d="M272 -165c-131 0 -215 74 -225 195l144 20c5 -62 34 -98 80 -98c52 0 80 44 80 130c0 79 -27 122 -78 122c-43 0 -72 -29 -82 -78l-132 13l32 396h376v-122h-267l-14 -164c26 43 74 66 136 66c110 0 176 -82 176 -229c0 -160 -82 -251 -226 -251z" />
    <glyph glyph-name="six.tosf" 
d="M325 470c105 0 178 -76 178 -230c0 -157 -85 -255 -221 -255c-160 0 -242 100 -242 361c0 268 90 364 242 364c131 0 203 -61 213 -182l-148 -21c-5 60 -27 90 -68 90c-55 0 -87 -49 -90 -194c29 43 72 67 136 67zM278 99c48 0 76 42 76 134c0 85 -29 125 -77 125
c-42 0 -72 -28 -88 -76c3 -133 36 -183 89 -183z" />
    <glyph glyph-name="seven.tosf" 
d="M145 -150v21c0 199 74 382 201 539h-289v125h432v-109c-119 -144 -185 -313 -185 -524v-52h-159z" />
    <glyph glyph-name="eight.tosf" 
d="M394 380c81 -35 120 -90 120 -187c0 -129 -95 -208 -243 -208s-241 77 -241 201c0 79 37 132 116 161c-67 33 -102 86 -102 171c0 117 89 192 223 192s224 -67 224 -182c0 -73 -29 -118 -97 -148zM268 608c-50 0 -79 -29 -79 -88c0 -54 27 -80 85 -101l23 -7
c36 22 50 52 50 104c0 60 -28 92 -79 92zM273 96c55 0 88 34 88 97c0 62 -27 88 -89 111l-25 8c-45 -24 -64 -57 -64 -116c0 -64 33 -100 90 -100z" />
    <glyph glyph-name="nine.tosf" 
d="M265 550c156 0 235 -78 235 -358c0 -276 -80 -357 -238 -357c-128 0 -204 66 -215 181l147 23c6 -58 31 -94 74 -94c55 0 82 38 86 204c-29 -36 -73 -54 -125 -54c-118 0 -190 82 -190 217c0 145 83 238 226 238zM267 208c38 0 69 17 87 61c-1 134 -30 171 -87 171
c-50 0 -79 -41 -79 -122c0 -67 30 -110 79 -110z" />
    <glyph glyph-name="zero.osf.zero" horiz-adv-x="539" 
d="M271 550c145 0 243 -83 243 -282s-98 -283 -243 -283c-144 0 -242 84 -242 283s98 282 242 282zM271 435c-53 0 -91 -34 -91 -167c0 -40 3 -71 10 -95l141 236c-15 19 -36 26 -60 26zM271 100c54 0 91 35 91 168c0 40 -3 71 -9 95l-142 -237c16 -19 37 -26 60 -26z" />
    <glyph glyph-name="zero.tf.zero" 
d="M272 710c151 0 241 -88 241 -363c0 -273 -90 -362 -241 -362s-241 89 -241 362c0 275 90 363 241 363zM272 598c-57 0 -85 -43 -85 -251c0 -34 1 -63 2 -89l154 268c-13 57 -37 72 -71 72zM272 97c57 0 85 43 85 250c0 35 -1 65 -2 91l-154 -269c13 -57 37 -72 71 -72z
" />
    <glyph glyph-name="zero.tosf.zero" 
d="M272 550c141 0 237 -83 237 -282s-96 -283 -237 -283s-237 83 -237 282c0 200 96 283 237 283zM272 435c-51 0 -86 -33 -86 -167c0 -38 3 -68 8 -91l137 229c-15 22 -35 29 -59 29zM272 100c51 0 86 35 86 169c0 36 -3 65 -7 87l-137 -229c15 -20 35 -27 58 -27z" />
    <glyph glyph-name="zero.subs" horiz-adv-x="461" 
d="M230 -151c-122 0 -198 76 -198 264c0 189 76 265 198 265c123 0 198 -76 198 -265c0 -188 -75 -264 -198 -264zM230 -54c41 0 67 35 67 167c0 134 -26 169 -67 169c-40 0 -66 -35 -66 -169c0 -132 26 -167 66 -167z" />
    <glyph glyph-name="one.subs" horiz-adv-x="315" 
d="M120 -140v337c-18 -15 -49 -24 -85 -24h-13v119h10c59 0 93 25 113 75h102v-507h-127z" />
    <glyph glyph-name="two.subs" horiz-adv-x="421" 
d="M28 -140v91c136 108 224 172 224 273c0 38 -15 56 -47 56c-31 0 -49 -22 -49 -58c0 -14 1 -28 3 -44l-130 13c-2 12 -3 25 -3 37c0 92 70 150 184 150c116 0 179 -48 179 -148c0 -115 -78 -183 -197 -271h200v-99h-364z" />
    <glyph glyph-name="three.subs" horiz-adv-x="421" 
d="M209 -151c-118 0 -185 53 -185 164l128 13c1 -58 21 -81 56 -81c34 0 52 20 52 64c0 47 -21 64 -66 64h-24v88h23c41 0 61 20 61 66c0 40 -17 57 -48 57c-35 0 -53 -24 -53 -78l-128 15c0 103 70 157 185 157c112 0 175 -46 175 -139c0 -60 -35 -106 -96 -118
c69 -9 104 -49 104 -120c0 -96 -69 -152 -184 -152z" />
    <glyph glyph-name="four.subs" horiz-adv-x="426" 
d="M411 -33h-65v-107h-123v107h-207v89l187 311h143v-306h65v-94zM223 247l-104 -186h104v186z" />
    <glyph glyph-name="five.subs" horiz-adv-x="418" 
d="M207 -151c-105 0 -173 51 -181 142l124 18c4 -45 25 -64 56 -64c37 0 57 23 57 82c0 64 -20 88 -55 88c-30 0 -50 -17 -57 -48l-115 10l24 290h305v-100h-209l-9 -104c19 29 54 44 100 44c91 0 144 -53 144 -173c0 -128 -67 -185 -184 -185z" />
    <glyph glyph-name="six.subs" horiz-adv-x="427" 
d="M260 205c87 0 140 -53 140 -169c0 -119 -68 -187 -178 -187c-125 0 -193 80 -193 259c0 187 73 270 195 270c106 0 162 -43 169 -132l-122 -14c-4 37 -20 57 -50 57c-37 0 -60 -29 -66 -124c22 27 56 40 105 40zM219 -57c36 0 58 23 58 85c0 59 -23 85 -59 85
c-28 0 -51 -14 -64 -40c4 -103 26 -130 65 -130z" />
    <glyph glyph-name="seven.subs" horiz-adv-x="374" 
d="M85 -140v16c0 147 58 283 152 388h-218v103h340v-92c-90 -103 -139 -224 -139 -377v-38h-135z" />
    <glyph glyph-name="eight.subs" horiz-adv-x="431" 
d="M319 140c62 -26 89 -67 89 -142c0 -92 -77 -149 -194 -149s-190 54 -190 144c0 61 27 97 87 117c-52 24 -77 62 -77 122c0 91 69 146 177 146c110 0 178 -50 178 -132c0 -54 -21 -86 -70 -106zM212 294c-36 0 -56 -17 -56 -57c0 -38 19 -55 64 -67l18 -5
c21 13 30 34 30 68c0 42 -20 61 -56 61zM216 -59c39 0 61 21 61 66c0 41 -18 56 -66 70l-19 6c-27 -15 -39 -36 -39 -74c0 -47 23 -68 63 -68z" />
    <glyph glyph-name="nine.subs" horiz-adv-x="426" 
d="M208 378c125 0 189 -69 189 -263c0 -193 -64 -266 -192 -266c-103 0 -165 48 -172 133l122 18c4 -39 24 -60 55 -60c37 0 58 28 63 133c-22 -25 -56 -36 -97 -36c-94 0 -149 57 -149 166c0 111 65 175 181 175zM208 129c27 0 50 13 65 39c-6 99 -27 120 -63 120
c-37 0 -61 -23 -61 -81c0 -52 23 -78 59 -78z" />
    <glyph glyph-name="zero.dnom" horiz-adv-x="367" 
d="M183 -8c-98 0 -154 61 -154 196c0 137 56 198 154 198s154 -61 154 -197s-55 -197 -154 -197zM183 67c38 0 57 29 57 122c0 92 -19 122 -57 122c-37 0 -56 -30 -56 -123c0 -92 19 -121 56 -121z" />
    <glyph glyph-name="one.dnom" horiz-adv-x="247" 
d="M96 0v250c-14 -9 -39 -13 -60 -13h-16v88h11c41 0 70 16 83 52h76v-377h-94z" />
    <glyph glyph-name="two.dnom" horiz-adv-x="325" 
d="M23 0v71c92 62 172 124 172 196c0 29 -12 43 -37 43s-39 -16 -39 -43c0 -9 1 -19 2 -30l-97 11c-2 9 -2 18 -2 26c0 69 52 112 141 112c86 0 133 -40 133 -114c0 -90 -76 -149 -152 -194h154v-78h-275z" />
    <glyph glyph-name="three.dnom" horiz-adv-x="328" 
d="M162 -8c-90 0 -143 41 -143 120l96 10c0 -40 18 -55 48 -55c28 0 42 14 42 45c0 33 -17 45 -58 45h-16v70h16c36 0 52 15 52 47c0 26 -14 38 -39 38c-28 0 -43 -18 -43 -58l-95 14c0 76 53 118 141 118c85 0 133 -36 133 -103c0 -44 -27 -76 -72 -86c52 -7 79 -37 79 -89
c0 -75 -52 -116 -141 -116z" />
    <glyph glyph-name="four.dnom" horiz-adv-x="331" 
d="M319 79h-52v-79h-92v79h-161v67l143 231h110v-227h52v-71zM175 292l-83 -142h83v142z" />
    <glyph glyph-name="five.dnom" horiz-adv-x="328" 
d="M164 -8c-82 0 -133 39 -139 107l95 13c3 -30 17 -46 44 -46c29 0 44 18 44 59s-15 62 -44 62c-24 0 -38 -11 -44 -33l-88 8l20 215h232v-78h-159l-9 -70c16 20 42 31 77 31c71 0 111 -46 111 -131c0 -90 -50 -137 -140 -137z" />
    <glyph glyph-name="six.dnom" horiz-adv-x="333" 
d="M198 256c70 0 111 -42 111 -128c0 -87 -53 -136 -137 -136c-97 0 -145 61 -145 193c0 141 54 201 150 201c76 0 122 -31 128 -94l-93 -15c-5 28 -18 37 -38 37c-32 0 -50 -21 -53 -91c16 23 41 33 77 33zM171 65c28 0 44 17 44 61c0 39 -16 58 -45 58
c-22 0 -38 -10 -49 -31c5 -71 25 -88 50 -88z" />
    <glyph glyph-name="seven.dnom" horiz-adv-x="291" 
d="M16 297v80h262v-68c-70 -69 -110 -169 -111 -274v-35h-103v15c1 99 46 206 117 282h-165z" />
    <glyph glyph-name="eight.dnom" horiz-adv-x="340" 
d="M251 207c45 -20 67 -51 67 -99c0 -71 -58 -116 -148 -116s-148 41 -148 106c0 46 22 76 69 90c-40 20 -59 49 -59 93c0 64 54 105 136 105c84 0 136 -38 136 -99c0 -37 -16 -64 -53 -80zM168 320c-28 0 -43 -13 -43 -39s16 -39 48 -48l13 -4c19 11 25 25 25 50
c0 27 -14 41 -43 41zM171 63c32 0 50 15 50 46c0 27 -16 40 -49 50l-21 7c-24 -11 -32 -27 -32 -54c0 -32 20 -49 52 -49z" />
    <glyph glyph-name="nine.dnom" horiz-adv-x="333" 
d="M163 386c99 0 143 -56 143 -194s-45 -200 -146 -200c-79 0 -126 37 -133 100l94 17c3 -28 16 -45 42 -45c31 0 45 23 48 91c-18 -14 -41 -21 -70 -21c-73 0 -117 41 -117 123c0 80 51 129 139 129zM163 206c21 0 37 8 48 23c-3 66 -17 86 -48 86c-29 0 -46 -17 -46 -56
c0 -34 17 -53 46 -53z" />
    <glyph glyph-name="zero.numr" horiz-adv-x="367" 
d="M183 325c-98 0 -154 61 -154 196c0 137 56 198 154 198s154 -61 154 -197s-55 -197 -154 -197zM183 400c38 0 57 29 57 122c0 92 -19 122 -57 122c-37 0 -56 -30 -56 -123c0 -92 19 -121 56 -121z" />
    <glyph glyph-name="one.numr" horiz-adv-x="247" 
d="M96 333v250c-14 -9 -39 -13 -60 -13h-16v88h11c41 0 70 16 83 52h76v-377h-94z" />
    <glyph glyph-name="two.numr" horiz-adv-x="325" 
d="M23 333v71c92 62 172 124 172 196c0 29 -12 43 -37 43s-39 -16 -39 -43c0 -9 1 -19 2 -30l-97 11c-2 9 -2 18 -2 26c0 69 52 112 141 112c86 0 133 -40 133 -114c0 -90 -76 -149 -152 -194h154v-78h-275z" />
    <glyph glyph-name="three.numr" horiz-adv-x="328" 
d="M162 325c-90 0 -143 41 -143 120l96 10c0 -40 18 -55 48 -55c28 0 42 14 42 45c0 33 -17 45 -58 45h-16v70h16c36 0 52 15 52 47c0 26 -14 38 -39 38c-28 0 -43 -18 -43 -58l-95 14c0 76 53 118 141 118c85 0 133 -36 133 -103c0 -44 -27 -76 -72 -86
c52 -7 79 -37 79 -89c0 -75 -52 -116 -141 -116z" />
    <glyph glyph-name="four.numr" horiz-adv-x="331" 
d="M319 412h-52v-79h-92v79h-161v67l143 231h110v-227h52v-71zM175 625l-83 -142h83v142z" />
    <glyph glyph-name="five.numr" horiz-adv-x="328" 
d="M164 325c-82 0 -133 39 -139 107l95 13c3 -30 17 -46 44 -46c29 0 44 18 44 59s-15 62 -44 62c-24 0 -38 -11 -44 -33l-88 8l20 215h232v-78h-159l-9 -70c16 20 42 31 77 31c71 0 111 -46 111 -131c0 -90 -50 -137 -140 -137z" />
    <glyph glyph-name="six.numr" horiz-adv-x="333" 
d="M198 589c70 0 111 -42 111 -128c0 -87 -53 -136 -137 -136c-97 0 -145 61 -145 193c0 141 54 201 150 201c76 0 122 -31 128 -94l-93 -15c-5 28 -18 37 -38 37c-32 0 -50 -21 -53 -91c16 23 41 33 77 33zM171 398c28 0 44 17 44 61c0 39 -16 58 -45 58
c-22 0 -38 -10 -49 -31c5 -71 25 -88 50 -88z" />
    <glyph glyph-name="seven.numr" horiz-adv-x="291" 
d="M16 630v80h262v-68c-70 -69 -110 -169 -111 -274v-35h-103v15c1 99 46 206 117 282h-165z" />
    <glyph glyph-name="eight.numr" horiz-adv-x="340" 
d="M251 540c45 -20 67 -51 67 -99c0 -71 -58 -116 -148 -116s-148 41 -148 106c0 46 22 76 69 90c-40 20 -59 49 -59 93c0 64 54 105 136 105c84 0 136 -38 136 -99c0 -37 -16 -64 -53 -80zM168 653c-28 0 -43 -13 -43 -39s16 -39 48 -48l13 -4c19 11 25 25 25 50
c0 27 -14 41 -43 41zM171 396c32 0 50 15 50 46c0 27 -16 40 -49 50l-21 7c-24 -11 -32 -27 -32 -54c0 -32 20 -49 52 -49z" />
    <glyph glyph-name="nine.numr" horiz-adv-x="333" 
d="M163 719c99 0 143 -56 143 -194s-45 -200 -146 -200c-79 0 -126 37 -133 100l94 17c3 -28 16 -45 42 -45c31 0 45 23 48 91c-18 -14 -41 -21 -70 -21c-73 0 -117 41 -117 123c0 80 51 129 139 129zM163 539c21 0 37 8 48 23c-3 66 -17 86 -48 86c-29 0 -46 -17 -46 -56
c0 -34 17 -53 46 -53z" />
    <glyph glyph-name="zero.sups" horiz-adv-x="461" 
d="M230 299c-122 0 -198 76 -198 264c0 189 76 265 198 265c123 0 198 -76 198 -265c0 -188 -75 -264 -198 -264zM230 396c41 0 67 35 67 167c0 134 -26 169 -67 169c-40 0 -66 -35 -66 -169c0 -132 26 -167 66 -167z" />
    <glyph glyph-name="one.sups" horiz-adv-x="315" 
d="M120 310v337c-18 -15 -49 -24 -85 -24h-13v119h10c59 0 93 25 113 75h102v-507h-127z" />
    <glyph glyph-name="two.sups" horiz-adv-x="421" 
d="M28 310v91c136 108 224 172 224 273c0 38 -15 56 -47 56c-31 0 -49 -22 -49 -58c0 -14 1 -28 3 -44l-130 13c-2 12 -3 25 -3 37c0 92 70 150 184 150c116 0 179 -48 179 -148c0 -115 -78 -183 -197 -271h200v-99h-364z" />
    <glyph glyph-name="three.sups" horiz-adv-x="421" 
d="M209 299c-118 0 -185 53 -185 164l128 13c1 -58 21 -81 56 -81c34 0 52 20 52 64c0 47 -21 64 -66 64h-24v88h23c41 0 61 20 61 66c0 40 -17 57 -48 57c-35 0 -53 -24 -53 -78l-128 15c0 103 70 157 185 157c112 0 175 -46 175 -139c0 -60 -35 -106 -96 -118
c69 -9 104 -49 104 -120c0 -96 -69 -152 -184 -152z" />
    <glyph glyph-name="four.sups" horiz-adv-x="426" 
d="M411 417h-65v-107h-123v107h-207v89l187 311h143v-306h65v-94zM223 697l-104 -186h104v186z" />
    <glyph glyph-name="five.sups" horiz-adv-x="418" 
d="M207 299c-105 0 -173 51 -181 142l124 18c4 -45 25 -64 56 -64c37 0 57 23 57 82c0 64 -20 88 -55 88c-30 0 -50 -17 -57 -48l-115 10l24 290h305v-100h-209l-9 -104c19 29 54 44 100 44c91 0 144 -53 144 -173c0 -128 -67 -185 -184 -185z" />
    <glyph glyph-name="six.sups" horiz-adv-x="427" 
d="M260 655c87 0 140 -53 140 -169c0 -119 -68 -187 -178 -187c-125 0 -193 80 -193 259c0 187 73 270 195 270c106 0 162 -43 169 -132l-122 -14c-4 37 -20 57 -50 57c-37 0 -60 -29 -66 -124c22 27 56 40 105 40zM219 393c36 0 58 23 58 85c0 59 -23 85 -59 85
c-28 0 -51 -14 -64 -40c4 -103 26 -130 65 -130z" />
    <glyph glyph-name="seven.sups" horiz-adv-x="374" 
d="M85 310v16c0 147 58 283 152 388h-218v103h340v-92c-90 -103 -139 -224 -139 -377v-38h-135z" />
    <glyph glyph-name="eight.sups" horiz-adv-x="431" 
d="M319 590c62 -26 89 -67 89 -142c0 -92 -77 -149 -194 -149s-190 54 -190 144c0 61 27 97 87 117c-52 24 -77 62 -77 122c0 91 69 146 177 146c110 0 178 -50 178 -132c0 -54 -21 -86 -70 -106zM212 744c-36 0 -56 -17 -56 -57c0 -38 19 -55 64 -67l18 -5
c21 13 30 34 30 68c0 42 -20 61 -56 61zM216 391c39 0 61 21 61 66c0 41 -18 56 -66 70l-19 6c-27 -15 -39 -36 -39 -74c0 -47 23 -68 63 -68z" />
    <glyph glyph-name="nine.sups" horiz-adv-x="426" 
d="M208 828c125 0 189 -69 189 -263c0 -193 -64 -266 -192 -266c-103 0 -165 48 -172 133l122 18c4 -39 24 -60 55 -60c37 0 58 28 63 133c-22 -25 -56 -36 -97 -36c-94 0 -149 57 -149 166c0 111 65 175 181 175zM208 579c27 0 50 13 65 39c-6 99 -27 120 -63 120
c-37 0 -61 -23 -61 -81c0 -52 23 -78 59 -78z" />
    <glyph glyph-name="backslash.case" horiz-adv-x="451" 
d="M277 -85l-234 877h130l235 -877h-131z" />
    <glyph glyph-name="periodcentered.case" horiz-adv-x="249" 
d="M202 456v-163h-155v163h155z" />
    <glyph glyph-name="bullet.case" horiz-adv-x="335" 
d="M167 251c-69 0 -120 48 -120 119c0 73 51 122 120 122c70 0 121 -48 121 -122c0 -71 -51 -119 -121 -119z" />
    <glyph glyph-name="colon.case" horiz-adv-x="249" 
d="M202 550v-163h-155v163h155zM202 163v-163h-155v163h155z" />
    <glyph glyph-name="exclamdown.case" horiz-adv-x="294" 
d="M228 567h-162v152h162v-152zM85 490h124l23 -490h-169z" />
    <glyph glyph-name="questiondown.case" horiz-adv-x="464" 
d="M318 720v-157h-156v157h156zM314 505v-43c0 -50 -20 -88 -60 -125l-44 -42c-30 -29 -45 -67 -45 -116c0 -50 24 -83 67 -83c47 0 73 32 73 89c0 21 -2 42 -7 63l150 -12c6 -24 7 -43 7 -63c0 -118 -82 -190 -223 -190c-140 0 -222 65 -222 189c0 70 29 126 73 168l44 44
c27 28 40 52 40 91v30h147z" />
    <glyph glyph-name="semicolon.case" horiz-adv-x="256" 
d="M206 550v-163h-155v163h155zM89 -156l-34 68c52 18 63 41 63 85v3h-70v163h161v-153c0 -84 -34 -138 -120 -166z" />
    <glyph glyph-name="slash.case" horiz-adv-x="451" 
d="M174 -85h-131l235 877h130z" />
    <glyph glyph-name="underscore.case" horiz-adv-x="414" 
d="M0 -17h414v-84h-414v84z" />
    <glyph glyph-name="asterisk.ss04" horiz-adv-x="263" 
d="M132 710l-31 -93h-97l79 -57l-30 -93l79 57l79 -57l-31 93l79 57h-97z" />
    <glyph glyph-name="braceleft.case" horiz-adv-x="335" 
d="M265 -84c-116 0 -166 43 -166 147v150c0 61 -9 97 -75 99v98c67 2 74 32 74 95v149c0 94 59 143 167 143h55v-104h-24c-44 0 -63 -20 -63 -69v-120c0 -74 -17 -123 -90 -143c73 -22 89 -75 89 -148v-125c0 -50 19 -67 60 -67h30v-105h-57z" />
    <glyph glyph-name="braceright.case" horiz-adv-x="335" 
d="M70 -84h-57v105h30c41 0 60 17 60 67v125c0 73 16 126 89 148c-73 20 -90 69 -90 143v120c0 49 -19 69 -63 69h-24v104h55c108 0 167 -49 167 -143v-149c0 -63 7 -93 74 -95v-98c-66 -2 -75 -38 -75 -99v-150c0 -104 -50 -147 -166 -147z" />
    <glyph glyph-name="bracketleft.case" horiz-adv-x="312" 
d="M62 -81v871h237v-103h-102v-664h102v-104h-237z" />
    <glyph glyph-name="bracketright.case" horiz-adv-x="312" 
d="M250 -81h-237v104h102v664h-102v103h237v-871z" />
    <glyph glyph-name="parenleft.case" horiz-adv-x="315" 
d="M205 -108c-100 126 -159 296 -159 467c0 173 59 335 159 454l113 -42c-91 -125 -133 -258 -133 -413c0 -156 41 -291 134 -421z" />
    <glyph glyph-name="parenright.case" horiz-adv-x="315" 
d="M110 -108l-114 45c93 130 134 265 134 421c0 155 -42 288 -133 413l113 42c100 -119 159 -281 159 -454c0 -171 -59 -341 -159 -467z" />
    <glyph glyph-name="parenleft.subs" horiz-adv-x="272" 
d="M173 -241c-75 91 -120 214 -120 340c0 128 44 243 120 331l99 -33c-68 -88 -100 -186 -100 -299s32 -212 102 -305z" />
    <glyph glyph-name="parenright.subs" horiz-adv-x="272" 
d="M99 -241l-101 34c70 93 102 192 102 305s-32 211 -100 299l99 33c76 -88 120 -203 120 -331c0 -126 -45 -249 -120 -340z" />
    <glyph glyph-name="parenleft.sups" horiz-adv-x="272" 
d="M173 209c-75 91 -120 214 -120 340c0 128 44 243 120 331l99 -33c-68 -88 -100 -186 -100 -299s32 -212 102 -305z" />
    <glyph glyph-name="parenright.sups" horiz-adv-x="272" 
d="M99 209l-101 34c70 93 102 192 102 305s-32 211 -100 299l99 33c76 -88 120 -203 120 -331c0 -126 -45 -249 -120 -340z" />
    <glyph glyph-name="emdash.case" horiz-adv-x="762" 
d="M38 405h686v-111h-686v111z" />
    <glyph glyph-name="endash.case" horiz-adv-x="531" 
d="M38 405h455v-111h-455v111z" />
    <glyph glyph-name="hyphen.case" horiz-adv-x="360" 
d="M38 414h284v-129h-284v129z" />
    <glyph glyph-name="guillemotleft.case" horiz-adv-x="519" 
d="M153 139l-139 209l142 206h129l-139 -205l137 -210h-130zM366 139l-139 209l142 206h129l-139 -205l137 -210h-130z" />
    <glyph glyph-name="guillemotright.case" horiz-adv-x="519" 
d="M153 139h-130l137 210l-139 205h129l142 -206zM366 139h-130l137 210l-139 205h129l142 -206z" />
    <glyph glyph-name="guilsinglleft.case" horiz-adv-x="306" 
d="M153 139l-139 209l142 206h129l-139 -206l137 -209h-130z" />
    <glyph glyph-name="guilsinglright.case" horiz-adv-x="306" 
d="M153 139h-130l137 210l-139 205h129l142 -206z" />
    <glyph glyph-name="currency.case" horiz-adv-x="514" 
d="M466 323c0 -43 -11 -81 -31 -112l50 -56l-66 -63l-51 57c-31 -17 -67 -26 -107 -26c-42 0 -80 10 -112 28l-54 -60l-67 63l55 62c-18 30 -28 67 -28 109v52c0 44 10 83 29 114l-56 62l67 62l55 -59c31 18 69 27 111 27c39 0 75 -8 105 -24l53 57l66 -62l-51 -57
c21 -32 32 -72 32 -119v-55zM346 327v53c0 63 -36 98 -85 98s-86 -35 -86 -99v-52c0 -63 37 -99 86 -99s85 36 85 99z" />
    <glyph glyph-name="dollar.case" horiz-adv-x="533" 
d="M521 201c0 -120 -87 -205 -226 -215v-74h-55v74c-124 8 -206 77 -237 190l119 60c19 -79 59 -125 118 -138v214l-48 12c-113 28 -163 109 -163 204c0 118 85 188 211 196v73h55v-73c102 -9 185 -61 215 -171l-109 -58c-17 72 -53 111 -106 123v-196l62 -16
c120 -31 164 -99 164 -205zM161 532c0 -39 21 -74 79 -94v182c-51 -6 -79 -37 -79 -88zM295 95c56 6 90 39 90 95c0 52 -19 88 -90 108v-203z" />
    <glyph glyph-name="Euro.case" horiz-adv-x="586" 
d="M420 214l148 -30c-20 -129 -113 -198 -252 -198c-157 0 -244 86 -264 277h-51v62h47c-1 11 -1 23 -1 35s0 23 1 34h-47v62h51c22 187 112 270 268 270c135 0 231 -71 245 -191l-148 -29c-7 65 -44 101 -98 101c-64 0 -100 -42 -112 -151h184v-62h-188v-34v-35h188v-62
h-184c12 -114 49 -158 114 -158c51 0 91 39 99 109z" />
    <glyph glyph-name="sterling.case" horiz-adv-x="580" 
d="M426 200l143 -23c-10 -121 -76 -192 -179 -192c-83 0 -124 25 -216 25c-41 0 -85 -6 -132 -18l-38 100c83 29 122 84 122 170c0 24 -2 45 -5 65h-89v75h72c-7 34 -14 69 -14 113c0 136 81 212 219 212c136 0 214 -66 223 -204l-147 -28c-2 84 -29 122 -74 122
c-48 0 -71 -33 -71 -94c0 -47 8 -83 16 -121h138v-75h-125c1 -14 2 -30 2 -46c0 -77 -36 -137 -97 -165c19 6 40 8 63 8c47 0 76 -13 118 -13s66 31 71 89z" />
    <glyph glyph-name="currency.tf.case" 
d="M481 323c0 -43 -11 -81 -31 -112l50 -56l-66 -63l-51 57c-31 -17 -67 -26 -107 -26c-42 0 -81 10 -113 29l-53 -61l-67 63l55 62c-18 30 -28 67 -28 109v52c0 44 10 83 29 114l-56 62l67 62l55 -59c31 18 69 27 111 27c39 0 75 -8 105 -24l53 57l66 -62l-51 -57
c21 -32 32 -72 32 -119v-55zM361 327v53c0 63 -36 98 -85 98c-50 0 -87 -35 -87 -99v-52c0 -63 37 -99 87 -99c49 0 85 36 85 99z" />
    <glyph glyph-name="dollar.tf.case" 
d="M507 194c0 -118 -82 -200 -212 -208v-82h-44v82c-115 7 -210 77 -215 210l130 34c4 -81 40 -121 85 -132v205l-55 18c-104 31 -150 110 -150 207c0 120 82 192 205 198v77h44v-77c99 -8 199 -62 203 -193l-129 -38c-5 81 -34 114 -74 124v-202l62 -19
c110 -35 150 -97 150 -204zM177 532c0 -43 18 -79 74 -100v189c-47 -5 -74 -37 -74 -89zM295 95c46 5 78 36 78 88s-19 84 -78 106v-194z" />
    <glyph glyph-name="Euro.tf.case" 
d="M382 210l135 -34c-13 -126 -97 -190 -219 -190c-143 0 -216 85 -233 280h-49v62h45v35v33h-45v62h49c19 190 97 269 238 269c119 0 202 -59 212 -186l-134 -33c-7 74 -29 107 -78 107c-51 0 -79 -33 -87 -157h134v-62h-137v-33v-35h137v-62h-135c8 -129 33 -166 85 -166
c45 0 74 32 82 110z" />
    <glyph glyph-name="sterling.tf.case" 
d="M379 200l139 -24c-9 -120 -72 -191 -170 -191c-67 0 -101 25 -177 25c-34 0 -70 -6 -109 -18l-40 100c70 31 104 89 104 173c0 22 -2 42 -5 61h-84v75h65c-11 37 -21 74 -21 122c0 129 76 204 208 204c125 0 204 -62 206 -204l-141 -28c-1 91 -25 124 -66 124
c-44 0 -64 -29 -64 -87c0 -52 11 -90 22 -131h119v-75h-104c1 -13 2 -28 2 -43c0 -82 -38 -140 -101 -169c16 3 33 5 52 5c42 0 64 -13 100 -13c38 0 61 33 65 94z" />
    <glyph glyph-name="yen.tf.case" 
d="M518 710l-158 -373h117v-68h-131v-73h131v-68h-131v-128h-149v128h-131v68h131v73h-131v68h117l-157 373h158l71 -222c8 -25 12 -44 16 -73h2c4 29 8 48 15 73l72 222h158z" />
    <glyph glyph-name="yen.case" horiz-adv-x="522" 
d="M523 710l-180 -390h134v-69h-141v-59h141v-68h-141v-124h-150v124h-141v68h141v59h-141v69h134l-180 390h162l68 -189c14 -39 24 -69 31 -101h2c7 32 17 62 32 101l67 189h162z" />
    <glyph glyph-name="currency.tf" 
d="M481 273c0 -43 -11 -81 -31 -112l50 -56l-66 -63l-51 57c-31 -17 -67 -26 -107 -26c-42 0 -81 10 -113 29l-53 -61l-67 63l55 62c-18 30 -28 67 -28 109v52c0 44 10 83 29 114l-56 62l67 62l55 -59c31 18 69 27 111 27c39 0 75 -8 105 -24l53 57l66 -62l-51 -57
c21 -32 32 -72 32 -119v-55zM361 277v53c0 63 -36 98 -85 98c-50 0 -87 -35 -87 -99v-52c0 -63 37 -99 87 -99c49 0 85 36 85 99z" />
    <glyph glyph-name="plus.case" horiz-adv-x="496" 
d="M458 430v-102h-155v-168h-111v168h-154v102h154v157h111v-157h155z" />
    <glyph glyph-name="minus.case" horiz-adv-x="496" 
d="M38 327v103h420v-103h-420z" />
    <glyph glyph-name="multiply.case" 
d="M494 530l-147 -152l147 -152l-76 -77l-146 151l-147 -151l-76 76l148 153l-147 152l76 76l145 -150l145 150z" />
    <glyph glyph-name="divide.case" horiz-adv-x="496" 
d="M246 478c-38 0 -66 26 -66 65c0 40 28 67 66 67s66 -26 66 -67c0 -39 -28 -65 -66 -65zM38 327v103h420v-103h-420zM246 145c-38 0 -66 27 -66 66c0 40 28 66 66 66s66 -25 66 -66c0 -39 -28 -66 -66 -66z" />
    <glyph glyph-name="equal.case" horiz-adv-x="496" 
d="M38 417v104h420v-104h-420zM38 237v104h420v-104h-420z" />
    <glyph glyph-name="notequal.case" 
d="M467 417h-144l-30 -76h174v-104h-214l-44 -113h-78l44 113h-128v104h168l29 76h-197v104h237l41 105h79l-41 -105h104v-104z" />
    <glyph glyph-name="greater.case" 
d="M92 134v123l279 120l-279 120v121l399 -187v-110z" />
    <glyph glyph-name="less.case" 
d="M452 134l-399 187v110l399 187v-121l-279 -120l279 -120v-123z" />
    <glyph glyph-name="greaterequal.case" 
d="M78 179v123l279 120l-279 120v121l399 -187v-110zM477 152v-102h-398v102h398z" />
    <glyph glyph-name="lessequal.case" 
d="M466 179l-399 187v110l399 187v-121l-279 -120l279 -120v-123zM67 152h398v-102h-398v102z" />
    <glyph glyph-name="plusminus.case" 
d="M326 429h158v-102h-158v-138h-111v138h-155v102h155v142h111v-142zM60 50v103h424v-103h-424z" />
    <glyph glyph-name="approxequal.case" 
d="M375 395c-72 0 -141 53 -202 53c-39 0 -82 -17 -108 -42v110c23 23 68 40 105 40c82 0 139 -54 202 -54c39 0 82 18 107 42v-109c-22 -24 -66 -40 -104 -40zM375 212c-72 0 -141 54 -202 54c-39 0 -82 -18 -108 -42v109c23 24 68 40 105 40c83 0 139 -53 202 -53
c39 0 82 17 107 42v-110c-22 -23 -66 -40 -104 -40z" />
    <glyph glyph-name="asciitilde.case" 
d="M359 263c-83 0 -116 68 -171 68c-31 0 -53 -20 -62 -60l-83 23c17 93 74 138 141 138c83 0 118 -68 171 -68c32 0 54 26 63 65l82 -25c-19 -94 -73 -141 -141 -141z" />
    <glyph glyph-name="logicalnot.case" 
d="M60 436h413v-262h-106v158h-307v104z" />
    <glyph glyph-name="infinity.case" horiz-adv-x="565" 
d="M402 531c80 0 137 -55 137 -149v-6c0 -92 -57 -150 -135 -150c-57 0 -94 31 -121 72c-28 -44 -62 -72 -120 -72c-79 0 -137 55 -137 149v6c0 92 57 150 135 150c57 0 94 -31 121 -72c28 44 62 72 120 72zM170 317c32 0 50 25 69 60c-17 34 -37 63 -69 63
c-28 0 -47 -20 -47 -60v-3c0 -40 20 -60 47 -60zM442 377v3c0 40 -19 60 -47 60c-32 0 -50 -25 -68 -60c16 -34 36 -63 68 -63c28 0 47 20 47 60z" />
    <glyph glyph-name="emptyset.case" horiz-adv-x="490" 
d="M462 566l-50 -59c25 -33 39 -76 39 -127v-54c0 -124 -84 -203 -206 -203c-49 0 -92 13 -126 37l-48 -57l-43 38l50 59c-25 33 -39 76 -39 127v53c0 125 84 204 206 204c50 0 93 -13 127 -37l47 56zM156 327c0 -11 1 -21 3 -31l140 166c-14 11 -33 17 -54 17
c-52 0 -89 -36 -89 -99v-53zM334 380c0 11 -1 21 -3 31l-140 -166c14 -11 33 -17 54 -17c52 0 89 35 89 99v53z" />
    <glyph glyph-name="plus.tf.case" 
d="M482 430v-102h-155v-168h-111v168h-154v102h154v157h111v-157h155z" />
    <glyph glyph-name="minus.tf.case" 
d="M62 327v103h420v-103h-420z" />
    <glyph glyph-name="divide.tf.case" 
d="M270 478c-38 0 -66 27 -66 66c0 40 28 66 66 66s66 -25 66 -66c0 -39 -28 -66 -66 -66zM62 327v103h420v-103h-420zM270 145c-38 0 -66 27 -66 66c0 40 28 66 66 66s66 -25 66 -66c0 -39 -28 -66 -66 -66z" />
    <glyph glyph-name="equal.tf.case" 
d="M47 417v104h420v-104h-420zM47 237v104h420v-104h-420z" />
    <glyph glyph-name="emptyset.tf.case" 
d="M489 564l-50 -59c25 -34 39 -77 39 -128v-54c0 -125 -85 -204 -207 -204c-49 0 -93 13 -127 37l-47 -56l-42 37l49 58c-25 34 -39 77 -39 129v53c0 126 85 204 207 204c50 0 93 -13 127 -37l48 56zM182 324c0 -12 1 -23 4 -33l141 167c-15 12 -34 18 -55 18
c-52 0 -90 -35 -90 -99v-53zM362 377c0 12 -1 22 -4 32l-141 -167c15 -11 33 -17 54 -17c53 0 91 35 91 99v53z" />
    <glyph glyph-name="plus.subs" horiz-adv-x="399" 
d="M361 142v-84h-117v-120h-89v120h-117v84h117v112h89v-112h117z" />
    <glyph glyph-name="minus.subs" horiz-adv-x="399" 
d="M38 58v83h323v-83h-323z" />
    <glyph glyph-name="multiply.subs" horiz-adv-x="432" 
d="M389 -11l-63 -62l-110 110l-110 -110l-63 61l111 111l-110 110l63 62l109 -109l108 109l64 -62l-109 -109z" />
    <glyph glyph-name="divide.subs" horiz-adv-x="399" 
d="M198 169c-31 0 -53 21 -53 52c0 33 22 54 53 54s53 -21 53 -54c0 -30 -22 -52 -53 -52zM38 58v83h323v-83h-323zM198 -76c-31 0 -53 21 -53 52c0 32 22 53 53 53s53 -20 53 -53c0 -30 -22 -52 -53 -52z" />
    <glyph glyph-name="plus.sups" horiz-adv-x="399" 
d="M361 592v-84h-117v-120h-89v120h-117v84h117v112h89v-112h117z" />
    <glyph glyph-name="minus.sups" horiz-adv-x="399" 
d="M38 508v83h323v-83h-323z" />
    <glyph glyph-name="multiply.sups" horiz-adv-x="432" 
d="M389 439l-63 -62l-110 110l-110 -110l-63 61l111 111l-110 110l63 62l109 -109l108 109l64 -62l-109 -109z" />
    <glyph glyph-name="divide.sups" horiz-adv-x="399" 
d="M198 619c-31 0 -53 21 -53 52c0 33 22 54 53 54s53 -21 53 -54c0 -30 -22 -52 -53 -52zM38 508v83h323v-83h-323zM198 374c-31 0 -53 21 -53 52c0 32 22 53 53 53s53 -20 53 -53c0 -30 -22 -52 -53 -52z" />
    <glyph glyph-name="plus.tf" 
d="M482 380v-102h-155v-168h-111v168h-154v102h154v157h111v-157h155z" />
    <glyph glyph-name="minus.tf" 
d="M62 277v103h420v-103h-420z" />
    <glyph glyph-name="divide.tf" 
d="M270 428c-38 0 -66 27 -66 66c0 40 28 66 66 66s66 -25 66 -66c0 -39 -28 -66 -66 -66zM62 277v103h420v-103h-420zM270 95c-38 0 -66 27 -66 66c0 40 28 66 66 66s66 -25 66 -66c0 -39 -28 -66 -66 -66z" />
    <glyph glyph-name="equal.tf" 
d="M47 367v104h420v-104h-420zM47 187v104h420v-104h-420z" />
    <glyph glyph-name="emptyset.tf" 
d="M489 517l-50 -59c25 -34 39 -77 39 -128v-54c0 -125 -85 -204 -207 -204c-49 0 -93 13 -127 37l-47 -56l-42 37l49 58c-25 34 -39 77 -39 128v54c0 126 85 204 207 204c50 0 93 -13 127 -37l48 56zM182 277c0 -12 1 -23 4 -33l141 167c-15 12 -34 18 -55 18
c-52 0 -90 -35 -90 -99v-53zM362 330c0 12 -1 22 -4 32l-141 -167c14 -12 33 -18 54 -18c53 0 91 36 91 100v53z" />
    <glyph glyph-name="percent.tf" 
d="M51 -14l367 739h74l-365 -739h-76zM149 402c-77 0 -127 54 -127 158c0 105 50 159 127 159c76 0 126 -54 126 -159c0 -104 -50 -158 -126 -158zM149 477c25 0 38 23 38 83c0 61 -13 84 -38 84c-26 0 -39 -23 -39 -84c0 -60 13 -83 39 -83zM399 -10
c-77 0 -127 54 -127 158c0 105 50 159 127 159c76 0 126 -54 126 -159c0 -104 -50 -158 -126 -158zM399 65c25 0 38 23 38 83c0 61 -13 84 -38 84c-26 0 -39 -23 -39 -84c0 -60 13 -83 39 -83z" />
    <glyph glyph-name="uni21BB.alt" horiz-adv-x="903" 
d="M776 387h98l-149 -198l-149 198h101v3c0 161 -93 241 -221 241c-81 0 -140 -38 -188 -88l-67 68c56 63 141 115 260 115c175 0 315 -114 315 -335v-4zM446 76c81 0 140 38 188 88l67 -68c-56 -63 -141 -115 -260 -115c-175 0 -315 114 -315 335v2h-97l149 198l149 -198
h-102v-1c0 -161 93 -241 221 -241z" />
    <glyph glyph-name="arrowup.ss03" horiz-adv-x="763" 
d="M318 525l-174 -189l-82 95l320 319l318 -319l-79 -94l-177 188v-560h-126v560z" />
    <glyph glyph-name="uni2197.ss03" horiz-adv-x="866" 
d="M686 505l-533 -542l-90 96l540 540l-255 -6v117h456v-457h-121z" />
    <glyph glyph-name="arrowright.ss03" horiz-adv-x="878" 
d="M593 269h-530v121h530l-191 178l94 80l320 -318l-320 -319l-95 81z" />
    <glyph glyph-name="uni2198.ss03" horiz-adv-x="866" 
d="M686 193l-3 252h121v-457h-456v117l255 -6l-540 540l90 96z" />
    <glyph glyph-name="arrowdown.ss03" horiz-adv-x="763" 
d="M318 185v560h126v-560l177 188l79 -94l-318 -319l-320 319l82 95z" />
    <glyph glyph-name="uni2199.ss03" horiz-adv-x="866" 
d="M180 193l533 542l90 -96l-540 -540l255 6v-117h-456v457h121z" />
    <glyph glyph-name="arrowleft.ss03" horiz-adv-x="878" 
d="M285 269l192 -177l-95 -81l-320 319l320 318l94 -80l-191 -178h530v-121h-530z" />
    <glyph glyph-name="uni2196.ss03" horiz-adv-x="866" 
d="M180 505l3 -252h-121v457h456v-117l-255 6l540 -540l-90 -96z" />
    <glyph glyph-name="circle.invert" horiz-adv-x="713" 
d="M357 -17c-185 0 -328 125 -328 372s143 372 328 372s327 -125 327 -372s-142 -372 -327 -372z" />
    <glyph glyph-name="at.case" horiz-adv-x="732" 
d="M377 -28c-215 0 -348 128 -348 375c0 244 141 384 347 384c204 0 332 -120 332 -358c0 -172 -59 -236 -158 -236c-64 0 -110 28 -122 77c-20 -49 -62 -77 -117 -77c-73 0 -121 48 -121 121c0 75 47 114 144 132l84 15v32c0 42 -12 62 -44 62s-51 -18 -51 -72h-122
c1 101 68 154 174 154c107 0 161 -49 161 -148v-162c0 -45 12 -64 39 -64c38 0 60 40 60 163c0 201 -93 297 -261 297c-167 0 -270 -108 -270 -320c0 -208 110 -309 282 -309c54 0 113 13 156 35l24 -58c-52 -28 -115 -43 -189 -43zM358 222c38 0 61 28 61 71v48l-45 -8
c-41 -9 -59 -29 -59 -61v-1c0 -29 17 -49 43 -49z" />
    <glyph glyph-name="section.case" horiz-adv-x="419" 
d="M350 243c37 -28 54 -63 54 -109c0 -96 -75 -151 -198 -151c-105 0 -177 44 -199 138l101 52c16 -68 53 -93 99 -93c39 0 58 16 58 46s-14 46 -67 68l-85 35c-75 30 -110 75 -110 137c0 48 24 84 68 105c-39 29 -56 65 -56 113c0 92 72 143 195 143c99 0 162 -41 184 -124
l-97 -53c-17 61 -49 82 -89 82c-37 0 -56 -15 -56 -46c0 -29 15 -45 61 -66l85 -35c77 -30 108 -72 108 -137c0 -46 -19 -82 -56 -105zM188 317l82 -33c11 10 16 23 16 40c0 32 -14 51 -58 71l-80 35c-14 -10 -20 -24 -20 -43c0 -32 18 -53 60 -70z" />
    <glyph glyph-name="bar.case" horiz-adv-x="227" 
d="M61 -84v877h106v-877h-106z" />
    <glyph glyph-name="brokenbar.case" horiz-adv-x="227" 
d="M166 800v-380h-105v380h105zM166 309v-386h-105v386h105z" />
    <glyph glyph-name="dagger.case" horiz-adv-x="458" 
d="M287 441v-495h-117v495h-130v99h130v218h117v-218h130v-99h-130z" />
    <glyph glyph-name="daggerdbl.case" horiz-adv-x="458" 
d="M417 441h-130v-180h130v-99h-130v-216h-117v216h-130v99h130v180h-130v99h130v218h117v-218h130v-99z" />
    <glyph glyph-name="registered.ss04" horiz-adv-x="443" 
d="M222 729c122 0 217 -85 217 -247c0 -161 -95 -246 -217 -246c-124 0 -218 85 -218 246c0 162 94 247 218 247zM222 277c96 0 171 68 171 205c0 138 -75 207 -171 207c-97 0 -172 -69 -172 -207c0 -137 75 -205 172 -205zM330 535c0 -37 -17 -61 -47 -72l53 -112h-72
l-45 101h-21v-101h-68v268h104c64 0 96 -31 96 -84zM198 570v-72h23c24 0 37 12 37 38c0 24 -13 34 -36 34h-24z" />
    <glyph glyph-name="Bitcoin.case" horiz-adv-x="568" 
d="M418 373c77 -17 122 -72 122 -163v-12c0 -103 -56 -178 -168 -195v-92h-61v89h-65v-89h-60v89h-124v710h124v82h60v-82h65v82h61v-86c106 -16 155 -81 155 -174v-11c0 -73 -38 -129 -109 -148zM373 519c0 56 -25 86 -88 86h-76v-195h76c65 0 88 37 88 98v11zM386 206v13
c0 64 -29 96 -90 96h-87v-211h87c62 0 90 38 90 102z" />
    <glyph glyph-name="Baht.case" horiz-adv-x="570" 
d="M420 374c79 -17 123 -73 123 -161v-15c0 -128 -82 -198 -219 -198h-12v-87h-54v87h-196v710h196v76h54v-76h4c135 0 213 -59 213 -173v-20c0 -72 -40 -125 -109 -143zM194 606v-199h64v199h-64zM388 520c0 53 -25 81 -76 85v-197c50 5 76 37 76 96v16zM194 102h64v218
h-64v-218zM401 205v19c0 62 -30 94 -89 96v-218c58 2 89 37 89 103z" />
    <glyph glyph-name="Lira.case" horiz-adv-x="518" 
d="M386 231l130 -22c-21 -100 -77 -209 -244 -209h-197v257l-65 -19v70l65 19v79l-65 -19v70l65 19v234h151v-190l168 49v-70l-168 -49v-78l168 49v-71l-168 -49v-187h33c84 0 113 56 127 117z" />
    <glyph glyph-name="Ruble.case" horiz-adv-x="537" 
d="M295 710c144 0 231 -76 231 -205v-24c0 -137 -87 -217 -236 -217h-71v-78h110v-64h-110v-122h-150v122h-73v64h73v78h-73v101h73v345h226zM366 477v22c0 71 -32 105 -92 105h-55v-239h54c61 0 93 38 93 112z" />
    <glyph glyph-name="Rupee.case" horiz-adv-x="490" 
d="M487 618h-154c26 -27 42 -63 46 -107h108v-63h-108c-7 -93 -64 -156 -161 -175l177 -273h-161l-182 286v67h63c65 0 101 31 108 95h-171v63h171c-4 72 -39 107 -106 107h-65v92h435v-92z" />
    <glyph glyph-name="Won.case" horiz-adv-x="797" 
d="M779 403h-62l-13 -77h75v-57h-85l-45 -269h-166l-39 269h-91l-39 -269h-165l-45 269h-86v57h76l-13 77h-63v57h54l-42 250h133l30 -250h95l39 250h143l39 -250h96l29 250h134l-42 -250h53v-57zM382 466l-1 -6h35l-1 6c-7 57 -11 105 -14 154h-5c-3 -49 -6 -97 -14 -154z
M199 403l9 -77h59l12 77h-80zM362 326h73l-11 77h-51zM589 326l9 77h-80l12 -77h59zM251 222l7 47h-43l5 -41c6 -58 9 -93 11 -137h4c4 44 8 76 16 131zM578 228l5 41h-44l7 -47c9 -55 12 -87 16 -131h4c2 44 5 79 12 137z" />
    <glyph glyph-name="caronaccentcomb" horiz-adv-x="226" 
d="M92 526l-25 46c32 8 46 19 46 40h-62v98h124v-83c0 -53 -24 -88 -83 -101z" />
    <glyph glyph-name="Won.tf" 
d="M517 401h-33l-6 -77h39v-57h-43l-21 -267h-134l-22 267h-52l-22 -267h-134l-21 267h-43v57h39l-6 77h-33v56h28l-18 238h97l10 -238h48l22 238h118l22 -238h48l10 238h97l-18 -238h28v-56zM263 484l-2 -27h20l-2 27c-2 46 -3 77 -4 109h-8c-1 -32 -2 -63 -4 -109z
M144 401l3 -77h31l7 77h-41zM250 324h42l-6 77h-30zM395 324l3 77h-41l7 -77h31zM167 198l6 69h-23l2 -57c1 -55 2 -81 2 -109h7zM390 210l2 57h-23l6 -69l6 -97h7c0 28 1 54 2 109z" />
    <glyph glyph-name="Lira.tf" 
d="M392 231l130 -22c-20 -100 -76 -209 -239 -209h-181v259l-69 -20v70l69 21v78l-69 -21v71l69 20v217h146v-173l149 44v-70l-149 -45v-78l149 45v-71l-149 -44v-189h21c81 0 109 56 123 117z" />
    <glyph glyph-name="Ruble.tf" 
d="M300 695c165 0 221 -99 221 -203v-17c0 -116 -59 -214 -218 -214h-63v-72h112v-63h-112v-126h-145v126h-73v63h73v72h-73v100h73v334h205zM377 474v15c0 61 -25 100 -94 100h-43v-228h42c71 0 95 46 95 113z" />
    <glyph glyph-name="Rupee.tf" 
d="M494 603h-146c22 -25 36 -57 40 -96h106v-64h-105c-8 -94 -64 -157 -153 -171h-1l180 -272h-167l-174 278v72h57c62 0 96 30 103 93h-160v64h160c-7 66 -42 96 -107 96h-53v92h420v-92z" />
    <glyph glyph-name="Baht.tf" 
d="M384 363c78 -17 123 -71 123 -158v-11c0 -127 -80 -192 -212 -194v-107h-54v107h-179v695h179v91h54v-91c126 -4 200 -63 200 -177v-11c0 -73 -42 -126 -111 -144zM241 599h-57v-201h57v201zM365 511c0 56 -24 81 -70 87v-199c46 7 70 39 70 99v13zM184 96h57v213h-57
v-213zM377 201v15c0 60 -29 89 -82 93v-213c53 5 82 38 82 105z" />
    <glyph glyph-name="Bitcoin.tf" 
d="M386 363c78 -17 124 -71 124 -159v-10c0 -106 -56 -168 -152 -188v-113h-61v107h-8h-57v-107h-60v107h-109v695h109v90h60v-90h50h15v90h61v-97c89 -20 140 -76 140 -170v-11c0 -73 -42 -126 -112 -144zM347 510c0 59 -27 80 -79 80h-59v-189h59c52 0 79 31 79 98v11z
M359 202v13c0 63 -29 92 -82 92h-68v-201h68c54 0 82 30 82 96z" />
    <glyph glyph-name="percentzerotfcomb" 
d="M149 398c-77 0 -127 54 -127 158c0 105 50 159 127 159c76 0 126 -54 126 -159c0 -104 -50 -158 -126 -158zM149 473c25 0 38 23 38 83c0 61 -13 84 -38 84c-26 0 -39 -23 -39 -84c0 -60 13 -83 39 -83z" />
    <glyph glyph-name="Won.tf.case" 
d="M517 403h-33l-6 -77h39v-57h-44l-20 -269h-134l-22 269h-52l-22 -269h-134l-20 269h-44v57h39l-6 77h-33v57h29l-19 250h97l10 -250h48l22 250h118l22 -250h48l10 250h97l-19 -250h29v-57zM263 491l-3 -31h22l-3 31c-2 46 -3 85 -4 117h-8c-1 -32 -2 -71 -4 -117z
M144 403l3 -77h31l7 77h-41zM250 326h42l-6 77h-30zM395 326l3 77h-41l7 -77h31zM167 198l6 71h-23l2 -58c1 -55 2 -82 2 -110h7zM390 211l2 58h-23l6 -71l6 -97h7c0 28 1 55 2 110z" />
    <glyph glyph-name="Lira.tf.case" 
d="M392 234l130 -23c-20 -101 -76 -211 -239 -211h-181v263l-69 -21v71l69 21v79l-69 -21v72l69 21v225h146v-181l149 45v-71l-149 -45v-80l149 45v-71l-149 -45v-193h21c81 0 109 58 123 120z" />
    <glyph glyph-name="Ruble.tf.case" 
d="M300 710c158 0 221 -94 221 -206v-20c0 -124 -66 -218 -218 -218h-63v-74h112v-64h-112v-128h-145v128h-73v64h73v74h-73v101h73v343h205zM377 483v18c0 67 -28 102 -94 102h-43v-236h42c66 0 95 43 95 116z" />
    <glyph glyph-name="Rupee.tf.case" 
d="M494 617h-147c24 -26 37 -60 42 -101h105v-63h-105c-6 -97 -63 -163 -153 -177h-1l180 -276h-167l-174 283v72h57c63 0 97 32 103 98h-160v63h160c-6 69 -41 101 -107 101h-53v93h420v-93z" />
    <glyph glyph-name="Baht.tf.case" 
d="M384 371c78 -17 123 -71 123 -160v-13c0 -130 -80 -196 -212 -198v-95h-54v95h-179v709h179v84h54v-84c126 -4 200 -64 200 -180v-12c0 -74 -42 -128 -111 -146zM241 613h-57v-207h57v207zM365 522c0 59 -24 84 -70 90v-205c46 8 70 40 70 101v14zM184 97h57v220h-57
v-220zM377 205v17c0 61 -29 91 -82 95v-220c53 5 82 38 82 108z" />
    <glyph glyph-name="Bitcoin.tf.case" 
d="M386 371c78 -17 124 -71 124 -161v-12c0 -108 -56 -172 -152 -192v-101h-61v95h-8h-57v-95h-60v95h-109v710h109v82h60v-82h50h15v82h61v-90c89 -19 140 -77 140 -172v-13c0 -74 -42 -128 -112 -146zM347 521c0 61 -27 83 -79 83h-59v-195h59c52 0 79 32 79 100v12z
M359 206v15c0 64 -29 94 -82 94h-68v-209h68c54 0 82 31 82 100z" />
    </font>
</defs>
</svg>
