<svg xmlns="http://www.w3.org/2000/svg">
<defs>
<font id="GTAmerica-ExpandedBlack" horiz-adv-x="803" >
  <font-face 
    font-family="GT America Expanded Black"
    font-weight="900"
    font-stretch="ultra-expanded"
    units-per-em="1000"
    panose-1="0 0 10 7 0 0 0 0 0 0"
    ascent="800"
    descent="-200"
    x-height="500"
    cap-height="710"
    bbox="-649 -257 1834 996"
    underline-thickness="50"
    underline-position="-100"
    stemh="171"
    stemv="256"
    unicode-range="U+000D-FB02"
  />
<missing-glyph horiz-adv-x="1018" 
d="M998 663h-552v-47h552v-48h-552v-47h552v-48h-552v-47h552v-47h-552v-48h552v-47h-978v426h978v-47zM67 667l13 9h-16l-5 15l-4 -15h-16l13 -9l-5 -15l12 9l13 -9zM142 676h-16l13 -9l-5 -15l12 10l13 -10l-5 15l12 9h-15l-5 15zM229 676h-16l13 -9l-5 -15l12 10l13 -10
l-5 15l12 9h-15l-5 15zM315 676h-15l13 -9l-5 -15l12 10l13 -10l-5 15l12 9h-15l-5 15zM415 667l12 9h-15l-5 15l-5 -15h-15l12 -9l-4 -15l12 10l13 -10zM98 632h-15l12 -9l-4 -14l12 9l12 -9l-4 14l12 9h-15l-5 15zM371 623l13 9h-16l-4 15l-5 -15h-15l12 -9l-5 -14l13 9
l12 -9zM273 364v93h94v80h-94v94h-80v-94h-93v-80h93v-93h80zM67 580l13 9h-16l-5 14l-4 -14h-16l13 -9l-5 -15l12 9l13 -9zM142 589h-16l13 -9l-5 -15l12 9l13 -9l-5 15l12 9h-15l-5 14zM315 589h-15l13 -9l-5 -15l12 9l13 -9l-5 15l12 9h-15l-5 14zM415 580l12 9h-15
l-5 14l-5 -14h-15l12 -9l-4 -15l12 9l13 -9zM67 492l13 10h-16l-5 14l-4 -14h-16l13 -10l-5 -14l12 9l13 -9zM415 492l12 10h-15l-5 14l-5 -14h-15l12 -10l-4 -14l12 9l13 -9zM67 405l13 9h-16l-5 15l-4 -15h-16l13 -9l-5 -14l12 9l13 -9zM154 405l12 9h-15l-5 15l-4 -15
h-16l13 -9l-5 -14l12 9l13 -9zM328 405l12 9h-15l-5 15l-5 -15h-15l13 -9l-5 -14l12 9l13 -9zM415 405l12 9h-15l-5 15l-5 -15h-15l12 -9l-4 -14l12 9l13 -9zM115 347l-4 15l12 9h-15l-5 14l-5 -14h-15l12 -9l-4 -15l12 9zM376 347l-5 15l13 9h-16l-4 14l-5 -14h-15l12 -9

<glyph glyph-name="fi" unicode="fi" horiz-adv-x="1018" 
d="M699 564v174h254v-174h-254zM619 500v-146h-211v-354h-247v354h-151v146h151v10c0 152 106 225 324 225c43 0 92 -4 134 -12v-156c-42 8 -69 9 -108 9c-76 0 -103 -17 -103 -71v-5h211zM703 0v500h246v-500h-246z" />
    <glyph glyph-name="fl" unicode="fl" horiz-adv-x="1028" 
d="M619 500v-146h-211v-354h-247v354h-151v146h151v10c0 152 106 225 324 225c43 0 92 -4 134 -12v-156c-42 8 -69 9 -108 9c-76 0 -103 -17 -103 -71v-5h211zM954 725v-725h-246v725h246z" />
    <glyph glyph-name="g_g.liga" unicode="gg" horiz-adv-x="1679" 
d="M606 498c20 67 83 102 173 102c21 0 45 -2 52 -5v-143c-13 5 -41 8 -69 8c-22 0 -40 -2 -55 -5c38 -27 57 -62 57 -105c0 -111 -131 -175 -359 -175c-63 0 -118 5 -166 14c-9 -4 -14 -10 -14 -20c0 -16 14 -25 46 -25h317c153 0 221 -52 221 -158
c0 -140 -139 -200 -443 -200c-234 0 -342 34 -342 111c0 42 32 68 94 81c-58 17 -92 53 -92 102c0 66 54 111 146 128c-81 29 -125 78 -125 142c0 109 127 169 358 169c80 0 147 -7 201 -21zM1659 452c-12 5 -41 8 -69 8c-22 0 -40 -2 -55 -6c38 -27 57 -62 57 -104
c0 -111 -141 -175 -359 -175c-58 0 -111 5 -157 13c-9 -4 -13 -10 -13 -19c0 -16 15 -25 47 -25h308c152 -3 220 -52 220 -158c0 -140 -150 -200 -442 -200c-225 0 -333 34 -333 111c0 39 28 65 84 78c-52 19 -82 57 -82 105c0 65 52 110 141 127c-83 29 -131 78 -131 143
c0 109 127 169 358 169c79 0 147 -7 201 -21c20 67 83 102 174 102c20 0 45 -2 51 -5v-143zM405 279c70 0 108 25 108 71c0 43 -37 65 -108 65c-70 0 -107 -22 -107 -65c0 -46 38 -71 107 -71zM1233 279c69 0 108 25 108 71c0 43 -37 65 -108 65s-108 -22 -108 -65
c0 -46 39 -71 108 -71zM537 -38l-335 5c-7 -9 -11 -18 -11 -27c0 -48 74 -62 218 -62c141 0 180 10 180 46c0 26 -16 37 -52 38zM1367 -38h-331c-5 -7 -7 -14 -7 -22c0 -48 74 -62 210 -62c140 0 179 10 179 46c0 26 -15 38 -51 38z" />
    <glyph glyph-name=".notdef" horiz-adv-x="1018" 
d="M998 663h-552v-47h552v-48h-552v-47h552v-48h-552v-47h552v-47h-552v-48h552v-47h-978v426h978v-47zM67 667l13 9h-16l-5 15l-4 -15h-16l13 -9l-5 -15l12 9l13 -9zM142 676h-16l13 -9l-5 -15l12 10l13 -10l-5 15l12 9h-15l-5 15zM229 676h-16l13 -9l-5 -15l12 10l13 -10
l-5 15l12 9h-15l-5 15zM315 676h-15l13 -9l-5 -15l12 10l13 -10l-5 15l12 9h-15l-5 15zM415 667l12 9h-15l-5 15l-5 -15h-15l12 -9l-4 -15l12 10l13 -10zM98 632h-15l12 -9l-4 -14l12 9l12 -9l-4 14l12 9h-15l-5 15zM371 623l13 9h-16l-4 15l-5 -15h-15l12 -9l-5 -14l13 9
l12 -9zM273 364v93h94v80h-94v94h-80v-94h-93v-80h93v-93h80zM67 580l13 9h-16l-5 14l-4 -14h-16l13 -9l-5 -15l12 9l13 -9zM142 589h-16l13 -9l-5 -15l12 9l13 -9l-5 15l12 9h-15l-5 14zM315 589h-15l13 -9l-5 -15l12 9l13 -9l-5 15l12 9h-15l-5 14zM415 580l12 9h-15
l-5 14l-5 -14h-15l12 -9l-4 -15l12 9l13 -9zM67 492l13 10h-16l-5 14l-4 -14h-16l13 -10l-5 -14l12 9l13 -9zM415 492l12 10h-15l-5 14l-5 -14h-15l12 -10l-4 -14l12 9l13 -9zM67 405l13 9h-16l-5 15l-4 -15h-16l13 -9l-5 -14l12 9l13 -9zM154 405l12 9h-15l-5 15l-4 -15
h-16l13 -9l-5 -14l12 9l13 -9zM328 405l12 9h-15l-5 15l-5 -15h-15l13 -9l-5 -14l12 9l13 -9zM415 405l12 9h-15l-5 15l-5 -15h-15l12 -9l-4 -14l12 9l13 -9zM115 347l-4 15l12 9h-15l-5 14l-5 -14h-15l12 -9l-4 -15l12 9zM376 347l-5 15l13 9h-16l-4 14l-5 -14h-15l12 -9
l-5 -15l13 9zM72 303l-5 15l13 9h-16l-5 15l-4 -15h-16l13 -9l-5 -15l12 9zM159 303l-5 15l12 9h-15l-5 15l-4 -15h-16l13 -9l-5 -15l12 9zM246 303l-5 15l12 9h-15l-5 15l-4 -15h-16l13 -9l-5 -15l12 9zM333 303l-5 15l12 9h-15l-5 15l-5 -15h-15l13 -9l-5 -15l12 9z
M420 303l-5 15l12 9h-15l-5 15l-5 -15h-15l12 -9l-4 -15l12 9zM20 189v48h977v-48h-977zM20 95v47h978v-47h-978zM20 0v47h978v-47h-978z" />
    <glyph glyph-name=".null" horiz-adv-x="0" 
 />
    <glyph glyph-name=".null" horiz-adv-x="0" 
 />
    <glyph glyph-name="CR" unicode="&#xd;" horiz-adv-x="0" 
 />
    <glyph glyph-name="space" unicode=" " horiz-adv-x="387" 
 />
    <glyph glyph-name="exclam" unicode="!" horiz-adv-x="428" 
d="M106 254l-28 471h272l-28 -471h-216zM345 179v-179h-262v179h262z" />
    <glyph glyph-name="quotedbl" unicode="&#x22;" horiz-adv-x="639" 
d="M88 318l-38 392h247l-38 -392h-171zM380 318l-38 392h247l-38 -392h-171z" />
    <glyph glyph-name="numbersign" unicode="#" horiz-adv-x="856" 
d="M837 402h-147l-21 -111h134v-136h-159l-29 -155h-177l29 155h-153l-29 -155h-177l29 155h-118v136h143l21 111h-124v137h150l28 152h177l-28 -152h153l28 152h177l-28 -152h121v-137zM492 291l21 111h-153l-21 -111h153z" />
    <glyph glyph-name="dollar" unicode="$" horiz-adv-x="879" 
d="M860 229c0 -142 -144 -235 -375 -247v-89h-79v88c-181 5 -345 56 -426 132l165 129c63 -59 154 -91 261 -98v132l-110 11c-170 19 -251 82 -251 199c0 138 132 223 361 231v83h79v-83c143 -5 274 -40 369 -98l-143 -139c-40 40 -125 71 -226 79v-122l114 -10
c179 -18 261 -73 261 -198zM370 448l36 -3v117c-84 -3 -129 -21 -129 -57s25 -51 93 -57zM485 143c88 4 139 26 139 64s-26 49 -80 56l-59 6v-126z" />
    <glyph glyph-name="percent" unicode="%" horiz-adv-x="1257" 
d="M134 -14l823 744h180l-823 -744h-180zM303 321c-171 0 -284 78 -284 201c0 120 113 199 283 199c167 0 284 -80 284 -201s-117 -199 -283 -199zM303 439c56 0 93 30 93 81c0 52 -37 83 -94 83s-96 -30 -96 -81c0 -53 39 -83 97 -83zM956 -17c-171 0 -284 78 -284 201
c0 120 113 199 283 199c167 0 284 -80 284 -201s-117 -199 -283 -199zM956 101c56 0 93 30 93 81c0 52 -37 83 -94 83s-96 -30 -96 -81c0 -53 39 -83 97 -83z" />
    <glyph glyph-name="ampersand" unicode="&#x26;" horiz-adv-x="939" 
d="M857 140c21 0 33 2 62 10v-147c-34 -15 -60 -21 -90 -21c-62 0 -111 20 -162 55l-12 8c-78 -47 -176 -70 -293 -70c-248 0 -353 93 -353 205c0 87 52 148 180 192c-71 51 -111 94 -111 168c0 138 148 196 302 196c171 0 289 -66 289 -188c0 -84 -83 -157 -167 -183
l-17 -6l148 -104c31 43 55 95 69 156l170 -31c-20 -87 -52 -160 -93 -219c28 -14 53 -21 78 -21zM381 619c-52 0 -88 -29 -88 -76c0 -30 18 -69 81 -106l7 -5l11 3c58 18 73 67 73 109c0 44 -32 75 -84 75zM392 121c40 0 79 9 116 27l-204 144c-33 -22 -47 -50 -47 -83
c0 -52 53 -88 135 -88z" />
    <glyph glyph-name="quotesingle" unicode="'" horiz-adv-x="347" 
d="M88 318l-38 392h247l-38 -392h-171z" />
    <glyph glyph-name="parenleft" unicode="(" horiz-adv-x="454" 
d="M268 -147c-124 130 -209 306 -209 472c0 165 88 349 213 467l179 -70c-115 -121 -167 -259 -167 -401c0 -139 58 -275 170 -397z" />
    <glyph glyph-name="parenright" unicode=")" horiz-adv-x="454" 
d="M186 -147l-186 71c112 122 170 258 170 397c0 142 -52 280 -167 401l179 70c125 -118 213 -302 213 -467c0 -166 -85 -342 -209 -472z" />
    <glyph glyph-name="asterisk" unicode="*" horiz-adv-x="470" 
d="M456 508l-154 -4l135 -95l-142 -96l-60 153l-61 -153l-141 96l135 95l-155 4l50 155l132 -91l-51 139h181l-50 -138l132 90z" />
    <glyph glyph-name="plus" unicode="+" horiz-adv-x="724" 
d="M684 398v-139h-248v-192h-150v192h-246v139h246v182h150v-182h248z" />
    <glyph glyph-name="comma" unicode="," horiz-adv-x="328" 
d="M87 -177l-18 87c69 11 97 39 97 83v7h-116v207h228v-197c0 -85 -47 -175 -191 -187z" />
    <glyph glyph-name="hyphen" unicode="-" horiz-adv-x="603" 
d="M40 361h523v-166h-523v166z" />
    <glyph glyph-name="period" unicode="." horiz-adv-x="346" 
d="M296 189v-189h-246v189h246z" />
    <glyph glyph-name="slash" unicode="/" horiz-adv-x="774" 
d="M269 -117h-229l465 877h229z" />
    <glyph glyph-name="zero" unicode="0" horiz-adv-x="904" 
d="M452 -24c-241 0 -422 132 -422 372s181 371 422 371s422 -131 422 -371s-181 -372 -422 -372zM452 147c86 0 164 52 164 201s-78 200 -164 200s-164 -51 -164 -200s78 -201 164 -201z" />
    <glyph glyph-name="one" unicode="1" horiz-adv-x="577" 
d="M228 0v422c-36 -38 -98 -48 -151 -48h-57v202h31c104 0 180 40 213 119h215v-695h-251z" />
    <glyph glyph-name="two" unicode="2" horiz-adv-x="863" 
d="M34 0v157c134 50 288 119 386 165c94 47 120 84 120 136s-42 89 -118 89c-80 0 -130 -37 -130 -110c0 -5 0 -11 1 -22l-255 22c-1 11 -1 20 -1 32c0 161 167 250 383 250c224 0 385 -70 385 -238c0 -98 -43 -152 -149 -207c-70 -38 -167 -69 -264 -94h423v-180h-781z" />
    <glyph glyph-name="three" unicode="3" horiz-adv-x="846" 
d="M415 -24c-243 0 -393 92 -395 257l256 19c-1 -81 59 -111 142 -111c81 0 134 23 134 75c0 42 -30 67 -126 67h-79v132h78c85 0 119 23 119 64c0 47 -48 76 -129 76c-82 0 -138 -27 -138 -111l-254 21c0 150 141 254 389 254c241 0 392 -74 392 -216
c0 -100 -83 -139 -176 -148c126 -15 189 -71 189 -163c0 -135 -164 -216 -402 -216z" />
    <glyph glyph-name="four" unicode="4" horiz-adv-x="905" 
d="M895 133h-154v-133h-245v133h-486v151l459 411h272v-402h154v-160zM496 444c0 45 1 69 5 87h-5c-12 -23 -35 -50 -77 -89l-88 -85c-31 -30 -49 -44 -80 -64h245v151z" />
    <glyph glyph-name="five" unicode="5" horiz-adv-x="831" 
d="M406 -24c-212 0 -360 87 -377 221l244 25c9 -49 63 -81 137 -81c84 0 132 35 132 96c0 57 -47 89 -132 89c-66 0 -112 -26 -133 -65l-220 19l45 415h639v-169h-444l-15 -120c38 46 116 72 214 72c189 0 305 -91 305 -239c0 -161 -153 -263 -395 -263z" />
    <glyph glyph-name="six" unicode="6" horiz-adv-x="854" 
d="M501 478c211 0 328 -88 328 -244c0 -158 -154 -258 -397 -258c-260 0 -402 126 -402 356c0 247 152 387 422 387c194 0 331 -72 370 -197l-256 -28c-17 41 -61 62 -125 62c-99 0 -156 -50 -167 -146c57 45 133 68 227 68zM431 139c84 0 141 38 141 94
c0 59 -47 93 -129 93c-68 0 -124 -25 -161 -71c19 -78 67 -116 149 -116z" />
    <glyph glyph-name="seven" unicode="7" horiz-adv-x="748" 
d="M183 0v19c0 196 101 369 312 495h-485v181h719v-172c-163 -108 -278 -260 -278 -475v-48h-268z" />
    <glyph glyph-name="eight" unicode="8" horiz-adv-x="864" 
d="M665 391c120 -39 170 -99 170 -197c0 -137 -149 -218 -402 -218c-250 0 -404 76 -404 201c0 80 63 137 171 157c-104 36 -151 92 -151 177c0 127 148 208 382 208c235 0 384 -75 384 -193c0 -68 -56 -116 -150 -135zM432 574c-76 0 -126 -26 -126 -67
c0 -37 39 -58 132 -72l67 -10c3 0 7 -1 10 -2c29 19 44 44 44 74c0 49 -46 77 -127 77zM434 128c85 0 141 30 141 76c0 42 -39 64 -147 82l-74 13c-43 -19 -65 -49 -65 -85c0 -55 53 -86 145 -86z" />
    <glyph glyph-name="nine" unicode="9" horiz-adv-x="854" 
d="M410 719c268 0 415 -123 415 -355c0 -248 -151 -388 -422 -388c-194 0 -331 79 -371 212l256 28c18 -37 62 -71 126 -71c103 0 158 52 168 146c-53 -36 -125 -53 -226 -53c-212 0 -331 84 -331 235c0 155 154 246 385 246zM411 390c80 0 133 24 167 59
c-15 71 -69 116 -161 116c-83 0 -134 -33 -134 -91c0 -49 50 -84 128 -84z" />
    <glyph glyph-name="colon" unicode=":" horiz-adv-x="346" 
d="M296 500v-189h-246v189h246zM296 189v-189h-246v189h246z" />
    <glyph glyph-name="semicolon" unicode=";" horiz-adv-x="346" 
d="M296 500v-189h-246v189h246zM87 -177l-18 87c69 11 97 39 97 83v7h-116v207h228v-197c0 -85 -47 -175 -191 -187z" />
    <glyph glyph-name="less" unicode="&#x3c;" 
d="M665 57l-569 204v130l569 204v-146l-402 -122l402 -122v-148z" />
    <glyph glyph-name="equal" unicode="=" horiz-adv-x="696" 
d="M40 365v121h616v-121h-616zM40 172v121h616v-121h-616z" />
    <glyph glyph-name="greater" unicode="&#x3e;" 
d="M138 57v148l402 122l-402 122v146l569 -204v-130z" />
    <glyph glyph-name="question" unicode="?" horiz-adv-x="836" 
d="M292 216v23c0 60 13 111 95 144l99 39c55 22 76 47 76 81c0 45 -45 77 -141 77c-87 0 -151 -30 -151 -99c0 -16 1 -28 4 -39l-250 20c-4 13 -5 29 -5 42c0 143 161 233 402 233c225 0 391 -73 391 -217c0 -86 -53 -138 -135 -173l-96 -42c-53 -23 -61 -48 -61 -75v-14
h-228zM278 0v179h260v-179h-260z" />
    <glyph glyph-name="at" unicode="@" horiz-adv-x="982" 
d="M481 -102c-287 0 -466 145 -466 378c0 228 198 384 487 384c283 0 465 -142 465 -364c0 -145 -88 -235 -229 -235c-86 0 -138 31 -158 94c-39 -63 -112 -99 -200 -99c-122 0 -184 43 -184 127c0 82 61 125 202 140l177 19v8c0 39 -32 65 -80 65c-51 0 -84 -21 -89 -57
h-201c13 100 129 166 291 166c178 0 273 -69 273 -199v-114c0 -40 15 -58 48 -58c44 0 72 54 72 141c0 188 -143 297 -390 297c-246 0 -401 -121 -401 -315c0 -187 156 -307 396 -307c67 0 149 16 204 40l28 -64c-72 -32 -149 -47 -245 -47zM465 166c68 0 110 37 110 96v17
l-117 -16c-40 -5 -63 -23 -63 -50c0 -28 28 -47 70 -47z" />
    <glyph glyph-name="A" unicode="A" horiz-adv-x="1002" 
d="M723 0l-55 135h-333l-55 -135h-275l330 710h332l330 -710h-274zM397 289h209l-50 123c-29 67 -45 107 -53 153h-3c-9 -46 -25 -86 -53 -153z" />
    <glyph glyph-name="B" unicode="B" horiz-adv-x="961" 
d="M767 377c109 -16 165 -76 165 -171c0 -100 -70 -206 -276 -206h-578v710h574c178 0 263 -70 263 -177c0 -72 -46 -135 -148 -156zM574 552h-240v-119h240c59 0 74 33 74 63c0 29 -16 56 -74 56zM584 158c57 0 81 34 81 69c0 37 -28 64 -81 64h-250v-133h250z" />
    <glyph glyph-name="C" unicode="C" horiz-adv-x="971" 
d="M486 -25c-287 0 -471 146 -471 376c0 225 198 384 479 384c234 0 410 -102 458 -267l-265 -50c-21 83 -88 127 -193 127c-130 0 -209 -73 -209 -190c0 -118 78 -189 209 -189c106 0 174 44 194 126l262 -58c-57 -164 -228 -259 -464 -259z" />
    <glyph glyph-name="D" unicode="D" horiz-adv-x="997" 
d="M78 0v710h477c266 0 426 -124 426 -343c0 -217 -173 -367 -432 -367h-471zM334 166h173c127 0 204 76 204 196c0 116 -80 183 -198 183h-179v-379z" />
    <glyph glyph-name="E" unicode="E" horiz-adv-x="881" 
d="M334 172h493v-172h-749v710h742v-172h-486v-101h469v-158h-469v-107z" />
    <glyph glyph-name="F" unicode="F" horiz-adv-x="850" 
d="M820 533h-486v-106h469v-172h-469v-255h-256v710h742v-177z" />
    <glyph glyph-name="G" unicode="G" horiz-adv-x="980" 
d="M420 -25c-257 0 -405 159 -405 368c0 221 181 392 478 392c227 0 400 -87 442 -233l-278 -45c-23 55 -72 98 -169 98c-134 0 -203 -81 -203 -209c0 -119 71 -199 205 -199c128 0 195 59 203 112v1h-234v149h474v-409h-195l-9 118c-34 -62 -122 -143 -309 -143z" />
    <glyph glyph-name="H" unicode="H" horiz-adv-x="1010" 
d="M931 710v-710h-255v273h-342v-273h-256v710h256v-267h342v267h255z" />
    <glyph glyph-name="I" unicode="I" horiz-adv-x="412" 
d="M334 0h-256v710h256v-710z" />
    <glyph glyph-name="J" unicode="J" horiz-adv-x="517" 
d="M467 255c0 -206 -148 -267 -318 -267c-52 0 -103 4 -139 12v189c22 -3 46 -5 68 -5c71 0 134 21 134 120v406h255v-455z" />
    <glyph glyph-name="K" unicode="K" horiz-adv-x="966" 
d="M664 0l-213 288l-117 -111v-177h-256v710h256v-285l306 285h306l-289 -266l-18 -12l317 -432h-292z" />
    <glyph glyph-name="L" unicode="L" horiz-adv-x="806" 
d="M78 0v710h256v-514h448v-196h-704z" />
    <glyph glyph-name="M" unicode="M" horiz-adv-x="1227" 
d="M78 0v710h379l127 -361c12 -34 23 -62 26 -89h2c3 27 14 56 26 91l122 359h389v-710h-234v390c0 45 5 98 14 150h-5c-6 -25 -29 -93 -48 -141l-154 -399h-238l-145 397c-20 55 -36 109 -45 143h-4c9 -47 10 -102 10 -150v-390h-222z" />
    <glyph glyph-name="N" unicode="N" horiz-adv-x="1009" 
d="M78 0v710h265l291 -331c24 -31 45 -57 60 -88h5v110v309h231v-710h-250l-304 331c-17 21 -51 65 -61 90h-5v-109v-312h-232z" />
    <glyph glyph-name="O" unicode="O" horiz-adv-x="994" 
d="M497 -25c-295 0 -482 147 -482 380s187 380 482 380c294 0 481 -147 481 -380s-187 -380 -481 -380zM497 161c128 0 211 77 211 194s-83 195 -211 195s-212 -78 -212 -195s84 -194 212 -194z" />
    <glyph glyph-name="P" unicode="P" horiz-adv-x="901" 
d="M576 710c198 0 315 -90 315 -243c0 -159 -121 -260 -310 -260h-247v-207h-256v710h498zM510 370c71 0 111 31 111 89s-38 88 -110 88h-177v-177h176z" />
    <glyph glyph-name="Q" unicode="Q" horiz-adv-x="994" 
d="M730 13c50 -19 106 -23 150 -23c34 0 52 1 76 3v-186c-19 -3 -48 -6 -75 -6c-170 0 -281 64 -339 175c-14 -1 -30 -1 -45 -1c-295 0 -482 147 -482 380s187 380 482 380c294 0 481 -147 481 -380c0 -163 -92 -285 -248 -342zM285 355c0 -117 84 -194 212 -194
s211 77 211 194s-83 195 -211 195s-212 -78 -212 -195z" />
    <glyph glyph-name="R" unicode="R" horiz-adv-x="935" 
d="M633 0l-150 232h-149v-232h-256v710h497c245 0 316 -118 316 -233c0 -80 -37 -171 -148 -215l172 -262h-282zM334 547v-162h180c82 0 107 38 107 83c0 43 -26 79 -106 79h-181z" />
    <glyph glyph-name="S" unicode="S" horiz-adv-x="880" 
d="M433 -25c-189 0 -367 64 -453 147l165 144c69 -62 180 -116 303 -116c106 0 156 20 156 58c0 27 -18 37 -78 44l-212 25c-180 22 -268 88 -268 226c0 145 144 232 396 232c156 0 304 -33 412 -109l-141 -150c-59 52 -168 88 -285 88c-85 0 -130 -17 -130 -50
c0 -28 21 -39 92 -47l183 -18c205 -21 287 -80 287 -216c0 -165 -160 -258 -427 -258z" />
    <glyph glyph-name="T" unicode="T" horiz-adv-x="821" 
d="M812 710v-195h-274v-515h-255v515h-273v195h802z" />
    <glyph glyph-name="U" unicode="U" horiz-adv-x="955" 
d="M50 710h256v-366c0 -106 57 -172 172 -172c108 0 171 67 171 172v366h256v-397c0 -206 -151 -338 -427 -338s-428 134 -428 341v394z" />
    <glyph glyph-name="V" unicode="V" horiz-adv-x="980" 
d="M335 0l-340 710h284l186 -437c12 -28 18 -51 23 -76h4c5 25 11 48 23 76l186 437h284l-340 -710h-310z" />
    <glyph glyph-name="W" unicode="W" horiz-adv-x="1398" 
d="M257 0l-242 710h257l114 -399c7 -26 14 -51 14 -76h5c2 25 12 52 21 76l138 399h270l138 -399c9 -24 19 -51 21 -76h5c0 25 7 50 14 76l114 399h257l-242 -710h-287l-137 400c-7 20 -14 43 -15 67h-5c-2 -24 -9 -47 -15 -67l-138 -400h-287z" />
    <glyph glyph-name="X" unicode="X" horiz-adv-x="989" 
d="M0 0l328 361l-319 349h301l144 -176c21 -23 30 -35 38 -49h4c9 14 18 26 38 49l145 176h301l-320 -349l328 -361h-304l-139 169c-22 25 -43 48 -50 63h-2c-8 -15 -29 -38 -51 -63l-138 -169h-304z" />
    <glyph glyph-name="Y" unicode="Y" horiz-adv-x="917" 
d="M331 0v234l-345 476h284l166 -259c19 -26 23 -35 26 -43h2c3 8 7 17 26 43l175 259h267l-345 -476v-234h-256z" />
    <glyph glyph-name="Z" unicode="Z" horiz-adv-x="893" 
d="M49 159l454 382h-442v169h777v-159l-452 -382h468v-169h-805v159z" />
    <glyph glyph-name="bracketleft" unicode="[" horiz-adv-x="456" 
d="M78 -120v883h368v-145h-149v-593h149v-145h-368z" />
    <glyph glyph-name="backslash" unicode="\" horiz-adv-x="774" 
d="M505 -117l-465 877h229l465 -877h-229z" />
    <glyph glyph-name="bracketright" unicode="]" horiz-adv-x="456" 
d="M378 -120h-368v145h149v593h-149v145h368v-883z" />
    <glyph glyph-name="asciicircum" unicode="^" horiz-adv-x="586" 
d="M189 708h208l169 -261h-192l-81 141l-81 -141h-192z" />
    <glyph glyph-name="underscore" unicode="_" horiz-adv-x="689" 
d="M0 -73h689v-122h-689v122z" />
    <glyph glyph-name="grave" unicode="`" horiz-adv-x="600" 
d="M393 569h-194l-206 161h237z" />
    <glyph glyph-name="a" unicode="a" horiz-adv-x="844" 
d="M288 -19c-162 0 -250 57 -250 162c0 49 23 89 69 116c39 23 97 36 188 41l234 14v13c0 41 -40 59 -102 59c-65 0 -108 -22 -116 -60h-262c23 120 172 193 378 193c250 0 352 -79 352 -233v-144c0 -56 3 -109 7 -142h-244c-3 19 -6 59 -6 86c-30 -65 -125 -105 -248 -105z
M384 109c90 0 148 39 148 98v13l-150 -12c-64 -5 -90 -18 -90 -48c0 -32 34 -51 92 -51z" />
    <glyph glyph-name="b" unicode="b" horiz-adv-x="887" 
d="M552 -19c-98 0 -188 37 -239 99l-17 -80h-222v725h246v-295c59 59 143 89 248 89c179 0 303 -107 303 -262c0 -167 -126 -276 -319 -276zM468 128c89 0 147 51 147 128c0 70 -59 117 -147 117c-94 0 -158 -47 -158 -114v-6c0 -77 61 -125 158 -125z" />
    <glyph glyph-name="c" unicode="c" horiz-adv-x="822" 
d="M418 -19c-248 0 -403 105 -403 273c0 166 151 265 403 265c210 0 357 -75 389 -198l-259 -32c-15 45 -66 75 -137 75c-85 0 -140 -44 -140 -110c0 -68 58 -116 140 -116c77 0 125 29 137 80l259 -37c-30 -123 -180 -200 -389 -200z" />
    <glyph glyph-name="d" unicode="d" horiz-adv-x="887" 
d="M321 -19c-181 0 -305 108 -305 273c0 158 126 265 313 265c107 0 181 -28 238 -80v286h246v-725h-239v95c-51 -71 -139 -114 -253 -114zM418 129c90 0 154 48 154 120v8c0 70 -64 116 -155 116s-146 -46 -146 -119c0 -76 57 -125 147 -125z" />
    <glyph glyph-name="e" unicode="e" horiz-adv-x="796" 
d="M780 223v-22h-530c18 -48 77 -75 163 -75c63 0 128 24 159 58l184 -79c-71 -78 -193 -124 -354 -124c-244 0 -387 99 -387 269c0 165 149 269 383 269c246 0 382 -111 382 -296zM248 316h290c-3 42 -55 80 -141 80c-85 0 -136 -31 -149 -80z" />
    <glyph glyph-name="f" unicode="f" horiz-adv-x="634" 
d="M619 500v-146h-211v-354h-247v354h-151v146h151v10c0 152 106 225 324 225c43 0 92 -4 134 -12v-156c-42 8 -69 9 -108 9c-76 0 -103 -17 -103 -71v-5h211z" />
    <glyph glyph-name="g" unicode="g" horiz-adv-x="851" 
d="M832 452c-22 5 -44 8 -70 8c-22 0 -40 -2 -55 -6c38 -27 57 -62 57 -104c0 -111 -131 -175 -359 -175c-63 0 -118 5 -166 14c-9 -4 -14 -10 -14 -20c0 -16 14 -25 46 -25l331 -2c161 -1 229 -49 229 -155c0 -140 -137 -201 -455 -201c-241 0 -352 34 -352 111
c0 40 31 67 93 80c-54 20 -91 57 -91 103c0 65 53 111 146 128c-81 29 -125 78 -125 142c0 109 127 169 358 169c80 0 147 -7 201 -21c20 67 83 102 174 102c18 0 35 -2 52 -5v-143zM405 279c70 0 108 26 108 71c0 43 -37 65 -108 65c-70 0 -107 -22 -107 -65
c0 -45 38 -71 107 -71zM578 -38h-368h-2c-6 -7 -8 -14 -8 -22c0 -48 61 -62 201 -62c190 0 228 10 228 51c0 20 -15 33 -51 33z" />
    <glyph glyph-name="h" unicode="h" horiz-adv-x="898" 
d="M74 0v725h246v-324c44 75 133 119 247 119c175 0 276 -106 276 -290v-230h-246v206c0 97 -47 148 -138 148c-92 0 -139 -52 -139 -152v-202h-246z" />
    <glyph glyph-name="i" unicode="i" horiz-adv-x="384" 
d="M65 564v174h254v-174h-254zM69 0v500h246v-500h-246z" />
    <glyph glyph-name="j" unicode="j" horiz-adv-x="393" 
d="M71 564v174h254v-174h-254zM57 -207c-30 0 -65 3 -88 11v168c13 -3 32 -4 47 -4c42 0 62 28 62 89v443h246v-472c0 -159 -73 -235 -267 -235z" />
    <glyph glyph-name="k" unicode="k" horiz-adv-x="882" 
d="M592 0l-146 205l-126 -94v-111h-246v725h246v-407l226 182h316l-233 -178l239 -322h-276z" />
    <glyph glyph-name="l" unicode="l" horiz-adv-x="394" 
d="M320 725v-725h-246v725h246z" />
    <glyph glyph-name="m" unicode="m" horiz-adv-x="1292" 
d="M69 500h242v-108c36 82 115 127 219 127c101 0 177 -43 216 -125c50 82 133 125 241 125c161 0 251 -96 251 -269v-250h-246v216c0 84 -38 131 -107 131c-70 0 -109 -48 -109 -134v-213h-245v216c0 87 -35 131 -108 131c-71 0 -108 -47 -108 -134v-213h-246v500z" />
    <glyph glyph-name="n" unicode="n" horiz-adv-x="893" 
d="M69 0v500h242v-112c43 84 133 131 253 131c179 0 274 -99 274 -287v-232h-246v200c0 101 -42 149 -134 149c-95 0 -143 -52 -143 -152v-197h-246z" />
    <glyph glyph-name="o" unicode="o" horiz-adv-x="837" 
d="M419 -19c-245 0 -404 104 -404 269s159 269 404 269c244 0 403 -104 403 -269s-159 -269 -403 -269zM419 128c88 0 148 49 148 122c0 74 -60 122 -148 122c-89 0 -149 -48 -149 -122c0 -73 60 -122 149 -122z" />
    <glyph glyph-name="p" unicode="p" horiz-adv-x="882" 
d="M69 -195v695h241v-77c59 66 149 96 249 96c186 0 307 -107 307 -262c0 -168 -129 -276 -314 -276c-108 0 -183 35 -237 90v-266h-246zM464 129c92 0 146 49 146 129c0 70 -54 115 -146 115s-154 -45 -154 -114v-3c0 -77 62 -127 154 -127z" />
    <glyph glyph-name="q" unicode="q" horiz-adv-x="882" 
d="M567 -195v268c-54 -56 -130 -92 -238 -92c-185 0 -313 108 -313 275c0 156 121 263 308 263c100 0 190 -30 248 -95v76h241v-695h-246zM417 129c91 0 146 48 146 126v5c0 68 -55 113 -146 113c-101 0 -155 -45 -155 -115c0 -79 62 -129 155 -129z" />
    <glyph glyph-name="r" unicode="r" horiz-adv-x="595" 
d="M283 350c28 98 110 161 231 161c33 0 46 -2 66 -4v-204c-29 5 -57 8 -88 8c-53 0 -99 -13 -125 -37c-34 -29 -52 -73 -52 -125v-149h-246v500h214v-150z" />
    <glyph glyph-name="s" unicode="s" horiz-adv-x="762" 
d="M403 -19c-178 0 -311 31 -403 96l101 113c74 -48 167 -73 324 -73c70 0 93 6 93 25c0 16 -11 22 -47 25l-204 20c-158 16 -228 67 -228 162c0 116 111 170 346 170c134 0 248 -18 343 -65l-75 -121c-80 37 -166 53 -289 53c-74 0 -102 -5 -102 -24c0 -14 11 -20 52 -24
l209 -19c156 -14 219 -58 219 -154c0 -122 -112 -184 -339 -184z" />
    <glyph glyph-name="t" unicode="t" horiz-adv-x="630" 
d="M-5 354v146h143v110l246 84v-194h212v-146h-212v-98c0 -62 36 -93 116 -93c45 0 78 6 94 11v-165c-35 -14 -84 -24 -165 -24c-166 0 -291 48 -291 219v150h-143z" />
    <glyph glyph-name="u" unicode="u" horiz-adv-x="883" 
d="M318 -19c-163 0 -263 88 -263 239v280h246v-213c0 -94 41 -141 124 -141c92 0 143 56 143 145v209h246v-500h-241v106c-45 -84 -144 -125 -255 -125z" />
    <glyph glyph-name="v" unicode="v" horiz-adv-x="824" 
d="M273 0l-282 500h266l119 -244c16 -31 22 -45 33 -71h6c11 26 18 40 33 71l119 244h267l-282 -500h-279z" />
    <glyph glyph-name="w" unicode="w" horiz-adv-x="1152" 
d="M208 0l-198 500h244l77 -260c4 -14 9 -34 14 -63h2c3 28 11 49 16 63l91 260h244l92 -260c5 -14 12 -35 16 -63h2c4 29 9 49 13 63l77 260h244l-197 -500h-262l-86 239c-10 25 -16 48 -19 70h-4c-3 -22 -9 -45 -18 -70l-87 -239h-261z" />
    <glyph glyph-name="x" unicode="x" horiz-adv-x="838" 
d="M0 0l250 255l-243 245h297l82 -90c9 -11 28 -34 35 -51h2c8 17 22 35 36 51l81 90h279l-235 -239l253 -261h-299l-97 101c-12 13 -27 33 -34 47h-2c-9 -14 -24 -34 -35 -47l-97 -101h-273z" />
    <glyph glyph-name="y" unicode="y" horiz-adv-x="809" 
d="M201 -214c-38 0 -111 2 -151 13v178c33 -6 73 -10 108 -10c39 0 107 5 131 27l1 2l-299 504h271l116 -249c16 -33 22 -44 31 -70h5c10 26 16 35 29 66l113 253h262l-280 -521c-72 -134 -165 -193 -337 -193z" />
    <glyph glyph-name="z" unicode="z" horiz-adv-x="740" 
d="M38 145l349 214h-338v141h648v-142l-343 -216h357v-142h-673v145z" />
    <glyph glyph-name="braceleft" unicode="{" horiz-adv-x="460" 
d="M311 -120c-146 0 -198 50 -198 164v131c0 52 -6 88 -98 90v128c93 2 98 31 98 86v123c0 96 64 161 194 161h143v-146h-63c-37 0 -55 -22 -55 -66v-72c0 -69 -19 -128 -112 -149c93 -25 112 -88 112 -156v-91c0 -43 19 -58 54 -58h64v-145h-139z" />
    <glyph glyph-name="bar" unicode="|" horiz-adv-x="281" 
d="M74 -117v877h133v-877h-133z" />
    <glyph glyph-name="braceright" unicode="}" horiz-adv-x="460" 
d="M149 -120h-139v145h64c35 0 54 15 54 58v91c0 68 19 131 112 156c-93 21 -112 80 -112 149v72c0 44 -18 66 -55 66h-63v146h143c130 0 194 -65 194 -161v-123c0 -55 5 -84 98 -86v-128c-92 -2 -98 -38 -98 -90v-131c0 -114 -52 -164 -198 -164z" />
    <glyph glyph-name="asciitilde" unicode="~" 
d="M518 209c-106 0 -142 59 -214 59c-46 0 -74 -23 -77 -64l-140 40c16 106 95 156 198 156c111 0 150 -59 217 -59c48 0 69 29 72 64l141 -26c-12 -123 -103 -170 -197 -170z" />
    <glyph glyph-name="uni00A0" unicode="&#xa0;" horiz-adv-x="387" 
 />
    <glyph glyph-name="exclamdown" unicode="&#xa1;" horiz-adv-x="428" 
d="M345 401h-262v179h262v-179zM106 326h216l28 -471h-272z" />
    <glyph glyph-name="cent" unicode="&#xa2;" horiz-adv-x="821" 
d="M452 129c69 9 109 39 121 89l233 -36c-28 -117 -163 -192 -354 -200v-89h-78v89c-223 11 -359 111 -359 269c0 157 135 255 359 266v77h78v-77c190 -8 324 -81 354 -196l-233 -32c-16 47 -58 78 -121 87v-247zM245 251c0 -65 50 -111 129 -122v248
c-79 -11 -129 -59 -129 -126z" />
    <glyph glyph-name="sterling" unicode="&#xa3;" horiz-adv-x="861" 
d="M621 236l239 -26c-23 -142 -131 -228 -285 -228c-106 0 -151 29 -272 29c-79 0 -169 -7 -255 -19l-39 108c93 24 137 74 137 156c0 16 -1 31 -3 45h-99v106h76c-4 20 -7 40 -7 63c0 153 137 247 354 247c214 0 337 -69 364 -204l-235 -38c-9 54 -54 84 -124 84
c-78 0 -119 -31 -119 -91c0 -22 3 -42 7 -61h218v-106h-196c1 -8 1 -16 1 -24c0 -52 -29 -94 -81 -112c31 6 54 9 78 9c50 0 89 -15 140 -15c56 0 92 27 101 77z" />
    <glyph glyph-name="currency" unicode="&#xa4;" horiz-adv-x="688" 
d="M654 303c0 -57 -20 -107 -56 -145l65 -57l-85 -81l-83 71c-42 -15 -92 -24 -147 -24c-63 0 -119 11 -166 32l-81 -71l-86 82l71 61c-29 37 -45 81 -45 132s16 96 45 132l-71 62l86 82l83 -71c46 20 102 31 164 31c60 0 113 -10 157 -28l82 69l86 -82l-67 -58
c31 -37 48 -84 48 -137zM348 203c78 0 130 39 130 100c0 59 -52 96 -130 96s-131 -37 -131 -96c0 -61 53 -100 131 -100z" />
    <glyph glyph-name="yen" unicode="&#xa5;" horiz-adv-x="952" 
d="M967 695l-331 -385h258v-76h-290v-53h290v-76h-290v-105h-255v105h-280v76h280v53h-280v76h248l-331 385h284l160 -199c14 -19 36 -52 49 -72h4c13 20 36 53 51 72l166 199h267z" />
    <glyph glyph-name="brokenbar" unicode="&#xa6;" horiz-adv-x="281" 
d="M207 760v-373h-133v373h133zM207 266v-383h-133v383h133z" />
    <glyph glyph-name="section" unicode="&#xa7;" horiz-adv-x="727" 
d="M629 211c42 -25 60 -65 60 -123c0 -127 -144 -209 -365 -209c-141 0 -267 33 -344 90l108 119c67 -44 162 -68 266 -68c72 0 101 12 101 41c0 26 -14 34 -65 39l-185 17c-136 12 -201 61 -201 151c0 53 31 95 91 124c-48 26 -71 67 -71 124c0 121 138 199 348 199
c118 0 233 -24 314 -65l-97 -120c-72 31 -156 48 -238 48c-66 0 -95 -11 -95 -35c0 -25 14 -34 54 -38l189 -17c152 -14 209 -55 209 -151c0 -53 -27 -95 -79 -126zM298 266l158 -15c21 10 30 23 30 43c0 27 -19 38 -84 45l-135 14c-29 -9 -43 -22 -43 -43
c0 -27 20 -39 74 -44z" />
    <glyph glyph-name="dieresis" unicode="&#xa8;" horiz-adv-x="600" 
d="M41 569v160h215v-160h-215zM377 569v160h215v-160h-215z" />
    <glyph glyph-name="copyright" unicode="&#xa9;" horiz-adv-x="920" 
d="M460 -25c-269 0 -445 146 -445 380c0 235 176 380 445 380s444 -145 444 -380c0 -234 -175 -380 -444 -380zM460 46c216 0 364 117 364 309s-148 309 -364 309s-365 -117 -365 -309s149 -309 365 -309zM468 138c-178 0 -271 90 -271 217c0 126 89 216 271 216
c156 0 244 -65 265 -161l-179 -25c-8 38 -36 67 -90 67c-56 0 -96 -39 -96 -97c0 -56 37 -96 96 -96c56 0 84 28 91 70l177 -28c-18 -91 -98 -163 -264 -163z" />
    <glyph glyph-name="ordfeminine" unicode="&#xaa;" horiz-adv-x="650" 
d="M220 296c-121 0 -185 42 -185 120c0 87 90 109 190 114l162 10v10c0 30 -24 41 -60 41c-37 0 -62 -13 -68 -35h-216c18 84 131 134 284 134c192 0 267 -60 267 -175v-108c0 -34 3 -75 6 -97h-203c-2 12 -5 42 -5 59c-17 -44 -87 -73 -172 -73zM297 397c57 0 94 25 94 63
v10l-96 -8c-39 -3 -57 -13 -57 -30c0 -21 22 -35 59 -35z" />
    <glyph glyph-name="guillemotleft" unicode="&#xab;" horiz-adv-x="863" 
d="M261 67l-242 210l247 205h221l-246 -204l243 -211h-223zM621 67l-242 210l247 205h221l-246 -204l243 -211h-223z" />
    <glyph glyph-name="logicalnot" unicode="&#xac;" 
d="M113 393h575v-276h-137v150h-438v126z" />
    <glyph glyph-name="registered" unicode="&#xae;" horiz-adv-x="920" 
d="M460 735c269 0 444 -145 444 -380c0 -234 -175 -380 -444 -380s-445 146 -445 380c0 235 176 380 445 380zM460 46c216 0 364 117 364 309s-148 309 -364 309s-365 -117 -365 -309s149 -309 365 -309zM727 426c0 -64 -36 -109 -97 -127l91 -143h-181l-69 123h-66v-123
h-162v406h320c104 0 164 -50 164 -136zM405 463v-88h100c34 0 52 15 52 46c0 27 -19 42 -51 42h-101z" />
    <glyph glyph-name="macron" unicode="&#xaf;" horiz-adv-x="600" 
d="M59 583v126h515v-126h-515z" />
    <glyph glyph-name="degree" unicode="&#xb0;" horiz-adv-x="526" 
d="M263 255c-140 0 -248 91 -248 232c0 140 108 230 248 230c141 0 249 -90 249 -230c0 -141 -108 -232 -249 -232zM263 367c73 0 125 47 125 120c0 71 -52 119 -125 119c-72 0 -124 -48 -124 -119c0 -73 52 -120 124 -120z" />
    <glyph glyph-name="plusminus" unicode="&#xb1;" 
d="M475 431h248v-139h-248v-148h-149v148h-247v139h247v149h149v-149zM79 0v121h644v-121h-644z" />
    <glyph glyph-name="acute" unicode="&#xb4;" horiz-adv-x="600" 
d="M41 569l163 161h237l-206 -161h-194z" />
    <glyph glyph-name="uni00B5" unicode="&#xb5;" horiz-adv-x="897" 
d="M582 500h246v-500h-241v106c-45 -84 -144 -125 -255 -125c-13 0 -25 1 -37 2v-178h-226v695h246v-213c0 -94 41 -141 124 -141c92 0 143 56 143 145v209z" />
    <glyph glyph-name="paragraph" unicode="&#xb6;" horiz-adv-x="861" 
d="M341 304c-199 0 -299 63 -299 207c0 136 106 209 327 209h465v-104h-114v-716h-113v716h-152v-716h-114v404z" />
    <glyph glyph-name="periodcentered" unicode="&#xb7;" horiz-adv-x="346" 
d="M296 428v-189h-246v189h246z" />
    <glyph glyph-name="cedilla" unicode="&#xb8;" horiz-adv-x="600" 
d="M153 1h106l-51 -62c25 12 53 17 85 17c90 0 144 -36 144 -99c0 -66 -70 -102 -195 -102c-81 0 -138 21 -170 55l108 37c16 -15 37 -23 63 -23c30 0 47 13 47 34c0 20 -17 32 -46 32c-20 0 -37 -5 -47 -16l-118 21z" />
    <glyph glyph-name="ordmasculine" unicode="&#xba;" horiz-adv-x="647" 
d="M324 296c-186 0 -306 75 -306 197c0 121 120 197 306 197c185 0 304 -76 304 -197c0 -122 -119 -197 -304 -197zM324 415c54 0 93 31 93 78c0 46 -39 77 -93 77c-56 0 -94 -31 -94 -77c0 -47 38 -78 94 -78z" />
    <glyph glyph-name="guillemotright" unicode="&#xbb;" horiz-adv-x="863" 
d="M242 67h-223l243 211l-246 204h221l247 -205zM602 67h-223l243 211l-246 204h221l247 -205z" />
    <glyph glyph-name="onequarter" unicode="&#xbc;" horiz-adv-x="1139" 
d="M118 -17l583 744h193l-583 -744h-193zM154 314v230c-21 -9 -59 -15 -100 -15h-33v116h20c62 0 104 21 130 65h118v-396h-135zM1125 78h-78v-78h-134v78h-300v85l272 233h162v-224h78v-94zM913 306l-149 -134h149v134z" />
    <glyph glyph-name="onehalf" unicode="&#xbd;" horiz-adv-x="1200" 
d="M118 -17l583 744h193l-583 -744h-193zM154 314v230c-21 -9 -59 -15 -100 -15h-33v116h20c62 0 104 21 130 65h118v-396h-135zM674 0v101c173 40 336 78 336 149c0 35 -35 57 -91 57c-58 0 -93 -27 -93 -72c0 -6 2 -16 4 -21l-145 15c-3 9 -4 15 -4 24
c0 90 101 157 239 157c148 0 237 -57 237 -152c0 -97 -106 -132 -206 -148h214v-110h-491z" />
    <glyph glyph-name="threequarters" unicode="&#xbe;" horiz-adv-x="1317" 
d="M296 -17l583 744h193l-583 -744h-193zM269 300c-148 0 -235 50 -247 143l139 14c14 -42 44 -57 108 -57c60 0 97 8 97 35c0 28 -25 33 -80 33h-68v87h70c46 0 68 9 68 32c0 28 -30 37 -86 37c-70 0 -98 -20 -106 -60l-136 18c9 88 94 142 244 142c137 0 226 -45 226 -122
c0 -48 -36 -81 -98 -85c77 -11 110 -39 110 -93c0 -75 -95 -124 -241 -124zM1303 78h-78v-78h-134v78h-300v85l272 233h162v-224h78v-94zM1091 306l-149 -134h149v134z" />
    <glyph glyph-name="questiondown" unicode="&#xbf;" horiz-adv-x="836" 
d="M558 580v-179h-260v179h260zM544 364v-23c0 -60 -13 -111 -95 -144l-99 -39c-55 -22 -76 -47 -76 -81c0 -45 45 -77 141 -77c87 0 151 30 151 99c0 16 -1 28 -4 39l250 -20c4 -13 5 -29 5 -42c0 -143 -161 -233 -402 -233c-225 0 -391 73 -391 217c0 86 53 138 135 173
l96 42c53 23 61 48 61 75v14h228z" />
    <glyph glyph-name="Agrave" unicode="&#xc0;" horiz-adv-x="1002" 
d="M601 760h-200l-186 123h237zM723 0l-55 135h-333l-55 -135h-275l330 710h332l330 -710h-274zM397 289h209l-50 123c-29 67 -45 107 -53 153h-3c-9 -46 -25 -86 -53 -153z" />
    <glyph glyph-name="Aacute" unicode="&#xc1;" horiz-adv-x="1002" 
d="M787 883l-186 -123h-200l149 123h237zM723 0l-55 135h-333l-55 -135h-275l330 710h332l330 -710h-274zM397 289h209l-50 123c-29 67 -45 107 -53 153h-3c-9 -46 -25 -86 -53 -153z" />
    <glyph glyph-name="Acircumflex" unicode="&#xc2;" horiz-adv-x="1002" 
d="M502 823l-81 -63h-195l151 123h250l152 -123h-196zM723 0l-55 135h-333l-55 -135h-275l330 710h332l330 -710h-274zM397 289h209l-50 123c-29 67 -45 107 -53 153h-3c-9 -46 -25 -86 -53 -153z" />
    <glyph glyph-name="Atilde" unicode="&#xc3;" horiz-adv-x="1002" 
d="M411 799c-34 0 -54 -14 -66 -55l-116 57c26 81 79 118 172 118c97 0 137 -44 195 -44c34 0 54 14 66 54l116 -56c-26 -82 -79 -118 -173 -118c-96 0 -136 44 -194 44zM723 0l-55 135h-333l-55 -135h-275l330 710h332l330 -710h-274zM397 289h209l-50 123
c-29 67 -45 107 -53 153h-3c-9 -46 -25 -86 -53 -153z" />
    <glyph glyph-name="Adieresis" unicode="&#xc4;" horiz-adv-x="1002" 
d="M441 883v-123h-215v123h215zM777 883v-123h-214v123h214zM723 0l-55 135h-333l-55 -135h-275l330 710h332l330 -710h-274zM397 289h209l-50 123c-29 67 -45 107 -53 153h-3c-9 -46 -25 -86 -53 -153z" />
    <glyph glyph-name="Aring" unicode="&#xc5;" horiz-adv-x="1002" 
d="M502 744c-98 0 -164 50 -164 126s66 126 164 126c99 0 165 -50 165 -126s-66 -126 -165 -126zM502 923c-37 0 -62 -22 -62 -53s25 -53 62 -53s62 22 62 53s-25 53 -62 53zM723 0l-55 135h-333l-55 -135h-275l330 710h332l330 -710h-274zM397 289h209l-50 123
c-29 67 -45 107 -53 153h-3c-9 -46 -25 -86 -53 -153z" />
    <glyph glyph-name="AE" unicode="&#xc6;" horiz-adv-x="1467" 
d="M921 172h492v-172h-748v135h-279l-91 -135h-287l533 710h865v-172h-485v-101h468v-158h-468v-107zM485 284h180v268z" />
    <glyph glyph-name="Ccedilla" unicode="&#xc7;" horiz-adv-x="971" 
d="M494 166c106 0 174 44 194 126l262 -58c-53 -152 -204 -245 -414 -258l-31 -37c25 12 53 17 85 17c90 0 144 -36 144 -99c0 -66 -70 -102 -195 -102c-81 0 -138 21 -170 55l108 37c16 -15 37 -23 63 -23c30 0 47 13 47 34c0 20 -17 32 -46 32c-20 0 -37 -5 -47 -16
l-118 21l57 82c-256 17 -418 158 -418 374c0 225 198 384 479 384c234 0 410 -102 458 -267l-265 -50c-21 83 -88 127 -193 127c-130 0 -209 -73 -209 -190c0 -118 78 -189 209 -189z" />
    <glyph glyph-name="Egrave" unicode="&#xc8;" horiz-adv-x="881" 
d="M560 760h-200l-186 123h237zM334 172h493v-172h-749v710h742v-172h-486v-101h469v-158h-469v-107z" />
    <glyph glyph-name="Eacute" unicode="&#xc9;" horiz-adv-x="881" 
d="M746 883l-186 -123h-200l149 123h237zM334 172h493v-172h-749v710h742v-172h-486v-101h469v-158h-469v-107z" />
    <glyph glyph-name="Ecircumflex" unicode="&#xca;" horiz-adv-x="881" 
d="M461 823l-81 -63h-195l151 123h250l152 -123h-196zM334 172h493v-172h-749v710h742v-172h-486v-101h469v-158h-469v-107z" />
    <glyph glyph-name="Edieresis" unicode="&#xcb;" horiz-adv-x="881" 
d="M400 883v-123h-215v123h215zM736 883v-123h-214v123h214zM334 172h493v-172h-749v710h742v-172h-486v-101h469v-158h-469v-107z" />
    <glyph glyph-name="Igrave" unicode="&#xcc;" horiz-adv-x="412" 
d="M306 760h-200l-139 123h219zM334 0h-256v710h256v-710z" />
    <glyph glyph-name="Iacute" unicode="&#xcd;" horiz-adv-x="412" 
d="M105 760l120 123h219l-139 -123h-200zM334 0h-256v710h256v-710z" />
    <glyph glyph-name="Icircumflex" unicode="&#xce;" horiz-adv-x="412" 
d="M380 760h-134l-39 75l-39 -75h-134l71 124h204zM334 0h-256v710h256v-710z" />
    <glyph glyph-name="Idieresis" unicode="&#xcf;" horiz-adv-x="412" 
d="M20 760v123h168v-123h-168zM224 760v123h168v-123h-168zM334 0h-256v710h256v-710z" />
    <glyph glyph-name="Eth" unicode="&#xd0;" horiz-adv-x="997" 
d="M555 710c266 0 426 -124 426 -343c0 -217 -173 -367 -432 -367h-471v295h-70v135h70v280h477zM507 166c127 0 204 76 204 196c0 116 -80 183 -198 183h-179v-115h209v-135h-209v-129h173z" />
    <glyph glyph-name="Ntilde" unicode="&#xd1;" horiz-adv-x="1009" 
d="M616 755c-96 0 -136 44 -194 44c-34 0 -54 -14 -66 -55l-116 57c26 81 79 118 172 118c97 0 137 -44 195 -44c34 0 54 14 66 54l116 -56c-26 -82 -79 -118 -173 -118zM78 0v710h265l291 -331c24 -31 45 -57 60 -88h5v110v309h231v-710h-250l-304 331
c-17 21 -51 65 -61 90h-5v-109v-312h-232z" />
    <glyph glyph-name="Ograve" unicode="&#xd2;" horiz-adv-x="994" 
d="M596 760h-200l-186 123h237zM497 -25c-295 0 -482 147 -482 380s187 380 482 380c294 0 481 -147 481 -380s-187 -380 -481 -380zM497 161c128 0 211 77 211 194s-83 195 -211 195s-212 -78 -212 -195s84 -194 212 -194z" />
    <glyph glyph-name="Oacute" unicode="&#xd3;" horiz-adv-x="994" 
d="M396 760l149 123h237l-186 -123h-200zM497 -25c-295 0 -482 147 -482 380s187 380 482 380c294 0 481 -147 481 -380s-187 -380 -481 -380zM497 161c128 0 211 77 211 194s-83 195 -211 195s-212 -78 -212 -195s84 -194 212 -194z" />
    <glyph glyph-name="Ocircumflex" unicode="&#xd4;" horiz-adv-x="994" 
d="M774 760h-196l-81 63l-81 -63h-195l151 123h250zM497 -25c-295 0 -482 147 -482 380s187 380 482 380c294 0 481 -147 481 -380s-187 -380 -481 -380zM497 161c128 0 211 77 211 194s-83 195 -211 195s-212 -78 -212 -195s84 -194 212 -194z" />
    <glyph glyph-name="Otilde" unicode="&#xd5;" horiz-adv-x="994" 
d="M600 755c-96 0 -136 44 -194 44c-34 0 -54 -14 -66 -55l-116 57c26 81 79 118 172 118c97 0 137 -44 195 -44c34 0 54 14 66 54l116 -56c-26 -82 -79 -118 -173 -118zM497 -25c-295 0 -482 147 -482 380s187 380 482 380c294 0 481 -147 481 -380s-187 -380 -481 -380z
M497 161c128 0 211 77 211 194s-83 195 -211 195s-212 -78 -212 -195s84 -194 212 -194z" />
    <glyph glyph-name="Odieresis" unicode="&#xd6;" horiz-adv-x="994" 
d="M221 760v123h215v-123h-215zM558 760v123h214v-123h-214zM497 -25c-295 0 -482 147 -482 380s187 380 482 380c294 0 481 -147 481 -380s-187 -380 -481 -380zM497 161c128 0 211 77 211 194s-83 195 -211 195s-212 -78 -212 -195s84 -194 212 -194z" />
    <glyph glyph-name="multiply" unicode="&#xd7;" 
d="M707 499l-204 -174l203 -174l-99 -90l-206 177l-206 -176l-100 88l204 174l-204 175l100 88l206 -176l205 176z" />
    <glyph glyph-name="Oslash" unicode="&#xd8;" horiz-adv-x="994" 
d="M857 624c78 -65 121 -157 121 -269c0 -233 -187 -380 -481 -380c-112 0 -209 21 -285 60l-75 -68l-70 57l68 62c-77 65 -120 157 -120 269c0 233 187 380 482 380c112 0 209 -21 285 -61l75 68l69 -55zM285 355c0 -41 10 -77 29 -106l301 273c-32 18 -72 28 -118 28
c-128 0 -212 -78 -212 -195zM497 161c128 0 211 77 211 194c0 41 -10 77 -29 107l-300 -274c33 -17 73 -27 118 -27z" />
    <glyph glyph-name="Ugrave" unicode="&#xd9;" horiz-adv-x="955" 
d="M577 760h-200l-186 123h237zM50 710h256v-366c0 -106 57 -172 172 -172c108 0 171 67 171 172v366h256v-397c0 -206 -151 -338 -427 -338s-428 134 -428 341v394z" />
    <glyph glyph-name="Uacute" unicode="&#xda;" horiz-adv-x="955" 
d="M377 760l149 123h237l-186 -123h-200zM50 710h256v-366c0 -106 57 -172 172 -172c108 0 171 67 171 172v366h256v-397c0 -206 -151 -338 -427 -338s-428 134 -428 341v394z" />
    <glyph glyph-name="Ucircumflex" unicode="&#xdb;" horiz-adv-x="955" 
d="M755 760h-196l-81 63l-81 -63h-195l151 123h250zM50 710h256v-366c0 -106 57 -172 172 -172c108 0 171 67 171 172v366h256v-397c0 -206 -151 -338 -427 -338s-428 134 -428 341v394z" />
    <glyph glyph-name="Udieresis" unicode="&#xdc;" horiz-adv-x="955" 
d="M202 760v123h215v-123h-215zM539 760v123h214v-123h-214zM50 710h256v-366c0 -106 57 -172 172 -172c108 0 171 67 171 172v366h256v-397c0 -206 -151 -338 -427 -338s-428 134 -428 341v394z" />
    <glyph glyph-name="Yacute" unicode="&#xdd;" horiz-adv-x="917" 
d="M362 760l149 123h237l-186 -123h-200zM331 0v234l-345 476h284l166 -259c19 -26 23 -35 26 -43h2c3 8 7 17 26 43l175 259h267l-345 -476v-234h-256z" />
    <glyph glyph-name="Thorn" unicode="&#xde;" horiz-adv-x="844" 
d="M522 614c193 0 312 -86 312 -251s-119 -252 -312 -252h-188v-111h-256v710h256v-96h188zM445 274c80 0 119 30 119 89c0 58 -39 88 -119 88h-111v-177h111z" />
    <glyph glyph-name="germandbls" unicode="&#xdf;" horiz-adv-x="916" 
d="M65 458c0 181 128 278 407 278c233 0 377 -68 377 -193c0 -93 -69 -150 -197 -161c152 -10 239 -76 239 -180c0 -140 -128 -217 -363 -217c-44 0 -86 3 -135 11v152c33 -5 63 -8 92 -8c93 0 146 26 146 79c0 52 -50 76 -159 76h-77v139h72c77 0 123 28 123 75
c0 51 -45 77 -131 77c-104 0 -148 -39 -148 -131v-455h-246v458z" />
    <glyph glyph-name="agrave" unicode="&#xe0;" horiz-adv-x="844" 
d="M533 569h-194l-206 161h237zM288 -19c-162 0 -250 57 -250 162c0 49 23 89 69 116c39 23 97 36 188 41l234 14v13c0 41 -40 59 -102 59c-65 0 -108 -22 -116 -60h-262c23 120 172 193 378 193c250 0 352 -79 352 -233v-144c0 -56 3 -109 7 -142h-244c-3 19 -6 59 -6 86
c-30 -65 -125 -105 -248 -105zM384 109c90 0 148 39 148 98v13l-150 -12c-64 -5 -90 -18 -90 -48c0 -32 34 -51 92 -51z" />
    <glyph glyph-name="aacute" unicode="&#xe1;" horiz-adv-x="844" 
d="M323 569l163 161h237l-206 -161h-194zM288 -19c-162 0 -250 57 -250 162c0 49 23 89 69 116c39 23 97 36 188 41l234 14v13c0 41 -40 59 -102 59c-65 0 -108 -22 -116 -60h-262c23 120 172 193 378 193c250 0 352 -79 352 -233v-144c0 -56 3 -109 7 -142h-244
c-3 19 -6 59 -6 86c-30 -65 -125 -105 -248 -105zM384 109c90 0 148 39 148 98v13l-150 -12c-64 -5 -90 -18 -90 -48c0 -32 34 -51 92 -51z" />
    <glyph glyph-name="acircumflex" unicode="&#xe2;" horiz-adv-x="844" 
d="M705 569h-186l-90 97l-90 -97h-186l151 161h250zM288 -19c-162 0 -250 57 -250 162c0 49 23 89 69 116c39 23 97 36 188 41l234 14v13c0 41 -40 59 -102 59c-65 0 -108 -22 -116 -60h-262c23 120 172 193 378 193c250 0 352 -79 352 -233v-144c0 -56 3 -109 7 -142h-244
c-3 19 -6 59 -6 86c-30 -65 -125 -105 -248 -105zM384 109c90 0 148 39 148 98v13l-150 -12c-64 -5 -90 -18 -90 -48c0 -32 34 -51 92 -51z" />
    <glyph glyph-name="atilde" unicode="&#xe3;" horiz-adv-x="844" 
d="M542 584c-101 0 -142 53 -203 53c-35 0 -53 -17 -66 -63l-121 56c22 88 75 128 164 128c101 0 143 -53 203 -53c34 0 54 15 66 63l121 -56c-21 -87 -74 -128 -164 -128zM288 -19c-162 0 -250 57 -250 162c0 49 23 89 69 116c39 23 97 36 188 41l234 14v13
c0 41 -40 59 -102 59c-65 0 -108 -22 -116 -60h-262c23 120 172 193 378 193c250 0 352 -79 352 -233v-144c0 -56 3 -109 7 -142h-244c-3 19 -6 59 -6 86c-30 -65 -125 -105 -248 -105zM384 109c90 0 148 39 148 98v13l-150 -12c-64 -5 -90 -18 -90 -48c0 -32 34 -51 92 -51
z" />
    <glyph glyph-name="adieresis" unicode="&#xe4;" horiz-adv-x="844" 
d="M153 569v160h215v-160h-215zM489 569v160h215v-160h-215zM288 -19c-162 0 -250 57 -250 162c0 49 23 89 69 116c39 23 97 36 188 41l234 14v13c0 41 -40 59 -102 59c-65 0 -108 -22 -116 -60h-262c23 120 172 193 378 193c250 0 352 -79 352 -233v-144
c0 -56 3 -109 7 -142h-244c-3 19 -6 59 -6 86c-30 -65 -125 -105 -248 -105zM384 109c90 0 148 39 148 98v13l-150 -12c-64 -5 -90 -18 -90 -48c0 -32 34 -51 92 -51z" />
    <glyph glyph-name="aring" unicode="&#xe5;" horiz-adv-x="844" 
d="M429 557c-130 0 -200 53 -200 130c0 78 70 131 200 131s199 -53 199 -131c0 -77 -69 -130 -199 -130zM429 633c56 0 84 22 84 54s-28 54 -84 54c-57 0 -84 -22 -84 -54s27 -54 84 -54zM288 -19c-162 0 -250 57 -250 162c0 49 23 89 69 116c39 23 97 36 188 41l234 14v13
c0 41 -40 59 -102 59c-65 0 -108 -22 -116 -60h-262c23 120 172 193 378 193c250 0 352 -79 352 -233v-144c0 -56 3 -109 7 -142h-244c-3 19 -6 59 -6 86c-30 -65 -125 -105 -248 -105zM384 109c90 0 148 39 148 98v13l-150 -12c-64 -5 -90 -18 -90 -48c0 -32 34 -51 92 -51
z" />
    <glyph glyph-name="ae" unicode="&#xe6;" horiz-adv-x="1263" 
d="M1247 225v-24h-492c15 -48 67 -75 145 -75c53 0 108 23 140 58l183 -79c-70 -81 -187 -124 -334 -124c-137 0 -240 35 -302 99c-58 -68 -148 -99 -279 -99c-172 0 -270 58 -270 158c0 96 89 151 255 159l217 10v5c0 46 -35 72 -95 72c-61 0 -103 -22 -108 -58h-258
c15 115 163 192 368 192c102 0 178 -18 229 -54c61 35 142 54 238 54c230 0 363 -108 363 -294zM752 316h253c-9 46 -52 80 -122 80c-78 0 -121 -27 -131 -80zM514 203v16l-144 -7c-50 -2 -78 -22 -78 -53c0 -32 33 -50 92 -50c80 0 130 35 130 94z" />
    <glyph glyph-name="ccedilla" unicode="&#xe7;" horiz-adv-x="822" 
d="M411 138c77 0 125 29 137 80l259 -37c-28 -115 -160 -189 -347 -199l-35 -43c25 12 53 17 85 17c90 0 144 -36 144 -99c0 -66 -70 -102 -195 -102c-81 0 -138 21 -170 55l108 37c16 -15 37 -23 63 -23c30 0 47 13 47 34c0 20 -17 32 -46 32c-20 0 -37 -5 -47 -16l-118 21
l62 88c-213 16 -343 117 -343 271c0 166 151 265 403 265c210 0 357 -75 389 -198l-259 -32c-15 45 -66 75 -137 75c-85 0 -140 -44 -140 -110c0 -68 58 -116 140 -116z" />
    <glyph glyph-name="egrave" unicode="&#xe8;" horiz-adv-x="796" 
d="M501 569h-194l-206 161h237zM780 223v-22h-530c18 -48 77 -75 163 -75c63 0 128 24 159 58l184 -79c-71 -78 -193 -124 -354 -124c-244 0 -387 99 -387 269c0 165 149 269 383 269c246 0 382 -111 382 -296zM248 316h290c-3 42 -55 80 -141 80c-85 0 -136 -31 -149 -80z
" />
    <glyph glyph-name="eacute" unicode="&#xe9;" horiz-adv-x="796" 
d="M691 730l-206 -161h-194l163 161h237zM780 223v-22h-530c18 -48 77 -75 163 -75c63 0 128 24 159 58l184 -79c-71 -78 -193 -124 -354 -124c-244 0 -387 99 -387 269c0 165 149 269 383 269c246 0 382 -111 382 -296zM248 316h290c-3 42 -55 80 -141 80
c-85 0 -136 -31 -149 -80z" />
    <glyph glyph-name="ecircumflex" unicode="&#xea;" horiz-adv-x="796" 
d="M397 666l-90 -97h-186l151 161h250l151 -161h-186zM780 223v-22h-530c18 -48 77 -75 163 -75c63 0 128 24 159 58l184 -79c-71 -78 -193 -124 -354 -124c-244 0 -387 99 -387 269c0 165 149 269 383 269c246 0 382 -111 382 -296zM248 316h290c-3 42 -55 80 -141 80
c-85 0 -136 -31 -149 -80z" />
    <glyph glyph-name="edieresis" unicode="&#xeb;" horiz-adv-x="796" 
d="M336 729v-160h-215v160h215zM672 729v-160h-215v160h215zM780 223v-22h-530c18 -48 77 -75 163 -75c63 0 128 24 159 58l184 -79c-71 -78 -193 -124 -354 -124c-244 0 -387 99 -387 269c0 165 149 269 383 269c246 0 382 -111 382 -296zM248 316h290
c-3 42 -55 80 -141 80c-85 0 -136 -31 -149 -80z" />
    <glyph glyph-name="igrave" unicode="&#xec;" horiz-adv-x="384" 
d="M288 569h-194l-139 161h218zM69 0v500h246v-500h-246z" />
    <glyph glyph-name="iacute" unicode="&#xed;" horiz-adv-x="384" 
d="M95 569l115 161h218l-139 -161h-194zM69 0v500h246v-500h-246z" />
    <glyph glyph-name="icircumflex" unicode="&#xee;" horiz-adv-x="384" 
d="M368 569h-133l-43 106l-42 -106h-133l76 161h199zM69 0v500h246v-500h-246z" />
    <glyph glyph-name="idieresis" unicode="&#xef;" horiz-adv-x="384" 
d="M-8 569v160h177v-160h-177zM214 569v160h177v-160h-177zM69 0v500h246v-500h-246z" />
    <glyph glyph-name="eth" unicode="&#xf0;" horiz-adv-x="857" 
d="M693 639c82 -83 137 -190 137 -330c0 -189 -151 -328 -426 -328c-284 0 -388 108 -388 261c0 140 118 250 313 250c124 0 200 -42 248 -91h2c-15 64 -59 116 -118 161l-107 -36l-23 48l76 25c-28 17 -58 33 -88 48l241 93c31 -18 60 -38 88 -60l94 31l22 -48zM424 138
c101 0 153 46 153 106c0 58 -52 106 -153 106c-103 0 -153 -48 -153 -106c0 -59 50 -106 153 -106z" />
    <glyph glyph-name="ntilde" unicode="&#xf1;" horiz-adv-x="893" 
d="M614 584c-101 0 -142 53 -203 53c-35 0 -53 -17 -66 -63l-121 56c22 88 75 128 164 128c101 0 143 -53 203 -53c34 0 54 15 66 63l121 -56c-21 -87 -74 -128 -164 -128zM69 0v500h242v-112c43 84 133 131 253 131c179 0 274 -99 274 -287v-232h-246v200
c0 101 -42 149 -134 149c-95 0 -143 -52 -143 -152v-197h-246z" />
    <glyph glyph-name="ograve" unicode="&#xf2;" horiz-adv-x="837" 
d="M523 569h-194l-206 161h237zM419 -19c-245 0 -404 104 -404 269s159 269 404 269c244 0 403 -104 403 -269s-159 -269 -403 -269zM419 128c88 0 148 49 148 122c0 74 -60 122 -148 122c-89 0 -149 -48 -149 -122c0 -73 60 -122 149 -122z" />
    <glyph glyph-name="oacute" unicode="&#xf3;" horiz-adv-x="837" 
d="M313 569l163 161h237l-206 -161h-194zM419 -19c-245 0 -404 104 -404 269s159 269 404 269c244 0 403 -104 403 -269s-159 -269 -403 -269zM419 128c88 0 148 49 148 122c0 74 -60 122 -148 122c-89 0 -149 -48 -149 -122c0 -73 60 -122 149 -122z" />
    <glyph glyph-name="ocircumflex" unicode="&#xf4;" horiz-adv-x="837" 
d="M695 569h-186l-90 97l-90 -97h-186l151 161h250zM419 -19c-245 0 -404 104 -404 269s159 269 404 269c244 0 403 -104 403 -269s-159 -269 -403 -269zM419 128c88 0 148 49 148 122c0 74 -60 122 -148 122c-89 0 -149 -48 -149 -122c0 -73 60 -122 149 -122z" />
    <glyph glyph-name="otilde" unicode="&#xf5;" horiz-adv-x="837" 
d="M532 584c-101 0 -142 53 -203 53c-35 0 -53 -17 -66 -63l-121 56c22 88 75 128 164 128c101 0 143 -53 203 -53c34 0 54 15 66 63l121 -56c-21 -87 -74 -128 -164 -128zM419 -19c-245 0 -404 104 -404 269s159 269 404 269c244 0 403 -104 403 -269s-159 -269 -403 -269z
M419 128c88 0 148 49 148 122c0 74 -60 122 -148 122c-89 0 -149 -48 -149 -122c0 -73 60 -122 149 -122z" />
    <glyph glyph-name="odieresis" unicode="&#xf6;" horiz-adv-x="837" 
d="M143 569v160h215v-160h-215zM479 569v160h215v-160h-215zM419 -19c-245 0 -404 104 -404 269s159 269 404 269c244 0 403 -104 403 -269s-159 -269 -403 -269zM419 128c88 0 148 49 148 122c0 74 -60 122 -148 122c-89 0 -149 -48 -149 -122c0 -73 60 -122 149 -122z" />
    <glyph glyph-name="divide" unicode="&#xf7;" horiz-adv-x="724" 
d="M361 441c-52 0 -91 37 -91 90c0 54 39 91 91 91s92 -36 92 -91c0 -52 -40 -90 -92 -90zM40 259v139h644v-139h-644zM361 31c-52 0 -91 37 -91 90c0 54 39 91 91 91s92 -36 92 -91c0 -52 -40 -90 -92 -90z" />
    <glyph glyph-name="oslash" unicode="&#xf8;" horiz-adv-x="837" 
d="M735 430c56 -46 87 -107 87 -180c0 -165 -159 -269 -403 -269c-97 0 -180 16 -246 46l-89 -64l-55 51l76 54c-58 46 -90 108 -90 182c0 165 159 269 404 269c98 0 182 -17 247 -47l91 65l52 -54zM270 250c0 -20 4 -38 13 -54l219 158c-23 12 -51 18 -83 18
c-89 0 -149 -48 -149 -122zM419 128c88 0 148 49 148 122c0 19 -4 36 -11 51l-218 -156c22 -11 50 -17 81 -17z" />
    <glyph glyph-name="ugrave" unicode="&#xf9;" horiz-adv-x="883" 
d="M534 569h-194l-206 161h237zM318 -19c-163 0 -263 88 -263 239v280h246v-213c0 -94 41 -141 124 -141c92 0 143 56 143 145v209h246v-500h-241v106c-45 -84 -144 -125 -255 -125z" />
    <glyph glyph-name="uacute" unicode="&#xfa;" horiz-adv-x="883" 
d="M324 569l163 161h237l-206 -161h-194zM318 -19c-163 0 -263 88 -263 239v280h246v-213c0 -94 41 -141 124 -141c92 0 143 56 143 145v209h246v-500h-241v106c-45 -84 -144 -125 -255 -125z" />
    <glyph glyph-name="ucircumflex" unicode="&#xfb;" horiz-adv-x="883" 
d="M706 569h-186l-90 97l-90 -97h-186l151 161h250zM318 -19c-163 0 -263 88 -263 239v280h246v-213c0 -94 41 -141 124 -141c92 0 143 56 143 145v209h246v-500h-241v106c-45 -84 -144 -125 -255 -125z" />
    <glyph glyph-name="udieresis" unicode="&#xfc;" horiz-adv-x="883" 
d="M154 569v160h215v-160h-215zM490 569v160h215v-160h-215zM318 -19c-163 0 -263 88 -263 239v280h246v-213c0 -94 41 -141 124 -141c92 0 143 56 143 145v209h246v-500h-241v106c-45 -84 -144 -125 -255 -125z" />
    <glyph glyph-name="yacute" unicode="&#xfd;" horiz-adv-x="809" 
d="M300 569l163 161h237l-206 -161h-194zM201 -214c-38 0 -111 2 -151 13v178c33 -6 73 -10 108 -10c39 0 107 5 131 27l1 2l-299 504h271l116 -249c16 -33 22 -44 31 -70h5c10 26 16 35 29 66l113 253h262l-280 -521c-72 -134 -165 -193 -337 -193z" />
    <glyph glyph-name="thorn" unicode="&#xfe;" horiz-adv-x="887" 
d="M74 -195v920h246v-300c55 61 142 94 246 94c182 0 305 -107 305 -266c0 -164 -126 -272 -314 -272c-99 0 -178 30 -237 91v-267h-246zM470 129c91 0 145 47 145 125c0 74 -55 119 -146 119c-93 0 -154 -47 -154 -117v-4c0 -74 62 -123 155 -123z" />
    <glyph glyph-name="ydieresis" unicode="&#xff;" horiz-adv-x="809" 
d="M130 569v160h215v-160h-215zM466 569v160h215v-160h-215zM201 -214c-38 0 -111 2 -151 13v178c33 -6 73 -10 108 -10c39 0 107 5 131 27l1 2l-299 504h271l116 -249c16 -33 22 -44 31 -70h5c10 26 16 35 29 66l113 253h262l-280 -521c-72 -134 -165 -193 -337 -193z" />
    <glyph glyph-name="Amacron" unicode="&#x100;" horiz-adv-x="1002" 
d="M765 883v-123h-526v123h526zM723 0l-55 135h-333l-55 -135h-275l330 710h332l330 -710h-274zM397 289h209l-50 123c-29 67 -45 107 -53 153h-3c-9 -46 -25 -86 -53 -153z" />
    <glyph glyph-name="amacron" unicode="&#x101;" horiz-adv-x="844" 
d="M171 583v126h515v-126h-515zM288 -19c-162 0 -250 57 -250 162c0 49 23 89 69 116c39 23 97 36 188 41l234 14v13c0 41 -40 59 -102 59c-65 0 -108 -22 -116 -60h-262c23 120 172 193 378 193c250 0 352 -79 352 -233v-144c0 -56 3 -109 7 -142h-244c-3 19 -6 59 -6 86
c-30 -65 -125 -105 -248 -105zM384 109c90 0 148 39 148 98v13l-150 -12c-64 -5 -90 -18 -90 -48c0 -32 34 -51 92 -51z" />
    <glyph glyph-name="Abreve" unicode="&#x102;" horiz-adv-x="1002" 
d="M502 755c-138 0 -228 46 -238 128h149c9 -26 36 -38 89 -38s80 12 88 38h149c-10 -82 -99 -128 -237 -128zM723 0l-55 135h-333l-55 -135h-275l330 710h332l330 -710h-274zM397 289h209l-50 123c-29 67 -45 107 -53 153h-3c-9 -46 -25 -86 -53 -153z" />
    <glyph glyph-name="abreve" unicode="&#x103;" horiz-adv-x="844" 
d="M350 730c7 -45 31 -67 79 -67s73 22 79 67h158c-9 -114 -100 -166 -237 -166s-228 52 -237 166h158zM288 -19c-162 0 -250 57 -250 162c0 49 23 89 69 116c39 23 97 36 188 41l234 14v13c0 41 -40 59 -102 59c-65 0 -108 -22 -116 -60h-262c23 120 172 193 378 193
c250 0 352 -79 352 -233v-144c0 -56 3 -109 7 -142h-244c-3 19 -6 59 -6 86c-30 -65 -125 -105 -248 -105zM384 109c90 0 148 39 148 98v13l-150 -12c-64 -5 -90 -18 -90 -48c0 -32 34 -51 92 -51z" />
    <glyph glyph-name="Aogonek" unicode="&#x104;" horiz-adv-x="1002" 
d="M867 -83l144 -16c-7 -70 -84 -113 -205 -113c-120 0 -189 39 -189 107c0 47 30 83 106 105l-55 135h-333l-55 -135h-275l330 710h332l330 -710h-74c-112 -8 -146 -47 -146 -83c0 -22 19 -39 43 -39c26 0 43 13 47 39zM397 289h209l-50 123c-29 67 -45 107 -53 153h-3
c-9 -46 -25 -86 -53 -153z" />
    <glyph glyph-name="aogonek" unicode="&#x105;" horiz-adv-x="844" 
d="M686 -83l144 -16c-7 -70 -84 -113 -205 -113c-120 0 -189 39 -189 107c0 47 30 83 106 105c-3 19 -6 59 -6 86c-30 -65 -125 -105 -248 -105c-162 0 -250 57 -250 162c0 49 23 89 69 116c39 23 97 36 188 41l234 14v13c0 41 -40 59 -102 59c-65 0 -108 -22 -116 -60h-262
c23 120 172 193 378 193c250 0 352 -79 352 -233v-144c0 -56 3 -109 7 -142h-44c-112 -8 -146 -47 -146 -83c0 -22 19 -39 43 -39c26 0 43 13 47 39zM532 207v13l-150 -12c-64 -5 -90 -18 -90 -48c0 -32 34 -51 92 -51c90 0 148 39 148 98z" />
    <glyph glyph-name="Cacute" unicode="&#x106;" horiz-adv-x="971" 
d="M392 760l149 123h237l-186 -123h-200zM486 -25c-287 0 -471 146 -471 376c0 225 198 384 479 384c234 0 410 -102 458 -267l-265 -50c-21 83 -88 127 -193 127c-130 0 -209 -73 -209 -190c0 -118 78 -189 209 -189c106 0 174 44 194 126l262 -58
c-57 -164 -228 -259 -464 -259z" />
    <glyph glyph-name="cacute" unicode="&#x107;" horiz-adv-x="822" 
d="M309 569l163 161h237l-206 -161h-194zM418 -19c-248 0 -403 105 -403 273c0 166 151 265 403 265c210 0 357 -75 389 -198l-259 -32c-15 45 -66 75 -137 75c-85 0 -140 -44 -140 -110c0 -68 58 -116 140 -116c77 0 125 29 137 80l259 -37c-30 -123 -180 -200 -389 -200z
" />
    <glyph glyph-name="Ccircumflex" unicode="&#x108;" horiz-adv-x="971" 
d="M770 760h-196l-81 63l-81 -63h-195l151 123h250zM486 -25c-287 0 -471 146 -471 376c0 225 198 384 479 384c234 0 410 -102 458 -267l-265 -50c-21 83 -88 127 -193 127c-130 0 -209 -73 -209 -190c0 -118 78 -189 209 -189c106 0 174 44 194 126l262 -58
c-57 -164 -228 -259 -464 -259z" />
    <glyph glyph-name="ccircumflex" unicode="&#x109;" horiz-adv-x="822" 
d="M691 569h-186l-90 97l-90 -97h-186l151 161h250zM418 -19c-248 0 -403 105 -403 273c0 166 151 265 403 265c210 0 357 -75 389 -198l-259 -32c-15 45 -66 75 -137 75c-85 0 -140 -44 -140 -110c0 -68 58 -116 140 -116c77 0 125 29 137 80l259 -37
c-30 -123 -180 -200 -389 -200z" />
    <glyph glyph-name="Cdotaccent" unicode="&#x10a;" horiz-adv-x="971" 
d="M366 760v123h253v-123h-253zM486 -25c-287 0 -471 146 -471 376c0 225 198 384 479 384c234 0 410 -102 458 -267l-265 -50c-21 83 -88 127 -193 127c-130 0 -209 -73 -209 -190c0 -118 78 -189 209 -189c106 0 174 44 194 126l262 -58c-57 -164 -228 -259 -464 -259z
" />
    <glyph glyph-name="cdotaccent" unicode="&#x10b;" horiz-adv-x="822" 
d="M288 564v174h254v-174h-254zM418 -19c-248 0 -403 105 -403 273c0 166 151 265 403 265c210 0 357 -75 389 -198l-259 -32c-15 45 -66 75 -137 75c-85 0 -140 -44 -140 -110c0 -68 58 -116 140 -116c77 0 125 29 137 80l259 -37c-30 -123 -180 -200 -389 -200z" />
    <glyph glyph-name="Ccaron" unicode="&#x10c;" horiz-adv-x="971" 
d="M770 879l-152 -123h-250l-151 123h195l81 -63l81 63h196zM486 -25c-287 0 -471 146 -471 376c0 225 198 384 479 384c234 0 410 -102 458 -267l-265 -50c-21 83 -88 127 -193 127c-130 0 -209 -73 -209 -190c0 -118 78 -189 209 -189c106 0 174 44 194 126l262 -58
c-57 -164 -228 -259 -464 -259z" />
    <glyph glyph-name="ccaron" unicode="&#x10d;" horiz-adv-x="822" 
d="M139 726h186l90 -97l90 97h186l-151 -161h-250zM418 -19c-248 0 -403 105 -403 273c0 166 151 265 403 265c210 0 357 -75 389 -198l-259 -32c-15 45 -66 75 -137 75c-85 0 -140 -44 -140 -110c0 -68 58 -116 140 -116c77 0 125 29 137 80l259 -37
c-30 -123 -180 -200 -389 -200z" />
    <glyph glyph-name="Dcaron" unicode="&#x10e;" horiz-adv-x="997" 
d="M776 879l-152 -123h-250l-151 123h195l81 -63l81 63h196zM78 0v710h477c266 0 426 -124 426 -343c0 -217 -173 -367 -432 -367h-471zM334 166h173c127 0 204 76 204 196c0 116 -80 183 -198 183h-179v-379z" />
    <glyph glyph-name="dcaron" unicode="&#x10f;" horiz-adv-x="1044" 
d="M321 -19c-181 0 -305 108 -305 273c0 158 126 265 313 265c107 0 181 -28 238 -80v286h246v-725h-239v95c-51 -71 -139 -114 -253 -114zM922 514l-27 63c47 1 64 9 68 25h-109v108h219v-70c0 -67 -38 -121 -151 -126zM418 129c90 0 154 48 154 120v8
c0 70 -64 116 -155 116s-146 -46 -146 -119c0 -76 57 -125 147 -125z" />
    <glyph glyph-name="Dcroat" unicode="&#x110;" horiz-adv-x="997" 
d="M555 710c266 0 426 -124 426 -343c0 -217 -173 -367 -432 -367h-471v295h-70v135h70v280h477zM507 166c127 0 204 76 204 196c0 116 -80 183 -198 183h-179v-115h209v-135h-209v-129h173z" />
    <glyph glyph-name="dcroat" unicode="&#x111;" horiz-adv-x="887" 
d="M906 666v-105h-93v-561h-239v95c-51 -71 -139 -114 -253 -114c-181 0 -305 108 -305 273c0 158 126 265 313 265c107 0 181 -28 238 -80v122h-238v105h238v59h246v-59h93zM572 249v8c0 70 -64 116 -155 116s-146 -46 -146 -119c0 -76 57 -125 147 -125s154 48 154 120z
" />
    <glyph glyph-name="Emacron" unicode="&#x112;" horiz-adv-x="881" 
d="M724 883v-123h-526v123h526zM334 172h493v-172h-749v710h742v-172h-486v-101h469v-158h-469v-107z" />
    <glyph glyph-name="emacron" unicode="&#x113;" horiz-adv-x="796" 
d="M654 709v-126h-515v126h515zM780 223v-22h-530c18 -48 77 -75 163 -75c63 0 128 24 159 58l184 -79c-71 -78 -193 -124 -354 -124c-244 0 -387 99 -387 269c0 165 149 269 383 269c246 0 382 -111 382 -296zM248 316h290c-3 42 -55 80 -141 80c-85 0 -136 -31 -149 -80z
" />
    <glyph glyph-name="Ebreve" unicode="&#x114;" horiz-adv-x="881" 
d="M461 755c-138 0 -228 46 -238 128h149c9 -26 36 -38 89 -38s80 12 88 38h149c-10 -82 -99 -128 -237 -128zM334 172h493v-172h-749v710h742v-172h-486v-101h469v-158h-469v-107z" />
    <glyph glyph-name="ebreve" unicode="&#x115;" horiz-adv-x="796" 
d="M397 564c-137 0 -228 52 -237 166h158c7 -45 31 -67 79 -67s73 22 79 67h158c-9 -114 -100 -166 -237 -166zM780 223v-22h-530c18 -48 77 -75 163 -75c63 0 128 24 159 58l184 -79c-71 -78 -193 -124 -354 -124c-244 0 -387 99 -387 269c0 165 149 269 383 269
c246 0 382 -111 382 -296zM248 316h290c-3 42 -55 80 -141 80c-85 0 -136 -31 -149 -80z" />
    <glyph glyph-name="Edotaccent" unicode="&#x116;" horiz-adv-x="881" 
d="M587 883v-123h-253v123h253zM334 172h493v-172h-749v710h742v-172h-486v-101h469v-158h-469v-107z" />
    <glyph glyph-name="edotaccent" unicode="&#x117;" horiz-adv-x="796" 
d="M524 738v-174h-254v174h254zM780 223v-22h-530c18 -48 77 -75 163 -75c63 0 128 24 159 58l184 -79c-71 -78 -193 -124 -354 -124c-244 0 -387 99 -387 269c0 165 149 269 383 269c246 0 382 -111 382 -296zM248 316h290c-3 42 -55 80 -141 80c-85 0 -136 -31 -149 -80z
" />
    <glyph glyph-name="Eogonek" unicode="&#x118;" horiz-adv-x="881" 
d="M772 -83l144 -16c-7 -70 -84 -113 -205 -113c-120 0 -189 39 -189 107c0 47 30 83 106 105h-550v710h742v-172h-486v-101h469v-158h-469v-107h493v-172h1c-112 -8 -146 -47 -146 -83c0 -22 19 -39 43 -39c26 0 43 13 47 39z" />
    <glyph glyph-name="eogonek" unicode="&#x119;" horiz-adv-x="796" 
d="M780 223v-22h-530c18 -48 77 -75 163 -75c63 0 128 24 159 58l184 -79c-56 -62 -145 -104 -260 -118c-34 -17 -46 -39 -46 -61s19 -39 43 -39c26 0 43 13 47 39l144 -16c-7 -70 -84 -113 -205 -113c-120 0 -189 39 -189 107c0 32 14 59 46 80c-203 16 -321 112 -321 266
c0 165 149 269 383 269c246 0 382 -111 382 -296zM248 316h290c-3 42 -55 80 -141 80c-85 0 -136 -31 -149 -80z" />
    <glyph glyph-name="Ecaron" unicode="&#x11a;" horiz-adv-x="881" 
d="M586 756h-250l-151 123h195l81 -63l81 63h196zM334 172h493v-172h-749v710h742v-172h-486v-101h469v-158h-469v-107z" />
    <glyph glyph-name="ecaron" unicode="&#x11b;" horiz-adv-x="796" 
d="M522 565h-250l-151 161h186l90 -97l90 97h186zM780 223v-22h-530c18 -48 77 -75 163 -75c63 0 128 24 159 58l184 -79c-71 -78 -193 -124 -354 -124c-244 0 -387 99 -387 269c0 165 149 269 383 269c246 0 382 -111 382 -296zM248 316h290c-3 42 -55 80 -141 80
c-85 0 -136 -31 -149 -80z" />
    <glyph glyph-name="Gcircumflex" unicode="&#x11c;" horiz-adv-x="980" 
d="M774 760h-196l-81 63l-81 -63h-195l151 123h250zM420 -25c-257 0 -405 159 -405 368c0 221 181 392 478 392c227 0 400 -87 442 -233l-278 -45c-23 55 -72 98 -169 98c-134 0 -203 -81 -203 -209c0 -119 71 -199 205 -199c128 0 195 59 203 112v1h-234v149h474v-409h-195
l-9 118c-34 -62 -122 -143 -309 -143z" />
    <glyph glyph-name="gcircumflex" unicode="&#x11d;" horiz-adv-x="851" 
d="M400 679l-90 -72h-186l151 123h250l151 -123h-186zM832 452c-22 5 -44 8 -70 8c-22 0 -40 -2 -55 -6c38 -27 57 -62 57 -104c0 -111 -131 -175 -359 -175c-63 0 -118 5 -166 14c-9 -4 -14 -10 -14 -20c0 -16 14 -25 46 -25l331 -2c161 -1 229 -49 229 -155
c0 -140 -137 -201 -455 -201c-241 0 -352 34 -352 111c0 40 31 67 93 80c-54 20 -91 57 -91 103c0 65 53 111 146 128c-81 29 -125 78 -125 142c0 109 127 169 358 169c80 0 147 -7 201 -21c20 67 83 102 174 102c18 0 35 -2 52 -5v-143zM405 279c70 0 108 26 108 71
c0 43 -37 65 -108 65c-70 0 -107 -22 -107 -65c0 -45 38 -71 107 -71zM578 -38h-368h-2c-6 -7 -8 -14 -8 -22c0 -48 61 -62 201 -62c190 0 228 10 228 51c0 20 -15 33 -51 33z" />
    <glyph glyph-name="Gbreve" unicode="&#x11e;" horiz-adv-x="980" 
d="M408 883c9 -26 36 -38 89 -38s80 12 88 38h149c-10 -82 -99 -128 -237 -128s-228 46 -238 128h149zM420 -25c-257 0 -405 159 -405 368c0 221 181 392 478 392c227 0 400 -87 442 -233l-278 -45c-23 55 -72 98 -169 98c-134 0 -203 -81 -203 -209
c0 -119 71 -199 205 -199c128 0 195 59 203 112v1h-234v149h474v-409h-195l-9 118c-34 -62 -122 -143 -309 -143z" />
    <glyph glyph-name="gbreve" unicode="&#x11f;" horiz-adv-x="851" 
d="M400 564c-137 0 -228 52 -237 166h158c7 -45 31 -67 79 -67s73 22 79 67h158c-9 -114 -100 -166 -237 -166zM832 452c-22 5 -44 8 -70 8c-22 0 -40 -2 -55 -6c38 -27 57 -62 57 -104c0 -111 -131 -175 -359 -175c-63 0 -118 5 -166 14c-9 -4 -14 -10 -14 -20
c0 -16 14 -25 46 -25l331 -2c161 -1 229 -49 229 -155c0 -140 -137 -201 -455 -201c-241 0 -352 34 -352 111c0 40 31 67 93 80c-54 20 -91 57 -91 103c0 65 53 111 146 128c-81 29 -125 78 -125 142c0 109 127 169 358 169c80 0 147 -7 201 -21c20 67 83 102 174 102
c18 0 35 -2 52 -5v-143zM405 279c70 0 108 26 108 71c0 43 -37 65 -108 65c-70 0 -107 -22 -107 -65c0 -45 38 -71 107 -71zM578 -38h-368h-2c-6 -7 -8 -14 -8 -22c0 -48 61 -62 201 -62c190 0 228 10 228 51c0 20 -15 33 -51 33z" />
    <glyph glyph-name="Gdotaccent" unicode="&#x120;" horiz-adv-x="980" 
d="M370 760v123h253v-123h-253zM420 -25c-257 0 -405 159 -405 368c0 221 181 392 478 392c227 0 400 -87 442 -233l-278 -45c-23 55 -72 98 -169 98c-134 0 -203 -81 -203 -209c0 -119 71 -199 205 -199c128 0 195 59 203 112v1h-234v149h474v-409h-195l-9 118
c-34 -62 -122 -143 -309 -143z" />
    <glyph glyph-name="gdotaccent" unicode="&#x121;" horiz-adv-x="851" 
d="M527 738v-174h-254v174h254zM832 452c-22 5 -44 8 -70 8c-22 0 -40 -2 -55 -6c38 -27 57 -62 57 -104c0 -111 -131 -175 -359 -175c-63 0 -118 5 -166 14c-9 -4 -14 -10 -14 -20c0 -16 14 -25 46 -25l331 -2c161 -1 229 -49 229 -155c0 -140 -137 -201 -455 -201
c-241 0 -352 34 -352 111c0 40 31 67 93 80c-54 20 -91 57 -91 103c0 65 53 111 146 128c-81 29 -125 78 -125 142c0 109 127 169 358 169c80 0 147 -7 201 -21c20 67 83 102 174 102c18 0 35 -2 52 -5v-143zM405 279c70 0 108 26 108 71c0 43 -37 65 -108 65
c-70 0 -107 -22 -107 -65c0 -45 38 -71 107 -71zM578 -38h-368h-2c-6 -7 -8 -14 -8 -22c0 -48 61 -62 201 -62c190 0 228 10 228 51c0 20 -15 33 -51 33z" />
    <glyph glyph-name="Gcommaaccent" unicode="&#x122;" horiz-adv-x="980" 
d="M420 -25c-257 0 -405 159 -405 368c0 221 181 392 478 392c227 0 400 -87 442 -233l-278 -45c-23 55 -72 98 -169 98c-134 0 -203 -81 -203 -209c0 -119 71 -199 205 -199c128 0 195 59 203 112v1h-234v149h474v-409h-195l-9 118c-34 -62 -122 -143 -309 -143zM451 -257
l-30 65c56 8 75 17 79 40h-118v108h228v-80c0 -64 -44 -120 -159 -133z" />
    <glyph glyph-name="gcommaaccent" unicode="&#x123;" horiz-adv-x="851" 
d="M509 676v-108h-228v80c0 64 44 120 159 133l30 -65c-56 -8 -75 -17 -79 -40h118zM832 452c-22 5 -44 8 -70 8c-22 0 -40 -2 -55 -6c38 -27 57 -62 57 -104c0 -111 -131 -175 -359 -175c-63 0 -118 5 -166 14c-9 -4 -14 -10 -14 -20c0 -16 14 -25 46 -25l331 -2
c161 -1 229 -49 229 -155c0 -140 -137 -201 -455 -201c-241 0 -352 34 -352 111c0 40 31 67 93 80c-54 20 -91 57 -91 103c0 65 53 111 146 128c-81 29 -125 78 -125 142c0 109 127 169 358 169c80 0 147 -7 201 -21c20 67 83 102 174 102c18 0 35 -2 52 -5v-143zM405 279
c70 0 108 26 108 71c0 43 -37 65 -108 65c-70 0 -107 -22 -107 -65c0 -45 38 -71 107 -71zM578 -38h-368h-2c-6 -7 -8 -14 -8 -22c0 -48 61 -62 201 -62c190 0 228 10 228 51c0 20 -15 33 -51 33z" />
    <glyph glyph-name="Hcircumflex" unicode="&#x124;" horiz-adv-x="1010" 
d="M782 760h-196l-81 63l-81 -63h-195l151 123h250zM931 710v-710h-255v273h-342v-273h-256v710h256v-267h342v267h255z" />
    <glyph glyph-name="hcircumflex" unicode="&#x125;" horiz-adv-x="898" 
d="M474 760h-196l-81 63l-81 -63h-195l151 123h250zM74 0v725h246v-324c44 75 133 119 247 119c175 0 276 -106 276 -290v-230h-246v206c0 97 -47 148 -138 148c-92 0 -139 -52 -139 -152v-202h-246z" />
    <glyph glyph-name="Hbar" unicode="&#x126;" horiz-adv-x="1010" 
d="M1020 626v-101h-89v-525h-255v273h-342v-273h-256v525h-87v101h87v84h256v-84h342v84h255v-84h89zM676 443v82h-342v-82h342z" />
    <glyph glyph-name="hbar" unicode="&#x127;" horiz-adv-x="862" 
d="M567 520c175 0 276 -106 276 -290v-230h-246v206c0 97 -47 148 -138 148c-92 0 -139 -52 -139 -152v-202h-246v567h-102v105h102v53h246v-53h277v-105h-277v-166c44 75 133 119 247 119z" />
    <glyph glyph-name="Itilde" unicode="&#x128;" horiz-adv-x="412" 
d="M290 750c-74 0 -111 69 -151 69c-20 0 -34 -16 -36 -55l-84 36c5 69 39 120 103 120c74 0 111 -69 151 -69c20 0 34 16 36 55l84 -36c-5 -69 -39 -120 -103 -120zM334 0h-256v710h256v-710z" />
    <glyph glyph-name="itilde" unicode="&#x129;" horiz-adv-x="384" 
d="M265 578c-69 0 -102 68 -134 68c-14 0 -23 -17 -29 -58l-88 36c12 82 52 134 110 134c69 0 102 -68 134 -68c14 0 23 17 29 58l88 -36c-12 -82 -52 -134 -110 -134zM69 0v500h246v-500h-246z" />
    <glyph glyph-name="Imacron" unicode="&#x12a;" horiz-adv-x="412" 
d="M20 760v123h371v-123h-371zM334 0h-256v710h256v-710z" />
    <glyph glyph-name="imacron" unicode="&#x12b;" horiz-adv-x="384" 
d="M38 585v124h308v-124h-308zM69 0v500h246v-500h-246z" />
    <glyph glyph-name="Ibreve" unicode="&#x12c;" horiz-adv-x="412" 
d="M159 883c1 -27 19 -44 48 -44s47 17 48 44h117c-6 -83 -63 -129 -165 -129s-159 46 -165 129h117zM334 0h-256v710h256v-710z" />
    <glyph glyph-name="ibreve" unicode="&#x12d;" horiz-adv-x="384" 
d="M153 730c-1 -53 13 -75 39 -75s38 22 39 75h115c-3 -120 -64 -166 -154 -166s-151 46 -154 166h115zM69 0v500h246v-500h-246z" />
    <glyph glyph-name="Iogonek" unicode="&#x12e;" horiz-adv-x="412" 
d="M222 -83l144 -16c-7 -70 -84 -113 -205 -113c-120 0 -189 39 -189 107c0 47 30 83 106 105v710h256v-710h-56c-112 -8 -146 -47 -146 -83c0 -22 19 -39 43 -39c26 0 43 13 47 39z" />
    <glyph glyph-name="iogonek" unicode="&#x12f;" horiz-adv-x="384" 
d="M319 738v-174h-254v174h254zM213 -83l144 -16c-7 -70 -84 -113 -205 -113c-120 0 -189 39 -189 107c0 47 30 83 106 105v500h246v-500h-46c-112 -8 -146 -47 -146 -83c0 -22 19 -39 43 -39c26 0 43 13 47 39z" />
    <glyph glyph-name="Idotaccent" unicode="&#x130;" horiz-adv-x="412" 
d="M79 760v123h253v-123h-253zM334 0h-256v710h256v-710z" />
    <glyph glyph-name="dotlessi" unicode="&#x131;" horiz-adv-x="384" 
d="M69 0v500h246v-500h-246z" />
    <glyph glyph-name="IJ" unicode="&#x132;" horiz-adv-x="929" 
d="M334 0h-256v710h256v-710zM879 255c0 -206 -148 -267 -318 -267c-52 0 -103 4 -139 12v189c22 -3 46 -5 68 -5c71 0 134 21 134 120v406h255v-455z" />
    <glyph glyph-name="ij" unicode="&#x133;" horiz-adv-x="795" 
d="M65 564v174h254v-174h-254zM473 564v174h254v-174h-254zM69 0v500h246v-500h-246zM459 -207c-30 0 -65 3 -88 11v168c13 -3 32 -4 47 -4c42 0 62 28 62 89v443h246v-472c0 -159 -73 -235 -267 -235z" />
    <glyph glyph-name="Jcircumflex" unicode="&#x134;" horiz-adv-x="517" 
d="M514 760h-134l-39 75l-39 -75h-134l71 124h204zM467 255c0 -206 -148 -267 -318 -267c-52 0 -103 4 -139 12v189c22 -3 46 -5 68 -5c71 0 134 21 134 120v406h255v-455z" />
    <glyph glyph-name="jcircumflex" unicode="&#x135;" horiz-adv-x="393" 
d="M374 569h-133l-43 106l-42 -106h-133l76 161h199zM57 -207c-30 0 -65 3 -88 11v168c13 -3 32 -4 47 -4c42 0 62 28 62 89v443h246v-472c0 -159 -73 -235 -267 -235z" />
    <glyph glyph-name="Kcommaaccent" unicode="&#x136;" horiz-adv-x="966" 
d="M639 432l317 -432h-292l-213 288l-117 -111v-177h-256v710h256v-285l306 285h306l-289 -266zM376 -152v108h228v-80c0 -64 -44 -120 -159 -133l-30 65c56 8 75 17 79 40h-118z" />
    <glyph glyph-name="kcommaaccent" unicode="&#x137;" horiz-adv-x="882" 
d="M629 322l239 -322h-276l-146 205l-126 -94v-111h-246v725h246v-407l226 182h316zM319 -152v108h228v-80c0 -64 -44 -120 -159 -133l-30 65c56 8 75 17 79 40h-118z" />
    <glyph glyph-name="kgreenlandic" unicode="&#x138;" horiz-adv-x="877" 
d="M587 0l-146 205l-126 -94v-111h-246v500h246v-182l226 182h316l-233 -178l239 -322h-276z" />
    <glyph glyph-name="Lacute" unicode="&#x139;" horiz-adv-x="806" 
d="M105 760l149 123h237l-186 -123h-200zM78 0v710h256v-514h448v-196h-704z" />
    <glyph glyph-name="lacute" unicode="&#x13a;" horiz-adv-x="394" 
d="M96 760l149 123h237l-186 -123h-200zM320 725v-725h-246v725h246z" />
    <glyph glyph-name="Lcommaaccent" unicode="&#x13b;" horiz-adv-x="806" 
d="M78 0v710h256v-514h448v-196h-704zM390 -257l-30 65c56 8 75 17 79 40h-118v108h228v-80c0 -64 -44 -120 -159 -133z" />
    <glyph glyph-name="lcommaaccent" unicode="&#x13c;" horiz-adv-x="394" 
d="M320 725v-725h-246v725h246zM151 -257l-30 65c56 8 75 17 79 40h-118v108h228v-80c0 -64 -44 -120 -159 -133z" />
    <glyph glyph-name="Lcaron" unicode="&#x13d;" horiz-adv-x="806" 
d="M78 0v710h256v-514h448v-196h-704zM466 514l-27 63c47 1 64 9 68 25h-109v108h219v-70c0 -67 -38 -121 -151 -126z" />
    <glyph glyph-name="lcaron" unicode="&#x13e;" horiz-adv-x="550" 
d="M320 725v-725h-246v725h246zM428 514l-27 63c47 1 64 9 68 25h-109v108h219v-70c0 -67 -38 -121 -151 -126z" />
    <glyph glyph-name="Ldot" unicode="&#x13f;" horiz-adv-x="806" 
d="M78 0v710h256v-514h448v-196h-704zM648 500v-189h-246v189h246z" />
    <glyph glyph-name="ldot" unicode="&#x140;" horiz-adv-x="613" 
d="M320 725v-725h-246v725h246zM626 500v-189h-246v189h246z" />
    <glyph glyph-name="Lslash" unicode="&#x141;" horiz-adv-x="806" 
d="M334 196h448v-196h-704v221l-95 -44v141l95 44v348h256v-230l266 123v-142l-266 -122v-143z" />
    <glyph glyph-name="lslash" unicode="&#x142;" horiz-adv-x="394" 
d="M382 580v-121l-62 -48v-411h-246v222l-62 -48v121l62 48v382h246v-193z" />
    <glyph glyph-name="Nacute" unicode="&#x143;" horiz-adv-x="1009" 
d="M412 760l149 123h237l-186 -123h-200zM78 0v710h265l291 -331c24 -31 45 -57 60 -88h5v110v309h231v-710h-250l-304 331c-17 21 -51 65 -61 90h-5v-109v-312h-232z" />
    <glyph glyph-name="nacute" unicode="&#x144;" horiz-adv-x="893" 
d="M395 569l163 161h237l-206 -161h-194zM69 0v500h242v-112c43 84 133 131 253 131c179 0 274 -99 274 -287v-232h-246v200c0 101 -42 149 -134 149c-95 0 -143 -52 -143 -152v-197h-246z" />
    <glyph glyph-name="Ncommaaccent" unicode="&#x145;" horiz-adv-x="1009" 
d="M78 0v710h265l291 -331c24 -31 45 -57 60 -88h5v110v309h231v-710h-250l-304 331c-17 21 -51 65 -61 90h-5v-109v-312h-232zM467 -257l-30 65c56 8 75 17 79 40h-118v108h228v-80c0 -64 -44 -120 -159 -133z" />
    <glyph glyph-name="ncommaaccent" unicode="&#x146;" horiz-adv-x="893" 
d="M69 0v500h242v-112c43 84 133 131 253 131c179 0 274 -99 274 -287v-232h-246v200c0 101 -42 149 -134 149c-95 0 -143 -52 -143 -152v-197h-246zM401 -257l-30 65c56 8 75 17 79 40h-118v108h228v-80c0 -64 -44 -120 -159 -133z" />
    <glyph glyph-name="Ncaron" unicode="&#x147;" horiz-adv-x="1009" 
d="M790 879l-152 -123h-250l-151 123h195l81 -63l81 63h196zM78 0v710h265l291 -331c24 -31 45 -57 60 -88h5v110v309h231v-710h-250l-304 331c-17 21 -51 65 -61 90h-5v-109v-312h-232z" />
    <glyph glyph-name="ncaron" unicode="&#x148;" horiz-adv-x="893" 
d="M225 726h186l90 -97l90 97h186l-151 -161h-250zM69 0v500h242v-112c43 84 133 131 253 131c179 0 274 -99 274 -287v-232h-246v200c0 101 -42 149 -134 149c-95 0 -143 -52 -143 -152v-197h-246z" />
    <glyph glyph-name="napostrophe" unicode="&#x149;" horiz-adv-x="925" 
d="M55 514l-27 63c47 1 64 9 68 25h-109v108h219v-70c0 -67 -38 -121 -151 -126zM102 0v500h242v-112c43 84 133 131 253 131c179 0 274 -99 274 -287v-232h-246v200c0 101 -42 149 -134 149c-95 0 -143 -52 -143 -152v-197h-246z" />
    <glyph glyph-name="Eng" unicode="&#x14a;" horiz-adv-x="1009" 
d="M699 710h231v-710c0 -158 -128 -215 -270 -215c-58 0 -116 4 -156 11v179c32 -2 66 -5 97 -5c35 0 65 4 82 30h-3l-304 331c-17 21 -51 65 -61 90h-5v-109v-312h-232v710h265l291 -331c24 -31 45 -57 60 -88h5v110v309z" />
    <glyph glyph-name="eng" unicode="&#x14b;" horiz-adv-x="893" 
d="M564 519c179 0 274 -99 274 -287v-232c-3 -133 -76 -197 -265 -197c-34 0 -75 3 -99 11v166c14 -4 33 -6 48 -6c48 0 70 15 70 57v169c0 101 -42 149 -134 149c-95 0 -143 -52 -143 -152v-197h-246v500h242v-112c43 84 133 131 253 131z" />
    <glyph glyph-name="Omacron" unicode="&#x14c;" horiz-adv-x="994" 
d="M234 760v123h526v-123h-526zM497 -25c-295 0 -482 147 -482 380s187 380 482 380c294 0 481 -147 481 -380s-187 -380 -481 -380zM497 161c128 0 211 77 211 194s-83 195 -211 195s-212 -78 -212 -195s84 -194 212 -194z" />
    <glyph glyph-name="omacron" unicode="&#x14d;" horiz-adv-x="837" 
d="M161 583v126h515v-126h-515zM419 -19c-245 0 -404 104 -404 269s159 269 404 269c244 0 403 -104 403 -269s-159 -269 -403 -269zM419 128c88 0 148 49 148 122c0 74 -60 122 -148 122c-89 0 -149 -48 -149 -122c0 -73 60 -122 149 -122z" />
    <glyph glyph-name="Obreve" unicode="&#x14e;" horiz-adv-x="994" 
d="M408 883c9 -26 36 -38 89 -38s80 12 88 38h149c-10 -82 -99 -128 -237 -128s-228 46 -238 128h149zM497 -25c-295 0 -482 147 -482 380s187 380 482 380c294 0 481 -147 481 -380s-187 -380 -481 -380zM497 161c128 0 211 77 211 194s-83 195 -211 195
s-212 -78 -212 -195s84 -194 212 -194z" />
    <glyph glyph-name="obreve" unicode="&#x14f;" horiz-adv-x="837" 
d="M340 730c7 -45 31 -67 79 -67s73 22 79 67h158c-9 -114 -100 -166 -237 -166s-228 52 -237 166h158zM419 -19c-245 0 -404 104 -404 269s159 269 404 269c244 0 403 -104 403 -269s-159 -269 -403 -269zM419 128c88 0 148 49 148 122c0 74 -60 122 -148 122
c-89 0 -149 -48 -149 -122c0 -73 60 -122 149 -122z" />
    <glyph glyph-name="Ohungarumlaut" unicode="&#x150;" horiz-adv-x="994" 
d="M272 761l157 122h195l-170 -122h-182zM541 761l157 122h195l-170 -122h-182zM497 -25c-295 0 -482 147 -482 380s187 380 482 380c294 0 481 -147 481 -380s-187 -380 -481 -380zM497 161c128 0 211 77 211 194s-83 195 -211 195s-212 -78 -212 -195s84 -194 212 -194z
" />
    <glyph glyph-name="ohungarumlaut" unicode="&#x151;" horiz-adv-x="837" 
d="M204 569l157 161h184l-170 -161h-171zM462 569l157 161h184l-170 -161h-171zM419 -19c-245 0 -404 104 -404 269s159 269 404 269c244 0 403 -104 403 -269s-159 -269 -403 -269zM419 128c88 0 148 49 148 122c0 74 -60 122 -148 122c-89 0 -149 -48 -149 -122
c0 -73 60 -122 149 -122z" />
    <glyph glyph-name="OE" unicode="&#x152;" horiz-adv-x="1452" 
d="M905 172h493v-172h-967c-246 0 -416 137 -416 367c0 227 192 343 442 343h934v-172h-486v-101h469v-158h-469v-107zM490 166h159v379h-165c-122 0 -199 -69 -199 -183c0 -125 80 -196 205 -196z" />
    <glyph glyph-name="oe" unicode="&#x153;" horiz-adv-x="1365" 
d="M1349 223v-22h-530c18 -48 77 -75 163 -75c63 0 128 24 159 58l184 -79c-71 -78 -193 -124 -354 -124c-119 0 -213 23 -279 67c-70 -42 -162 -67 -264 -67c-229 0 -413 94 -413 269c0 180 183 269 413 269c103 0 197 -24 267 -68c66 44 159 68 272 68
c246 0 382 -111 382 -296zM817 316h290c-3 42 -55 80 -141 80c-85 0 -136 -31 -149 -80zM428 136c97 0 156 48 156 114s-59 115 -156 115c-98 0 -158 -49 -158 -115s60 -114 158 -114z" />
    <glyph glyph-name="Racute" unicode="&#x154;" horiz-adv-x="935" 
d="M701 883l-186 -123h-200l149 123h237zM633 0l-150 232h-149v-232h-256v710h497c245 0 316 -118 316 -233c0 -80 -37 -171 -148 -215l172 -262h-282zM334 547v-162h180c82 0 107 38 107 83c0 43 -26 79 -106 79h-181z" />
    <glyph glyph-name="racute" unicode="&#x155;" horiz-adv-x="595" 
d="M199 569l163 161h237l-206 -161h-194zM283 350c28 98 110 161 231 161c33 0 46 -2 66 -4v-204c-29 5 -57 8 -88 8c-53 0 -99 -13 -125 -37c-34 -29 -52 -73 -52 -125v-149h-246v500h214v-150z" />
    <glyph glyph-name="Rcommaaccent" unicode="&#x156;" horiz-adv-x="935" 
d="M743 262l172 -262h-282l-150 232h-149v-232h-256v710h497c245 0 316 -118 316 -233c0 -80 -37 -171 -148 -215zM334 547v-162h180c82 0 107 38 107 83c0 43 -26 79 -106 79h-181zM331 -152v108h228v-80c0 -64 -44 -120 -159 -133l-30 65c56 8 75 17 79 40h-118z" />
    <glyph glyph-name="rcommaaccent" unicode="&#x157;" horiz-adv-x="595" 
d="M283 350c28 98 110 161 231 161c33 0 46 -2 66 -4v-204c-29 5 -57 8 -88 8c-53 0 -99 -13 -125 -37c-34 -29 -52 -73 -52 -125v-149h-246v500h214v-150zM146 -257l-30 65c56 8 75 17 79 40h-118v108h228v-80c0 -64 -44 -120 -159 -133z" />
    <glyph glyph-name="Rcaron" unicode="&#x158;" horiz-adv-x="935" 
d="M541 756h-250l-151 123h195l81 -63l81 63h196zM633 0l-150 232h-149v-232h-256v710h497c245 0 316 -118 316 -233c0 -80 -37 -171 -148 -215l172 -262h-282zM334 547v-162h180c82 0 107 38 107 83c0 43 -26 79 -106 79h-181z" />
    <glyph glyph-name="rcaron" unicode="&#x159;" horiz-adv-x="595" 
d="M29 726h186l90 -97l90 97h186l-151 -161h-250zM283 350c28 98 110 161 231 161c33 0 46 -2 66 -4v-204c-29 5 -57 8 -88 8c-53 0 -99 -13 -125 -37c-34 -29 -52 -73 -52 -125v-149h-246v500h214v-150z" />
    <glyph glyph-name="Sacute" unicode="&#x15a;" horiz-adv-x="880" 
d="M342 760l149 123h237l-186 -123h-200zM433 -25c-189 0 -367 64 -453 147l165 144c69 -62 180 -116 303 -116c106 0 156 20 156 58c0 27 -18 37 -78 44l-212 25c-180 22 -268 88 -268 226c0 145 144 232 396 232c156 0 304 -33 412 -109l-141 -150c-59 52 -168 88 -285 88
c-85 0 -130 -17 -130 -50c0 -28 21 -39 92 -47l183 -18c205 -21 287 -80 287 -216c0 -165 -160 -258 -427 -258z" />
    <glyph glyph-name="sacute" unicode="&#x15b;" horiz-adv-x="762" 
d="M268 569l163 161h237l-206 -161h-194zM403 -19c-178 0 -311 31 -403 96l101 113c74 -48 167 -73 324 -73c70 0 93 6 93 25c0 16 -11 22 -47 25l-204 20c-158 16 -228 67 -228 162c0 116 111 170 346 170c134 0 248 -18 343 -65l-75 -121c-80 37 -166 53 -289 53
c-74 0 -102 -5 -102 -24c0 -14 11 -20 52 -24l209 -19c156 -14 219 -58 219 -154c0 -122 -112 -184 -339 -184z" />
    <glyph glyph-name="Scircumflex" unicode="&#x15c;" horiz-adv-x="880" 
d="M720 760h-196l-81 63l-81 -63h-195l151 123h250zM433 -25c-189 0 -367 64 -453 147l165 144c69 -62 180 -116 303 -116c106 0 156 20 156 58c0 27 -18 37 -78 44l-212 25c-180 22 -268 88 -268 226c0 145 144 232 396 232c156 0 304 -33 412 -109l-141 -150
c-59 52 -168 88 -285 88c-85 0 -130 -17 -130 -50c0 -28 21 -39 92 -47l183 -18c205 -21 287 -80 287 -216c0 -165 -160 -258 -427 -258z" />
    <glyph glyph-name="scircumflex" unicode="&#x15d;" horiz-adv-x="762" 
d="M650 569h-186l-90 97l-90 -97h-186l151 161h250zM403 -19c-178 0 -311 31 -403 96l101 113c74 -48 167 -73 324 -73c70 0 93 6 93 25c0 16 -11 22 -47 25l-204 20c-158 16 -228 67 -228 162c0 116 111 170 346 170c134 0 248 -18 343 -65l-75 -121
c-80 37 -166 53 -289 53c-74 0 -102 -5 -102 -24c0 -14 11 -20 52 -24l209 -19c156 -14 219 -58 219 -154c0 -122 -112 -184 -339 -184z" />
    <glyph glyph-name="Scedilla" unicode="&#x15e;" horiz-adv-x="880" 
d="M860 233c0 -154 -139 -245 -374 -257l-31 -37c25 12 53 17 85 17c90 0 144 -36 144 -99c0 -66 -70 -102 -195 -102c-81 0 -138 21 -170 55l108 37c16 -15 37 -23 63 -23c30 0 47 13 47 34c0 20 -17 32 -46 32c-20 0 -37 -5 -47 -16l-118 21l57 81
c-170 11 -325 70 -403 146l165 144c69 -62 180 -116 303 -116c106 0 156 20 156 58c0 27 -18 37 -78 44l-212 25c-180 22 -268 88 -268 226c0 145 144 232 396 232c156 0 304 -33 412 -109l-141 -150c-59 52 -168 88 -285 88c-85 0 -130 -17 -130 -50c0 -28 21 -39 92 -47
l183 -18c205 -21 287 -80 287 -216z" />
    <glyph glyph-name="scedilla" unicode="&#x15f;" horiz-adv-x="762" 
d="M742 165c0 -117 -103 -179 -311 -184l-35 -42c25 12 53 17 85 17c90 0 144 -36 144 -99c0 -66 -70 -102 -195 -102c-81 0 -138 21 -170 55l108 37c16 -15 37 -23 63 -23c30 0 47 13 47 34c0 20 -17 32 -46 32c-20 0 -37 -5 -47 -16l-118 21l61 88c-141 8 -249 38 -328 94
l101 113c74 -48 167 -73 324 -73c70 0 93 6 93 25c0 16 -11 22 -47 25l-204 20c-158 16 -228 67 -228 162c0 116 111 170 346 170c134 0 248 -18 343 -65l-75 -121c-80 37 -166 53 -289 53c-74 0 -102 -5 -102 -24c0 -14 11 -20 52 -24l209 -19c156 -14 219 -58 219 -154z
" />
    <glyph glyph-name="Scaron" unicode="&#x160;" horiz-adv-x="880" 
d="M720 879l-152 -123h-250l-151 123h195l81 -63l81 63h196zM433 -25c-189 0 -367 64 -453 147l165 144c69 -62 180 -116 303 -116c106 0 156 20 156 58c0 27 -18 37 -78 44l-212 25c-180 22 -268 88 -268 226c0 145 144 232 396 232c156 0 304 -33 412 -109l-141 -150
c-59 52 -168 88 -285 88c-85 0 -130 -17 -130 -50c0 -28 21 -39 92 -47l183 -18c205 -21 287 -80 287 -216c0 -165 -160 -258 -427 -258z" />
    <glyph glyph-name="scaron" unicode="&#x161;" horiz-adv-x="762" 
d="M98 726h186l90 -97l90 97h186l-151 -161h-250zM403 -19c-178 0 -311 31 -403 96l101 113c74 -48 167 -73 324 -73c70 0 93 6 93 25c0 16 -11 22 -47 25l-204 20c-158 16 -228 67 -228 162c0 116 111 170 346 170c134 0 248 -18 343 -65l-75 -121c-80 37 -166 53 -289 53
c-74 0 -102 -5 -102 -24c0 -14 11 -20 52 -24l209 -19c156 -14 219 -58 219 -154c0 -122 -112 -184 -339 -184z" />
    <glyph glyph-name="uni0162" unicode="&#x162;" horiz-adv-x="821" 
d="M538 0h-75l-50 -61c25 12 53 17 85 17c90 0 144 -36 144 -99c0 -66 -70 -102 -195 -102c-81 0 -138 21 -170 55l108 37c16 -15 37 -23 63 -23c30 0 47 13 47 34c0 20 -17 32 -46 32c-20 0 -37 -5 -47 -16l-118 21l73 105h-74v515h-273v195h802v-195h-274v-515z" />
    <glyph glyph-name="uni0163" unicode="&#x163;" horiz-adv-x="630" 
d="M489 -44c90 0 144 -36 144 -99c0 -66 -70 -102 -195 -102c-81 0 -138 21 -170 55l108 37c16 -15 37 -23 63 -23c30 0 47 13 47 34c0 20 -17 32 -46 32c-20 0 -37 -5 -47 -16l-118 21l67 95c-121 17 -204 75 -204 214v150h-143v146h143v110l246 84v-194h212v-146h-212v-98
c0 -62 36 -93 116 -93c45 0 78 6 94 11v-165c-33 -13 -79 -23 -152 -24l-38 -46c25 12 53 17 85 17z" />
    <glyph glyph-name="Tcaron" unicode="&#x164;" horiz-adv-x="821" 
d="M536 756h-250l-151 123h195l81 -63l81 63h196zM812 710v-195h-274v-515h-255v515h-273v195h802z" />
    <glyph glyph-name="tcaron" unicode="&#x165;" horiz-adv-x="631" 
d="M489 514l-27 63c47 1 64 9 68 25h-109v108h219v-70c0 -67 -38 -121 -151 -126zM-5 354v146h143v110l246 84v-194h212v-146h-212v-98c0 -62 36 -93 116 -93c45 0 78 6 94 11v-165c-35 -14 -84 -24 -165 -24c-166 0 -291 48 -291 219v150h-143z" />
    <glyph glyph-name="Tbar" unicode="&#x166;" horiz-adv-x="821" 
d="M812 515h-274v-104h203v-102h-203v-309h-255v309h-203v102h203v104h-273v195h802v-195z" />
    <glyph glyph-name="tbar" unicode="&#x167;" horiz-adv-x="630" 
d="M596 354h-212v-40h211v-91h-207c12 -40 48 -60 112 -60c45 0 78 6 94 11v-165c-35 -14 -84 -24 -165 -24c-166 0 -291 48 -291 219v19h-141v91h141v40h-143v146h143v110l246 84v-194h212v-146z" />
    <glyph glyph-name="Utilde" unicode="&#x168;" horiz-adv-x="955" 
d="M581 755c-96 0 -136 44 -194 44c-34 0 -54 -14 -66 -55l-116 57c26 81 79 118 172 118c97 0 137 -44 195 -44c34 0 54 14 66 54l116 -56c-26 -82 -79 -118 -173 -118zM50 710h256v-366c0 -106 57 -172 172 -172c108 0 171 67 171 172v366h256v-397
c0 -206 -151 -338 -427 -338s-428 134 -428 341v394z" />
    <glyph glyph-name="utilde" unicode="&#x169;" horiz-adv-x="883" 
d="M543 584c-101 0 -142 53 -203 53c-35 0 -53 -17 -66 -63l-121 56c22 88 75 128 164 128c101 0 143 -53 203 -53c34 0 54 15 66 63l121 -56c-21 -87 -74 -128 -164 -128zM318 -19c-163 0 -263 88 -263 239v280h246v-213c0 -94 41 -141 124 -141c92 0 143 56 143 145v209
h246v-500h-241v106c-45 -84 -144 -125 -255 -125z" />
    <glyph glyph-name="Umacron" unicode="&#x16a;" horiz-adv-x="955" 
d="M215 760v123h526v-123h-526zM50 710h256v-366c0 -106 57 -172 172 -172c108 0 171 67 171 172v366h256v-397c0 -206 -151 -338 -427 -338s-428 134 -428 341v394z" />
    <glyph glyph-name="umacron" unicode="&#x16b;" horiz-adv-x="883" 
d="M172 583v126h515v-126h-515zM318 -19c-163 0 -263 88 -263 239v280h246v-213c0 -94 41 -141 124 -141c92 0 143 56 143 145v209h246v-500h-241v106c-45 -84 -144 -125 -255 -125z" />
    <glyph glyph-name="Ubreve" unicode="&#x16c;" horiz-adv-x="955" 
d="M389 883c9 -26 36 -38 89 -38s80 12 88 38h149c-10 -82 -99 -128 -237 -128s-228 46 -238 128h149zM50 710h256v-366c0 -106 57 -172 172 -172c108 0 171 67 171 172v366h256v-397c0 -206 -151 -338 -427 -338s-428 134 -428 341v394z" />
    <glyph glyph-name="ubreve" unicode="&#x16d;" horiz-adv-x="883" 
d="M351 730c7 -45 31 -67 79 -67s73 22 79 67h158c-9 -114 -100 -166 -237 -166s-228 52 -237 166h158zM318 -19c-163 0 -263 88 -263 239v280h246v-213c0 -94 41 -141 124 -141c92 0 143 56 143 145v209h246v-500h-241v106c-45 -84 -144 -125 -255 -125z" />
    <glyph glyph-name="Uring" unicode="&#x16e;" horiz-adv-x="955" 
d="M478 744c-98 0 -164 50 -164 126s66 126 164 126c99 0 165 -50 165 -126s-66 -126 -165 -126zM478 817c37 0 62 22 62 53s-25 53 -62 53s-62 -22 -62 -53s25 -53 62 -53zM50 710h256v-366c0 -106 57 -172 172 -172c108 0 171 67 171 172v366h256v-397
c0 -206 -151 -338 -427 -338s-428 134 -428 341v394z" />
    <glyph glyph-name="uring" unicode="&#x16f;" horiz-adv-x="883" 
d="M430 557c-130 0 -200 53 -200 130c0 78 70 131 200 131s199 -53 199 -131c0 -77 -69 -130 -199 -130zM430 633c56 0 84 22 84 54s-28 54 -84 54c-57 0 -84 -22 -84 -54s27 -54 84 -54zM318 -19c-163 0 -263 88 -263 239v280h246v-213c0 -94 41 -141 124 -141
c92 0 143 56 143 145v209h246v-500h-241v106c-45 -84 -144 -125 -255 -125z" />
    <glyph glyph-name="Uhungarumlaut" unicode="&#x170;" horiz-adv-x="955" 
d="M253 761l157 122h195l-170 -122h-182zM522 761l157 122h195l-170 -122h-182zM50 710h256v-366c0 -106 57 -172 172 -172c108 0 171 67 171 172v366h256v-397c0 -206 -151 -338 -427 -338s-428 134 -428 341v394z" />
    <glyph glyph-name="uhungarumlaut" unicode="&#x171;" horiz-adv-x="883" 
d="M215 569l157 161h184l-170 -161h-171zM473 569l157 161h184l-170 -161h-171zM318 -19c-163 0 -263 88 -263 239v280h246v-213c0 -94 41 -141 124 -141c92 0 143 56 143 145v209h246v-500h-241v106c-45 -84 -144 -125 -255 -125z" />
    <glyph glyph-name="Uogonek" unicode="&#x172;" horiz-adv-x="955" 
d="M649 710h256v-397c0 -183 -120 -308 -340 -333c-38 -17 -51 -40 -51 -63c0 -22 19 -39 43 -39c26 0 43 13 47 39l144 -16c-7 -70 -84 -113 -205 -113c-120 0 -189 39 -189 107c0 34 16 62 52 83c-230 22 -356 150 -356 338v394h256v-366c0 -106 57 -172 172 -172
c108 0 171 67 171 172v366z" />
    <glyph glyph-name="uogonek" unicode="&#x173;" horiz-adv-x="883" 
d="M717 -83l144 -16c-7 -70 -84 -113 -205 -113c-120 0 -189 39 -189 107c0 47 30 83 106 105v106c-45 -84 -144 -125 -255 -125c-163 0 -263 88 -263 239v280h246v-213c0 -94 41 -141 124 -141c92 0 143 56 143 145v209h246v-500h-41c-112 -8 -146 -47 -146 -83
c0 -22 19 -39 43 -39c26 0 43 13 47 39z" />
    <glyph glyph-name="Wcircumflex" unicode="&#x174;" horiz-adv-x="1398" 
d="M977 760h-196l-81 63l-81 -63h-195l151 123h250zM257 0l-242 710h257l114 -399c7 -26 14 -51 14 -76h5c2 25 12 52 21 76l138 399h270l138 -399c9 -24 19 -51 21 -76h5c0 25 7 50 14 76l114 399h257l-242 -710h-287l-137 400c-7 20 -14 43 -15 67h-5
c-2 -24 -9 -47 -15 -67l-138 -400h-287z" />
    <glyph glyph-name="wcircumflex" unicode="&#x175;" horiz-adv-x="1152" 
d="M852 569h-186l-90 97l-90 -97h-186l151 161h250zM208 0l-198 500h244l77 -260c4 -14 9 -34 14 -63h2c3 28 11 49 16 63l91 260h244l92 -260c5 -14 12 -35 16 -63h2c4 29 9 49 13 63l77 260h244l-197 -500h-262l-86 239c-10 25 -16 48 -19 70h-4c-3 -22 -9 -45 -18 -70
l-87 -239h-261z" />
    <glyph glyph-name="Ycircumflex" unicode="&#x176;" horiz-adv-x="917" 
d="M740 760h-196l-81 63l-81 -63h-195l151 123h250zM331 0v234l-345 476h284l166 -259c19 -26 23 -35 26 -43h2c3 8 7 17 26 43l175 259h267l-345 -476v-234h-256z" />
    <glyph glyph-name="ycircumflex" unicode="&#x177;" horiz-adv-x="809" 
d="M682 569h-186l-90 97l-90 -97h-186l151 161h250zM201 -214c-38 0 -111 2 -151 13v178c33 -6 73 -10 108 -10c39 0 107 5 131 27l1 2l-299 504h271l116 -249c16 -33 22 -44 31 -70h5c10 26 16 35 29 66l113 253h262l-280 -521c-72 -134 -165 -193 -337 -193z" />
    <glyph glyph-name="Ydieresis" unicode="&#x178;" horiz-adv-x="917" 
d="M187 760v123h215v-123h-215zM524 760v123h214v-123h-214zM331 0v234l-345 476h284l166 -259c19 -26 23 -35 26 -43h2c3 8 7 17 26 43l175 259h267l-345 -476v-234h-256z" />
    <glyph glyph-name="Zacute" unicode="&#x179;" horiz-adv-x="893" 
d="M346 760l149 123h237l-186 -123h-200zM49 159l454 382h-442v169h777v-159l-452 -382h468v-169h-805v159z" />
    <glyph glyph-name="zacute" unicode="&#x17a;" horiz-adv-x="740" 
d="M267 569l163 161h237l-206 -161h-194zM38 145l349 214h-338v141h648v-142l-343 -216h357v-142h-673v145z" />
    <glyph glyph-name="Zdotaccent" unicode="&#x17b;" horiz-adv-x="893" 
d="M320 760v123h253v-123h-253zM49 159l454 382h-442v169h777v-159l-452 -382h468v-169h-805v159z" />
    <glyph glyph-name="zdotaccent" unicode="&#x17c;" horiz-adv-x="740" 
d="M246 564v174h254v-174h-254zM38 145l349 214h-338v141h648v-142l-343 -216h357v-142h-673v145z" />
    <glyph glyph-name="Zcaron" unicode="&#x17d;" horiz-adv-x="893" 
d="M724 879l-152 -123h-250l-151 123h195l81 -63l81 63h196zM49 159l454 382h-442v169h777v-159l-452 -382h468v-169h-805v159z" />
    <glyph glyph-name="zcaron" unicode="&#x17e;" horiz-adv-x="740" 
d="M97 726h186l90 -97l90 97h186l-151 -161h-250zM38 145l349 214h-338v141h648v-142l-343 -216h357v-142h-673v145z" />
    <glyph glyph-name="florin" unicode="&#x192;" horiz-adv-x="687" 
d="M605 553c-83 0 -114 -33 -124 -115l-1 -10h155v-155h-174l-51 -423h-277l53 423h-146v155h165l2 12c29 229 169 285 370 285c53 0 100 -10 102 -10v-167c-1 0 -36 5 -74 5z" />
    <glyph glyph-name="AEacute" unicode="&#x1fc;" horiz-adv-x="1467" 
d="M1301 883l-186 -123h-200l149 123h237zM921 172h492v-172h-748v135h-279l-91 -135h-287l533 710h865v-172h-485v-101h468v-158h-468v-107zM485 284h180v268z" />
    <glyph glyph-name="aeacute" unicode="&#x1fd;" horiz-adv-x="1263" 
d="M925 730l-206 -161h-194l163 161h237zM1247 225v-24h-492c15 -48 67 -75 145 -75c53 0 108 23 140 58l183 -79c-70 -81 -187 -124 -334 -124c-137 0 -240 35 -302 99c-58 -68 -148 -99 -279 -99c-172 0 -270 58 -270 158c0 96 89 151 255 159l217 10v5
c0 46 -35 72 -95 72c-61 0 -103 -22 -108 -58h-258c15 115 163 192 368 192c102 0 178 -18 229 -54c61 35 142 54 238 54c230 0 363 -108 363 -294zM752 316h253c-9 46 -52 80 -122 80c-78 0 -121 -27 -131 -80zM514 203v16l-144 -7c-50 -2 -78 -22 -78 -53
c0 -32 33 -50 92 -50c80 0 130 35 130 94z" />
    <glyph glyph-name="Oslashacute" unicode="&#x1fe;" horiz-adv-x="994" 
d="M787 883l-186 -123h-200l149 123h237zM857 624c78 -65 121 -157 121 -269c0 -233 -187 -380 -481 -380c-112 0 -209 21 -285 60l-75 -68l-70 57l68 62c-77 65 -120 157 -120 269c0 233 187 380 482 380c112 0 209 -21 285 -61l75 68l69 -55zM285 355
c0 -41 10 -77 29 -106l301 273c-32 18 -72 28 -118 28c-128 0 -212 -78 -212 -195zM497 161c128 0 211 77 211 194c0 41 -10 77 -29 107l-300 -274c33 -17 73 -27 118 -27z" />
    <glyph glyph-name="oslashacute" unicode="&#x1ff;" horiz-adv-x="837" 
d="M722 730l-206 -161h-194l163 161h237zM735 430c56 -46 87 -107 87 -180c0 -165 -159 -269 -403 -269c-97 0 -180 16 -246 46l-89 -64l-55 51l76 54c-58 46 -90 108 -90 182c0 165 159 269 404 269c98 0 182 -17 247 -47l91 65l52 -54zM270 250c0 -20 4 -38 13 -54
l219 158c-23 12 -51 18 -83 18c-89 0 -149 -48 -149 -122zM419 128c88 0 148 49 148 122c0 19 -4 36 -11 51l-218 -156c22 -11 50 -17 81 -17z" />
    <glyph glyph-name="Scommaaccent" unicode="&#x218;" horiz-adv-x="880" 
d="M433 -25c-189 0 -367 64 -453 147l165 144c69 -62 180 -116 303 -116c106 0 156 20 156 58c0 27 -18 37 -78 44l-212 25c-180 22 -268 88 -268 226c0 145 144 232 396 232c156 0 304 -33 412 -109l-141 -150c-59 52 -168 88 -285 88c-85 0 -130 -17 -130 -50
c0 -28 21 -39 92 -47l183 -18c205 -21 287 -80 287 -216c0 -165 -160 -258 -427 -258zM407 -257l-30 65c56 8 75 17 79 40h-118v108h228v-80c0 -64 -44 -120 -159 -133z" />
    <glyph glyph-name="scommaaccent" unicode="&#x219;" horiz-adv-x="762" 
d="M403 -19c-178 0 -311 31 -403 96l101 113c74 -48 167 -73 324 -73c70 0 93 6 93 25c0 16 -11 22 -47 25l-204 20c-158 16 -228 67 -228 162c0 116 111 170 346 170c134 0 248 -18 343 -65l-75 -121c-80 37 -166 53 -289 53c-74 0 -102 -5 -102 -24c0 -14 11 -20 52 -24
l209 -19c156 -14 219 -58 219 -154c0 -122 -112 -184 -339 -184zM348 -257l-30 65c56 8 75 17 79 40h-118v108h228v-80c0 -64 -44 -120 -159 -133z" />
    <glyph glyph-name="uni021A" unicode="&#x21a;" horiz-adv-x="821" 
d="M812 710v-195h-274v-515h-255v515h-273v195h802zM296 -152v108h228v-80c0 -64 -44 -120 -159 -133l-30 65c56 8 75 17 79 40h-118z" />
    <glyph glyph-name="uni021B" unicode="&#x21b;" horiz-adv-x="630" 
d="M-5 354v146h143v110l246 84v-194h212v-146h-212v-98c0 -62 36 -93 116 -93c45 0 78 6 94 11v-165c-35 -14 -84 -24 -165 -24c-166 0 -291 48 -291 219v150h-143zM356 -257l-30 65c56 8 75 17 79 40h-118v108h228v-80c0 -64 -44 -120 -159 -133z" />
    <glyph glyph-name="uni0237" unicode="&#x237;" horiz-adv-x="393" 
d="M57 -207c-30 0 -65 3 -88 11v168c13 -3 32 -4 47 -4c42 0 62 28 62 89v443h246v-472c0 -159 -73 -235 -267 -235z" />
    <glyph glyph-name="uni0243" unicode="&#x243;" horiz-adv-x="959" 
d="M765 362c109 -16 165 -73 165 -166c0 -124 -101 -196 -275 -196h-10v-107h-87v107h-166v-107h-88v107h-226v695h226v90h88v-90h166v90h87v-90h6c171 0 262 -61 262 -177c0 -79 -55 -137 -148 -156zM333 542v-123h239c48 0 75 22 75 63c0 39 -26 60 -75 60h-239zM582 153
c53 0 82 22 82 64c0 37 -31 60 -82 60h-249v-124h249z" />
    <glyph glyph-name="circumflex" unicode="&#x2c6;" horiz-adv-x="600" 
d="M596 569h-186l-90 97l-90 -97h-186l151 161h250z" />
    <glyph glyph-name="caron" unicode="&#x2c7;" horiz-adv-x="600" 
d="M44 726h186l90 -97l90 97h186l-151 -161h-250z" />
    <glyph glyph-name="breve" unicode="&#x2d8;" horiz-adv-x="600" 
d="M213 730c7 -45 31 -67 79 -67s73 22 79 67h158c-9 -114 -100 -166 -237 -166s-228 52 -237 166h158z" />
    <glyph glyph-name="dotaccent" unicode="&#x2d9;" horiz-adv-x="600" 
d="M50 564v174h254v-174h-254z" />
    <glyph glyph-name="ring" unicode="&#x2da;" horiz-adv-x="600" 
d="M239 557c-130 0 -200 53 -200 130c0 78 70 131 200 131s199 -53 199 -131c0 -77 -69 -130 -199 -130zM239 633c56 0 84 22 84 54s-28 54 -84 54c-57 0 -84 -22 -84 -54s27 -54 84 -54z" />
    <glyph glyph-name="ogonek" unicode="&#x2db;" horiz-adv-x="600" 
d="M444 -99c-7 -70 -84 -113 -205 -113c-120 0 -189 39 -189 107c0 47 30 83 106 105h200c-112 -8 -146 -47 -146 -83c0 -22 19 -39 43 -39c26 0 43 13 47 39z" />
    <glyph glyph-name="tilde" unicode="&#x2dc;" horiz-adv-x="600" 
d="M449 584c-101 0 -142 53 -203 53c-35 0 -53 -17 -66 -63l-121 56c22 88 75 128 164 128c101 0 143 -53 203 -53c34 0 54 15 66 63l121 -56c-21 -87 -74 -128 -164 -128z" />
    <glyph glyph-name="hungarumlaut" unicode="&#x2dd;" horiz-adv-x="600" 
d="M94 569l157 161h184l-170 -161h-171zM352 569l157 161h184l-170 -161h-171z" />
    <glyph glyph-name="gravecomb" unicode="&#x300;" horiz-adv-x="0" 
d="M15 569h-194l-206 161h237z" />
    <glyph glyph-name="acutecomb" unicode="&#x301;" horiz-adv-x="0" 
d="M-399 569l163 161h237l-206 -161h-194z" />
    <glyph glyph-name="uni0302" unicode="&#x302;" horiz-adv-x="0" 
d="M-44 569h-186l-90 97l-90 -97h-186l151 161h250z" />
    <glyph glyph-name="tildecomb" unicode="&#x303;" horiz-adv-x="0" 
d="M-223 584c-101 0 -142 53 -203 53c-35 0 -53 -17 -66 -63l-121 56c22 88 75 128 164 128c101 0 143 -53 203 -53c34 0 54 15 66 63l121 -56c-21 -87 -74 -128 -164 -128z" />
    <glyph glyph-name="uni0304" unicode="&#x304;" horiz-adv-x="0" 
d="M-574 583v126h515v-126h-515z" />
    <glyph glyph-name="uni0306" unicode="&#x306;" horiz-adv-x="0" 
d="M-371 730c7 -45 31 -67 79 -67s73 22 79 67h158c-9 -114 -100 -166 -237 -166s-228 52 -237 166h158z" />
    <glyph glyph-name="uni0307" unicode="&#x307;" horiz-adv-x="0" 
d="M-304 564v174h254v-174h-254z" />
    <glyph glyph-name="uni0308" unicode="&#x308;" horiz-adv-x="0" 
d="M-584 569v160h215v-160h-215zM-248 569v160h215v-160h-215z" />
    <glyph glyph-name="uni030A" unicode="&#x30a;" horiz-adv-x="0" 
d="M-239 557c-130 0 -200 53 -200 130c0 78 70 131 200 131s199 -53 199 -131c0 -77 -69 -130 -199 -130zM-239 633c56 0 84 22 84 54s-28 54 -84 54c-57 0 -84 -22 -84 -54s27 -54 84 -54z" />
    <glyph glyph-name="uni030B" unicode="&#x30b;" horiz-adv-x="0" 
d="M-649 569l157 161h184l-170 -161h-171zM-391 569l157 161h184l-170 -161h-171z" />
    <glyph glyph-name="uni030C" unicode="&#x30c;" horiz-adv-x="0" 
d="M-596 726h186l90 -97l90 97h186l-151 -161h-250z" />
    <glyph glyph-name="uni0312" unicode="&#x312;" horiz-adv-x="0" 
d="M-119 781l30 -65c-56 -8 -75 -17 -79 -40h118v-108h-228v80c0 64 44 120 159 133z" />
    <glyph glyph-name="uni0326" unicode="&#x326;" horiz-adv-x="0" 
d="M-209 -257l-30 65c56 8 75 17 79 40h-118v108h228v-80c0 -64 -44 -120 -159 -133z" />
    <glyph glyph-name="uni0327" unicode="&#x327;" horiz-adv-x="0" 
d="M-335 1h106l-51 -62c25 12 53 17 85 17c90 0 144 -36 144 -99c0 -66 -70 -102 -195 -102c-81 0 -138 21 -170 55l108 37c16 -15 37 -23 63 -23c30 0 47 13 47 34c0 20 -17 32 -46 32c-20 0 -37 -5 -47 -16l-118 21z" />
    <glyph glyph-name="uni0328" unicode="&#x328;" horiz-adv-x="0" 
d="M-51 -99c-7 -70 -84 -113 -205 -113c-120 0 -189 39 -189 107c0 47 30 83 106 105h200c-112 -8 -146 -47 -146 -83c0 -22 19 -39 43 -39c26 0 43 13 47 39z" />
    <glyph glyph-name="uni0394" unicode="&#x394;" horiz-adv-x="1011" 
d="M5 0l387 710h227l387 -710h-1001zM504 495l-166 -322h332z" />
    <glyph glyph-name="uni03A9" unicode="&#x3a9;" horiz-adv-x="948" 
d="M902 0h-362l-26 295c90 13 129 63 129 138c0 72 -57 134 -169 134s-169 -62 -169 -134c0 -75 39 -125 129 -138l-25 -295h-363v173h183l5 27c-115 33 -195 108 -195 236c0 181 176 300 435 300s435 -119 435 -300c0 -128 -80 -203 -194 -236l4 -27h183v-173z" />
    <glyph glyph-name="uni03BC" unicode="&#x3bc;" horiz-adv-x="897" 
d="M582 500h246v-500h-241v106c-45 -84 -144 -125 -255 -125c-13 0 -25 1 -37 2v-178h-226v695h246v-213c0 -94 41 -141 124 -141c92 0 143 56 143 145v209z" />
    <glyph glyph-name="pi" unicode="&#x3c0;" horiz-adv-x="968" 
d="M947 2c-18 -6 -53 -16 -126 -16c-187 0 -226 78 -226 185v183h-212v-354h-246v354h-117v146h928v-146h-107v-151c0 -47 26 -60 62 -60c24 0 33 5 44 5v-146z" />
    <glyph glyph-name="uni0E3F" unicode="&#xe3f;" horiz-adv-x="959" 
d="M765 362c109 -16 165 -71 165 -163c0 -133 -106 -199 -275 -199h-133v-107h-79v107h-365v695h365v90h79v-90h128c168 0 263 -54 263 -178c0 -78 -55 -136 -148 -155zM318 551v-142h125v142h-125zM587 551h-65v-142h65c49 0 74 26 74 73c0 46 -25 69 -74 69zM318 144h125
v142h-125v-142zM597 144c50 0 81 23 81 74c0 46 -31 68 -81 68h-75v-142h75z" />
    <glyph glyph-name="Wgrave" unicode="&#x1e80;" horiz-adv-x="1398" 
d="M799 760h-200l-186 123h237zM257 0l-242 710h257l114 -399c7 -26 14 -51 14 -76h5c2 25 12 52 21 76l138 399h270l138 -399c9 -24 19 -51 21 -76h5c0 25 7 50 14 76l114 399h257l-242 -710h-287l-137 400c-7 20 -14 43 -15 67h-5c-2 -24 -9 -47 -15 -67l-138 -400h-287z
" />
    <glyph glyph-name="wgrave" unicode="&#x1e81;" horiz-adv-x="1152" 
d="M680 569h-194l-206 161h237zM208 0l-198 500h244l77 -260c4 -14 9 -34 14 -63h2c3 28 11 49 16 63l91 260h244l92 -260c5 -14 12 -35 16 -63h2c4 29 9 49 13 63l77 260h244l-197 -500h-262l-86 239c-10 25 -16 48 -19 70h-4c-3 -22 -9 -45 -18 -70l-87 -239h-261z" />
    <glyph glyph-name="Wacute" unicode="&#x1e82;" horiz-adv-x="1398" 
d="M599 760l149 123h237l-186 -123h-200zM257 0l-242 710h257l114 -399c7 -26 14 -51 14 -76h5c2 25 12 52 21 76l138 399h270l138 -399c9 -24 19 -51 21 -76h5c0 25 7 50 14 76l114 399h257l-242 -710h-287l-137 400c-7 20 -14 43 -15 67h-5c-2 -24 -9 -47 -15 -67
l-138 -400h-287z" />
    <glyph glyph-name="wacute" unicode="&#x1e83;" horiz-adv-x="1152" 
d="M470 569l163 161h237l-206 -161h-194zM208 0l-198 500h244l77 -260c4 -14 9 -34 14 -63h2c3 28 11 49 16 63l91 260h244l92 -260c5 -14 12 -35 16 -63h2c4 29 9 49 13 63l77 260h244l-197 -500h-262l-86 239c-10 25 -16 48 -19 70h-4c-3 -22 -9 -45 -18 -70l-87 -239
h-261z" />
    <glyph glyph-name="Wdieresis" unicode="&#x1e84;" horiz-adv-x="1398" 
d="M424 760v123h215v-123h-215zM761 760v123h214v-123h-214zM257 0l-242 710h257l114 -399c7 -26 14 -51 14 -76h5c2 25 12 52 21 76l138 399h270l138 -399c9 -24 19 -51 21 -76h5c0 25 7 50 14 76l114 399h257l-242 -710h-287l-137 400c-7 20 -14 43 -15 67h-5
c-2 -24 -9 -47 -15 -67l-138 -400h-287z" />
    <glyph glyph-name="wdieresis" unicode="&#x1e85;" horiz-adv-x="1152" 
d="M300 569v160h215v-160h-215zM636 569v160h215v-160h-215zM208 0l-198 500h244l77 -260c4 -14 9 -34 14 -63h2c3 28 11 49 16 63l91 260h244l92 -260c5 -14 12 -35 16 -63h2c4 29 9 49 13 63l77 260h244l-197 -500h-262l-86 239c-10 25 -16 48 -19 70h-4
c-3 -22 -9 -45 -18 -70l-87 -239h-261z" />
    <glyph glyph-name="Ygrave" unicode="&#x1ef2;" horiz-adv-x="917" 
d="M562 760h-200l-186 123h237zM331 0v234l-345 476h284l166 -259c19 -26 23 -35 26 -43h2c3 8 7 17 26 43l175 259h267l-345 -476v-234h-256z" />
    <glyph glyph-name="ygrave" unicode="&#x1ef3;" horiz-adv-x="809" 
d="M510 569h-194l-206 161h237zM201 -214c-38 0 -111 2 -151 13v178c33 -6 73 -10 108 -10c39 0 107 5 131 27l1 2l-299 504h271l116 -249c16 -33 22 -44 31 -70h5c10 26 16 35 29 66l113 253h262l-280 -521c-72 -134 -165 -193 -337 -193z" />
    <glyph glyph-name="uni2002" unicode="&#x2002;" horiz-adv-x="500" 
 />
    <glyph glyph-name="uni2003" unicode="&#x2003;" horiz-adv-x="1000" 
 />
    <glyph glyph-name="uni2004" unicode="&#x2004;" horiz-adv-x="0" 
 />
    <glyph glyph-name="uni2005" unicode="&#x2005;" horiz-adv-x="250" 
 />
    <glyph glyph-name="uni2009" unicode="&#x2009;" horiz-adv-x="135" 
 />
    <glyph glyph-name="uni200A" unicode="&#x200a;" horiz-adv-x="75" 
 />
    <glyph glyph-name="endash" unicode="&#x2013;" horiz-adv-x="783" 
d="M40 381h703v-208h-703v208z" />
    <glyph glyph-name="emdash" unicode="&#x2014;" horiz-adv-x="1060" 
d="M40 386h980v-217h-980v217z" />
    <glyph glyph-name="quoteleft" unicode="&#x2018;" horiz-adv-x="328" 
d="M241 738l18 -87c-69 -11 -97 -39 -97 -83v-7h116v-207h-228v197c0 85 47 175 191 187z" />
    <glyph glyph-name="quoteright" unicode="&#x2019;" horiz-adv-x="328" 
d="M87 326l-18 87c69 11 97 39 97 83v7h-116v207h228v-197c0 -85 -47 -175 -191 -187z" />
    <glyph glyph-name="quotesinglbase" unicode="&#x201a;" horiz-adv-x="328" 
d="M87 -177l-18 87c69 11 97 39 97 83v7h-116v207h228v-197c0 -85 -47 -175 -191 -187z" />
    <glyph glyph-name="quotedblleft" unicode="&#x201c;" horiz-adv-x="619" 
d="M241 738l18 -87c-69 -11 -97 -39 -97 -83v-7h116v-207h-228v197c0 85 47 175 191 187zM532 738l18 -87c-69 -11 -97 -39 -97 -83v-7h116v-207h-228v197c0 85 47 175 191 187z" />
    <glyph glyph-name="quotedblright" unicode="&#x201d;" horiz-adv-x="619" 
d="M87 326l-18 87c69 11 97 39 97 83v7h-116v207h228v-197c0 -85 -47 -175 -191 -187zM378 326l-18 87c69 11 97 39 97 83v7h-116v207h228v-197c0 -85 -47 -175 -191 -187z" />
    <glyph glyph-name="quotedblbase" unicode="&#x201e;" horiz-adv-x="619" 
d="M87 -177l-18 87c69 11 97 39 97 83v7h-116v207h228v-197c0 -85 -47 -175 -191 -187zM378 -177l-18 87c69 11 97 39 97 83v7h-116v207h228v-197c0 -85 -47 -175 -191 -187z" />
    <glyph glyph-name="dagger" unicode="&#x2020;" horiz-adv-x="645" 
d="M397 378v-436h-149v436h-226v122h226v220h149v-220h226v-122h-226z" />
    <glyph glyph-name="daggerdbl" unicode="&#x2021;" horiz-adv-x="645" 
d="M623 378h-226v-93h226v-122h-226v-221h-149v221h-226v122h226v93h-226v122h226v220h149v-220h226v-122z" />
    <glyph glyph-name="bullet" unicode="&#x2022;" horiz-adv-x="397" 
d="M198 190c-85 0 -148 59 -148 145c0 89 63 148 148 148c86 0 149 -57 149 -148c0 -86 -63 -145 -149 -145z" />
    <glyph glyph-name="ellipsis" unicode="&#x2026;" horiz-adv-x="1148" 
d="M296 189v-189h-246v189h246zM697 189v-189h-246v189h246zM1098 189v-189h-246v189h246z" />
    <glyph glyph-name="perthousand" unicode="&#x2030;" horiz-adv-x="1852" 
d="M134 -14l823 744h180l-823 -744h-180zM303 321c-171 0 -284 78 -284 201c0 120 113 199 283 199c167 0 284 -80 284 -201s-117 -199 -283 -199zM303 439c56 0 93 30 93 81c0 52 -37 83 -94 83s-96 -30 -96 -81c0 -53 39 -83 97 -83zM956 -17c-171 0 -284 78 -284 201
c0 120 113 199 283 199c167 0 284 -80 284 -201s-117 -199 -283 -199zM1551 -17c-171 0 -284 78 -284 201c0 120 113 199 283 199c167 0 284 -80 284 -201s-117 -199 -283 -199zM956 101c56 0 93 30 93 81c0 52 -37 83 -94 83s-96 -30 -96 -81c0 -53 39 -83 97 -83z
M1551 101c56 0 93 30 93 81c0 52 -37 83 -94 83s-96 -30 -96 -81c0 -53 39 -83 97 -83z" />
    <glyph glyph-name="guilsinglleft" unicode="&#x2039;" horiz-adv-x="502" 
d="M261 67l-242 210l247 205h221l-246 -204l243 -211h-223z" />
    <glyph glyph-name="guilsinglright" unicode="&#x203a;" horiz-adv-x="502" 
d="M241 67h-223l243 211l-246 204h221l247 -205z" />
    <glyph glyph-name="fraction" unicode="&#x2044;" horiz-adv-x="288" 
d="M-244 -17l583 744h193l-583 -744h-193z" />
    <glyph glyph-name="uni20A9" unicode="&#x20a9;" horiz-adv-x="1409" 
d="M1383 373h-120l-17 -52h137v-66h-159l-83 -255h-281l-74 255h-162l-75 -255h-280l-83 255h-160v66h138l-17 52h-121v66h100l-84 256h236l60 -256h156l77 256h268l77 -256h155l61 256h236l-84 -256h99v-66zM702 568c-5 -49 -10 -81 -24 -129h54c-14 48 -19 80 -25 129h-5z
M354 373l12 -52h92l16 52h-120zM644 321h122l-15 52h-92zM1043 321l12 52h-119l15 -52h92zM409 127c4 37 10 68 29 128h-56c14 -63 18 -92 21 -128h6zM1006 127c3 36 7 65 21 128h-56c19 -60 26 -91 30 -128h5z" />
    <glyph glyph-name="Euro" unicode="&#x20ac;" horiz-adv-x="1042" 
d="M586 155c104 0 167 43 193 106l235 -82c-72 -128 -227 -204 -437 -204c-255 0 -411 117 -455 280h-117v66h105c-1 11 -1 22 -1 33v17h-104v66h115c42 162 211 281 466 281c211 0 372 -77 436 -202l-245 -68c-26 55 -86 90 -192 90c-110 0 -171 -43 -199 -101h311v-66
h-327c-1 -6 -1 -11 -1 -17c0 -11 1 -22 2 -33h326v-66h-306c29 -58 90 -100 195 -100z" />
    <glyph glyph-name="uni20B9" unicode="&#x20b9;" horiz-adv-x="972" 
d="M904 562h-237c13 -23 21 -47 24 -72h213v-75h-215c-15 -89 -84 -185 -288 -191l280 -224h-309l-294 244v95h209c83 0 120 33 131 76h-340v75h340c-13 42 -51 72 -130 72h-210v133h826v-133z" />
    <glyph glyph-name="uni20BA" unicode="&#x20ba;" horiz-adv-x="881" 
d="M640 303l242 -28c-52 -187 -145 -275 -379 -275h-369v267l-115 -23v73l115 23v59l-115 -23v72l115 23v224h255v-174l279 55v-72l-279 -55v-59l279 55v-73l-279 -55v-142h72c96 0 159 52 179 128z" />
    <glyph glyph-name="uni20BD" unicode="&#x20bd;" horiz-adv-x="963" 
d="M641 217h-261v-63h268v-75h-268v-79h-255v79h-126v75h126v63h-126v157h126v321h513c197 0 315 -87 315 -233c0 -150 -121 -245 -312 -245zM380 533v-159h192c72 0 110 28 110 80c0 51 -37 79 -109 79h-193z" />
    <glyph glyph-name="uni2105" unicode="&#x2105;" horiz-adv-x="1299" 
d="M17 533c0 119 112 198 282 198c153 0 260 -61 281 -159l-202 -16c-9 31 -39 48 -79 48c-52 0 -85 -28 -85 -71c0 -47 33 -74 86 -74c41 0 70 19 80 50l204 -11c-14 -101 -130 -167 -284 -167c-172 0 -283 79 -283 202zM350 -14h-229l828 744h228zM999 -19
c-170 0 -283 77 -283 201c0 120 113 198 282 198c166 0 283 -79 283 -201c0 -121 -117 -198 -282 -198zM1082 179c0 46 -33 74 -84 74s-85 -27 -85 -71c0 -47 34 -74 86 -74c50 0 83 27 83 71z" />
    <glyph glyph-name="uni2113" unicode="&#x2113;" horiz-adv-x="707" 
d="M404 223c23 -49 69 -71 143 -71c42 0 68 7 100 16v-168c-42 -12 -81 -19 -143 -19c-216 0 -305 64 -332 178c-42 -9 -87 -17 -135 -24l-36 153c57 10 112 20 162 30v179c0 180 140 246 285 246c173 0 256 -86 256 -215c0 -132 -104 -233 -300 -305zM387 518v-135
c66 32 104 75 104 138c0 44 -18 69 -50 69c-36 0 -54 -26 -54 -72z" />
    <glyph glyph-name="uni2116" unicode="&#x2116;" horiz-adv-x="1677" 
d="M78 0v710h265l291 -331c24 -31 45 -57 60 -88h5v110v309h231v-710h-250l-304 331c-17 21 -51 65 -61 90h-5v-109v-312h-232zM1299 198c-194 0 -320 92 -320 233c0 142 123 231 320 231s321 -89 321 -231s-127 -233 -321 -233zM1299 343c72 -1 117 33 117 88
c0 52 -45 86 -117 86c-71 0 -117 -34 -117 -86c0 -53 45 -87 117 -88zM988 0v141h622v-141h-622z" />
    <glyph glyph-name="trademark" unicode="&#x2122;" horiz-adv-x="1106" 
d="M146 304v287h-140v119h445v-119h-145v-287h-160zM503 304v406h223l51 -186c11 -40 17 -69 18 -84h1c1 15 7 44 18 84l52 186h222v-406h-137v202c0 37 1 62 3 98h-1c-10 -39 -14 -50 -23 -81l-67 -219h-135l-66 219c-10 31 -14 42 -24 81h-1c2 -36 3 -61 3 -98v-202h-137z
" />
    <glyph glyph-name="uni2126" unicode="&#x2126;" horiz-adv-x="948" 
d="M902 0h-362l-26 295c90 13 129 63 129 138c0 72 -57 134 -169 134s-169 -62 -169 -134c0 -75 39 -125 129 -138l-25 -295h-363v173h183l5 27c-115 33 -195 108 -195 236c0 181 176 300 435 300s435 -119 435 -300c0 -128 -80 -203 -194 -236l4 -27h183v-173z" />
    <glyph glyph-name="estimated" unicode="&#x212e;" horiz-adv-x="897" 
d="M881 338h-584v-248c58 -20 121 -27 174 -27c142 0 239 36 321 128l69 -48c-93 -116 -226 -162 -390 -162c-239 0 -456 108 -456 370c0 248 211 373 450 373c255 0 416 -137 416 -343v-43zM637 619c-58 25 -124 31 -177 31c-48 0 -107 -7 -163 -28v-208h340v205z" />
    <glyph glyph-name="uni2153" unicode="&#x2153;" horiz-adv-x="1190" 
d="M118 -17l583 744h193l-583 -744h-193zM154 314v230c-21 -9 -59 -15 -100 -15h-33v116h20c62 0 104 21 130 65h118v-396h-135zM919 -14c-148 0 -235 50 -247 143l139 14c14 -42 44 -57 108 -57c60 0 97 8 97 35c0 28 -25 33 -80 33h-68v87h70c46 0 68 9 68 32
c0 28 -30 37 -86 37c-70 0 -98 -20 -106 -60l-136 18c9 88 94 142 244 142c137 0 226 -45 226 -122c0 -48 -36 -81 -98 -85c77 -11 110 -39 110 -93c0 -75 -95 -124 -241 -124z" />
    <glyph glyph-name="uni2154" unicode="&#x2154;" horiz-adv-x="1378" 
d="M306 -17l583 744h193l-583 -744h-193zM24 314v101c173 40 336 78 336 149c0 35 -35 57 -91 57c-58 0 -93 -27 -93 -72c0 -6 2 -16 4 -21l-145 15c-3 9 -4 15 -4 24c0 90 101 157 239 157c148 0 237 -57 237 -152c0 -97 -106 -132 -206 -148h214v-110h-491zM1107 -14
c-148 0 -235 50 -247 143l139 14c14 -42 44 -57 108 -57c60 0 97 8 97 35c0 28 -25 33 -80 33h-68v87h70c46 0 68 9 68 32c0 28 -30 37 -86 37c-70 0 -98 -20 -106 -60l-136 18c9 88 94 142 244 142c137 0 226 -45 226 -122c0 -48 -36 -81 -98 -85c77 -11 110 -39 110 -93
c0 -75 -95 -124 -241 -124z" />
    <glyph glyph-name="oneeighth" unicode="&#x215b;" horiz-adv-x="1200" 
d="M701 727h193l-583 -744h-193zM154 314v230c-21 -9 -59 -15 -100 -15h-33v116h20c62 0 104 21 130 65h118v-396h-135zM1083 218c65 -22 90 -53 90 -102c0 -80 -91 -130 -242 -130c-163 0 -254 43 -254 118c0 46 37 79 97 93c-59 21 -81 50 -81 94c0 73 90 119 235 119
c139 0 230 -45 230 -114c0 -34 -31 -64 -75 -78zM928 323c-64 0 -94 -10 -94 -31c0 -19 21 -28 88 -39l46 -8c5 -1 10 -2 15 -2c21 17 33 33 33 43c0 25 -28 37 -88 37zM931 81c61 0 99 14 99 36s-9 27 -110 45l-45 9c-36 -12 -54 -30 -54 -52c0 -26 36 -38 110 -38z" />
    <glyph glyph-name="threeeighths" unicode="&#x215c;" horiz-adv-x="1378" 
d="M879 727h193l-583 -744h-193zM510 424c0 -75 -95 -124 -241 -124c-148 0 -235 50 -247 143l139 14c14 -42 44 -57 108 -57c60 0 97 8 97 35c0 28 -25 33 -80 33h-68v87h70c46 0 68 9 68 32c0 28 -30 37 -86 37c-70 0 -98 -20 -106 -60l-136 18c9 88 94 142 244 142
c137 0 226 -45 226 -122c0 -48 -36 -81 -98 -85c77 -11 110 -39 110 -93zM1261 218c65 -22 90 -53 90 -102c0 -80 -91 -130 -242 -130c-163 0 -254 43 -254 118c0 46 37 79 97 93c-59 21 -81 50 -81 94c0 73 90 119 235 119c139 0 230 -45 230 -114c0 -34 -31 -64 -75 -78z
M1106 323c-64 0 -94 -10 -94 -31c0 -19 21 -28 88 -39l46 -8c5 -1 10 -2 15 -2c21 17 33 33 33 43c0 25 -28 37 -88 37zM1109 81c61 0 99 14 99 36s-9 27 -110 45l-45 9c-36 -12 -54 -30 -54 -52c0 -26 36 -38 110 -38z" />
    <glyph glyph-name="fiveeighths" unicode="&#x215d;" horiz-adv-x="1375" 
d="M876 727h193l-583 -744h-193zM508 455c0 -96 -90 -155 -238 -155c-133 0 -223 45 -242 122l139 20c9 -27 47 -42 107 -42c59 0 92 18 92 55c0 32 -31 50 -87 50c-55 0 -84 -16 -100 -34l-127 10l30 229h392v-85h-284l-13 -71c22 28 78 45 147 45c119 0 184 -51 184 -144z
M1258 218c65 -22 90 -53 90 -102c0 -80 -91 -130 -242 -130c-163 0 -254 43 -254 118c0 46 37 79 97 93c-59 21 -81 50 -81 94c0 73 90 119 235 119c139 0 230 -45 230 -114c0 -34 -31 -64 -75 -78zM1103 323c-64 0 -94 -10 -94 -31c0 -19 21 -28 88 -39l46 -8
c5 -1 10 -2 15 -2c21 17 33 33 33 43c0 25 -28 37 -88 37zM1106 81c61 0 99 14 99 36s-9 27 -110 45l-45 9c-36 -12 -54 -30 -54 -52c0 -26 36 -38 110 -38z" />
    <glyph glyph-name="seveneighths" unicode="&#x215e;" horiz-adv-x="1265" 
d="M766 727h193l-583 -744h-193zM104 314c16 111 72 212 203 289h-288v107h440v-97c-115 -63 -182 -168 -198 -298v-1h-157zM1148 218c65 -22 90 -53 90 -102c0 -80 -91 -130 -242 -130c-163 0 -254 43 -254 118c0 46 37 79 97 93c-59 21 -81 50 -81 94c0 73 90 119 235 119
c139 0 230 -45 230 -114c0 -34 -31 -64 -75 -78zM993 323c-64 0 -94 -10 -94 -31c0 -19 21 -28 88 -39l46 -8c5 -1 10 -2 15 -2c21 17 33 33 33 43c0 25 -28 37 -88 37zM104 312v2v-2zM996 81c61 0 99 14 99 36s-9 27 -110 45l-45 9c-36 -12 -54 -30 -54 -52
c0 -26 36 -38 110 -38z" />
    <glyph glyph-name="arrowleft" unicode="&#x2190;" horiz-adv-x="1216" 
d="M1138 273h-834v-113l-226 170l226 170v-113h834v-114z" />
    <glyph glyph-name="arrowup" unicode="&#x2191;" horiz-adv-x="497" 
d="M187 -35v559h-109l171 226l170 -226h-109v-559h-123z" />
    <glyph glyph-name="arrowright" unicode="&#x2192;" horiz-adv-x="1216" 
d="M78 387h834v113l226 -170l-226 -170v113h-834v114z" />
    <glyph glyph-name="arrowdown" unicode="&#x2193;" horiz-adv-x="497" 
d="M310 745v-559h109l-171 -226l-170 226h109v559h123z" />
    <glyph glyph-name="arrowboth" unicode="&#x2194;" horiz-adv-x="1033" 
d="M728 273h-424v-113l-226 170l226 170v-113h424v113l226 -170l-226 -170v113z" />
    <glyph glyph-name="arrowupdn" unicode="&#x2195;" horiz-adv-x="497" 
d="M78 191h109v333h-109l171 226l170 -226h-109v-333h109l-170 -226z" />
    <glyph glyph-name="uni2196" unicode="&#x2196;" horiz-adv-x="894" 
d="M176 529l-98 -114v295h274l-94 -95l558 -559l-81 -87z" />
    <glyph glyph-name="uni2197" unicode="&#x2197;" horiz-adv-x="894" 
d="M718 530l-559 -560l-81 87l558 559l-94 95h274v-295z" />
    <glyph glyph-name="uni2198" unicode="&#x2198;" horiz-adv-x="894" 
d="M718 192l98 114v-295h-274l94 95l-558 559l81 87z" />
    <glyph glyph-name="uni2199" unicode="&#x2199;" horiz-adv-x="894" 
d="M176 192l559 560l81 -87l-558 -559l94 -95h-274v295z" />
    <glyph glyph-name="uni21A9" unicode="&#x21a9;" horiz-adv-x="1244" 
d="M304 160l-226 170l226 170v-113h582c115 0 156 48 156 111c0 58 -41 101 -156 101h-453v114h445c199 0 287 -85 287 -215c0 -135 -88 -225 -305 -225h-556v-113z" />
    <glyph glyph-name="uni21AA" unicode="&#x21aa;" horiz-adv-x="1244" 
d="M940 160v113h-556c-217 0 -305 90 -305 225c0 130 88 215 287 215h445v-114h-453c-115 0 -156 -43 -156 -101c0 -63 41 -111 156 -111h582v113l226 -170z" />
    <glyph glyph-name="uni21B0" unicode="&#x21b0;" horiz-adv-x="1228" 
d="M1027 0v543h-723v-113l-226 170l226 170v-113h846v-657h-123z" />
    <glyph glyph-name="uni21B1" unicode="&#x21b1;" horiz-adv-x="1228" 
d="M201 0h-123v657h846v113l226 -170l-226 -170v113h-723v-543z" />
    <glyph glyph-name="uni21B2" unicode="&#x21b2;" horiz-adv-x="1228" 
d="M1027 710h123v-657h-846v-113l-226 170l226 170v-113h723v543z" />
    <glyph glyph-name="uni21B3" unicode="&#x21b3;" horiz-adv-x="1228" 
d="M201 710v-543h723v113l226 -170l-226 -170v113h-846v657h123z" />
    <glyph glyph-name="uni21B4" unicode="&#x21b4;" horiz-adv-x="1336" 
d="M1148 744v-558h109l-170 -226l-170 226h109v443h-948v115h1070z" />
    <glyph glyph-name="uni21BB" unicode="&#x21bb;" horiz-adv-x="1240" 
d="M992 188l-170 226h108c-31 141 -171 233 -363 233c-218 0 -370 -120 -370 -296c0 -173 152 -295 370 -295c128 0 233 41 298 111l80 -80c-85 -83 -213 -135 -378 -135c-305 0 -489 178 -489 399c0 223 184 401 489 401c277 0 453 -145 484 -338h111z" />
    <glyph glyph-name="uni21C4" unicode="&#x21c4;" horiz-adv-x="1278" 
d="M1134 407h-830v-113l-226 170l226 171v-113h830v-115zM974 253v113l226 -170l-226 -171v113h-828v115h828z" />
    <glyph glyph-name="uni21C5" unicode="&#x21c5;" horiz-adv-x="813" 
d="M503 0v533h-109l170 226l171 -226h-109v-533h-123zM249 -40l-171 226h109v534h123v-534h109z" />
    <glyph glyph-name="partialdiff" unicode="&#x2202;" horiz-adv-x="862" 
d="M350 721c296 0 458 -135 458 -383c0 -230 -150 -355 -425 -355c-218 0 -360 97 -360 250c0 142 118 228 312 228c100 0 179 -25 235 -72c-8 102 -84 155 -219 155c-64 0 -120 -13 -180 -39l-83 158c66 35 170 58 262 58zM397 132c98 0 165 49 173 124
c-39 37 -94 56 -170 56c-89 0 -139 -31 -139 -87c0 -55 55 -93 136 -93z" />
    <glyph glyph-name="emptyset" unicode="&#x2205;" horiz-adv-x="653" 
d="M568 461c41 -40 64 -92 64 -154c0 -144 -122 -238 -306 -238c-72 0 -135 15 -185 41l-77 -63l-49 47l69 57c-41 40 -64 92 -64 154c0 144 123 238 307 238c72 0 135 -15 184 -41l77 63l49 -47zM196 307c0 -20 5 -38 13 -53l182 149c-19 7 -40 11 -64 11
c-79 0 -131 -42 -131 -107zM326 198c79 0 131 42 131 107c0 20 -5 38 -14 54l-181 -149c18 -8 40 -12 64 -12z" />
    <glyph glyph-name="uni2206" unicode="&#x2206;" horiz-adv-x="1011" 
d="M5 0l387 710h227l387 -710h-1001zM504 495l-166 -322h332z" />
    <glyph glyph-name="product" unicode="&#x220f;" horiz-adv-x="977" 
d="M658 -88v599h-340v-599h-244v793h829v-793h-245z" />
    <glyph glyph-name="summation" unicode="&#x2211;" horiz-adv-x="851" 
d="M50 -88v168l307 244l-294 215v166h727v-175h-418l283 -203l-314 -240h461v-175h-752z" />
    <glyph glyph-name="minus" unicode="&#x2212;" horiz-adv-x="724" 
d="M40 259v139h644v-139h-644z" />
    <glyph glyph-name="radical" unicode="&#x221a;" horiz-adv-x="847" 
d="M11 395h267l103 -277l211 616h254l-325 -828h-273l-120 292h-117v197z" />
    <glyph glyph-name="infinity" unicode="&#x221e;" horiz-adv-x="827" 
d="M610 515c118 0 198 -74 198 -186c0 -110 -82 -188 -199 -188c-81 0 -145 31 -197 86c-54 -56 -116 -86 -194 -86c-119 0 -199 74 -199 186c0 110 83 188 200 188c80 0 144 -31 196 -86c55 56 116 86 195 86zM237 266c42 0 68 24 99 63c-32 42 -63 62 -101 62
c-44 0 -72 -25 -72 -63s30 -62 74 -62zM592 266c44 0 72 24 72 62s-30 63 -74 63c-42 0 -68 -25 -99 -64c32 -42 63 -61 101 -61z" />
    <glyph glyph-name="integral" unicode="&#x222b;" horiz-adv-x="549" 
d="M100 -115c-32 0 -62 4 -92 10v169c15 -2 28 -4 54 -4c61 0 89 30 89 95v335c0 156 107 244 297 244c33 0 65 -3 93 -7v-171c-16 3 -34 4 -55 4c-63 0 -90 -29 -90 -95v-338c0 -153 -109 -242 -296 -242z" />
    <glyph glyph-name="approxequal" unicode="&#x2248;" 
d="M557 334c-106 0 -221 70 -305 70c-60 0 -121 -21 -157 -50v125c34 29 98 50 155 50c122 0 217 -70 303 -70c61 0 121 21 157 50v-125c-33 -29 -97 -50 -153 -50zM557 139c-106 0 -221 70 -305 70c-60 0 -121 -21 -157 -50v125c34 29 98 50 155 50c122 0 217 -70 303 -70
c61 0 121 21 157 50v-125c-33 -29 -97 -50 -153 -50z" />
    <glyph glyph-name="notequal" unicode="&#x2260;" 
d="M707 365h-239l-35 -72h274v-121h-334l-54 -109h-105l54 109h-177v121h237l35 72h-272v121h332l52 105h105l-52 -105h179v-121z" />
    <glyph glyph-name="lessequal" unicode="&#x2264;" 
d="M677 145l-569 204v130l569 204v-146l-402 -122l402 -122v-148zM113 119h569v-119h-569v119z" />
    <glyph glyph-name="greaterequal" unicode="&#x2265;" 
d="M126 145v148l402 122l-402 122v146l569 -204v-130zM690 119v-119h-569v119h569z" />
    <glyph glyph-name="uni2460" unicode="&#x2460;" horiz-adv-x="920" 
d="M460 -25c-269 0 -445 146 -445 380c0 235 176 380 445 380s444 -145 444 -380c0 -234 -175 -380 -444 -380zM460 46c216 0 364 117 364 309s-148 309 -364 309s-365 -117 -365 -309s149 -309 365 -309zM417 152v230c-21 -9 -59 -15 -100 -15h-33v116h20
c62 0 104 21 130 65h118v-396h-135z" />
    <glyph glyph-name="uni2461" unicode="&#x2461;" horiz-adv-x="920" 
d="M460 -25c-269 0 -445 146 -445 380c0 235 176 380 445 380s444 -145 444 -380c0 -234 -175 -380 -444 -380zM460 46c216 0 364 117 364 309s-148 309 -364 309s-365 -117 -365 -309s149 -309 365 -309zM214 170v101c173 40 336 78 336 149c0 35 -35 57 -91 57
c-58 0 -93 -27 -93 -72c0 -6 2 -16 4 -21l-145 15c-3 9 -4 15 -4 24c0 90 101 157 239 157c148 0 237 -57 237 -152c0 -97 -106 -132 -206 -148h214v-110h-491z" />
    <glyph glyph-name="uni2462" unicode="&#x2462;" horiz-adv-x="920" 
d="M460 -25c-269 0 -445 146 -445 380c0 235 176 380 445 380s444 -145 444 -380c0 -234 -175 -380 -444 -380zM460 46c216 0 364 117 364 309s-148 309 -364 309s-365 -117 -365 -309s149 -309 365 -309zM463 143c-148 0 -235 50 -247 143l139 14c14 -42 44 -57 108 -57
c60 0 97 8 97 35c0 28 -25 33 -80 33h-68v87h70c46 0 68 9 68 32c0 28 -30 37 -86 37c-70 0 -98 -20 -106 -60l-136 18c9 88 94 142 244 142c137 0 226 -45 226 -122c0 -48 -36 -81 -98 -85c77 -11 110 -39 110 -93c0 -75 -95 -124 -241 -124z" />
    <glyph glyph-name="uni2463" unicode="&#x2463;" horiz-adv-x="920" 
d="M460 -25c-269 0 -445 146 -445 380c0 235 176 380 445 380s444 -145 444 -380c0 -234 -175 -380 -444 -380zM460 46c216 0 364 117 364 309s-148 309 -364 309s-365 -117 -365 -309s149 -309 365 -309zM697 235h-78v-78h-134v78h-300v85l272 233h162v-224h78v-94z
M485 463l-149 -134h149v134z" />
    <glyph glyph-name="uni2464" unicode="&#x2464;" horiz-adv-x="920" 
d="M460 -25c-269 0 -445 146 -445 380c0 235 176 380 445 380s444 -145 444 -380c0 -234 -175 -380 -444 -380zM460 46c216 0 364 117 364 309s-148 309 -364 309s-365 -117 -365 -309s149 -309 365 -309zM453 150c-133 0 -223 45 -242 122l139 20c9 -27 47 -42 107 -42
c59 0 92 18 92 55c0 32 -31 50 -87 50c-55 0 -84 -16 -100 -34l-127 10l30 229h392v-85h-284l-13 -71c22 28 78 45 147 45c119 0 184 -51 184 -144c0 -96 -90 -155 -238 -155z" />
    <glyph glyph-name="uni2465" unicode="&#x2465;" horiz-adv-x="920" 
d="M460 735c269 0 444 -145 444 -380c0 -234 -175 -380 -444 -380s-445 146 -445 380c0 235 176 380 445 380zM460 46c216 0 364 117 364 309s-148 309 -364 309s-365 -117 -365 -309s149 -309 365 -309zM491 434c128 0 203 -43 203 -139c0 -87 -95 -152 -233 -152
c-157 0 -254 84 -254 210c0 131 93 214 253 214c119 0 214 -35 233 -92l-142 -24c-21 22 -50 30 -94 30c-63 0 -101 -25 -112 -83c30 18 76 36 146 36zM461 243c54 0 91 24 91 52c0 35 -31 44 -87 44c-60 0 -97 -23 -114 -41c17 -41 56 -55 110 -55z" />
    <glyph glyph-name="uni2466" unicode="&#x2466;" horiz-adv-x="920" 
d="M460 735c269 0 444 -145 444 -380c0 -234 -175 -380 -444 -380s-445 146 -445 380c0 235 176 380 445 380zM460 46c216 0 364 117 364 309s-148 309 -364 309s-365 -117 -365 -309s149 -309 365 -309zM240 446v107h440v-97c-115 -63 -182 -168 -198 -298v-1h-157
c16 111 72 212 203 289h-288zM325 155v2v-2z" />
    <glyph glyph-name="uni2467" unicode="&#x2467;" horiz-adv-x="920" 
d="M460 735c269 0 444 -145 444 -380c0 -234 -175 -380 -444 -380s-445 146 -445 380c0 235 176 380 445 380zM460 46c216 0 364 117 364 309s-148 309 -364 309s-365 -117 -365 -309s149 -309 365 -309zM618 375c65 -22 90 -53 90 -102c0 -80 -91 -130 -242 -130
c-163 0 -254 43 -254 118c0 46 37 79 97 93c-59 21 -81 50 -81 94c0 73 90 119 235 119c139 0 230 -45 230 -114c0 -34 -31 -64 -75 -78zM463 480c-64 0 -94 -10 -94 -31c0 -19 21 -28 88 -39l46 -8c5 -1 10 -2 15 -2c21 17 33 33 33 43c0 25 -28 37 -88 37zM466 238
c61 0 99 14 99 36s-9 27 -110 45l-45 9c-36 -12 -54 -30 -54 -52c0 -26 36 -38 110 -38z" />
    <glyph glyph-name="uni2468" unicode="&#x2468;" horiz-adv-x="920" 
d="M460 735c269 0 444 -145 444 -380c0 -234 -175 -380 -444 -380s-445 146 -445 380c0 235 176 380 445 380zM460 46c216 0 364 117 364 309s-148 309 -364 309s-365 -117 -365 -309s149 -309 365 -309zM449 567c161 0 256 -81 256 -215c0 -125 -101 -209 -255 -209
c-120 0 -215 45 -234 110l141 24c15 -27 42 -37 97 -37c65 0 108 35 115 93c-34 -28 -86 -43 -150 -43c-132 0 -202 46 -202 134c0 86 92 143 232 143zM443 386c54 0 92 13 108 39c-19 30 -54 46 -102 46c-57 0 -90 -17 -90 -47c0 -25 27 -38 84 -38z" />
    <glyph glyph-name="uni24EA" unicode="&#x24ea;" horiz-adv-x="920" 
d="M460 -25c-269 0 -445 146 -445 380c0 235 176 380 445 380s444 -145 444 -380c0 -234 -175 -380 -444 -380zM460 46c216 0 364 117 364 309s-148 309 -364 309s-365 -117 -365 -309s149 -309 365 -309zM458 143c-156 0 -262 86 -262 211c0 129 104 213 263 213
c157 0 264 -84 264 -211s-107 -213 -265 -213zM458 246c75 0 122 37 122 110c0 74 -47 110 -121 110c-75 0 -121 -37 -121 -112c0 -71 47 -108 120 -108z" />
    <glyph glyph-name="uni24FF" unicode="&#x24ff;" horiz-adv-x="920" 
d="M460 -25c-269 0 -445 146 -445 380c0 235 176 380 445 380s444 -145 444 -380c0 -234 -175 -380 -444 -380zM459 143c157 0 265 86 265 213s-108 211 -264 211c-159 0 -264 -84 -264 -213c0 -125 106 -211 263 -211zM459 246c-74 0 -121 37 -121 108c0 75 47 112 122 112
c73 0 121 -36 121 -110c0 -73 -48 -110 -122 -110z" />
    <glyph glyph-name="lozenge" unicode="&#x25ca;" horiz-adv-x="750" 
d="M480 -17h-211l-261 372l261 370h211l262 -370zM374 546l-130 -191l130 -190l133 190z" />
    <glyph glyph-name="circle" unicode="&#x25cb;" horiz-adv-x="920" 
d="M460 -25c-269 0 -445 146 -445 380c0 235 176 380 445 380s444 -145 444 -380c0 -234 -175 -380 -444 -380zM460 46c216 0 364 117 364 309s-148 309 -364 309s-365 -117 -365 -309s149 -309 365 -309z" />
    <glyph glyph-name="uni2776" unicode="&#x2776;" horiz-adv-x="920" 
d="M460 -25c-269 0 -445 146 -445 380c0 235 176 380 445 380s444 -145 444 -380c0 -234 -175 -380 -444 -380zM417 152h136v396h-119c-26 -44 -67 -65 -130 -65h-20v-115h34c41 0 79 5 99 14v-230z" />
    <glyph glyph-name="uni2777" unicode="&#x2777;" horiz-adv-x="920" 
d="M460 -25c-269 0 -445 146 -445 380c0 235 176 380 445 380s444 -145 444 -380c0 -234 -175 -380 -444 -380zM214 170h492v109h-215c100 17 206 52 206 148c0 95 -89 152 -237 152c-137 0 -239 -66 -239 -156c0 -9 1 -15 4 -24l145 -15c-2 5 -4 15 -4 21c0 45 35 72 93 72
c56 0 91 -22 91 -57c0 -72 -163 -109 -336 -150v-100z" />
    <glyph glyph-name="uni2778" unicode="&#x2778;" horiz-adv-x="920" 
d="M460 -25c-269 0 -445 146 -445 380c0 235 176 380 445 380s444 -145 444 -380c0 -234 -175 -380 -444 -380zM463 143c146 0 242 49 242 124c0 54 -34 82 -110 93c61 4 98 37 98 85c0 77 -89 122 -226 122c-151 0 -236 -54 -245 -142l137 -18c7 40 36 60 105 60
c56 0 86 -9 86 -37c0 -23 -21 -32 -68 -32h-70v-87h68c56 0 80 -5 80 -33c0 -27 -37 -35 -97 -35c-64 0 -94 15 -107 57l-140 -14c13 -93 99 -143 247 -143z" />
    <glyph glyph-name="uni2779" unicode="&#x2779;" horiz-adv-x="920" 
d="M460 -25c-269 0 -445 146 -445 380c0 235 176 380 445 380s444 -145 444 -380c0 -234 -175 -380 -444 -380zM486 157h134v78h77v94h-77v224h-162l-272 -233v-85h300v-78zM337 329l149 134v-134h-149z" />
    <glyph glyph-name="uni277A" unicode="&#x277a;" horiz-adv-x="920" 
d="M460 -25c-269 0 -445 146 -445 380c0 235 176 380 445 380s444 -145 444 -380c0 -234 -175 -380 -444 -380zM453 150c148 0 238 59 238 155c0 93 -65 144 -184 144c-69 0 -125 -17 -148 -45l14 71h283v85h-391l-30 -229l127 -10c16 18 45 34 99 34c57 0 88 -18 88 -50
c0 -38 -33 -55 -92 -55c-60 0 -98 15 -107 42l-139 -20c19 -77 109 -122 242 -122z" />
    <glyph glyph-name="uni277B" unicode="&#x277b;" horiz-adv-x="920" 
d="M460 -25c-269 0 -445 146 -445 380c0 235 176 380 445 380s444 -145 444 -380c0 -234 -175 -380 -444 -380zM461 143c138 0 233 65 233 152c0 96 -75 139 -203 139c-71 0 -116 -18 -146 -36c10 58 49 83 111 83c45 0 74 -8 95 -30l142 24c-19 57 -114 92 -233 92
c-160 0 -254 -83 -254 -214c0 -126 97 -210 255 -210zM460 243c-52 0 -91 14 -109 55c17 18 54 41 114 41c55 0 87 -9 87 -44c0 -28 -37 -52 -92 -52z" />
    <glyph glyph-name="uni277C" unicode="&#x277c;" horiz-adv-x="920" 
d="M460 -25c-269 0 -445 146 -445 380c0 235 176 380 445 380s444 -145 444 -380c0 -234 -175 -380 -444 -380zM325 157h157c15 131 83 236 198 299v97h-440v-107h288c-132 -77 -188 -180 -203 -289z" />
    <glyph glyph-name="uni277D" unicode="&#x277d;" horiz-adv-x="920" 
d="M460 -25c-271 0 -445 146 -445 380s174 380 445 380c270 0 444 -146 444 -380s-174 -380 -444 -380zM466 143c151 0 242 50 242 130c0 55 -34 88 -107 106c57 9 92 37 92 74c0 69 -91 114 -230 114c-145 0 -235 -46 -235 -119c0 -47 25 -73 96 -99
c-70 -4 -112 -37 -112 -88c0 -75 91 -118 254 -118zM519 400l-62 10c-67 11 -88 20 -88 39c0 21 30 31 94 31c60 0 88 -12 88 -37c0 -19 -9 -33 -32 -43zM466 238c-74 0 -110 15 -110 46c0 19 20 35 54 44l45 -8c100 -18 110 -24 110 -46s-38 -36 -99 -36z" />
    <glyph glyph-name="uni277E" unicode="&#x277e;" horiz-adv-x="920" 
d="M460 -25c-269 0 -445 146 -445 380c0 235 176 380 445 380s444 -145 444 -380c0 -234 -175 -380 -444 -380zM458 143c155 0 255 84 255 209c0 134 -95 215 -256 215c-140 0 -232 -57 -232 -143c0 -88 70 -134 202 -134c64 0 116 15 150 43c-7 -59 -48 -93 -115 -93
c-54 0 -81 10 -96 37l-142 -24c20 -65 114 -110 234 -110zM452 386c-58 0 -85 13 -85 38c0 30 33 47 90 47c48 0 82 -16 102 -47c-17 -24 -54 -38 -107 -38z" />
    <glyph glyph-name="uniE000" unicode="&#xe000;" horiz-adv-x="1336" 
d="M188 744h1070v-115h-948v-443h109l-170 -226l-170 226h109v558z" />
    <glyph glyph-name="i.loclTRK" horiz-adv-x="384" 
d="M65 564v174h254v-174h-254zM69 0v500h246v-500h-246z" />
    <glyph glyph-name="dollar.tf" 
d="M792 220c0 -140 -122 -227 -327 -238v-89h-77v89c-164 5 -304 56 -378 136l171 124c55 -59 120 -90 207 -98v134l-91 14c-152 23 -226 93 -226 212c0 132 112 207 317 214v82h77v-83c131 -7 239 -43 322 -105l-146 -132c-33 40 -98 69 -176 78v-122l97 -13
c164 -21 230 -80 230 -203zM372 449l16 -2v115c-63 -3 -93 -21 -93 -54c0 -37 18 -50 77 -59zM465 141c75 4 109 23 109 62c0 35 -16 48 -67 56l-42 7v-125z" />
    <glyph glyph-name="cent.tf" 
d="M448 121c68 10 102 46 112 97l233 -36c-24 -105 -137 -197 -345 -206v-83h-77v83c-231 12 -350 125 -350 275c0 148 114 261 350 273v70h77v-70c194 -8 318 -90 345 -203l-233 -32c-13 44 -46 81 -112 93v-261zM250 252c0 -67 44 -119 121 -131v261
c-75 -11 -121 -61 -121 -130z" />
    <glyph glyph-name="sterling.tf" 
d="M560 236l239 -26c-21 -142 -120 -228 -261 -228c-96 0 -136 29 -245 29c-77 0 -166 -7 -251 -19l-39 108c91 24 134 75 134 157c0 16 -1 30 -3 44h-97v106h74c-4 20 -7 42 -7 65c0 151 127 245 329 245c199 0 313 -68 339 -204l-235 -38c-7 54 -43 84 -99 84
c-62 0 -95 -30 -95 -89c0 -23 3 -44 7 -63h168v-106h-146c1 -8 1 -16 1 -24c0 -52 -31 -95 -82 -113c30 6 53 9 76 9c41 0 74 -15 116 -15s71 29 77 78z" />
    <glyph glyph-name="florin.tf" 
d="M644 554c-82 0 -114 -31 -124 -115l-1 -11h155v-155h-174l-51 -423h-276l52 423h-147v155h167l1 12c25 201 134 285 370 285c31 0 72 -4 102 -10v-166c-23 3 -53 5 -74 5z" />
    <glyph glyph-name="yen.tf" 
d="M825 695l-269 -384h191v-76h-218v-52h218v-76h-218v-107h-255v107h-218v76h218v52h-218v76h191l-268 384h274l122 -216c12 -20 20 -36 26 -56h2c5 20 14 36 25 56l122 216h275z" />
    <glyph glyph-name="Euro.tf" 
d="M455 155c59 0 92 42 107 105l226 -82c-48 -128 -177 -203 -342 -203c-205 0 -328 113 -361 280h-68v66h60c-1 10 -1 19 -1 29v9v12h-59v67h66c32 166 165 280 372 280c165 0 299 -75 341 -201l-235 -68c-16 55 -47 90 -106 90c-63 0 -98 -40 -112 -101h159v-67h-167v-10
v-12c0 -10 0 -19 1 -28h166v-66h-157c15 -61 49 -100 110 -100z" />
    <glyph glyph-name="perthousand.tf" 
d="M188 398c-105 0 -175 62 -175 156c0 95 70 157 175 157s174 -62 174 -157c0 -94 -69 -156 -174 -156zM134 556v-3c0 -33 20 -54 54 -54c33 0 54 21 54 54v3c0 33 -21 54 -54 54c-34 0 -54 -21 -54 -54zM762 584v-107l-724 -290v108zM615 294c105 0 174 -62 174 -157
c0 -94 -69 -156 -174 -156c-44 0 -81 12 -109 34c-29 -22 -66 -34 -110 -34c-104 0 -174 62 -174 156c0 95 70 157 174 157c44 0 81 -12 110 -34c28 22 65 34 109 34zM450 136v3c0 33 -20 54 -54 54c-33 0 -54 -21 -54 -54v-3c0 -33 21 -54 54 -54c34 0 54 21 54 54z
M669 136v3c0 33 -20 54 -54 54s-54 -21 -54 -54v-3c0 -33 20 -54 54 -54s54 21 54 54z" />
    <glyph glyph-name="zero.zero" horiz-adv-x="904" 
d="M452 719c241 0 422 -131 422 -371s-181 -372 -422 -372s-422 132 -422 372s181 371 422 371zM452 548c-86 0 -164 -51 -164 -200c0 -36 5 -67 13 -93l266 248c-30 32 -72 45 -115 45zM452 147c86 0 164 52 164 201c0 30 -3 56 -9 79l-261 -243c29 -26 67 -37 106 -37z
" />
    <glyph glyph-name="zero.tf" 
d="M402 -24c-219 0 -374 121 -374 371c0 251 155 372 374 372c218 0 374 -120 374 -371s-156 -372 -374 -372zM402 142c84 0 116 84 116 206s-32 205 -116 205s-117 -83 -117 -205s33 -206 117 -206z" />
    <glyph glyph-name="one.tf" 
d="M546 179h212v-179h-695v179h233v243c-40 -38 -112 -48 -169 -48h-58v202h33c108 0 194 40 230 119h214v-516z" />
    <glyph glyph-name="two.tf" 
d="M48 0v157c119 48 260 123 333 168c76 46 97 82 97 133c0 50 -27 89 -79 89c-57 0 -93 -34 -93 -102c0 -6 0 -14 1 -28l-255 22c-1 14 -1 24 -1 37c0 157 173 243 351 243c193 0 340 -69 340 -237c0 -96 -36 -151 -127 -208c-71 -45 -148 -67 -235 -94h373v-180h-705z" />
    <glyph glyph-name="three.tf" 
d="M399 -24c-216 0 -346 88 -349 248l256 18c-1 -73 40 -101 95 -101c56 0 92 22 92 72c0 44 -24 70 -84 70h-47l3 132h34c55 0 86 27 86 73c0 42 -32 67 -77 67c-52 0 -101 -25 -101 -101l-254 21c0 144 118 244 351 244c209 0 340 -75 340 -215c0 -100 -83 -140 -174 -149
c124 -15 187 -71 187 -164c0 -134 -146 -215 -358 -215z" />
    <glyph glyph-name="four.tf" 
d="M416 0v133h-394v142l366 420h263v-402h126v-160h-126v-133h-235zM229 293h187v169c0 26 1 53 5 70h-5c-8 -21 -16 -45 -56 -89l-57 -86c-35 -39 -48 -47 -74 -64z" />
    <glyph glyph-name="five.tf" 
d="M392 -24c-189 0 -316 90 -329 221l242 25c7 -48 49 -78 92 -78c57 0 85 36 85 94c0 55 -33 88 -85 88c-35 0 -72 -19 -87 -58l-219 19l45 408h545v-169h-352l-15 -124c34 42 97 66 177 66c165 0 250 -96 250 -229c0 -158 -132 -263 -349 -263z" />
    <glyph glyph-name="six.tf" 
d="M464 478c187 0 291 -88 291 -244c0 -158 -136 -258 -350 -258c-226 0 -356 130 -356 356c0 247 133 387 367 387c180 0 305 -69 341 -188l-256 -28c-15 35 -47 53 -96 53c-61 0 -96 -45 -103 -132c44 36 97 54 162 54zM413 139c56 0 94 38 94 94c0 59 -39 93 -91 93
c-47 0 -83 -27 -110 -75c14 -78 50 -112 107 -112z" />
    <glyph glyph-name="seven.tf" 
d="M213 0v19c0 196 96 369 294 495h-448v181h682v-172c-152 -108 -260 -260 -260 -475v-48h-268z" />
    <glyph glyph-name="eight.tf" 
d="M622 386c102 -39 145 -97 145 -192c0 -137 -135 -218 -364 -218c-228 0 -367 76 -367 201c0 81 59 137 161 157c-96 36 -140 91 -140 177c0 127 157 208 344 208c205 0 347 -75 347 -193c0 -70 -47 -121 -126 -140zM402 574c-55 0 -88 -27 -88 -67c0 -37 33 -59 94 -72
l49 -10h2c22 18 33 42 33 72c0 49 -31 77 -90 77zM404 128c63 0 104 30 104 76c0 43 -30 63 -110 82l-51 11c-34 -20 -52 -48 -52 -83c0 -55 40 -86 109 -86z" />
    <glyph glyph-name="nine.tf" 
d="M391 721c238 0 369 -125 369 -357c0 -248 -132 -388 -367 -388c-179 0 -305 75 -342 203l256 28c16 -33 48 -63 97 -63c60 0 93 46 102 136c-45 -29 -101 -42 -168 -42c-181 0 -294 84 -294 235c0 155 138 248 347 248zM384 390c60 0 105 25 123 62
c-8 73 -56 111 -117 111c-53 0 -98 -33 -98 -90c0 -48 43 -83 92 -83z" />
    <glyph glyph-name="gcommaaccent.ss01" horiz-adv-x="882" 
d="M478 781l30 -65c-56 -8 -75 -17 -79 -40h118v-108h-228v80c0 64 44 120 159 133zM409 -214c-229 0 -359 64 -384 202h261c12 -45 63 -64 138 -64c95 0 143 32 143 103v83c-48 -61 -134 -96 -242 -96c-186 0 -309 103 -309 255c0 150 131 250 319 250
c103 0 183 -29 243 -96l13 77h222v-461c0 -169 -133 -253 -404 -253zM417 153c93 0 155 44 155 113v5c0 64 -62 106 -154 106c-91 0 -147 -41 -147 -109c0 -72 55 -115 146 -115z" />
    <glyph glyph-name="gdotaccent.ss01" horiz-adv-x="882" 
d="M311 564v174h254v-174h-254zM409 -214c-229 0 -359 64 -384 202h261c12 -45 63 -64 138 -64c95 0 143 32 143 103v83c-48 -61 -134 -96 -242 -96c-186 0 -309 103 -309 255c0 150 131 250 319 250c103 0 183 -29 243 -96l13 77h222v-461c0 -169 -133 -253 -404 -253z
M417 153c93 0 155 44 155 113v5c0 64 -62 106 -154 106c-91 0 -147 -41 -147 -109c0 -72 55 -115 146 -115z" />
    <glyph glyph-name="Iacute_J.loclNLD" horiz-adv-x="929" 
d="M105 760l120 123h219l-139 -123h-200zM651 760l120 123h219l-139 -123h-200zM334 0h-256v710h256v-710zM879 255c0 -206 -148 -267 -318 -267c-52 0 -103 4 -139 12v189c22 -3 46 -5 68 -5c71 0 134 21 134 120v406h255v-455z" />
    <glyph glyph-name="iacute_j.loclNLD" horiz-adv-x="777" 
d="M95 569l115 161h218l-139 -161h-194zM485 569l115 161h218l-139 -161h-194zM69 0v500h246v-500h-246zM441 -207c-30 0 -65 3 -88 11v168c13 -3 32 -4 47 -4c42 0 62 28 62 89v443h246v-472c0 -159 -73 -235 -267 -235z" />
    <glyph glyph-name="g.ss01" horiz-adv-x="882" 
d="M409 -214c-229 0 -359 64 -384 202h261c12 -45 63 -64 138 -64c95 0 143 32 143 103v83c-48 -61 -134 -96 -242 -96c-186 0 -309 103 -309 255c0 150 131 250 319 250c103 0 183 -29 243 -96l13 77h222v-461c0 -169 -133 -253 -404 -253zM417 153c93 0 155 44 155 113v5
c0 64 -62 106 -154 106c-91 0 -147 -41 -147 -109c0 -72 55 -115 146 -115z" />
    <glyph glyph-name="gbreve.ss01" horiz-adv-x="882" 
d="M359 730c7 -45 31 -67 79 -67s73 22 79 67h158c-9 -114 -100 -166 -237 -166s-228 52 -237 166h158zM409 -214c-229 0 -359 64 -384 202h261c12 -45 63 -64 138 -64c95 0 143 32 143 103v83c-48 -61 -134 -96 -242 -96c-186 0 -309 103 -309 255c0 150 131 250 319 250
c103 0 183 -29 243 -96l13 77h222v-461c0 -169 -133 -253 -404 -253zM417 153c93 0 155 44 155 113v5c0 64 -62 106 -154 106c-91 0 -147 -41 -147 -109c0 -72 55 -115 146 -115z" />
    <glyph glyph-name="gcircumflex.ss01" horiz-adv-x="882" 
d="M714 569h-186l-90 97l-90 -97h-186l151 161h250zM409 -214c-229 0 -359 64 -384 202h261c12 -45 63 -64 138 -64c95 0 143 32 143 103v83c-48 -61 -134 -96 -242 -96c-186 0 -309 103 -309 255c0 150 131 250 319 250c103 0 183 -29 243 -96l13 77h222v-461
c0 -169 -133 -253 -404 -253zM417 153c93 0 155 44 155 113v5c0 64 -62 106 -154 106c-91 0 -147 -41 -147 -109c0 -72 55 -115 146 -115z" />
    <glyph glyph-name="g.sups.ss01" horiz-adv-x="676" 
d="M314 154c-175 0 -272 45 -289 142h215c6 -30 40 -43 87 -43c59 0 89 22 89 73v64c-35 -42 -96 -66 -171 -66c-138 0 -226 74 -226 184c0 108 96 182 234 182c72 0 127 -19 173 -67l10 52h185v-337c0 -123 -100 -184 -307 -184zM322 436c59 0 99 28 99 71v3
c0 39 -39 65 -97 65c-59 0 -93 -25 -93 -67c0 -45 34 -72 91 -72z" />
    <glyph glyph-name="a.sups" horiz-adv-x="650" 
d="M220 296c-121 0 -185 42 -185 120c0 87 90 109 190 114l162 10v10c0 30 -24 41 -60 41c-37 0 -62 -13 -68 -35h-216c18 84 131 134 284 134c192 0 267 -60 267 -175v-108c0 -34 3 -75 6 -97h-203c-2 12 -5 42 -5 59c-17 -44 -87 -73 -172 -73zM297 397c57 0 94 25 94 63
v10l-96 -8c-39 -3 -57 -13 -57 -30c0 -21 22 -35 59 -35z" />
    <glyph glyph-name="b.sups" horiz-adv-x="680" 
d="M427 296c-65 0 -131 25 -170 69l-12 -55h-186v529h205v-209c44 39 102 60 176 60c130 0 221 -79 221 -192c0 -123 -91 -202 -234 -202zM353 415c58 0 97 31 97 78s-39 78 -98 78c-58 -1 -96 -31 -96 -76v-4c0 -45 38 -76 97 -76z" />
    <glyph glyph-name="c.sups" horiz-adv-x="636" 
d="M324 296c-189 0 -306 77 -306 200c0 121 113 194 305 194c159 0 273 -57 295 -147l-214 -27c-9 27 -43 46 -86 46c-52 0 -87 -27 -87 -66c0 -41 37 -71 86 -71c51 0 82 18 87 51l215 -31c-21 -91 -136 -149 -295 -149z" />
    <glyph glyph-name="d.sups" horiz-adv-x="680" 
d="M241 296c-133 0 -222 78 -222 200c0 115 91 194 228 194c76 0 128 -20 169 -53v203h205v-530h-199v68c-36 -50 -100 -82 -181 -82zM323 416c56 0 98 31 98 79v2c0 45 -40 74 -98 74s-92 -29 -92 -75c0 -48 36 -80 92 -80z" />
    <glyph glyph-name="e.sups" horiz-adv-x="610" 
d="M594 467v-5h-385c10 -36 51 -58 110 -58c50 0 108 20 136 44l117 -67c-53 -52 -144 -85 -262 -85c-186 0 -292 72 -292 198c0 118 111 196 288 196c187 0 288 -85 288 -223zM208 535h186c-3 35 -31 64 -89 64c-60 0 -92 -25 -97 -64z" />
    <glyph glyph-name="f.sups" horiz-adv-x="505" 
d="M404 718c-53 0 -71 -11 -72 -43h152v-119h-152v-246h-206v246h-111v119h111v3c0 114 83 169 255 169c32 0 70 -3 103 -9v-127c-33 6 -51 7 -80 7z" />
    <glyph glyph-name="g.sups" horiz-adv-x="659" 
d="M638 632c-9 4 -32 6 -55 6c-11 0 -21 0 -29 -1c22 -19 34 -42 34 -70c0 -81 -100 -127 -275 -127c-45 0 -86 3 -121 9c-4 -2 -7 -8 -7 -16c0 -12 10 -18 28 -19l258 -5c116 -1 167 -33 167 -103c0 -107 -105 -152 -351 -152c-180 0 -262 23 -262 75c0 28 20 46 62 55
c-40 14 -64 42 -64 80c0 49 41 86 115 98c-66 21 -101 57 -101 105c0 80 97 123 276 123c60 0 111 -5 153 -15c16 51 64 76 133 76c16 0 35 -2 39 -4v-115zM313 517c48 0 74 17 74 50c0 29 -24 46 -74 46s-75 -17 -75 -46c0 -33 27 -50 75 -50zM406 270l-244 5
c-1 -4 -2 -6 -2 -9c0 -42 34 -53 165 -53c101 0 124 4 124 33c0 17 -11 23 -43 24z" />
    <glyph glyph-name="h.sups" horiz-adv-x="690" 
d="M59 310v529h205v-232c30 52 96 83 177 83c128 0 202 -78 202 -209v-171h-205v151c0 61 -26 93 -85 93s-89 -32 -89 -101v-143h-205z" />
    <glyph glyph-name="i.sups" horiz-adv-x="315" 
d="M53 717v137h209v-137h-209zM55 310v365h205v-365h-205z" />
    <glyph glyph-name="j.sups" horiz-adv-x="321" 
d="M57 717v137h208v-137h-208zM56 159c-24 0 -49 2 -67 8v138c8 -2 19 -3 29 -3c30 0 42 21 42 59v314h205v-337c0 -126 -58 -179 -209 -179z" />
    <glyph glyph-name="k.sups" horiz-adv-x="674" 
d="M668 675l-181 -140l174 -225h-227l-99 141l-71 -54v-87h-205v529h205v-284l144 120h260z" />
    <glyph glyph-name="l.sups" horiz-adv-x="323" 
d="M264 839v-529h-205v529h205z" />
    <glyph glyph-name="m.sups" horiz-adv-x="983" 
d="M55 675h201v-77c27 58 86 91 160 91c73 0 129 -31 158 -88c38 58 98 88 177 88c118 0 185 -71 185 -198v-181h-204v152c0 55 -25 85 -69 85s-65 -29 -65 -87v-150h-204v153c0 56 -22 84 -70 84c-44 0 -64 -28 -64 -84v-153h-205v365z" />
    <glyph glyph-name="n.sups" horiz-adv-x="686" 
d="M55 310v365h201v-80c31 60 96 94 183 94c131 0 200 -73 200 -212v-167h-205v142c0 66 -26 98 -85 98c-61 0 -89 -32 -89 -100v-140h-205z" />
    <glyph glyph-name="o.sups" horiz-adv-x="647" 
d="M324 296c-186 0 -306 75 -306 197c0 121 120 197 306 197c185 0 304 -76 304 -197c0 -122 -119 -197 -304 -197zM324 415c54 0 93 31 93 78c0 46 -39 77 -93 77c-56 0 -94 -31 -94 -77c0 -47 38 -78 94 -78z" />
    <glyph glyph-name="p.sups" horiz-adv-x="676" 
d="M433 690c136 0 224 -79 224 -191c0 -124 -94 -203 -229 -203c-77 0 -127 24 -168 63v-191h-205v507h201v-51c44 46 107 66 177 66zM354 416c57 0 91 32 91 84c0 43 -34 71 -92 71c-59 0 -98 -27 -98 -72c0 -51 40 -83 99 -83z" />
    <glyph glyph-name="q.sups" horiz-adv-x="676" 
d="M416 168v195c-41 -44 -102 -67 -175 -67c-132 0 -222 78 -222 202c0 116 92 195 232 195c69 0 126 -18 175 -70l9 52h186v-507h-205zM322 416c56 0 99 30 99 82v3c0 48 -42 74 -98 74c-61 0 -92 -32 -92 -76c0 -50 33 -83 91 -83z" />
    <glyph glyph-name="r.sups" horiz-adv-x="474" 
d="M233 565c20 72 81 117 172 117c25 0 34 -2 49 -3v-168c-22 5 -45 7 -68 7c-36 0 -70 -8 -87 -23c-25 -20 -39 -48 -39 -83v-102h-205v365h178v-110z" />
    <glyph glyph-name="s.sups" horiz-adv-x="585" 
d="M312 296c-117 0 -242 19 -311 48l74 97c91 -29 175 -42 251 -42c40 0 61 1 61 19c0 12 -16 15 -73 20l-137 15c-94 10 -142 41 -142 109c0 81 47 128 241 128c98 0 201 -12 288 -32l-69 -100c-78 28 -152 37 -223 37c-44 0 -57 -3 -57 -18c0 -11 14 -16 75 -22l118 -13
c113 -12 159 -31 159 -116c0 -81 -67 -130 -255 -130z" />
    <glyph glyph-name="t.sups" horiz-adv-x="495" 
d="M3 556v119h104v77l204 69v-146h151v-119h-151v-49c0 -41 25 -63 84 -63c33 0 57 5 66 8v-135c-27 -11 -63 -18 -128 -18c-120 0 -226 27 -226 163v94h-104z" />
    <glyph glyph-name="u.sups" horiz-adv-x="679" 
d="M423 383c-33 -59 -105 -87 -184 -87c-117 0 -192 65 -192 170v209h205v-149c0 -58 19 -94 79 -94c53 0 88 28 88 93v150h205v-365h-201v73z" />
    <glyph glyph-name="v.sups" horiz-adv-x="645" 
d="M207 310l-205 365h220l72 -153c12 -26 16 -37 26 -59h4c11 22 15 33 28 59l71 153h220l-204 -365h-232z" />
    <glyph glyph-name="w.sups" horiz-adv-x="880" 
d="M160 310l-143 365h202l44 -169l9 -49h2c3 22 9 38 12 49l53 169h201l54 -169c4 -11 9 -27 12 -49h2c4 23 6 38 9 49l44 169h202l-143 -365h-215l-49 151c-7 20 -12 37 -14 55h-4c-2 -18 -7 -35 -14 -55l-50 -151h-214z" />
    <glyph glyph-name="x.sups" horiz-adv-x="658" 
d="M9 310l180 186l-176 179h244l47 -54c6 -7 21 -25 27 -39h2c5 14 16 28 26 40l46 53h229l-168 -173l182 -192h-246l-60 64c-7 8 -18 24 -23 35h-2c-6 -12 -17 -28 -24 -35l-60 -64h-224z" />
    <glyph glyph-name="y.sups" horiz-adv-x="634" 
d="M415 675h217l-202 -379c-54 -99 -123 -144 -258 -144c-31 0 -93 2 -125 11v147c27 -5 60 -8 88 -8c19 0 66 -4 84 5l-217 368h224l69 -158c13 -28 17 -36 25 -57h4c8 21 13 28 24 54z" />
    <glyph glyph-name="z.sups" horiz-adv-x="568" 
d="M35 428l239 132h-232v115h488v-114l-234 -136h243v-115h-504v118z" />
    <glyph glyph-name="g_g.liga.ss01" horiz-adv-x="1764" 
d="M409 -214c-229 0 -359 64 -384 202h261c12 -45 63 -64 138 -64c95 0 143 32 143 103v83c-48 -61 -134 -96 -242 -96c-186 0 -309 103 -309 255c0 150 131 250 319 250c103 0 183 -29 243 -96l13 77h222v-461c0 -169 -133 -253 -404 -253zM1291 -214
c-229 0 -359 64 -384 202h261c12 -45 63 -64 138 -64c95 0 143 32 143 103v83c-48 -61 -134 -96 -242 -96c-186 0 -309 103 -309 255c0 150 131 250 319 250c103 0 183 -29 243 -96l13 77h222v-461c0 -169 -133 -253 -404 -253zM417 153c93 0 155 44 155 113v5
c0 64 -62 106 -154 106c-91 0 -147 -41 -147 -109c0 -72 55 -115 146 -115zM1299 153c93 0 155 44 155 113v5c0 64 -62 106 -154 106c-91 0 -147 -41 -147 -109c0 -72 55 -115 146 -115z" />
    <glyph glyph-name="zero.case" horiz-adv-x="904" 
d="M452 -25c-241 0 -422 137 -422 381c0 245 181 379 422 379s422 -134 422 -379c0 -244 -181 -381 -422 -381zM452 146c86 0 164 56 164 210s-78 208 -164 208s-164 -54 -164 -208s78 -210 164 -210z" />
    <glyph glyph-name="one.case" horiz-adv-x="577" 
d="M228 0v436c-36 -39 -98 -50 -151 -50h-57v201h31c104 0 180 42 213 123h215v-710h-251z" />
    <glyph glyph-name="two.case" horiz-adv-x="863" 
d="M34 0v157c134 53 288 122 386 171c94 49 120 88 120 141c0 55 -42 94 -118 94c-80 0 -130 -38 -130 -115c0 -5 0 -12 1 -23l-255 22c-1 12 -1 21 -1 33c0 164 167 255 383 255c224 0 385 -74 385 -243c0 -100 -44 -156 -149 -214c-70 -39 -167 -71 -264 -98h423v-180
h-781z" />
    <glyph glyph-name="three.case" horiz-adv-x="846" 
d="M415 -25c-243 0 -393 95 -395 262l256 19c-1 -84 59 -116 142 -116c81 0 134 25 134 80c0 46 -30 71 -126 71h-79v133h78c85 0 119 24 119 68c0 49 -48 79 -129 79c-82 0 -138 -29 -138 -115l-254 21c0 152 141 258 389 258c241 0 392 -76 392 -220
c0 -102 -83 -142 -176 -151c126 -16 189 -72 189 -168c0 -137 -164 -221 -402 -221z" />
    <glyph glyph-name="four.case" horiz-adv-x="905" 
d="M895 138h-154v-138h-245v138h-486v150l459 422h272v-413h154v-159zM496 457c0 47 1 71 5 89h-5c-12 -23 -36 -49 -77 -90l-88 -93c-30 -31 -49 -45 -80 -66h245v160z" />
    <glyph glyph-name="five.case" horiz-adv-x="831" 
d="M406 -25c-212 0 -360 89 -377 226l244 25c9 -52 63 -86 137 -86c84 0 132 37 132 102c0 61 -47 94 -132 94c-66 0 -112 -27 -133 -69l-220 19l45 424h639v-169h-444l-15 -128c38 48 116 75 214 75c189 0 305 -92 305 -244c0 -165 -153 -269 -395 -269z" />
    <glyph glyph-name="six.case" horiz-adv-x="854" 
d="M501 489c211 0 328 -90 328 -250c0 -161 -154 -264 -397 -264c-260 0 -402 130 -402 365c0 253 152 395 422 395c194 0 331 -73 370 -201l-256 -29c-17 45 -61 67 -125 67c-100 0 -158 -53 -168 -155c58 47 134 72 228 72zM431 139c84 0 141 40 141 99
c0 63 -47 99 -129 99c-68 0 -124 -27 -161 -77c19 -82 68 -121 149 -121z" />
    <glyph glyph-name="seven.case" horiz-adv-x="748" 
d="M183 0v19c0 202 101 380 312 510h-485v181h719v-172c-163 -111 -278 -268 -278 -490v-48h-268z" />
    <glyph glyph-name="eight.case" horiz-adv-x="864" 
d="M661 398c123 -39 174 -100 174 -200c0 -140 -149 -223 -402 -223c-250 0 -404 78 -404 206c0 84 63 142 172 162c-105 37 -152 93 -152 181c0 129 148 211 382 211c235 0 384 -76 384 -197c0 -71 -57 -121 -154 -140zM432 590c-76 0 -126 -26 -126 -70
c0 -39 39 -61 132 -76l67 -11c3 0 5 -1 8 -1c30 19 46 46 46 78c0 52 -46 80 -127 80zM434 127c85 0 141 32 141 81c0 44 -39 67 -147 86l-73 14c-44 -21 -66 -52 -66 -90c0 -58 53 -91 145 -91z" />
    <glyph glyph-name="nine.case" horiz-adv-x="854" 
d="M410 735c268 0 415 -126 415 -362c0 -254 -151 -398 -422 -398c-194 0 -331 81 -371 217l256 29c18 -42 62 -77 126 -77c104 0 161 56 169 158c-53 -39 -126 -58 -227 -58c-212 0 -331 86 -331 241c0 157 154 250 385 250zM411 396c80 0 133 26 166 65
c-15 74 -69 120 -160 120c-83 0 -134 -34 -134 -96c0 -53 50 -89 128 -89z" />
    <glyph glyph-name="one.ss02.case" horiz-adv-x="764" 
d="M531 179h212v-179h-695v179h233v258c-40 -38 -112 -48 -169 -48h-58v202h32c109 0 195 40 231 119h214v-531z" />
    <glyph glyph-name="zero.tf.case" 
d="M402 -25c-219 0 -374 124 -374 380s155 381 374 381c218 0 374 -124 374 -380s-156 -381 -374 -381zM402 141c84 0 116 87 116 215s-32 214 -116 214s-117 -86 -117 -214s33 -215 117 -215z" />
    <glyph glyph-name="one.tf.case" 
d="M546 179h212v-179h-695v179h233v257c-40 -39 -112 -51 -169 -51h-58v201h33c108 0 194 42 230 124h214v-531z" />
    <glyph glyph-name="two.tf.case" 
d="M48 0v156c119 52 260 129 333 175c76 49 97 87 97 139c0 53 -27 95 -79 95c-57 0 -93 -36 -93 -108c0 -6 0 -14 1 -28l-255 22c-1 14 -1 24 -1 37c0 160 173 248 351 248c193 0 340 -73 340 -242c0 -98 -36 -152 -127 -213c-71 -47 -148 -72 -235 -102h373v-179h-705z
" />
    <glyph glyph-name="three.tf.case" 
d="M399 -25c-216 0 -346 91 -349 252l256 19c-1 -76 40 -106 95 -106c56 0 92 23 92 77c0 48 -24 75 -84 75h-47l3 131h34c55 0 86 29 86 78c0 44 -32 71 -77 71c-52 0 -101 -28 -101 -107l-254 22c0 145 118 249 351 249c209 0 340 -77 340 -219c0 -103 -83 -144 -174 -153
c124 -15 187 -72 187 -169c0 -136 -146 -220 -358 -220z" />
    <glyph glyph-name="four.tf.case" 
d="M416 0v138h-394v141l366 431h263v-413h126v-159h-126v-138h-235zM229 297h187v179c0 27 1 54 5 73h-5c-8 -23 -19 -45 -53 -92l-64 -92c-28 -44 -44 -51 -70 -68z" />
    <glyph glyph-name="five.tf.case" 
d="M392 -25c-189 0 -316 92 -329 225l242 25c7 -51 49 -82 92 -82c57 0 85 38 85 100c0 58 -33 93 -85 93c-35 0 -72 -20 -87 -61l-219 19l45 416h545v-169h-352l-15 -132c34 43 97 69 177 69c165 0 250 -98 250 -234c0 -161 -132 -269 -349 -269z" />
    <glyph glyph-name="six.tf.case" 
d="M464 489c187 0 291 -91 291 -250c0 -161 -136 -264 -350 -264c-226 0 -356 134 -356 365c0 252 133 396 367 396c180 0 305 -71 341 -193l-256 -28c-15 38 -47 58 -96 58c-61 0 -96 -48 -103 -141c44 37 97 57 162 57zM413 139c56 0 94 40 94 99c0 63 -39 99 -91 99
c-48 0 -83 -30 -110 -82c13 -80 51 -116 107 -116z" />
    <glyph glyph-name="seven.tf.case" 
d="M213 0v19c0 202 96 380 294 510h-448v181h682v-172c-152 -111 -260 -268 -260 -490v-48h-268z" />
    <glyph glyph-name="eight.tf.case" 
d="M617 393c105 -39 150 -97 150 -195c0 -140 -135 -223 -364 -223c-228 0 -367 78 -367 206c0 84 59 142 161 162c-96 36 -140 92 -140 181c0 129 157 212 344 212c205 0 347 -77 347 -198c0 -73 -48 -125 -131 -145zM402 591c-55 0 -88 -28 -88 -71c0 -40 33 -65 94 -76
l49 -10h1c23 19 34 45 34 76c0 52 -31 81 -90 81zM404 127c63 0 104 32 104 81c0 46 -29 68 -110 85l-52 11c-33 -20 -51 -50 -51 -86c0 -58 40 -91 109 -91z" />
    <glyph glyph-name="nine.tf.case" 
d="M391 738c238 0 369 -129 369 -366c0 -253 -132 -397 -367 -397c-179 0 -305 77 -342 207l256 29c16 -37 48 -68 97 -68c60 0 93 50 102 146c-45 -30 -101 -45 -168 -45c-181 0 -294 86 -294 239c0 158 138 255 347 255zM384 396c60 0 105 28 123 69l1 -1
c-12 76 -58 116 -118 116c-53 0 -98 -35 -98 -96c0 -52 43 -88 92 -88z" />
    <glyph glyph-name="zero.zero.case" horiz-adv-x="904" 
d="M452 735c241 0 422 -134 422 -379c0 -244 -181 -381 -422 -381s-422 137 -422 381c0 245 181 379 422 379zM452 564c-86 0 -164 -54 -164 -208c0 -38 5 -70 13 -97l266 258c-30 33 -72 47 -115 47zM452 146c86 0 164 56 164 210c0 32 -3 59 -9 83l-262 -254
c30 -27 68 -39 107 -39z" />
    <glyph glyph-name="zero.tf.zero.case" 
d="M402 736c218 0 374 -124 374 -380s-156 -381 -374 -381c-219 0 -374 124 -374 380s155 381 374 381zM402 570c-84 0 -117 -86 -117 -214c0 -19 1 -38 2 -55l209 200c-18 44 -48 69 -94 69zM402 141c84 0 116 87 116 215c0 18 -1 35 -2 51l-207 -199c18 -43 48 -67 93 -67
z" />
    <glyph glyph-name="zero.osf" horiz-adv-x="899" 
d="M450 -24c-250 0 -412 115 -412 292c0 176 162 291 412 291c249 0 411 -115 411 -292c0 -176 -162 -291 -411 -291zM450 151c95 0 158 46 158 116c0 71 -63 117 -158 117c-96 0 -159 -45 -159 -116s63 -117 159 -117z" />
    <glyph glyph-name="one.osf" horiz-adv-x="747" 
d="M520 161h206v-161h-685v161h234v150c-48 -29 -114 -44 -192 -44h-33v182h32c95 0 188 36 219 86h219v-374z" />
    <glyph glyph-name="two.osf" horiz-adv-x="830" 
d="M35 140c156 39 267 66 354 99c82 30 109 53 109 93s-35 64 -90 64c-67 0 -102 -30 -102 -88c0 -7 0 -9 1 -15l-256 22c-1 4 -1 8 -1 21c0 135 141 223 358 223c223 0 349 -72 349 -199c0 -47 -27 -87 -85 -120c-52 -30 -126 -58 -202 -79h317v-161h-752v140z" />
    <glyph glyph-name="three.osf" horiz-adv-x="844" 
d="M415 -174c-244 0 -393 95 -395 263l251 17c-1 -84 61 -114 147 -114c81 0 135 24 135 75c0 40 -31 64 -132 64h-70v127h69c79 0 111 23 111 64c0 44 -42 71 -115 71c-77 0 -132 -25 -130 -106l-250 22c0 154 145 250 380 250c231 0 375 -72 375 -211
c0 -100 -82 -138 -174 -150c132 -11 198 -68 198 -161c0 -132 -163 -211 -400 -211z" />
    <glyph glyph-name="four.osf" horiz-adv-x="906" 
d="M497 -150v133h-487v152l460 400h273v-391h154v-161h-154v-133h-246zM246 144h251v156c0 26 1 53 5 71h-5c-13 -21 -28 -42 -78 -88l-92 -84c-37 -33 -52 -42 -81 -55z" />
    <glyph glyph-name="five.osf" horiz-adv-x="833" 
d="M406 -174c-213 0 -361 88 -377 222l244 25c9 -50 63 -81 137 -81c85 0 133 35 133 96c0 56 -47 87 -132 87c-63 0 -112 -23 -134 -63l-220 19l45 404h639v-169h-444l-15 -111c38 45 117 71 215 71c190 0 306 -90 306 -235c0 -161 -155 -265 -397 -265z" />
    <glyph glyph-name="six.osf" horiz-adv-x="854" 
d="M501 478c211 0 328 -88 328 -244c0 -158 -154 -258 -397 -258c-260 0 -402 126 -402 356c0 247 152 387 422 387c194 0 331 -72 370 -197l-256 -28c-17 41 -61 62 -125 62c-99 0 -156 -50 -167 -146c57 45 133 68 227 68zM431 139c84 0 141 38 141 94
c0 59 -47 93 -129 93c-68 0 -124 -25 -161 -71c19 -78 67 -116 149 -116z" />
    <glyph glyph-name="seven.osf" horiz-adv-x="748" 
d="M183 -150v19c0 201 106 365 312 485h-485v181h719v-172c-183 -119 -278 -275 -278 -465v-48h-268z" />
    <glyph glyph-name="eight.osf" horiz-adv-x="864" 
d="M665 391c120 -39 170 -99 170 -197c0 -137 -149 -218 -402 -218c-250 0 -404 76 -404 201c0 80 63 137 171 157c-104 36 -151 92 -151 177c0 127 148 208 382 208c235 0 384 -75 384 -193c0 -68 -56 -116 -150 -135zM432 574c-76 0 -126 -26 -126 -67
c0 -37 39 -58 132 -72l67 -10c3 0 7 -1 10 -2c29 19 44 44 44 74c0 49 -46 77 -127 77zM434 128c85 0 141 30 141 76c0 42 -39 64 -147 82l-74 13c-43 -19 -65 -49 -65 -85c0 -55 53 -86 145 -86z" />
    <glyph glyph-name="nine.osf" horiz-adv-x="855" 
d="M410 559c269 0 415 -126 415 -360c0 -250 -139 -373 -422 -373c-217 0 -336 63 -370 198l241 24c9 -38 59 -60 140 -60c101 0 156 44 167 137c-53 -35 -125 -52 -225 -52c-212 0 -331 84 -331 234c0 155 148 252 385 252zM412 225c72 0 130 20 166 58
c-16 73 -76 119 -161 119c-80 0 -134 -38 -134 -94c0 -50 52 -83 129 -83z" />
    <glyph glyph-name="one.ss02" horiz-adv-x="764" 
d="M528 179h212v-179h-695v179h233v243c-40 -38 -112 -48 -169 -48h-58v202h33c108 0 194 40 230 119h214v-516z" />
    <glyph glyph-name="zero.tosf" 
d="M401 -24c-217 0 -374 101 -374 289c0 185 163 294 374 294s375 -109 375 -294c0 -188 -164 -289 -375 -289zM401 151c60 0 124 30 124 114c0 82 -63 119 -124 119c-59 0 -119 -36 -119 -119c0 -84 59 -114 119 -114z" />
    <glyph glyph-name="one.tosf" 
d="M548 161h183v-161h-639v161h211v173c-44 -35 -105 -58 -176 -58h-16v173h7c92 0 180 37 211 86h219v-374z" />
    <glyph glyph-name="two.tosf" 
d="M44 140c140 44 253 78 332 115c58 27 76 52 76 86c0 35 -25 60 -73 60c-53 0 -87 -27 -87 -81c0 -6 0 -13 1 -19l-237 23c-1 5 -2 14 -2 25c0 131 143 210 327 210c181 0 312 -59 312 -199c0 -39 -18 -92 -84 -131c-39 -22 -97 -43 -176 -68h290v-161h-679v140z" />
    <glyph glyph-name="three.tosf" 
d="M398 -174c-215 0 -345 87 -348 247l256 18c-1 -73 39 -101 94 -101c56 0 93 22 93 72c0 45 -24 71 -85 71h-47l3 131h34c56 0 87 24 87 65s-32 66 -78 66c-52 0 -100 -24 -100 -100l-254 20c0 144 118 244 350 244c210 0 341 -74 341 -216c0 -91 -83 -129 -175 -138
c126 -15 188 -72 188 -164c0 -134 -147 -215 -359 -215z" />
    <glyph glyph-name="four.tosf" 
d="M415 -150v133h-393v143l365 409h263v-391h127v-161h-127v-133h-235zM230 144h185v158c0 26 1 52 5 70h-5c-8 -22 -16 -45 -55 -89l-56 -73c-35 -40 -48 -49 -74 -66z" />
    <glyph glyph-name="five.tosf" 
d="M391 -174c-188 0 -315 90 -328 221l242 24c7 -47 49 -78 91 -78c58 0 86 36 86 94c0 54 -34 87 -86 87c-34 0 -71 -19 -86 -56l-219 18l45 399h544v-169h-351l-15 -116c34 43 97 67 177 67c165 0 250 -97 250 -228c0 -158 -131 -263 -350 -263z" />
    <glyph glyph-name="six.tosf" 
d="M464 478c187 0 291 -88 291 -244c0 -158 -136 -258 -350 -258c-226 0 -356 130 -356 356c0 247 133 387 367 387c180 0 305 -69 341 -188l-256 -28c-15 35 -47 53 -96 53c-61 0 -96 -45 -103 -132c44 36 97 54 162 54zM413 139c56 0 94 38 94 94c0 59 -39 93 -91 93
c-47 0 -83 -27 -110 -75c14 -78 50 -112 107 -112z" />
    <glyph glyph-name="seven.tosf" 
d="M213 -150v19c0 193 96 362 294 485h-448v181h682v-172c-152 -106 -260 -254 -260 -465v-48h-268z" />
    <glyph glyph-name="eight.tosf" 
d="M622 386c102 -39 145 -97 145 -192c0 -137 -135 -218 -364 -218c-228 0 -367 76 -367 201c0 81 59 137 161 157c-96 36 -140 91 -140 177c0 127 157 208 344 208c205 0 347 -75 347 -193c0 -70 -47 -121 -126 -140zM402 574c-55 0 -88 -27 -88 -67c0 -37 33 -59 94 -72
l49 -10h2c22 18 33 42 33 72c0 49 -31 77 -90 77zM404 128c63 0 104 30 104 76c0 43 -30 63 -110 82l-51 11c-34 -20 -52 -48 -52 -83c0 -55 40 -86 109 -86z" />
    <glyph glyph-name="nine.tosf" 
d="M391 559c239 0 369 -122 369 -345c0 -249 -132 -388 -367 -388c-180 0 -305 75 -342 202l256 28c16 -32 47 -62 97 -62c60 0 93 46 102 135c-45 -28 -101 -42 -168 -42c-181 0 -294 84 -294 235c0 148 139 237 347 237zM394 239c52 0 86 20 112 50
c-6 75 -37 113 -116 113c-53 0 -98 -30 -98 -80c0 -48 48 -83 102 -83z" />
    <glyph glyph-name="zero.osf.zero" horiz-adv-x="899" 
d="M450 559c249 0 411 -115 411 -292c0 -176 -162 -291 -411 -291c-250 0 -412 115 -412 292c0 176 162 291 412 291zM450 384c-96 0 -159 -45 -159 -116c0 -19 5 -37 14 -52l252 141c-27 17 -64 27 -107 27zM450 151c95 0 158 46 158 116c0 19 -5 37 -13 52l-253 -141
c27 -17 64 -27 108 -27z" />
    <glyph glyph-name="zero.tf.zero" 
d="M402 719c218 0 374 -120 374 -371s-156 -372 -374 -372c-219 0 -374 121 -374 371c0 251 155 372 374 372zM402 553c-84 0 -117 -83 -117 -205c0 -18 1 -36 2 -52l208 192c-18 41 -48 65 -93 65zM402 142c84 0 116 84 116 206c0 17 -1 33 -2 48l-207 -191
c19 -40 49 -63 93 -63z" />
    <glyph glyph-name="zero.tosf.zero" 
d="M401 559c211 0 375 -109 375 -294c0 -188 -164 -289 -375 -289c-217 0 -374 101 -374 289c0 185 163 294 374 294zM401 384c-59 0 -119 -36 -119 -119c0 -12 1 -23 3 -33l208 116c-24 25 -58 36 -92 36zM401 151c60 0 124 30 124 114c0 14 -2 27 -5 39l-211 -118
c22 -25 57 -35 92 -35z" />
    <glyph glyph-name="zero.subs" horiz-adv-x="693" 
d="M347 -157c-180 0 -319 92 -319 271s139 271 319 271c179 0 319 -92 319 -271s-140 -271 -319 -271zM347 -17c50 0 104 28 104 131c0 104 -54 131 -104 131c-51 0 -105 -27 -105 -131c0 -103 54 -131 105 -131z" />
    <glyph glyph-name="one.subs" horiz-adv-x="461" 
d="M175 -140v287c-20 -20 -54 -30 -106 -30h-45v166h24c79 0 134 30 158 84h177v-507h-208z" />
    <glyph glyph-name="two.subs" horiz-adv-x="667" 
d="M34 -140v126c166 62 363 123 363 206c0 32 -28 52 -71 52c-49 0 -81 -21 -81 -68c0 -4 0 -9 2 -12l-212 17c-1 7 -1 14 -1 21c0 122 130 183 290 183c165 0 292 -43 292 -173c0 -114 -124 -166 -275 -205h282v-147h-589z" />
    <glyph glyph-name="three.subs" horiz-adv-x="649" 
d="M317 -157c-183 0 -298 67 -297 192l213 15c-4 -56 38 -73 86 -73s84 12 84 45c0 19 -12 39 -79 39h-57v105h57c57 0 75 15 75 38c0 29 -33 46 -80 46c-49 0 -88 -11 -86 -70l-212 15c-2 114 108 190 294 190c180 0 299 -53 299 -160c0 -74 -61 -100 -130 -107
c96 -12 138 -54 138 -117c0 -103 -131 -158 -305 -158z" />
    <glyph glyph-name="four.subs" horiz-adv-x="707" 
d="M690 -50h-113v-90h-204v90h-356v125l336 292h224v-286h113v-131zM373 232l-161 -151h161v151z" />
    <glyph glyph-name="five.subs" horiz-adv-x="640" 
d="M311 -157c-161 0 -273 65 -283 163l202 20c4 -29 39 -49 84 -49c52 0 82 21 82 56c0 33 -30 52 -84 52c-40 0 -71 -17 -81 -37l-181 16l32 303h482v-128h-321l-8 -77c28 30 82 46 148 46c141 0 228 -68 228 -173c0 -117 -116 -192 -300 -192z" />
    <glyph glyph-name="six.subs" horiz-adv-x="656" 
d="M387 210c157 0 245 -64 245 -178c0 -118 -116 -189 -304 -189c-195 0 -300 90 -300 256c0 183 116 286 320 286c142 0 247 -50 277 -134l-212 -21c-11 21 -41 35 -74 35c-60 0 -95 -31 -106 -93c41 25 93 38 154 38zM328 -24c53 0 90 22 90 55c0 34 -31 55 -80 55
c-41 0 -72 -11 -101 -35c12 -53 41 -75 91 -75z" />
    <glyph glyph-name="seven.subs" horiz-adv-x="578" 
d="M141 -140v15c0 138 70 258 224 343h-349v149h539v-142c-113 -72 -193 -176 -193 -325v-40h-221z" />
    <glyph glyph-name="eight.subs" horiz-adv-x="664" 
d="M514 149c87 -29 122 -74 122 -147c0 -100 -112 -159 -303 -159c-188 0 -305 56 -305 145c0 58 46 98 125 112c-76 26 -110 67 -110 130c0 94 111 155 288 155c179 0 292 -55 292 -141c0 -49 -41 -82 -109 -95zM332 266c-45 0 -76 -16 -76 -40c0 -22 27 -35 90 -44l40 -6
c2 0 4 -1 5 -1c12 11 19 26 19 43c0 31 -29 48 -78 48zM333 -34c52 0 87 18 87 46c0 25 -25 38 -98 51l-47 9c-20 -13 -31 -31 -31 -51c0 -35 33 -55 89 -55z" />
    <glyph glyph-name="nine.subs" horiz-adv-x="656" 
d="M315 385c204 0 313 -89 313 -258c0 -183 -114 -284 -320 -284c-145 0 -248 57 -278 145l210 21c9 -22 40 -37 78 -37c57 0 92 24 104 86c-36 -19 -83 -26 -152 -26c-158 0 -246 63 -246 173c0 111 112 180 291 180zM238 206c0 -29 34 -51 80 -51c41 0 73 8 103 24
c-13 59 -49 81 -100 81s-83 -20 -83 -54z" />
    <glyph glyph-name="zero.dnom" horiz-adv-x="589" 
d="M293 -14c-156 0 -262 86 -262 211c0 129 104 213 263 213c157 0 264 -84 264 -211s-107 -213 -265 -213zM293 89c75 0 122 37 122 110c0 74 -47 110 -121 110c-75 0 -121 -37 -121 -112c0 -71 47 -108 120 -108z" />
    <glyph glyph-name="one.dnom" horiz-adv-x="362" 
d="M154 0v230c-21 -9 -59 -15 -100 -15h-33v116h20c62 0 104 21 130 65h118v-396h-135z" />
    <glyph glyph-name="two.dnom" horiz-adv-x="550" 
d="M24 0v101c173 40 336 78 336 149c0 35 -35 57 -91 57c-58 0 -93 -27 -93 -72c0 -6 2 -16 4 -21l-145 15c-3 9 -4 15 -4 24c0 90 101 157 239 157c148 0 237 -57 237 -152c0 -97 -106 -132 -206 -148h214v-110h-491z" />
    <glyph glyph-name="three.dnom" horiz-adv-x="540" 
d="M269 -14c-148 0 -235 50 -247 143l139 14c14 -42 44 -57 108 -57c60 0 97 8 97 35c0 28 -25 33 -80 33h-68v87h70c46 0 68 9 68 32c0 28 -30 37 -86 37c-70 0 -98 -20 -106 -60l-136 18c9 88 94 142 244 142c137 0 226 -45 226 -122c0 -48 -36 -81 -98 -85
c77 -11 110 -39 110 -93c0 -75 -95 -124 -241 -124z" />
    <glyph glyph-name="four.dnom" horiz-adv-x="539" 
d="M525 78h-78v-78h-134v78h-300v85l272 233h162v-224h78v-94zM313 306l-149 -134h149v134z" />
    <glyph glyph-name="five.dnom" horiz-adv-x="537" 
d="M270 -14c-133 0 -223 45 -242 122l139 20c9 -27 47 -42 107 -42c59 0 92 18 92 55c0 32 -31 50 -87 50c-55 0 -84 -16 -100 -34l-127 10l30 229h392v-85h-284l-13 -71c22 28 78 45 147 45c119 0 184 -51 184 -144c0 -96 -90 -155 -238 -155z" />
    <glyph glyph-name="six.dnom" horiz-adv-x="547" 
d="M315 277c128 0 203 -43 203 -139c0 -87 -95 -152 -233 -152c-157 0 -254 84 -254 210c0 131 93 214 253 214c119 0 214 -35 233 -92l-142 -24c-21 22 -50 30 -94 30c-63 0 -101 -25 -112 -83c30 18 76 36 146 36zM285 86c54 0 91 24 91 52c0 35 -31 44 -87 44
c-60 0 -97 -23 -114 -41c17 -41 56 -55 110 -55z" />
    <glyph glyph-name="seven.dnom" horiz-adv-x="476" 
d="M19 396h440v-97c-115 -63 -182 -168 -198 -298v-1h-157c16 111 72 212 203 289h-288v107zM104 -2v2v-2z" />
    <glyph glyph-name="eight.dnom" horiz-adv-x="550" 
d="M433 218c65 -22 90 -53 90 -102c0 -80 -91 -130 -242 -130c-163 0 -254 43 -254 118c0 46 37 79 97 93c-59 21 -81 50 -81 94c0 73 90 119 235 119c139 0 230 -45 230 -114c0 -34 -31 -64 -75 -78zM278 323c-64 0 -94 -10 -94 -31c0 -19 21 -28 88 -39l46 -8
c5 -1 10 -2 15 -2c21 17 33 33 33 43c0 25 -28 37 -88 37zM281 81c61 0 99 14 99 36s-9 27 -110 45l-45 9c-36 -12 -54 -30 -54 -52c0 -26 36 -38 110 -38z" />
    <glyph glyph-name="nine.dnom" horiz-adv-x="548" 
d="M262 410c161 0 256 -81 256 -215c0 -125 -101 -209 -255 -209c-120 0 -215 45 -234 110l141 24c15 -27 42 -37 97 -37c65 0 108 35 115 93c-34 -28 -86 -43 -150 -43c-132 0 -202 46 -202 134c0 86 92 143 232 143zM256 229c54 0 92 13 108 39c-19 30 -54 46 -102 46
c-57 0 -90 -17 -90 -47c0 -25 27 -38 84 -38z" />
    <glyph glyph-name="zero.numr" horiz-adv-x="589" 
d="M293 300c-156 0 -262 86 -262 211c0 129 104 213 263 213c157 0 264 -84 264 -211s-107 -213 -265 -213zM293 403c75 0 122 37 122 110c0 74 -47 110 -121 110c-75 0 -121 -37 -121 -112c0 -71 47 -108 120 -108z" />
    <glyph glyph-name="one.numr" horiz-adv-x="362" 
d="M154 314v230c-21 -9 -59 -15 -100 -15h-33v116h20c62 0 104 21 130 65h118v-396h-135z" />
    <glyph glyph-name="two.numr" horiz-adv-x="550" 
d="M24 314v101c173 40 336 78 336 149c0 35 -35 57 -91 57c-58 0 -93 -27 -93 -72c0 -6 2 -16 4 -21l-145 15c-3 9 -4 15 -4 24c0 90 101 157 239 157c148 0 237 -57 237 -152c0 -97 -106 -132 -206 -148h214v-110h-491z" />
    <glyph glyph-name="three.numr" horiz-adv-x="540" 
d="M269 300c-148 0 -235 50 -247 143l139 14c14 -42 44 -57 108 -57c60 0 97 8 97 35c0 28 -25 33 -80 33h-68v87h70c46 0 68 9 68 32c0 28 -30 37 -86 37c-70 0 -98 -20 -106 -60l-136 18c9 88 94 142 244 142c137 0 226 -45 226 -122c0 -48 -36 -81 -98 -85
c77 -11 110 -39 110 -93c0 -75 -95 -124 -241 -124z" />
    <glyph glyph-name="four.numr" horiz-adv-x="539" 
d="M525 392h-78v-78h-134v78h-300v85l272 233h162v-224h78v-94zM313 620l-149 -134h149v134z" />
    <glyph glyph-name="five.numr" horiz-adv-x="537" 
d="M270 300c-133 0 -223 45 -242 122l139 20c9 -27 47 -42 107 -42c59 0 92 18 92 55c0 32 -31 50 -87 50c-55 0 -84 -16 -100 -34l-127 10l30 229h392v-85h-284l-13 -71c22 28 78 45 147 45c119 0 184 -51 184 -144c0 -96 -90 -155 -238 -155z" />
    <glyph glyph-name="six.numr" horiz-adv-x="547" 
d="M315 591c128 0 203 -43 203 -139c0 -87 -95 -152 -233 -152c-157 0 -254 84 -254 210c0 131 93 214 253 214c119 0 214 -35 233 -92l-142 -24c-21 22 -50 30 -94 30c-63 0 -101 -25 -112 -83c30 18 76 36 146 36zM285 400c54 0 91 24 91 52c0 35 -31 44 -87 44
c-60 0 -97 -23 -114 -41c17 -41 56 -55 110 -55z" />
    <glyph glyph-name="seven.numr" horiz-adv-x="476" 
d="M19 710h440v-97c-115 -63 -182 -168 -198 -298v-1h-157c16 111 72 212 203 289h-288v107zM104 312v2v-2z" />
    <glyph glyph-name="eight.numr" horiz-adv-x="550" 
d="M433 532c65 -22 90 -53 90 -102c0 -80 -91 -130 -242 -130c-163 0 -254 43 -254 118c0 46 37 79 97 93c-59 21 -81 50 -81 94c0 73 90 119 235 119c139 0 230 -45 230 -114c0 -34 -31 -64 -75 -78zM278 637c-64 0 -94 -10 -94 -31c0 -19 21 -28 88 -39l46 -8
c5 -1 10 -2 15 -2c21 17 33 33 33 43c0 25 -28 37 -88 37zM281 395c61 0 99 14 99 36s-9 27 -110 45l-45 9c-36 -12 -54 -30 -54 -52c0 -26 36 -38 110 -38z" />
    <glyph glyph-name="nine.numr" horiz-adv-x="548" 
d="M262 724c161 0 256 -81 256 -215c0 -125 -101 -209 -255 -209c-120 0 -215 45 -234 110l141 24c15 -27 42 -37 97 -37c65 0 108 35 115 93c-34 -28 -86 -43 -150 -43c-132 0 -202 46 -202 134c0 86 92 143 232 143zM256 543c54 0 92 13 108 39c-19 30 -54 46 -102 46
c-57 0 -90 -17 -90 -47c0 -25 27 -38 84 -38z" />
    <glyph glyph-name="zero.sups" horiz-adv-x="693" 
d="M347 293c-180 0 -319 92 -319 271s139 271 319 271c179 0 319 -92 319 -271s-140 -271 -319 -271zM347 433c50 0 104 28 104 131c0 104 -54 131 -104 131c-51 0 -105 -27 -105 -131c0 -103 54 -131 105 -131z" />
    <glyph glyph-name="one.sups" horiz-adv-x="461" 
d="M175 310v287c-20 -20 -54 -30 -106 -30h-45v166h24c79 0 134 30 158 84h177v-507h-208z" />
    <glyph glyph-name="two.sups" horiz-adv-x="667" 
d="M34 310v126c166 62 363 123 363 206c0 32 -28 52 -71 52c-49 0 -81 -21 -81 -68c0 -4 0 -9 2 -12l-212 17c-1 7 -1 14 -1 21c0 122 130 183 290 183c165 0 292 -43 292 -173c0 -114 -124 -166 -275 -205h282v-147h-589z" />
    <glyph glyph-name="three.sups" horiz-adv-x="649" 
d="M317 293c-183 0 -298 67 -297 192l213 15c-4 -56 38 -73 86 -73s84 12 84 45c0 19 -12 39 -79 39h-57v105h57c57 0 75 15 75 38c0 29 -33 46 -80 46c-49 0 -88 -11 -86 -70l-212 15c-2 114 108 190 294 190c180 0 299 -53 299 -160c0 -74 -61 -100 -130 -107
c96 -12 138 -54 138 -117c0 -103 -131 -158 -305 -158z" />
    <glyph glyph-name="four.sups" horiz-adv-x="707" 
d="M690 400h-113v-90h-204v90h-356v125l336 292h224v-286h113v-131zM373 682l-161 -151h161v151z" />
    <glyph glyph-name="five.sups" horiz-adv-x="640" 
d="M311 293c-161 0 -273 65 -283 163l202 20c4 -29 39 -49 84 -49c52 0 82 21 82 56c0 33 -30 52 -84 52c-40 0 -71 -17 -81 -37l-181 16l32 303h482v-128h-321l-8 -77c28 30 82 46 148 46c141 0 228 -68 228 -173c0 -117 -116 -192 -300 -192z" />
    <glyph glyph-name="six.sups" horiz-adv-x="656" 
d="M387 660c157 0 245 -64 245 -178c0 -118 -116 -189 -304 -189c-195 0 -300 90 -300 256c0 183 116 286 320 286c142 0 247 -50 277 -134l-212 -21c-11 21 -41 35 -74 35c-60 0 -95 -31 -106 -93c41 25 93 38 154 38zM328 426c53 0 90 22 90 55c0 34 -31 55 -80 55
c-41 0 -72 -11 -101 -35c12 -53 41 -75 91 -75z" />
    <glyph glyph-name="seven.sups" horiz-adv-x="578" 
d="M141 310v15c0 138 70 258 224 343h-349v149h539v-142c-113 -72 -193 -176 -193 -325v-40h-221z" />
    <glyph glyph-name="eight.sups" horiz-adv-x="664" 
d="M514 599c87 -29 122 -74 122 -147c0 -100 -112 -159 -303 -159c-188 0 -305 56 -305 145c0 58 46 98 125 112c-76 26 -110 67 -110 130c0 94 111 155 288 155c179 0 292 -55 292 -141c0 -49 -41 -82 -109 -95zM332 716c-45 0 -76 -16 -76 -40c0 -22 27 -35 90 -44l40 -6
c2 0 4 -1 5 -1c12 11 19 26 19 43c0 31 -29 48 -78 48zM333 416c52 0 87 18 87 46c0 25 -25 38 -98 51l-47 9c-20 -13 -31 -31 -31 -51c0 -35 33 -55 89 -55z" />
    <glyph glyph-name="nine.sups" horiz-adv-x="656" 
d="M315 835c204 0 313 -89 313 -258c0 -183 -114 -284 -320 -284c-145 0 -248 57 -278 145l210 21c9 -22 40 -37 78 -37c57 0 92 24 104 86c-36 -19 -83 -26 -152 -26c-158 0 -246 63 -246 173c0 111 112 180 291 180zM238 656c0 -29 34 -51 80 -51c41 0 73 8 103 24
c-13 59 -49 81 -100 81s-83 -20 -83 -54z" />
    <glyph glyph-name="backslash.case" horiz-adv-x="774" 
d="M505 -87l-465 877h229l465 -877h-229z" />
    <glyph glyph-name="periodcentered.case" horiz-adv-x="346" 
d="M296 458v-189h-246v189h246z" />
    <glyph glyph-name="bullet.case" horiz-adv-x="397" 
d="M198 220c-85 0 -148 59 -148 145c0 89 63 148 148 148c86 0 149 -57 149 -148c0 -86 -63 -145 -149 -145z" />
    <glyph glyph-name="colon.case" horiz-adv-x="346" 
d="M296 550v-189h-246v189h246zM296 189v-189h-246v189h246z" />
    <glyph glyph-name="exclamdown.case" horiz-adv-x="428" 
d="M345 546h-262v179h262v-179zM106 471h216l28 -471h-272z" />
    <glyph glyph-name="questiondown.case" horiz-adv-x="836" 
d="M558 712v-179h-260v179h260zM544 496v-23c0 -60 -13 -111 -95 -144l-99 -39c-55 -22 -76 -47 -76 -81c0 -45 45 -77 141 -77c87 0 151 30 151 99c0 16 -1 28 -4 39l250 -20c4 -13 5 -29 5 -42c0 -143 -161 -233 -402 -233c-225 0 -391 73 -391 217c0 86 53 138 135 173
l96 42c53 23 61 48 61 75v14h228z" />
    <glyph glyph-name="semicolon.case" horiz-adv-x="346" 
d="M296 550v-189h-246v189h246zM105 -177l-18 87c69 11 97 39 97 83v7h-116v207h228v-197c0 -85 -47 -175 -191 -187z" />
    <glyph glyph-name="slash.case" horiz-adv-x="774" 
d="M269 -87h-229l465 877h229z" />
    <glyph glyph-name="underscore.case" horiz-adv-x="689" 
d="M0 -25h689v-122h-689v122z" />
    <glyph glyph-name="asterisk.ss04" horiz-adv-x="282" 
d="M141 710l-31 -93h-97l79 -57l-30 -93l79 57l79 -57l-31 93l79 57h-97z" />
    <glyph glyph-name="braceleft.case" horiz-adv-x="460" 
d="M311 -85c-146 0 -198 50 -198 164v131c0 52 -6 88 -98 90v128c93 2 98 31 98 86v123c0 96 64 161 194 161h143v-146h-63c-37 0 -55 -22 -55 -66v-72c0 -69 -19 -128 -112 -149c93 -25 112 -88 112 -156v-91c0 -43 19 -58 54 -58h64v-145h-139z" />
    <glyph glyph-name="braceright.case" horiz-adv-x="460" 
d="M149 -85h-139v145h64c35 0 54 15 54 58v91c0 68 19 131 112 156c-93 21 -112 80 -112 149v72c0 44 -18 66 -55 66h-63v146h143c130 0 194 -65 194 -161v-123c0 -55 5 -84 98 -86v-128c-92 -2 -98 -38 -98 -90v-131c0 -114 -52 -164 -198 -164z" />
    <glyph glyph-name="bracketleft.case" horiz-adv-x="456" 
d="M78 -86v884h368v-145h-149v-594h149v-145h-368z" />
    <glyph glyph-name="bracketright.case" horiz-adv-x="456" 
d="M378 -86h-368v145h149v594h-149v145h368v-884z" />
    <glyph glyph-name="parenleft.case" horiz-adv-x="454" 
d="M268 -113c-124 131 -209 307 -209 473c0 165 88 348 213 467l179 -71c-115 -121 -167 -259 -167 -400c0 -139 58 -275 170 -398z" />
    <glyph glyph-name="parenright.case" horiz-adv-x="454" 
d="M186 -113l-186 71c112 123 170 259 170 398c0 141 -52 279 -167 400l179 71c125 -119 213 -302 213 -467c0 -166 -85 -342 -209 -473z" />
    <glyph glyph-name="parenleft.subs" horiz-adv-x="368" 
d="M222 -249c-86 97 -149 225 -149 347c0 121 65 256 154 342l148 -55c-80 -88 -118 -189 -118 -291c0 -99 42 -198 121 -287z" />
    <glyph glyph-name="parenright.subs" horiz-adv-x="368" 
d="M146 -249l-156 56c79 89 121 188 121 287c0 102 -38 203 -118 291l148 55c89 -86 154 -221 154 -342c0 -122 -63 -250 -149 -347z" />
    <glyph glyph-name="parenleft.sups" horiz-adv-x="368" 
d="M222 201c-86 97 -149 225 -149 347c0 121 65 256 154 342l148 -55c-80 -88 -118 -189 -118 -291c0 -99 42 -198 121 -287z" />
    <glyph glyph-name="parenright.sups" horiz-adv-x="368" 
d="M146 201l-156 56c79 89 121 188 121 287c0 102 -38 203 -118 291l148 55c89 -86 154 -221 154 -342c0 -122 -63 -250 -149 -347z" />
    <glyph glyph-name="emdash.case" horiz-adv-x="1060" 
d="M40 456h980v-217h-980v217z" />
    <glyph glyph-name="endash.case" horiz-adv-x="783" 
d="M40 451h703v-208h-703v208z" />
    <glyph glyph-name="hyphen.case" horiz-adv-x="603" 
d="M40 431h523v-166h-523v166z" />
    <glyph glyph-name="guillemotleft.case" horiz-adv-x="863" 
d="M261 137l-242 210l247 205h221l-246 -204l243 -211h-223zM621 137l-242 210l247 205h221l-246 -204l243 -211h-223z" />
    <glyph glyph-name="guillemotright.case" horiz-adv-x="863" 
d="M242 137h-223l243 211l-246 204h221l247 -205zM602 137h-223l243 211l-246 204h221l247 -205z" />
    <glyph glyph-name="guilsinglleft.case" horiz-adv-x="502" 
d="M261 137l-242 210l247 205h221l-246 -204l243 -211h-223z" />
    <glyph glyph-name="guilsinglright.case" horiz-adv-x="502" 
d="M241 137h-223l243 211l-246 204h221l247 -205z" />
    <glyph glyph-name="currency.case" horiz-adv-x="688" 
d="M654 353c0 -57 -20 -107 -56 -145l65 -57l-85 -81l-83 71c-42 -15 -92 -24 -147 -24c-63 0 -119 11 -166 32l-81 -71l-86 82l71 61c-29 37 -45 81 -45 132s16 96 45 132l-71 62l86 82l83 -71c46 20 102 31 164 31c60 0 113 -10 157 -28l82 69l86 -82l-67 -58
c31 -37 48 -84 48 -137zM348 253c78 0 130 39 130 100c0 59 -52 96 -130 96s-131 -37 -131 -96c0 -61 53 -100 131 -100z" />
    <glyph glyph-name="dollar.case" horiz-adv-x="879" 
d="M860 232c0 -144 -144 -238 -375 -251v-88h-79v87c-181 5 -345 58 -426 139l165 127c63 -61 154 -96 261 -103v141l-110 11c-170 19 -251 83 -251 203c0 140 132 228 361 236v80h79v-80c143 -6 274 -44 369 -107l-143 -136c-40 43 -125 76 -226 85v-132l114 -10
c179 -18 261 -75 261 -202zM370 455l36 -3v127c-84 -3 -129 -25 -129 -63s25 -54 93 -61zM485 142c88 4 139 28 139 68c0 41 -26 54 -80 60l-59 6v-134z" />
    <glyph glyph-name="Euro.case" horiz-adv-x="1042" 
d="M586 154c104 0 167 44 193 110l235 -82c-72 -130 -227 -207 -437 -207c-255 0 -411 119 -455 286h-117v67h105c-1 11 -1 23 -1 34c0 6 0 13 1 19h-105v67h115c43 165 212 287 466 287c211 0 372 -79 436 -204l-245 -70c-26 58 -86 94 -192 94c-111 0 -172 -45 -199 -107
h311v-67h-327c-1 -6 -1 -13 -1 -19c0 -11 1 -23 2 -34h326v-67h-308c29 -62 90 -107 197 -107z" />
    <glyph glyph-name="sterling.case" horiz-adv-x="861" 
d="M621 238l239 -26c-23 -144 -131 -231 -285 -231c-106 0 -151 30 -272 30c-79 0 -169 -7 -255 -19l-39 108c93 25 137 77 137 161c0 17 -1 33 -3 48h-99v107h76c-4 21 -7 42 -7 66c0 156 137 253 354 253c214 0 337 -71 364 -209l-235 -38c-9 57 -54 89 -124 89
c-78 0 -119 -34 -119 -96c0 -24 3 -45 7 -65h218v-107h-196c1 -9 1 -18 1 -27c0 -54 -29 -98 -81 -117c31 6 54 9 78 9c50 0 89 -16 140 -16c56 0 92 28 101 80z" />
    <glyph glyph-name="currency.tf.case" 
d="M711 353c0 -57 -20 -106 -55 -145l65 -57l-85 -81l-83 71c-42 -15 -92 -24 -147 -24c-63 0 -120 11 -166 32l-81 -71l-86 82l70 62c-28 36 -44 80 -44 131s16 96 45 132l-71 62l86 82l83 -71c46 20 102 31 164 31c59 0 112 -10 157 -28l82 69l85 -82l-67 -58
c31 -38 48 -84 48 -137zM406 253c78 0 130 39 130 100c0 59 -52 96 -130 96s-132 -37 -132 -96c0 -61 54 -100 132 -100z" />
    <glyph glyph-name="dollar.tf.case" 
d="M792 223c0 -143 -122 -231 -327 -242v-88h-77v88c-164 5 -304 58 -378 143l171 122c55 -61 120 -94 207 -103v142l-91 14c-152 25 -226 95 -226 216c0 135 112 211 317 218v81h77v-82c131 -8 239 -45 322 -110l-146 -130c-33 42 -98 71 -176 81v-129l97 -13
c164 -23 230 -83 230 -208zM372 457l16 -2v122c-63 -3 -93 -22 -93 -58c0 -38 18 -53 77 -62zM465 140c75 4 109 25 109 66c0 38 -16 51 -67 60l-42 7v-133z" />
    <glyph glyph-name="Euro.tf.case" 
d="M455 154c59 0 92 43 107 108l226 -81c-48 -130 -177 -206 -342 -206c-205 0 -328 115 -361 286h-68v67h60c-1 10 -1 21 -1 31v9v13h-59v68h66c32 169 166 286 372 286c165 0 299 -76 341 -204l-235 -68c-16 58 -47 94 -106 94c-64 0 -99 -43 -113 -108h160v-68h-167v-11
v-12c0 -10 0 -20 1 -30h166v-67h-158c15 -66 50 -107 111 -107z" />
    <glyph glyph-name="sterling.tf.case" 
d="M560 238l239 -26c-21 -144 -120 -231 -261 -231c-96 0 -136 30 -245 30c-77 0 -166 -7 -251 -19l-39 108c91 25 134 78 134 162c0 17 -1 33 -3 48h-97v106h74c-4 21 -7 43 -7 68c0 154 127 251 329 251c199 0 313 -70 339 -209l-235 -38c-7 57 -43 89 -99 89
c-62 0 -95 -32 -95 -95c0 -25 3 -46 8 -66h167v-106h-146c1 -9 1 -18 1 -28c0 -54 -31 -98 -82 -118c30 6 53 9 76 9c41 0 74 -16 116 -16s71 30 77 81z" />
    <glyph glyph-name="yen.tf.case" 
d="M825 710l-271 -394h193v-76h-218v-55h218v-76h-218v-109h-255v109h-218v76h218v55h-218v76h193l-270 394h274l122 -224c12 -21 20 -37 26 -58h2c5 21 14 37 25 58l122 224h275z" />
    <glyph glyph-name="yen.case" horiz-adv-x="952" 
d="M967 710l-332 -394h259v-77h-290v-54h290v-77h-290v-108h-255v108h-280v77h280v54h-280v77h249l-332 394h284l160 -205c14 -20 36 -54 49 -76h4c13 22 36 57 51 76l166 205h267z" />
    <glyph glyph-name="currency.tf" 
d="M711 303c0 -57 -20 -106 -55 -145l65 -57l-85 -81l-83 71c-42 -15 -92 -24 -147 -24c-63 0 -120 11 -166 32l-81 -71l-86 82l70 62c-28 36 -44 80 -44 131s16 96 45 132l-71 62l86 82l83 -71c46 20 102 31 164 31c59 0 112 -10 157 -28l82 69l85 -82l-67 -58
c31 -38 48 -84 48 -137zM406 203c78 0 130 39 130 100c0 59 -52 96 -130 96s-132 -37 -132 -96c0 -61 54 -100 132 -100z" />
    <glyph glyph-name="plus.case" horiz-adv-x="724" 
d="M684 448v-139h-248v-192h-150v192h-246v139h246v182h150v-182h248z" />
    <glyph glyph-name="minus.case" horiz-adv-x="724" 
d="M40 309v139h644v-139h-644z" />
    <glyph glyph-name="multiply.case" 
d="M707 549l-204 -174l203 -174l-99 -90l-206 177l-206 -176l-100 88l204 174l-204 175l100 88l206 -176l205 176z" />
    <glyph glyph-name="divide.case" horiz-adv-x="724" 
d="M361 491c-52 0 -91 37 -91 90c0 54 39 91 91 91s92 -36 92 -91c0 -52 -40 -90 -92 -90zM40 309v139h644v-139h-644zM361 81c-52 0 -91 37 -91 90c0 54 39 91 91 91s92 -36 92 -91c0 -52 -40 -90 -92 -90z" />
    <glyph glyph-name="equal.case" horiz-adv-x="696" 
d="M40 415v121h616v-121h-616zM40 222v121h616v-121h-616z" />
    <glyph glyph-name="notequal.case" 
d="M707 415h-239l-35 -72h274v-121h-334l-54 -109h-105l54 109h-177v121h237l35 72h-272v121h332l52 105h105l-52 -105h179v-121z" />
    <glyph glyph-name="greater.case" 
d="M138 107v148l402 122l-402 122v146l569 -204v-130z" />
    <glyph glyph-name="less.case" 
d="M665 107l-569 204v130l569 204v-146l-402 -122l402 -122v-148z" />
    <glyph glyph-name="greaterequal.case" 
d="M126 195v148l402 122l-402 122v146l569 -204v-130zM690 169v-119h-569v119h569z" />
    <glyph glyph-name="lessequal.case" 
d="M677 195l-569 204v130l569 204v-146l-402 -122l402 -122v-148zM113 169h569v-119h-569v119z" />
    <glyph glyph-name="plusminus.case" 
d="M475 481h248v-139h-248v-148h-149v148h-247v139h247v149h149v-149zM79 50v121h644v-121h-644z" />
    <glyph glyph-name="approxequal.case" 
d="M557 384c-106 0 -221 70 -305 70c-60 0 -121 -21 -157 -50v125c34 29 98 50 155 50c122 0 217 -70 303 -70c61 0 121 21 157 50v-125c-33 -29 -97 -50 -153 -50zM557 189c-106 0 -221 70 -305 70c-60 0 -121 -21 -157 -50v125c34 29 98 50 155 50c122 0 217 -70 303 -70
c61 0 121 21 157 50v-125c-33 -29 -97 -50 -153 -50z" />
    <glyph glyph-name="asciitilde.case" 
d="M518 259c-106 0 -142 59 -214 59c-46 0 -74 -23 -77 -64l-140 40c16 106 95 156 198 156c111 0 150 -59 217 -59c48 0 69 29 72 64l141 -26c-12 -123 -103 -170 -197 -170z" />
    <glyph glyph-name="logicalnot.case" 
d="M113 443h575v-276h-137v150h-438v126z" />
    <glyph glyph-name="infinity.case" horiz-adv-x="827" 
d="M610 565c118 0 198 -74 198 -186c0 -110 -82 -188 -199 -188c-81 0 -145 31 -197 86c-54 -56 -116 -86 -194 -86c-119 0 -199 74 -199 186c0 110 83 188 200 188c80 0 144 -31 196 -86c55 56 116 86 195 86zM237 316c42 0 68 24 99 63c-32 42 -63 62 -101 62
c-44 0 -72 -25 -72 -63s30 -62 74 -62zM592 316c44 0 72 24 72 62s-30 63 -74 63c-42 0 -68 -25 -99 -64c32 -42 63 -61 101 -61z" />
    <glyph glyph-name="emptyset.case" horiz-adv-x="653" 
d="M568 511c41 -40 64 -92 64 -154c0 -144 -122 -238 -306 -238c-72 0 -135 15 -185 41l-77 -63l-49 47l69 57c-41 40 -64 92 -64 154c0 144 123 238 307 238c72 0 135 -15 184 -41l77 63l49 -47zM196 357c0 -20 5 -38 13 -53l182 149c-19 7 -40 11 -64 11
c-79 0 -131 -42 -131 -107zM326 248c79 0 131 42 131 107c0 20 -5 38 -14 54l-181 -149c18 -8 40 -12 64 -12z" />
    <glyph glyph-name="plus.tf.case" 
d="M723 448v-139h-248v-192h-150v192h-246v139h246v182h150v-182h248z" />
    <glyph glyph-name="minus.tf.case" 
d="M79 309v139h644v-139h-644z" />
    <glyph glyph-name="divide.tf.case" 
d="M364 491c-52 0 -91 37 -91 90c0 54 39 91 91 91s92 -36 92 -91c0 -52 -40 -90 -92 -90zM43 309v139h644v-139h-644zM364 81c-52 0 -91 37 -91 90c0 54 39 91 91 91s92 -36 92 -91c0 -52 -40 -90 -92 -90z" />
    <glyph glyph-name="equal.tf.case" 
d="M92 415v121h616v-121h-616zM92 222v121h616v-121h-616z" />
    <glyph glyph-name="emptyset.tf.case" 
d="M644 511c41 -40 64 -92 64 -154c0 -144 -122 -238 -306 -238c-72 0 -135 15 -185 41l-77 -63l-49 47l69 57c-41 40 -64 92 -64 154c0 144 123 238 307 238c72 0 135 -15 184 -41l77 63l49 -47zM271 357c0 -20 5 -38 14 -54l182 150c-19 7 -40 11 -64 11
c-79 0 -132 -42 -132 -107zM402 248c79 0 131 42 131 107c0 20 -5 38 -14 54l-181 -149c18 -8 40 -12 64 -12z" />
    <glyph glyph-name="plus.subs" horiz-adv-x="562" 
d="M525 155v-111h-185v-140h-119v140h-184v111h184v133h119v-133h185z" />
    <glyph glyph-name="minus.subs" horiz-adv-x="562" 
d="M37 45v110h488v-110h-488z" />
    <glyph glyph-name="multiply.subs" horiz-adv-x="615" 
d="M538 222l-149 -125l148 -125l-80 -71l-150 127l-151 -127l-79 70l148 126l-148 125l79 70l151 -127l149 127z" />
    <glyph glyph-name="divide.subs" horiz-adv-x="562" 
d="M281 180c-42 0 -73 29 -73 72c0 44 31 72 73 72c41 0 73 -28 73 -72c0 -42 -32 -72 -73 -72zM37 45v111h488v-111h-488zM281 -127c-42 0 -73 28 -73 71c0 44 31 73 73 73c41 0 73 -29 73 -73c0 -42 -32 -71 -73 -71z" />
    <glyph glyph-name="plus.sups" horiz-adv-x="562" 
d="M525 605v-111h-185v-139h-119v139h-184v111h184v133h119v-133h185z" />
    <glyph glyph-name="minus.sups" horiz-adv-x="562" 
d="M37 495v110h488v-110h-488z" />
    <glyph glyph-name="multiply.sups" horiz-adv-x="615" 
d="M538 672l-150 -125l149 -125l-80 -71l-150 127l-151 -126l-79 69l148 126l-148 125l79 70l151 -127l149 127z" />
    <glyph glyph-name="divide.sups" horiz-adv-x="562" 
d="M281 630c-42 0 -73 29 -73 72c0 44 31 72 73 72c41 0 73 -28 73 -72c0 -42 -32 -72 -73 -72zM37 495v111h488v-111h-488zM281 323c-42 0 -73 28 -73 71c0 44 31 73 73 73c41 0 73 -29 73 -73c0 -42 -32 -71 -73 -71z" />
    <glyph glyph-name="plus.tf" 
d="M723 398v-139h-248v-192h-150v192h-246v139h246v182h150v-182h248z" />
    <glyph glyph-name="minus.tf" 
d="M79 259v139h644v-139h-644z" />
    <glyph glyph-name="divide.tf" 
d="M364 441c-52 0 -91 37 -91 90c0 54 39 91 91 91s92 -36 92 -91c0 -52 -40 -90 -92 -90zM43 259v139h644v-139h-644zM364 31c-52 0 -91 37 -91 90c0 54 39 91 91 91s92 -36 92 -91c0 -52 -40 -90 -92 -90z" />
    <glyph glyph-name="equal.tf" 
d="M92 365v121h616v-121h-616zM92 172v121h616v-121h-616z" />
    <glyph glyph-name="emptyset.tf" 
d="M644 461c41 -40 64 -92 64 -154c0 -144 -122 -238 -306 -238c-72 0 -135 15 -185 41l-77 -63l-49 47l69 57c-41 40 -64 92 -64 154c0 144 123 238 307 238c72 0 135 -15 184 -41l77 63l49 -47zM271 307c0 -20 5 -38 14 -54l182 150c-19 7 -40 11 -64 11
c-79 0 -132 -42 -132 -107zM402 198c79 0 131 42 131 107c0 20 -5 38 -14 54l-181 -149c18 -8 40 -12 64 -12z" />
    <glyph glyph-name="percent.tf" 
d="M78 -14l527 744h128l-526 -744h-129zM204 362c-116 0 -193 69 -193 181c0 107 77 178 193 178c114 0 193 -72 193 -181s-79 -178 -193 -178zM204 479c33 0 54 23 54 61v1c0 39 -21 63 -54 63c-34 0 -55 -23 -55 -60v-2c0 -40 21 -63 55 -63zM600 -10
c-116 0 -193 69 -193 181c0 107 77 178 193 178c114 0 193 -72 193 -181s-79 -178 -193 -178zM600 107c33 0 54 23 54 61v1c0 39 -21 63 -54 63c-34 0 -55 -23 -55 -60v-2c0 -40 21 -63 55 -63z" />
    <glyph glyph-name="uni21BB.alt" horiz-adv-x="1219" 
d="M1093 414h111l-170 -226l-171 226h109c-31 140 -170 233 -362 233c-128 0 -232 -41 -299 -111l-79 81c85 82 213 135 379 135c277 0 451 -147 482 -338zM609 56c128 0 232 42 299 111l79 -80c-85 -83 -213 -135 -379 -135c-276 0 -451 145 -482 337h-111l171 226
l170 -226h-109c31 -140 170 -233 362 -233z" />
    <glyph glyph-name="arrowup.ss03" horiz-adv-x="852" 
d="M339 444l-152 -176l-109 134l348 348l347 -348l-104 -133l-160 175v-479h-170v479z" />
    <glyph glyph-name="uni2197.ss03" horiz-adv-x="912" 
d="M673 429l-468 -484l-126 131l479 479l-225 -3v158h501v-502h-164z" />
    <glyph glyph-name="arrowright.ss03" horiz-adv-x="1221" 
d="M842 248h-764v160h764l-180 165l133 104l348 -347l-348 -348l-134 109z" />
    <glyph glyph-name="uni2198.ss03" horiz-adv-x="912" 
d="M673 269l-3 221h164v-502h-501v158l225 -3l-479 479l126 131z" />
    <glyph glyph-name="arrowdown.ss03" horiz-adv-x="852" 
d="M339 266v479h170v-479l160 175l104 -133l-347 -348l-348 348l109 134z" />
    <glyph glyph-name="uni2199.ss03" horiz-adv-x="912" 
d="M239 269l468 484l126 -131l-479 -479l225 3v-158h-501v502h164z" />
    <glyph glyph-name="arrowleft.ss03" horiz-adv-x="1221" 
d="M379 248l181 -157l-134 -109l-348 348l348 347l133 -104l-180 -165h764v-160h-764z" />
    <glyph glyph-name="uni2196.ss03" horiz-adv-x="912" 
d="M239 429l3 -221h-164v502h501v-158l-225 3l479 -479l-126 -131z" />
    <glyph glyph-name="circle.invert" horiz-adv-x="920" 
d="M460 -25c-269 0 -445 146 -445 380c0 235 176 380 445 380s444 -145 444 -380c0 -234 -175 -380 -444 -380z" />
    <glyph glyph-name="at.case" horiz-adv-x="982" 
d="M481 -26c-287 0 -466 145 -466 378c0 228 198 384 487 384c283 0 465 -142 465 -364c0 -145 -88 -235 -229 -235c-86 0 -138 31 -158 94c-39 -63 -112 -99 -200 -99c-122 0 -184 43 -184 127c0 82 61 125 202 140l177 19v8c0 39 -32 65 -80 65c-51 0 -84 -21 -89 -57
h-201c13 100 129 166 291 166c178 0 273 -69 273 -199v-114c0 -40 15 -58 48 -58c44 0 72 54 72 141c0 188 -143 297 -390 297c-246 0 -401 -121 -401 -315c0 -187 156 -307 396 -307c67 0 149 16 204 40l28 -64c-72 -32 -149 -47 -245 -47zM465 242c68 0 110 37 110 96v17
l-117 -16c-40 -5 -63 -23 -63 -50c0 -28 28 -47 70 -47z" />
    <glyph glyph-name="section.case" horiz-adv-x="708" 
d="M625 271c38 -25 55 -62 55 -113c0 -114 -129 -183 -364 -183c-139 0 -259 28 -336 80l108 118c66 -38 156 -58 261 -58c70 0 97 8 97 28c0 21 -16 29 -66 33l-194 15c-134 10 -201 58 -201 142c0 48 24 86 71 113c-40 25 -60 62 -60 110c0 110 135 179 348 179
c120 0 236 -20 321 -57l-97 -119c-76 25 -161 40 -248 40c-65 0 -93 -8 -93 -25c0 -18 16 -27 54 -31l198 -14c148 -12 210 -53 210 -139c0 -50 -21 -90 -64 -119zM266 328l198 -16c11 8 16 20 16 35c0 30 -18 40 -79 45l-186 14c-16 -7 -23 -19 -23 -36
c0 -26 20 -38 74 -42z" />
    <glyph glyph-name="bar.case" horiz-adv-x="281" 
d="M74 -87v877h133v-877h-133z" />
    <glyph glyph-name="brokenbar.case" horiz-adv-x="281" 
d="M207 800v-373h-133v373h133zM207 306v-383h-133v383h133z" />
    <glyph glyph-name="dagger.case" horiz-adv-x="645" 
d="M397 418v-436h-149v436h-226v122h226v220h149v-220h226v-122h-226z" />
    <glyph glyph-name="daggerdbl.case" horiz-adv-x="645" 
d="M623 418h-226v-93h226v-122h-226v-221h-149v221h-226v122h226v93h-226v122h226v220h149v-220h226v-122z" />
    <glyph glyph-name="registered.ss04" horiz-adv-x="613" 
d="M307 734c177 0 293 -97 293 -252s-116 -251 -293 -251c-178 0 -294 96 -294 251s116 252 294 252zM307 278c142 0 241 78 241 204c0 127 -99 204 -241 204c-143 0 -241 -77 -241 -204c0 -126 98 -204 241 -204zM482 529c0 -42 -22 -72 -62 -84l59 -94h-120l-45 81h-44
v-81h-107v268h212c69 0 107 -33 107 -90zM270 554v-59h66c23 0 36 10 36 30c0 19 -13 29 -35 29h-67z" />
    <glyph glyph-name="Bitcoin.case" horiz-adv-x="959" 
d="M765 370c109 -17 165 -75 165 -171c0 -126 -101 -199 -275 -199h-10v-89h-87v89h-166v-89h-88v89h-226v710h226v82h88v-82h166v82h87v-82h6c171 0 262 -62 262 -181c0 -81 -55 -140 -148 -159zM333 557v-130h239c48 0 75 23 75 66c0 42 -26 64 -75 64h-239zM582 153
c53 0 82 23 82 67c0 41 -31 65 -82 65h-249v-132h249z" />
    <glyph glyph-name="Baht.case" horiz-adv-x="959" 
d="M765 369c109 -16 165 -72 165 -166c0 -136 -106 -203 -275 -203h-133v-89h-79v89h-365v710h365v90h79v-90h128c168 0 263 -57 263 -182c0 -79 -55 -140 -148 -159zM318 566v-150h125v150h-125zM587 566h-65v-150h65c49 0 74 29 74 78c0 48 -25 72 -74 72zM318 144h125
v149h-125v-149zM597 144c50 0 81 24 81 77c0 49 -31 72 -81 72h-75v-149h75z" />
    <glyph glyph-name="Lira.case" horiz-adv-x="881" 
d="M640 307l242 -28c-52 -187 -145 -279 -379 -279h-369v273l-115 -23v73l115 23v62l-115 -23v73l115 23v229h255v-177l279 56v-73l-279 -56v-62l279 56v-73l-279 -56v-150h72c96 0 159 54 179 132z" />
    <glyph glyph-name="Ruble.case" horiz-adv-x="963" 
d="M641 225h-261v-65h268v-76h-268v-84h-255v84h-126v76h126v65h-126v157h126v328h513c197 0 315 -89 315 -237c0 -153 -121 -248 -312 -248zM380 547v-165h192c72 0 110 28 110 82s-37 83 -109 83h-193z" />
    <glyph glyph-name="Rupee.case" horiz-adv-x="972" 
d="M904 577h-237c13 -23 21 -48 24 -74h213v-76h-214c-15 -92 -83 -189 -289 -195l280 -232h-309l-294 253v94h209c84 0 120 34 132 80h-341v76h340c-13 43 -50 74 -130 74h-210v133h826v-133z" />
    <glyph glyph-name="Won.case" horiz-adv-x="1409" 
d="M1383 383h-120l-17 -55h137v-67h-159l-83 -261h-281l-74 261h-163l-74 -261h-280l-83 261h-160v67h138l-17 55h-121v67h99l-83 260h236l60 -260h157l76 260h268l76 -260h157l60 260h236l-83 -260h98v-67zM702 584c-5 -50 -10 -83 -25 -134h56c-15 51 -20 84 -26 134h-5z
M353 383l13 -55h93l16 55h-122zM643 328h124l-15 55h-94zM1043 328l13 55h-122l16 -55h93zM409 127c4 38 11 70 30 134h-58c15 -66 19 -96 22 -134h6zM1006 127c3 38 7 68 22 134h-58c20 -64 27 -96 31 -134h5z" />
    <glyph glyph-name="caronaccentcomb" horiz-adv-x="328" 
d="M118 514l-27 63c47 1 64 9 68 25h-109v108h219v-70c0 -67 -38 -121 -151 -126z" />
    <glyph glyph-name="Won.tf" 
d="M804 373h-53l-7 -52h60v-66h-69l-34 -255h-255l-18 255h-51l-18 -255h-255l-34 255h-69v66h60l-7 52h-53v66h44l-34 256h183l12 -256h61l30 256h211l31 -256h60l12 256h184l-35 -256h44v-66zM394 490l-4 -51h25l-4 51c-2 33 -5 59 -6 101h-4c-2 -42 -5 -68 -7 -101z
M210 373l2 -52h41l6 52h-49zM382 321h41l-4 52h-33zM594 321l2 52h-49l6 -52h41zM239 203l6 52h-30l3 -52c1 -36 2 -55 6 -98h3c6 43 8 64 12 98zM588 203l2 52h-29l6 -52c3 -25 6 -46 11 -98h3c3 52 6 71 7 98z" />
    <glyph glyph-name="Lira.tf" 
d="M557 303l233 -28c-39 -187 -133 -275 -351 -275h-330v262l-78 -18v73l78 18v59l-78 -18v72l78 18v229h254v-172l222 50v-72l-222 -50v-59l222 50v-73l-222 -50v-144h43c82 0 141 52 151 128z" />
    <glyph glyph-name="Ruble.tf" 
d="M489 695c200 0 314 -90 314 -233c0 -148 -117 -245 -309 -245h-121v-63h121v-75h-121v-79h-254v79h-91v75h91v63h-91v152h91v326h370zM443 369c70 0 106 31 106 86c0 53 -35 82 -106 82h-70v-168h70z" />
    <glyph glyph-name="Rupee.tf" 
d="M777 562h-160c13 -23 20 -47 23 -72h137v-75h-138c-13 -90 -70 -185 -261 -190l281 -225h-310l-292 243v96h190c82 0 113 33 123 76h-313v75h312c-11 42 -43 72 -122 72h-190v133h720v-133z" />
    <glyph glyph-name="Baht.tf" 
d="M616 362c109 -16 165 -71 165 -163c0 -133 -106 -199 -275 -199h-74v-107h-79v107h-307v695h307v90h79v-90h70c168 0 262 -54 262 -178c0 -78 -54 -136 -148 -155zM353 553h-78v-144h78v144zM450 553h-18v-144h18c48 0 75 26 75 73s-25 71 -75 71zM275 143h78v143h-78
v-143zM454 143c55 0 87 28 87 77c0 41 -31 66 -81 66h-28v-143h22z" />
    <glyph glyph-name="Bitcoin.tf" 
d="M775 199c0 -133 -106 -199 -275 -199v-107h-88v107h-92v-107h-88v107h-193v695h193v90h88v-90h92v90h88v-90c166 -1 259 -55 259 -178c0 -78 -55 -136 -148 -155c109 -16 164 -71 164 -163zM271 551v-142h173c47 0 73 27 73 73s-25 69 -73 69h-173zM447 144
c55 0 86 29 86 76c0 41 -31 66 -79 66h-183v-142h176z" />
    <glyph glyph-name="percentzerotfcomb" 
d="M186 362c-116 0 -193 69 -193 181c0 107 77 178 193 178c114 0 193 -72 193 -181s-79 -178 -193 -178zM186 479c33 0 54 23 54 61v1c0 39 -21 63 -54 63c-34 0 -55 -23 -55 -60v-2c0 -40 21 -63 55 -63z" />
    <glyph glyph-name="Won.tf.case" 
d="M804 383h-52l-8 -55h60v-67h-68l-35 -261h-255l-18 261h-51l-18 -261h-255l-34 261h-69v67h60l-7 55h-53v67h44l-34 260h183l12 -260h61l30 260h211l30 -260h61l12 260h184l-34 -260h43v-67zM394 506l-4 -56h25l-4 56c-2 32 -5 59 -6 101h-4c-2 -42 -5 -69 -7 -101z
M210 383l2 -55h41l7 55h-50zM382 328h41l-3 55h-35zM594 328l2 55h-50l7 -55h41zM239 204l7 57h-31l3 -57c1 -36 2 -56 6 -98h3c6 42 8 64 12 98zM588 204l3 57h-31l7 -57c3 -25 6 -47 11 -98h3c3 51 6 72 7 98z" />
    <glyph glyph-name="Lira.tf.case" 
d="M557 307l233 -28c-39 -187 -133 -279 -351 -279h-329v268l-79 -18v74l79 18v61l-79 -18v74l79 18v233h254v-174l221 51v-74l-221 -51v-61l221 51v-74l-221 -51v-152h42c82 0 141 54 151 132z" />
    <glyph glyph-name="Ruble.tf.case" 
d="M489 710c200 0 314 -92 314 -235c0 -151 -117 -250 -309 -250h-121v-65h121v-76h-121v-84h-254v84h-91v76h91v65h-91v152h91v333h370zM443 377c70 0 106 33 106 90c0 56 -35 85 -106 85h-70v-175h70z" />
    <glyph glyph-name="Rupee.tf.case" 
d="M777 578h-161c13 -24 21 -49 24 -75h137v-76h-138c-12 -93 -69 -191 -261 -194l281 -233h-310l-292 251v96h190c83 0 114 35 123 80h-313v76h312c-11 44 -43 75 -122 75h-190v133h720v-133z" />
    <glyph glyph-name="Baht.tf.case" 
d="M616 369c109 -16 165 -72 165 -166c0 -136 -106 -203 -275 -203h-74v-91h-79v91h-307v710h307v91h79v-91h70c168 0 262 -56 262 -182c0 -80 -54 -139 -148 -159zM353 567h-78v-150h78v150zM450 567h-18v-150h18c48 0 75 27 75 77c0 49 -25 73 -75 73zM275 143h78v150h-78
v-150zM454 143c55 0 87 29 87 81c0 43 -31 69 -81 69h-28v-150h22z" />
    <glyph glyph-name="Bitcoin.tf.case" 
d="M775 203c0 -136 -106 -203 -275 -203v-91h-88v91h-92v-91h-88v91h-193v710h193v92h88v-92h92v92h88v-92c166 -1 259 -57 259 -182c0 -80 -55 -139 -148 -159c109 -16 164 -72 164 -166zM271 566v-149h173c47 0 73 27 73 77c0 48 -25 72 -73 72h-173zM447 144
c55 0 86 30 86 80c0 43 -31 69 -79 69h-183v-149h176z" />
    </font>
</defs>
</svg>
