<svg width="169" height="18" viewBox="0 0 169 18" fill="none" xmlns="http://www.w3.org/2000/svg">
<g clip-path="url(#clip0_6045_71766)">
<path d="M158.533 14.9204L155.186 9.47721H148.496L151.84 14.9204H158.533ZM158.533 4.03401H151.84L148.496 9.47721H155.186L158.533 4.03401ZM168.57 9.47721L161.871 -1.40918H148.496L151.84 4.03401H158.533L161.871 9.47721H168.57ZM168.57 9.47721H161.871L158.527 14.9204H151.834L148.489 20.3636H161.871L168.57 9.47721Z" fill="white"/>
<path d="M15.0769 10.7107C15.0769 14.6214 12.0042 17.6403 8.25996 17.6403C6.22 17.6403 4.73815 16.9312 3.73314 15.7241V17.2727H0.12793V-1.11967L3.73314 -2.16211V5.69939C4.73815 4.49425 6.22 3.78322 8.25996 3.78322C12.0042 3.78322 15.0769 6.80008 15.0769 10.7107ZM11.4717 10.7107C11.4717 8.50132 9.82521 7.01097 7.58853 7.01097C5.35185 7.01097 3.73955 8.50735 3.73955 10.7107C3.73955 12.9141 5.3882 14.4125 7.58853 14.4125C9.78886 14.4125 11.4717 12.9161 11.4717 10.7107Z" fill="white"/>
<path d="M16.6982 -1.11967L20.3013 -2.16211V17.2727H16.6982V-1.11967Z" fill="white"/>
<path d="M21.894 10.7105C21.8915 9.33643 22.3231 7.99261 23.1342 6.84918C23.9454 5.70576 25.0995 4.81417 26.4505 4.28735C27.8015 3.76052 29.2886 3.62216 30.7234 3.88978C32.1582 4.1574 33.4761 4.81897 34.5103 5.79069C35.5445 6.76241 36.2484 8.00058 36.5329 9.34837C36.8174 10.6962 36.6697 12.0929 36.1084 13.3618C35.5472 14.6307 34.5977 15.7145 33.3801 16.4761C32.1626 17.2377 30.7318 17.6428 29.2691 17.64C28.2975 17.6497 27.3337 17.477 26.4341 17.1322C25.5345 16.7873 24.7173 16.2772 24.0304 15.6318C23.3434 14.9864 22.8006 14.2186 22.4338 13.3735C22.0669 12.5284 21.8834 11.623 21.894 10.7105ZM33.0688 10.7105C33.0688 8.5854 31.4202 7.09505 29.2691 7.09505C27.1179 7.09505 25.4971 8.59142 25.4971 10.7105C25.4971 12.8295 27.1457 14.3259 29.2691 14.3259C31.3924 14.3259 33.0688 12.8375 33.0688 10.7105Z" fill="white"/>
<path d="M38.041 10.7107C38.041 6.80006 41.1694 3.7832 45.4161 3.7832C48.1553 3.7832 50.5288 5.14701 51.6749 7.16762L48.5744 8.8749C48.0141 7.79831 46.8124 7.1154 45.3883 7.1154C43.2371 7.1154 41.6441 8.61178 41.6441 10.7107C41.6441 12.8097 43.2371 14.2799 45.3883 14.2799C46.8423 14.2799 48.0419 13.6251 48.5958 12.5486L51.7241 14.2277C51.0935 15.2758 50.1749 16.1456 49.0641 16.7462C47.9533 17.3469 46.6913 17.6563 45.4097 17.6423C41.1694 17.6402 38.041 14.6214 38.041 10.7107Z" fill="white"/>
<path d="M62.0798 17.2727L56.9949 11.3153V17.2727H53.3896V-1.11967L56.9949 -2.16211V9.92338L61.7975 4.15079H66.0998L60.4867 10.6324L66.2709 17.2727H62.0798Z" fill="white"/>
<path d="M80.6701 9.21434V17.2727H77.0649V9.64016C77.0649 7.85455 75.9209 6.93664 74.3 6.93664C72.5402 6.93664 71.2251 7.90677 71.2251 10.1905V17.2727H67.6221V4.15077H71.2251V5.61902C72.0634 4.43799 73.5174 3.7832 75.3885 3.7832C78.35 3.7832 80.6701 5.73552 80.6701 9.21434Z" fill="white"/>
<path d="M97.234 4.15077V17.2727H93.6309V15.7241C92.6237 16.9051 91.1162 17.6402 89.0763 17.6402C85.3599 17.6402 82.2871 14.6274 82.2871 10.7107C82.2871 6.79403 85.3599 3.7832 89.0763 3.7832C91.1162 3.7832 92.6237 4.51834 93.6309 5.69937V4.15077H97.234ZM93.6309 10.7107C93.6309 8.50131 91.9823 7.01096 89.7456 7.01096C87.5089 7.01096 85.8966 8.50733 85.8966 10.7107C85.8966 12.9141 87.5452 14.4125 89.7456 14.4125C91.9459 14.4125 93.6309 12.9161 93.6309 10.7107Z" fill="white"/>
<path d="M106.627 7.4043V4.15043H103.469V0.291992L99.8594 1.33443V12.8636C99.8594 16.4067 101.57 17.7966 106.623 17.2824V14.2013C104.555 14.3077 103.465 14.2796 103.465 12.8636V7.4043H106.627Z" fill="white"/>
<path d="M109.152 4.15039H112.755V17.2723H109.152V4.15039Z" fill="white"/>
<path d="M128.969 4.15039L123.659 17.2723H119.551L114.244 4.15039H118.211L121.591 13.3355L125 4.15039H128.969Z" fill="white"/>
<path d="M136.681 14.573C138.078 14.573 139.196 14.0226 139.812 13.2614L142.716 14.8361C141.403 16.6197 139.307 17.6481 136.626 17.6481C131.922 17.6481 128.971 14.6352 128.971 10.7185C128.971 6.80184 131.964 3.79102 136.346 3.79102C140.481 3.79102 143.415 6.8621 143.415 10.7185C143.41 11.183 143.36 11.6461 143.268 12.1024H132.743C133.245 13.8338 134.783 14.573 136.681 14.573ZM139.812 9.48126C139.363 7.59121 137.855 6.82996 136.346 6.82996C134.421 6.82996 133.106 7.80211 132.685 9.48126H139.812Z" fill="white"/>
</g>
<defs>
<clipPath id="clip0_6045_71766">
<rect width="169" height="18" fill="white"/>
</clipPath>
</defs>
</svg>
