<svg width="169" height="54" viewBox="0 0 169 54" fill="none" xmlns="http://www.w3.org/2000/svg">
<path d="M158.533 32.9204L155.186 27.4772H148.496L151.84 32.9204H158.533ZM158.533 22.034H151.84L148.496 27.4772H155.186L158.533 22.034ZM168.57 27.4772L161.871 16.5908H148.496L151.84 22.034H158.533L161.871 27.4772H168.57ZM168.57 27.4772H161.871L158.527 32.9204H151.834L148.489 38.3636H161.871L168.57 27.4772Z" fill="white"/>
<path d="M15.0769 28.7107C15.0769 32.6214 12.0042 35.6403 8.25996 35.6403C6.22 35.6403 4.73815 34.9312 3.73314 33.7241V35.2727H0.12793V16.8803L3.73314 15.8379V23.6994C4.73815 22.4943 6.22 21.7832 8.25996 21.7832C12.0042 21.7832 15.0769 24.8001 15.0769 28.7107ZM11.4717 28.7107C11.4717 26.5013 9.82521 25.011 7.58853 25.011C5.35185 25.011 3.73955 26.5074 3.73955 28.7107C3.73955 30.9141 5.3882 32.4125 7.58853 32.4125C9.78886 32.4125 11.4717 30.9161 11.4717 28.7107Z" fill="white"/>
<path d="M16.6982 16.8803L20.3013 15.8379V35.2727H16.6982V16.8803Z" fill="white"/>
<path d="M21.894 28.7105C21.8915 27.3364 22.3231 25.9926 23.1342 24.8492C23.9454 23.7058 25.0995 22.8142 26.4505 22.2873C27.8015 21.7605 29.2886 21.6222 30.7234 21.8898C32.1582 22.1574 33.4761 22.819 34.5103 23.7907C35.5445 24.7624 36.2484 26.0006 36.5329 27.3484C36.8174 28.6962 36.6697 30.0929 36.1084 31.3618C35.5472 32.6307 34.5977 33.7145 33.3801 34.4761C32.1626 35.2377 30.7318 35.6428 29.2691 35.64C28.2975 35.6497 27.3337 35.477 26.4341 35.1322C25.5345 34.7873 24.7173 34.2772 24.0304 33.6318C23.3434 32.9864 22.8006 32.2186 22.4338 31.3735C22.0669 30.5284 21.8834 29.623 21.894 28.7105ZM33.0688 28.7105C33.0688 26.5854 31.4202 25.095 29.2691 25.095C27.1179 25.095 25.4971 26.5914 25.4971 28.7105C25.4971 30.8295 27.1457 32.3259 29.2691 32.3259C31.3924 32.3259 33.0688 30.8375 33.0688 28.7105Z" fill="white"/>
<path d="M38.041 28.7107C38.041 24.8001 41.1694 21.7832 45.4161 21.7832C48.1553 21.7832 50.5288 23.147 51.6749 25.1676L48.5744 26.8749C48.0141 25.7983 46.8124 25.1154 45.3883 25.1154C43.2371 25.1154 41.6441 26.6118 41.6441 28.7107C41.6441 30.8097 43.2371 32.2799 45.3883 32.2799C46.8423 32.2799 48.0419 31.6251 48.5958 30.5486L51.7241 32.2277C51.0935 33.2758 50.1749 34.1456 49.0641 34.7462C47.9533 35.3469 46.6913 35.6563 45.4097 35.6423C41.1694 35.6402 38.041 32.6214 38.041 28.7107Z" fill="white"/>
<path d="M62.0798 35.2727L56.9949 29.3153V35.2727H53.3896V16.8803L56.9949 15.8379V27.9234L61.7975 22.1508H66.0998L60.4867 28.6324L66.2709 35.2727H62.0798Z" fill="white"/>
<path d="M80.6701 27.2143V35.2727H77.0649V27.6402C77.0649 25.8546 75.9209 24.9366 74.3 24.9366C72.5402 24.9366 71.2251 25.9068 71.2251 28.1905V35.2727H67.6221V22.1508H71.2251V23.619C72.0634 22.438 73.5174 21.7832 75.3885 21.7832C78.35 21.7832 80.6701 23.7355 80.6701 27.2143Z" fill="white"/>
<path d="M97.234 22.1508V35.2727H93.6309V33.7241C92.6237 34.9051 91.1162 35.6402 89.0763 35.6402C85.3599 35.6402 82.2871 32.6274 82.2871 28.7107C82.2871 24.794 85.3599 21.7832 89.0763 21.7832C91.1162 21.7832 92.6237 22.5183 93.6309 23.6994V22.1508H97.234ZM93.6309 28.7107C93.6309 26.5013 91.9823 25.011 89.7456 25.011C87.5089 25.011 85.8966 26.5073 85.8966 28.7107C85.8966 30.9141 87.5452 32.4125 89.7456 32.4125C91.9459 32.4125 93.6309 30.9161 93.6309 28.7107Z" fill="white"/>
<path d="M106.627 25.4043V22.1504H103.469V18.292L99.8594 19.3344V30.8636C99.8594 34.4067 101.57 35.7966 106.623 35.2824V32.2013C104.555 32.3077 103.465 32.2796 103.465 30.8636V25.4043H106.627Z" fill="white"/>
<path d="M109.152 22.1504H112.755V35.2723H109.152V22.1504Z" fill="white"/>
<path d="M128.969 22.1504L123.659 35.2723H119.551L114.244 22.1504H118.211L121.591 31.3355L125 22.1504H128.969Z" fill="white"/>
<path d="M136.681 32.573C138.078 32.573 139.196 32.0226 139.812 31.2614L142.716 32.8361C141.403 34.6197 139.307 35.6481 136.626 35.6481C131.922 35.6481 128.971 32.6352 128.971 28.7185C128.971 24.8018 131.964 21.791 136.346 21.791C140.481 21.791 143.415 24.8621 143.415 28.7185C143.41 29.183 143.36 29.6461 143.268 30.1024H132.743C133.245 31.8338 134.783 32.573 136.681 32.573ZM139.812 27.4813C139.363 25.5912 137.855 24.83 136.346 24.83C134.421 24.83 133.106 25.8021 132.685 27.4813H139.812Z" fill="white"/>
</svg>