<svg width="147" height="21" viewBox="0 0 147 21" fill="none" xmlns="http://www.w3.org/2000/svg">
<g clip-path="url(#clip0_6045_71278)">
<path d="M137.855 15.6479L134.945 10.9147H129.127L132.035 15.6479H137.855ZM137.855 6.18145H132.035L129.127 10.9147H134.945L137.855 6.18145ZM146.583 10.9147L140.757 1.44824H129.127L132.035 6.18145H137.855L140.757 10.9147H146.583ZM146.583 10.9147H140.757L137.849 15.6479H132.029L129.121 20.3811H140.757L146.583 10.9147Z" fill="white"/>
<path d="M13.1105 11.9867C13.1105 15.3873 10.4385 18.0124 7.18266 18.0124C5.40878 18.0124 4.12021 17.3959 3.24629 16.3462V17.6928H0.111328V1.69944L3.24629 0.792969V7.62905C4.12021 6.58111 5.40878 5.96282 7.18266 5.96282C10.4385 5.96282 13.1105 8.58617 13.1105 11.9867ZM9.97549 11.9867C9.97549 10.0655 8.54375 8.76956 6.59881 8.76956C4.65386 8.76956 3.25187 10.0708 3.25187 11.9867C3.25187 13.9027 4.68547 15.2057 6.59881 15.2057C8.51214 15.2057 9.97549 13.9045 9.97549 11.9867Z" fill="white"/>
<path d="M14.5195 1.69944L17.6526 0.792969V17.6928H14.5195V1.69944Z" fill="white"/>
<path d="M19.0394 11.9871C19.0372 10.7923 19.4126 9.62371 20.1179 8.62943C20.8233 7.63514 21.8269 6.85985 23.0017 6.40174C24.1764 5.94364 25.4695 5.82332 26.7172 6.05603C27.9648 6.28875 29.1109 6.86402 30.0102 7.709C30.9095 8.55398 31.5216 9.63064 31.769 10.8026C32.0163 11.9746 31.8879 13.1892 31.3998 14.2926C30.9118 15.3959 30.0861 16.3384 29.0274 17.0007C27.9687 17.6629 26.7245 18.0151 25.4525 18.0127C24.6077 18.0211 23.7696 17.871 22.9874 17.5712C22.2051 17.2713 21.4945 16.8277 20.8972 16.2665C20.2998 15.7053 19.8278 15.0376 19.5088 14.3028C19.1898 13.5679 19.0302 12.7806 19.0394 11.9871ZM28.7567 11.9871C28.7567 10.1392 27.3231 8.84322 25.4525 8.84322C23.582 8.84322 22.1725 10.1444 22.1725 11.9871C22.1725 13.8297 23.6061 15.1309 25.4525 15.1309C27.2989 15.1309 28.7567 13.8367 28.7567 11.9871Z" fill="white"/>
<path d="M33.0781 11.9868C33.0781 8.58624 35.7984 5.96289 39.4912 5.96289C41.8731 5.96289 43.9371 7.14881 44.9337 8.90586L42.2376 10.3905C41.7504 9.45429 40.7054 8.86045 39.4671 8.86045C37.5965 8.86045 36.2112 10.1616 36.2112 11.9868C36.2112 13.812 37.5965 15.0905 39.4671 15.0905C40.7315 15.0905 41.7746 14.5211 42.2562 13.5849L44.9765 15.0451C44.4281 15.9565 43.6293 16.7128 42.6634 17.2351C41.6975 17.7574 40.6001 18.0265 39.4856 18.0142C35.7984 18.0125 33.0781 15.3874 33.0781 11.9868Z" fill="white"/>
<path d="M53.9824 17.6928L49.5607 12.5125V17.6928H46.4258V1.69944L49.5607 0.792969V11.3021L53.737 6.28245H57.4781L52.5972 11.9186L57.6269 17.6928H53.9824Z" fill="white"/>
<path d="M70.1489 10.6856V17.6929H67.0139V11.0559C67.0139 9.50319 66.0191 8.70501 64.6097 8.70501C63.0794 8.70501 61.9358 9.5486 61.9358 11.5345V17.6929H58.8027V6.28251H61.9358V7.55926C62.6647 6.53227 63.9291 5.96289 65.5561 5.96289C68.1314 5.96289 70.1489 7.66056 70.1489 10.6856Z" fill="white"/>
<path d="M84.552 6.28251V17.6929H81.4189V16.3463C80.5431 17.3732 79.2322 18.0125 77.4583 18.0125C74.2267 18.0125 71.5547 15.3926 71.5547 11.9868C71.5547 8.581 74.2267 5.96289 77.4583 5.96289C79.2322 5.96289 80.5431 6.60214 81.4189 7.62912V6.28251H84.552ZM81.4189 11.9868C81.4189 10.0656 79.9852 8.76963 78.0403 8.76963C76.0954 8.76963 74.6934 10.0708 74.6934 11.9868C74.6934 13.9028 76.127 15.2058 78.0403 15.2058C79.9536 15.2058 81.4189 13.9046 81.4189 11.9868Z" fill="white"/>
<path d="M92.719 9.11235V6.2829H89.9727V2.92773L86.834 3.83421V13.8595C86.834 16.9405 88.3215 18.1491 92.7153 17.702V15.0227C90.9172 15.1153 89.9689 15.0909 89.9689 13.8595V9.11235H92.719Z" fill="white"/>
<path d="M94.916 6.2832H98.0491V17.6936H94.916V6.2832Z" fill="white"/>
<path d="M112.146 6.2832L107.529 17.6936H103.957L99.3418 6.2832H102.791L105.731 14.2703L108.695 6.2832H112.146Z" fill="white"/>
<path d="M118.853 15.3463C120.068 15.3463 121.04 14.8677 121.576 14.2058L124.101 15.5751C122.959 17.1261 121.137 18.0203 118.805 18.0203C114.714 18.0203 112.148 15.4004 112.148 11.9946C112.148 8.58881 114.752 5.9707 118.562 5.9707C122.158 5.9707 124.709 8.64121 124.709 11.9946C124.704 12.3985 124.661 12.8012 124.58 13.198H115.428C115.865 14.7036 117.202 15.3463 118.853 15.3463ZM121.576 10.9187C121.185 9.27522 119.874 8.61327 118.562 8.61327C116.888 8.61327 115.745 9.45861 115.378 10.9187H121.576Z" fill="white"/>
</g>
<defs>
<clipPath id="clip0_6045_71278">
<rect width="146.957" height="20" fill="white" transform="translate(0 0.5)"/>
</clipPath>
</defs>
</svg>
