<svg width="141" height="51" viewBox="0 0 141 51" fill="none" xmlns="http://www.w3.org/2000/svg">
<path d="M35.5146 12.475C37.603 11.9172 39.5351 13.781 39.0527 15.8881L35.5633 31.1325C35.2075 32.687 33.6529 33.6532 32.1016 33.2842L26.2796 31.8992C23.2257 31.1726 20.8092 28.8417 19.9733 25.8159L18.3798 20.0475C17.9551 18.5105 18.8648 16.922 20.4054 16.5105L35.5146 12.475Z" fill="white"/>
<path d="M12.857 36.9576C12.6351 38.4231 13.9264 39.6691 15.3831 39.3952L31.1723 36.4252C31.5528 36.3537 31.5658 35.8136 31.1892 35.7237L24.1815 34.053C21.1302 33.3257 18.7158 30.996 17.8798 27.9726L15.9615 21.0347C15.8584 20.6615 15.319 20.6938 15.2611 21.0766L12.857 36.9576Z" fill="white"/>
<path d="M52.4438 34.9819C51.3988 34.9819 50.4286 34.7207 49.533 34.1984C48.6523 33.661 47.9508 32.9445 47.4283 32.0489C46.9058 31.1384 46.6445 30.1456 46.6445 29.071V24.3018C46.6445 23.227 46.9058 22.2418 47.4283 21.3462C47.9508 20.4357 48.6523 19.7191 49.533 19.1967C50.4286 18.6593 51.3988 18.3906 52.4438 18.3906C53.3543 18.3906 54.205 18.5624 54.9962 18.9057C55.7874 19.234 56.4591 19.7191 57.0114 20.3611C57.1009 20.4655 57.1457 20.5923 57.1457 20.7417C57.1457 20.8908 57.086 21.0402 56.9667 21.1894L55.9813 22.2194C55.862 22.3388 55.7427 22.3985 55.6231 22.3985C55.4739 22.3985 55.3395 22.3313 55.2202 22.1971C54.5036 21.4059 53.5856 21.0104 52.4662 21.0104C51.9138 21.0104 51.3988 21.1595 50.9212 21.4581C50.4584 21.7566 50.0853 22.1598 49.8017 22.6672C49.5181 23.1747 49.3762 23.7196 49.3762 24.3018V29.071C49.3762 29.6531 49.5181 30.1978 49.8017 30.7054C50.0853 31.213 50.4584 31.6159 50.9212 31.9145C51.3988 32.213 51.9138 32.3624 52.4662 32.3624C53.5856 32.3624 54.5036 31.9667 55.2202 31.1757C55.3395 31.0412 55.4665 30.9741 55.6008 30.9741C55.7352 30.9741 55.862 31.0338 55.9813 31.1533L56.9667 32.1832C57.1009 32.3174 57.168 32.4668 57.168 32.6309C57.168 32.7504 57.1233 32.8698 57.0338 32.9893C56.4665 33.6311 55.7874 34.1236 54.9962 34.4671C54.205 34.8104 53.3543 34.9819 52.4438 34.9819ZM60.8361 34.6909C60.6869 34.6909 60.5599 34.6461 60.4555 34.5566C60.351 34.4522 60.2988 34.3252 60.2988 34.176C60.2988 34.1012 60.3063 34.0416 60.3212 33.9968L65.1799 19.0623C65.2247 18.9131 65.3067 18.7936 65.4262 18.7041C65.5605 18.6146 65.7099 18.5698 65.874 18.5698H67.6204C67.7847 18.5698 67.9264 18.6146 68.0458 18.7041C68.1802 18.7936 68.2697 18.9131 68.3145 19.0623L73.1734 33.9968C73.1883 34.0416 73.1957 34.1012 73.1957 34.176C73.1957 34.3252 73.1434 34.4522 73.0389 34.5566C72.9345 34.6461 72.8075 34.6909 72.6583 34.6909H71.0461C70.882 34.6909 70.7327 34.6461 70.5984 34.5566C70.479 34.4522 70.3968 34.3252 70.3521 34.176L69.3446 30.9517H64.1051L63.0976 34.176C63.0528 34.3252 62.9633 34.4522 62.8289 34.5566C62.7095 34.6461 62.5676 34.6909 62.4035 34.6909H60.8361ZM68.5608 28.4215L66.7248 22.4434L64.8888 28.4215H68.5608ZM77.329 34.6909C77.1947 34.6909 77.0827 34.6461 76.9932 34.5566C76.9037 34.4671 76.8587 34.355 76.8587 34.2208V19.331C76.8587 19.152 76.9186 19.0026 77.0379 18.8833C77.1722 18.7488 77.329 18.6817 77.5082 18.6817H79.3442C79.598 18.6817 79.7994 18.7936 79.9487 19.0175L85.3225 28.108L86.3971 29.989V19.152C86.3971 19.0175 86.4419 18.9057 86.5316 18.816C86.6211 18.7265 86.733 18.6817 86.8674 18.6817H88.4794C88.6139 18.6817 88.7258 18.7265 88.8153 18.816C88.905 18.9057 88.9497 19.0175 88.9497 19.152V34.0416C88.9497 34.2208 88.8826 34.3774 88.7481 34.5118C88.6288 34.6312 88.4794 34.6909 88.3004 34.6909H86.4419C86.1883 34.6909 85.9867 34.579 85.8373 34.355L80.2846 24.9511L79.4113 23.4285V34.2208C79.4113 34.3699 79.3666 34.4895 79.2769 34.579C79.1874 34.6536 79.0755 34.6909 78.9411 34.6909H77.329ZM94.1044 34.6909C93.9701 34.6909 93.858 34.6461 93.7685 34.5566C93.679 34.4671 93.6343 34.355 93.6343 34.2208V19.331C93.6343 19.152 93.6939 19.0026 93.8133 18.8833C93.9477 18.7488 94.1044 18.6817 94.2835 18.6817H96.1195C96.3733 18.6817 96.5747 18.7936 96.7241 19.0175L102.098 28.108L103.172 29.989V19.152C103.172 19.0175 103.217 18.9057 103.307 18.816C103.396 18.7265 103.508 18.6817 103.643 18.6817H105.255C105.389 18.6817 105.501 18.7265 105.591 18.816C105.68 18.9057 105.725 19.0175 105.725 19.152V34.0416C105.725 34.2208 105.658 34.3774 105.523 34.5118C105.404 34.6312 105.255 34.6909 105.076 34.6909H103.217C102.964 34.6909 102.762 34.579 102.613 34.355L97.0599 24.9511L96.1867 23.4285V34.2208C96.1867 34.3699 96.1419 34.4895 96.0524 34.579C95.9627 34.6536 95.8508 34.6909 95.7166 34.6909H94.1044ZM116.072 34.9819C114.997 34.9819 114.004 34.7207 113.094 34.1984C112.183 33.661 111.459 32.9445 110.922 32.0489C110.4 31.1384 110.138 30.1456 110.138 29.071V24.3018C110.138 23.227 110.4 22.2418 110.922 21.3462C111.459 20.4357 112.183 19.7191 113.094 19.1967C114.004 18.6593 114.997 18.3906 116.072 18.3906C117.146 18.3906 118.139 18.6593 119.05 19.1967C119.96 19.7191 120.677 20.4357 121.199 21.3462C121.736 22.2418 122.005 23.227 122.005 24.3018V29.071C122.005 30.1456 121.736 31.1384 121.199 32.0489C120.677 32.9445 119.96 33.661 119.05 34.1984C118.139 34.7207 117.146 34.9819 116.072 34.9819ZM116.072 32.3624C116.639 32.3624 117.169 32.213 117.661 31.9145C118.154 31.6159 118.542 31.213 118.826 30.7054C119.124 30.1978 119.274 29.6531 119.274 29.071V24.3018C119.274 23.7196 119.124 23.1747 118.826 22.6672C118.542 22.1598 118.154 21.7566 117.661 21.4581C117.169 21.1595 116.639 21.0104 116.072 21.0104C115.505 21.0104 114.975 21.1595 114.482 21.4581C113.989 21.7566 113.594 22.1598 113.295 22.6672C113.012 23.1747 112.87 23.7196 112.87 24.3018V29.071C112.87 29.6531 113.012 30.1978 113.295 30.7054C113.594 31.213 113.989 31.6159 114.482 31.9145C114.975 32.213 115.505 32.3624 116.072 32.3624ZM126.759 34.6909C126.624 34.6909 126.512 34.6461 126.423 34.5566C126.333 34.4671 126.288 34.355 126.288 34.2208V19.331C126.288 19.152 126.348 19.0026 126.467 18.8833C126.602 18.7488 126.759 18.6817 126.938 18.6817H128.774C129.028 18.6817 129.229 18.7936 129.378 19.0175L134.752 28.108L135.827 29.989V19.152C135.827 19.0175 135.872 18.9057 135.961 18.816C136.051 18.7265 136.163 18.6817 136.297 18.6817H137.909C138.043 18.6817 138.155 18.7265 138.245 18.816C138.335 18.9057 138.379 19.0175 138.379 19.152V34.0416C138.379 34.2208 138.312 34.3774 138.178 34.5118C138.058 34.6312 137.909 34.6909 137.73 34.6909H135.872C135.618 34.6909 135.416 34.579 135.267 34.355L129.714 24.9511L128.841 23.4285V34.2208C128.841 34.3699 128.796 34.4895 128.707 34.579C128.617 34.6536 128.505 34.6909 128.371 34.6909H126.759Z" fill="white"/>
</svg>
