<svg width="149" height="54" viewBox="0 0 149 54" fill="none" xmlns="http://www.w3.org/2000/svg">
<path d="M37.1107 13.2084C39.3219 12.6178 41.3677 14.5912 40.8569 16.8222L37.1623 32.9634C36.7856 34.6093 35.1395 35.6324 33.4969 35.2417L27.3325 33.7753C24.0989 33.0059 21.5403 30.5378 20.6552 27.334L18.968 21.2263C18.5183 19.599 19.4815 17.917 21.1127 17.4813L37.1107 13.2084Z" fill="white"/>
<path d="M13.1202 39.1314C12.8853 40.6831 14.2525 42.0024 15.7949 41.7124L32.5129 38.5677C32.9157 38.492 32.9295 37.9201 32.5307 37.8249L25.1109 36.056C21.88 35.2858 19.3237 32.8191 18.4385 29.6179L16.4074 22.2718C16.2981 21.8767 15.727 21.9109 15.6657 22.3163L13.1202 39.1314Z" fill="white"/>
<path d="M55.0359 37.0399C53.9294 37.0399 52.9022 36.7633 51.9539 36.2103C51.0213 35.6413 50.2786 34.8827 49.7253 33.9344C49.1721 32.9703 48.8955 31.9191 48.8955 30.7813V25.7315C48.8955 24.5935 49.1721 23.5504 49.7253 22.6021C50.2786 21.638 51.0213 20.8792 51.9539 20.3262C52.9022 19.7572 53.9294 19.4727 55.0359 19.4727C56 19.4727 56.9007 19.6545 57.7385 20.018C58.5762 20.3657 59.2874 20.8792 59.8722 21.559C59.967 21.6696 60.0144 21.8038 60.0144 21.962C60.0144 22.1199 59.9512 22.2781 59.8248 22.436L58.7815 23.5267C58.6552 23.6531 58.5288 23.7162 58.4023 23.7162C58.2443 23.7162 58.102 23.6452 57.9756 23.503C57.2168 22.6653 56.2448 22.2465 55.0596 22.2465C54.4748 22.2465 53.9294 22.4045 53.4238 22.7206C52.9338 23.0367 52.5387 23.4635 52.2384 24.0008C51.9381 24.5382 51.7878 25.1151 51.7878 25.7315V30.7813C51.7878 31.3977 51.9381 31.9744 52.2384 32.5118C52.5387 33.0493 52.9338 33.4759 53.4238 33.792C53.9294 34.1081 54.4748 34.2663 55.0596 34.2663C56.2448 34.2663 57.2168 33.8473 57.9756 33.0098C58.102 32.8674 58.2364 32.7963 58.3786 32.7963C58.5209 32.7963 58.6552 32.8595 58.7815 32.9861L59.8248 34.0765C59.967 34.2187 60.0381 34.3768 60.0381 34.5506C60.0381 34.6772 59.9907 34.8035 59.8959 34.9301C59.2953 35.6097 58.5762 36.1311 57.7385 36.4948C56.9007 36.8583 56 37.0399 55.0359 37.0399ZM63.9218 36.7317C63.7639 36.7317 63.6294 36.6843 63.5188 36.5896C63.4083 36.479 63.353 36.3445 63.353 36.1866C63.353 36.1074 63.3609 36.0442 63.3767 35.9968L68.5212 20.1838C68.5686 20.0259 68.6555 19.8993 68.782 19.8046C68.9242 19.7098 69.0823 19.6624 69.2561 19.6624H71.1053C71.2792 19.6624 71.4293 19.7098 71.5557 19.8046C71.698 19.8993 71.7928 20.0259 71.8402 20.1838L76.9849 35.9968C77.0007 36.0442 77.0086 36.1074 77.0086 36.1866C77.0086 36.3445 76.9531 36.479 76.8425 36.5896C76.7319 36.6843 76.5975 36.7317 76.4395 36.7317H74.7325C74.5587 36.7317 74.4006 36.6843 74.2584 36.5896C74.1321 36.479 74.045 36.3445 73.9976 36.1866L72.9308 32.7726H67.3832L66.3164 36.1866C66.269 36.3445 66.1742 36.479 66.0319 36.5896C65.9055 36.6843 65.7553 36.7317 65.5815 36.7317H63.9218ZM72.101 30.0936L70.157 23.7638L68.213 30.0936H72.101ZM81.3849 36.7317C81.2428 36.7317 81.1241 36.6843 81.0294 36.5896C80.9346 36.4948 80.887 36.3761 80.887 36.234V20.4684C80.887 20.2788 80.9504 20.1207 81.0767 19.9943C81.2189 19.8519 81.3849 19.7809 81.5747 19.7809H83.5187C83.7874 19.7809 84.0006 19.8993 84.1588 20.1365L89.8486 29.7617L90.9865 31.7533V20.2788C90.9865 20.1365 91.0339 20.018 91.1288 19.923C91.2236 19.8282 91.3421 19.7809 91.4844 19.7809H93.1913C93.3336 19.7809 93.4521 19.8282 93.5469 19.923C93.6418 20.018 93.6892 20.1365 93.6892 20.2788V36.0442C93.6892 36.234 93.6181 36.3998 93.4758 36.5422C93.3494 36.6685 93.1913 36.7317 93.0017 36.7317H91.0339C90.7653 36.7317 90.5519 36.6133 90.3938 36.3761L84.5144 26.419L83.5898 24.8069V36.234C83.5898 36.3919 83.5424 36.5185 83.4474 36.6133C83.3526 36.6922 83.2342 36.7317 83.0918 36.7317H81.3849ZM99.1471 36.7317C99.0049 36.7317 98.8863 36.6843 98.7915 36.5896C98.6967 36.4948 98.6493 36.3761 98.6493 36.234V20.4684C98.6493 20.2788 98.7125 20.1207 98.8389 19.9943C98.9812 19.8519 99.1471 19.7809 99.3368 19.7809H101.281C101.55 19.7809 101.763 19.8993 101.921 20.1365L107.611 29.7617L108.749 31.7533V20.2788C108.749 20.1365 108.796 20.018 108.891 19.923C108.986 19.8282 109.104 19.7809 109.247 19.7809H110.953C111.096 19.7809 111.214 19.8282 111.309 19.923C111.404 20.018 111.451 20.1365 111.451 20.2788V36.0442C111.451 36.234 111.38 36.3998 111.238 36.5422C111.112 36.6685 110.953 36.7317 110.764 36.7317H108.796C108.527 36.7317 108.314 36.6133 108.156 36.3761L102.277 26.419L101.352 24.8069V36.234C101.352 36.3919 101.305 36.5185 101.21 36.6133C101.115 36.6922 100.996 36.7317 100.854 36.7317H99.1471ZM122.407 37.0399C121.269 37.0399 120.218 36.7633 119.254 36.2103C118.29 35.6413 117.523 34.8827 116.954 33.9344C116.401 32.9703 116.124 31.9191 116.124 30.7813V25.7315C116.124 24.5935 116.401 23.5504 116.954 22.6021C117.523 21.638 118.29 20.8792 119.254 20.3262C120.218 19.7572 121.269 19.4727 122.407 19.4727C123.545 19.4727 124.596 19.7572 125.56 20.3262C126.524 20.8792 127.283 21.638 127.836 22.6021C128.405 23.5504 128.689 24.5935 128.689 25.7315V30.7813C128.689 31.9191 128.405 32.9703 127.836 33.9344C127.283 34.8827 126.524 35.6413 125.56 36.2103C124.596 36.7633 123.545 37.0399 122.407 37.0399ZM122.407 34.2663C123.007 34.2663 123.568 34.1081 124.09 33.792C124.611 33.4759 125.022 33.0493 125.323 32.5118C125.639 31.9744 125.797 31.3977 125.797 30.7813V25.7315C125.797 25.1151 125.639 24.5382 125.323 24.0008C125.022 23.4635 124.611 23.0367 124.09 22.7206C123.568 22.4045 123.007 22.2465 122.407 22.2465C121.806 22.2465 121.245 22.4045 120.723 22.7206C120.202 23.0367 119.783 23.4635 119.467 24.0008C119.167 24.5382 119.017 25.1151 119.017 25.7315V30.7813C119.017 31.3977 119.167 31.9744 119.467 32.5118C119.783 33.0493 120.202 33.4759 120.723 33.792C121.245 34.1081 121.806 34.2663 122.407 34.2663ZM133.722 36.7317C133.58 36.7317 133.462 36.6843 133.367 36.5896C133.272 36.4948 133.224 36.3761 133.224 36.234V20.4684C133.224 20.2788 133.288 20.1207 133.414 19.9943C133.556 19.8519 133.722 19.7809 133.912 19.7809H135.856C136.125 19.7809 136.338 19.8993 136.496 20.1365L142.186 29.7617L143.324 31.7533V20.2788C143.324 20.1365 143.371 20.018 143.466 19.923C143.561 19.8282 143.679 19.7809 143.822 19.7809H145.529C145.671 19.7809 145.789 19.8282 145.884 19.923C145.979 20.018 146.026 20.1365 146.026 20.2788V36.0442C146.026 36.234 145.955 36.3998 145.813 36.5422C145.687 36.6685 145.529 36.7317 145.339 36.7317H143.371C143.103 36.7317 142.889 36.6133 142.731 36.3761L136.852 26.419L135.927 24.8069V36.234C135.927 36.3919 135.88 36.5185 135.785 36.6133C135.69 36.6922 135.571 36.7317 135.429 36.7317H133.722Z" fill="white"/>
</svg>