<svg width="149" height="54" viewBox="0 0 149 54" fill="none" xmlns="http://www.w3.org/2000/svg">
<path d="M37.1331 13.2084C39.3444 12.6178 41.3901 14.5912 40.8794 16.8222L37.1848 32.9634C36.808 34.6093 35.162 35.6324 33.5194 35.2417L27.3549 33.7753C24.1214 33.0059 21.5628 30.5378 20.6777 27.334L18.9904 21.2263C18.5407 19.599 19.504 17.917 21.1352 17.4813L37.1331 13.2084Z" fill="white"/>
<path d="M13.1426 39.1314C12.9077 40.6831 14.2749 42.0024 15.8173 41.7124L32.5354 38.5677C32.9381 38.492 32.9519 37.9201 32.5532 37.8249L25.1333 36.056C21.9025 35.2858 19.3461 32.8191 18.461 29.6179L16.4298 22.2718C16.3206 21.8767 15.7495 21.9109 15.6881 22.3163L13.1426 39.1314Z" fill="white"/>
<path d="M55.0584 37.0399C53.9519 37.0399 52.9246 36.7633 51.9763 36.2103C51.0438 35.6413 50.301 34.8827 49.7478 33.9344C49.1946 32.9703 48.918 31.9191 48.918 30.7813V25.7315C48.918 24.5935 49.1946 23.5504 49.7478 22.6021C50.301 21.638 51.0438 20.8792 51.9763 20.3262C52.9246 19.7572 53.9519 19.4727 55.0584 19.4727C56.0225 19.4727 56.9232 19.6545 57.7609 20.018C58.5987 20.3657 59.3098 20.8792 59.8947 21.559C59.9894 21.6696 60.0368 21.8038 60.0368 21.962C60.0368 22.1199 59.9736 22.2781 59.8473 22.436L58.804 23.5267C58.6776 23.6531 58.5513 23.7162 58.4247 23.7162C58.2668 23.7162 58.1244 23.6452 57.998 23.503C57.2393 22.6653 56.2673 22.2465 55.082 22.2465C54.4972 22.2465 53.9519 22.4045 53.4463 22.7206C52.9562 23.0367 52.5611 23.4635 52.2608 24.0008C51.9605 24.5382 51.8103 25.1151 51.8103 25.7315V30.7813C51.8103 31.3977 51.9605 31.9744 52.2608 32.5118C52.5611 33.0493 52.9562 33.4759 53.4463 33.792C53.9519 34.1081 54.4972 34.2663 55.082 34.2663C56.2673 34.2663 57.2393 33.8473 57.998 33.0098C58.1244 32.8674 58.2589 32.7963 58.401 32.7963C58.5434 32.7963 58.6776 32.8595 58.804 32.9861L59.8473 34.0765C59.9894 34.2187 60.0605 34.3768 60.0605 34.5506C60.0605 34.6772 60.0131 34.8035 59.9184 34.9301C59.3177 35.6097 58.5987 36.1311 57.7609 36.4948C56.9232 36.8583 56.0225 37.0399 55.0584 37.0399ZM63.9443 36.7317C63.7863 36.7317 63.6519 36.6843 63.5413 36.5896C63.4307 36.479 63.3755 36.3445 63.3755 36.1866C63.3755 36.1074 63.3834 36.0442 63.3991 35.9968L68.5437 20.1838C68.591 20.0259 68.6779 19.8993 68.8045 19.8046C68.9466 19.7098 69.1048 19.6624 69.2785 19.6624H71.1278C71.3017 19.6624 71.4518 19.7098 71.5781 19.8046C71.7205 19.8993 71.8152 20.0259 71.8626 20.1838L77.0073 35.9968C77.0231 36.0442 77.031 36.1074 77.031 36.1866C77.031 36.3445 76.9756 36.479 76.865 36.5896C76.7544 36.6843 76.62 36.7317 76.462 36.7317H74.7549C74.5812 36.7317 74.423 36.6843 74.2809 36.5896C74.1545 36.479 74.0674 36.3445 74.0201 36.1866L72.9533 32.7726H67.4056L66.3388 36.1866C66.2915 36.3445 66.1967 36.479 66.0543 36.5896C65.928 36.6843 65.7777 36.7317 65.604 36.7317H63.9443ZM72.1235 30.0936L70.1794 23.7638L68.2355 30.0936H72.1235ZM81.4074 36.7317C81.2652 36.7317 81.1466 36.6843 81.0518 36.5896C80.957 36.4948 80.9095 36.3761 80.9095 36.234V20.4684C80.9095 20.2788 80.9728 20.1207 81.0992 19.9943C81.2414 19.8519 81.4074 19.7809 81.5971 19.7809H83.5411C83.8099 19.7809 84.0231 19.8993 84.1812 20.1365L89.8711 29.7617L91.0089 31.7533V20.2788C91.0089 20.1365 91.0563 20.018 91.1513 19.923C91.2461 19.8282 91.3645 19.7809 91.5069 19.7809H93.2138C93.3561 19.7809 93.4746 19.8282 93.5693 19.923C93.6643 20.018 93.7117 20.1365 93.7117 20.2788V36.0442C93.7117 36.234 93.6406 36.3998 93.4983 36.5422C93.3719 36.6685 93.2138 36.7317 93.0242 36.7317H91.0563C90.7878 36.7317 90.5744 36.6133 90.4162 36.3761L84.5368 26.419L83.6122 24.8069V36.234C83.6122 36.3919 83.5648 36.5185 83.4699 36.6133C83.3751 36.6922 83.2566 36.7317 83.1143 36.7317H81.4074ZM99.1695 36.7317C99.0274 36.7317 98.9087 36.6843 98.814 36.5896C98.7192 36.4948 98.6718 36.3761 98.6718 36.234V20.4684C98.6718 20.2788 98.735 20.1207 98.8613 19.9943C99.0037 19.8519 99.1695 19.7809 99.3593 19.7809H101.303C101.572 19.7809 101.785 19.8993 101.943 20.1365L107.633 29.7617L108.771 31.7533V20.2788C108.771 20.1365 108.819 20.018 108.913 19.923C109.008 19.8282 109.127 19.7809 109.269 19.7809H110.976C111.118 19.7809 111.237 19.8282 111.331 19.923C111.426 20.018 111.474 20.1365 111.474 20.2788V36.0442C111.474 36.234 111.403 36.3998 111.26 36.5422C111.134 36.6685 110.976 36.7317 110.786 36.7317H108.819C108.55 36.7317 108.336 36.6133 108.179 36.3761L102.299 26.419L101.374 24.8069V36.234C101.374 36.3919 101.327 36.5185 101.232 36.6133C101.137 36.6922 101.019 36.7317 100.877 36.7317H99.1695ZM122.429 37.0399C121.291 37.0399 120.24 36.7633 119.276 36.2103C118.312 35.6413 117.545 34.8827 116.976 33.9344C116.423 32.9703 116.147 31.9191 116.147 30.7813V25.7315C116.147 24.5935 116.423 23.5504 116.976 22.6021C117.545 21.638 118.312 20.8792 119.276 20.3262C120.24 19.7572 121.291 19.4727 122.429 19.4727C123.567 19.4727 124.618 19.7572 125.582 20.3262C126.546 20.8792 127.305 21.638 127.858 22.6021C128.427 23.5504 128.712 24.5935 128.712 25.7315V30.7813C128.712 31.9191 128.427 32.9703 127.858 33.9344C127.305 34.8827 126.546 35.6413 125.582 36.2103C124.618 36.7633 123.567 37.0399 122.429 37.0399ZM122.429 34.2663C123.03 34.2663 123.591 34.1081 124.112 33.792C124.634 33.4759 125.045 33.0493 125.345 32.5118C125.661 31.9744 125.819 31.3977 125.819 30.7813V25.7315C125.819 25.1151 125.661 24.5382 125.345 24.0008C125.045 23.4635 124.634 23.0367 124.112 22.7206C123.591 22.4045 123.03 22.2465 122.429 22.2465C121.829 22.2465 121.267 22.4045 120.746 22.7206C120.224 23.0367 119.805 23.4635 119.489 24.0008C119.189 24.5382 119.039 25.1151 119.039 25.7315V30.7813C119.039 31.3977 119.189 31.9744 119.489 32.5118C119.805 33.0493 120.224 33.4759 120.746 33.792C121.267 34.1081 121.829 34.2663 122.429 34.2663ZM133.745 36.7317C133.602 36.7317 133.484 36.6843 133.389 36.5896C133.294 36.4948 133.247 36.3761 133.247 36.234V20.4684C133.247 20.2788 133.31 20.1207 133.436 19.9943C133.579 19.8519 133.745 19.7809 133.934 19.7809H135.878C136.147 19.7809 136.36 19.8993 136.518 20.1365L142.208 29.7617L143.346 31.7533V20.2788C143.346 20.1365 143.394 20.018 143.488 19.923C143.583 19.8282 143.702 19.7809 143.844 19.7809H145.551C145.693 19.7809 145.812 19.8282 145.907 19.923C146.001 20.018 146.049 20.1365 146.049 20.2788V36.0442C146.049 36.234 145.978 36.3998 145.836 36.5422C145.709 36.6685 145.551 36.7317 145.361 36.7317H143.394C143.125 36.7317 142.912 36.6133 142.754 36.3761L136.874 26.419L135.949 24.8069V36.234C135.949 36.3919 135.902 36.5185 135.807 36.6133C135.712 36.6922 135.594 36.7317 135.452 36.7317H133.745Z" fill="white"/>
</svg>
