<svg width="126" height="40" viewBox="0 0 126 40" fill="none" xmlns="http://www.w3.org/2000/svg">
<g clip-path="url(#clip0_6045_71783)">
<path d="M43.4256 19.7557C43.3894 18.8485 43.5304 17.943 43.8404 17.0914C44.1504 16.2399 44.6234 15.4591 45.232 14.7942C45.8405 14.1293 46.5727 13.5933 47.3862 13.2173C48.1997 12.8414 49.0785 12.6327 49.9718 12.6035H50.2493C53.7018 12.6035 55.7394 14.6666 56.3419 17.0805L54.196 17.8095C54.0032 16.91 53.4985 16.1108 52.774 15.5579C52.0495 15.0049 51.1534 14.735 50.2493 14.7973C48.0154 14.7973 45.7746 16.4547 45.7746 19.797C45.7746 23.1392 47.9612 24.7347 50.2764 24.7347C51.185 24.7599 52.0757 24.4748 52.8059 23.925C53.5362 23.3752 54.0637 22.5924 54.3043 21.7019L56.4096 22.3896C56.0462 23.748 55.2379 24.9399 54.118 25.7688C52.998 26.5977 51.6335 27.014 50.2493 26.9491C48.4711 26.9823 46.7528 26.2968 45.4719 25.0433C44.1911 23.7898 43.4526 22.071 43.4188 20.2646C43.4121 20.0995 43.4188 19.9276 43.4256 19.7557Z" fill="white"/>
<path d="M60.5866 26.633H58.3662V12.5625H60.5866V18.0642C60.909 17.6758 61.3144 17.3673 61.7719 17.1623C62.2295 16.9573 62.7271 16.8612 63.2268 16.8813C65.5216 16.8813 66.6115 18.5524 66.6115 20.6362V26.633H64.4724V21.0351C64.5365 20.5579 64.4134 20.0742 64.1298 19.6883C63.8461 19.3023 63.4246 19.0451 62.956 18.972C62.8232 18.9581 62.6894 18.9581 62.5566 18.972C62.0431 18.972 61.5506 19.1792 61.1875 19.548C60.8245 19.9169 60.6205 20.4172 60.6205 20.9388C60.6171 20.9961 60.6171 21.0535 60.6205 21.1107L60.5866 26.633Z" fill="white"/>
<path d="M71.5944 21.2134L73.9773 20.8351C74.5189 20.7664 74.6543 20.4844 74.6543 20.1474C74.6543 19.3497 74.1263 18.7101 72.8942 18.7101C72.4289 18.6719 71.9675 18.8216 71.6101 19.1267C71.2528 19.4318 71.0282 19.8678 70.9852 20.34V20.4432L68.9543 19.9824C69.1235 18.3456 70.5858 16.8877 72.8739 16.8877C75.7442 16.8877 76.8341 18.5382 76.8341 20.4638V25.1608C76.8317 25.6698 76.8702 26.1781 76.9492 26.6807H74.9183C74.8451 26.2818 74.8156 25.8758 74.8303 25.4703C74.522 25.9523 74.0948 26.3437 73.5911 26.6055C73.0875 26.8674 72.5251 26.9905 71.96 26.9626C71.1882 27.0274 70.4226 26.7785 69.8312 26.2705C69.2398 25.7625 68.8709 25.037 68.8054 24.2531C68.8054 24.2049 68.8054 24.1568 68.8054 24.1155C68.7715 22.3756 69.9968 21.4403 71.5944 21.2134ZM74.6678 22.7332V22.3L72.2375 22.6713C71.9076 22.682 71.5945 22.8217 71.3637 23.0614C71.1328 23.301 71.002 23.622 70.9987 23.9573C71.0013 24.1235 71.0365 24.2875 71.1021 24.4397C71.1677 24.5919 71.2626 24.7293 71.381 24.8439C71.4995 24.9585 71.6392 25.0479 71.7921 25.1071C71.945 25.1662 72.1079 25.1938 72.2714 25.1883H72.3729C72.65 25.2178 72.9301 25.1913 73.1971 25.1103C73.464 25.0293 73.7126 24.8955 73.9284 24.7165C74.1443 24.5375 74.3231 24.3169 74.4546 24.0674C74.5862 23.8179 74.6678 23.5445 74.6949 23.2628C74.7045 23.0855 74.6932 22.9077 74.661 22.7332H74.6678Z" fill="white"/>
<path d="M80.611 12.3702C80.8018 12.3675 80.9913 12.4031 81.1685 12.475C81.3457 12.5468 81.5072 12.6536 81.6437 12.789C81.7802 12.9245 81.889 13.0861 81.9639 13.2644C82.0388 13.4427 82.0782 13.6343 82.08 13.8281C82.08 14.1183 81.9955 14.402 81.8372 14.6436C81.6789 14.8851 81.4538 15.0738 81.1903 15.1857C80.9267 15.2977 80.6365 15.328 80.3561 15.2729C80.0756 15.2178 79.8175 15.0796 79.6141 14.8759C79.4107 14.6721 79.2711 14.4118 79.213 14.1277C79.1548 13.8436 79.1806 13.5483 79.2872 13.2791C79.3937 13.0098 79.5762 12.7786 79.8118 12.6144C80.0473 12.4503 80.3254 12.3605 80.611 12.3564V12.3702ZM79.5279 26.6746V17.1704H81.7483V26.6333L79.5279 26.6746Z" fill="white"/>
<path d="M86.8054 26.6333H84.5918V17.1704H86.7513V18.4289C87.0328 17.9457 87.4372 17.5483 87.922 17.2785C88.4067 17.0086 88.9541 16.8763 89.5065 16.8954C91.7811 16.8954 92.8913 18.5665 92.8913 20.6502V26.6333H90.6776V21.0354C90.6776 19.8731 90.1564 18.931 88.7619 18.931C88.504 18.9328 88.2491 18.9861 88.0116 19.088C87.7741 19.1899 87.5587 19.3384 87.3776 19.5248C87.1966 19.7113 87.0535 19.9322 86.9565 20.1748C86.8594 20.4175 86.8104 20.6772 86.8122 20.9391C86.8122 21.0147 86.8122 21.0904 86.8122 21.166L86.8054 26.6333Z" fill="white"/>
<path d="M95.5723 26.633V12.5625H97.7927V26.633H95.5723Z" fill="white"/>
<path d="M101.753 12.3701C102.038 12.3688 102.318 12.4537 102.556 12.6141C102.794 12.7746 102.98 13.0033 103.09 13.2712C103.2 13.5391 103.229 13.8342 103.174 14.119C103.118 14.4038 102.981 14.6655 102.779 14.8707C102.577 15.076 102.319 15.2156 102.039 15.2719C101.759 15.3282 101.468 15.2987 101.204 15.1869C100.941 15.0752 100.716 14.8864 100.558 14.6445C100.4 14.4025 100.316 14.1184 100.317 13.8281C100.321 13.4425 100.473 13.0738 100.742 12.8011C101.01 12.5285 101.373 12.3737 101.753 12.3701ZM100.663 26.6745V17.1703H102.863V26.6332L100.663 26.6745Z" fill="white"/>
<path d="M107.954 26.6332H105.733V17.1703H107.893V18.4288C108.175 17.9461 108.579 17.5491 109.064 17.2793C109.549 17.0096 110.096 16.8769 110.648 16.8952C112.923 16.8952 114.033 18.5664 114.033 20.6501V26.6332H111.812V21.0352C111.877 20.558 111.754 20.0743 111.47 19.6884C111.186 19.3025 110.765 19.0453 110.296 18.9721C110.161 18.9583 110.025 18.9583 109.89 18.9721C109.373 18.9775 108.879 19.1901 108.515 19.5635C108.151 19.9369 107.947 20.4411 107.947 20.9665C107.94 21.0465 107.94 21.1271 107.947 21.2072L107.954 26.6332Z" fill="white"/>
<path d="M121.608 21.1657L125.514 26.6674H122.806L120.098 22.7681L118.954 23.9922V26.633H116.754V12.5625H118.954V20.9938L122.528 17.1702H125.473L121.608 21.1657Z" fill="white"/>
<path d="M17.1397 8.75251L26.739 14.3505V25.6014L17.1668 31.2337L7.57433 25.6495V14.4055L17.1397 8.75251ZM17.1397 0.5L13.6195 2.56313L4.03385 8.2161L0.513672 10.2792V29.7895L4.03385 31.8527L13.6331 37.4506L17.1533 39.5138L20.6734 37.4506L30.2388 31.8114L33.759 29.7483V10.2105L30.2388 8.14733L20.6464 2.56313L17.1262 0.5H17.1397Z" fill="white"/>
</g>
<defs>
<clipPath id="clip0_6045_71783">
<rect width="125" height="39" fill="white" transform="translate(0.513672 0.5)"/>
</clipPath>
</defs>
</svg>
