<svg width="116" height="37" viewBox="0 0 116 37" fill="none" xmlns="http://www.w3.org/2000/svg">
<g clip-path="url(#clip0_6045_71295)">
<path d="M39.8057 18.2749C39.7723 17.4374 39.9024 16.6016 40.1886 15.8155C40.4748 15.0295 40.9114 14.3088 41.4731 13.695C42.0349 13.0812 42.7107 12.5865 43.4617 12.2395C44.2126 11.8924 45.0238 11.6998 45.8483 11.6729H46.1045C49.2914 11.6729 51.1723 13.5773 51.7285 15.8055L49.7476 16.4784C49.5696 15.648 49.1038 14.9104 48.435 14.4C47.7662 13.8895 46.9391 13.6404 46.1045 13.6979C44.0424 13.6979 41.9741 15.2278 41.9741 18.3129C41.9741 21.3981 43.9924 22.8709 46.1295 22.8709C46.9682 22.8942 47.7904 22.631 48.4645 22.1234C49.1385 21.6159 49.6255 20.8933 49.8476 20.0714L51.791 20.7062C51.4555 21.96 50.7094 23.0603 49.6756 23.8254C48.6418 24.5906 47.3822 24.9749 46.1045 24.915C44.4631 24.9456 42.877 24.3128 41.6946 23.1557C40.5123 21.9987 39.8307 20.4121 39.7995 18.7446C39.7932 18.5923 39.7995 18.4336 39.8057 18.2749Z" fill="white"/>
<path d="M55.6473 24.623H53.5977V11.6348H55.6473V16.7132C55.9448 16.3547 56.319 16.07 56.7414 15.8807C57.1637 15.6915 57.6231 15.6028 58.0843 15.6214C60.2027 15.6214 61.2087 17.1639 61.2087 19.0874V24.623H59.2341V19.4556C59.2933 19.0151 59.1797 18.5686 58.9179 18.2124C58.656 17.8562 58.2669 17.6187 57.8344 17.5512C57.7118 17.5384 57.5883 17.5384 57.4657 17.5512C56.9917 17.5512 56.5371 17.7425 56.202 18.0829C55.8668 18.4234 55.6785 18.8852 55.6785 19.3667C55.6754 19.4196 55.6754 19.4726 55.6785 19.5254L55.6473 24.623Z" fill="white"/>
<path d="M65.8076 19.6209L68.0072 19.2717C68.5071 19.2083 68.632 18.948 68.632 18.6369C68.632 17.9005 68.1446 17.3102 67.0073 17.3102C66.5778 17.2749 66.1519 17.4131 65.8221 17.6947C65.4922 17.9764 65.2849 18.3788 65.2452 18.8147V18.9099L63.3705 18.4846C63.5267 16.9737 64.8765 15.6279 66.9886 15.6279C69.6381 15.6279 70.6442 17.1515 70.6442 18.9289V23.2647C70.642 23.7345 70.6775 24.2037 70.7504 24.6676H68.8757C68.8082 24.2994 68.7809 23.9247 68.7945 23.5503C68.51 23.9952 68.1156 24.3565 67.6507 24.5982C67.1858 24.8399 66.6666 24.9536 66.145 24.9279C65.4326 24.9876 64.7259 24.7579 64.18 24.289C63.6341 23.8201 63.2935 23.1504 63.2331 22.4267C63.2331 22.3823 63.2331 22.3379 63.2331 22.2998C63.2018 20.6937 64.3328 19.8304 65.8076 19.6209ZM68.6445 21.0238V20.6239L66.4012 20.9667C66.0967 20.9765 65.8077 21.1055 65.5946 21.3267C65.3814 21.5479 65.2607 21.8443 65.2577 22.1538C65.2601 22.3071 65.2925 22.4585 65.3531 22.599C65.4137 22.7395 65.5012 22.8663 65.6106 22.9721C65.7199 23.0779 65.8489 23.1605 65.99 23.215C66.1311 23.2696 66.2815 23.2951 66.4325 23.2901H66.5262C66.782 23.3173 67.0405 23.2928 67.2869 23.218C67.5334 23.1433 67.7628 23.0197 67.962 22.8545C68.1612 22.6893 68.3263 22.4857 68.4478 22.2554C68.5692 22.0251 68.6446 21.7726 68.6695 21.5126C68.6784 21.349 68.668 21.1849 68.6383 21.0238H68.6445Z" fill="white"/>
<path d="M74.131 11.457C74.3071 11.4545 74.482 11.4874 74.6456 11.5537C74.8092 11.6201 74.9583 11.7186 75.0843 11.8437C75.2103 11.9687 75.3107 12.1178 75.3798 12.2824C75.449 12.447 75.4854 12.6239 75.487 12.8028C75.487 13.0707 75.409 13.3326 75.2629 13.5555C75.1167 13.7785 74.909 13.9526 74.6657 14.056C74.4225 14.1593 74.1546 14.1873 73.8957 14.1364C73.6368 14.0855 73.3985 13.958 73.2108 13.77C73.023 13.5819 72.8942 13.3416 72.8405 13.0793C72.7868 12.8171 72.8106 12.5446 72.909 12.296C73.0073 12.0475 73.1758 11.834 73.3932 11.6825C73.6107 11.5309 73.8673 11.4481 74.131 11.4443V11.457ZM73.1312 24.6611V15.888H75.1808V24.623L73.1312 24.6611Z" fill="white"/>
<path d="M79.85 24.6224H77.8066V15.8874H79.8V17.0491C80.0599 16.603 80.4332 16.2362 80.8806 15.9871C81.3281 15.7381 81.8333 15.6159 82.3433 15.6335C84.4429 15.6335 85.4677 17.1761 85.4677 19.0996V24.6224H83.4243V19.455C83.4243 18.3822 82.9432 17.5125 81.6559 17.5125C81.4179 17.5142 81.1826 17.5635 80.9634 17.6575C80.7441 17.7516 80.5453 17.8886 80.3782 18.0607C80.2111 18.2328 80.079 18.4367 79.9894 18.6607C79.8999 18.8847 79.8546 19.1244 79.8563 19.3662C79.8563 19.436 79.8563 19.5058 79.8563 19.5757L79.85 24.6224Z" fill="white"/>
<path d="M87.9414 24.623V11.6348H89.991V24.623H87.9414Z" fill="white"/>
<path d="M93.647 11.457C93.9108 11.4558 94.169 11.5342 94.3888 11.6823C94.6087 11.8304 94.7802 12.0415 94.8818 12.2888C94.9833 12.5361 95.0102 12.8085 94.959 13.0714C94.9078 13.3343 94.781 13.5758 94.5944 13.7653C94.4079 13.9548 94.1702 14.0837 93.9114 14.1356C93.6526 14.1876 93.3845 14.1603 93.141 14.0572C92.8976 13.954 92.6898 13.7798 92.544 13.5564C92.3982 13.3331 92.321 13.0708 92.3223 12.8028C92.3255 12.4469 92.4662 12.1066 92.7139 11.8549C92.9616 11.6032 93.2967 11.4604 93.647 11.457ZM92.641 24.6611V15.888H94.6718V24.623L92.641 24.6611Z" fill="white"/>
<path d="M99.3699 24.6223H97.3203V15.8873H99.3137V17.049C99.5741 16.6034 99.9474 16.2369 100.395 15.9879C100.842 15.7389 101.347 15.6165 101.857 15.6334C103.957 15.6334 104.981 17.176 104.981 19.0994V24.6223H102.932V19.4549C102.991 19.0144 102.877 18.5679 102.616 18.2117C102.354 17.8555 101.965 17.618 101.532 17.5505C101.407 17.5378 101.282 17.5378 101.157 17.5505C100.68 17.5555 100.224 17.7517 99.8878 18.0964C99.552 18.4411 99.3637 18.9065 99.3637 19.3914C99.3573 19.4654 99.3573 19.5397 99.3637 19.6136L99.3699 24.6223Z" fill="white"/>
<path d="M111.975 19.5762L115.58 24.6547H113.081L110.581 21.0553L109.525 22.1853V24.623H107.494V11.6348H109.525V19.4175L112.824 15.888H115.543L111.975 19.5762Z" fill="white"/>
<path d="M15.5424 8.11771L24.4033 13.285V23.6705L15.5674 28.8696L6.71284 23.715V13.3358L15.5424 8.11771ZM15.5424 0.5L12.293 2.40443L3.4447 7.62255L0.195312 9.52698V27.5365L3.4447 29.4409L12.3055 34.6083L15.5549 36.5127L18.8043 34.6083L27.6339 29.4028L30.8833 27.4984V9.4635L27.6339 7.55907L18.7793 2.40443L15.5299 0.5H15.5424Z" fill="white"/>
</g>
<defs>
<clipPath id="clip0_6045_71295">
<rect width="115.385" height="36" fill="white" transform="translate(0.195312 0.5)"/>
</clipPath>
</defs>
</svg>
