<svg width="126" height="54" viewBox="0 0 126 54" fill="none" xmlns="http://www.w3.org/2000/svg">
<g clip-path="url(#clip0_6045_71783)">
<path d="M43.6199 26.7557C43.5837 25.8485 43.7247 24.943 44.0347 24.0914C44.3448 23.2399 44.8177 22.4591 45.4263 21.7942C46.0349 21.1293 46.767 20.5933 47.5806 20.2173C48.3941 19.8414 49.2728 19.6327 50.1661 19.6035H50.4436C53.8961 19.6035 55.9338 21.6666 56.5363 24.0805L54.3903 24.8095C54.1975 23.91 53.6928 23.1108 52.9683 22.5579C52.2438 22.0049 51.3478 21.735 50.4436 21.7973C48.2097 21.7973 45.969 23.4547 45.969 26.797C45.969 30.1392 48.1555 31.7347 50.4707 31.7347C51.3793 31.7599 52.27 31.4748 53.0002 30.925C53.7305 30.3752 54.2581 29.5924 54.4986 28.7019L56.6039 29.3896C56.2405 30.748 55.4322 31.9399 54.3123 32.7688C53.1924 33.5977 51.8278 34.014 50.4436 33.9491C48.6655 33.9823 46.9471 33.2968 45.6663 32.0433C44.3854 30.7898 43.647 29.071 43.6132 27.2646C43.6064 27.0995 43.6132 26.9276 43.6199 26.7557Z" fill="white"/>
<path d="M60.781 33.633H58.5605V19.5625H60.781V25.0642C61.1033 24.6758 61.5087 24.3673 61.9663 24.1623C62.4238 23.9573 62.9214 23.8612 63.4211 23.8813C65.716 23.8813 66.8059 25.5524 66.8059 27.6362V33.633H64.6667V28.0351C64.7308 27.5579 64.6078 27.0742 64.3241 26.6883C64.0405 26.3023 63.6189 26.0451 63.1503 25.972C63.0175 25.9581 62.8837 25.9581 62.7509 25.972C62.2374 25.972 61.745 26.1792 61.3819 26.548C61.0188 26.9169 60.8148 27.4172 60.8148 27.9388C60.8114 27.9961 60.8114 28.0535 60.8148 28.1107L60.781 33.633Z" fill="white"/>
<path d="M71.7888 28.2134L74.1717 27.8351C74.7132 27.7664 74.8486 27.4844 74.8486 27.1474C74.8486 26.3497 74.3206 25.7101 73.0885 25.7101C72.6232 25.6719 72.1618 25.8216 71.8045 26.1267C71.4471 26.4318 71.2225 26.8678 71.1795 27.34V27.4432L69.1486 26.9824C69.3179 25.3456 70.7801 23.8877 73.0682 23.8877C75.9385 23.8877 77.0284 25.5382 77.0284 27.4638V32.1608C77.0261 32.6698 77.0646 33.1781 77.1435 33.6807H75.1126C75.0394 33.2818 75.0099 32.8758 75.0246 32.4703C74.7164 32.9523 74.2891 33.3437 73.7855 33.6055C73.2818 33.8674 72.7194 33.9905 72.1543 33.9626C71.3825 34.0274 70.6169 33.7785 70.0255 33.2705C69.4341 32.7625 69.0652 32.037 68.9997 31.2531C68.9997 31.2049 68.9997 31.1568 68.9997 31.1155C68.9659 29.3756 70.1912 28.4403 71.7888 28.2134ZM74.8622 29.7332V29.3L72.4319 29.6713C72.102 29.682 71.7889 29.8217 71.558 30.0614C71.3271 30.301 71.1964 30.622 71.1931 30.9573C71.1957 31.1235 71.2308 31.2875 71.2964 31.4397C71.3621 31.5919 71.4569 31.7293 71.5754 31.8439C71.6938 31.9585 71.8336 32.0479 71.9864 32.1071C72.1393 32.1662 72.3022 32.1938 72.4657 32.1883H72.5673C72.8444 32.2178 73.1245 32.1913 73.3914 32.1103C73.6584 32.0293 73.9069 31.8955 74.1228 31.7165C74.3386 31.5375 74.5174 31.3169 74.649 31.0674C74.7805 30.8179 74.8622 30.5445 74.8892 30.2628C74.8989 30.0855 74.8875 29.9077 74.8554 29.7332H74.8622Z" fill="white"/>
<path d="M80.8053 19.3702C80.9961 19.3675 81.1856 19.4031 81.3628 19.475C81.5401 19.5468 81.7016 19.6536 81.8381 19.789C81.9746 19.9245 82.0834 20.0861 82.1582 20.2644C82.2331 20.4427 82.2726 20.6343 82.2743 20.8281C82.2743 21.1183 82.1898 21.402 82.0315 21.6436C81.8732 21.8851 81.6481 22.0738 81.3846 22.1857C81.1211 22.2977 80.8309 22.328 80.5504 22.2729C80.27 22.2178 80.0118 22.0796 79.8084 21.8759C79.605 21.6721 79.4655 21.4118 79.4073 21.1277C79.3491 20.8436 79.3749 20.5483 79.4815 20.2791C79.588 20.0098 79.7705 19.7786 80.0061 19.6144C80.2416 19.4503 80.5197 19.3605 80.8053 19.3564V19.3702ZM79.7222 33.6746V24.1704H81.9426V33.6333L79.7222 33.6746Z" fill="white"/>
<path d="M86.9998 33.6333H84.7861V24.1704H86.9456V25.4289C87.2272 24.9457 87.6315 24.5483 88.1163 24.2785C88.6011 24.0086 89.1484 23.8763 89.7008 23.8954C91.9754 23.8954 93.0856 25.5665 93.0856 27.6502V33.6333H90.872V28.0354C90.872 26.8731 90.3507 25.931 88.9562 25.931C88.6984 25.9328 88.4434 25.9861 88.2059 26.088C87.9684 26.1899 87.753 26.3384 87.572 26.5248C87.3909 26.7113 87.2478 26.9322 87.1508 27.1748C87.0538 27.4175 87.0048 27.6772 87.0066 27.9391C87.0066 28.0147 87.0066 28.0904 87.0066 28.166L86.9998 33.6333Z" fill="white"/>
<path d="M95.7666 33.633V19.5625H97.987V33.633H95.7666Z" fill="white"/>
<path d="M101.947 19.3701C102.233 19.3688 102.512 19.4537 102.751 19.6141C102.989 19.7746 103.175 20.0033 103.285 20.2712C103.394 20.5391 103.424 20.8342 103.368 21.119C103.313 21.4038 103.175 21.6655 102.973 21.8707C102.771 22.076 102.514 22.2156 102.233 22.2719C101.953 22.3282 101.662 22.2987 101.399 22.1869C101.135 22.0752 100.91 21.8864 100.752 21.6445C100.594 21.4025 100.51 21.1184 100.512 20.8281C100.515 20.4425 100.668 20.0738 100.936 19.8011C101.204 19.5285 101.567 19.3737 101.947 19.3701ZM100.857 33.6745V24.1703H103.057V33.6332L100.857 33.6745Z" fill="white"/>
<path d="M108.148 33.6332H105.928V24.1703H108.087V25.4288C108.369 24.9461 108.774 24.5491 109.258 24.2793C109.743 24.0096 110.29 23.8769 110.842 23.8952C113.117 23.8952 114.227 25.5664 114.227 27.6501V33.6332H112.007V28.0352C112.071 27.558 111.948 27.0743 111.664 26.6884C111.381 26.3025 110.959 26.0453 110.49 25.9721C110.355 25.9583 110.219 25.9583 110.084 25.9721C109.567 25.9775 109.073 26.1901 108.709 26.5635C108.345 26.9369 108.141 27.4411 108.141 27.9665C108.134 28.0465 108.134 28.1271 108.141 28.2072L108.148 33.6332Z" fill="white"/>
<path d="M121.802 28.1657L125.708 33.6674H123L120.292 29.7681L119.148 30.9922V33.633H116.948V19.5625H119.148V27.9938L122.723 24.1702H125.667L121.802 28.1657Z" fill="white"/>
<path d="M17.3341 15.7525L26.9333 21.3505V32.6014L17.3611 38.2337L7.76866 32.6495V21.4055L17.3341 15.7525ZM17.3341 7.5L13.8139 9.56313L4.22818 15.2161L0.708008 17.2792V36.7895L4.22818 38.8527L13.8274 44.4506L17.3476 46.5138L20.8678 44.4506L30.4332 38.8114L33.9533 36.7483V17.2105L30.4332 15.1473L20.8407 9.56313L17.3205 7.5H17.3341Z" fill="white"/>
</g>
<defs>
<clipPath id="clip0_6045_71783">
<rect width="125" height="54" fill="white" transform="translate(0.469727)"/>
</clipPath>
</defs>
</svg>