<svg width="50" height="50" viewBox="0 0 50 50" fill="none" xmlns="http://www.w3.org/2000/svg">
<path fill-rule="evenodd" clip-rule="evenodd" d="M43.4287 15.2232C42.0408 12.5759 39.1213 9.77287 36.022 8.11229C33.1312 6.56262 32.3879 6.39077 28.0462 6.26478C21.8182 6.08435 18.0491 7.53829 14.219 11.5982C12.3468 13.5828 12.8437 13.599 15.5454 11.6421C21.9337 7.01417 31.9635 7.81245 37.9113 13.4221L39.8294 15.2313L35.8587 17.6277L34.4653 15.9374C33.6987 15.007 31.6778 13.5501 29.9744 12.6989C22.804 9.1157 14.3369 12.0246 10.7018 19.319C9.15818 22.4168 8.93493 27.267 10.1716 30.8421C12.064 36.3136 17.6343 41.1497 23.4697 42.3884C26.6634 43.0662 31.5372 42.7966 33.0264 41.8598C33.6246 41.4833 33.3051 41.4238 31.826 41.637C30.7173 41.7962 28.5709 41.6889 27.056 41.3986C15.2481 39.1328 8.55289 26.3704 15.0425 18.4975C19.8437 12.6727 29.1862 13.1953 33.0113 19.5019C33.7451 20.7124 34.5328 21.7098 34.7606 21.7183C34.9889 21.7274 37.1861 20.5617 39.643 19.129C44.0774 16.5426 44.1051 16.5134 43.4287 15.2232ZM20.4399 22.699C21.3073 19.8058 22.9396 18.2012 25.7956 17.4346L28.2982 16.7629L25.7784 16.7608C21.6379 16.7573 19.6492 17.9356 17.8525 21.4558C15.8337 25.4114 17.3708 31.6882 21.3269 35.6444C25.2583 39.5753 32.0885 40.8095 37.1962 38.5114C39.5512 37.4521 43.6772 33.7006 43.6595 32.6347C43.6545 32.3217 41.6225 30.898 39.145 29.4708L34.6396 26.8764L33.3328 28.5894C31.6975 30.7332 29.66 31.8087 27.1895 31.8314C25.2754 31.8495 25.2749 31.85 26.5344 32.5697C28.4152 33.6446 32.0311 33.504 34.0434 32.2774C35.7161 31.2573 35.7977 31.2543 37.4487 32.1433C38.3785 32.6443 39.0634 33.2833 38.9702 33.5635C38.7122 34.3376 35.7972 35.9059 33.6972 36.4008C25.9235 38.2312 18.1837 30.2313 20.4399 22.699Z" fill="white"/>
</svg>
