<svg width="32" height="32" viewBox="0 0 32 32" fill="none" xmlns="http://www.w3.org/2000/svg">
<g clip-path="url(#clip0_8596_13276)">
<path fill-rule="evenodd" clip-rule="evenodd" d="M19.9022 19.4902C19.1319 20.1305 18.1343 20.5125 17.0445 20.5125C16.6339 20.5125 16.1711 20.4285 15.7 20.2708L11.6326 23.9535C13.1648 24.7912 14.958 25.2569 16.7965 25.2569C19.0351 25.2569 21.0839 24.6698 22.6633 23.5722C22.6637 23.572 22.664 23.5717 22.6644 23.5715L19.9022 19.4902Z" fill="url(#paint0_linear_8596_13276)"/>
<path d="M32 5.94019L28.1682 7.51337L6.99536 26.0598L10.0982 25.364L32 5.94019Z" fill="#3F3983"/>
<path d="M25.6917 5.94067H31.9994L28.1678 7.51389H21.1969L25.6917 5.94067Z" fill="#7A74CC"/>
<path fill-rule="evenodd" clip-rule="evenodd" d="M23.9923 11.1712L28.1674 7.51392H21.1975L20.131 8.44703C19.1273 8.1146 17.9913 7.9338 16.7243 7.9338C11.7007 7.9338 7.30581 11.1996 7.56487 16.852C7.56487 17.6526 7.66955 18.4325 7.86595 19.1779L0 26.0599H6.99575L20.03 14.6421L23.9923 11.1713C23.9923 11.1713 23.9923 11.1713 23.9923 11.1712Z" fill="url(#paint1_linear_8596_13276)"/>
</g>
<defs>
<linearGradient id="paint0_linear_8596_13276" x1="20.2044" y1="19.4902" x2="12.9782" y2="24.7282" gradientUnits="userSpaceOnUse">
<stop stop-color="#878593"/>
<stop offset="1" stop-color="#696772"/>
</linearGradient>
<linearGradient id="paint1_linear_8596_13276" x1="21.0545" y1="7.51392" x2="3.0206e-07" y2="26.0599" gradientUnits="userSpaceOnUse">
<stop stop-color="#D3CFE6"/>
<stop offset="1" stop-color="#5E5D66"/>
</linearGradient>
<clipPath id="clip0_8596_13276">
<rect width="32" height="32" fill="white"/>
</clipPath>
</defs>
</svg>