<svg width="766" height="414" viewBox="0 0 766 414" fill="none" xmlns="http://www.w3.org/2000/svg">
<path opacity="0.3" d="M140.5 271.619L163 404.69L-246 345.783V235.413H-237.81L-219.941 196.881L-213.985 203.154H-181.225C-174.077 203.154 -167.823 207.335 -165.59 209.426L-129.107 203.154L-111.238 235.413L-102.304 225.556C-98.0848 228.842 -88.7533 235.413 -85.1795 235.413C-81.6057 235.413 -78.7267 197.18 -77.734 178.063H-67.3105L-50.1861 240.79L-28.5 227.747H-16.5L-9.23643 249.751L4.90988 191.903L20.5452 222.37L33.9469 227.747L57.0276 222.37L66.5 262.31L80.5 249.751L91.5 262.31L105.5 249.751L122.547 281.115L140.5 271.619Z" fill="url(#paint0_linear)"/>
<path opacity="0.3" d="M750.795 154.369L765 144.917V351.128L325 357.595C325 343.848 337.519 293.099 343.5 271.619H359L359.5 291.333L375.5 296.81C375.998 275.616 376.696 228.391 375.5 220.143C374.304 211.894 390.776 184.841 399 171.952L419 154.429L433.791 163.82V132.888H444.258L451.735 106.253L471.174 113.127L480.893 84.7727L494.351 90.7872H504.818L514.537 113.127L521.266 84.7727L534.724 100.239L548.182 61.5741L570.5 18.619C573.491 19.4782 581.608 23.5362 584 26.2857C586.392 29.0352 593.29 34.8965 597.527 38.3333L598 15.8809C601.489 27.3371 608.592 52.6383 610.984 61.5741C615.5 67.3571 618.757 56.1846 621 48.7381L628.18 84.7727L634.909 40.0939L648.367 2.67584H662.572C665.064 21.5784 670.049 62.777 670.049 67.5886C670.049 70.0952 682.27 64.7953 688.5 60.7857L700.702 84.7727L708.179 163.82L729.86 144.917L746.309 163.82L750.795 154.369Z" fill="url(#paint1_linear)"/>
<path opacity="0.3" d="M182.391 250.329L168.878 355.393L324.635 358.794C322.264 348.592 316.669 327.677 313.255 325.637C309.841 323.596 299.505 332.722 294.763 337.539V309.483L267.737 325.637L262.047 290.289H254.224L243.556 307.292H223.642L214.396 271.584H203.017L190.503 250.329L183.391 237.576L182.391 250.329Z" fill="url(#paint2_linear)"/>
<path d="M765 145.131L750.824 154.74L746.347 164.349L729.932 145.131L708.294 164.349L700.833 83.9822L688.895 60.3963C682.677 64.4729 670.242 71.4031 670.242 66.5112C670.242 61.6193 665.268 21.9599 662.781 2.7417H648.604L635.174 38.5574L628.459 83.9822L620.998 49.0401C618.759 56.6109 613.686 69.4812 611.298 60.3963C608.911 51.3113 601.35 25.7453 597.868 14.0979V39.431C593.64 35.9368 584.587 28.2495 582.199 25.4541C579.812 22.6587 573.246 20.2128 570.261 19.3392L548.624 60.3963L535.193 99.7062L521.763 83.9822L515.048 112.81L505.348 90.0971H494.903L481.472 83.9822L471.773 112.81L452.373 105.821L444.912 132.901H434.466V164.349L418.798 154.74L398.652 172.211C390.445 185.315 374.329 213.618 375.523 222.004C376.716 230.39 376.02 275.582 375.523 297.129L359.108 291.015V271.796H343.439C337.47 293.635 325.532 340.807 325.532 354.784C325.532 372.255 317.325 326.83 311.356 325.083C306.581 323.686 298.423 332.654 294.941 337.313V307.612L268.827 325.083L262.858 291.015H253.904L243.458 307.612H223.313L215.852 271.796H203.914L183.022 236.854V250.831L163.349 408.517L140.493 271.796L123.332 281.406L105.425 250.831L91.2487 261.314L80.803 250.831L66.6266 261.314L57.6731 222.004L34.5432 227.245L21.113 222.004L5.44435 192.303L-8.7321 250.831L-16.1933 227.245H-27.3852L-49.7689 242.096L-66.9298 180.947H-77.3756C-78.3704 199.583 -81.2555 236.854 -84.8369 236.854C-88.4183 236.854 -97.7697 230.448 -101.998 227.245L-110.951 236.854L-128.858 205.406L-165.418 211.521C-167.657 209.483 -173.924 205.406 -181.087 205.406C-188.25 205.406 -205.958 205.406 -213.917 205.406L-219.886 199.291L-237.793 236.854H-246" stroke="url(#paint3_linear)" strokeWidth="2"/>
<defs>
<linearGradient id="paint0_linear" x1="-41.5" y1="178.063" x2="-41.5" y2="404.69" gradientUnits="userSpaceOnUse">
<stop stop-color="#00D1FF" stop-opacity="0.79"/>
<stop offset="1" stop-color="#ED1EFF" stop-opacity="0"/>
</linearGradient>
<linearGradient id="paint1_linear" x1="545" y1="2.67584" x2="545" y2="357.595" gradientUnits="userSpaceOnUse">
<stop stop-color="#00D1FF" stop-opacity="0.79"/>
<stop offset="1" stop-color="#ED1EFF" stop-opacity="0"/>
</linearGradient>
<linearGradient id="paint2_linear" x1="246.756" y1="239.767" x2="246.756" y2="358.794" gradientUnits="userSpaceOnUse">
<stop stop-color="#00D1FF" stop-opacity="0.79"/>
<stop offset="1" stop-color="#ED1EFF" stop-opacity="0"/>
</linearGradient>
<linearGradient id="paint3_linear" x1="259.5" y1="2.7417" x2="259.5" y2="408.517" gradientUnits="userSpaceOnUse">
<stop stop-color="#ED1EFF"/>
<stop offset="1" stop-color="#00D1FF"/>
</linearGradient>
</defs>
</svg>
