<svg width="76" height="13" viewBox="0 0 76 13" fill="none" xmlns="http://www.w3.org/2000/svg">
<g clip-path="url(#clip0_6045_71308)">
<path d="M36.6221 0.509903V2.08598H28.9748V5.18869H35.7667V6.7461H28.9748V12.3531H27.4068V0.509903H36.6221ZM47.2936 7.85462C47.2936 7.98177 47.259 10.9669 44.2639 10.9669C41.4763 10.9669 41.2403 8.58388 41.2342 7.85462V0.509903H39.6662V7.85462C39.6662 9.99758 40.8704 12.5 44.2639 12.5C47.6572 12.5 48.8615 9.99743 48.8615 7.85462V0.509903H47.2936V7.85462ZM59.4652 7.83557L62.2251 12.353H60.3347L57.688 7.99697H54.6725V12.353H53.1049V0.51013H58.1517C61.031 0.51013 62.32 2.3904 62.32 4.25366C62.3202 6.92488 60.2086 7.65981 59.4652 7.83557ZM58.1518 6.42104C59.3387 6.42104 60.7534 6.04496 60.7534 4.25359C60.7534 2.35495 59.1236 2.07139 58.1518 2.07139H54.6725V6.42104H58.1518ZM20.9476 0.509903V9.92176H20.6053L15.0722 0.509903H13.0435V12.353H14.6113V3.23872H14.9534L20.2359 12.3529H22.5152V0.509903H20.9476ZM0.376953 0.509903V1.97183H3.85856V10.8914H0.376953V12.353H8.90772V10.8914H5.42626V1.97183H8.90772V0.509903H0.376953ZM75.577 12.3529H73.9288L72.637 8.76373H68.0762L66.7862 12.3529H65.1383L69.4186 0.5H71.297L75.577 12.3529ZM72.0853 7.23036L70.5422 2.94285H70.1681L68.6271 7.23036H72.0853Z" fill="white"/>
</g>
<defs>
<clipPath id="clip0_6045_71308">
<rect width="75.2" height="12" fill="white" transform="translate(0.376953 0.5)"/>
</clipPath>
</defs>
</svg>
