<svg width="95" height="16" viewBox="0 0 95 16" fill="none" xmlns="http://www.w3.org/2000/svg">
<g clip-path="url(#clip0_6045_71796)">
<path d="M46.1483 0.512378V2.48247H36.5891V6.36087H45.079V8.30762H36.5891V15.3164H34.6291V0.512378H46.1483ZM59.4876 9.69328C59.4876 9.85221 59.4444 13.5836 55.7005 13.5836C52.216 13.5836 51.9209 10.6049 51.9134 9.69328V0.512378H49.9533V9.69328C49.9533 12.372 51.4586 15.5 55.7005 15.5C59.9421 15.5 61.4475 12.3718 61.4475 9.69328V0.512378H59.4876V9.69328ZM74.7021 9.66947L78.152 15.3162H75.7889L72.4806 9.87121H68.7112V15.3162H66.7517V0.512662H73.0602C76.6594 0.512662 78.2706 2.863 78.2706 5.19208C78.2708 8.5311 75.6313 9.44977 74.7021 9.66947ZM73.0604 7.9013C74.544 7.9013 76.3123 7.4312 76.3123 5.19198C76.3123 2.81868 74.2751 2.46424 73.0604 2.46424H68.7112V7.9013H73.0604ZM26.5551 0.512378V12.2772H26.1272L19.2109 0.512378H16.675V15.3162H18.6347V3.92341H19.0624L25.6655 15.3161H28.5145V0.512378H26.5551ZM0.841797 0.512378V2.33979H5.19381V13.4893H0.841797V15.3162H11.5052V13.4893H7.15343V2.33979H11.5052V0.512378H0.841797ZM94.8418 15.3161H92.7816L91.1669 10.8297H85.4659L83.8534 15.3161H81.7935L87.1439 0.5H89.4919L94.8418 15.3161ZM90.4773 8.91295L88.5484 3.55356H88.0807L86.1545 8.91295H90.4773Z" fill="white"/>
</g>
<defs>
<clipPath id="clip0_6045_71796">
<rect width="94" height="15" fill="white" transform="translate(0.841797 0.5)"/>
</clipPath>
</defs>
</svg>
