<svg width="108" height="54" viewBox="0 0 108 54" fill="none" xmlns="http://www.w3.org/2000/svg">
<g clip-path="url(#clip0_6045_71796)">
<path d="M52.8991 19.514V21.7468H42.0654V26.1423H51.6873V28.3486H42.0654V36.2919H39.844V19.514H52.8991ZM68.0171 29.919C68.0171 30.0992 67.9681 34.3281 63.7249 34.3281C59.7759 34.3281 59.4414 30.9522 59.4329 29.919V19.514H57.2115V29.919C57.2115 32.9549 58.9175 36.5 63.7249 36.5C68.5321 36.5 70.2383 32.9547 70.2383 29.919V19.514H68.0171V29.919ZM85.2601 29.8921L89.17 36.2917H86.4919L82.7424 30.1207H78.4704V36.2917H76.2496V19.5144H83.3993C87.4784 19.5144 89.3044 22.1781 89.3044 24.8177C89.3047 28.6019 86.3132 29.6431 85.2601 29.8921ZM83.3995 27.8881C85.0809 27.8881 87.085 27.3554 87.085 24.8176C87.085 22.1278 84.7761 21.7261 83.3995 21.7261H78.4704V27.8881H83.3995ZM30.6935 19.514V32.8475H30.2086L22.3701 19.514H19.496V36.2917H21.717V23.3799H22.2018L29.6853 36.2916H32.9142V19.514H30.6935ZM1.55176 19.514V21.5851H6.48404V34.2212H1.55176V36.2917H13.637V34.2212H8.70494V21.5851H13.637V19.514H1.55176ZM108.085 36.2916H105.75L103.92 31.2069H97.459L95.6316 36.2916H93.297L99.3608 19.5H102.022L108.085 36.2916ZM103.139 29.0347L100.953 22.9607H100.423L98.2395 29.0347H103.139Z" fill="white"/>
</g>
<defs>
<clipPath id="clip0_6045_71796">
<rect width="107" height="54" fill="white" transform="translate(0.775391)"/>
</clipPath>
</defs>
</svg>