<svg width="104" height="27" viewBox="0 0 104 27" fill="none" xmlns="http://www.w3.org/2000/svg">
<path d="M14.7323 25.55C14.4058 25.4083 13.937 25.1667 13.6858 25.0083C13.2588 24.7417 11.9277 23.7583 11.9277 23.7083C11.9277 23.6917 12.4384 23.4167 13.0579 23.0917C13.6774 22.775 14.4979 22.2917 14.883 22.0333C15.8122 21.3917 16.9257 20.2583 17.3108 19.575C17.9973 18.35 18.0977 17.7917 18.2484 14.4083C18.374 11.35 18.4996 10.5 18.96 9.23333C19.8056 6.93333 21.3209 5.625 24.6528 4.33333C26.3523 3.66667 27.315 3.1 28.2024 2.23333L28.9475 1.5L28.8889 1.975C28.7968 2.74167 28.4955 3.28333 27.7671 3.99167C26.9885 4.75 26.076 5.325 23.5896 6.61667C21.6725 7.61667 21.3292 7.85 20.8018 8.50833C20.0986 9.39167 19.9144 10.2667 19.7553 13.4417C19.6214 16.1333 19.5544 16.7583 19.2865 17.8333C18.667 20.325 17.2187 22.2417 15.0002 23.5167L14.3555 23.8833L14.8913 24.1833L15.4271 24.475L16.0885 24.1333C16.4485 23.95 17.068 23.575 17.4698 23.3083C18.2903 22.7583 20.0232 21.1417 20.8269 20.1833C21.572 19.3 22.6436 17.6417 23.171 16.575L23.6063 15.6833L24.4017 15.3083C24.837 15.1 25.2054 14.9417 25.2305 14.9583C25.3644 15.1 24.117 17.6917 23.3552 18.85C21.4883 21.6833 18.7926 24.0667 15.7118 25.6167L15.3183 25.8167L14.7323 25.55Z" fill="white"/>
<path d="M49.1063 23.167C47.4905 22.8253 46.4524 22.217 45.3055 20.9337C44.1167 19.6003 43.6562 18.317 43.6562 16.3087C43.6646 14.4587 44.0665 13.292 45.1129 12.067C45.8915 11.1587 46.4608 10.692 47.2729 10.2837C48.4868 9.67533 49.0895 9.54199 50.6048 9.54199C52.1368 9.54199 52.5722 9.64199 53.8279 10.2503C55.5525 11.0837 56.9004 12.7253 57.4362 14.667C57.6538 15.4337 57.6455 17.317 57.4362 18.117C56.825 20.3837 55.1674 22.1753 52.9991 22.892C52.1117 23.1753 52.0113 23.192 50.7723 23.217C50.0607 23.2337 49.3072 23.2087 49.1063 23.167ZM51.7015 20.5503C52.7982 20.317 53.4931 19.7753 54.0205 18.7753C54.4475 17.942 54.573 17.4003 54.5647 16.3753C54.5647 14.4837 53.7526 13.0753 52.3127 12.467C51.8187 12.2587 51.6011 12.217 50.8309 12.1837C50.2951 12.1587 49.7676 12.192 49.5332 12.2503C47.3817 12.7837 46.1845 15.0253 46.7119 17.542C46.9547 18.692 47.6245 19.6753 48.5286 20.2003C49.2486 20.617 50.6383 20.7753 51.7015 20.5503Z" fill="white"/>
<path d="M63.497 23.1587C62.5342 22.8921 62.0403 22.6254 61.4124 22.0004C60.8599 21.4504 60.3575 20.7587 60.1901 20.3254C60.1483 20.2087 60.3827 20.0671 61.3705 19.5921C62.0486 19.2671 62.6179 19.0087 62.6263 19.0254C62.643 19.0421 62.8021 19.2754 62.9863 19.5587C63.3798 20.1671 63.7397 20.4504 64.2755 20.5921C64.7611 20.7087 65.4727 20.6504 65.8411 20.4587C66.3601 20.1921 66.5778 19.2921 66.268 18.6754C65.9834 18.1254 65.4727 17.7671 63.8737 16.9921C62.0738 16.1254 61.5715 15.7337 61.1361 14.8504C60.8766 14.3254 60.8599 14.2504 60.8599 13.3754C60.8682 12.6171 60.9017 12.3754 61.0608 11.9754C61.5045 10.8587 62.4421 10.0337 63.6979 9.65039C64.1667 9.50873 64.4179 9.48373 65.096 9.51706C65.8411 9.55039 65.9917 9.59206 66.5527 9.86706C67.2977 10.2337 67.9926 10.8754 68.3024 11.4837C68.4196 11.7171 68.52 11.9504 68.52 11.9921C68.52 12.0671 66.1843 13.2921 66.1424 13.2337C66.1257 13.2171 66.0252 13.0671 65.908 12.8921C65.4643 12.2337 64.7946 11.9587 64.2169 12.2004C63.8821 12.3421 63.5807 12.7671 63.5807 13.1087C63.5807 13.6837 64.0328 14.0921 65.2801 14.6421C66.7871 15.3004 68.0345 16.0421 68.5954 16.5921C68.7461 16.7504 68.9888 17.1171 69.1312 17.4171C69.3572 17.8837 69.3991 18.0754 69.4242 18.7671C69.466 19.7504 69.2819 20.4587 68.7879 21.2087C68.1517 22.1837 67.2559 22.8171 66.0922 23.1254C65.5732 23.2671 63.9658 23.2837 63.497 23.1587Z" fill="white"/>
<path d="M93.9706 23.0837C92.539 22.7254 91.6516 22.2004 90.5717 21.0587C90.1363 20.6087 89.8852 20.2421 89.5503 19.5837C88.9726 18.4254 88.8471 17.9421 88.8052 16.5837C88.755 15.2171 88.8806 14.5587 89.3578 13.5337C89.8182 12.5587 90.3373 11.8671 91.074 11.2254C91.8442 10.5504 92.5223 10.1754 93.552 9.8254C94.2218 9.6004 94.5064 9.5504 95.3854 9.51707C96.8672 9.45874 97.763 9.64207 99.0523 10.2671C99.8643 10.6587 100.283 10.9921 101.061 11.8587C102.301 13.2337 102.702 14.3254 102.711 16.3754C102.711 17.4421 102.686 17.7254 102.518 18.3337C102.234 19.3671 101.74 20.2504 101.011 21.0171C99.9397 22.1587 99.0606 22.6754 97.5788 23.0504C96.5658 23.3087 94.9417 23.3254 93.9706 23.0837ZM96.7249 20.5754C97.47 20.4421 97.9221 20.2254 98.4914 19.7004C99.362 18.8921 99.7722 17.8421 99.7722 16.4171C99.7722 14.5587 98.9769 13.1504 97.5453 12.4921C97.0012 12.2421 96.8505 12.2171 96.0133 12.1837C94.5901 12.1254 93.6943 12.4421 92.9074 13.2754C92.1958 14.0171 91.7939 15.1254 91.7939 16.3421C91.7856 19.3837 93.7697 21.0754 96.7249 20.5754Z" fill="white"/>
<path d="M10.1442 22.1497C8.34427 20.3663 6.78712 18.1997 6.01692 16.3997C5.85785 16.0247 5.74065 15.7163 5.74902 15.708C5.76576 15.6913 6.28481 15.8663 6.90432 16.0913C10.2279 17.2997 11.3246 17.8163 11.6176 18.308C11.8102 18.6413 11.8186 19.108 11.6344 19.5413L11.4837 19.8747L11.3832 19.4747C11.2493 18.9497 10.7218 18.408 10.0354 18.083C9.5498 17.8497 8.16846 17.4663 8.09311 17.5413C8.02614 17.5997 9.83444 20.0497 10.5293 20.8413L10.9395 21.308L11.5758 20.9663C12.9571 20.2247 13.9785 18.858 14.238 17.4163C14.531 15.6997 13.9952 13.9913 12.7227 12.6747C11.6427 11.5497 10.6716 10.9913 8.56193 10.2663C7.08013 9.75801 6.60294 9.55801 5.94157 9.17467C4.23373 8.20801 3.06168 6.82467 2.67658 5.32467C2.50914 4.69967 2.50914 3.58301 2.65984 2.91634L2.76867 2.45801L2.83564 2.99967C3.03657 4.80801 3.79003 6.24967 5.07091 7.29967C5.85785 7.94134 6.63643 8.30801 8.78797 9.04134C13.6938 10.7247 15.117 11.883 15.9123 14.808C16.2221 15.958 16.2472 17.583 15.9626 18.483C15.3933 20.2747 13.8613 21.808 11.8437 22.5997C10.8809 22.983 11.0149 23.0163 10.1442 22.1497Z" fill="white"/>
<path d="M37.2949 16.3747V9.83301H38.76H40.225V16.3747V22.9163H38.76H37.2949V16.3747Z" fill="white"/>
<path d="M72.2051 16.3747V9.83301H73.712H75.2189V16.3747V22.9163H73.712H72.2051V16.3747Z" fill="white"/>
<path d="M79.2363 16.3754V9.8337H80.7432H82.2502V10.4254V11.0254L82.6269 10.6754C83.1878 10.1587 83.958 9.70037 84.4352 9.5837C85.1468 9.4087 86.1933 9.51704 86.9384 9.82537C87.2816 9.96704 87.6165 10.117 87.6751 10.1587C87.7672 10.2087 87.6416 10.517 87.1476 11.5087C86.7877 12.217 86.4863 12.8087 86.4695 12.8254C86.4528 12.842 86.2016 12.7504 85.917 12.617C85.4733 12.417 85.2807 12.3754 84.7198 12.3754C84.1338 12.3754 83.9915 12.4087 83.598 12.6254C83.0455 12.9337 82.7274 13.3087 82.4846 13.9587C82.292 14.4504 82.292 14.5337 82.2669 18.692L82.2418 22.917H80.7432H79.2363V16.3754Z" fill="white"/>
<path d="M12.5136 16.4585C11.9192 15.8585 11.0904 15.2919 10.0188 14.7585C9.17326 14.3335 7.21427 13.6252 6.31849 13.4169C5.1883 13.1502 3.57255 12.2752 2.80235 11.5002C2.2247 10.9335 1.67216 10.0585 1.41263 9.28353C1.22008 8.73353 1.1866 8.4752 1.17822 7.70853C1.16985 6.75853 1.27031 5.7752 1.3624 5.8752C1.39589 5.9002 1.47961 6.25853 1.55495 6.65853C1.85634 8.20853 2.44236 9.3252 3.54743 10.4252C4.5353 11.4002 5.06272 11.6919 6.88777 12.2502C9.04769 12.9169 10.1779 13.4585 11.375 14.4252C12.2122 15.0919 13.1247 16.4585 12.9992 16.8335C12.9824 16.8835 12.7647 16.7085 12.5136 16.4585Z" fill="white"/>
<path d="M20.4668 15.7167C20.4668 15.475 20.8184 14.6667 21.0947 14.2917C21.7393 13.3833 22.543 12.7583 24.4434 11.6917C25.9754 10.8333 26.4191 10.5 27.6079 9.34167L28.5874 8.375V8.66667C28.5874 9.5 28.1102 10.4667 27.3233 11.2583C26.7121 11.875 26.1763 12.1917 24.6359 12.8667C22.8276 13.6667 21.8984 14.25 21.0361 15.15C20.718 15.4667 20.4668 15.725 20.4668 15.7167Z" fill="white"/>
<path d="M20.8008 12.6498C20.8008 12.3831 21.1608 11.3581 21.4538 10.7998C21.797 10.1415 22.6426 9.24147 23.3123 8.81647C23.5635 8.64981 24.2834 8.25814 24.9029 7.9248C26.301 7.19147 27.5233 6.29147 28.6619 5.15814L29.5325 4.2998L29.4823 4.6498C29.206 6.3248 27.8247 7.75814 25.2378 9.04147C24.7104 9.30814 24.0658 9.66647 23.7979 9.84147C23.3039 10.1748 21.638 11.7665 21.1022 12.4081C20.9264 12.6248 20.8008 12.7248 20.8008 12.6498Z" fill="white"/>
<path d="M15.6198 12.1331C15.0757 11.4331 13.8534 10.3081 13.4181 10.1081C13.0748 9.94139 12.9995 9.85805 12.7316 9.30805C12.313 8.44139 11.4256 7.50805 10.6889 7.14972C10.1531 6.89139 10.0777 6.87472 9.15684 6.87472C8.00153 6.87472 7.82572 6.95805 7.82572 7.52472C7.82572 7.82472 7.80898 7.84139 7.68341 7.74139C7.43225 7.53305 7.07227 6.89139 7.07227 6.64139C7.07227 5.85805 8.13548 5.06639 9.53357 4.82472C9.99401 4.74139 10.2201 4.64972 10.5465 4.39972C11.1577 3.93305 11.6935 3.79972 12.7651 3.84972C13.8869 3.90805 14.4562 4.09972 16.6412 5.13305C18.5583 6.04972 18.6588 6.09139 19.0272 6.15805L19.295 6.20805L18.9937 6.62472C18.1732 7.76639 17.4784 9.82472 17.3528 11.4997C17.3109 11.9914 17.1184 10.3497 17.1184 9.52472C17.1184 8.70805 17.2775 7.73305 17.4867 7.23305C17.5621 7.05805 17.6207 6.89972 17.6207 6.87472C17.6207 6.85805 17.2691 6.67472 16.8505 6.47472C16.4235 6.27472 15.737 5.89139 15.3185 5.63305C14.0376 4.82472 12.4804 4.48305 11.8023 4.84972L11.5512 4.98305L11.9698 5.04139C12.5474 5.11639 13.4934 5.39972 13.5688 5.51639C13.6106 5.58305 13.5771 5.59139 13.4767 5.54972C13.3846 5.51639 12.5809 5.46639 11.6851 5.44139C9.92704 5.39139 9.21544 5.46639 8.96429 5.74139C8.83034 5.88305 8.85545 5.89139 9.40799 5.94972C10.5131 6.04972 11.7521 6.54972 12.74 7.28305C13.7194 8.02472 14.565 9.09972 15.2599 10.5081C15.6031 11.2164 16.0719 12.4914 16.0049 12.5497C15.9882 12.5747 15.8124 12.3831 15.6198 12.1331Z" fill="white"/>
<path d="M5.15493 5.96667L4.61914 5.43334L4.86192 4.41667L5.1047 3.39167L6.0256 3.06667C10.7808 1.36667 16.214 1.05834 21.4296 2.18334C22.4343 2.40001 24.1254 2.90001 24.4602 3.07501C24.5188 3.10834 24.2007 3.28334 23.7235 3.49167L22.8863 3.85834L22.2668 3.67501C21.4213 3.43334 20.2827 3.20834 19.0353 3.03334C17.6456 2.83334 14.0709 2.83334 12.3881 3.03334C10.1864 3.28334 6.38558 4.08334 6.24326 4.32501C6.20978 4.37501 6.09257 4.89167 5.98374 5.45834C5.87491 6.03334 5.76607 6.50001 5.73259 6.50001C5.70747 6.50001 5.44795 6.25834 5.15493 5.96667Z" fill="white"/>
<path d="M37.9882 6.07532C36.9585 5.56698 36.565 4.33365 37.1176 3.37532C37.5529 2.62532 38.1975 2.33365 39.177 2.45865C39.7212 2.52532 40.1063 2.80032 40.4244 3.36698C41.3453 4.95032 39.6123 6.87532 37.9882 6.07532Z" fill="white"/>
<path d="M73 6.09974C72.5814 5.90807 72.1377 5.46641 71.987 5.10807C71.8363 4.74974 71.8363 3.84141 71.9954 3.47474C72.1795 3.02474 72.8158 2.51641 73.2679 2.44974C73.8037 2.37474 74.4315 2.46641 74.7664 2.67474C75.4027 3.06641 75.8296 4.04974 75.6455 4.71641C75.5199 5.16641 75.1348 5.69141 74.7078 5.97474C74.2557 6.27474 73.4939 6.33307 73 6.09974Z" fill="white"/>
</svg>
