<?xml version="1.0" encoding="utf-8"?>
<svg version="1.0" xmlns="http://www.w3.org/2000/svg" width="1233px" height="312px" viewBox="0 0 1233 312" preserveAspectRatio="xMidYMid meet">
 <g fill="#FFFFFF">
  <path d="M171.5 300.6 c-3.9 -1.7 -9.5 -4.6 -12.5 -6.5 -5.1 -3.2 -21 -15 -21 -15.6 0 -0.2 6.1 -3.5 13.5 -7.4 7.4 -3.8 17.2 -9.6 21.8 -12.7 11.1 -7.7 24.4 -21.3 29 -29.5 8.2 -14.7 9.4 -21.4 11.2 -62 1.5 -36.7 3 -46.9 8.5 -62.1 10.1 -27.6 28.2 -43.3 68 -58.8 20.3 -8 31.8 -14.8 42.4 -25.2 l8.9 -8.8 -0.7 5.7 c-1.1 9.2 -4.7 15.7 -13.4 24.2 -9.3 9.1 -20.2 16 -49.9 31.5 -22.9 12 -27 14.8 -33.3 22.7 -8.4 10.6 -10.6 21.1 -12.5 59.2 -1.6 32.3 -2.4 39.8 -5.6 52.7 -7.4 29.9 -24.7 52.9 -51.2 68.2 l-7.7 4.4 6.4 3.6 6.4 3.5 7.9 -4.1 c4.3 -2.2 11.7 -6.7 16.5 -9.9 9.8 -6.6 30.5 -26 40.1 -37.5 8.9 -10.6 21.7 -30.5 28 -43.3 l5.2 -10.7 9.5 -4.5 c5.2 -2.5 9.6 -4.4 9.9 -4.2 1.6 1.7 -13.3 32.8 -22.4 46.7 -22.3 34 -54.5 62.6 -91.3 81.2 l-4.7 2.4 -7 -3.2z"/>
  <path d="M582.1 272 c-19.3 -4.1 -31.7 -11.4 -45.4 -26.8 -14.2 -16 -19.7 -31.4 -19.7 -55.5 0.1 -22.2 4.9 -36.2 17.4 -50.9 9.3 -10.9 16.1 -16.5 25.8 -21.4 14.5 -7.3 21.7 -8.9 39.8 -8.9 18.3 0 23.5 1.2 38.5 8.5 20.6 10 36.7 29.7 43.1 53 2.6 9.2 2.5 31.8 0 41.4 -7.3 27.2 -27.1 48.7 -53 57.3 -10.6 3.4 -11.8 3.6 -26.6 3.9 -8.5 0.2 -17.5 -0.1 -19.9 -0.6z m31 -31.4 c13.1 -2.8 21.4 -9.3 27.7 -21.3 5.1 -10 6.6 -16.5 6.5 -28.8 0 -22.7 -9.7 -39.6 -26.9 -46.9 -5.9 -2.5 -8.5 -3 -17.7 -3.4 -6.4 -0.3 -12.7 0.1 -15.5 0.8 -25.7 6.4 -40 33.3 -33.7 63.5 2.9 13.8 10.9 25.6 21.7 31.9 8.6 5 25.2 6.9 37.9 4.2z"/>
  <path d="M754 271.9 c-11.5 -3.2 -17.4 -6.4 -24.9 -13.9 -6.6 -6.6 -12.6 -14.9 -14.6 -20.1 -0.5 -1.4 2.3 -3.1 14.1 -8.8 8.1 -3.9 14.9 -7 15 -6.8 0.2 0.2 2.1 3 4.3 6.4 4.7 7.3 9 10.7 15.4 12.4 5.8 1.4 14.3 0.7 18.7 -1.6 6.2 -3.2 8.8 -14 5.1 -21.4 -3.4 -6.6 -9.5 -10.9 -28.6 -20.2 -21.5 -10.4 -27.5 -15.1 -32.7 -25.7 -3.1 -6.3 -3.3 -7.2 -3.3 -17.7 0.1 -9.1 0.5 -12 2.4 -16.8 5.3 -13.4 16.5 -23.3 31.5 -27.9 5.6 -1.7 8.6 -2 16.7 -1.6 8.9 0.4 10.7 0.9 17.4 4.2 8.9 4.4 17.2 12.1 20.9 19.4 1.4 2.8 2.6 5.6 2.6 6.1 0 0.9 -27.9 15.6 -28.4 14.9 -0.2 -0.2 -1.4 -2 -2.8 -4.1 -5.3 -7.9 -13.3 -11.2 -20.2 -8.3 -4 1.7 -7.6 6.8 -7.6 10.9 0 6.9 5.4 11.8 20.3 18.4 18 7.9 32.9 16.8 39.6 23.4 1.8 1.9 4.7 6.3 6.4 9.9 2.7 5.6 3.2 7.9 3.5 16.2 0.5 11.8 -1.7 20.3 -7.6 29.3 -7.6 11.7 -18.3 19.3 -32.2 23 -6.2 1.7 -25.4 1.9 -31 0.4z"/>
  <path d="M1118 271 c-17.1 -4.3 -27.7 -10.6 -40.6 -24.3 -5.2 -5.4 -8.2 -9.8 -12.2 -17.7 -6.9 -13.9 -8.4 -19.7 -8.9 -36 -0.6 -16.4 0.9 -24.3 6.6 -36.6 5.5 -11.7 11.7 -20 20.5 -27.7 9.2 -8.1 17.3 -12.6 29.6 -16.8 8 -2.7 11.4 -3.3 21.9 -3.7 17.7 -0.7 28.4 1.5 43.8 9 9.7 4.7 14.7 8.7 24 19.1 14.8 16.5 19.6 29.6 19.7 54.2 0 12.8 -0.3 16.2 -2.3 23.5 -3.4 12.4 -9.3 23 -18 32.2 -12.8 13.7 -23.3 19.9 -41 24.4 -12.1 3.1 -31.5 3.3 -43.1 0.4z m32.9 -30.1 c8.9 -1.6 14.3 -4.2 21.1 -10.5 10.4 -9.7 15.3 -22.3 15.3 -39.4 0 -22.3 -9.5 -39.2 -26.6 -47.1 -6.5 -3 -8.3 -3.3 -18.3 -3.7 -17 -0.7 -27.7 3.1 -37.1 13.1 -8.5 8.9 -13.3 22.2 -13.3 36.8 -0.1 36.5 23.6 56.8 58.9 50.8z"/>
  <path d="M116.7 259.8 c-21.5 -21.4 -40.1 -47.4 -49.3 -69 -1.9 -4.5 -3.3 -8.2 -3.2 -8.3 0.2 -0.2 6.4 1.9 13.8 4.6 39.7 14.5 52.8 20.7 56.3 26.6 2.3 4 2.4 9.6 0.2 14.8 l-1.8 4 -1.2 -4.8 c-1.6 -6.3 -7.9 -12.8 -16.1 -16.7 -5.8 -2.8 -22.3 -7.4 -23.2 -6.5 -0.8 0.7 20.8 30.1 29.1 39.6 l4.9 5.6 7.6 -4.1 c16.5 -8.9 28.7 -25.3 31.8 -42.6 3.5 -20.6 -2.9 -41.1 -18.1 -56.9 -12.9 -13.5 -24.5 -20.2 -49.7 -28.9 -17.7 -6.1 -23.4 -8.5 -31.3 -13.1 -20.4 -11.6 -34.4 -28.2 -39 -46.2 -2 -7.5 -2 -20.9 -0.2 -28.9 l1.3 -5.5 0.8 6.5 c2.4 21.7 11.4 39 26.7 51.6 9.4 7.7 18.7 12.1 44.4 20.9 58.6 20.2 75.6 34.1 85.1 69.2 3.7 13.8 4 33.3 0.6 44.1 -6.8 21.5 -25.1 39.9 -49.2 49.4 -11.5 4.6 -9.9 5 -20.3 -5.4z"/>
  <path d="M441 190.5 l0 -78.5 17.5 0 17.5 0 0 78.5 0 78.5 -17.5 0 -17.5 0 0 -78.5z"/>
  <path d="M858 190.5 l0 -78.5 18 0 18 0 0 78.5 0 78.5 -18 0 -18 0 0 -78.5z"/>
  <path d="M942 190.5 l0 -78.5 18 0 18 0 0 7.1 0 7.2 4.5 -4.2 c6.7 -6.2 15.9 -11.7 21.6 -13.1 8.5 -2.1 21 -0.8 29.9 2.9 4.1 1.7 8.1 3.5 8.8 4 1.1 0.6 -0.4 4.3 -6.3 16.2 -4.3 8.5 -7.9 15.6 -8.1 15.8 -0.2 0.2 -3.2 -0.9 -6.6 -2.5 -5.3 -2.4 -7.6 -2.9 -14.3 -2.9 -7 0 -8.7 0.4 -13.4 3 -6.6 3.7 -10.4 8.2 -13.3 16 -2.3 5.9 -2.3 6.9 -2.6 56.8 l-0.3 50.7 -17.9 0 -18 0 0 -78.5z"/>
  <path d="M145 191.5 c-7.1 -7.2 -17 -14 -29.8 -20.4 -10.1 -5.1 -33.5 -13.6 -44.2 -16.1 -13.5 -3.2 -32.8 -13.7 -42 -23 -6.9 -6.8 -13.5 -17.3 -16.6 -26.6 -2.3 -6.6 -2.7 -9.7 -2.8 -18.9 -0.1 -11.4 1.1 -23.2 2.2 -22 0.4 0.3 1.4 4.6 2.3 9.4 3.6 18.6 10.6 32 23.8 45.2 11.8 11.7 18.1 15.2 39.9 21.9 25.8 8 39.3 14.5 53.6 26.1 10 8 20.9 24.4 19.4 28.9 -0.2 0.6 -2.8 -1.5 -5.8 -4.5z"/>
  <path d="M240 182.6 c0 -2.9 4.2 -12.6 7.5 -17.1 7.7 -10.9 17.3 -18.4 40 -31.2 18.3 -10.3 23.6 -14.3 37.8 -28.2 l11.7 -11.6 0 3.5 c0 10 -5.7 21.6 -15.1 31.1 -7.3 7.4 -13.7 11.2 -32.1 19.3 -21.6 9.6 -32.7 16.6 -43 27.4 -3.8 3.8 -6.8 6.9 -6.8 6.8z"/>
  <path d="M244 145.8 c0 -3.2 4.3 -15.5 7.8 -22.2 4.1 -7.9 14.2 -18.7 22.2 -23.8 3 -2 11.6 -6.7 19 -10.7 16.7 -8.8 31.3 -19.6 44.9 -33.2 l10.4 -10.3 -0.6 4.2 c-3.3 20.1 -19.8 37.3 -50.7 52.7 -6.3 3.2 -14 7.5 -17.2 9.6 -5.9 4 -25.8 23.1 -32.2 30.8 -2.1 2.6 -3.6 3.8 -3.6 2.9z"/>
  <path d="M182.1 139.6 c-6.5 -8.4 -21.1 -21.9 -26.3 -24.3 -4.1 -2 -5 -3 -8.2 -9.6 -5 -10.4 -15.6 -21.6 -24.4 -25.9 -6.4 -3.1 -7.3 -3.3 -18.3 -3.3 -13.8 0 -15.9 1 -15.9 7.8 0 3.6 -0.2 3.8 -1.7 2.6 -3 -2.5 -7.3 -10.2 -7.3 -13.2 0 -9.4 12.7 -18.9 29.4 -21.8 5.5 -1 8.2 -2.1 12.1 -5.1 7.3 -5.6 13.7 -7.2 26.5 -6.6 13.4 0.7 20.2 3 46.3 15.4 22.9 11 24.1 11.5 28.5 12.3 l3.2 0.6 -3.6 5 c-9.8 13.7 -18.1 38.4 -19.6 58.5 -0.5 5.9 -2.8 -13.8 -2.8 -23.7 0 -9.8 1.9 -21.5 4.4 -27.5 0.9 -2.1 1.6 -4 1.6 -4.3 0 -0.2 -4.2 -2.4 -9.2 -4.8 -5.1 -2.4 -13.3 -7 -18.3 -10.1 -15.3 -9.7 -33.9 -13.8 -42 -9.4 l-3 1.6 5 0.7 c6.9 0.9 18.2 4.3 19.1 5.7 0.5 0.8 0.1 0.9 -1.1 0.4 -1.1 -0.4 -10.7 -1 -21.4 -1.3 -21 -0.6 -29.5 0.3 -32.5 3.6 -1.6 1.7 -1.3 1.8 5.3 2.5 13.2 1.2 28 7.2 39.8 16 11.7 8.9 21.8 21.8 30.1 38.7 4.1 8.5 9.7 23.8 8.9 24.5 -0.2 0.3 -2.3 -2 -4.6 -5z"/>
  <path d="M57.1 65.6 l-6.4 -6.4 2.9 -12.2 2.9 -12.3 11 -3.9 c56.8 -20.4 121.7 -24.1 184 -10.6 12 2.6 32.2 8.6 36.2 10.7 0.7 0.4 -3.1 2.5 -8.8 5 l-10 4.4 -7.4 -2.2 c-10.1 -2.9 -23.7 -5.6 -38.6 -7.7 -16.6 -2.4 -59.3 -2.4 -79.4 0 -26.3 3 -71.7 12.6 -73.4 15.5 -0.4 0.6 -1.8 6.8 -3.1 13.6 -1.3 6.9 -2.6 12.5 -3 12.5 -0.3 0 -3.4 -2.9 -6.9 -6.4z"/>
  <path d="M449.3 66.9 c-12.3 -6.1 -17 -20.9 -10.4 -32.4 5.2 -9 12.9 -12.5 24.6 -11 6.5 0.8 11.1 4.1 14.9 10.9 11 19 -9.7 42.1 -29.1 32.5z"/>
  <path d="M867.5 67.2 c-5 -2.3 -10.3 -7.6 -12.1 -11.9 -1.8 -4.3 -1.8 -15.2 0.1 -19.6 2.2 -5.4 9.8 -11.5 15.2 -12.3 6.4 -0.9 13.9 0.2 17.9 2.7 7.6 4.7 12.7 16.5 10.5 24.5 -1.5 5.4 -6.1 11.7 -11.2 15.1 -5.4 3.6 -14.5 4.3 -20.4 1.5z"/>
 </g>
</svg>