<svg width="116" height="54" viewBox="0 0 116 54" fill="none" xmlns="http://www.w3.org/2000/svg">
<g clip-path="url(#clip0_6055_77783)">
<path d="M15.716 40.4402C15.3519 40.2822 14.8289 40.0127 14.5488 39.8361C14.0726 39.5386 12.5879 38.4418 12.5879 38.3861C12.5879 38.3675 13.1575 38.0607 13.8485 37.6982C14.5395 37.345 15.4546 36.8059 15.8841 36.5178C16.9206 35.8021 18.1625 34.538 18.5921 33.7758C19.3578 32.4095 19.4698 31.7867 19.6379 28.013C19.778 24.6018 19.918 23.6537 20.4316 22.2409C21.3747 19.6755 23.0648 18.2162 26.7813 16.7755C28.6768 16.0319 29.7507 15.3998 30.7405 14.4332L31.5715 13.6152L31.5062 14.145C31.4034 15.0002 31.0673 15.6043 30.2549 16.3944C29.3865 17.2402 28.3687 17.8816 25.5954 19.3223C23.457 20.4377 23.0742 20.6979 22.4859 21.4322C21.7015 22.4175 21.4961 23.3934 21.3187 26.9348C21.1693 29.937 21.0946 30.6341 20.7958 31.8332C20.1048 34.6124 18.4893 36.7502 16.0148 38.1723L15.2958 38.5813L15.8934 38.9159L16.4911 39.2412L17.2287 38.8601C17.6303 38.6556 18.3213 38.2374 18.7695 37.9399C19.6846 37.3265 21.6175 35.5232 22.5139 34.4543C23.345 33.4691 24.5402 31.6194 25.1285 30.4297L25.614 29.4351L26.5011 29.0168C26.9867 28.7845 27.3975 28.6079 27.4256 28.6265C27.575 28.7845 26.1836 31.6752 25.3339 32.9672C23.2516 36.1274 20.2448 38.7857 16.8085 40.5146L16.3697 40.7377L15.716 40.4402Z" fill="white"/>
<path d="M54.0564 37.7821C52.2542 37.401 51.0963 36.7225 49.8171 35.2911C48.4911 33.8039 47.9775 32.3725 47.9775 30.1324C47.9869 28.0689 48.4351 26.7677 49.6023 25.4013C50.4707 24.3882 51.1057 23.8677 52.0114 23.4122C53.3654 22.7337 54.0377 22.585 55.7279 22.585C57.4367 22.585 57.9222 22.6965 59.3229 23.375C61.2465 24.3045 62.7498 26.1356 63.3475 28.3013C63.5902 29.1564 63.5809 31.2571 63.3475 32.1494C62.6658 34.6776 60.8169 36.676 58.3985 37.4753C57.4087 37.7914 57.2966 37.81 55.9146 37.8378C55.1209 37.8564 54.2805 37.8286 54.0564 37.7821ZM56.9511 34.8635C58.1743 34.6032 58.9494 33.9991 59.5377 32.8837C60.0139 31.9542 60.154 31.35 60.1446 30.2068C60.1446 28.0968 59.2389 26.526 57.6328 25.8475C57.0818 25.6151 56.8391 25.5686 55.98 25.5314C55.3824 25.5036 54.7941 25.5407 54.5326 25.6058C52.1328 26.2007 50.7975 28.701 51.3858 31.508C51.6566 32.7907 52.4036 33.8875 53.4121 34.4731C54.2152 34.9378 55.7652 35.1144 56.9511 34.8635Z" fill="white"/>
<path d="M70.1085 37.7724C69.0347 37.4749 68.4838 37.1775 67.7834 36.4804C67.1672 35.8669 66.6069 35.0954 66.4201 34.6121C66.3734 34.482 66.6349 34.324 67.7368 33.7942C68.4931 33.4317 69.1281 33.1435 69.1374 33.1621C69.1561 33.1807 69.3335 33.441 69.5389 33.757C69.9778 34.4355 70.3793 34.7515 70.9769 34.9095C71.5185 35.0397 72.3122 34.9746 72.7231 34.7608C73.302 34.4634 73.5448 33.4595 73.1993 32.7717C72.8818 32.1583 72.3122 31.7586 70.5287 30.8942C68.5211 29.9275 67.9609 29.4906 67.4753 28.5054C67.1858 27.9198 67.1672 27.8362 67.1672 26.8602C67.1765 26.0144 67.2138 25.7448 67.3913 25.2987C67.8862 24.0531 68.932 23.1329 70.3326 22.7054C70.8556 22.5474 71.1357 22.5195 71.892 22.5567C72.7231 22.5938 72.8912 22.6403 73.5168 22.947C74.3479 23.356 75.1229 24.0717 75.4684 24.7503C75.5991 25.0105 75.7112 25.2708 75.7112 25.3172C75.7112 25.4009 73.106 26.7672 73.0593 26.7022C73.0406 26.6836 72.9285 26.5163 72.7978 26.3211C72.3029 25.5868 71.5559 25.2801 70.9116 25.5496C70.5381 25.7076 70.2019 26.1817 70.2019 26.5628C70.2019 27.2041 70.7062 27.6595 72.0975 28.273C73.7783 29.0073 75.1696 29.8345 75.7952 30.448C75.9633 30.6246 76.2341 31.0336 76.3928 31.3682C76.645 31.8887 76.6916 32.1025 76.7197 32.874C76.7663 33.9708 76.5609 34.7608 76.01 35.5974C75.3003 36.6849 74.3012 37.3913 73.0032 37.7352C72.4243 37.8932 70.6315 37.9118 70.1085 37.7724Z" fill="white"/>
<path d="M104.098 37.6894C102.501 37.2897 101.512 36.7041 100.307 35.4307C99.8214 34.9288 99.5412 34.5198 99.1677 33.7855C98.5234 32.4935 98.3834 31.9544 98.3367 30.4394C98.2807 28.915 98.4207 28.1807 98.953 27.0374C99.4665 25.9499 100.045 25.1785 100.867 24.4628C101.726 23.7099 102.483 23.2916 103.631 22.9012C104.378 22.6503 104.696 22.5945 105.676 22.5573C107.329 22.4922 108.328 22.6967 109.766 23.3939C110.672 23.8307 111.139 24.2025 112.007 25.1692C113.389 26.7028 113.837 27.9205 113.847 30.207C113.847 31.3967 113.819 31.7128 113.632 32.3913C113.314 33.5439 112.763 34.5291 111.951 35.3842C110.756 36.6576 109.775 37.2339 108.123 37.6522C106.993 37.9403 105.181 37.9589 104.098 37.6894ZM107.17 34.8916C108.001 34.7429 108.505 34.5012 109.14 33.9156C110.112 33.014 110.569 31.8429 110.569 30.2535C110.569 28.1807 109.682 26.6099 108.085 25.8756C107.478 25.5967 107.31 25.5689 106.376 25.5317C104.789 25.4666 103.79 25.8198 102.912 26.7493C102.118 27.5765 101.67 28.8128 101.67 30.1698C101.661 33.5624 103.874 35.4493 107.17 34.8916Z" fill="white"/>
<path d="M10.5987 36.6484C8.5911 34.6592 6.85428 32.2426 5.9952 30.2349C5.81779 29.8166 5.68706 29.4727 5.6964 29.4634C5.71507 29.4448 6.29401 29.64 6.985 29.891C10.6921 31.2387 11.9153 31.815 12.2422 32.3634C12.4569 32.7352 12.4663 33.2557 12.2608 33.7391L12.0927 34.1109L11.9807 33.6647C11.8313 33.0791 11.243 32.475 10.4773 32.1125C9.93573 31.8522 8.395 31.4246 8.31096 31.5083C8.23626 31.5734 10.2532 34.306 11.0282 35.1891L11.4858 35.7096L12.1955 35.3285C13.7362 34.5012 14.8754 32.9769 15.1649 31.3689C15.4917 29.4541 14.8941 27.5487 13.4747 26.0801C12.2702 24.8253 11.187 24.2025 8.83388 23.3939C7.1811 22.8269 6.64885 22.6038 5.91116 22.1762C4.00627 21.098 2.69898 19.5551 2.26945 17.882C2.08269 17.1849 2.08269 15.9394 2.25077 15.1958L2.37216 14.6846L2.44686 15.2887C2.67097 17.3057 3.51137 18.9137 4.94004 20.0849C5.81779 20.8006 6.6862 21.2096 9.086 22.0275C14.5579 23.9051 16.1453 25.1971 17.0324 28.4596C17.3779 29.7423 17.4059 31.5548 17.0884 32.5586C16.4535 34.557 14.7447 36.2673 12.4943 37.1503C11.4204 37.5778 11.5698 37.615 10.5987 36.6484Z" fill="white"/>
<path d="M40.8809 30.2066V22.9102H42.515H44.1491V30.2066V37.5031H42.515H40.8809V30.2066Z" fill="white"/>
<path d="M79.8193 30.2066V22.9102H81.5001H83.1809V30.2066V37.5031H81.5001H79.8193V30.2066Z" fill="white"/>
<path d="M87.6631 30.2068V22.9103H89.3439H91.0247V23.5702V24.2395L91.4449 23.8491C92.0705 23.2728 92.9296 22.7616 93.4618 22.6314C94.2555 22.4363 95.4227 22.5571 96.2538 22.901C96.6367 23.059 97.0102 23.2263 97.0755 23.2728C97.1782 23.3286 97.0382 23.6725 96.4872 24.7786C96.0857 25.5686 95.7496 26.2286 95.7309 26.2472C95.7122 26.2657 95.4321 26.1635 95.1146 26.0148C94.6197 25.7917 94.4049 25.7452 93.7793 25.7452C93.1257 25.7452 92.9669 25.7824 92.528 26.0241C91.9118 26.368 91.5569 26.7863 91.2861 27.5113C91.0714 28.0597 91.0714 28.1526 91.0433 32.7907L91.0153 37.5032H89.3439H87.6631V30.2068Z" fill="white"/>
<path d="M13.2415 30.2996C12.5785 29.6304 11.6541 28.9984 10.4589 28.4035C9.51574 27.9294 7.33071 27.1394 6.33157 26.907C5.07098 26.6096 3.2688 25.6336 2.40972 24.7692C1.76542 24.1371 1.14913 23.1612 0.859659 22.2968C0.644891 21.6833 0.60754 21.3952 0.598203 20.54C0.588865 19.4804 0.700918 18.3836 0.803633 18.4952C0.840984 18.523 0.934361 18.9227 1.0184 19.3689C1.35456 21.0977 2.0082 22.3432 3.24078 23.5702C4.34264 24.6577 4.93091 24.983 6.96654 25.6057C9.37568 26.3493 10.6363 26.9535 11.9716 28.0317C12.9053 28.7753 13.9232 30.2996 13.7831 30.7179C13.7644 30.7737 13.5216 30.5785 13.2415 30.2996Z" fill="white"/>
<path d="M22.1123 29.472C22.1123 29.2024 22.5045 28.3008 22.8126 27.8826C23.5316 26.8694 24.4281 26.1723 26.5477 24.9826C28.2565 24.0252 28.7514 23.6534 30.0774 22.3614L31.1699 21.2832V21.6085C31.1699 22.538 30.6377 23.6162 29.7599 24.4992C29.0783 25.187 28.4806 25.5403 26.7625 26.2931C24.7455 27.1854 23.7091 27.8361 22.7473 28.8399C22.3924 29.1931 22.1123 29.4813 22.1123 29.472Z" fill="white"/>
<path d="M22.4863 26.0517C22.4863 25.7543 22.8879 24.611 23.2147 23.9883C23.5975 23.254 24.5406 22.2501 25.2876 21.7761C25.5678 21.5902 26.3708 21.1533 27.0618 20.7816C28.6212 19.9636 29.9845 18.9598 31.2545 17.6957L32.2256 16.7383L32.1696 17.1287C31.8614 18.9969 30.3207 20.5957 27.4353 22.0271C26.8471 22.3245 26.128 22.7242 25.8292 22.9194C25.2783 23.2912 23.4201 25.0665 22.8225 25.7822C22.6264 26.0239 22.4863 26.1354 22.4863 26.0517Z" fill="white"/>
<path d="M16.7057 25.4757C16.0988 24.6949 14.7354 23.4401 14.2499 23.217C13.867 23.0312 13.783 22.9382 13.4842 22.3247C13.0173 21.3581 12.0275 20.3171 11.2058 19.9174C10.6082 19.6292 10.5241 19.6106 9.49697 19.6106C8.20836 19.6106 8.01227 19.7036 8.01227 20.3356C8.01227 20.6703 7.9936 20.6888 7.85353 20.5773C7.5734 20.3449 7.17188 19.6292 7.17188 19.3504C7.17188 18.4767 8.35777 17.5937 9.91717 17.3241C10.4307 17.2312 10.6829 17.1289 11.047 16.8501C11.7287 16.3295 12.3263 16.1808 13.5215 16.2366C14.7728 16.3017 15.4078 16.5154 17.8449 17.668C19.9833 18.6904 20.0953 18.7369 20.5062 18.8113L20.805 18.867L20.4688 19.3318C19.5537 20.6052 18.7787 22.901 18.6386 24.7693C18.5919 25.3177 18.3772 23.4866 18.3772 22.5664C18.3772 21.6555 18.5546 20.568 18.788 20.0103C18.8721 19.8151 18.9374 19.6385 18.9374 19.6106C18.9374 19.592 18.5452 19.3876 18.0784 19.1645C17.6021 18.9414 16.8364 18.5138 16.3695 18.2257C14.9409 17.3241 13.2041 16.943 12.4477 17.352L12.1676 17.5007L12.6345 17.5658C13.2788 17.6494 14.3339 17.9654 14.418 18.0956C14.4647 18.1699 14.4273 18.1792 14.3152 18.1328C14.2125 18.0956 13.3161 18.0398 12.317 18.0119C10.356 17.9562 9.56234 18.0398 9.2822 18.3465C9.1328 18.5045 9.16081 18.5138 9.7771 18.5789C11.0097 18.6904 12.3917 19.2481 13.4935 20.0661C14.586 20.8933 15.5292 22.0924 16.3042 23.6632C16.687 24.4533 17.2099 25.8754 17.1352 25.9404C17.1166 25.9683 16.9205 25.7546 16.7057 25.4757Z" fill="white"/>
<path d="M5.03316 18.5971L4.43555 18.0022L4.70634 16.8683L4.97714 15.725L6.00429 15.3625C11.3081 13.4663 17.3683 13.1224 23.1857 14.3772C24.3063 14.6189 26.1925 15.1766 26.566 15.3718C26.6314 15.409 26.2765 15.6042 25.7443 15.8365L24.8105 16.2455L24.1195 16.041C23.1764 15.7715 21.9065 15.5205 20.5151 15.3253C18.9651 15.1022 14.9779 15.1022 13.101 15.3253C10.6451 15.6042 6.40581 16.4965 6.24707 16.766C6.20972 16.8218 6.07899 17.3981 5.9576 18.0301C5.83621 18.6715 5.71482 19.192 5.67747 19.192C5.64945 19.192 5.35998 18.9224 5.03316 18.5971Z" fill="white"/>
<path d="M41.6566 18.7185C40.5081 18.1515 40.0692 16.7759 40.6855 15.707C41.1711 14.8704 41.8901 14.5451 42.9826 14.6845C43.5895 14.7589 44.0191 15.0656 44.3739 15.6977C45.4011 17.4637 43.4682 19.6108 41.6566 18.7185Z" fill="white"/>
<path d="M80.7069 18.7456C80.24 18.5318 79.7451 18.0392 79.5771 17.6395C79.409 17.2398 79.409 16.2267 79.5864 15.8177C79.7918 15.3158 80.5015 14.7488 81.0057 14.6744C81.6034 14.5908 82.3037 14.693 82.6772 14.9254C83.3869 15.3622 83.8631 16.459 83.6577 17.2026C83.5176 17.7045 83.0881 18.2901 82.6118 18.6061C82.1076 18.9408 81.2579 19.0058 80.7069 18.7456Z" fill="white"/>
</g>
<defs>
<clipPath id="clip0_6055_77783">
<rect width="115" height="54" fill="white" transform="translate(0.0820312)"/>
</clipPath>
</defs>
</svg>