<svg width="186" height="30" viewBox="0 0 186 30" fill="none" xmlns="http://www.w3.org/2000/svg">
<path d="M15.5056 0L31.4038 9.63748V19.275L15.5056 9.63748V0Z" fill="url(#paint0_linear_2312_81805)"/>
<path d="M15.5056 29.9834L31.4038 20.4433V10.9031L15.5056 20.4433V29.9834Z" fill="url(#paint1_linear_2312_81805)"/>
<path d="M15.5057 0L0 9.63748V19.275L15.5057 9.63748V0Z" fill="url(#paint2_linear_2312_81805)"/>
<path d="M15.5057 29.9834L0 20.4433V10.9031L15.5057 20.4433V29.9834Z" fill="url(#paint3_linear_2312_81805)"/>
<path fill-rule="evenodd" clip-rule="evenodd" d="M50.5149 24.3691H53.1823V15.653H53.1836V13.3663H53.1823V5.3765H50.5149V24.3691ZM56.0114 15.653H56.0103V13.3663H56.0114L60.8073 5.3765H63.7442L58.2207 14.3886V14.4424L64.0944 24.3691H61.0768L56.0114 15.653ZM81.9054 5.3765L78.1872 19.3116C77.9177 20.3608 77.783 21.3292 77.783 21.3292H77.7291C77.7291 21.3292 77.6213 20.3339 77.3789 19.3116L74.0109 5.3765H71.2627L76.1125 24.3691H79.211L82.4981 12.0481C82.8214 10.8375 83.0639 9.35795 83.0639 9.35795H83.1178C83.1178 9.35795 83.3603 10.8375 83.6836 12.0481L86.9708 24.3691H90.0693L95.0538 5.3765H92.3056L88.8029 19.3116C88.5335 20.3339 88.4526 21.3292 88.4526 21.3292H88.3988C88.3988 21.3292 88.264 20.3608 87.9946 19.3116L84.2764 5.3765H81.9054ZM115.672 24.3691H104.167V5.3765H115.214V7.69005H106.835V13.6353H113.651V15.9489H106.835V22.0556H115.672V24.3691ZM125.271 24.3691H127.938V12.0481C127.938 10.9721 127.749 9.27725 127.749 9.27725H127.803C127.803 9.27725 128.692 10.999 129.393 12.0481L137.88 24.3691H140.494V5.3765H137.826V17.7244C137.826 18.7736 138.015 20.4684 138.015 20.4684H137.961C137.961 20.4684 137.072 18.7467 136.371 17.7244L127.911 5.3765H125.271V24.3691ZM158.056 24.3691H155.389V7.69005H148.869V5.3765H164.577V7.69005H158.056V24.3691ZM183.136 24.3691H185.911L179.067 5.3765H176.265L169.421 24.3691H172.17L174.028 18.9892L181.254 18.9986L181.246 18.9761L183.136 24.3691ZM180.522 16.702L178.42 10.6761C178.097 9.70767 177.693 7.98596 177.693 7.98596H177.639C177.639 7.98596 177.208 9.70767 176.885 10.6761L174.756 16.702H180.522Z" fill="white"/>
<defs>
<linearGradient id="paint0_linear_2312_81805" x1="44.9607" y1="9.58374" x2="5.75654" y2="9.58374" gradientUnits="userSpaceOnUse">
<stop stop-color="#996939"/>
<stop offset="1" stop-color="#D0A875"/>
</linearGradient>
<linearGradient id="paint1_linear_2312_81805" x1="23.4547" y1="29.9834" x2="27.3039" y2="-6.5142" gradientUnits="userSpaceOnUse">
<stop stop-color="#272728"/>
<stop offset="1" stop-color="#4B4B4B"/>
</linearGradient>
<linearGradient id="paint2_linear_2312_81805" x1="15.6014" y1="3.95138" x2="0.0137966" y2="16.183" gradientUnits="userSpaceOnUse">
<stop stop-color="#996939"/>
<stop offset="1" stop-color="#D0A875"/>
</linearGradient>
<linearGradient id="paint3_linear_2312_81805" x1="7.75283" y1="29.9834" x2="7.75283" y2="10.9031" gradientUnits="userSpaceOnUse">
<stop stop-color="#363636"/>
<stop offset="1" stop-color="#333232"/>
</linearGradient>
</defs>
</svg>
