<svg width="50" height="50" viewBox="0 0 50 50" fill="none" xmlns="http://www.w3.org/2000/svg">
<path fill-rule="evenodd" clip-rule="evenodd" d="M6.875 28.166C7.37067 28.9388 8.31098 29.7007 10.8731 29.6971H35.7987C36.7645 29.6971 37.8542 30.4079 38.2369 31.2901L42.3699 40.9033C42.7489 41.7855 42.2715 42.5 41.3057 42.5H15.7606C14.2408 42.4052 12.8303 42.0115 12.1779 40.495L6.875 28.166ZM28.309 8.27985L32.4893 18.0133C32.8684 18.8991 32.6315 20.1751 31.9572 20.8677L25.8962 27.2145H12.116C9.93283 27.24 8.63899 26.4125 10.4941 24.3965L26.4065 7.93353C27.0771 7.24089 27.9299 7.394 28.309 8.27985Z" fill="url(#paint0_linear_5709_14612)"/>
<defs>
<linearGradient id="paint0_linear_5709_14612" x1="42.6989" y1="13.9004" x2="14.4999" y2="48.1526" gradientUnits="userSpaceOnUse">
<stop stop-color="#FEF47A"/>
<stop offset="1" stop-color="#07CAA7"/>
</linearGradient>
</defs>
</svg>
