<svg width="277" height="105" viewBox="0 0 277 105" fill="none" xmlns="http://www.w3.org/2000/svg">
<path d="M192.513 67.0847C188.094 72.0688 182.876 72.1875 177.433 70.4668C171.56 68.6037 168.499 64.2128 167.463 58.3268C167.246 56.9649 167.143 55.5876 167.153 54.2089C167.153 48.4296 167.153 42.6622 167.153 36.7761H175.753V38.1764C175.753 43.5997 175.753 49.023 175.753 54.4581C175.753 60.534 180.518 64.1772 186.474 62.765C188.26 62.3739 189.849 61.3634 190.957 59.9137C192.065 58.4641 192.621 56.6694 192.525 54.8497C192.525 49.3196 192.525 43.8014 192.525 38.2358V36.788H201.125V38.3663C201.125 49.2247 201.006 60.0712 201.125 70.9296C201.303 83.5325 191.81 89.6796 180.708 88.3386C173.109 87.4367 167.606 82.4051 166.2 75.451C169.131 75.451 172.025 75.451 174.908 75.451C175.182 75.451 175.527 75.8545 175.706 76.1511C177.957 79.7943 181.816 81.2302 186.259 80.0554C190.202 79.0111 192.417 76.0681 192.489 71.7484C192.537 70.3125 192.513 68.8885 192.513 67.0847Z" fill="white"/>
<path d="M276 72.0569H268.007V66.7523C267.793 66.7523 267.662 66.7523 267.638 66.7523C262.016 74.8932 251.736 73.6471 246.102 69.6123C239.706 65.0316 236.978 56.428 239.384 48.2516C240.471 44.6306 242.673 41.4416 245.678 39.1354C248.683 36.8291 252.34 35.5222 256.132 35.3995C265.887 34.9248 273.642 40.538 275.535 49.5095C275.811 50.7608 275.95 52.0378 275.952 53.3188C276.024 59.5846 276 65.7436 276 72.0569ZM247.043 54.0902C246.99 55.46 247.215 56.8264 247.703 58.108C248.191 59.3896 248.933 60.5603 249.885 61.5502C250.837 62.5402 251.979 63.3292 253.243 63.8704C254.507 64.4115 255.868 64.6936 257.244 64.7C258.62 64.7064 259.983 64.4368 261.252 63.9074C262.521 63.3781 263.671 62.5996 264.632 61.6185C265.592 60.6374 266.345 59.4737 266.846 58.1967C267.346 56.9196 267.583 55.5553 267.543 54.1851C267.596 52.8153 267.371 51.4489 266.883 50.1673C266.395 48.8856 265.653 47.715 264.701 46.725C263.749 45.7351 262.607 44.946 261.343 44.4049C260.079 43.8638 258.718 43.5816 257.342 43.5753C255.966 43.5689 254.603 43.8384 253.334 44.3678C252.065 44.8972 250.916 45.6756 249.955 46.6567C248.994 47.6378 248.241 48.8016 247.74 50.0786C247.24 51.3557 247.003 52.7199 247.043 54.0902Z" fill="white"/>
<path d="M128.787 18.655H137.851V20.3046C137.851 33.8647 137.851 47.4327 137.851 61.0087C137.851 63.8686 138.22 64.2246 141.127 64.2246H163.627V72.7927H152.717C147.464 72.7927 142.211 72.7927 136.958 72.7927C131.705 72.7927 128.727 69.7785 128.715 64.7231C128.715 49.6281 128.715 34.5332 128.715 19.4264C128.715 19.1772 128.763 18.9873 128.787 18.655Z" fill="white"/>
<path d="M210.666 72.6977C210.821 65.4825 210.666 58.2673 211.226 51.1352C211.905 43.0774 217.181 38.0814 225.353 37.0015C228.08 36.6573 230.856 36.6929 233.691 36.5505V45.2966C232.297 45.2966 230.975 45.2966 229.653 45.2966C223.947 45.3915 220.04 48.8567 219.766 54.5766C219.528 59.1929 219.683 63.833 219.659 68.473V72.6977H210.666Z" fill="white"/>
<path fill-rule="evenodd" clip-rule="evenodd" d="M0 61.9979C1.48267 64.3164 4.29538 66.6021 11.9595 66.5912H86.518C89.407 66.5912 92.6667 68.7238 93.8114 71.3704L106.174 100.21C107.308 102.856 105.88 105 102.991 105H26.579C22.0329 104.716 17.8138 103.535 15.8624 98.985L0 61.9979ZM64.1145 2.33956L76.619 31.5399C77.7528 34.1974 77.0442 38.0252 75.0273 40.1031L56.8974 59.1435H15.677C9.14675 59.22 5.27655 56.7374 10.8257 50.6896L58.4236 1.3006C60.4296 -0.777324 62.9807 -0.317994 64.1145 2.33956Z" fill="url(#paint0_linear_469_30376)"/>
<defs>
<linearGradient id="paint0_linear_469_30376" x1="107.158" y1="19.2013" x2="22.5143" y2="121.715" gradientUnits="userSpaceOnUse">
<stop stop-color="#FEF47A"/>
<stop offset="0.526042" stop-color="#7CDE92"/>
<stop offset="1" stop-color="#07CAA7"/>
</linearGradient>
</defs>
</svg>
