<svg width="117" height="25" viewBox="0 0 117 25" fill="none" xmlns="http://www.w3.org/2000/svg">
<g clip-path="url(#clip0_6045_71311)">
<path d="M29.9883 10.4308C29.9883 6.08061 32.5197 4.0918 35.8453 4.0918C37.9785 4.0918 39.7414 5.00004 40.7358 6.73501C41.7302 5.00004 43.4652 4.0918 45.6263 4.0918C48.9518 4.0918 51.4833 6.08061 51.4833 10.4308V18.5049H48.4116V10.4308C48.4116 7.98558 47.133 6.93761 45.3422 6.93761C43.5513 6.93761 42.2984 8.04613 42.2984 10.4308V18.5049H39.229V10.4308C39.229 8.0438 37.8923 6.93761 36.1294 6.93761C34.3665 6.93761 33.06 7.98791 33.06 10.4308V18.5049H29.9883V10.4308Z" fill="white"/>
<path d="M53.7012 11.6167C53.7012 7.15239 56.8288 4.08301 61.2908 4.08301C65.6992 4.08301 68.7686 7.06855 68.7686 11.5888V18.5054H65.9531V15.606C65.0728 17.7671 63.0817 18.8663 60.7505 18.8663C57.22 18.8757 53.7012 16.3466 53.7012 11.6167ZM65.6992 11.4747C65.6992 8.83147 63.9363 6.9265 61.2628 6.9265C58.5894 6.9265 56.7985 8.83147 56.7985 11.4747C56.7985 14.1179 58.5917 16.0415 61.2628 16.0415C63.934 16.0415 65.6992 14.1272 65.6992 11.484V11.4747Z" fill="white"/>
<path d="M70.9844 11.4835C70.9844 7.2194 74.112 4.0918 78.5461 4.0918C82.3281 4.0918 85.1157 6.36472 85.8259 9.63439H82.7263C82.0719 8.00421 80.5651 6.93529 78.5461 6.93529C75.8749 6.93529 74.084 8.84026 74.084 11.4835C74.084 14.1267 75.8749 16.041 78.5461 16.041C80.5651 16.041 82.0719 14.9604 82.7263 13.3395H85.8259C85.1273 16.5999 82.3327 18.8845 78.5461 18.8845C74.112 18.8751 70.9844 15.7475 70.9844 11.4835Z" fill="white"/>
<path d="M88.043 10.2888C88.043 6.10855 90.5162 4.0918 94.1561 4.0918C97.7961 4.0918 100.239 6.10855 100.239 10.347V10.4518H97.1976V10.2888C97.1976 7.87147 95.9749 6.93528 94.1561 6.93528C92.3373 6.93528 91.1124 7.86681 91.1124 10.2888V18.5049H88.043V10.2888Z" fill="white"/>
<path d="M116.86 10.4891C116.86 11.7699 116.809 13.0345 116.331 14.2408C115.346 16.7396 113.486 18.1998 110.882 18.7121C109.659 18.9337 108.412 18.9886 107.175 18.8751C106.123 18.7997 105.09 18.5567 104.114 18.1555C103.617 17.9737 103.172 17.6727 102.819 17.2788C102.465 16.8849 102.214 16.4103 102.086 15.8966C101.909 15.1678 101.792 14.4254 101.739 13.6772C101.679 12.932 101.695 12.1774 101.706 11.4276C101.725 10.0047 102.24 7.93434 103.183 6.92829C104.039 5.77674 105.265 4.95452 106.655 4.59947C107.792 4.32051 108.953 4.15282 110.123 4.09878C111.075 4.05313 112.03 4.06869 112.98 4.14535C114.843 4.30371 115.98 5.25154 116.455 7.04939C116.526 7.28934 116.579 7.53466 116.611 7.78297C116.78 8.67499 116.864 9.58114 116.86 10.4891ZM113.686 11.6162C113.686 9.02656 112.207 7.29159 109.825 6.97487C108.973 6.84479 108.101 6.97003 107.32 7.33477C106.54 7.6995 105.884 8.28739 105.437 9.02423C104.952 9.87113 104.738 10.8466 104.825 11.8188C104.95 13.5072 105.663 14.8463 107.247 15.5729C108.83 16.2995 110.447 16.2179 111.904 15.2026C113.19 14.3106 113.649 12.9879 113.686 11.6162Z" fill="white"/>
<path d="M0.396484 19.0403C0.396484 15.7217 2.8301 13.2881 6.28141 13.2881C9.73272 13.2881 12.1687 15.7217 12.1687 19.0403C12.1687 22.3588 9.73505 24.7948 6.28141 24.7948C2.82777 24.7948 0.396484 22.3588 0.396484 19.0403Z" fill="white"/>
<path d="M12.4409 0.205078C6.31608 0.205078 1.99613 4.52271 1.99613 10.4123C1.99411 11.2619 2.08943 12.1089 2.28024 12.9367C3.49155 12.2227 4.87517 11.8539 6.28115 11.8701C10.5243 11.8701 13.6006 14.8766 13.6006 19.0406C13.6011 19.5564 13.552 20.0711 13.4539 20.5776C19.0268 20.1281 22.8833 15.9712 22.8833 10.4123C22.8833 4.52271 18.561 0.205078 12.4409 0.205078Z" fill="white"/>
</g>
<defs>
<clipPath id="clip0_6045_71311">
<rect width="116.464" height="24.59" fill="white" transform="translate(0.396484 0.205078)"/>
</clipPath>
</defs>
</svg>
