<svg width="132" height="28" viewBox="0 0 132 28" fill="none" xmlns="http://www.w3.org/2000/svg">
<g clip-path="url(#clip0_6045_71311)">
<path d="M34.0176 11.6788C34.0176 6.79785 36.8578 4.56641 40.5891 4.56641C42.9826 4.56641 44.9606 5.58545 46.0763 7.53209C47.192 5.58545 49.1386 4.56641 51.5634 4.56641C55.2947 4.56641 58.135 6.79785 58.135 11.6788V20.7379H54.6885V11.6788C54.6885 8.93524 53.254 7.75941 51.2447 7.75941C49.2353 7.75941 47.8296 9.00317 47.8296 11.6788V20.7379H44.3857V11.6788C44.3857 9.00056 42.8859 7.75941 40.9079 7.75941C38.9299 7.75941 37.464 8.93785 37.464 11.6788V20.7379H34.0176V11.6788Z" fill="white"/>
<path d="M60.6211 13.0085C60.6211 7.99951 64.1303 4.55566 69.1367 4.55566C74.0829 4.55566 77.5268 7.90545 77.5268 12.9772V20.7376H74.3677V17.4845C73.3801 19.9093 71.146 21.1426 68.5305 21.1426C64.5692 21.153 60.6211 18.3154 60.6211 13.0085ZM74.0829 12.8491C74.0829 9.88344 72.1049 7.74606 69.1053 7.74606C66.1056 7.74606 64.0963 9.88344 64.0963 12.8491C64.0963 15.8148 66.1083 17.9731 69.1053 17.9731C72.1023 17.9731 74.0829 15.8253 74.0829 12.8596V12.8491Z" fill="white"/>
<path d="M80.0156 12.8599C80.0156 8.07558 83.5248 4.56641 88.4998 4.56641C92.7432 4.56641 95.8709 7.11663 96.6679 10.7852H93.1901C92.4558 8.95614 90.7652 7.7568 88.4998 7.7568C85.5028 7.7568 83.4935 9.89418 83.4935 12.8599C83.4935 15.8256 85.5028 17.9734 88.4998 17.9734C90.7652 17.9734 92.4558 16.761 93.1901 14.9424H96.6679C95.884 18.6005 92.7485 21.1638 88.4998 21.1638C83.5248 21.1533 80.0156 17.6442 80.0156 12.8599Z" fill="white"/>
<path d="M99.1543 11.5194C99.1543 6.82921 101.929 4.56641 106.013 4.56641C110.097 4.56641 112.838 6.82921 112.838 11.5848V11.7023H109.426V11.5194C109.426 8.8072 108.054 7.7568 106.013 7.7568C103.973 7.7568 102.598 8.80198 102.598 11.5194V20.7379H99.1543V11.5194Z" fill="white"/>
<path d="M131.488 11.7435C131.488 13.1806 131.43 14.5994 130.894 15.9529C129.789 18.7566 127.701 20.3949 124.78 20.9697C123.408 21.2184 122.009 21.2799 120.62 21.1527C119.44 21.068 118.281 20.7954 117.187 20.3453C116.629 20.1412 116.13 19.8035 115.733 19.3616C115.336 18.9197 115.054 18.3871 114.911 17.8107C114.712 16.993 114.582 16.16 114.522 15.3206C114.454 14.4844 114.472 13.6378 114.485 12.7965C114.506 11.2 115.084 8.87708 116.142 7.74829C117.102 6.45625 118.478 5.53371 120.038 5.13535C121.313 4.82236 122.616 4.63421 123.928 4.57357C124.997 4.52236 126.068 4.53982 127.134 4.62583C129.225 4.80351 130.5 5.86697 131.033 7.88416C131.113 8.15339 131.172 8.42863 131.208 8.70724C131.398 9.70808 131.491 10.7248 131.488 11.7435ZM127.926 13.0081C127.926 10.1025 126.267 8.15591 123.594 7.80055C122.638 7.65461 121.66 7.79512 120.784 8.20435C119.908 8.61359 119.173 9.2732 118.671 10.0999C118.127 11.0502 117.887 12.1446 117.984 13.2355C118.125 15.1298 118.925 16.6323 120.701 17.4475C122.478 18.2627 124.292 18.1713 125.927 17.0321C127.37 16.0313 127.884 14.5471 127.926 13.0081Z" fill="white"/>
<path d="M0.814453 21.3387C0.814453 17.6153 3.54497 14.8848 7.41734 14.8848C11.2897 14.8848 14.0228 17.6153 14.0228 21.3387C14.0228 25.0622 11.2923 27.7953 7.41734 27.7953C3.54236 27.7953 0.814453 25.0622 0.814453 21.3387Z" fill="white"/>
<path d="M14.3284 0.205078C7.45641 0.205078 2.60941 5.04946 2.60941 11.6576C2.60715 12.6108 2.7141 13.5611 2.92819 14.49C4.28728 13.6889 5.8397 13.275 7.41721 13.2933C12.178 13.2933 15.6297 16.6666 15.6297 21.3385C15.6302 21.9173 15.5751 22.4948 15.4651 23.063C21.7178 22.5588 26.0448 17.8947 26.0448 11.6576C26.0448 5.04946 21.1952 0.205078 14.3284 0.205078Z" fill="white"/>
</g>
<defs>
<clipPath id="clip0_6045_71311">
<rect width="130.673" height="27.59" fill="white" transform="translate(0.814453 0.205078)"/>
</clipPath>
</defs>
</svg>
