<svg width="132" height="54" viewBox="0 0 132 54" fill="none" xmlns="http://www.w3.org/2000/svg">
<g clip-path="url(#clip0_6045_71799)">
<path d="M33.4971 24.6788C33.4971 19.7979 36.3373 17.5664 40.0686 17.5664C42.4621 17.5664 44.44 18.5855 45.5558 20.5321C46.6715 18.5855 48.6181 17.5664 51.0429 17.5664C54.7742 17.5664 57.6145 19.7979 57.6145 24.6788V33.7379H54.168V24.6788C54.168 21.9352 52.7335 20.7594 50.7242 20.7594C48.7148 20.7594 47.309 22.0032 47.309 24.6788V33.7379H43.8652V24.6788C43.8652 22.0006 42.3654 20.7594 40.3874 20.7594C38.4094 20.7594 36.9435 21.9378 36.9435 24.6788V33.7379H33.4971V24.6788Z" fill="white"/>
<path d="M60.1025 26.0085C60.1025 20.9995 63.6117 17.5557 68.6181 17.5557C73.5644 17.5557 77.0082 20.9054 77.0082 25.9772V33.7376H73.8492V30.4845C72.8615 32.9093 70.6274 34.1426 68.0119 34.1426C64.0507 34.153 60.1025 31.3154 60.1025 26.0085ZM73.5644 25.8491C73.5644 22.8834 71.5864 20.7461 68.5867 20.7461C65.5871 20.7461 63.5777 22.8834 63.5777 25.8491C63.5777 28.8148 65.5897 30.9731 68.5867 30.9731C71.5838 30.9731 73.5644 28.8253 73.5644 25.8596V25.8491Z" fill="white"/>
<path d="M79.4961 25.8599C79.4961 21.0756 83.0053 17.5664 87.9803 17.5664C92.2237 17.5664 95.3514 20.1166 96.1483 23.7852H92.6705C91.9363 21.9561 90.2457 20.7568 87.9803 20.7568C84.9833 20.7568 82.9739 22.8942 82.9739 25.8599C82.9739 28.8256 84.9833 30.9734 87.9803 30.9734C90.2457 30.9734 91.9363 29.761 92.6705 27.9424H96.1483C95.3645 31.6005 92.2289 34.1638 87.9803 34.1638C83.0053 34.1533 79.4961 30.6442 79.4961 25.8599Z" fill="white"/>
<path d="M98.6357 24.5194C98.6357 19.8292 101.411 17.5664 105.495 17.5664C109.579 17.5664 112.32 19.8292 112.32 24.5848V24.7023H108.907V24.5194C108.907 21.8072 107.535 20.7568 105.495 20.7568C103.454 20.7568 102.08 21.802 102.08 24.5194V33.7379H98.6357V24.5194Z" fill="white"/>
<path d="M130.968 24.7435C130.968 26.1806 130.911 27.5994 130.375 28.9529C129.27 31.7566 127.182 33.3949 124.261 33.9697C122.889 34.2184 121.489 34.2799 120.101 34.1527C118.921 34.068 117.762 33.7954 116.667 33.3453C116.11 33.1412 115.61 32.8035 115.214 32.3616C114.817 31.9197 114.535 31.3871 114.392 30.8107C114.192 29.993 114.062 29.16 114.002 28.3206C113.934 27.4844 113.953 26.6378 113.966 25.7965C113.987 24.2 114.564 21.8771 115.622 20.7483C116.583 19.4562 117.958 18.5337 119.518 18.1354C120.794 17.8224 122.097 17.6342 123.409 17.5736C124.477 17.5224 125.548 17.5398 126.615 17.6258C128.705 17.8035 129.98 18.867 130.513 20.8842C130.594 21.1534 130.652 21.4286 130.688 21.7072C130.878 22.7081 130.972 23.7248 130.968 24.7435ZM127.407 26.0081C127.407 23.1025 125.747 21.1559 123.074 20.8005C122.118 20.6546 121.141 20.7951 120.265 21.2044C119.388 21.6136 118.653 22.2732 118.152 23.0999C117.607 24.0502 117.367 25.1446 117.464 26.2355C117.605 28.1298 118.405 29.6323 120.182 30.4475C121.959 31.2627 123.772 31.1713 125.408 30.0321C126.85 29.0313 127.365 27.5471 127.407 26.0081Z" fill="white"/>
<path d="M0.294922 34.3387C0.294922 30.6153 3.02544 27.8848 6.89781 27.8848C10.7702 27.8848 13.5033 30.6153 13.5033 34.3387C13.5033 38.0622 10.7728 40.7953 6.89781 40.7953C3.02283 40.7953 0.294922 38.0622 0.294922 34.3387Z" fill="white"/>
<path d="M13.8089 13.2051C6.93688 13.2051 2.08988 18.0495 2.08988 24.6576C2.08761 25.6108 2.19457 26.5611 2.40866 27.49C3.76775 26.6889 5.32017 26.275 6.89768 26.2933C11.6585 26.2933 15.1101 29.6666 15.1101 34.3385C15.1107 34.9173 15.0556 35.4948 14.9455 36.063C21.1983 35.5588 25.5253 30.8947 25.5253 24.6576C25.5253 18.0495 20.6757 13.2051 13.8089 13.2051Z" fill="white"/>
</g>
<defs>
<clipPath id="clip0_6045_71799">
<rect width="131" height="54" fill="white" transform="translate(0.387695)"/>
</clipPath>
</defs>
</svg>