<svg width="122" height="17" viewBox="0 0 122 17" fill="none" xmlns="http://www.w3.org/2000/svg">
<g clip-path="url(#clip0_6045_71319)">
<path d="M6.73873 16.5C4.9521 16.5 3.48827 16.0852 2.34724 15.2555C1.22121 14.4111 0.658203 13.2111 0.658203 11.6555C0.658203 11.3296 0.695737 10.9296 0.770806 10.4555C0.965982 9.38888 1.24374 8.10741 1.60406 6.61111C2.62499 2.53704 5.25988 0.5 9.50875 0.5C10.6648 0.5 11.7007 0.692593 12.6166 1.07778C13.5324 1.44815 14.253 2.01111 14.7785 2.76666C15.304 3.50741 15.5667 4.3963 15.5667 5.43334C15.5667 5.74445 15.5292 6.13704 15.4542 6.61111C15.2289 7.92963 14.9587 9.21112 14.6434 10.4555C14.1179 12.4852 13.2096 14.0037 11.9185 15.0111C10.6272 16.0037 8.9007 16.5 6.73873 16.5ZM7.05401 13.3C7.89478 13.3 8.60792 13.0555 9.19349 12.5666C9.79399 12.0778 10.2219 11.3296 10.4771 10.3222C10.8225 8.9296 11.0851 7.71482 11.2654 6.67778C11.3254 6.36666 11.3554 6.04814 11.3554 5.72222C11.3554 4.37407 10.6422 3.7 9.21597 3.7C8.37521 3.7 7.65455 3.94445 7.05401 4.43334C6.46848 4.92222 6.0481 5.67037 5.79287 6.67778C5.52262 7.67037 5.25238 8.8852 4.98213 10.3222C4.92207 10.6185 4.89205 10.9296 4.89205 11.2555C4.89205 12.6185 5.6127 13.3 7.05401 13.3Z" fill="white"/>
<path d="M17.852 16.2782C17.6868 16.2782 17.5592 16.2264 17.4691 16.1227C17.3941 16.0041 17.3715 15.8708 17.4015 15.7227L20.5094 1.27821C20.5394 1.11525 20.622 0.981915 20.7571 0.878212C20.8922 0.774508 21.0349 0.722656 21.185 0.722656H27.1754C28.8419 0.722656 30.1781 1.0634 31.184 1.74488C32.205 2.42636 32.7155 3.41155 32.7155 4.70043C32.7155 5.0708 32.6704 5.45599 32.5804 5.85599C32.205 7.55969 31.4468 8.81891 30.3058 9.63379C29.1798 10.4486 27.6333 10.856 25.6665 10.856H22.6263L21.5903 15.7227C21.5603 15.8856 21.4777 16.0189 21.3426 16.1227C21.2075 16.2264 21.0649 16.2782 20.9147 16.2782H17.852ZM25.8242 7.78932C26.4548 7.78932 27.0028 7.61895 27.4682 7.27821C27.9486 6.93747 28.2639 6.44858 28.414 5.81155C28.4591 5.55969 28.4816 5.33747 28.4816 5.14487C28.4816 4.71525 28.354 4.38932 28.0988 4.1671C27.8436 3.93007 27.4081 3.81155 26.7926 3.81155H24.0901L23.2343 7.78932H25.8242Z" fill="white"/>
<path d="M37.7888 16.2782C37.6237 16.2782 37.496 16.2264 37.406 16.1227C37.3159 16.0041 37.2859 15.8708 37.3159 15.7227L39.8157 4.21155H35.807C35.6419 4.21155 35.5142 4.15969 35.4241 4.05599C35.3491 3.93747 35.3266 3.80414 35.3566 3.65599L35.8746 1.27821C35.9046 1.11525 35.9871 0.981915 36.1223 0.878212C36.2574 0.774508 36.4 0.722656 36.5502 0.722656H48.6662C48.8313 0.722656 48.9589 0.774508 49.0491 0.878212C49.1091 0.967101 49.1391 1.05599 49.1391 1.14488C49.1391 1.18932 49.1316 1.23377 49.1166 1.27821L48.5986 3.65599C48.5686 3.81895 48.4861 3.95229 48.3509 4.05599C48.2308 4.15969 48.0882 4.21155 47.923 4.21155H43.9369L41.4371 15.7227C41.4071 15.8856 41.3245 16.0189 41.1894 16.1227C41.0542 16.2264 40.9116 16.2782 40.7615 16.2782H37.7888Z" fill="white"/>
<path d="M49.7147 16.2782C49.5495 16.2782 49.422 16.2264 49.3319 16.1227C49.2417 16.0041 49.2117 15.8708 49.2417 15.7227L52.3721 1.27821C52.4021 1.11525 52.4847 0.981915 52.6199 0.878212C52.755 0.774508 52.8975 0.722656 53.0477 0.722656H56.088C56.2531 0.722656 56.3808 0.774508 56.4708 0.878212C56.5309 0.967101 56.5609 1.05599 56.5609 1.14488C56.5609 1.18932 56.5534 1.23377 56.5384 1.27821L53.4305 15.7227C53.4005 15.8856 53.318 16.0189 53.1829 16.1227C53.0477 16.2264 52.9051 16.2782 52.755 16.2782H49.7147Z" fill="white"/>
<path d="M58.2889 16.2782C58.1237 16.2782 57.9961 16.2264 57.906 16.1227C57.816 16.0189 57.7859 15.8856 57.8159 15.7227L60.9238 1.27821C60.9538 1.11525 61.0363 0.981915 61.1714 0.878212C61.3066 0.774508 61.4568 0.722656 61.6219 0.722656H64.0541C64.4145 0.722656 64.6471 0.885619 64.7522 1.21155L67.2069 8.21155L72.6794 1.21155C72.7545 1.09303 72.8596 0.981915 72.9947 0.878212C73.1448 0.774508 73.3251 0.722656 73.5352 0.722656H75.99C76.1551 0.722656 76.2827 0.774508 76.3728 0.878212C76.4328 0.967101 76.4629 1.05599 76.4629 1.14488C76.4629 1.18932 76.4554 1.23377 76.4404 1.27821L73.3325 15.7227C73.3025 15.8856 73.2199 16.0189 73.0848 16.1227C72.9497 16.2264 72.8071 16.2782 72.6569 16.2782H69.9319C69.7668 16.2782 69.6392 16.2264 69.5491 16.1227C69.474 16.0041 69.4515 15.8708 69.4815 15.7227L71.2382 7.52266L67.7925 12.0338C67.6424 12.1968 67.4997 12.3227 67.3646 12.4116C67.2295 12.5004 67.0718 12.5449 66.8917 12.5449H65.7206C65.4054 12.5449 65.1876 12.3745 65.0675 12.0338L63.4686 7.32266L61.6669 15.7227C61.6369 15.8856 61.5543 16.0189 61.4192 16.1227C61.2841 16.2264 61.1414 16.2782 60.9913 16.2782H58.2889Z" fill="white"/>
<path d="M78.1678 16.2782C78.0026 16.2782 77.875 16.2264 77.7849 16.1227C77.6949 16.0041 77.6648 15.8708 77.6949 15.7227L80.8252 1.27821C80.8552 1.11525 80.9378 0.981915 81.0728 0.878212C81.2077 0.774508 81.3506 0.722656 81.5007 0.722656H84.541C84.7063 0.722656 84.834 0.774508 84.9239 0.878212C84.9841 0.967101 85.0138 1.05599 85.0138 1.14488C85.0138 1.18932 85.0066 1.23377 84.9913 1.27821L81.8837 15.7227C81.854 15.8856 81.7713 16.0189 81.6356 16.1227C81.5007 16.2264 81.3578 16.2782 81.2077 16.2782H78.1678Z" fill="white"/>
<path d="M92.306 16.5C90.9846 16.5 89.851 16.3222 88.9053 15.9666C87.974 15.6111 87.2684 15.137 86.7883 14.5445C86.3227 13.9518 86.0898 13.2926 86.0898 12.5666C86.0898 12.4482 86.1051 12.2704 86.1348 12.0334C86.1653 11.9 86.2255 11.7889 86.3154 11.7C86.4206 11.6111 86.5402 11.5666 86.6759 11.5666H89.558C89.7386 11.5666 89.8735 11.5963 89.9634 11.6555C90.0686 11.7148 90.1737 11.8185 90.2789 11.9666C90.3841 12.3518 90.6241 12.6704 90.9998 12.9222C91.39 13.1741 91.923 13.3 92.5982 13.3C93.454 13.3 94.1452 13.1666 94.6702 12.9C95.1961 12.6334 95.5116 12.2704 95.616 11.8111C95.6312 11.7518 95.6384 11.663 95.6384 11.5445C95.6384 11.1741 95.4064 10.8852 94.9408 10.6778C94.4752 10.4555 93.6194 10.1963 92.3734 9.9C90.9171 9.58888 89.8133 9.12224 89.0626 8.5C88.312 7.86296 87.9371 7.03334 87.9371 6.01111C87.9371 5.65555 87.9821 5.29259 88.072 4.92222C88.3722 3.54445 89.1156 2.46296 90.3014 1.67778C91.5024 0.892593 93.0486 0.5 94.9408 0.5C96.0816 0.5 97.0955 0.7 97.981 1.1C98.8665 1.5 99.5497 2.01111 100.031 2.63334C100.526 3.24074 100.773 3.84815 100.773 4.45556C100.773 4.63334 100.766 4.75926 100.751 4.83334C100.721 4.96666 100.654 5.07778 100.548 5.16666C100.458 5.25556 100.345 5.3 100.21 5.3H97.1927C96.8627 5.3 96.6371 5.17407 96.5175 4.92222C96.5023 4.58148 96.3216 4.29259 95.9764 4.05556C95.6312 3.81852 95.1808 3.7 94.6253 3.7C93.9646 3.7 93.4171 3.81852 92.9811 4.05556C92.5613 4.29259 92.2979 4.64074 92.1936 5.1C92.1783 5.17407 92.1703 5.27037 92.1703 5.38889C92.1703 5.74445 92.3806 6.04074 92.8013 6.27778C93.2364 6.5 93.9951 6.72963 95.0757 6.96666C96.7575 7.29259 97.981 7.75926 98.7469 8.36666C99.5272 8.97408 99.9174 9.78152 99.9174 10.7889C99.9174 11.1296 99.8724 11.5 99.7825 11.9C99.4526 13.4111 98.649 14.5593 97.3725 15.3445C96.1121 16.1148 94.423 16.5 92.306 16.5Z" fill="white"/>
<path d="M102.906 16.2782C102.741 16.2782 102.613 16.2264 102.523 16.1227C102.433 16.0189 102.403 15.8856 102.433 15.7227L105.541 1.27821C105.571 1.11525 105.653 0.981915 105.789 0.878212C105.924 0.774508 106.074 0.722656 106.239 0.722656H108.671C109.032 0.722656 109.264 0.885619 109.37 1.21155L111.825 8.21155L117.297 1.21155C117.372 1.09303 117.477 0.981915 117.612 0.878212C117.762 0.774508 117.942 0.722656 118.152 0.722656H120.607C120.773 0.722656 120.9 0.774508 120.99 0.878212C121.05 0.967101 121.08 1.05599 121.08 1.14488C121.08 1.18932 121.073 1.23377 121.058 1.27821L117.95 15.7227C117.919 15.8856 117.837 16.0189 117.702 16.1227C117.567 16.2264 117.424 16.2782 117.274 16.2782H114.549C114.384 16.2782 114.256 16.2264 114.166 16.1227C114.091 16.0041 114.068 15.8708 114.099 15.7227L115.855 7.52266L112.41 12.0338C112.26 12.1968 112.117 12.3227 111.982 12.4116C111.847 12.5004 111.689 12.5449 111.509 12.5449H110.338C110.022 12.5449 109.805 12.3745 109.685 12.0338L108.086 7.32266L106.284 15.7227C106.254 15.8856 106.171 16.0189 106.036 16.1227C105.901 16.2264 105.759 16.2782 105.608 16.2782H102.906Z" fill="white"/>
</g>
<defs>
<clipPath id="clip0_6045_71319">
<rect width="120.421" height="16" fill="white" transform="translate(0.658203 0.5)"/>
</clipPath>
</defs>
</svg>
