<svg width="144" height="54" viewBox="0 0 144 54" fill="none" xmlns="http://www.w3.org/2000/svg">
<g clip-path="url(#clip0_6261_73202)">
<path d="M7.75187 36.5C5.63026 36.5 3.89196 36.0074 2.53698 35.0222C1.19983 34.0195 0.53125 32.5945 0.53125 30.7472C0.53125 30.3601 0.575822 29.8851 0.664965 29.3222C0.896738 28.0555 1.22657 26.5338 1.65446 24.7569C2.86681 19.919 5.99575 17.5 11.0413 17.5C12.4141 17.5 13.6443 17.7287 14.7318 18.1861C15.8194 18.6259 16.6751 19.2944 17.2991 20.1917C17.9231 21.0713 18.2351 22.1269 18.2351 23.3583C18.2351 23.7278 18.1906 24.194 18.1015 24.7569C17.834 26.3227 17.5131 27.8445 17.1387 29.3222C16.5146 31.7324 15.436 33.5356 13.9028 34.732C12.3695 35.9106 10.3192 36.5 7.75187 36.5ZM8.12628 32.7C9.12468 32.7 9.97154 32.4097 10.6669 31.8291C11.38 31.2486 11.8881 30.3601 12.1912 29.1639C12.6013 27.5101 12.9132 26.0676 13.1273 24.8361C13.1986 24.4667 13.2342 24.0884 13.2342 23.7014C13.2342 22.1005 12.3873 21.3 10.6936 21.3C9.6952 21.3 8.83942 21.5903 8.12628 22.1708C7.43095 22.7514 6.93175 23.6398 6.62867 24.8361C6.30775 26.0148 5.98683 27.4574 5.66591 29.1639C5.59459 29.5157 5.55894 29.8851 5.55894 30.2722C5.55894 31.8907 6.41472 32.7 8.12628 32.7Z" fill="white"/>
<path d="M20.9486 36.2359C20.7524 36.2359 20.6009 36.1743 20.494 36.0512C20.4048 35.9104 20.3781 35.7521 20.4137 35.5762L24.1043 18.4234C24.1399 18.2299 24.238 18.0715 24.3985 17.9484C24.5589 17.8252 24.7283 17.7637 24.9066 17.7637H32.0202C33.9992 17.7637 35.5859 18.1683 36.7804 18.9776C37.9928 19.7868 38.599 20.9567 38.599 22.4873C38.599 22.9271 38.5455 23.3845 38.4386 23.8595C37.9928 25.8826 37.0925 27.378 35.7375 28.3456C34.4003 29.3132 32.5639 29.797 30.2284 29.797H26.6181L25.3879 35.5762C25.3523 35.7697 25.2542 35.928 25.0937 36.0512C24.9333 36.1743 24.764 36.2359 24.5856 36.2359H20.9486ZM30.4156 26.1553C31.1645 26.1553 31.8152 25.953 32.3678 25.5484C32.9384 25.1438 33.3128 24.5632 33.4911 23.8067C33.5445 23.5076 33.5713 23.2438 33.5713 23.0151C33.5713 22.5049 33.4198 22.1178 33.1167 21.8539C32.8136 21.5725 32.2965 21.4317 31.5656 21.4317H28.3564L27.3402 26.1553H30.4156Z" fill="white"/>
<path d="M44.6252 36.2359C44.4291 36.2359 44.2775 36.1743 44.1705 36.0512C44.0636 35.9104 44.0279 35.7521 44.0636 35.5762L47.0321 21.9067H42.2718C42.0757 21.9067 41.9241 21.8451 41.8171 21.722C41.728 21.5813 41.7013 21.4229 41.737 21.247L42.3521 18.4234C42.3877 18.2299 42.4857 18.0715 42.6462 17.9484C42.8066 17.8252 42.976 17.7637 43.1543 17.7637H57.5421C57.7382 17.7637 57.8897 17.8252 57.9967 17.9484C58.068 18.054 58.1037 18.1595 58.1037 18.2651C58.1037 18.3178 58.0947 18.3706 58.0769 18.4234L57.4618 21.247C57.4262 21.4405 57.3282 21.5989 57.1676 21.722C57.025 21.8451 56.8557 21.9067 56.6596 21.9067H51.926L48.9575 35.5762C48.9219 35.7697 48.8239 35.928 48.6634 36.0512C48.5029 36.1743 48.3336 36.2359 48.1553 36.2359H44.6252Z" fill="white"/>
<path d="M58.7849 36.2359C58.5888 36.2359 58.4374 36.1743 58.3304 36.0512C58.2233 35.9104 58.1877 35.7521 58.2233 35.5762L61.9407 18.4234C61.9763 18.2299 62.0744 18.0715 62.2349 17.9484C62.3953 17.8252 62.5646 17.7637 62.743 17.7637H66.3533C66.5494 17.7637 66.7009 17.8252 66.8079 17.9484C66.8792 18.054 66.9149 18.1595 66.9149 18.2651C66.9149 18.3178 66.9059 18.3706 66.8881 18.4234L63.1975 35.5762C63.1619 35.7697 63.0639 35.928 62.9034 36.0512C62.743 36.1743 62.5736 36.2359 62.3953 36.2359H58.7849Z" fill="white"/>
<path d="M68.9685 36.2359C68.7724 36.2359 68.6209 36.1743 68.5139 36.0512C68.4069 35.928 68.3713 35.7697 68.4069 35.5762L72.0975 18.4234C72.1331 18.2299 72.2311 18.0715 72.3916 17.9484C72.5521 17.8252 72.7304 17.7637 72.9265 17.7637H75.8147C76.2427 17.7637 76.5189 17.9572 76.6437 18.3442L79.5587 26.6567L86.0573 18.3442C86.1465 18.2035 86.2713 18.0715 86.4317 17.9484C86.61 17.8252 86.824 17.7637 87.0736 17.7637H89.9886C90.1847 17.7637 90.3362 17.8252 90.4431 17.9484C90.5144 18.054 90.5502 18.1595 90.5502 18.2651C90.5502 18.3178 90.5412 18.3706 90.5234 18.4234L86.8329 35.5762C86.7972 35.7697 86.6991 35.928 86.5387 36.0512C86.3782 36.1743 86.2089 36.2359 86.0305 36.2359H82.7946C82.5985 36.2359 82.4471 36.1743 82.34 36.0512C82.2509 35.9104 82.2242 35.7521 82.2598 35.5762L84.3458 25.8387L80.2541 31.1956C80.0758 31.3892 79.9064 31.5387 79.746 31.6442C79.5855 31.7498 79.3983 31.8026 79.1844 31.8026H77.7937C77.4194 31.8026 77.1608 31.6003 77.0182 31.1956L75.1194 25.6012L72.98 35.5762C72.9443 35.7697 72.8462 35.928 72.6858 36.0512C72.5253 36.1743 72.3559 36.2359 72.1777 36.2359H68.9685Z" fill="white"/>
<path d="M92.574 36.2359C92.3778 36.2359 92.2263 36.1743 92.1194 36.0512C92.0124 35.9104 91.9767 35.7521 92.0124 35.5762L95.7296 18.4234C95.7653 18.2299 95.8634 18.0715 96.0237 17.9484C96.1839 17.8252 96.3536 17.7637 96.5319 17.7637H100.142C100.339 17.7637 100.49 17.8252 100.597 17.9484C100.668 18.054 100.704 18.1595 100.704 18.2651C100.704 18.3178 100.695 18.3706 100.677 18.4234L96.9866 35.5762C96.9513 35.7697 96.8531 35.928 96.692 36.0512C96.5319 36.1743 96.3622 36.2359 96.1839 36.2359H92.574Z" fill="white"/>
<path d="M109.363 36.5C107.794 36.5 106.448 36.2889 105.325 35.8666C104.219 35.4445 103.381 34.8815 102.811 34.1778C102.258 33.4741 101.981 32.6912 101.981 31.8291C101.981 31.6884 102 31.4774 102.035 31.1959C102.071 31.0375 102.143 30.9055 102.249 30.8C102.374 30.6945 102.516 30.6416 102.677 30.6416H106.1C106.314 30.6416 106.475 30.6769 106.581 30.7472C106.706 30.8176 106.831 30.9407 106.956 31.1166C107.081 31.5741 107.366 31.9523 107.812 32.2514C108.275 32.5505 108.908 32.7 109.71 32.7C110.726 32.7 111.547 32.5416 112.171 32.225C112.795 31.9084 113.17 31.4773 113.294 30.932C113.312 30.8616 113.32 30.756 113.32 30.6153C113.32 30.1755 113.045 29.8324 112.492 29.5861C111.939 29.3222 110.923 29.0144 109.443 28.6625C107.714 28.293 106.403 27.7389 105.512 27C104.62 26.2435 104.175 25.2583 104.175 24.0444C104.175 23.6222 104.228 23.1912 104.335 22.7514C104.692 21.1153 105.575 19.831 106.983 18.8986C108.409 17.9662 110.245 17.5 112.492 17.5C113.847 17.5 115.051 17.7375 116.102 18.2125C117.154 18.6875 117.965 19.2944 118.536 20.0333C119.124 20.7546 119.418 21.4759 119.418 22.1972C119.418 22.4083 119.409 22.5579 119.391 22.6458C119.356 22.8042 119.276 22.9361 119.151 23.0417C119.044 23.1472 118.91 23.2 118.75 23.2H115.166C114.774 23.2 114.506 23.0505 114.364 22.7514C114.346 22.3468 114.132 22.0037 113.722 21.7222C113.312 21.4407 112.777 21.3 112.117 21.3C111.333 21.3 110.683 21.4407 110.165 21.7222C109.666 22.0037 109.354 22.4171 109.23 22.9625C109.212 23.0505 109.202 23.1648 109.202 23.3056C109.202 23.7278 109.452 24.0796 109.951 24.3611C110.468 24.625 111.369 24.8977 112.652 25.1792C114.649 25.5662 116.102 26.1204 117.012 26.8417C117.938 27.563 118.402 28.5218 118.402 29.718C118.402 30.1227 118.348 30.5625 118.241 31.0375C117.85 32.832 116.895 34.1954 115.38 35.1278C113.883 36.0426 111.877 36.5 109.363 36.5Z" fill="white"/>
<path d="M121.95 36.2359C121.754 36.2359 121.602 36.1743 121.495 36.0512C121.389 35.928 121.352 35.7697 121.389 35.5762L125.079 18.4234C125.114 18.2299 125.212 18.0715 125.374 17.9484C125.534 17.8252 125.712 17.7637 125.908 17.7637H128.796C129.224 17.7637 129.501 17.9572 129.625 18.3442L132.541 26.6567L139.039 18.3442C139.128 18.2035 139.253 18.0715 139.413 17.9484C139.592 17.8252 139.805 17.7637 140.055 17.7637H142.97C143.167 17.7637 143.318 17.8252 143.425 17.9484C143.496 18.054 143.532 18.1595 143.532 18.2651C143.532 18.3178 143.523 18.3706 143.505 18.4234L139.815 35.5762C139.778 35.7697 139.68 35.928 139.52 36.0512C139.36 36.1743 139.19 36.2359 139.012 36.2359H135.776C135.58 36.2359 135.428 36.1743 135.322 36.0512C135.232 35.9104 135.205 35.7521 135.241 35.5762L137.327 25.8387L133.236 31.1956C133.057 31.3892 132.888 31.5387 132.728 31.6442C132.567 31.7498 132.38 31.8026 132.166 31.8026H130.775C130.4 31.8026 130.142 31.6003 130 31.1956L128.101 25.6012L125.962 35.5762C125.926 35.7697 125.827 35.928 125.667 36.0512C125.507 36.1743 125.337 36.2359 125.159 36.2359H121.95Z" fill="white"/>
</g>
<defs>
<clipPath id="clip0_6261_73202">
<rect width="143" height="19" fill="white" transform="translate(0.53125 17.5)"/>
</clipPath>
</defs>
</svg>