<svg width="144" height="20" viewBox="0 0 144 20" fill="none" xmlns="http://www.w3.org/2000/svg">
<g clip-path="url(#clip0_6045_71319)">
<path d="M7.46476 19.5C5.34315 19.5 3.60485 19.0074 2.24987 18.0222C0.912716 17.0195 0.244141 15.5945 0.244141 13.7472C0.244141 13.3601 0.288712 12.8851 0.377856 12.3222C0.609629 11.0555 0.93946 9.5338 1.36735 7.75695C2.5797 2.91898 5.70864 0.5 10.7542 0.5C12.127 0.5 13.3571 0.728704 14.4447 1.18611C15.5323 1.62593 16.388 2.29445 17.012 3.19166C17.636 4.0713 17.948 5.12685 17.948 6.35834C17.948 6.72778 17.9035 7.19398 17.8144 7.75695C17.5469 9.32269 17.226 10.8445 16.8516 12.3222C16.2275 14.7324 15.1489 16.5356 13.6157 17.732C12.0823 18.9106 10.0321 19.5 7.46476 19.5ZM7.83917 15.7C8.83757 15.7 9.68443 15.4097 10.3798 14.8291C11.0929 14.2486 11.601 13.3601 11.9041 12.1639C12.3142 10.5101 12.6261 9.06759 12.8402 7.83611C12.9115 7.46666 12.9471 7.08842 12.9471 6.70139C12.9471 5.10046 12.1002 4.3 10.4065 4.3C9.40809 4.3 8.55231 4.59028 7.83917 5.17084C7.14384 5.75139 6.64464 6.63981 6.34156 7.83611C6.02064 9.01481 5.69972 10.4574 5.3788 12.1639C5.30749 12.5157 5.27183 12.8851 5.27183 13.2722C5.27183 14.8907 6.12761 15.7 7.83917 15.7Z" fill="white"/>
<path d="M20.6615 19.2359C20.4653 19.2359 20.3138 19.1743 20.2069 19.0512C20.1177 18.9104 20.0909 18.7521 20.1266 18.5762L23.8171 1.42339C23.8528 1.22987 23.9509 1.07154 24.1113 0.948395C24.2718 0.825246 24.4412 0.763672 24.6195 0.763672H31.7331C33.7121 0.763672 35.2988 1.1683 36.4933 1.97756C37.7057 2.78682 38.3119 3.95673 38.3119 5.48728C38.3119 5.92709 38.2584 6.3845 38.1515 6.8595C37.7057 8.88265 36.8054 10.378 35.4504 11.3456C34.1132 12.3132 32.2768 12.797 29.9413 12.797H26.331L25.1008 18.5762C25.0652 18.7697 24.9671 18.928 24.8066 19.0512C24.6462 19.1743 24.4769 19.2359 24.2985 19.2359H20.6615ZM30.1285 9.15534C30.8773 9.15534 31.5281 8.95303 32.0807 8.54839C32.6513 8.14377 33.0257 7.5632 33.204 6.80673C33.2574 6.50765 33.2842 6.24377 33.2842 6.01506C33.2842 5.50488 33.1326 5.11784 32.8296 4.85395C32.5265 4.57247 32.0094 4.43173 31.2785 4.43173H28.0693L27.053 9.15534H30.1285Z" fill="white"/>
<path d="M44.3371 19.2359C44.141 19.2359 43.9894 19.1743 43.8825 19.0512C43.7755 18.9104 43.7398 18.7521 43.7755 18.5762L46.744 4.90673H41.9837C41.7876 4.90673 41.636 4.84515 41.5291 4.72201C41.4399 4.58127 41.4132 4.42293 41.4489 4.247L42.064 1.42339C42.0996 1.22987 42.1976 1.07154 42.3581 0.948395C42.5185 0.825246 42.6879 0.763672 42.8662 0.763672H57.254C57.4501 0.763672 57.6016 0.825246 57.7086 0.948395C57.78 1.05395 57.8156 1.1595 57.8156 1.26506C57.8156 1.31784 57.8066 1.37062 57.7888 1.42339L57.1737 4.247C57.1381 4.44053 57.0401 4.59886 56.8795 4.72201C56.7369 4.84515 56.5676 4.90673 56.3715 4.90673H51.6379L48.6694 18.5762C48.6338 18.7697 48.5358 18.928 48.3753 19.0512C48.2148 19.1743 48.0455 19.2359 47.8672 19.2359H44.3371Z" fill="white"/>
<path d="M58.4988 19.2359C58.3027 19.2359 58.1512 19.1743 58.0443 19.0512C57.9372 18.9104 57.9015 18.7521 57.9372 18.5762L61.6545 1.42339C61.6902 1.22987 61.7883 1.07154 61.9487 0.948395C62.1092 0.825246 62.2785 0.763672 62.4568 0.763672H66.0671C66.2632 0.763672 66.4148 0.825246 66.5218 0.948395C66.5931 1.05395 66.6287 1.1595 66.6287 1.26506C66.6287 1.31784 66.6198 1.37062 66.6019 1.42339L62.9114 18.5762C62.8757 18.7697 62.7777 18.928 62.6173 19.0512C62.4568 19.1743 62.2874 19.2359 62.1092 19.2359H58.4988Z" fill="white"/>
<path d="M68.6805 19.2359C68.4843 19.2359 68.3328 19.1743 68.2258 19.0512C68.1188 18.928 68.0832 18.7697 68.1188 18.5762L71.8094 1.42339C71.845 1.22987 71.943 1.07154 72.1035 0.948395C72.264 0.825246 72.4423 0.763672 72.6384 0.763672H75.5266C75.9546 0.763672 76.2309 0.95719 76.3556 1.34423L79.2706 9.65673L85.7692 1.34423C85.8584 1.20349 85.9832 1.07154 86.1436 0.948395C86.3219 0.825246 86.5359 0.763672 86.7855 0.763672H89.7005C89.8966 0.763672 90.0481 0.825246 90.1551 0.948395C90.2264 1.05395 90.2621 1.1595 90.2621 1.26506C90.2621 1.31784 90.2531 1.37062 90.2353 1.42339L86.5448 18.5762C86.5091 18.7697 86.411 18.928 86.2506 19.0512C86.0901 19.1743 85.9208 19.2359 85.7425 19.2359H82.5065C82.3104 19.2359 82.159 19.1743 82.0519 19.0512C81.9628 18.9104 81.9361 18.7521 81.9717 18.5762L84.0577 8.83867L79.966 14.1956C79.7877 14.3892 79.6183 14.5387 79.4579 14.6442C79.2974 14.7498 79.1102 14.8026 78.8963 14.8026H77.5057C77.1313 14.8026 76.8727 14.6003 76.7301 14.1956L74.8314 8.60117L72.6919 18.5762C72.6562 18.7697 72.5581 18.928 72.3977 19.0512C72.2372 19.1743 72.0678 19.2359 71.8896 19.2359H68.6805Z" fill="white"/>
<path d="M92.2879 19.2359C92.0917 19.2359 91.9402 19.1743 91.8332 19.0512C91.7263 18.9104 91.6906 18.7521 91.7263 18.5762L95.4435 1.42339C95.4792 1.22987 95.5773 1.07154 95.7376 0.948395C95.8978 0.825246 96.0675 0.763672 96.2457 0.763672H99.856C100.052 0.763672 100.204 0.825246 100.311 0.948395C100.382 1.05395 100.418 1.1595 100.418 1.26506C100.418 1.31784 100.409 1.37062 100.391 1.42339L96.7005 18.5762C96.6652 18.7697 96.567 18.928 96.4059 19.0512C96.2457 19.1743 96.076 19.2359 95.8978 19.2359H92.2879Z" fill="white"/>
<path d="M109.075 19.5C107.506 19.5 106.16 19.2889 105.037 18.8666C103.931 18.4445 103.093 17.8815 102.523 17.1778C101.97 16.4741 101.693 15.6912 101.693 14.8291C101.693 14.6884 101.711 14.4774 101.747 14.1959C101.783 14.0375 101.854 13.9055 101.961 13.8C102.086 13.6945 102.228 13.6416 102.389 13.6416H105.812C106.026 13.6416 106.186 13.6769 106.293 13.7472C106.418 13.8176 106.543 13.9407 106.668 14.1166C106.793 14.5741 107.078 14.9523 107.524 15.2514C107.987 15.5505 108.62 15.7 109.422 15.7C110.438 15.7 111.259 15.5416 111.883 15.225C112.507 14.9084 112.882 14.4773 113.006 13.932C113.024 13.8616 113.032 13.756 113.032 13.6153C113.032 13.1755 112.757 12.8324 112.204 12.5861C111.651 12.3222 110.635 12.0144 109.155 11.6625C107.426 11.293 106.115 10.7389 105.224 10C104.332 9.24352 103.887 8.25834 103.887 7.04445C103.887 6.62222 103.94 6.1912 104.047 5.75139C104.404 4.11528 105.286 2.83101 106.695 1.89861C108.121 0.966204 109.957 0.5 112.204 0.5C113.559 0.5 114.763 0.7375 115.814 1.2125C116.866 1.6875 117.677 2.29445 118.248 3.03334C118.836 3.75463 119.13 4.47593 119.13 5.19723C119.13 5.40834 119.121 5.55787 119.103 5.64584C119.068 5.80416 118.988 5.93611 118.863 6.04166C118.756 6.14723 118.622 6.2 118.462 6.2H114.878C114.486 6.2 114.218 6.05046 114.076 5.75139C114.058 5.34676 113.844 5.0037 113.434 4.72223C113.024 4.44074 112.489 4.3 111.829 4.3C111.045 4.3 110.394 4.44074 109.877 4.72223C109.378 5.0037 109.065 5.41713 108.942 5.9625C108.923 6.05046 108.914 6.16481 108.914 6.30555C108.914 6.72778 109.164 7.07963 109.663 7.36111C110.18 7.625 111.081 7.89769 112.364 8.17916C114.361 8.5662 115.814 9.12037 116.724 9.84166C117.65 10.563 118.114 11.5218 118.114 12.718C118.114 13.1227 118.06 13.5625 117.953 14.0375C117.562 15.832 116.607 17.1954 115.092 18.1278C113.595 19.0426 111.589 19.5 109.075 19.5Z" fill="white"/>
<path d="M121.663 19.2359C121.467 19.2359 121.315 19.1743 121.208 19.0512C121.102 18.928 121.065 18.7697 121.102 18.5762L124.792 1.42339C124.827 1.22987 124.925 1.07154 125.086 0.948395C125.247 0.825246 125.425 0.763672 125.621 0.763672H128.509C128.937 0.763672 129.213 0.95719 129.338 1.34423L132.254 9.65673L138.752 1.34423C138.841 1.20349 138.966 1.07154 139.126 0.948395C139.304 0.825246 139.518 0.763672 139.768 0.763672H142.683C142.879 0.763672 143.031 0.825246 143.138 0.948395C143.209 1.05395 143.245 1.1595 143.245 1.26506C143.245 1.31784 143.236 1.37062 143.218 1.42339L139.528 18.5762C139.491 18.7697 139.393 18.928 139.233 19.0512C139.073 19.1743 138.903 19.2359 138.725 19.2359H135.489C135.293 19.2359 135.141 19.1743 135.034 19.0512C134.945 18.9104 134.918 18.7521 134.954 18.5762L137.04 8.83867L132.949 14.1956C132.77 14.3892 132.601 14.5387 132.44 14.6442C132.28 14.7498 132.092 14.8026 131.879 14.8026H130.488C130.113 14.8026 129.855 14.6003 129.713 14.1956L127.814 8.60117L125.675 18.5762C125.638 18.7697 125.54 18.928 125.38 19.0512C125.22 19.1743 125.05 19.2359 124.872 19.2359H121.663Z" fill="white"/>
</g>
<defs>
<clipPath id="clip0_6045_71319">
<rect width="143" height="19" fill="white" transform="translate(0.244141 0.5)"/>
</clipPath>
</defs>
</svg>
