<svg width="50" height="50" viewBox="0 0 50 50" fill="none" xmlns="http://www.w3.org/2000/svg">
<path fill-rule="evenodd" clip-rule="evenodd" d="M25.1772 14.2376C26.0472 14.1716 26.7339 13.4036 26.7339 12.4659C26.7339 11.4841 25.9828 10.6899 25.0556 10.6899C25.0147 10.6899 24.9737 10.6899 24.9334 10.6949C17.4263 10.7249 11.3516 17.1738 11.3516 25.1249C11.3516 33.0945 17.4568 39.5554 24.9879 39.5554C32.519 39.5554 38.6243 33.095 38.6243 25.1259H38.6205C38.6205 25.0998 38.6205 25.0714 38.6205 25.0469C38.6205 24.065 37.8688 23.2709 36.9421 23.2709C36.0154 23.2709 35.2637 24.0661 35.2637 25.0469C35.2637 25.0959 35.2637 25.1445 35.2692 25.1919C35.2337 31.1679 30.6454 36.0007 24.9896 36.0007C19.3125 36.0007 14.7099 31.1303 14.7099 25.1227C14.7099 19.115 19.3119 14.2441 24.989 14.2441C25.0517 14.2441 25.1145 14.2441 25.1772 14.2441V14.2376Z" fill="white"/>
<path d="M29.8112 14.3904C30.7381 14.3904 31.4895 13.5952 31.4895 12.6144C31.4895 11.6335 30.7381 10.8384 29.8112 10.8384C28.8842 10.8384 28.1328 11.6335 28.1328 12.6144C28.1328 13.5952 28.8842 14.3904 29.8112 14.3904Z" fill="white"/>
<path fill-rule="evenodd" clip-rule="evenodd" d="M38.6194 19.8673C38.6194 20.8491 37.8678 21.6433 36.9411 21.6433C36.0143 21.6433 35.2627 20.8486 35.2627 19.8673C35.2627 18.886 36.0143 18.0913 36.9411 18.0913C37.8678 18.0913 38.6194 18.8866 38.6194 19.8673Z" fill="white"/>
<path d="M34.5602 16.7585C35.4871 16.7585 36.2386 15.9634 36.2386 14.9825C36.2386 14.0017 35.4871 13.2065 34.5602 13.2065C33.6333 13.2065 32.8818 14.0017 32.8818 14.9825C32.8818 15.9634 33.6333 16.7585 34.5602 16.7585Z" fill="white"/>
</svg>
