<svg width="50" height="50" viewBox="0 0 50 50" fill="none" xmlns="http://www.w3.org/2000/svg">
<mask id="mask0_5709_17388" style="mask-type:alpha" maskUnits="userSpaceOnUse" x="6" y="6" width="40" height="39">
<path d="M6.17285 43.2969C6.17285 43.0234 6.38118 42.4766 6.79785 41.6562C7.20149 40.849 7.6442 39.8138 8.12597 38.5508C8.62077 37.2878 9.08952 35.9727 9.53222 34.6055C9.97493 33.2383 10.4242 31.7734 10.8799 30.2109L12.4033 25.0547L10.3721 25.6016C9.86425 25.6016 9.44759 25.3346 9.12207 24.8008C9.04394 24.6576 9.00488 24.4883 9.00488 24.293C9.00488 24.0977 9.16113 23.8698 9.47363 23.6094C9.78613 23.3359 10.1703 23.082 10.626 22.8477C11.5375 22.3789 12.475 22.0208 13.4385 21.7734L13.6143 21.2266C13.9658 20.1328 14.2979 19 14.6104 17.8281C14.9359 16.6432 15.2744 15.4909 15.626 14.3711C15.9906 13.2513 16.4007 12.1901 16.8565 11.1875C17.3122 10.1719 17.846 9.28646 18.458 8.53125C19.8122 6.89062 21.5114 6.07031 23.5557 6.07031C25.0661 6.07031 26.264 6.47396 27.1494 7.28125C28.0348 8.08854 28.4776 9.18229 28.4776 10.5625C28.4776 11.9948 28.0674 13.2383 27.2471 14.293C26.557 15.1654 25.7888 15.6016 24.9424 15.6016C23.8877 15.6016 23.1716 15.1198 22.794 14.1562C22.6898 13.9089 22.6377 13.7005 22.6377 13.5312C22.6377 13.2448 22.833 12.9844 23.2236 12.75C23.9398 12.2031 24.4411 11.474 24.7276 10.5625C24.8187 10.276 24.8643 9.99609 24.8643 9.72266C24.8643 8.65495 24.4476 8.12109 23.6143 8.12109C22.4684 8.12109 21.4138 9.41667 20.4502 12.0078C20.1638 12.8021 19.8773 13.6745 19.5908 14.625L17.7549 20.8555C18.9398 20.6732 19.7992 20.582 20.333 20.582C20.8799 20.582 21.3617 20.6471 21.7783 20.7773C22.195 20.8945 22.5726 21.0638 22.9111 21.2852C23.6794 21.793 24.0635 22.418 24.0635 23.1602C24.0635 23.9023 23.6989 24.2734 22.9697 24.2734L20.4893 24.1758C19.1351 24.1758 17.8851 24.2344 16.7393 24.3516L15.1377 30.0156C14.083 33.8568 13.2236 36.6497 12.5596 38.3945C11.9085 40.1393 11.2705 41.6172 10.6455 42.8281C10.0596 43.9349 9.16764 44.4883 7.96972 44.4883C6.77181 44.4883 6.17285 44.0911 6.17285 43.2969ZM26.9619 38.5703C26.402 38.974 25.9658 39.1758 25.6533 39.1758C25.3539 39.1758 25.1 39.1302 24.8916 39.0391C24.6963 38.9609 24.514 38.8568 24.3447 38.7266C23.9541 38.401 23.7588 38.1081 23.7588 37.8477C23.7588 37.5742 23.902 37.3268 24.1885 37.1055C24.1885 37.1055 24.5856 36.7865 25.3799 36.1484C27.5153 34.3906 29.2796 32.4831 30.6729 30.4258C29.5401 27.2487 29.0192 24.6055 29.1104 22.4961C29.1625 21.4544 29.6117 20.556 30.458 19.8008C31.2393 19.1237 32.0726 18.7852 32.958 18.7852C33.2184 18.7852 33.3877 18.8763 33.4658 19.0586C33.544 19.2409 33.583 19.5078 33.583 19.8594C33.583 20.1979 33.57 20.5625 33.544 20.9531C33.5179 21.3307 33.5114 21.7344 33.5244 22.1641C33.5505 22.5807 33.583 23.0365 33.6221 23.5312C33.7523 24.8594 33.876 25.8945 33.9932 26.6367L34.6377 25.5625C36.1221 23.2057 37.8539 21.3372 39.833 19.957C40.9528 19.1758 41.9164 18.7852 42.7236 18.7852C43.4528 18.7852 44.0192 18.8893 44.4229 19.0977C45.1781 19.4883 45.432 19.8854 45.1846 20.2891C45.1455 20.3542 45.0674 20.4062 44.9502 20.4453L44.4619 20.6797C42.4046 21.5781 39.7809 23.7786 36.5908 27.2812C35.9268 28.0104 35.3473 28.707 34.8526 29.3711L35.5361 31.6562C36.3825 34.3906 37.3851 35.7578 38.544 35.7578C39.0518 35.7578 39.4684 35.6797 39.794 35.5234L40.4971 35.2109C40.6403 35.1458 40.777 35.1133 40.9072 35.1133C41.1807 35.1133 41.3174 35.25 41.3174 35.5234C41.3174 36.6693 40.7315 37.6328 39.5596 38.4141C38.7783 38.9349 37.8929 39.1953 36.9033 39.1953C34.9893 39.1953 33.2575 37.2227 31.708 33.2773C30.0674 35.6862 28.4854 37.4505 26.9619 38.5703Z" fill="black"/>
</mask>
<g mask="url(#mask0_5709_17388)">
<path d="M47.7004 25.0499C47.7004 11.7122 36.8881 0.899902 23.5504 0.899902C10.2127 0.899902 -0.599609 11.7122 -0.599609 25.0499C-0.599609 38.3876 10.2127 49.1999 23.5504 49.1999C36.8881 49.1999 47.7004 38.3876 47.7004 25.0499Z" fill="url(#paint0_linear_5709_17388)"/>
<g filter="url(#filter0_f_5709_17388)">
<path d="M39.1006 37.7002C39.1006 23.6169 27.6838 12.2002 13.6006 12.2002C-0.482676 12.2002 -11.8994 23.6169 -11.8994 37.7002C-11.8994 51.7835 -0.482676 63.2002 13.6006 63.2002C27.6838 63.2002 39.1006 51.7835 39.1006 37.7002Z" fill="url(#paint1_linear_5709_17388)"/>
</g>
<g filter="url(#filter1_f_5709_17388)">
<path d="M34.5004 43.1999C34.5004 28.3987 22.5016 16.3999 7.70039 16.3999C-7.10084 16.3999 -19.0996 28.3987 -19.0996 43.1999C-19.0996 58.0011 -7.10084 69.9999 7.70039 69.9999C22.5016 69.9999 34.5004 58.0011 34.5004 43.1999Z" fill="#4870FF"/>
</g>
</g>
<defs>
<filter id="filter0_f_5709_17388" x="-15.8994" y="8.2002" width="59" height="59" filterUnits="userSpaceOnUse" color-interpolation-filters="sRGB">
<feFlood flood-opacity="0" result="BackgroundImageFix"/>
<feBlend mode="normal" in="SourceGraphic" in2="BackgroundImageFix" result="shape"/>
<feGaussianBlur stdDeviation="2" result="effect1_foregroundBlur_5709_17388"/>
</filter>
<filter id="filter1_f_5709_17388" x="-23.0996" y="12.3999" width="61.5996" height="61.6001" filterUnits="userSpaceOnUse" color-interpolation-filters="sRGB">
<feFlood flood-opacity="0" result="BackgroundImageFix"/>
<feBlend mode="normal" in="SourceGraphic" in2="BackgroundImageFix" result="shape"/>
<feGaussianBlur stdDeviation="2" result="effect1_foregroundBlur_5709_17388"/>
</filter>
<linearGradient id="paint0_linear_5709_17388" x1="49.8958" y1="49.1999" x2="-6.64382" y2="0.605468" gradientUnits="userSpaceOnUse">
<stop stop-color="#D1A3FF"/>
<stop offset="1" stop-color="#FFE298"/>
</linearGradient>
<linearGradient id="paint1_linear_5709_17388" x1="41.5476" y1="66.5911" x2="-20.3881" y2="12.0115" gradientUnits="userSpaceOnUse">
<stop stop-color="#4870FF"/>
<stop offset="1" stop-color="#A4DEFF"/>
</linearGradient>
</defs>
</svg>
