<svg width="104" height="104" viewBox="0 0 104 104" fill="none" xmlns="http://www.w3.org/2000/svg">
<mask id="mask0_759_32311" style="mask-type:alpha" maskUnits="userSpaceOnUse" x="12" y="12" width="83" height="81">
<path d="M12.8392 90.0575C12.8392 89.4887 13.2725 88.3513 14.1392 86.6449C14.9787 84.9659 15.8996 82.8127 16.9016 80.1856C17.9308 77.5586 18.9058 74.8232 19.8266 71.9794C20.7475 69.1356 21.6819 66.0886 22.6298 62.8386L25.7985 52.1138L21.5736 53.2513C20.5173 53.2513 19.6506 52.6959 18.9735 51.5856C18.811 51.2878 18.7298 50.9356 18.7298 50.5294C18.7298 50.1232 19.0548 49.6492 19.7048 49.1075C20.3548 48.5386 21.1538 48.0105 22.1017 47.5232C23.9976 46.5481 25.9476 45.8032 27.9517 45.2886L28.3173 44.1513C29.0485 41.8762 29.7392 39.52 30.3892 37.0824C31.0663 34.6178 31.7703 32.221 32.5017 29.8919C33.26 27.5627 34.113 25.3554 35.0611 23.27C36.009 21.1575 37.1193 19.3158 38.3922 17.745C41.209 14.3325 44.7433 12.6262 48.9954 12.6262C52.1371 12.6262 54.6287 13.4658 56.4703 15.145C58.312 16.8241 59.233 19.0991 59.233 21.97C59.233 24.9492 58.3798 27.5356 56.6736 29.7294C55.2381 31.544 53.6403 32.4513 51.8798 32.4513C49.686 32.4513 48.1965 31.4492 47.4111 29.4449C47.1944 28.9305 47.086 28.497 47.086 28.1449C47.086 27.5492 47.4922 27.0075 48.3047 26.52C49.7944 25.3824 50.8371 23.8659 51.433 21.97C51.6225 21.3741 51.7173 20.7918 51.7173 20.2231C51.7173 18.0023 50.8506 16.8918 49.1173 16.8918C46.7339 16.8918 44.5403 19.5866 42.536 24.9762C41.9403 26.6283 41.3444 28.4429 40.7484 30.42L36.9298 43.3794C39.3944 43.0002 41.1819 42.8105 42.2922 42.8105C43.4298 42.8105 44.4319 42.9459 45.2984 43.2168C46.1652 43.4605 46.9506 43.8127 47.6547 44.2732C49.2527 45.3294 50.0517 46.6294 50.0517 48.1732C50.0517 49.7168 49.2933 50.4886 47.7766 50.4886L42.6173 50.2856C39.8006 50.2856 37.2006 50.4075 34.8173 50.6513L31.486 62.4324C29.2922 70.4221 27.5047 76.2314 26.1236 79.8605C24.7693 83.4897 23.4422 86.5637 22.1422 89.0824C20.9236 91.3846 19.0683 92.5356 16.5766 92.5356C14.085 92.5356 12.8392 91.7095 12.8392 90.0575ZM56.0803 80.2262C54.9157 81.0659 54.0084 81.4856 53.3584 81.4856C52.7357 81.4856 52.2076 81.3908 51.7741 81.2013C51.3679 81.0386 50.9887 80.8221 50.6366 80.5513C49.8241 79.8741 49.4179 79.2648 49.4179 78.7232C49.4179 78.1543 49.7157 77.6397 50.3117 77.1794C50.3117 77.1794 51.1376 76.5159 52.7898 75.1886C57.2314 71.5324 60.9012 67.5648 63.7992 63.2856C61.443 56.6773 60.3595 51.1794 60.5492 46.7919C60.6576 44.6251 61.5919 42.7565 63.3522 41.1856C64.9773 39.7773 66.7106 39.0732 68.5522 39.0732C69.0939 39.0732 69.446 39.2627 69.6084 39.6419C69.7711 40.021 69.8522 40.5762 69.8522 41.3075C69.8522 42.0116 69.8252 42.77 69.7711 43.5824C69.7168 44.3678 69.7033 45.2075 69.7303 46.1013C69.7846 46.9678 69.8522 47.9159 69.9335 48.9449C70.2044 51.7075 70.4617 53.8605 70.7054 55.4043L72.046 53.17C75.1336 48.2678 78.7357 44.3814 82.8522 41.5105C85.1814 39.8856 87.1857 39.0732 88.8647 39.0732C90.3814 39.0732 91.5595 39.2897 92.3992 39.7232C93.97 40.5356 94.4981 41.3616 93.9836 42.2013C93.9022 42.3367 93.7398 42.4449 93.496 42.5262L92.4803 43.0138C88.2012 44.8824 82.7439 49.4595 76.1084 56.7449C74.7273 58.2616 73.522 59.7105 72.493 61.0919L73.9147 65.8449C75.6752 71.5324 77.7606 74.3762 80.1711 74.3762C81.2273 74.3762 82.0939 74.2137 82.7711 73.8886L84.2336 73.2386C84.5314 73.1032 84.8158 73.0356 85.0866 73.0356C85.6554 73.0356 85.9398 73.32 85.9398 73.8886C85.9398 76.2721 84.7211 78.2762 82.2836 79.9013C80.6584 80.9846 78.8168 81.5262 76.7584 81.5262C72.7773 81.5262 69.1752 77.4232 65.9522 69.2168C62.5398 74.2273 59.2492 77.897 56.0803 80.2262Z" fill="black"/>
</mask>
<g mask="url(#mask0_759_32311)">
<path d="M99.216 52.1038C99.216 24.3615 76.7264 1.87183 48.984 1.87183C21.2416 1.87183 -1.24801 24.3615 -1.24801 52.1038C-1.24801 79.8462 21.2416 102.336 48.984 102.336C76.7264 102.336 99.216 79.8462 99.216 52.1038Z" fill="url(#paint0_linear_759_32311)"/>
<g filter="url(#filter0_f_759_32311)">
<path d="M81.328 78.416C81.328 49.1228 57.5812 25.376 28.288 25.376C-1.00518 25.376 -24.752 49.1228 -24.752 78.416C-24.752 107.709 -1.00518 131.456 28.288 131.456C57.5812 131.456 81.328 107.709 81.328 78.416Z" fill="url(#paint1_linear_759_32311)"/>
</g>
<g filter="url(#filter1_f_759_32311)">
<path d="M71.76 89.8558C71.76 59.0693 46.8026 34.1118 16.016 34.1118C-14.7706 34.1118 -39.728 59.0693 -39.728 89.8558C-39.728 120.642 -14.7706 145.6 16.016 145.6C46.8026 145.6 71.76 120.642 71.76 89.8558Z" fill="#4870FF"/>
</g>
</g>
<defs>
<filter id="filter0_f_759_32311" x="-28.752" y="21.376" width="114.08" height="114.08" filterUnits="userSpaceOnUse" color-interpolation-filters="sRGB">
<feFlood flood-opacity="0" result="BackgroundImageFix"/>
<feBlend mode="normal" in="SourceGraphic" in2="BackgroundImageFix" result="shape"/>
<feGaussianBlur stdDeviation="2" result="effect1_foregroundBlur_759_32311"/>
</filter>
<filter id="filter1_f_759_32311" x="-43.728" y="30.1118" width="119.488" height="119.488" filterUnits="userSpaceOnUse" color-interpolation-filters="sRGB">
<feFlood flood-opacity="0" result="BackgroundImageFix"/>
<feBlend mode="normal" in="SourceGraphic" in2="BackgroundImageFix" result="shape"/>
<feGaussianBlur stdDeviation="2" result="effect1_foregroundBlur_759_32311"/>
</filter>
<linearGradient id="paint0_linear_759_32311" x1="103.782" y1="102.336" x2="-13.82" y2="1.25939" gradientUnits="userSpaceOnUse">
<stop stop-color="#D1A3FF"/>
<stop offset="1" stop-color="#FFE298"/>
</linearGradient>
<linearGradient id="paint1_linear_759_32311" x1="86.4178" y1="138.509" x2="-42.4085" y2="24.9835" gradientUnits="userSpaceOnUse">
<stop stop-color="#4870FF"/>
<stop offset="1" stop-color="#A4DEFF"/>
</linearGradient>
</defs>
</svg>
