<svg width="50" height="50" viewBox="0 0 50 50" fill="none" xmlns="http://www.w3.org/2000/svg">
<g clip-path="url(#clip0_5951_7264)">
<path d="M29.2969 20.6469C29.2969 23.0596 27.3729 25.0158 25 25.0158V29.3847C29.7458 29.3847 33.5938 25.4723 33.5938 20.6469C33.5938 15.8216 29.7458 11.9092 25 11.9092C23.4355 11.9092 21.9664 12.334 20.7032 13.0789C18.1339 14.5886 16.4062 17.4123 16.4062 20.6469V42.4914L20.2698 46.4196L20.7032 46.8602V20.6469C20.7032 18.2343 22.6271 16.278 25 16.278C27.3729 16.278 29.2969 18.2343 29.2969 20.6469Z" fill="white"/>
<path d="M25 3.17188C21.8692 3.17188 18.9347 4.02352 16.4062 5.51143C14.7874 6.46187 13.3376 7.67316 12.1094 9.08993C9.43525 12.1705 7.8125 16.2173 7.8125 20.6475V33.7541L12.1094 38.123V20.6475C12.1094 16.7666 13.7691 13.279 16.4062 10.8782C17.6462 9.75188 19.1017 8.86269 20.7031 8.28966C22.0461 7.80357 23.4939 7.54076 25 7.54076C32.1187 7.54076 37.8906 13.4094 37.8906 20.6475C37.8906 27.8855 32.1187 33.7541 25 33.7541V38.123C34.4935 38.123 42.1875 30.2981 42.1875 20.6475C42.1875 10.9967 34.4935 3.17188 25 3.17188Z" fill="white"/>
</g>
<defs>
<clipPath id="clip0_5951_7264">
<rect width="34.375" height="43.75" fill="white" transform="translate(7.8125 3.125)"/>
</clipPath>
</defs>
</svg>
