<svg width="97" height="54" viewBox="0 0 97 54" fill="none" xmlns="http://www.w3.org/2000/svg">
<path d="M36.9718 29.7388V27.5108H42.2727C43.0831 27.5108 43.7159 27.2814 44.1696 26.8227C44.6233 26.364 44.8501 25.7593 44.8501 25.0117C44.8501 24.264 44.6233 23.6476 44.1696 23.2007C43.7159 22.7539 43.0831 22.5306 42.2727 22.5306H35.2839V33.401H32.9961V20.2266H42.2727C43.0353 20.2266 43.7159 20.3383 44.3158 20.5617C44.9143 20.7851 45.4201 21.0993 45.832 21.5044C46.244 21.9095 46.5588 22.401 46.7767 22.9803C46.9945 23.5597 47.1035 24.2119 47.1035 24.9373C47.1035 25.6626 46.9945 26.2984 46.7767 26.8853C46.5588 27.4705 46.244 27.9755 45.832 28.3984C45.4201 28.8214 44.9157 29.1505 44.3158 29.3858C43.7174 29.6211 43.0353 29.7388 42.2727 29.7388H36.9718Z" fill="white"/>
<path d="M54.6122 33.398V28.3969L47.6055 20.2266H50.7096L55.8479 26.2954L61.0025 20.2266H63.944L56.9179 28.3969V33.398H54.6122Z" fill="white"/>
<path d="M71.8928 33.398V22.5276H65.8213V20.2266H80.2787V22.5276H74.1987V33.398H71.8928Z" fill="white"/>
<path d="M94.7031 20.2266H97V33.398H94.7031V20.2266Z" fill="white"/>
<path d="M84.7929 33.398V27.697H93.3376V25.658H84.7929V20.2266H82.4961V33.398H84.7929Z" fill="white"/>
<path d="M16.4986 23.6707C16.4986 25.4892 15.021 26.9635 13.1989 26.9635V30.2565C16.8433 30.2565 19.7981 27.3076 19.7981 23.6707C19.7981 20.0338 16.8433 17.085 13.1989 17.085C11.9975 17.085 10.8693 17.4052 9.89925 17.9666C7.92634 19.1045 6.59961 21.2327 6.59961 23.6707V40.1351L9.56645 43.0957L9.89925 43.4279V23.6707C9.89925 21.8523 11.3767 20.3778 13.1989 20.3778C15.021 20.3778 16.4986 21.8523 16.4986 23.6707Z" fill="white"/>
<path d="M13.1986 10.5C10.7943 10.5 8.54087 11.1419 6.59928 12.2633C5.35614 12.9797 4.24282 13.8927 3.29964 14.9605C1.24613 17.2823 0 20.3324 0 23.6714V33.55L3.29964 36.843V23.6714C3.29964 20.7465 4.57413 18.1178 6.59928 16.3083C7.55142 15.4594 8.66921 14.7892 9.89893 14.3573C10.9301 13.9909 12.042 13.7929 13.1986 13.7929C18.6651 13.7929 23.0975 18.2161 23.0975 23.6714C23.0975 29.1268 18.6651 33.55 13.1986 33.55V36.843C20.4888 36.843 26.3972 30.9453 26.3972 23.6714C26.3972 16.3977 20.4888 10.5 13.1986 10.5Z" fill="white"/>
</svg>