<svg width="97" height="34" viewBox="0 0 97 34" fill="none" xmlns="http://www.w3.org/2000/svg">
<g clip-path="url(#clip0_6045_71320)">
<path d="M36.9718 19.7388V17.5108H42.2727C43.0831 17.5108 43.7159 17.2814 44.1696 16.8227C44.6233 16.364 44.8501 15.7593 44.8501 15.0117C44.8501 14.264 44.6233 13.6476 44.1696 13.2007C43.7159 12.7539 43.0831 12.5306 42.2727 12.5306H35.2839V23.401H32.9961V10.2266H42.2727C43.0353 10.2266 43.7159 10.3383 44.3158 10.5617C44.9143 10.7851 45.4201 11.0993 45.832 11.5044C46.244 11.9095 46.5588 12.401 46.7767 12.9803C46.9945 13.5597 47.1035 14.2119 47.1035 14.9373C47.1035 15.6626 46.9945 16.2984 46.7767 16.8853C46.5588 17.4705 46.244 17.9755 45.832 18.3984C45.4201 18.8214 44.9157 19.1505 44.3158 19.3858C43.7174 19.6211 43.0353 19.7388 42.2727 19.7388H36.9718Z" fill="white"/>
<path d="M54.6122 23.398V18.3969L47.6055 10.2266H50.7096L55.8479 16.2954L61.0025 10.2266H63.944L56.9179 18.3969V23.398H54.6122Z" fill="white"/>
<path d="M71.8938 23.398V12.5276H65.8223V10.2266H80.2797V12.5276H74.1996V23.398H71.8938Z" fill="white"/>
<path d="M94.7031 10.2266H97V23.398H94.7031V10.2266Z" fill="white"/>
<path d="M84.7929 23.398V17.697H93.3376V15.658H84.7929V10.2266H82.4961V23.398H84.7929Z" fill="white"/>
<path d="M16.4986 13.6707C16.4986 15.4892 15.021 16.9635 13.1989 16.9635V20.2565C16.8433 20.2565 19.7981 17.3076 19.7981 13.6707C19.7981 10.0338 16.8433 7.08496 13.1989 7.08496C11.9975 7.08496 10.8693 7.40517 9.89925 7.96663C7.92634 9.10447 6.59961 11.2327 6.59961 13.6707V30.1351L9.56645 33.0957L9.89925 33.4279V13.6707C9.89925 11.8523 11.3767 10.3778 13.1989 10.3778C15.021 10.3778 16.4986 11.8523 16.4986 13.6707Z" fill="white"/>
<path d="M13.1986 0.5C10.7943 0.5 8.54087 1.14189 6.59928 2.26335C5.35614 2.9797 4.24282 3.89265 3.29964 4.96049C1.24613 7.28232 0 10.3324 0 13.6714V23.55L3.29964 26.843V13.6714C3.29964 10.7465 4.57413 8.11782 6.59928 6.30831C7.55142 5.45941 8.66921 4.78921 9.89893 4.35732C10.9301 3.99095 12.042 3.79286 13.1986 3.79286C18.6651 3.79286 23.0975 8.21612 23.0975 13.6714C23.0975 19.1268 18.6651 23.55 13.1986 23.55V26.843C20.4888 26.843 26.3972 20.9453 26.3972 13.6714C26.3972 6.39767 20.4888 0.5 13.1986 0.5Z" fill="white"/>
</g>
<defs>
<clipPath id="clip0_6045_71320">
<rect width="97" height="33" fill="white" transform="translate(0 0.5)"/>
</clipPath>
</defs>
</svg>
