<svg width="90" height="31" viewBox="0 0 90 31" fill="none" xmlns="http://www.w3.org/2000/svg">
<g clip-path="url(#clip0_6045_71320)">
<path d="M34.4873 17.9903V15.9648H39.3063C40.0431 15.9648 40.6183 15.7562 41.0307 15.3393C41.4432 14.9222 41.6494 14.3725 41.6494 13.6929C41.6494 13.0132 41.4432 12.4528 41.0307 12.0466C40.6183 11.6404 40.0431 11.4373 39.3063 11.4373H32.9529V21.3195H30.873V9.34277H39.3063C39.9996 9.34277 40.6183 9.44432 41.1637 9.6474C41.7077 9.85049 42.1676 10.1362 42.542 10.5044C42.9166 10.8727 43.2028 11.3195 43.4009 11.8461C43.5989 12.3729 43.698 12.9658 43.698 13.6253C43.698 14.2846 43.5989 14.8627 43.4009 15.3961C43.2028 15.9282 42.9166 16.3872 42.542 16.7717C42.1676 17.1562 41.7091 17.4555 41.1637 17.6694C40.6197 17.8833 39.9996 17.9903 39.3063 17.9903H34.4873Z" fill="white"/>
<path d="M50.5241 21.3168V16.7704L44.1543 9.34277H46.9762L51.6475 14.8599L56.3334 9.34277H59.0075L52.6202 16.7704V21.3168H50.5241Z" fill="white"/>
<path d="M66.2344 21.3168V11.4346H60.7148V9.34277H73.858V11.4346H68.3306V21.3168H66.2344Z" fill="white"/>
<path d="M86.9707 9.34277H89.0587V21.3168H86.9707V9.34277Z" fill="white"/>
<path d="M77.9611 21.3168V16.1341H85.7289V14.2805H77.9611V9.34277H75.873V21.3168H77.9611Z" fill="white"/>
<path d="M15.876 12.4733C15.876 14.1265 14.5328 15.4668 12.8763 15.4668V18.4604C16.1894 18.4604 18.8756 15.7797 18.8756 12.4733C18.8756 9.16709 16.1894 6.48633 12.8763 6.48633C11.7841 6.48633 10.7585 6.77743 9.87663 7.28785C8.08307 8.32224 6.87695 10.257 6.87695 12.4733V27.441L9.57409 30.1325L9.87663 30.4344V12.4733C9.87663 10.8202 11.2198 9.47985 12.8763 9.47985C14.5328 9.47985 15.876 10.8202 15.876 12.4733Z" fill="white"/>
<path d="M12.8757 0.5C10.69 0.5 8.64138 1.08354 6.8763 2.10304C5.74617 2.75427 4.73406 3.58423 3.87663 4.55499C2.0098 6.66575 0.876953 9.43858 0.876953 12.474V21.4546L3.87663 24.4482V12.474C3.87663 9.81497 5.03525 7.42529 6.8763 5.78028C7.74188 5.00855 8.75805 4.39928 9.87598 4.00665C10.8135 3.67359 11.8243 3.49351 12.8757 3.49351C17.8453 3.49351 21.8747 7.51465 21.8747 12.474C21.8747 17.4335 17.8453 21.4546 12.8757 21.4546V24.4482C19.5032 24.4482 24.8744 19.0866 24.8744 12.474C24.8744 5.86152 19.5032 0.5 12.8757 0.5Z" fill="white"/>
</g>
<defs>
<clipPath id="clip0_6045_71320">
<rect width="88.1818" height="30" fill="white" transform="translate(0.876953 0.5)"/>
</clipPath>
</defs>
</svg>
