<svg width="274" height="20" viewBox="0 0 274 20" fill="none" xmlns="http://www.w3.org/2000/svg">
<path d="M26.442 9.4849C25.2736 8.3364 23.8693 7.76241 22.2287 7.76241H5.96574C5.66369 7.76241 5.40456 7.65688 5.18783 7.4453C4.9711 7.23426 4.86299 6.97684 4.86299 6.67306V5.34655C4.86299 5.05662 4.9711 4.8056 5.18783 4.59402C5.40456 4.38298 5.66369 4.27692 5.96574 4.27692H26.9343C26.9868 4.27692 27.0292 4.2604 27.062 4.22736C27.0949 4.19484 27.1113 4.15807 27.1113 4.11863V0.158286C27.1113 0.105524 27.0949 0.0660857 27.062 0.0394383C27.0292 0.0133237 26.9862 0 26.9343 0H5.96574C4.31189 0 2.90391 0.57452 1.74235 1.72303C0.580783 2.87153 0 4.2572 0 5.8811V6.13851C0 7.77573 0.580783 9.16833 1.74235 10.3168C2.90391 11.4653 4.31189 12.0393 5.96574 12.0393H22.2287C22.5175 12.0393 22.7703 12.1417 22.9865 12.3463C23.2032 12.551 23.3113 12.8052 23.3113 13.109V14.4355C23.3113 14.7392 23.2032 14.9935 22.9865 15.1981C22.7697 15.4028 22.517 15.5051 22.2287 15.5051H1.24052C1.20131 15.5051 1.16474 15.5216 1.13242 15.5547C1.09957 15.5877 1.08314 15.6309 1.08314 15.6836V19.644C1.08314 19.6834 1.09957 19.7202 1.13242 19.7527C1.16527 19.7857 1.20131 19.8023 1.24052 19.8023H22.2287C23.8693 19.8023 25.2736 19.2251 26.442 18.0696C27.61 16.9147 28.1944 15.5253 28.1944 13.9015V13.6435C28.1939 12.0196 27.61 10.6334 26.442 9.4849Z" fill="#00D1FF"/>
<path d="M61.7498 0H57.2015C57.1623 0 57.1258 0.0133237 57.0934 0.0394383C57.0606 0.0660857 57.0441 0.105524 57.0441 0.158286V5.18773C57.0441 5.62315 56.8205 5.95358 56.3749 6.17795L47.2986 9.95976L38.2223 6.17795C37.7761 5.95358 37.553 5.62368 37.553 5.18773V0.158286C37.553 0.105524 37.5397 0.0660857 37.5138 0.0394383C37.4867 0.0133237 37.4475 0 37.3951 0H32.8468C32.8076 0 32.7711 0.0133237 32.7387 0.0394383C32.7059 0.0660857 32.6895 0.105524 32.6895 0.158286V5.92054C32.6895 6.77912 32.9258 7.56415 33.3985 8.27671C33.8712 8.98979 34.5139 9.51741 35.3279 9.86063L44.8573 13.8801V19.6232C44.8573 19.676 44.8737 19.7191 44.9065 19.7522C44.9394 19.7852 44.9818 19.8017 45.0343 19.8017H49.5825C49.6217 19.8017 49.6577 19.7852 49.6906 19.7522C49.7234 19.7191 49.7399 19.6765 49.7399 19.6232V13.8807L59.2692 9.88088C60.0827 9.52434 60.7265 8.99299 61.1986 8.28683C61.6713 7.58067 61.9071 6.79884 61.9071 5.94026V0.158286C61.9071 0.105524 61.8907 0.0660857 61.8579 0.0394383C61.825 0.0133237 61.789 0 61.7498 0Z" fill="#00D1FF"/>
<path d="M95.5326 0H90.9844C90.9319 0 90.8922 0.0165214 90.8662 0.0495643C90.8397 0.0826072 90.827 0.118848 90.827 0.158286V15.5243H88.9172C88.5627 15.5243 88.2606 15.366 88.0116 15.0489L79.1912 2.07904C78.2459 0.746129 76.9396 0.052762 75.2731 0H67.6736C67.6212 0 67.5782 0.0165214 67.5454 0.0495643C67.5125 0.0826072 67.4961 0.118848 67.4961 0.158286V19.6429C67.4961 19.6824 67.5125 19.7191 67.5454 19.7516C67.5782 19.7847 67.6206 19.8012 67.6736 19.8012H72.2218C72.2611 19.8012 72.2971 19.7847 72.3299 19.7516C72.3628 19.7191 72.3792 19.6824 72.3792 19.6429V4.27692H74.289C74.6435 4.27692 74.9451 4.44214 75.1946 4.77203L84.015 17.7419C84.9604 19.0753 86.2661 19.7618 87.9332 19.8012H95.5331C95.5856 19.8012 95.6248 19.7847 95.6513 19.7516C95.6773 19.7191 95.6905 19.6824 95.6905 19.6429V0.158286C95.6905 0.118848 95.6773 0.0826072 95.6513 0.0495643C95.6243 0.0165214 95.5851 0 95.5326 0Z" fill="#00D1FF"/>
<path d="M128.406 0H100.546C100.494 0 100.454 0.0165214 100.428 0.0495643C100.401 0.0826072 100.389 0.118848 100.389 0.158286V4.11864C100.389 4.15807 100.401 4.19485 100.428 4.22736C100.454 4.2604 100.494 4.27692 100.546 4.27692H112.044V19.6429C112.044 19.6824 112.057 19.7191 112.083 19.7516C112.109 19.7847 112.149 19.8012 112.201 19.8012H116.75C116.802 19.8012 116.841 19.7847 116.868 19.7516C116.894 19.7191 116.907 19.6824 116.907 19.6429V4.27692H128.405C128.458 4.27692 128.5 4.2604 128.533 4.22736C128.566 4.19431 128.582 4.15807 128.582 4.11864V0.158286C128.582 0.118848 128.566 0.0826072 128.533 0.0495643C128.501 0.0165214 128.458 0 128.406 0Z" fill="#00D1FF"/>
<path d="M162.187 0H157.639C157.599 0 157.563 0.0165214 157.53 0.0495643C157.498 0.0826072 157.481 0.118848 157.481 0.158286V7.76188H139.053V0.158286C139.053 0.118848 139.036 0.0826072 139.003 0.0495643C138.97 0.0170544 138.927 0 138.876 0H134.327C134.288 0 134.252 0.0165214 134.219 0.0495643C134.186 0.0826072 134.17 0.118848 134.17 0.158286V19.6429C134.17 19.6824 134.186 19.7191 134.219 19.7516C134.252 19.7847 134.288 19.8012 134.327 19.8012H138.876C138.928 19.8012 138.97 19.7847 139.003 19.7516C139.036 19.7186 139.053 19.6824 139.053 19.6429V12.0393H157.481V19.6429C157.481 19.6824 157.498 19.7191 157.53 19.7516C157.563 19.7847 157.599 19.8012 157.639 19.8012H162.187C162.239 19.8012 162.282 19.7847 162.315 19.7516C162.347 19.7186 162.364 19.6824 162.364 19.6429V0.158286C162.364 0.118848 162.347 0.0826072 162.315 0.0495643C162.282 0.0165214 162.239 0 162.187 0Z" fill="#00D1FF"/>
<path d="M195.849 0H173.778C172.137 0 170.733 0.573987 169.565 1.72249C168.396 2.871 167.812 4.2572 167.812 5.8811V13.9004C167.812 15.5376 168.396 16.9302 169.565 18.0787C170.733 19.2272 172.137 19.8017 173.778 19.8017H195.849C195.888 19.8017 195.924 19.7852 195.957 19.7522C195.99 19.7191 196.006 19.6829 196.006 19.6435V15.6831C196.006 15.6303 195.99 15.5909 195.957 15.5643C195.924 15.5381 195.888 15.5248 195.849 15.5248H173.778C173.476 15.5248 173.22 15.4193 173.01 15.2082C172.8 14.9972 172.695 14.7462 172.695 14.4557V12.0393H195.835C195.887 12.0393 195.926 12.0228 195.953 11.9898C195.979 11.9567 195.992 11.9205 195.992 11.881V7.9207C195.992 7.86793 195.979 7.8285 195.953 7.80185C195.926 7.77573 195.887 7.76241 195.835 7.76241H172.695V5.34655C172.695 5.05609 172.8 4.80561 173.01 4.59402C173.22 4.38298 173.476 4.27692 173.778 4.27692H195.849C195.888 4.27692 195.924 4.2604 195.957 4.22736C195.99 4.19485 196.006 4.15807 196.006 4.11863V0.158286C196.006 0.118848 195.99 0.0826072 195.957 0.0495643C195.924 0.0170544 195.888 0 195.849 0Z" fill="#00D1FF"/>
<path d="M229.472 0H201.612C201.56 0 201.52 0.0165214 201.494 0.0495643C201.468 0.0826072 201.455 0.118848 201.455 0.158286V4.11864C201.455 4.15807 201.468 4.19485 201.494 4.22736C201.52 4.2604 201.56 4.27692 201.612 4.27692H213.11V19.6429C213.11 19.6824 213.123 19.7191 213.15 19.7516C213.176 19.7847 213.215 19.8012 213.268 19.8012H217.816C217.869 19.8012 217.908 19.7847 217.934 19.7516C217.961 19.7191 217.973 19.6824 217.973 19.6429V4.27692H229.471C229.524 4.27692 229.566 4.2604 229.599 4.22736C229.632 4.19431 229.648 4.15807 229.648 4.11864V0.158286C229.648 0.118848 229.632 0.0826072 229.599 0.0495643C229.567 0.0165214 229.524 0 229.472 0Z" fill="#00D1FF"/>
<path d="M240.062 0.0394383C240.035 0.0133237 239.996 0 239.944 0H235.396C235.343 0 235.303 0.0133237 235.278 0.0394383C235.251 0.0660858 235.238 0.105524 235.238 0.158286V19.6429C235.238 19.6824 235.251 19.7191 235.278 19.7516C235.303 19.7847 235.343 19.8012 235.396 19.8012H239.944C239.996 19.8012 240.035 19.7847 240.062 19.7516C240.088 19.7186 240.101 19.6824 240.101 19.6429V0.158286C240.101 0.106057 240.088 0.0660858 240.062 0.0394383Z" fill="#00D1FF"/>
<path d="M252.619 4.81207C252.422 4.5877 252.179 4.47525 251.89 4.47525H245.984C245.931 4.47525 245.888 4.45872 245.856 4.42568C245.823 4.39317 245.807 4.3564 245.807 4.31696V0.35661C245.807 0.317172 245.823 0.280931 245.856 0.247889C245.888 0.215379 245.931 0.198324 245.984 0.198324H252.225C253.8 0.198324 255.158 0.83893 256.3 2.11907L257.817 3.96042L254.863 7.5445L252.619 4.81207ZM263.526 2.09936C264.668 0.832001 266.033 0.198324 267.621 0.198324H273.843C273.895 0.198324 273.934 0.211648 273.961 0.237762C273.987 0.26441 274 0.303848 274 0.35661V4.31696C274 4.3564 273.987 4.39317 273.961 4.42568C273.934 4.45872 273.895 4.47525 273.843 4.47525H267.936C267.647 4.47525 267.405 4.5877 267.208 4.81207L262.856 10.0792L267.227 15.3858C267.424 15.5974 267.66 15.7029 267.936 15.7029H273.843C273.895 15.7029 273.934 15.7194 273.961 15.7525C273.987 15.7855 274 15.8287 274 15.8809V19.8413C274 19.8807 273.987 19.9175 273.961 19.95C273.934 19.983 273.895 19.9995 273.843 19.9995H267.621C266.033 19.9995 264.675 19.3595 263.546 18.0788L259.923 13.683L256.3 18.0788C255.158 19.3595 253.793 19.9995 252.205 19.9995H245.984C245.931 19.9995 245.891 19.983 245.865 19.95C245.839 19.9169 245.826 19.8743 245.826 19.821V15.8607C245.826 15.8212 245.839 15.785 245.865 15.7519C245.891 15.7189 245.931 15.7024 245.984 15.7024H251.89C252.166 15.7024 252.408 15.5904 252.619 15.3655L256.891 10.1778L263.526 2.09936Z" fill="#00D1FF"/>
</svg>
