<svg width="440" height="107" viewBox="0 0 440 107" fill="none" xmlns="http://www.w3.org/2000/svg">
<g clip-path="url(#clip0_454_30384)">
<path d="M112.708 21.4393C106.799 21.4393 101.387 21.4393 95.984 21.4393C91.3235 21.4393 88.524 19.0716 88.4914 15.259C88.4587 11.4463 91.2827 8.90721 95.8371 8.89905C114.463 8.86639 133.085 8.86639 151.705 8.89905C156.766 8.89905 159.051 11.2912 159.116 16.4591C159.165 22.8108 159.116 29.1708 159.116 35.7266H186.157C186.157 29.1953 186.091 22.6067 186.157 16.0182C186.222 10.9238 189.87 7.80505 194.319 9.08683C198.073 10.14 199.15 13.0628 199.15 16.655C199.093 33.9223 199.15 51.1896 199.15 68.4569C199.15 68.8651 199.15 69.2733 199.15 69.6815C198.914 73.7065 196.106 76.5721 192.498 76.4578C189.038 76.3517 186.295 73.5758 186.23 69.7223C186.124 62.9624 186.23 56.1943 186.23 49.2139H159.157V65.3137C159.157 66.6689 159.206 68.0323 159.157 69.3958C158.969 73.6412 156.072 76.6619 152.383 76.5231C148.832 76.3762 146.245 73.4615 146.229 69.2651C146.18 54.9941 146.229 40.6904 146.229 26.4358V21.7087H125.938C125.881 23.0639 125.767 24.4927 125.759 25.9214C125.759 40.2006 125.718 54.4961 125.759 68.7508C125.759 72.0655 124.763 74.6535 121.58 75.9598C116.96 77.8457 112.781 74.4494 112.724 68.612C112.618 57.8761 112.724 47.132 112.724 36.3879L112.708 21.4393Z" fill="white"/>
<path d="M78.5012 43.9151C78.1503 54.0469 71.735 65.24 59.1249 72.9633C57.6261 73.9455 56.5557 75.4597 56.1295 77.2005C55.0929 83.0053 55.1256 88.7692 57.9822 94.2637C58.9409 96.0117 59.252 98.0421 58.8608 99.9971C58.4696 101.952 57.4012 103.706 55.8438 104.951C54.4437 106.166 52.6801 106.882 50.8293 106.987C48.9786 107.092 47.1453 106.58 45.6169 105.53C42.2216 103.277 41.3809 99.3745 42.2624 95.1291C43.3643 89.8795 43.7642 84.5157 44.3437 79.1191C44.5969 76.5526 44.7195 73.9748 44.711 71.3958C44.711 66.9626 46.9065 64.2521 50.7753 62.1457C63.5486 55.198 68.0132 40.233 61.2551 27.9459C56.4396 19.2021 46.1311 13.732 37.1694 15.1771C25.6856 17.0304 17.4747 24.3292 15.5485 34.4038C13.4835 45.2214 17.9563 55.4593 27.1302 60.9538C34.427 65.3216 36.2716 69.118 34.2556 77.2822C33.9135 78.3752 33.3549 79.3881 32.6131 80.2605C31.8713 81.133 30.9615 81.8471 29.9379 82.3603C27.2119 83.5604 24.4042 82.148 23.2778 79.2579C21.6454 75.1023 18.3807 72.7837 15.0343 70.2283C0.571406 59.223 -4.08088 39.188 3.79536 22.631C7.64211 14.4357 14.1931 7.81556 22.3464 3.88422C30.4997 -0.0471144 39.7578 -1.04979 48.5634 1.04487C66.1115 5.08615 78.6726 21.088 78.5012 43.9151Z" fill="white"/>
<path d="M406.879 76.5148C401.574 76.5148 396.269 76.572 390.971 76.5148C386.074 76.4577 383.226 73.9839 383.242 70.0324C383.258 66.081 386.213 63.6807 391.045 63.6807C400.953 63.6807 410.862 63.6807 420.771 63.6807C425.847 63.6807 426.908 62.5377 426.941 57.4187C426.941 56.1941 426.941 54.9695 426.941 53.7449C426.941 50.4792 425.309 49.0504 422.166 49.0668C415.365 49.0668 408.563 49.0668 401.761 49.0668C390.792 49.0668 383.854 42.6497 383.152 31.7505C383.001 28.7791 383.154 25.7999 383.609 22.8597C384.192 19.0748 386.082 15.6136 388.951 13.078C391.82 10.5424 395.486 9.09253 399.313 8.98055C407.197 8.83359 415.082 8.91524 422.982 8.98055C427.635 8.98055 430.279 11.3482 430.247 15.2996C430.214 19.2511 427.61 21.4963 422.901 21.5208C416.102 21.5208 409.303 21.4799 402.496 21.5208C396.979 21.5779 395.967 22.9005 396.073 29.7911C396.122 34.9754 397.256 36.0694 402.602 36.0857C408.715 36.0857 414.845 36.0857 420.95 36.0857C432.94 36.0857 439.984 43.1396 439.967 55.043C439.967 57.6228 440.139 60.2681 439.641 62.7663C438.009 70.9305 431.348 76.3107 422.77 76.5393C417.481 76.6291 412.176 76.5148 406.879 76.5148Z" fill="white"/>
<path d="M234.851 76.5148C227.652 76.5148 220.453 76.5802 213.254 76.5148C206.406 76.4414 203.746 72.3593 206.415 66.0157C213.76 48.6586 221.106 31.3423 228.452 14.0016C229.7 11.0461 231.447 8.84995 234.981 8.9071C238.515 8.96425 240.237 11.1523 241.511 14.1077C248.856 31.4566 256.202 48.7729 263.548 66.1218C266.2 72.4327 263.425 76.4495 256.447 76.5148C249.256 76.572 242.049 76.5148 234.851 76.5148ZM234.932 31.6852L221.441 63.5256H248.44C243.951 52.953 239.609 42.7232 234.932 31.6852Z" fill="white"/>
<path d="M285.038 63.6806H311.589C316.788 63.6806 319.832 66.0318 319.849 70.0078C319.865 73.9838 316.657 76.4739 311.605 76.4902C301.141 76.5337 290.678 76.5337 280.214 76.4902C274.501 76.4902 272.159 74.2614 272.126 68.6525C272.044 51.2356 272.044 33.8377 272.126 16.4588C272.126 11.4297 274.574 8.86612 278.696 8.87429C282.818 8.88245 284.997 11.5766 285.014 16.6384C285.054 30.6319 285.014 44.6335 285.014 58.6351L285.038 63.6806Z" fill="white"/>
<path d="M351.345 63.6807C357.059 63.6807 362.772 63.6807 368.436 63.6807C372.607 63.6807 375.415 66.285 375.472 69.9426C375.529 73.6002 372.664 76.3923 368.559 76.474C357.034 76.5883 345.504 76.5883 333.969 76.474C329.496 76.474 326.86 73.6655 327.031 69.714C327.186 66.0238 329.88 63.7378 334.246 63.7052C339.951 63.6807 345.648 63.6807 351.345 63.6807Z" fill="white"/>
<path d="M350.962 21.4391C345.248 21.4391 339.535 21.4881 333.879 21.4391C329.512 21.3902 326.974 18.9899 326.966 15.1854C326.958 11.3809 329.561 8.93159 333.879 8.91526C345.404 8.85539 356.925 8.85539 368.445 8.91526C372.599 8.91526 375.439 11.5768 375.448 15.1854C375.456 18.7939 372.632 21.3983 368.445 21.4391C362.65 21.4881 356.822 21.4391 350.962 21.4391Z" fill="white"/>
<path d="M351.248 49.0667C348.138 49.0667 345.012 49.1729 341.91 49.0667C338.139 48.9034 335.65 46.5113 335.438 43.115C335.226 39.7187 337.266 36.5837 340.98 36.3551C347.735 35.9904 354.505 35.9686 361.262 36.2898C362.914 36.4131 364.45 37.1857 365.535 38.4386C366.619 39.6916 367.164 41.323 367.049 42.9762C366.869 46.2419 364.168 48.7973 360.593 49.0912C360.324 49.0912 360.046 49.0912 359.777 49.0912L351.248 49.0667Z" fill="white"/>
<path d="M49.2735 51.0507C43.6825 56.3901 34.7126 56.2431 28.6891 50.4629C22.6657 44.6826 23.0737 33.2364 28.0117 29.7095L49.2735 51.0507Z" fill="white"/>
</g>
<defs>
<clipPath id="clip0_454_30384">
<rect width="440" height="107" fill="white"/>
</clipPath>
</defs>
</svg>
