<svg width="50" height="50" viewBox="0 0 50 50" fill="none" xmlns="http://www.w3.org/2000/svg">
<path d="M40.2948 21.3047C40.1566 25.0643 37.63 29.2178 32.6636 32.0837C32.0734 32.4482 31.6518 33.0101 31.4839 33.656C31.0757 35.81 31.0885 37.9489 32.2136 39.9877C32.5912 40.6364 32.7137 41.3898 32.5596 42.1153C32.4056 42.8407 31.9848 43.4917 31.3714 43.9534C30.82 44.4043 30.1254 44.6701 29.3965 44.709C28.6676 44.7479 27.9456 44.5578 27.3437 44.1685C26.0064 43.3323 25.6753 41.8842 26.0225 40.3089C26.4565 38.3609 26.614 36.3705 26.8422 34.368C26.9419 33.4156 26.9902 32.4591 26.9869 31.5021C26.9869 29.857 27.8516 28.8512 29.3752 28.0696C34.4059 25.4915 36.1642 19.9384 33.5026 15.379C31.6061 12.1343 27.5462 10.1046 24.0167 10.6408C19.4939 11.3285 16.2601 14.0369 15.5015 17.7753C14.6882 21.7894 16.4498 25.5884 20.0629 27.6273C22.9366 29.2481 23.6631 30.6568 22.8691 33.6863C22.7344 34.0919 22.5144 34.4678 22.2222 34.7915C21.9301 35.1153 21.5718 35.3803 21.1686 35.5707C20.095 36.016 18.9892 35.4919 18.5456 34.4195C17.9027 32.8775 16.6169 32.0171 15.299 31.0688C9.60293 26.985 7.77067 19.5506 10.8726 13.4067C12.3877 10.3657 14.9677 7.90912 18.1788 6.4503C21.3899 4.99149 25.0361 4.61942 28.5041 5.39669C35.4152 6.89631 40.3623 12.8342 40.2948 21.3047Z" fill="white"/>
<path d="M29.1847 24.2385C26.9827 26.2198 23.45 26.1653 21.0777 24.0204C18.7054 21.8755 18.8662 17.6281 20.8109 16.3193L29.1847 24.2385Z" fill="white"/>
</svg>
