<svg width="32" height="32" viewBox="0 0 32 32" fill="none" xmlns="http://www.w3.org/2000/svg">
<path fill-rule="evenodd" clip-rule="evenodd" d="M6.33803 12.8164C6.13269 12.7289 6 12.5315 6 12.3134V5.549C6 5.2458 6.25256 5 6.56415 5H11.4531C11.7647 5 12.0173 5.2458 12.0173 5.549V13.9291C12.0173 14.1424 12.1443 14.3364 12.343 14.4266L15.6201 15.9139C15.7713 15.9825 15.9458 15.9825 16.0969 15.9139L19.657 14.2982C19.856 14.2081 19.9828 14.014 19.9828 13.8007V5.58482C19.9828 5.28162 20.2351 5.03583 20.5467 5.03583H25.4361C25.7477 5.03583 26 5.28162 26 5.58483V12.3492C26 12.5673 25.8671 12.7648 25.662 12.8521L24.7527 13.2394L18.3713 16.1694C17.9389 16.3678 17.9404 16.9668 18.3736 17.1634L19.775 17.7994C19.7844 17.8037 19.7952 17.7969 19.7952 17.7867C19.7946 17.7768 19.8054 17.77 19.8148 17.7739L25.656 20.1856C25.8644 20.2717 26 20.4707 26 20.6911V27.451C26 27.7542 25.7477 28 25.4361 28H20.5366C20.229 28 19.9781 27.7602 19.9727 27.4608L19.8236 19.3584C19.8202 19.1503 19.6954 18.9622 19.5025 18.8726L16.2527 17.365C16.0998 17.2941 15.9224 17.2938 15.7692 17.3641L12.3407 18.9383C12.1432 19.0289 12.0173 19.2224 12.0173 19.4348V27.451C12.0173 27.7542 11.7647 28 11.4531 28H6.56415C6.25256 28 6 27.7542 6 27.451V20.6867C6 20.4685 6.13269 20.2711 6.33803 20.1837L12.0071 17.7699L13.5101 17.0878C13.9423 16.8917 13.945 16.2944 13.5144 16.0947L7.67147 13.3841L6.33803 12.8164Z" fill="#F6F6F6"/>
</svg>
