<svg width="50" height="50" viewBox="0 0 50 50" fill="none" xmlns="http://www.w3.org/2000/svg">
<path d="M39.143 28.8847C39.3231 36.4596 32.8834 43.654 25.0279 43.5138C16.9617 43.664 10.4484 36.0215 10.9686 28.2714C11.0577 25.3734 12.0119 22.566 13.7114 20.2008C13.785 20.0806 13.8383 20.0756 13.9449 20.1758C15.2696 21.4638 16.8161 22.5089 18.512 23.2623C18.6389 23.3149 18.649 23.3524 18.5704 23.4576C17.3057 25.2016 16.6973 27.3263 16.8501 29.4654C16.9161 35.0352 23.1934 39.6613 28.471 36.9352C33.2919 34.5821 34.7382 27.8708 31.6477 23.6228C31.3509 23.3299 31.4092 23.2548 31.7873 23.1446C32.9062 22.6238 33.9567 21.9707 34.9158 21.1996C35.3503 20.8623 35.7638 20.4995 36.154 20.1132C36.253 20.0105 36.3012 20.0356 36.3722 20.1357C38.2095 22.6899 39.1795 25.7528 39.143 28.8847Z" fill="white"/>
<path d="M13.9019 6.25501H16.6118C16.8655 6.25501 16.83 6.22497 16.8351 6.4828C16.6854 12.8787 24.2669 17.7876 29.7018 13.5671C30.8084 12.7225 31.704 11.6389 32.3198 10.3996C32.9356 9.16017 33.2552 7.798 33.254 6.41772C33.254 6.29506 33.2794 6.25 33.4164 6.25H38.9833C39.1076 6.25 39.1356 6.28755 39.1356 6.4052C39.2421 16.6686 28.116 24.4438 18.6315 19.3196C13.9222 16.8188 10.9409 11.6996 10.9561 6.42773C10.9561 6.29506 10.9866 6.25501 11.1261 6.25501H13.9019Z" fill="white"/>
</svg>
