<svg width="125" height="51" viewBox="0 0 125 51" fill="none" xmlns="http://www.w3.org/2000/svg">
<path d="M95.1183 20H89.2974C87.0607 20 85.2489 21.7146 85.2489 23.8314V27.1685C85.2489 29.2854 87.0607 31 89.2974 31H95.2563V30.9943C97.4281 30.9253 99.1675 29.2414 99.1675 27.1686V23.8314C99.1675 21.7146 97.3557 20 95.1183 20ZM94.4907 29.1724H89.925V21.8276H94.4907V29.1724ZM30.4603 20H24.6398C22.4026 20 20.5907 21.7146 20.5907 23.8314V27.1685C20.5907 29.2854 22.4026 31 24.6398 31H30.598V30.9943C32.7704 30.9253 34.5094 29.2414 34.5094 27.1686V23.8314C34.5094 21.7146 32.6975 20 30.4603 20ZM29.8327 29.1724H25.2674V21.8276H29.8327V29.1724ZM63.0373 21.9157H63.0394L59.6584 27.4559V20H57.316C55.8684 20 54.5322 20.7299 53.8094 21.9157L48.91 29.9445L46.7539 26.4119C48.3027 26.3946 49.5539 25.2011 49.5539 23.7318V22.682C49.5539 21.2011 48.2845 20 46.7195 20H35.6351V31H40.3118V26.4138H41.3565L44.1544 31H50.4264L54.9817 23.5326V31H59.6584V30.9962L64.1934 23.5632V31H68.8701V20H66.5439C65.0963 20 63.7601 20.7299 63.0373 21.9157ZM44.8772 24.5862H40.3118V21.8276H44.8772V24.5862ZM79.4177 20H84.0944V31H79.4177V26.4138H74.8526V31H70.1759V20H74.8526V24.5862H79.4177V20ZM104.998 29.1724H111.036V31H104.37C102.133 31 100.321 29.2854 100.321 27.1685V20H104.998V29.1724ZM116.914 21.8276V24.5862H123.314V26.4138H116.914V29.1724H125V31H112.238V20H125V21.8276L116.914 21.8276ZM21.4633 20L15.92 29.0843C15.1973 30.2701 13.8611 31 12.4135 31H10.0712V23.5441L6.69014 29.0843C5.96738 30.2701 4.63118 31 3.18362 31H0.857422V20H5.53616V27.4368L10.0712 20.0038V20H14.7478V27.4674L19.3031 20H21.4633Z" fill="white"/>
</svg>
