<svg width="1440" height="1141" viewBox="0 0 1440 1141" fill="none" xmlns="http://www.w3.org/2000/svg">
<rect width="1440" height="770" fill="#160654"/>
<rect width="1440" height="770" fill="black" fill-opacity="0.47"/>
<g style="mix-blend-mode:overlay">
<line x1="70.25" y1="5" x2="70.25" y2="776" stroke="white" stroke-width="0.5" stroke-dasharray="2 5"/>
<line x1="170.25" y1="5" x2="170.25" y2="776" stroke="white" stroke-width="0.5" stroke-dasharray="2 5"/>
<line x1="270.25" y1="5" x2="270.25" y2="776" stroke="white" stroke-width="0.5" stroke-dasharray="2 5"/>
<line x1="370.25" y1="5" x2="370.25" y2="776" stroke="white" stroke-width="0.5" stroke-dasharray="2 5"/>
<line x1="470.25" y1="5" x2="470.25" y2="776" stroke="white" stroke-width="0.5" stroke-dasharray="2 5"/>
<line x1="570.25" y1="5" x2="570.25" y2="776" stroke="white" stroke-width="0.5" stroke-dasharray="2 5"/>
<line x1="670.25" y1="5" x2="670.25" y2="776" stroke="white" stroke-width="0.5" stroke-dasharray="2 5"/>
<line x1="770.25" y1="5" x2="770.25" y2="776" stroke="white" stroke-width="0.5" stroke-dasharray="2 5"/>
<line x1="870.25" y1="5" x2="870.25" y2="776" stroke="white" stroke-width="0.5" stroke-dasharray="2 5"/>
<line x1="970.25" y1="5" x2="970.25" y2="776" stroke="white" stroke-width="0.5" stroke-dasharray="2 5"/>
<line x1="1070.25" y1="5" x2="1070.25" y2="776" stroke="white" stroke-width="0.5" stroke-dasharray="2 5"/>
<line x1="1170.25" y1="5" x2="1170.25" y2="776" stroke="white" stroke-width="0.5" stroke-dasharray="2 5"/>
<line x1="1270.25" y1="5" x2="1270.25" y2="776" stroke="white" stroke-width="0.5" stroke-dasharray="2 5"/>
<line x1="1370.25" y1="5" x2="1370.25" y2="776" stroke="white" stroke-width="0.5" stroke-dasharray="2 5"/>
<line x1="-30" y1="1140.25" x2="1470" y2="1140.25" stroke="white" stroke-width="0.5" stroke-dasharray="2 5"/>
<line x1="-30" y1="740.25" x2="1470" y2="740.25" stroke="white" stroke-width="0.5" stroke-dasharray="2 5"/>
<line x1="-30" y1="640.25" x2="1470" y2="640.25" stroke="white" stroke-width="0.5" stroke-dasharray="2 5"/>
<line x1="-30" y1="540.25" x2="1470" y2="540.25" stroke="white" stroke-width="0.5" stroke-dasharray="2 5"/>
<line x1="-30" y1="440.25" x2="1470" y2="440.25" stroke="white" stroke-width="0.5" stroke-dasharray="2 5"/>
<line x1="-30" y1="340.25" x2="1470" y2="340.25" stroke="white" stroke-width="0.5" stroke-dasharray="2 5"/>
<line x1="-30" y1="240.25" x2="1470" y2="240.25" stroke="white" stroke-width="0.5" stroke-dasharray="2 5"/>
<line x1="-30" y1="140.25" x2="1470" y2="140.25" stroke="white" stroke-width="0.5" stroke-dasharray="2 5"/>
<line x1="-30" y1="40.25" x2="1470" y2="40.25" stroke="white" stroke-width="0.5" stroke-dasharray="2 5"/>
</g>
<g style="mix-blend-mode:overlay" opacity="0.5">
<line x1="70.25" y1="5" x2="70.25" y2="776" stroke="white" stroke-width="0.5" stroke-dasharray="2 5"/>
<line x1="170.25" y1="5" x2="170.25" y2="776" stroke="white" stroke-width="0.5" stroke-dasharray="2 5"/>
<line x1="270.25" y1="5" x2="270.25" y2="776" stroke="white" stroke-width="0.5" stroke-dasharray="2 5"/>
<line x1="370.25" y1="5" x2="370.25" y2="776" stroke="white" stroke-width="0.5" stroke-dasharray="2 5"/>
<line x1="470.25" y1="5" x2="470.25" y2="776" stroke="white" stroke-width="0.5" stroke-dasharray="2 5"/>
<line x1="570.25" y1="5" x2="570.25" y2="776" stroke="white" stroke-width="0.5" stroke-dasharray="2 5"/>
<line x1="670.25" y1="5" x2="670.25" y2="776" stroke="white" stroke-width="0.5" stroke-dasharray="2 5"/>
<line x1="770.25" y1="5" x2="770.25" y2="776" stroke="white" stroke-width="0.5" stroke-dasharray="2 5"/>
<line x1="870.25" y1="5" x2="870.25" y2="776" stroke="white" stroke-width="0.5" stroke-dasharray="2 5"/>
<line x1="970.25" y1="5" x2="970.25" y2="776" stroke="white" stroke-width="0.5" stroke-dasharray="2 5"/>
<line x1="1070.25" y1="5" x2="1070.25" y2="776" stroke="white" stroke-width="0.5" stroke-dasharray="2 5"/>
<line x1="1170.25" y1="5" x2="1170.25" y2="776" stroke="white" stroke-width="0.5" stroke-dasharray="2 5"/>
<line x1="1270.25" y1="5" x2="1270.25" y2="776" stroke="white" stroke-width="0.5" stroke-dasharray="2 5"/>
<line x1="1370.25" y1="5" x2="1370.25" y2="776" stroke="white" stroke-width="0.5" stroke-dasharray="2 5"/>
<line x1="-30" y1="1140.25" x2="1470" y2="1140.25" stroke="white" stroke-width="0.5" stroke-dasharray="2 5"/>
<line x1="-30" y1="740.25" x2="1470" y2="740.25" stroke="white" stroke-width="0.5" stroke-dasharray="2 5"/>
<line x1="-30" y1="640.25" x2="1470" y2="640.25" stroke="white" stroke-width="0.5" stroke-dasharray="2 5"/>
<line x1="-30" y1="540.25" x2="1470" y2="540.25" stroke="white" stroke-width="0.5" stroke-dasharray="2 5"/>
<line x1="-30" y1="440.25" x2="1470" y2="440.25" stroke="white" stroke-width="0.5" stroke-dasharray="2 5"/>
<line x1="-30" y1="340.25" x2="1470" y2="340.25" stroke="white" stroke-width="0.5" stroke-dasharray="2 5"/>
<line x1="-30" y1="240.25" x2="1470" y2="240.25" stroke="white" stroke-width="0.5" stroke-dasharray="2 5"/>
<line x1="-30" y1="140.25" x2="1470" y2="140.25" stroke="white" stroke-width="0.5" stroke-dasharray="2 5"/>
<line x1="-30" y1="40.25" x2="1470" y2="40.25" stroke="white" stroke-width="0.5" stroke-dasharray="2 5"/>
</g>
</svg>
