<svg width="375" height="400" viewBox="0 0 375 400" fill="none" xmlns="http://www.w3.org/2000/svg">
<path d="M187.087 50.4351V349.722" stroke="url(#paint0_linear)" stroke-width="1.52972" stroke-miterlimit="10" stroke-linecap="round"/>
<path d="M163.694 52.2598L210.516 347.897" stroke="url(#paint1_linear)" stroke-width="1.52972" stroke-miterlimit="10" stroke-linecap="round"/>
<path d="M140.85 57.7339L233.362 342.423" stroke="url(#paint2_linear)" stroke-width="1.52972" stroke-miterlimit="10" stroke-linecap="round"/>
<path d="M119.171 66.7479L255.038 333.409" stroke="url(#paint3_linear)" stroke-width="1.52972" stroke-miterlimit="10" stroke-linecap="round"/>
<path d="M99.1357 79.0098L275.073 321.147" stroke="url(#paint4_linear)" stroke-width="1.52972" stroke-miterlimit="10" stroke-linecap="round"/>
<path d="M81.291 94.2643L292.919 305.893" stroke="url(#paint5_linear)" stroke-width="1.52972" stroke-miterlimit="10" stroke-linecap="round"/>
<path d="M66.0371 112.11L308.174 288.047" stroke="url(#paint6_linear)" stroke-width="1.52972" stroke-miterlimit="10" stroke-linecap="round"/>
<path d="M53.7744 132.145L320.435 268.012" stroke="url(#paint7_linear)" stroke-width="1.52972" stroke-miterlimit="10" stroke-linecap="round"/>
<path d="M44.7607 153.822L329.45 246.334" stroke="url(#paint8_linear)" stroke-width="1.52972" stroke-miterlimit="10" stroke-linecap="round"/>
<path d="M39.2861 176.668L334.923 223.489" stroke="url(#paint9_linear)" stroke-width="1.52972" stroke-miterlimit="10" stroke-linecap="round"/>
<path d="M37.4619 200.06H336.748" stroke="url(#paint10_linear)" stroke-width="1.52972" stroke-miterlimit="10" stroke-linecap="round"/>
<path d="M39.2861 223.489L334.923 176.668" stroke="url(#paint11_linear)" stroke-width="1.52972" stroke-miterlimit="10" stroke-linecap="round"/>
<path d="M44.7607 246.334L329.45 153.822" stroke="url(#paint12_linear)" stroke-width="1.52972" stroke-miterlimit="10" stroke-linecap="round"/>
<path d="M53.7744 268.012L320.435 132.145" stroke="url(#paint13_linear)" stroke-width="1.52972" stroke-miterlimit="10" stroke-linecap="round"/>
<path d="M66.0371 288.047L308.174 112.11" stroke="url(#paint14_linear)" stroke-width="1.52972" stroke-miterlimit="10" stroke-linecap="round"/>
<path d="M81.291 305.893L292.919 94.2643" stroke="url(#paint15_linear)" stroke-width="1.52972" stroke-miterlimit="10" stroke-linecap="round"/>
<path d="M99.1357 321.147L275.073 79.0098" stroke="url(#paint16_linear)" stroke-width="1.52972" stroke-miterlimit="10" stroke-linecap="round"/>
<path d="M119.171 333.409L255.038 66.7479" stroke="url(#paint17_linear)" stroke-width="1.52972" stroke-miterlimit="10" stroke-linecap="round"/>
<path d="M140.85 342.423L233.362 57.7339" stroke="url(#paint18_linear)" stroke-width="1.52972" stroke-miterlimit="10" stroke-linecap="round"/>
<path d="M163.694 347.897L210.516 52.2598" stroke="url(#paint19_linear)" stroke-width="1.52972" stroke-miterlimit="10" stroke-linecap="round"/>
<path d="M187.087 349.722C269.743 349.722 336.749 282.716 336.749 200.06C336.749 117.404 269.743 50.3986 187.087 50.3986C104.432 50.3986 37.4258 117.404 37.4258 200.06C37.4258 282.716 104.432 349.722 187.087 349.722Z" stroke="url(#paint20_linear)" stroke-width="1.52972" stroke-miterlimit="10" stroke-linecap="round"/>
<path opacity="0.5" d="M286.117 299.117C340.815 244.419 340.815 155.737 286.117 101.039C231.419 46.3413 142.737 46.3413 88.039 101.039C33.3413 155.737 33.3413 244.419 88.039 299.117C142.737 353.815 231.419 353.815 286.117 299.117Z" stroke="url(#paint21_linear)" stroke-width="1.52972" stroke-miterlimit="10" stroke-linecap="round"/>
<path opacity="0.5" d="M187.087 330.562C259.162 330.562 317.589 272.135 317.589 200.06C317.589 127.986 259.162 69.5579 187.087 69.5579C115.013 69.5579 56.585 127.986 56.585 200.06C56.585 272.135 115.013 330.562 187.087 330.562Z" stroke="url(#paint22_linear)" stroke-width="1.52972" stroke-miterlimit="10" stroke-linecap="round"/>
<path opacity="0.5" d="M187.088 320.964C253.862 320.964 307.992 266.834 307.992 200.06C307.992 133.287 253.862 79.1558 187.088 79.1558C120.314 79.1558 66.1836 133.287 66.1836 200.06C66.1836 266.834 120.314 320.964 187.088 320.964Z" stroke="url(#paint23_linear)" stroke-width="1.52972" stroke-miterlimit="10" stroke-linecap="round"/>
<path opacity="0.5" d="M187.088 311.367C248.561 311.367 298.394 261.533 298.394 200.06C298.394 138.587 248.561 88.7537 187.088 88.7537C125.615 88.7537 75.7812 138.587 75.7812 200.06C75.7812 261.533 125.615 311.367 187.088 311.367Z" stroke="url(#paint24_linear)" stroke-width="1.52972" stroke-miterlimit="10" stroke-linecap="round"/>
<path opacity="0.5" d="M259.022 272.022C298.756 232.288 298.756 167.868 259.022 128.134C219.289 88.4005 154.868 88.4006 115.134 128.134C75.4008 167.868 75.4008 232.288 115.134 272.022C154.868 311.755 219.289 311.755 259.022 272.022Z" stroke="url(#paint25_linear)" stroke-width="1.52972" stroke-miterlimit="10" stroke-linecap="round"/>
<path opacity="0.5" d="M187.088 292.207C237.979 292.207 279.235 250.952 279.235 200.06C279.235 149.169 237.979 107.913 187.088 107.913C136.196 107.913 94.9404 149.169 94.9404 200.06C94.9404 250.952 136.196 292.207 187.088 292.207Z" stroke="url(#paint26_linear)" stroke-width="1.52972" stroke-miterlimit="10" stroke-linecap="round"/>
<path opacity="0.5" d="M187.088 282.609C232.679 282.609 269.637 245.651 269.637 200.06C269.637 154.469 232.679 117.511 187.088 117.511C141.498 117.511 104.539 154.469 104.539 200.06C104.539 245.651 141.498 282.609 187.088 282.609Z" stroke="url(#paint27_linear)" stroke-width="1.52972" stroke-miterlimit="10" stroke-linecap="round"/>
<path opacity="0.5" d="M238.687 251.688C267.191 223.184 267.191 176.972 238.687 148.468C210.184 119.965 163.971 119.965 135.468 148.468C106.965 176.972 106.965 223.184 135.468 251.688C163.971 280.191 210.184 280.191 238.687 251.688Z" stroke="url(#paint28_linear)" stroke-width="1.52972" stroke-miterlimit="10" stroke-linecap="round"/>
<path opacity="0.5" d="M187.088 263.45C222.097 263.45 250.478 235.069 250.478 200.06C250.478 165.051 222.097 136.67 187.088 136.67C152.079 136.67 123.698 165.051 123.698 200.06C123.698 235.069 152.079 263.45 187.088 263.45Z" stroke="url(#paint29_linear)" stroke-width="1.52972" stroke-miterlimit="10" stroke-linecap="round"/>
<path opacity="0.5" d="M187.352 253.75C217.081 253.75 241.18 229.65 241.18 199.922C241.18 170.193 217.081 146.093 187.352 146.093C157.623 146.093 133.523 170.193 133.523 199.922C133.523 229.65 157.623 253.75 187.352 253.75Z" stroke="url(#paint30_linear)" stroke-width="1.52972" stroke-miterlimit="10" stroke-linecap="round"/>
<path opacity="0.5" d="M187.088 244.291C211.516 244.291 231.319 224.488 231.319 200.06C231.319 175.632 211.516 155.83 187.088 155.83C162.66 155.83 142.857 175.632 142.857 200.06C142.857 224.488 162.66 244.291 187.088 244.291Z" stroke="url(#paint31_linear)" stroke-width="1.52972" stroke-miterlimit="10" stroke-linecap="round"/>
<path opacity="0.5" d="M211.567 224.567C225.092 211.042 225.092 189.114 211.567 175.589C198.042 162.064 176.114 162.064 162.589 175.589C149.065 189.114 149.065 211.042 162.589 224.567C176.114 238.092 198.042 238.092 211.567 224.567Z" stroke="url(#paint32_linear)" stroke-width="1.52972" stroke-miterlimit="10" stroke-linecap="round"/>
<path opacity="0.5" d="M187.088 225.131C200.934 225.131 212.159 213.907 212.159 200.06C212.159 186.214 200.934 174.989 187.088 174.989C173.241 174.989 162.017 186.214 162.017 200.06C162.017 213.907 173.241 225.131 187.088 225.131Z" stroke="url(#paint33_linear)" stroke-width="1.52972" stroke-miterlimit="10" stroke-linecap="round"/>
<path opacity="0.5" d="M187.088 215.534C195.633 215.534 202.561 208.606 202.561 200.06C202.561 191.514 195.633 184.587 187.088 184.587C178.542 184.587 171.614 191.514 171.614 200.06C171.614 208.606 178.542 215.534 187.088 215.534Z" stroke="url(#paint34_linear)" stroke-width="1.52972" stroke-miterlimit="10" stroke-linecap="round"/>
<path opacity="0.5" fill-rule="evenodd" clip-rule="evenodd" d="M192.999 200.06C192.999 203.308 190.372 205.936 187.124 205.936C183.876 205.936 181.248 203.308 181.248 200.06C181.248 196.812 183.876 194.185 187.124 194.185C190.372 194.185 192.999 196.812 192.999 200.06Z" stroke="url(#paint35_linear)" stroke-width="1.52972" stroke-miterlimit="10" stroke-linecap="round"/>
<g filter="url(#filter0_d)">
<path d="M186.868 244.447C211.331 244.447 231.162 224.616 231.162 200.153C231.162 175.691 211.331 155.86 186.868 155.86C162.406 155.86 142.575 175.691 142.575 200.153C142.575 224.616 162.406 244.447 186.868 244.447Z" fill="url(#paint36_linear)"/>
<path d="M228.037 200.153C228.037 222.89 209.605 241.322 186.868 241.322C164.132 241.322 145.7 222.89 145.7 200.153C145.7 177.417 164.132 158.985 186.868 158.985C209.605 158.985 228.037 177.417 228.037 200.153Z" stroke="#00D1FF" stroke-width="6.25"/>
</g>
<path d="M175.208 191.316C174.879 190.941 174.475 190.753 173.994 190.753H164.158C164.071 190.753 163.999 190.725 163.945 190.67C163.891 190.616 163.863 190.554 163.863 190.488V183.869C163.863 183.803 163.891 183.742 163.945 183.687C163.999 183.632 164.071 183.604 164.158 183.604H174.552C177.175 183.604 179.437 184.675 181.339 186.814L183.864 189.892L178.946 195.883L175.208 191.316ZM193.373 186.781C195.274 184.663 197.548 183.604 200.193 183.604H210.554C210.641 183.604 210.706 183.626 210.751 183.67C210.794 183.714 210.816 183.78 210.816 183.869V190.488C210.816 190.554 210.794 190.616 210.751 190.67C210.706 190.725 210.641 190.753 210.554 190.753H200.718C200.237 190.753 199.833 190.941 199.504 191.316L192.258 200.119L199.537 208.989C199.865 209.343 200.258 209.519 200.718 209.519H210.554C210.641 209.519 210.706 209.547 210.751 209.602C210.794 209.657 210.816 209.729 210.816 209.817V216.436C210.816 216.502 210.794 216.564 210.751 216.618C210.706 216.673 210.641 216.701 210.554 216.701H200.193C197.548 216.701 195.285 215.631 193.405 213.49L187.373 206.143L181.339 213.49C179.437 215.631 177.164 216.701 174.519 216.701H164.158C164.071 216.701 164.004 216.673 163.961 216.618C163.917 216.563 163.896 216.492 163.896 216.402V209.783C163.896 209.717 163.917 209.656 163.961 209.601C164.004 209.546 164.071 209.518 164.158 209.518H173.994C174.453 209.518 174.857 209.331 175.208 208.955L182.322 200.284L193.373 186.781Z" fill="#06061B"/>
<defs>
<filter id="filter0_d" x="126.453" y="139.738" width="120.831" height="120.831" filterUnits="userSpaceOnUse" color-interpolation-filters="sRGB">
<feFlood flood-opacity="0" result="BackgroundImageFix"/>
<feColorMatrix in="SourceAlpha" type="matrix" values="0 0 0 0 0 0 0 0 0 0 0 0 0 0 0 0 0 0 127 0"/>
<feOffset/>
<feGaussianBlur stdDeviation="8.06119"/>
<feColorMatrix type="matrix" values="0 0 0 0 0 0 0 0 0 0.819608 0 0 0 0 1 0 0 0 0.6 0"/>
<feBlend mode="normal" in2="BackgroundImageFix" result="effect1_dropShadow"/>
<feBlend mode="normal" in="SourceGraphic" in2="effect1_dropShadow" result="shape"/>
</filter>
<linearGradient id="paint0_linear" x1="187.587" y1="50.4351" x2="187.587" y2="349.722" gradientUnits="userSpaceOnUse">
<stop stop-color="#ED1EFF"/>
<stop offset="1" stop-color="#00D1FF"/>
</linearGradient>
<linearGradient id="paint1_linear" x1="187.105" y1="52.2598" x2="187.105" y2="347.897" gradientUnits="userSpaceOnUse">
<stop stop-color="#ED1EFF"/>
<stop offset="1" stop-color="#00D1FF"/>
</linearGradient>
<linearGradient id="paint2_linear" x1="187.106" y1="57.7339" x2="187.106" y2="342.423" gradientUnits="userSpaceOnUse">
<stop stop-color="#ED1EFF"/>
<stop offset="1" stop-color="#00D1FF"/>
</linearGradient>
<linearGradient id="paint3_linear" x1="187.104" y1="66.7479" x2="187.104" y2="333.409" gradientUnits="userSpaceOnUse">
<stop stop-color="#ED1EFF"/>
<stop offset="1" stop-color="#00D1FF"/>
</linearGradient>
<linearGradient id="paint4_linear" x1="187.104" y1="79.0098" x2="187.104" y2="321.147" gradientUnits="userSpaceOnUse">
<stop stop-color="#ED1EFF"/>
<stop offset="1" stop-color="#00D1FF"/>
</linearGradient>
<linearGradient id="paint5_linear" x1="187.105" y1="94.2643" x2="187.105" y2="305.893" gradientUnits="userSpaceOnUse">
<stop stop-color="#ED1EFF"/>
<stop offset="1" stop-color="#00D1FF"/>
</linearGradient>
<linearGradient id="paint6_linear" x1="187.106" y1="112.11" x2="187.106" y2="288.047" gradientUnits="userSpaceOnUse">
<stop stop-color="#ED1EFF"/>
<stop offset="1" stop-color="#00D1FF"/>
</linearGradient>
<linearGradient id="paint7_linear" x1="187.105" y1="132.145" x2="187.105" y2="268.012" gradientUnits="userSpaceOnUse">
<stop stop-color="#ED1EFF"/>
<stop offset="1" stop-color="#00D1FF"/>
</linearGradient>
<linearGradient id="paint8_linear" x1="187.105" y1="153.822" x2="187.105" y2="246.334" gradientUnits="userSpaceOnUse">
<stop stop-color="#ED1EFF"/>
<stop offset="1" stop-color="#00D1FF"/>
</linearGradient>
<linearGradient id="paint9_linear" x1="187.105" y1="176.668" x2="187.105" y2="223.489" gradientUnits="userSpaceOnUse">
<stop stop-color="#ED1EFF"/>
<stop offset="1" stop-color="#00D1FF"/>
</linearGradient>
<linearGradient id="paint10_linear" x1="187.105" y1="200.06" x2="187.105" y2="201.06" gradientUnits="userSpaceOnUse">
<stop stop-color="#ED1EFF"/>
<stop offset="1" stop-color="#00D1FF"/>
</linearGradient>
<linearGradient id="paint11_linear" x1="187.105" y1="176.668" x2="187.105" y2="223.489" gradientUnits="userSpaceOnUse">
<stop stop-color="#ED1EFF"/>
<stop offset="1" stop-color="#00D1FF"/>
</linearGradient>
<linearGradient id="paint12_linear" x1="187.105" y1="153.822" x2="187.105" y2="246.334" gradientUnits="userSpaceOnUse">
<stop stop-color="#ED1EFF"/>
<stop offset="1" stop-color="#00D1FF"/>
</linearGradient>
<linearGradient id="paint13_linear" x1="187.105" y1="132.145" x2="187.105" y2="268.012" gradientUnits="userSpaceOnUse">
<stop stop-color="#ED1EFF"/>
<stop offset="1" stop-color="#00D1FF"/>
</linearGradient>
<linearGradient id="paint14_linear" x1="187.106" y1="112.11" x2="187.106" y2="288.047" gradientUnits="userSpaceOnUse">
<stop stop-color="#ED1EFF"/>
<stop offset="1" stop-color="#00D1FF"/>
</linearGradient>
<linearGradient id="paint15_linear" x1="187.105" y1="94.2643" x2="187.105" y2="305.893" gradientUnits="userSpaceOnUse">
<stop stop-color="#ED1EFF"/>
<stop offset="1" stop-color="#00D1FF"/>
</linearGradient>
<linearGradient id="paint16_linear" x1="187.104" y1="79.0098" x2="187.104" y2="321.147" gradientUnits="userSpaceOnUse">
<stop stop-color="#ED1EFF"/>
<stop offset="1" stop-color="#00D1FF"/>
</linearGradient>
<linearGradient id="paint17_linear" x1="187.104" y1="66.7479" x2="187.104" y2="333.409" gradientUnits="userSpaceOnUse">
<stop stop-color="#ED1EFF"/>
<stop offset="1" stop-color="#00D1FF"/>
</linearGradient>
<linearGradient id="paint18_linear" x1="187.106" y1="57.7339" x2="187.106" y2="342.423" gradientUnits="userSpaceOnUse">
<stop stop-color="#ED1EFF"/>
<stop offset="1" stop-color="#00D1FF"/>
</linearGradient>
<linearGradient id="paint19_linear" x1="187.105" y1="52.2598" x2="187.105" y2="347.897" gradientUnits="userSpaceOnUse">
<stop stop-color="#ED1EFF"/>
<stop offset="1" stop-color="#00D1FF"/>
</linearGradient>
<linearGradient id="paint20_linear" x1="187.087" y1="50.3986" x2="187.087" y2="349.722" gradientUnits="userSpaceOnUse">
<stop stop-color="#ED1EFF"/>
<stop offset="1" stop-color="#00D1FF"/>
</linearGradient>
<linearGradient id="paint21_linear" x1="88.039" y1="101.039" x2="286.117" y2="299.117" gradientUnits="userSpaceOnUse">
<stop stop-color="#ED1EFF"/>
<stop offset="1" stop-color="#00D1FF"/>
</linearGradient>
<linearGradient id="paint22_linear" x1="187.087" y1="69.5579" x2="187.087" y2="330.562" gradientUnits="userSpaceOnUse">
<stop stop-color="#ED1EFF"/>
<stop offset="1" stop-color="#00D1FF"/>
</linearGradient>
<linearGradient id="paint23_linear" x1="187.088" y1="79.1558" x2="187.088" y2="320.964" gradientUnits="userSpaceOnUse">
<stop stop-color="#ED1EFF"/>
<stop offset="1" stop-color="#00D1FF"/>
</linearGradient>
<linearGradient id="paint24_linear" x1="187.088" y1="88.7537" x2="187.088" y2="311.367" gradientUnits="userSpaceOnUse">
<stop stop-color="#ED1EFF"/>
<stop offset="1" stop-color="#00D1FF"/>
</linearGradient>
<linearGradient id="paint25_linear" x1="115.134" y1="128.134" x2="259.022" y2="272.022" gradientUnits="userSpaceOnUse">
<stop stop-color="#ED1EFF"/>
<stop offset="1" stop-color="#00D1FF"/>
</linearGradient>
<linearGradient id="paint26_linear" x1="187.088" y1="107.913" x2="187.088" y2="292.207" gradientUnits="userSpaceOnUse">
<stop stop-color="#ED1EFF"/>
<stop offset="1" stop-color="#00D1FF"/>
</linearGradient>
<linearGradient id="paint27_linear" x1="187.088" y1="117.511" x2="187.088" y2="282.609" gradientUnits="userSpaceOnUse">
<stop stop-color="#ED1EFF"/>
<stop offset="1" stop-color="#00D1FF"/>
</linearGradient>
<linearGradient id="paint28_linear" x1="135.468" y1="148.468" x2="238.687" y2="251.688" gradientUnits="userSpaceOnUse">
<stop stop-color="#ED1EFF"/>
<stop offset="1" stop-color="#00D1FF"/>
</linearGradient>
<linearGradient id="paint29_linear" x1="187.088" y1="136.67" x2="187.088" y2="263.45" gradientUnits="userSpaceOnUse">
<stop stop-color="#ED1EFF"/>
<stop offset="1" stop-color="#00D1FF"/>
</linearGradient>
<linearGradient id="paint30_linear" x1="187.352" y1="146.093" x2="187.352" y2="253.75" gradientUnits="userSpaceOnUse">
<stop stop-color="#ED1EFF"/>
<stop offset="1" stop-color="#00D1FF"/>
</linearGradient>
<linearGradient id="paint31_linear" x1="187.088" y1="155.83" x2="187.088" y2="244.291" gradientUnits="userSpaceOnUse">
<stop stop-color="#ED1EFF"/>
<stop offset="1" stop-color="#00D1FF"/>
</linearGradient>
<linearGradient id="paint32_linear" x1="162.589" y1="175.589" x2="211.567" y2="224.567" gradientUnits="userSpaceOnUse">
<stop stop-color="#ED1EFF"/>
<stop offset="1" stop-color="#00D1FF"/>
</linearGradient>
<linearGradient id="paint33_linear" x1="187.088" y1="174.989" x2="187.088" y2="225.131" gradientUnits="userSpaceOnUse">
<stop stop-color="#ED1EFF"/>
<stop offset="1" stop-color="#00D1FF"/>
</linearGradient>
<linearGradient id="paint34_linear" x1="187.088" y1="184.587" x2="187.088" y2="215.534" gradientUnits="userSpaceOnUse">
<stop stop-color="#ED1EFF"/>
<stop offset="1" stop-color="#00D1FF"/>
</linearGradient>
<linearGradient id="paint35_linear" x1="187.124" y1="194.185" x2="187.124" y2="205.936" gradientUnits="userSpaceOnUse">
<stop stop-color="#ED1EFF"/>
<stop offset="1" stop-color="#00D1FF"/>
</linearGradient>
<linearGradient id="paint36_linear" x1="186.868" y1="155.86" x2="186.868" y2="244.447" gradientUnits="userSpaceOnUse">
<stop stop-color="#00D1FF"/>
<stop offset="1" stop-color="#00D1FF" stop-opacity="0.51"/>
</linearGradient>
</defs>
</svg>
