
<svg width="570" height="570" viewBox="0 0 570 570" fill="none" xmlns="http://www.w3.org/2000/svg">
<g filter="url(#filter0_d_1052_54774)">
<path d="M284.591 69.5865V499.571" stroke="url(#paint0_linear_1052_54774)" stroke-width="1.52972" stroke-miterlimit="10" stroke-linecap="round"/>
<path d="M250.983 72.2081L318.252 496.949" stroke="url(#paint1_linear_1052_54774)" stroke-width="1.52972" stroke-miterlimit="10" stroke-linecap="round"/>
<path d="M218.162 80.0727L351.073 489.084" stroke="url(#paint2_linear_1052_54774)" stroke-width="1.52972" stroke-miterlimit="10" stroke-linecap="round"/>
<path d="M187.017 93.0231L382.216 476.134" stroke="url(#paint3_linear_1052_54774)" stroke-width="1.52972" stroke-miterlimit="10" stroke-linecap="round"/>
<path d="M158.233 110.64L411.001 458.517" stroke="url(#paint4_linear_1052_54774)" stroke-width="1.52972" stroke-miterlimit="10" stroke-linecap="round"/>
<path d="M132.595 132.556L436.64 436.601" stroke="url(#paint5_linear_1052_54774)" stroke-width="1.52972" stroke-miterlimit="10" stroke-linecap="round"/>
<path d="M110.679 158.194L458.557 410.963" stroke="url(#paint6_linear_1052_54774)" stroke-width="1.52972" stroke-miterlimit="10" stroke-linecap="round"/>
<path d="M93.0615 186.979L476.172 382.178" stroke="url(#paint7_linear_1052_54774)" stroke-width="1.52972" stroke-miterlimit="10" stroke-linecap="round"/>
<path d="M80.1118 218.123L489.124 351.034" stroke="url(#paint8_linear_1052_54774)" stroke-width="1.52972" stroke-miterlimit="10" stroke-linecap="round"/>
<path d="M72.2466 250.944L496.987 318.213" stroke="url(#paint9_linear_1052_54774)" stroke-width="1.52972" stroke-miterlimit="10" stroke-linecap="round"/>
<path d="M69.6255 284.552H499.609" stroke="url(#paint10_linear_1052_54774)" stroke-width="1.52972" stroke-miterlimit="10" stroke-linecap="round"/>
<path d="M72.2466 318.213L496.987 250.944" stroke="url(#paint11_linear_1052_54774)" stroke-width="1.52972" stroke-miterlimit="10" stroke-linecap="round"/>
<path d="M80.1118 351.034L489.124 218.123" stroke="url(#paint12_linear_1052_54774)" stroke-width="1.52972" stroke-miterlimit="10" stroke-linecap="round"/>
<path d="M93.0615 382.178L476.172 186.979" stroke="url(#paint13_linear_1052_54774)" stroke-width="1.52972" stroke-miterlimit="10" stroke-linecap="round"/>
<path d="M110.679 410.963L458.557 158.194" stroke="url(#paint14_linear_1052_54774)" stroke-width="1.52972" stroke-miterlimit="10" stroke-linecap="round"/>
<path d="M132.595 436.601L436.64 132.556" stroke="url(#paint15_linear_1052_54774)" stroke-width="1.52972" stroke-miterlimit="10" stroke-linecap="round"/>
<path d="M158.233 458.517L411.001 110.64" stroke="url(#paint16_linear_1052_54774)" stroke-width="1.52972" stroke-miterlimit="10" stroke-linecap="round"/>
<path d="M187.017 476.134L382.216 93.0231" stroke="url(#paint17_linear_1052_54774)" stroke-width="1.52972" stroke-miterlimit="10" stroke-linecap="round"/>
<path d="M218.162 489.084L351.073 80.0727" stroke="url(#paint18_linear_1052_54774)" stroke-width="1.52972" stroke-miterlimit="10" stroke-linecap="round"/>
<path d="M250.983 496.949L318.252 72.2081" stroke="url(#paint19_linear_1052_54774)" stroke-width="1.52972" stroke-miterlimit="10" stroke-linecap="round"/>
<path d="M284.591 499.571C403.343 499.571 499.61 403.304 499.61 284.552C499.61 165.801 403.343 69.5342 284.591 69.5342C165.84 69.5342 69.5732 165.801 69.5732 284.552C69.5732 403.304 165.84 499.571 284.591 499.571Z" stroke="url(#paint20_linear_1052_54774)" stroke-width="1.52972" stroke-miterlimit="10" stroke-linecap="round"/>
<path opacity="0.35" d="M426.867 426.867C505.451 348.283 505.451 220.873 426.867 142.289C348.283 63.705 220.873 63.705 142.289 142.289C63.7049 220.873 63.7049 348.283 142.289 426.867C220.873 505.451 348.283 505.451 426.867 426.867Z" stroke="url(#paint21_linear_1052_54774)" stroke-width="1.52972" stroke-miterlimit="10" stroke-linecap="round"/>
<path opacity="0.35" d="M284.591 472.044C388.14 472.044 472.083 388.101 472.083 284.552C472.083 181.003 388.14 97.0602 284.591 97.0602C181.042 97.0602 97.0991 181.003 97.0991 284.552C97.0991 388.101 181.042 472.044 284.591 472.044Z" stroke="url(#paint22_linear_1052_54774)" stroke-width="1.52972" stroke-miterlimit="10" stroke-linecap="round"/>
<path opacity="0.35" d="M284.592 458.255C380.525 458.255 458.295 380.486 458.295 284.552C458.295 188.619 380.525 110.849 284.592 110.849C188.659 110.849 110.889 188.619 110.889 284.552C110.889 380.486 188.659 458.255 284.592 458.255Z" stroke="url(#paint23_linear_1052_54774)" stroke-width="1.52972" stroke-miterlimit="10" stroke-linecap="round"/>
<path opacity="0.35" d="M284.591 444.466C372.909 444.466 444.505 372.87 444.505 284.552C444.505 196.235 372.909 124.639 284.591 124.639C196.273 124.639 124.678 196.235 124.678 284.552C124.678 372.87 196.273 444.466 284.591 444.466Z" stroke="url(#paint24_linear_1052_54774)" stroke-width="1.52972" stroke-miterlimit="10" stroke-linecap="round"/>
<path opacity="0.35" d="M387.94 387.94C445.025 330.855 445.025 238.301 387.94 181.216C330.855 124.131 238.302 124.131 181.217 181.216C124.132 238.301 124.132 330.855 181.217 387.94C238.302 445.025 330.855 445.025 387.94 387.94Z" stroke="url(#paint25_linear_1052_54774)" stroke-width="1.52972" stroke-miterlimit="10" stroke-linecap="round"/>
<path opacity="0.35" d="M284.592 416.94C357.707 416.94 416.979 357.668 416.979 284.552C416.979 211.437 357.707 152.165 284.592 152.165C211.476 152.165 152.204 211.437 152.204 284.552C152.204 357.668 211.476 416.94 284.592 416.94Z" stroke="url(#paint26_linear_1052_54774)" stroke-width="1.52972" stroke-miterlimit="10" stroke-linecap="round"/>
<path opacity="0.35" d="M284.592 403.151C350.092 403.151 403.191 350.052 403.191 284.552C403.191 219.052 350.092 165.954 284.592 165.954C219.092 165.954 165.994 219.052 165.994 284.552C165.994 350.052 219.092 403.151 284.592 403.151Z" stroke="url(#paint27_linear_1052_54774)" stroke-width="1.52972" stroke-miterlimit="10" stroke-linecap="round"/>
<path opacity="0.35" d="M358.725 358.725C399.676 317.775 399.676 251.381 358.725 210.431C317.775 169.48 251.381 169.48 210.43 210.431C169.48 251.381 169.48 317.775 210.43 358.725C251.381 399.676 317.775 399.676 358.725 358.725Z" stroke="url(#paint28_linear_1052_54774)" stroke-width="1.52972" stroke-miterlimit="10" stroke-linecap="round"/>
<path opacity="0.35" d="M284.592 375.624C334.889 375.624 375.664 334.85 375.664 284.552C375.664 234.255 334.889 193.48 284.592 193.48C234.294 193.48 193.52 234.255 193.52 284.552C193.52 334.85 234.294 375.624 284.592 375.624Z" stroke="url(#paint29_linear_1052_54774)" stroke-width="1.52972" stroke-miterlimit="10" stroke-linecap="round"/>
<path opacity="0.35" d="M284.971 361.689C327.683 361.689 362.307 327.065 362.307 284.353C362.307 241.642 327.683 207.018 284.971 207.018C242.26 207.018 207.636 241.642 207.636 284.353C207.636 327.065 242.26 361.689 284.971 361.689Z" stroke="url(#paint30_linear_1052_54774)" stroke-width="1.52972" stroke-miterlimit="10" stroke-linecap="round"/>
<path opacity="0.35" d="M284.592 348.098C319.687 348.098 348.138 319.648 348.138 284.552C348.138 249.457 319.687 221.006 284.592 221.006C249.496 221.006 221.046 249.457 221.046 284.552C221.046 319.648 249.496 348.098 284.592 348.098Z" stroke="url(#paint31_linear_1052_54774)" stroke-width="1.52972" stroke-miterlimit="10" stroke-linecap="round"/>
<path opacity="0.35" d="M319.761 319.761C339.192 300.33 339.192 268.826 319.761 249.395C300.33 229.964 268.826 229.964 249.395 249.395C229.964 268.826 229.964 300.33 249.395 319.761C268.826 339.192 300.33 339.192 319.761 319.761Z" stroke="url(#paint32_linear_1052_54774)" stroke-width="1.52972" stroke-miterlimit="10" stroke-linecap="round"/>
<path opacity="0.35" d="M284.592 320.572C304.485 320.572 320.612 304.446 320.612 284.552C320.612 264.659 304.485 248.533 284.592 248.533C264.699 248.533 248.572 264.659 248.572 284.552C248.572 304.446 264.699 320.572 284.592 320.572Z" stroke="url(#paint33_linear_1052_54774)" stroke-width="1.52972" stroke-miterlimit="10" stroke-linecap="round"/>
<path opacity="0.35" d="M284.591 306.783C296.869 306.783 306.822 296.83 306.822 284.552C306.822 272.275 296.869 262.322 284.591 262.322C272.314 262.322 262.361 272.275 262.361 284.552C262.361 296.83 272.314 306.783 284.591 306.783Z" stroke="url(#paint34_linear_1052_54774)" stroke-width="1.52972" stroke-miterlimit="10" stroke-linecap="round"/>
<path opacity="0.35" fill-rule="evenodd" clip-rule="evenodd" d="M293.085 284.552C293.085 289.219 289.31 292.994 284.643 292.994C279.977 292.994 276.202 289.219 276.202 284.552C276.202 279.886 279.977 276.111 284.643 276.111C289.31 276.111 293.085 279.886 293.085 284.552Z" stroke="url(#paint35_linear_1052_54774)" stroke-width="1.52972" stroke-miterlimit="10" stroke-linecap="round"/>
</g>
<g filter="url(#filter1_d_1052_54774)">
<path d="M284.277 348.322C319.423 348.322 347.913 319.832 347.913 284.686C347.913 249.541 319.423 221.051 284.277 221.051C249.132 221.051 220.642 249.541 220.642 284.686C220.642 319.832 249.132 348.322 284.277 348.322Z" fill="url(#paint36_linear_1052_54774)"/>
<path d="M346.913 284.686C346.913 319.279 318.87 347.322 284.277 347.322C249.685 347.322 221.642 319.279 221.642 284.686C221.642 250.094 249.685 222.051 284.277 222.051C318.87 222.051 346.913 250.094 346.913 284.686Z" stroke="#00D1FF" stroke-width="2"/>
</g>
<path d="M267.524 271.989C267.052 271.45 266.472 271.18 265.781 271.18H251.649C251.524 271.18 251.421 271.141 251.343 271.061C251.265 270.983 251.226 270.895 251.226 270.8V261.29C251.226 261.195 251.265 261.108 251.343 261.029C251.421 260.95 251.524 260.91 251.649 260.91H266.582C270.35 260.91 273.601 262.448 276.333 265.522L279.96 269.944L272.895 278.551L267.524 271.989ZM293.622 265.475C296.354 262.432 299.62 260.91 303.42 260.91H318.306C318.431 260.91 318.525 260.942 318.588 261.005C318.651 261.069 318.682 261.163 318.682 261.29V270.8C318.682 270.895 318.651 270.983 318.588 271.061C318.525 271.141 318.431 271.18 318.306 271.18H304.174C303.483 271.18 302.902 271.45 302.431 271.989L292.02 284.638L302.478 297.381C302.949 297.889 303.514 298.142 304.174 298.142H318.306C318.431 298.142 318.525 298.182 318.588 298.261C318.651 298.341 318.682 298.444 318.682 298.57V308.08C318.682 308.175 318.651 308.263 318.588 308.341C318.525 308.42 318.431 308.46 318.306 308.46H303.42C299.62 308.46 296.369 306.923 293.669 303.848L285.001 293.292L276.333 303.848C273.601 306.923 270.335 308.46 266.535 308.46H251.649C251.524 308.46 251.428 308.42 251.366 308.341C251.303 308.262 251.272 308.159 251.272 308.031V298.521C251.272 298.426 251.303 298.339 251.366 298.26C251.428 298.181 251.524 298.141 251.649 298.141H265.781C266.44 298.141 267.021 297.872 267.524 297.332L277.745 284.874L293.622 265.475Z" fill="#06061B"/>
<defs>
<filter id="filter0_d_1052_54774" x="42.9049" y="42.8655" width="483.373" height="483.374" filterUnits="userSpaceOnUse" color-interpolation-filters="sRGB">
<feFlood flood-opacity="0" result="BackgroundImageFix"/>
<feColorMatrix in="SourceAlpha" type="matrix" values="0 0 0 0 0 0 0 0 0 0 0 0 0 0 0 0 0 0 127 0" result="hardAlpha"/>
<feOffset/>
<feGaussianBlur stdDeviation="12.9519"/>
<feColorMatrix type="matrix" values="0 0 0 0 0 0 0 0 0 0.82 0 0 0 0 1 0 0 0 0.63 0"/>
<feBlend mode="normal" in2="BackgroundImageFix" result="effect1_dropShadow_1052_54774"/>
<feBlend mode="normal" in="SourceGraphic" in2="effect1_dropShadow_1052_54774" result="shape"/>
</filter>
<filter id="filter1_d_1052_54774" x="204.519" y="204.928" width="159.516" height="159.516" filterUnits="userSpaceOnUse" color-interpolation-filters="sRGB">
<feFlood flood-opacity="0" result="BackgroundImageFix"/>
<feColorMatrix in="SourceAlpha" type="matrix" values="0 0 0 0 0 0 0 0 0 0 0 0 0 0 0 0 0 0 127 0" result="hardAlpha"/>
<feOffset/>
<feGaussianBlur stdDeviation="8.06119"/>
<feColorMatrix type="matrix" values="0 0 0 0 0 0 0 0 0 0.819608 0 0 0 0 1 0 0 0 0.6 0"/>
<feBlend mode="normal" in2="BackgroundImageFix" result="effect1_dropShadow_1052_54774"/>
<feBlend mode="normal" in="SourceGraphic" in2="effect1_dropShadow_1052_54774" result="shape"/>
</filter>
<linearGradient id="paint0_linear_1052_54774" x1="285.091" y1="69.5865" x2="285.091" y2="499.571" gradientUnits="userSpaceOnUse">
<stop stop-color="#ED1EFF"/>
<stop offset="1" stop-color="#00D1FF"/>
</linearGradient>
<linearGradient id="paint1_linear_1052_54774" x1="284.618" y1="72.2081" x2="284.618" y2="496.949" gradientUnits="userSpaceOnUse">
<stop stop-color="#ED1EFF"/>
<stop offset="1" stop-color="#00D1FF"/>
</linearGradient>
<linearGradient id="paint2_linear_1052_54774" x1="284.618" y1="80.0727" x2="284.618" y2="489.084" gradientUnits="userSpaceOnUse">
<stop stop-color="#ED1EFF"/>
<stop offset="1" stop-color="#00D1FF"/>
</linearGradient>
<linearGradient id="paint3_linear_1052_54774" x1="284.617" y1="93.0231" x2="284.617" y2="476.134" gradientUnits="userSpaceOnUse">
<stop stop-color="#ED1EFF"/>
<stop offset="1" stop-color="#00D1FF"/>
</linearGradient>
<linearGradient id="paint4_linear_1052_54774" x1="284.617" y1="110.64" x2="284.617" y2="458.517" gradientUnits="userSpaceOnUse">
<stop stop-color="#ED1EFF"/>
<stop offset="1" stop-color="#00D1FF"/>
</linearGradient>
<linearGradient id="paint5_linear_1052_54774" x1="284.617" y1="132.556" x2="284.617" y2="436.601" gradientUnits="userSpaceOnUse">
<stop stop-color="#ED1EFF"/>
<stop offset="1" stop-color="#00D1FF"/>
</linearGradient>
<linearGradient id="paint6_linear_1052_54774" x1="284.618" y1="158.194" x2="284.618" y2="410.963" gradientUnits="userSpaceOnUse">
<stop stop-color="#ED1EFF"/>
<stop offset="1" stop-color="#00D1FF"/>
</linearGradient>
<linearGradient id="paint7_linear_1052_54774" x1="284.617" y1="186.979" x2="284.617" y2="382.178" gradientUnits="userSpaceOnUse">
<stop stop-color="#ED1EFF"/>
<stop offset="1" stop-color="#00D1FF"/>
</linearGradient>
<linearGradient id="paint8_linear_1052_54774" x1="284.618" y1="218.123" x2="284.618" y2="351.034" gradientUnits="userSpaceOnUse">
<stop stop-color="#ED1EFF"/>
<stop offset="1" stop-color="#00D1FF"/>
</linearGradient>
<linearGradient id="paint9_linear_1052_54774" x1="284.617" y1="250.944" x2="284.617" y2="318.213" gradientUnits="userSpaceOnUse">
<stop stop-color="#ED1EFF"/>
<stop offset="1" stop-color="#00D1FF"/>
</linearGradient>
<linearGradient id="paint10_linear_1052_54774" x1="284.617" y1="284.552" x2="284.617" y2="285.552" gradientUnits="userSpaceOnUse">
<stop stop-color="#ED1EFF"/>
<stop offset="1" stop-color="#00D1FF"/>
</linearGradient>
<linearGradient id="paint11_linear_1052_54774" x1="284.617" y1="250.944" x2="284.617" y2="318.213" gradientUnits="userSpaceOnUse">
<stop stop-color="#ED1EFF"/>
<stop offset="1" stop-color="#00D1FF"/>
</linearGradient>
<linearGradient id="paint12_linear_1052_54774" x1="284.618" y1="218.123" x2="284.618" y2="351.034" gradientUnits="userSpaceOnUse">
<stop stop-color="#ED1EFF"/>
<stop offset="1" stop-color="#00D1FF"/>
</linearGradient>
<linearGradient id="paint13_linear_1052_54774" x1="284.617" y1="186.979" x2="284.617" y2="382.178" gradientUnits="userSpaceOnUse">
<stop stop-color="#ED1EFF"/>
<stop offset="1" stop-color="#00D1FF"/>
</linearGradient>
<linearGradient id="paint14_linear_1052_54774" x1="284.618" y1="158.194" x2="284.618" y2="410.963" gradientUnits="userSpaceOnUse">
<stop stop-color="#ED1EFF"/>
<stop offset="1" stop-color="#00D1FF"/>
</linearGradient>
<linearGradient id="paint15_linear_1052_54774" x1="284.617" y1="132.556" x2="284.617" y2="436.601" gradientUnits="userSpaceOnUse">
<stop stop-color="#ED1EFF"/>
<stop offset="1" stop-color="#00D1FF"/>
</linearGradient>
<linearGradient id="paint16_linear_1052_54774" x1="284.617" y1="110.64" x2="284.617" y2="458.517" gradientUnits="userSpaceOnUse">
<stop stop-color="#ED1EFF"/>
<stop offset="1" stop-color="#00D1FF"/>
</linearGradient>
<linearGradient id="paint17_linear_1052_54774" x1="284.617" y1="93.0231" x2="284.617" y2="476.134" gradientUnits="userSpaceOnUse">
<stop stop-color="#ED1EFF"/>
<stop offset="1" stop-color="#00D1FF"/>
</linearGradient>
<linearGradient id="paint18_linear_1052_54774" x1="284.618" y1="80.0727" x2="284.618" y2="489.084" gradientUnits="userSpaceOnUse">
<stop stop-color="#ED1EFF"/>
<stop offset="1" stop-color="#00D1FF"/>
</linearGradient>
<linearGradient id="paint19_linear_1052_54774" x1="284.618" y1="72.2081" x2="284.618" y2="496.949" gradientUnits="userSpaceOnUse">
<stop stop-color="#ED1EFF"/>
<stop offset="1" stop-color="#00D1FF"/>
</linearGradient>
<linearGradient id="paint20_linear_1052_54774" x1="284.591" y1="69.5342" x2="284.591" y2="499.571" gradientUnits="userSpaceOnUse">
<stop stop-color="#ED1EFF"/>
<stop offset="1" stop-color="#00D1FF"/>
</linearGradient>
<linearGradient id="paint21_linear_1052_54774" x1="142.289" y1="142.289" x2="426.867" y2="426.867" gradientUnits="userSpaceOnUse">
<stop stop-color="#ED1EFF"/>
<stop offset="1" stop-color="#00D1FF"/>
</linearGradient>
<linearGradient id="paint22_linear_1052_54774" x1="284.591" y1="97.0602" x2="284.591" y2="472.044" gradientUnits="userSpaceOnUse">
<stop stop-color="#ED1EFF"/>
<stop offset="1" stop-color="#00D1FF"/>
</linearGradient>
<linearGradient id="paint23_linear_1052_54774" x1="284.592" y1="110.849" x2="284.592" y2="458.255" gradientUnits="userSpaceOnUse">
<stop stop-color="#ED1EFF"/>
<stop offset="1" stop-color="#00D1FF"/>
</linearGradient>
<linearGradient id="paint24_linear_1052_54774" x1="284.591" y1="124.639" x2="284.591" y2="444.466" gradientUnits="userSpaceOnUse">
<stop stop-color="#ED1EFF"/>
<stop offset="1" stop-color="#00D1FF"/>
</linearGradient>
<linearGradient id="paint25_linear_1052_54774" x1="181.217" y1="181.216" x2="387.94" y2="387.94" gradientUnits="userSpaceOnUse">
<stop stop-color="#ED1EFF"/>
<stop offset="1" stop-color="#00D1FF"/>
</linearGradient>
<linearGradient id="paint26_linear_1052_54774" x1="284.592" y1="152.165" x2="284.592" y2="416.94" gradientUnits="userSpaceOnUse">
<stop stop-color="#ED1EFF"/>
<stop offset="1" stop-color="#00D1FF"/>
</linearGradient>
<linearGradient id="paint27_linear_1052_54774" x1="284.592" y1="165.954" x2="284.592" y2="403.151" gradientUnits="userSpaceOnUse">
<stop stop-color="#ED1EFF"/>
<stop offset="1" stop-color="#00D1FF"/>
</linearGradient>
<linearGradient id="paint28_linear_1052_54774" x1="210.43" y1="210.431" x2="358.725" y2="358.725" gradientUnits="userSpaceOnUse">
<stop stop-color="#ED1EFF"/>
<stop offset="1" stop-color="#00D1FF"/>
</linearGradient>
<linearGradient id="paint29_linear_1052_54774" x1="284.592" y1="193.48" x2="284.592" y2="375.624" gradientUnits="userSpaceOnUse">
<stop stop-color="#ED1EFF"/>
<stop offset="1" stop-color="#00D1FF"/>
</linearGradient>
<linearGradient id="paint30_linear_1052_54774" x1="284.971" y1="207.018" x2="284.971" y2="361.689" gradientUnits="userSpaceOnUse">
<stop stop-color="#ED1EFF"/>
<stop offset="1" stop-color="#00D1FF"/>
</linearGradient>
<linearGradient id="paint31_linear_1052_54774" x1="284.592" y1="221.006" x2="284.592" y2="348.098" gradientUnits="userSpaceOnUse">
<stop stop-color="#ED1EFF"/>
<stop offset="1" stop-color="#00D1FF"/>
</linearGradient>
<linearGradient id="paint32_linear_1052_54774" x1="249.395" y1="249.395" x2="319.761" y2="319.761" gradientUnits="userSpaceOnUse">
<stop stop-color="#ED1EFF"/>
<stop offset="1" stop-color="#00D1FF"/>
</linearGradient>
<linearGradient id="paint33_linear_1052_54774" x1="284.592" y1="248.533" x2="284.592" y2="320.572" gradientUnits="userSpaceOnUse">
<stop stop-color="#ED1EFF"/>
<stop offset="1" stop-color="#00D1FF"/>
</linearGradient>
<linearGradient id="paint34_linear_1052_54774" x1="284.591" y1="262.322" x2="284.591" y2="306.783" gradientUnits="userSpaceOnUse">
<stop stop-color="#ED1EFF"/>
<stop offset="1" stop-color="#00D1FF"/>
</linearGradient>
<linearGradient id="paint35_linear_1052_54774" x1="284.643" y1="276.111" x2="284.643" y2="292.994" gradientUnits="userSpaceOnUse">
<stop stop-color="#ED1EFF"/>
<stop offset="1" stop-color="#00D1FF"/>
</linearGradient>
<linearGradient id="paint36_linear_1052_54774" x1="284.277" y1="221.051" x2="284.277" y2="348.322" gradientUnits="userSpaceOnUse">
<stop stop-color="#00D1FF"/>
<stop offset="1" stop-color="#00D1FF" stop-opacity="0.51"/>
</linearGradient>
</defs>
</svg>
