<svg width="766" height="408" viewBox="0 0 766 408" fill="none" xmlns="http://www.w3.org/2000/svg">
<path d="M765 144.131L750.824 153.74L746.347 163.349L729.932 144.131L708.294 163.349L700.833 82.9822L688.895 59.3963C682.677 63.4729 670.242 70.4031 670.242 65.5112C670.242 60.6193 665.268 20.9599 662.781 1.7417H648.604L635.174 37.5574L628.459 82.9822L620.998 48.0401C618.759 55.6109 613.686 68.4812 611.298 59.3963C608.911 50.3113 601.35 24.7453 597.868 13.0979V38.431C593.64 34.9368 584.587 27.2495 582.199 24.4541C579.812 21.6587 573.246 19.2128 570.261 18.3392L548.624 59.3963L535.193 98.7062L521.763 82.9822L515.048 111.81L505.348 89.0971H494.903L481.472 82.9822L471.773 111.81L452.373 104.821L444.912 131.901H434.466V163.349L418.798 153.74L398.652 171.211C390.445 184.315 374.329 212.618 375.523 221.004C376.716 229.39 376.02 274.582 375.523 296.129L359.108 290.015V270.796H343.439C337.47 292.635 325.532 339.807 325.532 353.784C325.532 371.255 317.325 325.83 311.356 324.083C306.581 322.686 298.423 331.654 294.941 336.313V306.612L268.827 324.083L262.858 290.015H253.904L243.458 306.612H223.313L215.852 270.796H203.914L183.022 235.854V249.831L163.349 407.517L140.493 270.796L123.332 280.406L105.425 249.831L91.2487 260.314L80.803 249.831L66.6266 260.314L57.6731 221.004L34.5432 226.245L21.113 221.004L5.44435 191.303L-8.7321 249.831L-16.1933 226.245H-27.3852L-49.7689 241.096L-66.9298 179.947H-77.3756C-78.3704 198.583 -81.2555 235.854 -84.8369 235.854C-88.4183 235.854 -97.7697 229.448 -101.998 226.245L-110.951 235.854L-128.858 204.406L-165.418 210.521C-167.657 208.483 -173.924 204.406 -181.087 204.406C-188.25 204.406 -205.958 204.406 -213.917 204.406L-219.886 198.291L-237.793 235.854H-246" stroke="url(#paint0_linear)" stroke-width="2"/>
<defs>
<linearGradient id="paint0_linear" x1="259.5" y1="1.7417" x2="259.5" y2="407.517" gradientUnits="userSpaceOnUse">
<stop stop-color="#ED1EFF"/>
<stop offset="1" stop-color="#00D1FF"/>
</linearGradient>
</defs>
</svg>
