<svg width="923" height="701" viewBox="0 0 923 701" fill="none" xmlns="http://www.w3.org/2000/svg">
<path d="M921.72 697.75C906.61 644.9 860.82 606.4 834.38 561.67C825.48 546.61 819.07 529.32 823.73 511.16C831.01 482.75 842.79 454.37 845.4 424.75C848.09 394.27 833.42 368.96 814.3 347.75C796.48 327.98 774.82 310.73 752.23 296.16C740.1 288.34 708.54 276.6 708.51 259.18C708.48 241.89 713.03 223.28 717.33 206.05C720.69 192.57 722.24 178.48 726.43 165.08M718.43 165.55C713.62 178.23 711.92 191.79 707.86 204.63C702.67 221.02 697.08 238.15 694.06 254.33C691.46 268.3 717.93 277.38 727.49 282.97C767.66 306.45 811.17 345.12 808.69 397.14C807.55 421.11 798.8 443.96 795.39 467.67C791.21 496.68 796.72 521.85 811.97 545.85C843.49 595.47 894.2 637.69 913.19 696.51M710.15 166.13C704.97 178.21 703.31 191.29 698.69 203.55C692.84 219.06 686.94 234.68 680.24 249.45C674.84 261.35 697.24 268.4 704.59 272.32C742.93 292.78 776.64 327.99 775.72 374.74C775.11 405.31 767.36 436.61 766.47 467.21C765.76 491.64 778.66 513.22 792.16 532.72C829.17 586.17 883.07 631.42 905.03 694.97M701.61 166.8C697.15 178.69 694.24 191.36 689.82 202.77C684.65 216.11 679.49 231.77 669.5 243.11C667.1 245.84 661.69 248.19 662.95 252.12C664.3 256.35 678.98 261.66 683.29 263.91C720.93 283.48 745.65 315.19 746.34 359.54C746.82 390.44 741.01 421.61 742.84 452.05C744.41 478.11 759.6 501.27 774.59 521.97C814.88 577.64 873.87 625.97 897.13 693.21M692.86 167.55C688.47 179.08 685.77 191.63 681.04 202.32C675.08 215.8 666.73 231.54 654.39 241.53C645.52 248.72 649.23 250.7 663.42 257.44C697.91 273.82 717.59 303.79 719.61 342.71C721.28 375.06 717.6 408.41 721.88 440.21C725.55 467.45 742.8 491.56 759.06 513.27C802.29 571 864.49 621.01 889.49 691.24M683.94 168.36C679.7 179.59 677.35 191.99 672.55 202.09C666.68 214.43 656.9 228.47 644.69 237.02C636.21 242.96 627.33 245.55 644.83 252.67C679.25 266.67 692.73 299.96 695.63 334.51C698.32 366.65 696.37 400.68 703.53 431.01C710.11 458.9 727.21 483.15 745.25 506.5C790.81 565.46 855.9 616.65 882.03 689.14M674.92 169.21C670.96 180.17 669.09 192.5 664.42 202.02C658.36 214.37 645.39 227.51 632.13 235.01C625.29 238.88 611.9 243.41 627.42 249.38C659.79 261.83 669.66 295.59 673.7 326.54C677.89 358.66 678.59 391.95 686.94 423.06C694.76 452.21 714.29 477.76 733 501.34C769.35 547.17 812.23 589.09 846.03 636.45C857.32 652.27 867.1 668.72 874.71 686.92M665.83 170.09C661.37 180.47 660.91 193.32 656.2 202.21C649.59 214.68 633.81 226.77 619.51 233.64C614.38 236.11 597.74 242.17 611.05 247.37C640.07 258.72 648.13 291.21 653.16 318.51C658.97 350.05 661.37 383.51 670.81 413.3C680.67 444.41 701.06 471.88 722.07 497.65C760.07 544.26 804.76 587.41 839.79 636.13C850.61 651.18 860.73 667.05 867.47 684.68M656.71 170.96C652.6 181.34 654.08 193.56 648.31 202.48C640.06 215.22 623.42 225.18 608.91 231.85C604.09 234.07 584.1 240.98 595.64 246.41C621.39 258.54 628.91 289.93 634.62 315.16C641.74 346.64 646.71 378.8 657.2 409.2C668.28 441.3 690.75 469.47 712.26 495.25C751.38 542.15 796.04 585.39 832.91 634.76C843.86 649.42 853.79 665.24 860.24 682.44M647.63 171.82C644 182.1 646.34 194.35 640.62 202.84C632.12 215.46 613.56 224.27 598.8 230.42C592.82 232.92 574.56 240.14 581.14 246.32C597.28 261.47 610.96 289.44 617.54 313.6C626.05 344.86 632.96 376.68 644.93 406.65C657.88 439.07 681.01 467.61 703.45 493.95C743.41 540.87 788.85 584.07 826.31 633.67C837.08 647.93 846.9 663.36 853.02 680.24M638.63 172.65C635.54 182.84 638.85 195.03 633.34 203.21C625.11 215.41 605.63 222.4 591.09 228.45C584.51 231.19 561.89 239.3 567.49 246.91C580.3 264.32 594.17 289.85 601.75 313.55C611.65 344.53 620.43 375.93 633.77 405.42C648.49 437.97 672.16 466.65 695.41 493.61C735.97 540.63 781.96 583.19 819.83 632.87C830.35 646.68 839.96 661.68 845.69 678.15M629.76 173.42C627.18 183.54 631.16 195.33 625.75 203.69C617.4 216.61 594.55 222.4 579.97 228.43C572.43 231.55 550.69 238.8 554.62 247.97C563.44 268.56 578.99 293.14 587.95 317.01C599.55 347.91 610.22 379.85 625.65 409.19C641.9 440.11 664.93 468.02 688.02 494.06C728.7 539.94 774.53 582.13 812.48 631.04C823.08 644.7 832.84 659.63 838.22 676.17M621.07 174.13C618.52 184.25 624.19 195.75 618.57 204.11C609.87 217.06 586.07 221.77 571.23 227.78C562.15 231.46 540.26 238.5 542.5 249.34C547.03 271.28 564.47 295.92 574.39 319.04C601.64 382.54 634.74 443.5 681.11 495.15C721.82 540.5 769.49 582.29 806.06 630.76C816.35 644.39 824.62 658.06 830.55 674.42M612.61 174.74C610.58 184.84 617.07 196.28 611.54 204.47C602.83 217.36 577.96 221.42 562.95 227.28C553.07 231.14 530.15 238.11 531.12 250.8C532.94 274.74 551.07 299.38 561.75 321.72C591.75 384.44 627.48 445.16 674.58 496.71C715.45 541.45 763.28 582.5 799.58 630.71C809.5 643.89 817.35 656.95 822.67 672.91M604.45 175.24C602.94 185.29 610.15 196.84 604.67 204.72C591.19 224.08 521.51 221.77 520.43 252.13C519.54 277.37 538.44 302.8 549.91 324.75C582.39 386.9 620.43 447.06 668.22 498.55C709.13 542.63 757.02 582.93 792.88 630.81C802.05 643.06 811.12 656.09 814.45 671.63M596.62 175.62C595.54 185.6 603.46 197.02 598.08 204.79C589.7 216.91 565.09 220.79 550.07 225.98C536.8 230.57 512.63 237.27 510.43 253.18C506.86 279.05 526.37 305.8 538.78 327.9C573.47 389.67 613.48 449.12 661.91 500.58C702.75 543.99 750.67 583.53 785.89 631.12C794.62 642.92 803.34 655.57 805.85 670.7M589.18 175.85C588.44 185.74 596.41 196.94 590.87 204.84C582.25 217.14 557.88 220.87 542.9 226.14C528.6 231.18 505.63 237.73 501.09 253.71C493.67 279.84 515.33 309.15 528.27 330.87C564.88 392.29 606.48 450.76 655.49 502.64C696.22 545.76 742.46 583.92 778.52 631.6C787.06 642.9 795.21 655.74 796.82 670.16M582.19 175.9C581.82 185.71 589.73 196.91 583.81 204.86C574.62 217.19 550.65 220.78 535.75 226.34C521.45 231.67 499.25 237.98 492.61 253.67C481.32 280.38 504.82 311.68 518.35 333.36C556.49 394.49 599.36 452.54 648.87 504.54C689.39 547.11 735.49 584.57 770.7 632.22C778.84 643.24 786.51 655.96 787.28 670.03M575.92 175.75C576.12 185.47 583.39 196.89 576.88 204.86C566.82 217.2 543.76 220.79 528.62 226.58C514.19 232.09 492.41 238.42 485.31 254.04C472.86 281.44 494.76 312.92 508.94 335.1C547.82 395.89 592 453.97 641.9 506.15C682.08 548.17 728.33 584.78 761.81 632.82C769.51 643.87 776.4 656.64 777.09 670.45M570.42 175.38C571.05 185.16 577.35 196.81 570.07 204.85C558.95 217.13 536.95 220.81 521.51 226.86C507.01 232.55 485.27 238.94 478.01 254.5C465.28 281.78 485.67 313.53 499.98 335.77C539.11 396.54 584.13 454.85 634.41 507.21C674.18 548.62 719.32 585.37 751.48 633.45C758.99 644.68 765.65 657.58 766.22 671.42M565.57 174.83C566.51 184.93 571.48 197.18 563.15 204.87C551.08 216.02 532.21 220.17 516.49 226.35C500.75 232.53 478.54 239.22 470.69 255.09C457.6 281.53 477.76 314.02 492.06 336.18C531.02 396.56 576.39 454.32 626.23 506.62C665.73 548.06 709.8 585.73 740.68 634.44C747.95 645.91 754.32 659 754.72 672.91M561.3 174.13C562.53 184.72 565.84 196.83 556.53 204.85C531.48 226.44 478.88 224.33 463.38 255.77C450.19 282.53 470.1 314.7 484.52 336.73C523.58 396.4 569.11 453.5 618.24 505.85C657.32 547.5 700.15 586.27 729.56 635.69C736.56 647.46 742.58 660.78 742.78 674.8M557.5 173.29C558.92 184.54 559.9 196.76 550.1 204.8C524.2 226.05 471.86 224.94 456.06 256.55C442.69 283.29 462.45 315.5 477.11 337.28C516.51 395.84 562.16 452.33 610.37 504.91C648.89 546.92 690.32 586.94 718.08 637.14C724.77 649.25 730.41 662.83 730.35 676.97M554.08 172.35C555.58 184.47 553.86 196.85 543.56 204.78C517.07 225.2 464.88 225.76 448.74 257.43C435.13 284.15 454.9 316.29 469.83 337.84C509.65 395.32 555.59 450.95 602.68 503.82C640.56 546.35 680.43 587.75 706.39 638.78C712.74 651.26 717.97 665.14 717.65 679.43M550.94 171.34C552.4 184.49 547.81 196.9 536.96 204.8C510.8 223.85 455.68 225.93 441.42 258.41C429.24 286.15 446.89 316.44 462.67 338.41C503.06 394.66 549.32 449.33 595.14 502.59C632.29 545.78 670.41 588.64 694.51 640.52C700.49 653.39 705.29 667.57 704.69 682.03M547.97 170.26C548.73 184.25 542.1 196.93 530.54 204.78C515.96 214.68 498.75 220.13 482.81 227.64C466.84 235.17 441.96 242.41 434.08 259.48C421.46 286.8 439.4 317.35 455.61 338.99C496.73 393.88 543.33 447.48 587.76 501.22C624.11 545.19 660.33 589.6 682.52 642.32C688.1 655.59 692.46 670.08 691.6 684.72M545.1 169.16C545.39 184.15 536.04 196.75 523.99 204.81C508.63 215.08 490.46 221.31 473.83 229.11C457.88 236.59 434.69 243.99 426.74 260.65C413.77 287.82 431.94 318.33 448.67 339.6C490.65 392.99 537.8 445.55 580.56 499.73C615.94 544.56 651.45 591.16 670.51 644.14C675.44 657.83 679.62 672.3 678.48 687.43M542.21 168.06C541.89 183.98 530.1 196.51 517.51 204.84C501.3 215.58 482.35 222.25 464.95 230.62C449.4 238.1 427.25 245.65 419.38 261.91C406.15 289.27 424.51 319.37 441.82 340.23C484.78 392.02 532.48 443.48 573.53 498.11C607.87 543.82 641.22 592.1 658.53 645.9C663.06 659.96 666.8 674.74 665.42 690.03M539.21 166.98C538.11 184.61 523.75 196.21 510.96 204.91C495.29 215.57 475.53 222.52 457.93 231.27C442.25 239.07 420.11 246.84 412.03 263.27C398.48 290.8 417.13 320.49 435.08 340.9C479.13 390.98 527.39 441.25 566.69 496.4C599.95 543.08 631.11 592.96 646.69 647.57C650.8 661.99 654.12 677.05 652.57 692.5M536 165.95C534 184.22 517.94 195.29 504.35 205C487.73 216.87 467.29 223.38 449.17 232.88C433.83 240.91 412.79 248.7 404.66 264.71C390.6 292.4 409.82 321.75 428.41 341.58C473.63 389.85 522.46 438.88 560.03 494.55C592.2 542.22 621.09 593.66 635.04 649.05C638.85 664.17 640.73 678.76 639.99 694.68M532.5 164.99C531.43 183.16 510.82 196.6 497.69 205.12C481.11 215.87 461.55 223.27 443.89 232.64C427.92 241.11 405.92 249.45 397.28 266.24C382.89 294.18 402.46 323.18 421.82 342.32C444.46 364.7 470.9 386.13 492.26 410.26C514.72 435.63 535.26 463.85 553.55 492.64C584.56 541.45 611.2 594.24 623.65 650.35C627.05 665.69 628.66 680.56 627.79 696.57M528.58 164.12C526.76 182.86 504.51 195.79 491 205.25C473.92 217.21 453.43 224.11 435.23 234.29C419.56 243.06 398.81 251.25 389.87 267.84C374.73 295.92 395.6 325.07 415.27 343.08C438.69 364.52 465.72 384.98 487.32 408.59C509.93 433.32 529.86 461.6 547.24 490.59C577.13 540.43 601.53 594.55 612.62 651.34C615.65 666.83 617.02 681.93 616.11 697.99M524.18 163.39C521.65 182.54 498.49 195.58 484.55 205.37C467.27 217.51 446.56 224.51 428.23 235.03C412.36 244.14 391.63 252.7 382.46 269.55C366.94 298.04 388.26 326.5 408.8 343.91C432.93 364.37 460.67 383.82 482.54 406.92C505.34 431.01 524.66 459.33 541.16 488.49C569.92 539.31 592.13 594.63 602.05 652.03C604.75 667.62 605.96 682.89 605.08 698.94M519.17 162.79C515.93 182.19 492.29 195.38 478.01 205.51C461.11 217.49 440.77 224.23 422.91 234.78C406.31 244.59 384.57 253.75 375.04 271.31C370.47 279.74 369.39 292.37 370.56 301.67C372.77 319.25 386.8 333.29 400.52 343.39C426.6 362.61 454.36 381.59 476.96 404.18C500.41 427.63 519.42 456.44 535.23 486.26C563.1 538.83 583.43 595.25 592.21 653.73C594.48 668.85 595.51 683.76 594.79 699.25M513.52 162.36C508.83 181.78 486.25 195.01 471.45 205.68C453.96 218.29 432.84 225.37 414.36 236.52C397.97 246.4 377.1 255.87 367.59 273.25C362.94 281.75 361.76 294.45 362.87 303.83C364.98 321.53 380.03 334.93 394.06 344.4C420.88 362.5 449.39 380.46 472.36 402.52C496.04 425.26 514.5 454.06 529.53 484C556.33 537.37 574.78 594.62 582.73 653.47C584.77 668.57 585.63 683.4 584.66 698.8M507.28 162.07C501.44 181.51 480 194.57 464.81 205.88C447.26 218.95 425.9 225.88 407.37 237.34C390.74 247.62 369.84 257.54 360.12 275.27C355.41 283.86 354.08 296.63 355.15 306.12C357.15 323.97 373.31 336.66 387.62 345.47C415.17 362.43 444.42 379.35 467.82 400.88C491.75 422.91 509.7 451.65 524.04 481.65C549.78 535.49 566.76 593.16 573.2 652.15C574.85 667.29 575.34 682.14 574.02 697.51M500.54 161.9C493.86 181.17 473.45 194.36 458.14 206.09C440.62 219.51 418.96 226.41 400.39 238.19C383.51 248.89 362.58 259.28 352.63 277.37C348.07 285.66 346.48 297.84 347.24 307.02C348.88 326.96 367.39 338.91 383.32 347.86C410.61 363.2 439.23 378.32 462.23 398.4C486.95 419.99 504.86 448.99 518.67 479.59C542.86 533.21 558.18 590.44 563.22 648.7C564.57 664.34 564.73 679.67 563.01 695.48M493.35 161.86C486.09 180.76 466.66 194.41 451.44 206.33C434.45 219.64 412.99 226.2 395.01 238C377.65 249.4 355.53 260.52 345.14 279.53C340.45 288.12 338.7 300.62 339.53 310.1C341.17 328.84 359.74 340.3 374.95 347.96C403.06 362.12 432.98 376.32 456.76 395.9C482.28 416.91 499.71 446.39 513.11 477.5C536.42 531.65 549.47 588.91 553.22 647.92C554.18 663.05 553.71 677.78 551.68 692.83M485.77 161.9C478.14 180.52 459.78 194.36 444.73 206.58C427.82 220.3 406.02 226.79 388.04 238.88C370.44 250.72 348.17 262.38 337.62 281.79C332.88 290.5 330.96 303.14 331.74 312.78C333.32 332.35 353.1 341.95 368.55 349.34C397.05 362.97 428.04 375.4 452.28 394.48C478.03 414.75 494.81 444.23 507.49 475.38C529.51 529.49 540.77 586.58 542.82 645.12C543.35 660.17 542.48 674.81 540.1 689.72M477.89 162.03C470.07 180.34 452.34 194.35 438.01 206.84C430.03 213.79 420.36 218.17 410.79 222.46C399.98 227.31 390.93 232.95 381.09 239.78C363.21 252.19 340.86 264.3 330.08 284.1C325.19 293.09 323.15 306.14 323.95 316.09C325.57 336.21 348.56 345.26 364.52 351.76C394.34 363.92 425.38 375.87 451.17 395.75C476.1 414.96 490.89 444.62 501.77 473.22C522.14 526.76 532.04 583.52 532.17 640.44C532.21 655.82 531.09 670.87 528.29 686.19M469.75 162.23C460.95 180.36 445.73 193.8 431.3 207.12C423.43 214.39 413.6 218.61 404.05 222.93C393.12 227.87 384.05 233.66 374.15 240.71C356 253.63 331.72 266.82 322.54 286.48C317.41 297.48 315.82 307.11 316.16 319.53C316.69 338.52 340.4 346.76 355.68 352.32C386.47 363.51 418.63 374.27 445.46 393.71C471.09 412.27 485.52 442.29 495.87 471.12C515.2 524.94 522.73 581.36 521.43 638.63C521.1 653.29 519.97 668.1 516.45 682.43M461.42 162.47C452.79 180.29 438.72 194.03 424.59 207.4C416.85 214.72 407.14 219.61 397.31 223.41C386.34 227.64 376.54 234.69 367.2 241.66C349.11 255.15 326.21 268.31 314.96 288.93C310.06 297.91 307.69 310.84 308.22 320.83C309.33 342.08 335.34 349.59 351.84 354.82C382.36 364.47 413.02 374.24 439.81 391.73C466.17 408.95 479.99 440.05 489.95 469.08C512.88 535.92 521.72 609.24 504.53 678.51M452.98 162.76C444.6 180.26 431.4 194.16 417.9 207.69C410.56 215.05 400.69 219.61 391.57 223.53C380.8 228.16 371.58 234.26 361.82 241.46C342.68 255.58 317.13 270.11 307.37 291.45C302.33 302.46 300.41 312.15 300.35 324.47C300.25 344.77 327.03 351.32 342.84 355.77C373.83 364.48 407.74 372.24 433.77 390.14C460.08 408.24 473.8 436.29 483.77 467.19C505.24 533.71 510.78 606.56 492.65 674.59M444.48 163.07C436.41 180.28 424.13 194.4 411.24 207.99C404.05 215.57 394.42 220.24 384.86 224.04C373.96 228.37 364.09 235.27 354.89 242.43C335.77 257.32 311.53 271.8 299.75 294.04C294.96 303.08 292.16 315.83 292.32 325.83C292.65 346.82 317.07 352.96 333.41 356.96C365.39 364.79 399.01 371.71 427.77 388.61C455.6 404.95 468.82 435.88 477.59 465.44C497.3 531.86 499.62 603.8 480.87 670.74M436 163.38C428.29 180.34 416.9 194.67 404.61 208.28C397.58 216.07 387.75 220.71 378.17 224.55C367.15 228.96 357.21 236.05 347.98 243.43C328.55 258.95 302.59 274.14 292.2 296.54C287.08 307.57 284.83 317.3 284.39 329.65C283.61 351.63 312.91 356.22 329.59 359.69C362.57 366.54 397.48 372.63 426.6 390.5C452.25 406.24 463.64 436.17 471.12 463.89C489.1 530.53 488.41 600.85 469.23 667.07M427.6 163.68C420.26 180.43 409.76 194.94 398.03 208.57C391.14 216.57 381.1 221.18 371.47 225.06C360.32 229.56 350.32 236.86 341.05 244.42C321.56 260.31 295.57 276.78 284.66 298.89C278.99 310.39 276.81 320.43 276.41 333.54C275.71 356.45 309.25 359.46 325.96 362.36C356.48 367.66 386.96 372.98 414.85 386.49C444.2 400.71 457.19 432.45 464.62 462.54C480.97 528.78 477.19 598.47 457.76 663.66M419.36 163.96C412.4 180.55 402.74 195.23 391.51 208.85C384.75 217.05 374.48 221.65 364.8 225.58C353.51 230.17 343.46 237.68 334.15 245.44C314.61 261.74 288.16 278.71 277.14 301.29C271.31 313.23 268.91 323.43 268.41 336.92C267.54 360.22 302.57 362.18 319.21 364.58C350.16 369.03 381.08 373.47 409.47 386.6C438.75 400.14 451.24 431.76 457.92 461.51C472.74 527.5 465.79 596.31 446.58 660.71M411.33 164.21C404.89 180.29 396.19 195.92 385.06 209.13C378.34 217.11 368.66 221.94 359.15 225.68C346.59 230.63 335.78 239.17 325.62 247.84C305.45 265.06 282.67 281.09 269.53 303.84C263.25 314.71 260.17 328.2 260.35 341.04C260.66 363.78 293.25 364.61 309.21 366.55C342.43 370.6 377.75 373.41 407.86 389.02C434.58 402.87 445.55 433.27 450.91 460.79C463.75 526.69 454.43 593.7 435.64 658.24M403.6 164.39C397.51 180.37 389.57 196.19 378.68 209.39C371.95 217.54 362.11 222.39 352.51 226.21C339.79 231.27 328.91 240.04 318.71 248.93C298.01 266.98 275.47 282.8 261.89 306.59C255.39 317.97 251.93 331.88 252.31 345.27C252.92 366.8 283.87 367.41 298.74 368.83C334.65 372.28 373.77 373.44 405.99 391.84C430.24 405.68 439.53 434.87 443.94 460.4C455.28 525.98 442.91 592.27 425.1 656.36M396.23 164.51C390.43 180.45 383.03 196.43 372.32 209.65C365.57 217.97 355.13 222.68 345.87 226.75C333.32 232.27 322.33 240.61 311.77 250.05C290.5 269.06 267.03 284.88 254.13 309.6C247.85 321.64 243.5 335.15 244.22 349.63C245.33 372.09 279.89 370.92 294.91 371.96C327.72 374.25 362.66 375.39 393.08 389.2C421.13 401.92 432.19 432.49 436.57 460.46C446.79 525.68 431.34 591.4 414.91 655.25M389.27 164.55C383.57 180.52 376.49 196.58 365.9 209.94C358.47 219.31 346.76 224.1 336.17 228.57C323.59 233.88 313.26 243.45 303.26 252.59C281.76 272.24 259.58 287.26 246.29 312.84C239.92 325.09 235.47 338.7 236.08 353.33C237.04 376.26 272.05 374.15 287.51 374.94C320.59 376.63 355.85 376.84 386.6 390.51C414.42 402.88 425.23 433.36 429.08 460.95C438.15 525.91 419.81 591.12 405.14 654.93M382.41 164.58C376.43 180.42 369.94 196.74 359.52 210.22C352.13 219.78 340.18 224.6 329.5 229.16C316.79 234.6 306.48 244.62 296.37 253.65C274.06 273.54 252.3 289.59 238.4 316.27C231.83 328.89 226.88 342.75 227.92 357.88C229.56 381.54 268 377.77 283.69 378.25C317.02 379.28 353.42 378.7 383.92 394.23C408.76 406.89 418.34 436.48 421.45 461.89C429.4 526.71 412 591.68 396.1 655M375.4 164.65C369.22 180.35 363.47 196.95 353.17 210.49C345.99 219.92 334.38 224.76 323.92 229.33C311.45 234.78 301.32 244.24 291.16 252.95C266.97 273.69 246.54 291.04 230.5 319.73C223.45 332.34 218.85 347.03 219.73 361.72C221.17 385.73 260.31 381.34 275.98 381.57C309.34 382.07 346.1 380.62 376.69 396.28C401.22 408.83 410.76 438.19 413.51 463.38C420.55 527.82 404.39 592.45 387.91 655.23M368.26 164.77C361.9 180.34 356.84 197.16 346.77 210.78C339.65 220.4 327.31 225.09 317.27 229.92C305.4 235.64 295.12 244.64 284.62 253.14C259.06 273.84 239.14 293.76 222.67 323.04C215.5 335.79 210.57 350.72 211.53 365.62C213.06 389.49 252.63 384.86 268.2 384.99C301.49 385.28 338.21 383.49 368.81 398.95C393.22 411.29 401.79 440.66 404.44 465.52C411.24 529.41 397.15 593.41 380.52 655.58M361 164.92C354.46 180.36 350 197.29 340.32 211.09C333.61 220.66 321.54 225.4 311.69 230.01C300.18 235.39 289.92 243.88 279.64 251.85C252.73 272.71 231.64 295.72 214.87 326.21C207.97 338.77 203.96 353.22 203.36 367.42C202.33 391.91 241.59 388.29 256.72 388.5C290.59 388.96 327.49 386.64 358.91 401.6C384.15 413.61 392.34 442.67 395.2 467.98C402.32 531.17 390.21 594.52 373.85 656.06M353.62 165.11C346.97 180.42 343.3 197.54 333.92 211.4C327.31 221.16 314.97 225.92 305.07 230.61C293.94 235.88 283.59 243.95 273.39 251.37C245.3 271.79 224.04 298.88 207.09 329.44C200.03 342.16 195.83 356.91 195.13 371.42C193.96 395.91 233.71 392.08 248.69 392.27C282.37 392.69 318.99 390.43 350.29 405.07C375.36 416.8 382.99 445.82 386.03 470.75C393.63 533.13 383.84 595.76 367.92 656.68M346.12 165.33C339.43 180.51 336.72 197.79 327.56 211.69C321.19 221.35 309.23 226.12 299.46 230.79C287.9 236.31 276.77 244.18 265.94 251.44C237.51 270.49 214.51 303.12 199.25 332.69C192.59 345.6 187.19 359.99 186.5 375.01C185.36 399.74 225.29 396 240.45 396.18C273.87 396.59 310.31 394.44 341.33 408.81C366.14 420.3 373.43 449.22 376.75 473.76C385.08 535.23 377.81 597.07 362.6 657.37M338.52 165.58C331.77 180.64 329.97 198.05 321.13 212C314.88 221.86 302.88 226.72 292.82 231.4C281.47 236.69 270.54 243.49 259.91 250.29C231.05 268.78 206.94 305.86 191.43 336.02C184.61 349.29 177.65 362.79 177.28 377.91C176.65 403.37 215.24 399.99 232.05 400.25C265.23 400.76 301.28 398.68 332.07 412.84C356.62 424.13 363.5 452.83 367.42 477.04C377.15 537.22 372.05 599.03 357.89 658.17M330.83 165.87C324.05 180.83 323.21 198.33 314.73 212.32C308.69 222.26 296.48 227.43 286.31 231.83C275.24 236.62 264.37 242.55 254 249.01C223.8 267.83 201.02 308.93 183.52 339.22C175.55 353.02 168.6 365.67 167.8 380.49C166.47 405.06 205.45 404.15 223.54 404.49C256.41 405.1 292.07 403.16 322.57 417.15C346.83 428.28 353.68 456.78 358.06 480.57C368.92 539.61 366.86 600.45 353.77 659.06M323.04 166.17C317.19 181.52 314.99 198.91 308.24 212.65C303.53 222.24 290.88 227.76 280.84 231.66C269.24 236.17 257.33 241.45 246.85 248.44C215.84 269.16 196.17 311.38 175.26 342.07C165.87 355.86 158.62 367.69 158.25 383.1C157.64 408.11 195.35 408.42 214.83 408.87C247.35 409.62 282.58 407.86 312.75 421.72C336.69 432.72 343.65 460.96 348.59 484.34C360.8 542.17 361.96 601.95 350.11 660.05M315.17 166.51C309.49 181.81 308.11 199.25 301.82 212.97C297.36 222.69 284.67 228.15 274.45 231.74C263.06 235.74 250.72 240.07 240.94 247.13C209.12 270.1 191.78 313.71 166.66 344.48C155.38 358.3 149.17 368.48 148.89 385.99C148.46 412.76 186.87 412.8 206 413.36C238.15 414.31 273.15 412.34 302.69 426.5C326.37 437.85 333.51 464.64 339.08 488.3C352.52 545.39 357.38 603.05 346.93 661.09M307.23 166.87C301.73 182.14 301.21 199.52 295.4 213.3C291.25 223.14 278.45 228.46 268.13 231.69C256.88 235.21 244.42 238.69 234.98 246.01C202.39 271.3 186.6 316.54 157.69 346.43C144.22 360.36 139.27 370.14 139.9 389.41C140.78 416.61 176.87 417.44 197.05 418.01C228.52 418.9 263.32 417.47 292.39 431.55C315.7 442.84 323.12 469.41 329.54 492.5C344.88 547.68 353.07 605.01 344.2 662.24M299.22 167.24C293.97 182.53 294.56 200.03 289.05 213.59C284.76 224.15 270.2 229.29 259.03 232.21C249.4 234.73 238.29 237.4 230.25 244.08C196.37 272.22 181.07 319.06 148.33 347.91C132.69 361.69 129.79 372.51 131.33 393.44C133.37 421.2 166.77 422.1 188.02 422.86C219.14 423.97 253.44 422.87 281.83 436.8C304.77 448.06 312.67 474.21 319.91 496.87C337.13 550.67 349.07 606.58 341.82 663.45M291.14 167.63C286.09 182.95 287.66 200.31 282.62 213.91C278.7 224.5 263.94 229.3 252.83 231.77C243.15 233.92 231.78 236.11 224.09 243.44C191.06 274.94 176.53 322.03 138.62 348.97C120.64 361.74 120.93 377.85 123.21 398.13C126.38 426.3 157.02 426.55 178.77 427.7C209.55 429.33 243.03 428.25 271.03 442.23C293.59 453.5 302.08 479.18 310.23 501.37C329.46 553.73 345.3 608.1 339.75 664.67M283.02 168.04C278.18 183.43 280.78 200.63 276.21 214.23C272.66 224.78 257.67 229.19 246.68 231.24C236.69 233.1 225.11 235.21 217.77 243.32C186.66 277.69 169.78 323.65 128.68 349.73C109.35 362 113.04 383.97 115.54 403.42C119.08 430.89 147.67 431.21 169.37 432.61C199.54 434.55 232.65 433.81 260.03 447.87C282.27 459.3 291.4 484.36 300.51 506.07C321.87 556.95 341.76 609.65 337.98 665.99M274.85 168.46C270.14 183.95 273.6 200.79 269.7 214.59C266.77 224.96 251.97 228.81 241.49 230.53C231.53 232.16 219.88 233.97 212.74 242.16C194.65 262.91 179.71 288.85 163.14 311.82C150.37 329.52 136.61 339.02 118.59 350.33C99.2302 362.48 105.56 390.55 108.2 409.18C111.96 435.76 138.46 436.05 159.91 437.67C189.52 439.91 222.07 439.59 248.81 453.66C270.71 465.18 280.65 489.5 290.73 510.88C309.03 549.69 324.61 589.91 332.99 631.23C335.46 643.42 336.49 654.65 336.42 667.33M266.64 168.89C259.72 184.01 268.29 200.22 263.29 214.92C259.56 225.86 245.82 228.78 235.39 229.94C224.07 231.2 213.4 233.52 206.04 243.06C188.28 266.1 172.98 291.39 155.5 314.91C142.18 332.83 126.48 339.27 108.54 350.99C88.4902 364.09 97.9802 400.38 101.42 418.56C105.81 441.77 134.9 441.57 153.37 443.12C181.85 445.51 213.34 446 238.73 460.09C259.56 471.65 270.08 495.53 280.94 515.82C300.42 552.22 317.22 589.51 328.93 629.06C332.72 641.87 335.59 655.23 335.06 668.71M258.41 169.33C251.45 184.62 261.47 200.46 256.88 215.22C253.5 226.08 239.37 228.49 229.28 229.35C215.28 230.55 207.49 234.55 199.05 244.73C181.16 266.31 166.6 294.65 147.98 317.72C133.85 335.23 114.7 338.84 98.7302 351.94C81.4502 366.11 91.5802 406.02 93.9602 424.22C96.7502 445.49 127.67 446.79 143.66 448.37C171.52 451.11 202.45 452.07 227.15 466.17C247.69 477.9 259.19 501.15 271.09 520.84C292.42 556.14 311.87 592.28 325.92 631.12C330.43 643.58 333.99 656.7 333.86 670.1M250.14 169.77C242.23 183.79 254.15 201.97 250.56 215.48C247.87 225.6 233.57 228.08 224.02 228.7C207.35 229.77 199.43 236.98 189.92 249.61C173.13 271.91 158.9 299.58 139.76 321.28C125.6 337.33 101.38 339.05 89.3502 353.52C75.2902 370.43 84.6002 407.91 85.9102 429.18C87.2202 450.26 118.79 451.96 133.81 453.7C161.08 456.87 191.3 458.28 215.36 472.37C235.78 484.33 248.12 506.81 261.15 525.95C284.47 560.18 306.55 595.11 322.96 633.22C328.16 645.31 332.42 658.18 332.7 671.5M241.87 170.22C233.88 184.31 247.33 202.38 244.17 215.76C241.82 225.72 227.16 227.51 217.87 228.27C200.09 229.73 192.25 238.91 182.4 252.68C166.21 275.32 152.11 303.02 132.39 323.54C118.26 338.25 89.6902 339.32 80.7602 356.07C69.8002 376.62 77.4202 409.78 77.5002 433.6C77.5702 454.77 108.88 457.04 123.92 459.08C150.58 462.69 180.05 464.59 203.47 478.67C223.81 490.9 237.03 512.57 251.23 531.13C276.6 564.29 301.28 597.95 320.11 635.35C326 647.06 330.97 659.67 331.64 672.95M233.58 170.66C225.51 184.83 240.51 202.8 237.78 216C235.75 225.78 220.64 227.18 211.65 227.95C193.28 229.53 184.49 242.09 174.75 256.06C159.27 278.29 145.31 307.03 124.86 325.58C110.39 338.7 79.0002 339.59 73.0802 359.83C66.0902 383.75 70.7402 412.31 69.1302 437.03C67.7902 457.71 95.8802 461.6 111.02 464.01C136.85 468.12 165.01 470.48 188.16 483.16C210.28 495.28 225.11 517.49 241.22 536.33C268.98 568.79 296.75 601.44 317.95 638.74C324.17 649.68 329.48 661.62 330.51 674.36M225.31 171.11C217.01 186.99 235.06 201.49 231.32 216.28C228.64 226.9 211.79 226.93 202.72 228.25C184.52 230.89 174.73 248.3 165.04 262.64C150.58 284.03 136.79 311.92 116.26 328.21C96.9602 343.52 72.6602 340.38 66.3102 364.76C60.5702 386.82 62.1502 416.57 60.7002 441.4C59.4902 462.23 85.8302 466.62 101.08 469.43C126.23 474.07 153.6 476.85 176.1 489.59C198.14 502.08 213.94 523.47 231.22 541.59C261.15 572.99 291.52 604.24 315.2 640.83C322.03 651.38 328 663.07 329.37 675.79M217.04 171.55C208.62 187.69 228.28 201.79 224.95 216.51C222.61 226.86 205.25 226.95 196.29 228.5C177.55 231.75 166.85 252.16 157.28 266.39C143.21 287.3 129.31 314.85 108.4 329.79C86.3202 345.57 64.8302 341.47 60.1002 370.41C56.3502 393.35 54.6702 420.09 52.3802 444.81C50.5002 465.09 73.1602 470.93 88.4902 474.27C115.5 480.14 146.35 483 168.92 499.2C187.76 512.72 204.16 530.66 221.21 546.84C253.49 577.48 288.6 607.83 313.21 644.06C320.62 654.97 324.82 664.04 328.12 677.21M208.79 171.98C200.24 188.37 221.51 202.11 218.58 216.73C216.56 226.81 198.39 227 189.74 229.06C170.65 233.61 159.59 255.2 149.53 270.1C135.9 290.3 121.79 318.06 100.44 331.21C75.4202 346.63 58.4702 344.51 54.2302 376.45C51.1402 399.71 46.1202 425.16 43.9702 449.1C42.1702 469.02 63.1202 475.76 78.5502 479.62C104.81 486.18 134.41 489.74 156.58 505.68C175.68 519.41 193.14 536.59 211.17 552.06C245.69 581.69 281.86 610.15 310.43 646.05C317.98 655.54 324.85 666.32 326.75 678.58M200.57 172.4C191.91 188.95 214.16 202.05 212.32 216.93C211.2 226.01 195.28 226.74 187.87 228.43C166.93 233.23 155 254.44 143.84 270.79C130.04 291 114.94 318.95 93.4502 331.75C66.3702 347.88 52.9402 347.74 48.5002 382.62C45.5202 406.01 37.8602 429.92 35.5802 453.37C33.6702 473 53.0102 480.65 68.5902 484.96C94.0702 492.01 122.6 496.64 144.2 512.15C163.61 526.08 182.12 542.54 201.11 557.26C237.84 585.73 276.52 612.8 307.53 648.01C315.56 657.13 323.03 667.66 325.16 679.94M192.38 172.81C183.65 188.91 207.12 203.14 205.95 217.17C205.21 226.04 188.43 226.98 181.26 229.23C159.96 235.89 148.23 256.83 136.2 274.28C122.27 294.5 107.37 320.76 85.4702 333.06C56.9102 349.1 47.7702 353.68 42.7002 388.71C39.3702 411.75 30.2302 433.96 27.3202 456.7C24.6702 477.39 44.5702 485.96 60.9202 490.98C83.8802 498.03 109.03 503.12 129.06 516.63C150.08 530.81 170.24 547.66 191.03 562.4C229.99 590.02 272.62 615.66 305.43 650.94C313.39 659.5 321.1 669.41 323.32 681.27M184.24 173.2C175.4 189.51 200.39 203.41 199.59 217.42C199.1 226.02 181.48 227.7 174.57 230.24C153.19 238.12 141.15 259.66 128.69 277.51C114.38 298.01 99.8902 321.9 77.5302 334.31C48.5802 350.38 42.7402 361.15 36.7702 394.5C32.7502 416.93 22.0102 438.4 18.9902 460.88C16.2502 481.25 34.4202 490.72 50.8802 496.31C73.6102 504.02 97.1402 510.4 116.76 522.99C137.94 536.58 159.25 553.43 180.99 567.45C222.44 594.18 266.46 618.08 302.32 652.74C310.78 660.92 318.87 670.63 321.23 682.53M176.15 173.58C167.14 190.13 194.2 204.11 193.14 217.66C192.46 226.42 172.34 229.43 164.74 232.86C145.85 241.38 134.49 261.77 123.15 277.85C108.28 298.93 93.5403 321.74 70.8903 335.12C41.9503 352.22 37.8803 367.72 30.5703 399.9C25.6903 421.37 14.3402 442.09 10.8302 464.1C7.4402 485.38 25.6902 495.86 42.8402 502.37C62.5602 509.86 84.0902 515.51 101.87 527.43C124.71 542.75 147.4 558.55 170.95 572.4C213.3 597.31 257.7 619.57 295.73 651.58C305.83 660.08 315.95 670.34 318.76 683.74M168.12 173.94C158.73 190.77 187.65 204.27 186.82 217.8C186.28 226.59 165.52 230.61 157.83 234.44C139.04 243.8 127.53 264.31 115.84 280.6C100.55 301.9 85.8102 322.37 63.3002 336.73C35.6702 354.35 32.6202 375.05 24.0602 404.85C18.0502 425.77 6.18022 446.11 2.54022 468.21C-0.909778 489.13 15.6902 500.47 32.7502 507.65C51.7602 515.65 72.5002 521.91 89.7002 533.62C112.68 549.28 136.46 564.19 160.91 577.25C205.28 600.94 251.83 621.98 292.02 653.32C302.44 661.45 313.1 671.42 315.94 684.91M160.17 174.28C150.68 191.24 181.26 204.98 180.51 217.97C180.02 226.48 158.85 231.74 150.89 236.14C132.37 246.38 120.73 266.59 108.69 282.98C92.9602 304.41 77.9402 322.96 55.9302 338.55C30.2002 356.77 27.0302 381.64 17.2302 409.26C9.95022 429.76 -1.9198 449.93 -5.6998 472.22C-9.1898 492.79 5.75023 505.03 22.7302 512.8C41.3202 521.3 60.7502 528.7 77.6402 539.65C100.97 554.77 125.57 569.57 150.9 581.93C197.27 604.55 245.76 624.23 288.04 654.93C298.73 662.69 309.89 672.4 312.67 685.98M152.28 174.59C142.75 191.64 174.49 205.36 174.29 218.13C174.16 226.68 152.85 232.63 144.99 237.31C125.39 248.98 113.38 269.62 99.9503 287.24C83.9003 308.31 68.4402 324.58 47.7102 341.42C24.8902 359.96 20.7402 388 10.0602 413.19C1.50021 433.38 -10.0298 453.76 -13.9298 476.18C-17.4498 496.41 -3.98979 509.43 12.7502 517.86C30.5402 526.82 49.1702 534.65 65.6502 545.52C89.4002 561.18 114.69 574.66 140.89 586.43C189.29 608.17 239.49 626.24 283.74 656.42C294.61 663.84 306.26 673.3 308.9 686.97M144.49 174.88C134.81 192.11 168.03 205.66 167.96 218.35C167.92 227.21 146.15 234 138.01 239.09C118.81 251.1 106.76 271.21 93.1702 288.7C76.9002 309.63 60.3202 325.78 40.8402 343.81C20.1102 363 14.3702 392.66 2.64023 416.69C-6.94977 436.33 -17.6598 457.18 -21.9398 479.18C-25.5898 497.95 -14.4898 513 1.12021 521.84C42.9202 545.53 85.8602 572.12 130.95 590.78C181.24 611.59 234.29 628.21 280.44 658.71C290.97 665.67 302.37 674.69 304.61 687.93M136.79 175.13C127.57 192.76 160.72 205.3 161.62 218.59C162.23 227.63 138.22 235.86 131.04 240.85C113.01 253.37 100.42 271.97 86.5402 289.78C70.2202 310.72 52.3802 327.28 34.1802 346.4C15.2202 366.31 7.62021 396.21 -4.96979 419.82C-21.7098 451.2 -49.2098 500.56 -8.55978 526.61C32.6902 553.05 75.3802 577.31 121.05 594.88C172.67 614.74 228.74 629.81 275.52 659.91C285.95 666.62 297.78 675.45 299.75 688.75M129.21 175.36C119.8 193.24 154.38 205.34 155.17 218.88C155.72 228.23 132.64 236.71 125.17 241.82C105.98 254.93 92.8202 274.18 78.3302 292.93C62.4602 313.46 43.2602 330.32 26.8602 350.19C9.8102 370.85 0.090209 399.42 -12.6298 422.73C-29.8498 454.28 -57.1298 503.77 -18.0998 531.22C21.7902 559.28 65.2702 582.43 111.22 598.75C164.31 617.6 221.98 631.25 270.22 660.97C280.67 667.41 292.81 676.1 294.28 689.47M121.73 175.54C112.11 193.65 148.1 205.48 148.83 219.14C149.36 228.96 126.18 237.93 118.28 243.39C99.2202 256.56 86.1402 275.24 71.7502 293.95C55.9102 314.54 36.0302 332.4 20.5702 353.1C4.47022 374.65 -7.39978 402.13 -20.2098 425.65C-37.5098 457.41 -65.3998 507.46 -27.4998 535.65C-11.2198 547.76 6.48022 558.85 23.3202 569.86C47.0602 585.38 74.1802 593.6 101.45 602.34C156.78 620.09 213.76 632.48 264.48 661.85C275.07 667.98 287.28 676.64 288.12 690.07M114.38 175.7C104.67 194.49 141.8 205.03 142.48 219.41C142.97 229.82 119.71 239.1 111.44 244.8C92.3602 257.96 79.5202 276.21 65.1802 294.95C49.2702 315.75 29.2102 334.53 14.3402 356.01C-1.23979 378.51 -14.7198 404.56 -27.7598 428.49C-45.1698 460.44 -73.1698 510.57 -36.7698 539.89C-21.2898 552.36 -4.17979 563.17 12.3702 574.45C35.9702 590.52 64.6902 597.62 91.7302 605.64C147.66 622.23 207.71 633.38 258.27 662.56C268.58 668.51 281.17 677.09 281.24 690.55M107.16 175.81C97.1902 194.92 135.7 204.83 136.27 219.64C136.72 231.53 111.19 241.83 101.58 248.14C85.5602 258.66 74.8402 274.7 63.5402 289.59C46.7802 311.66 26.1902 332.31 10.3802 355.18C-6.25975 379.27 -21.3198 405.72 -35.2498 431.28C-52.7798 463.46 -80.8098 513.61 -45.8398 543.94C-31.0998 556.73 -14.5797 567.69 1.76025 578.71C25.5803 594.78 54.7802 601.13 82.1002 608.66C138.94 624.31 200.19 634.04 251.57 663.1C261.73 668.85 274.46 677.5 273.59 690.93M100.08 175.88C89.9502 195.05 129.15 205.02 129.69 219.96C130.13 232.2 105.25 242.63 95.2902 249.09C79.2402 259.49 68.5402 275.77 57.2602 290.6C21.8402 337.21 -14.4498 382.21 -42.6698 433.97C-60.3398 466.38 -88.0098 515.53 -54.6998 547.74C-40.8898 561.09 -24.3898 571.98 -8.46979 582.56C15.4602 598.47 45.0702 604.24 72.5702 611.3C130.09 626.05 192.4 634.36 244.36 663.41C254.34 668.99 267.11 677.81 265.13 691.14M93.1602 175.91C83.1702 194.93 122.81 205.24 123.22 220.25C123.57 232.78 98.8702 243.04 89.3702 249.77C74.1302 260.58 62.9302 276.3 51.2902 291.67C15.7402 338.59 -21.5298 384.38 -50.0298 436.59C-67.7998 469.14 -95.4198 518.3 -63.3198 551.31C-29.4798 586.11 17.3102 602.3 63.1702 613.61C120.8 627.82 184.35 634.37 236.61 663.53C246.39 668.99 259.05 678.1 255.84 691.23M86.9002 175.81C78.5602 195.31 116.95 204.39 116.72 220.51C116.55 231.92 97.4502 241.02 88.4102 247.16C70.4802 259.34 57.4602 277.2 43.8802 294.94C8.29022 341.46 -28.9298 387.18 -57.1898 438.82C-75.5298 472.34 -103.02 521.71 -70.5098 555.82C-37.8898 590.04 8.86022 605.39 53.8502 615.51C91.3702 623.95 129.15 631.64 166.39 641.29C186.8 646.58 208.55 652.29 226.71 662.72C236.51 668.36 248.73 678.21 244.46 691.27M81.6402 175.44C74.3002 194.38 110.94 204.63 110.4 220.7C110.01 232.24 91.7202 241.3 82.6002 247.69C65.0002 260.02 51.9302 278.44 38.3302 296.1C2.3002 342.87 -35.3998 389.08 -64.1998 441C-82.8198 474.56 -110.25 524.14 -78.6898 558.84C-46.9798 593.7 0.260227 607.29 44.6402 617.01C101.03 629.36 164.13 632.8 214.38 663.13C223.88 668.86 234.86 679.08 229.76 691.48M77.3002 174.83C71.1502 193.98 105.26 204.29 104.25 220.78C103.47 233.44 83.8202 242.61 74.1102 250.12C57.3802 263.05 44.7602 282.01 31.2802 299.41C-4.63979 345.76 -42.1898 391.67 -71.0198 443.11C-89.5298 476.14 -117.53 525.29 -87.4398 560.24C-56.6898 595.96 -7.93978 608.96 36.4102 618.23C71.4402 625.55 106.64 632.37 141.27 641.37C162.06 646.77 185.74 653.97 202.73 665.83C209.89 670.83 217.26 682.77 212.24 691.83M73.7902 174.04C67.4402 193.06 100.14 203.43 98.0402 220.82C96.4502 234 78.0802 242.56 68.4602 250.62C52.2602 264.19 39.5402 283.24 26.0302 300.56C-10.3598 347.21 -48.3798 393.39 -77.6998 445.11C-96.0798 477.53 -124.73 526.32 -96.0698 561.39C-66.2298 597.9 -16.3098 610.56 27.4502 619.35C51.8002 624.24 221.13 645.91 192.21 692.2M71.0002 173.1C65.0102 192.05 94.9802 203.32 91.8002 220.8C89.2602 234.74 70.7502 243.68 60.5402 253.17C44.8702 267.75 32.6002 286.77 19.2002 303.82C-17.0998 350.02 -54.8698 395.81 -84.2198 447.02C-103.05 479.87 -132.53 529.6 -102.42 564.9C-72.7098 599.72 -24.5598 611.6 17.7402 620.44C41.0502 625.31 201.89 647.31 170.12 692.68M68.7902 172.07C63.1602 190.73 89.0302 203.63 85.2602 220.69C82.2402 234.38 64.8202 243.6 55.1402 253.72C40.3102 269.2 27.6602 287.83 14.1302 304.94C-22.6198 351.4 -60.7598 397.4 -90.5998 448.85C-109.57 481.55 -139.96 531.66 -109.65 567.01C-80.5698 600.92 -34.0098 612.54 7.32022 621.48C30.0302 626.39 181.41 648.57 146.33 693.23M67.0402 170.94C61.4902 189.26 83.5602 203.24 78.4202 220.35C74.7202 232.67 61.3402 241.47 53.0702 250.61C39.6502 265.43 27.0002 283.38 14.1502 299.67C-24.3598 348.5 -65.1898 396.58 -96.8598 450.56C-115.69 482.66 -146.55 532.13 -118.03 567.72C-90.6498 601.88 -43.8998 613.37 -3.6998 622.48C18.1002 627.42 160.12 650.21 121.27 693.84M65.5902 169.77C59.8702 187.35 77.0502 203.29 71.1302 219.87C66.8002 232 55.1602 241.23 47.4002 250.98C34.8002 266.79 22.0402 284.35 9.15021 300.65C-29.7098 349.77 -71.0098 397.97 -103.01 452.15C-122.47 485.09 -154.72 536.52 -122.91 572.19C-95.7898 602.61 -53.3098 614.48 -15.2098 623.39C6.87022 628.56 136.88 651.53 95.2702 694.46M64.3102 168.56C57.9702 185.19 68.9002 203.8 63.4802 219.26C59.1802 231.53 47.8202 242.37 40.1302 253.59C28.4702 270.62 15.3302 287.46 2.41022 303.69C-36.2098 352.21 -77.0198 400.05 -109.05 453.6C-128.09 485.44 -160.5 535.3 -132.19 571.2C-107.23 602.85 -64.3098 614.82 -27.0498 624.24C-3.64977 630.15 111.53 652.27 68.8302 695.11M63.0502 167.35C57.3002 183.91 61.1602 204.03 55.6602 218.51C51.7402 228.83 43.2102 239.75 36.8702 250.19C24.9302 269.86 10.1402 288.5 -4.39978 306.64C-42.8898 354.64 -83.1898 402.04 -115.01 454.94C-134.48 487.32 -167.67 537.78 -138 574.11C-114.05 603.43 -74.2098 615.4 -39.1898 625.03C-14.3998 631.85 85.6202 654.25 42.2702 695.79M61.6802 166.16C55.2002 182.87 53.9102 202.12 47.5302 217.67C43.1602 228.32 36.5002 239.51 30.9402 250.39C20.2802 271.25 4.9402 289.23 -9.6398 307.38C-48.3398 355.54 -88.7798 403.09 -120.87 456.09C-140.35 488.27 -173.88 539.17 -144.7 575.42C-122.3 603.26 -84.2098 615.61 -51.4298 625.71C-26.2598 633.46 60.0602 657.39 16.0302 696.43M60.0602 165.03C52.8402 182.18 46.5702 199.9 39.1702 216.78C32.3002 232.43 28.5702 250.22 19.5202 264.92C9.5502 281.12 -4.68979 295.41 -16.6598 310.09C-55.3298 357.5 -94.8098 404.78 -126.66 457.11C-145.96 488.83 -179.58 538.64 -152.62 575.22C-132.25 602.86 -94.9898 615.79 -63.6598 626.32C-34.3698 636.16 30.3902 658.78 -9.49979 697.04M58.0702 163.97C49.4302 181.52 38.6902 198.49 30.7002 215.82C23.5902 231.25 22.0502 250.01 13.3602 265.1C3.9302 281.48 -10.3298 295.98 -22.1998 310.61C-60.8898 358.3 -100.4 405.56 -132.38 457.95C-151.94 490 -186.35 541 -158.05 577.69C-138.43 603.12 -104.82 615.77 -75.8498 626.83C-46.2798 638.11 4.63021 662.22 -33.9098 697.63M55.5702 163.03C45.4202 181.07 30.3202 197.18 22.1202 214.85C15.1502 229.88 15.5502 249.79 7.14023 265.24C-1.84977 281.75 -16.1798 296.43 -27.9398 311.01C-66.5498 358.89 -106.02 406.19 -138.04 458.63C-157.62 490.69 -192.34 541.6 -164.39 578.51C-146.11 602.66 -114.87 615.7 -87.7798 627.25C-53.3798 641.92 -26.5598 663.64 -56.7798 698.15M52.4202 162.22C40.7302 180.7 20.9102 196.02 13.4902 213.88C8.0002 227.09 9.42022 247.54 2.88022 262.3C-4.01978 277.87 -18.5498 291.99 -29.0498 305.16C-68.9598 355.2 -110.35 404.43 -143.66 459.09C-163 490.84 -197.77 540.59 -171.96 577.66C-154.98 602.06 -125.18 614.82 -99.3298 627.52C-65.4598 644.16 -51.4198 667.02 -77.7298 698.56M48.5102 161.58C37.4902 181.39 10.9102 192.48 4.84021 212.96C0.54021 227.47 2.8102 247.41 -3.53979 262.32C-10.1598 277.85 -24.9498 292.13 -35.3098 305.22C-74.9698 355.36 -116.06 404.7 -149.23 459.37C-168.73 491.5 -204.25 542.5 -177 579.7C-160.72 601.93 -133.9 614.92 -110.49 627.7C-78.1098 645.37 -74.5398 670.52 -96.3398 698.91M43.7102 161.15C31.9202 180.98 2.1302 190.92 -3.2298 211.99C-6.9398 226.58 -3.59978 247.18 -9.92978 262.22C-16.4498 277.71 -31.5798 292.09 -41.8498 305.2C-81.1998 355.44 -121.87 404.81 -154.77 459.43C-174.18 491.66 -209.54 542.62 -183.08 579.94C-167.99 601.22 -142.5 614.42 -121 627.74C-91.3998 646.08 -94.6198 673.16 -112.19 699.13M37.8702 160.94C24.4802 177.91 -5.50978 190.74 -10.7098 210.96C-14.7298 226.58 -10.0798 246.22 -16.9198 261.85C-23.8198 277.63 -38.2598 291.76 -48.7498 305.3C-87.5898 355.41 -127.84 404.82 -160.3 459.3C-179.96 492.31 -214.95 543.77 -187.89 581.64C-173.63 601.59 -149.95 613.68 -130.74 627.68C-104.6 646.75 -111.06 674.61 -124.9 699.26M31.0902 160.94C17.3702 176.93 -12.9598 189.82 -17.6498 209.89C-21.3898 225.89 -16.3098 245.57 -23.4798 261.58C-30.6198 277.52 -45.3698 291.68 -55.9298 305.47C-93.9598 355.12 -132.72 404.84 -165.08 458.54C-185.03 491.65 -219.87 543.22 -193.69 581.5C-180.29 601.09 -157.42 612.23 -139.64 627.47C-116.19 647.57 -122.74 675.02 -134.9 699.28M23.9402 160.98C10.0502 176.11 -19.5398 188.84 -24.1298 208.81C-27.4298 223.17 -26.3998 239.61 -29.7798 254.24C-34.3698 274.09 -55.7098 295.25 -67.8298 311.63C-102.99 359.12 -139.33 406.49 -169.63 457.46C-189.51 490.91 -224.69 542.32 -199.39 581.15C-186.73 600.59 -164.14 611.3 -147.6 627.1C-125.95 647.78 -132.83 675.55 -144.79 699.27M16.5002 161.06C2.65021 175.4 -26.1298 188.31 -30.0698 207.74C-33.0798 222.61 -32.7098 239.68 -37.1398 254.66C-42.9998 274.43 -63.1398 294.93 -75.3998 311.85C-109.48 358.89 -144.7 405.92 -174.15 456.28C-193.94 490.13 -228.82 541.08 -204.82 580.48C-192.97 599.94 -170.58 610.41 -155.29 626.88C-135.2 648.52 -142.85 675.77 -154.63 699.29M8.82022 161.18C-4.76978 174.88 -31.5398 187.57 -35.4398 206.67C-38.4298 221.31 -38.1298 238.47 -43.2598 252.07C-50.7498 271.91 -68.5298 291.49 -81.7198 310.09C-115.2 357.31 -149.69 404.54 -178.63 454.94C-198.31 489.21 -232.41 539.26 -209.83 579.23C-198.85 598.66 -177.51 609.87 -163.32 626.71C-144.58 648.94 -152.66 675.99 -164.48 699.26M0.910217 161.32C-12.2998 174.58 -36.3898 187.06 -40.2398 205.72C-43.3298 220.7 -43.1898 238.41 -50.4098 252.5C-60.6798 272.56 -76.5598 291.44 -89.6598 310.35C-122 357.03 -155.15 403.81 -183.09 453.49C-202.34 487.73 -235.13 535.93 -215.43 576.11C-205.53 596.3 -184.66 608.73 -171.35 626.47C-154.11 649.45 -162.41 676.1 -174.36 699.29M-7.17978 161.5C-19.6098 175.43 -40.5198 186.4 -44.6198 204.81C-48.0598 220.25 -48.8898 238.64 -57.5598 252.94C-69.4698 272.57 -84.6398 291.29 -97.6698 310.59C-128.81 356.7 -160.53 402.98 -187.45 451.89C-206.51 486.52 -238.12 533.92 -220.06 574.46C-211.07 594.64 -191.34 607.93 -179.23 626.09C-163.47 649.73 -172.17 676.22 -184.23 699.29M-15.4598 161.69C-27.7398 174.24 -44.6398 187.22 -48.6798 203.97C-53.1398 222.46 -55.5598 242.5 -68.5098 258.59C-81.4898 274.71 -93.0398 291.47 -104.44 308.83C-134.76 354.97 -165.52 401.33 -191.72 450.11C-210.57 485.2 -240.98 531.76 -224.51 572.58C-216.35 592.81 -197.91 606.77 -187.02 625.59C-172.85 650.1 -181.88 676.26 -194.09 699.29M-23.8998 161.88C-35.4198 173.94 -48.0898 187.43 -52.2698 203.17C-57.5198 222.95 -61.3398 242.95 -76.3398 259.02C-90.4898 274.18 -101.41 291.48 -112.55 308.98C-141.49 354.46 -170.81 400.22 -195.87 448.15C-214.47 483.72 -243.51 529.25 -228.78 570.48C-221.52 590.79 -204.31 605.72 -194.71 624.97C-182.14 650.17 -191.54 676.23 -203.93 699.29M-32.4498 162.09C-43.3798 174.38 -50.6198 187.52 -55.5098 202.39C-61.8098 221.53 -66.1798 240.49 -81.1298 256.15C-96.1298 271.87 -108.03 288.6 -119.44 307.13C-147.41 352.54 -175.66 398.3 -199.9 446C-218.21 482.03 -245.81 526.57 -232.89 568.15C-226.54 588.58 -210.63 604.52 -202.34 624.22C-191.43 650.13 -201.17 676.11 -213.82 699.27M-41.0398 162.32C-52.7198 173.21 -53.4098 188.14 -58.5698 201.68C-66.4398 222.31 -71.7098 240.33 -88.6998 256.42C-104.56 271.42 -116.26 288.26 -127.48 307.15C-154.02 351.84 -180.66 396.91 -203.75 443.68C-222.77 482.2 -246.31 523.68 -236.79 565.63C-232.24 585.67 -216.82 603.22 -209.85 623.39C-200.66 650.02 -210.74 675.97 -223.67 699.31M-49.6698 162.56C-61.5398 173.53 -56.2598 187.82 -61.5598 201.07C-71.8398 226.73 -82.1098 244.06 -102.89 262.08C-118.53 275.65 -128.1 294.11 -138.6 312.6C-162.5 354.68 -186.45 397.24 -207.42 441.12C-225.93 479.85 -248.24 520.72 -240.5 562.84C-236.77 583.14 -222.87 601.73 -217.26 622.38C-209.83 649.72 -220.24 675.68 -233.52 699.28M-58.2898 162.82C-70.9698 174.59 -58.9598 187.23 -64.3698 200.44C-66.9898 206.82 -70.5898 214.8 -74.5498 222.47C-83.2498 239.28 -97.5298 250.51 -111.11 262.19C-126.77 275.65 -136.05 293.68 -146.15 312.26C-168.61 353.6 -191.08 395.45 -210.9 438.37C-228.87 477.28 -249.98 517.66 -244.04 559.86C-241.13 580.49 -228.85 600.14 -224.6 621.28C-218.96 649.33 -229.72 675.37 -243.39 699.29M-66.8698 163.08C-80.4398 176.27 -61.3798 186.19 -67.0298 199.77C-69.7998 206.41 -74.4598 215.45 -79.1298 222.94C-88.3198 237.71 -100.61 248.02 -114.82 258.78C-132.58 272.24 -142.44 290.61 -152.52 309.92C-174 351.11 -195.21 392.79 -214.17 435.37C-231.56 474.42 -251.51 514.41 -247.38 556.62C-245.32 577.66 -234.7 598.36 -231.83 620.02C-228.02 648.75 -239.15 674.95 -253.25 699.26M-75.4098 163.34C-89.6598 177.93 -64.1098 185.08 -69.9198 199.27C-72.6998 206.06 -78.3098 215.37 -83.4798 223.12C-92.3798 236.48 -105.15 245.65 -117.55 254.96C-136.41 269.12 -148.1 286.05 -158.73 307.44C-179.1 348.43 -199.1 389.93 -217.21 432.15C-234.04 471.38 -252.76 511.11 -250.54 553.17C-249.41 574.62 -240.93 597.05 -238.96 618.65C-236.36 647.19 -248.47 674.64 -263.12 699.26M-83.8698 163.59C-98.6698 179.24 -66.8198 184.03 -72.7598 198.74C-76.1498 207.14 -81.8898 215.85 -87.5998 222.81C-98.2398 235.79 -111.02 244.99 -124.9 254.69C-136.74 262.96 -149.36 272.98 -155.72 286.29C-158.91 292.97 -162.31 299.8 -165.58 306.66C-184.74 346.86 -202.98 387.51 -219.97 428.71C-236.19 468.03 -253.83 507.57 -253.48 549.52C-253.29 571.61 -246.61 594.93 -245.97 617.17C-245.14 646.43 -257.81 674.16 -272.97 699.28M-92.2398 163.83C-106.72 180.88 -71.0398 182.98 -75.5898 198.16C-77.3698 204.11 -83.3898 211.53 -88.0698 217.87C-101.46 235.99 -122.85 247.65 -140.94 260.64C-155.86 271.35 -164.06 287.56 -171.28 303.87C-188.93 343.74 -206.32 384.24 -222.47 425.01C-238.33 465.04 -255.31 505.19 -256.29 547.66C-256.8 569.8 -252.12 593.27 -252.86 615.55C-253.85 645.51 -267.11 673.59 -282.84 699.27M-100.51 164.02C-115.21 182.34 -73.7798 182.93 -78.8498 197.78C-82.0998 207.29 -89.9398 215.99 -97.4498 223.45C-110.65 236.56 -127.52 245.86 -142.74 256.33C-152.36 262.94 -162.84 270.4 -168.02 281.05C-172.22 289.68 -175.91 298.91 -179.65 307.87C-195.25 345.28 -210.24 383.11 -224.67 421.04C-239.92 461.13 -256.69 501.66 -258.91 543.57C-260.11 566.29 -257.54 590.81 -259.66 613.79C-262.49 644.45 -276.34 672.95 -292.69 699.27M-108.65 164.18C-123.9 181.03 -79.1898 183.31 -82.0398 197.25C-83.3198 203.48 -91.2298 211.96 -97.1498 218.24C-112 233.96 -133.23 244.86 -151.05 256.91C-161.42 263.93 -171.36 272.61 -176.3 284.46C-179.06 291.09 -181.8 297.81 -184.47 304.57C-199.12 341.68 -212.86 379.34 -226.56 416.82C-240.97 456.26 -256.95 496.08 -261.13 537.08C-263.6 561.37 -262.74 587.48 -266.37 611.89C-271.03 643.23 -285.54 672.25 -302.55 699.28M-116.63 164.3C-131.48 181.8 -83.6698 183.07 -85.6498 196.86C-86.5298 202.99 -95.1398 211.67 -101.53 217.73C-117.55 232.92 -139.3 243.9 -157.6 256.16C-167.77 262.97 -177.53 271.49 -182.1 283.2C-184.62 289.65 -187.13 296.2 -189.55 302.79C-202.89 339.08 -215.34 375.9 -228.13 412.35C-241.75 451.16 -256.68 490.02 -262.94 530.34C-267 556.46 -267.62 583.92 -272.93 609.89C-279.48 641.95 -294.67 671.53 -312.43 699.28M-124.31 164.41C-139.04 181.82 -87.3498 184.06 -89.7698 196.61C-91.7198 206.72 -104.01 216.58 -113.98 222.99C-131.41 234.2 -149.22 245.19 -166.22 256.74C-181.18 266.9 -188.01 282.48 -193.5 299C-205.42 334.89 -217.21 371.56 -229.36 407.56C-242.7 447.11 -257.62 486.87 -265.12 527.51C-269.98 553.87 -272.74 581.62 -279.4 607.69C-287.75 640.37 -303.7 670.77 -322.28 699.26" stroke="url(#paint0_linear)" stroke-width="1.4327" stroke-miterlimit="10" stroke-linecap="round"/>
<path d="M85.2201 361.71C95.4926 361.71 103.82 353.382 103.82 343.11C103.82 332.837 95.4926 324.51 85.2201 324.51C74.9476 324.51 66.6201 332.837 66.6201 343.11C66.6201 353.382 74.9476 361.71 85.2201 361.71Z" fill="url(#paint1_radial)" stroke="url(#paint2_radial)" stroke-miterlimit="10"/>
<path d="M85.2202 263.26V331.77" stroke="url(#paint3_linear)" stroke-miterlimit="10"/>
<path d="M84.75 262.88C102.975 262.88 117.75 248.105 117.75 229.88C117.75 211.655 102.975 196.88 84.75 196.88C66.5246 196.88 51.75 211.655 51.75 229.88C51.75 248.105 66.5246 262.88 84.75 262.88Z" fill="url(#paint4_linear)"/>
<path d="M84.41 241.82C83.21 241.72 82.08 241.46 81.03 241.03C79.98 240.57 79.06 239.99 78.3 239.27C77.54 238.55 76.92 237.72 76.47 236.79C76.01 235.86 75.77 234.84 75.75 233.73H80.17C80.22 234.9 80.63 235.89 81.39 236.68C82.18 237.45 83.19 237.89 84.41 238.01V230.89L82.72 230.64C80.78 230.38 79.23 229.65 78.08 228.45C76.95 227.25 76.39 225.73 76.39 223.88C76.39 222.92 76.61 222.02 77.04 221.18C77.47 220.32 78.06 219.56 78.8 218.91C79.54 218.24 80.39 217.7 81.35 217.29C82.33 216.88 83.35 216.63 84.41 216.53V213.19H87.03V216.61C88.11 216.75 89.1 217.04 90.01 217.47C90.92 217.88 91.71 218.4 92.38 219.05C93.05 219.7 93.58 220.44 93.96 221.28C94.37 222.12 94.6 223.02 94.64 223.98H90.22C90.17 223.12 89.85 222.37 89.25 221.75C88.67 221.1 87.93 220.66 87.02 220.42V227L88.24 227.18C89.15 227.32 90.01 227.58 90.83 227.94C91.64 228.3 92.35 228.77 92.95 229.34C93.57 229.92 94.05 230.61 94.39 231.43C94.75 232.22 94.93 233.12 94.93 234.13C94.93 235.21 94.73 236.19 94.32 237.08C93.94 237.94 93.39 238.71 92.67 239.38C91.97 240.03 91.14 240.57 90.15 241C89.19 241.41 88.15 241.67 87.02 241.79V245.49H84.4V241.82H84.41ZM87.04 237.97C88.17 237.78 89.04 237.37 89.66 236.75C90.28 236.1 90.59 235.29 90.59 234.31C90.59 233.4 90.29 232.73 89.69 232.3C89.09 231.84 88.41 231.54 87.64 231.4L87.03 231.29V237.97H87.04ZM84.41 220.32C83.4 220.46 82.54 220.84 81.82 221.43C81.12 222.01 80.78 222.78 80.78 223.77C80.78 224.61 81.01 225.24 81.46 225.68C81.94 226.09 82.56 226.35 83.33 226.47L84.41 226.65V220.32Z" fill="white"/>
<path d="M206 190.28L206.08 237.49" stroke="url(#paint5_linear)" stroke-miterlimit="10"/>
<path d="M206 248C212.075 248 217 243.299 217 237.5C217 231.701 212.075 227 206 227C199.925 227 195 231.701 195 237.5C195 243.299 199.925 248 206 248Z" fill="url(#paint6_radial)" stroke="url(#paint7_radial)" stroke-miterlimit="10"/>
<path d="M205.6 190.88C217.529 190.88 227.2 181.209 227.2 169.28C227.2 157.351 217.529 147.68 205.6 147.68C193.671 147.68 184 157.351 184 169.28C184 181.209 193.671 190.88 205.6 190.88Z" fill="url(#paint8_linear)"/>
<path d="M199.73 166.83L201.31 159.52H210.21L211.72 166.76L199.73 166.83Z" fill="white" stroke="white" stroke-width="0.0754" stroke-miterlimit="10" stroke-linejoin="round"/>
<path d="M192.12 176.9L193.7 169.59H202.6L204.1 176.82L192.12 176.9Z" fill="white" stroke="white" stroke-width="0.0754" stroke-miterlimit="10" stroke-linejoin="round"/>
<path d="M207.57 176.9L209.16 169.59H218.05L219.56 176.82L207.57 176.9Z" fill="white" stroke="white" stroke-width="0.0754" stroke-miterlimit="10" stroke-linejoin="round"/>
<path d="M588 191.3V269.3" stroke="url(#paint9_linear)" stroke-miterlimit="10"/>
<path opacity="0.4" d="M588.65 299.87C605.577 299.87 619.3 286.148 619.3 269.22C619.3 252.293 605.577 238.57 588.65 238.57C571.722 238.57 558 252.293 558 269.22C558 286.148 571.722 299.87 588.65 299.87Z" fill="url(#paint10_radial)"/>
<path d="M588.56 281.38C594.944 281.38 600.12 276.204 600.12 269.82C600.12 263.436 594.944 258.26 588.56 258.26C582.176 258.26 577 263.436 577 269.82C577 276.204 582.176 281.38 588.56 281.38Z" fill="url(#paint11_radial)"/>
<path d="M587.8 191.49C613.647 191.49 634.6 170.537 634.6 144.69C634.6 118.843 613.647 97.89 587.8 97.89C561.953 97.89 541 118.843 541 144.69C541 170.537 561.953 191.49 587.8 191.49Z" fill="url(#paint12_linear)"/>
<path d="M596.68 126.74L598.56 119.2L593.97 118.06L592.14 125.41C590.93 125.11 589.69 124.83 588.46 124.54L590.3 117.15L585.71 116.01L583.83 123.55C582.83 123.32 581.85 123.1 580.9 122.86L580.91 122.84L574.58 121.26L573.36 126.16C573.36 126.16 576.77 126.94 576.7 126.99C578.56 127.45 578.9 128.68 578.84 129.66L576.7 138.25C576.83 138.28 576.99 138.33 577.18 138.4C577.03 138.36 576.86 138.32 576.69 138.28L573.69 150.32C573.46 150.88 572.89 151.73 571.59 151.41C571.64 151.48 568.25 150.58 568.25 150.58L565.97 155.84L571.95 157.33C573.06 157.61 574.15 157.9 575.22 158.17L573.32 165.8L577.91 166.94L579.79 159.39C580.8 159.66 582.44 160.09 583.45 160.34L581.57 167.85L586.16 168.99L588.06 161.38C595.89 162.86 601.78 162.26 604.26 155.18C606.26 149.48 604.16 146.19 600.04 144.04C603.04 143.35 605.3 141.38 605.9 137.3C606.71 131.73 602.47 128.74 596.68 126.74ZM581.25 153.86L583.77 143.75C586.88 144.53 596.86 146.06 595.38 152.01C593.97 157.71 584.37 154.63 581.25 153.86ZM584.93 139.12L587.22 129.95C589.81 130.6 598.16 131.8 596.81 137.21C595.51 142.4 587.52 139.77 584.93 139.12Z" fill="white"/>
<path d="M684.91 129.12C694.249 129.12 701.82 121.549 701.82 112.21C701.82 102.871 694.249 95.3 684.91 95.3C675.571 95.3 668 102.871 668 112.21C668 121.549 675.571 129.12 684.91 129.12Z" fill="url(#paint13_linear)"/>
<path d="M685 129L685 167" stroke="url(#paint14_linear)" stroke-miterlimit="10"/>
<path d="M685.32 176.64C690.467 176.64 694.64 172.467 694.64 167.32C694.64 162.173 690.467 158 685.32 158C680.173 158 676 162.173 676 167.32C676 172.467 680.173 176.64 685.32 176.64Z" fill="url(#paint15_radial)"/>
<path d="M691.96 114.94C691.96 118.66 688.99 121.67 685.31 121.67C681.63 121.67 678.66 118.66 678.66 114.94C678.66 110.74 682.44 109.12 684.2 103.16C684.54 102.02 686.11 102.07 686.41 103.16C688.19 109.15 691.96 110.72 691.96 114.94ZM685.92 118.65C685.92 118.32 685.65 118.05 685.32 118.05C683.65 118.05 682.3 116.69 682.3 115.03C682.3 114.7 682.03 114.43 681.7 114.43C681.37 114.43 681.1 114.7 681.1 115.03C681.1 117.36 683 119.26 685.33 119.26C685.65 119.25 685.92 118.98 685.92 118.65Z" fill="white"/>
<path d="M377 187.68C411.794 187.68 440 159.474 440 124.68C440 89.8861 411.794 61.68 377 61.68C342.206 61.68 314 89.8861 314 124.68C314 159.474 342.206 187.68 377 187.68Z" fill="url(#paint16_linear)"/>
<path d="M377.014 107.86L384.372 98.908C393.591 99.408 402.177 101.594 409.996 105.165L409.559 104.985C407.098 108.174 403.851 110.65 400.105 112.144L399.954 112.197C399.52 107.94 396.523 106.902 387.009 106.902L377.017 163L366.965 106.89C357.511 106.89 354.514 107.937 354.077 112.191C350.183 110.656 346.939 108.192 344.516 105.065L344.478 105.014C351.854 101.618 360.44 99.4257 369.477 98.9287L369.659 98.9198L377.017 107.86H377.014ZM377.014 96.3223C377.332 96.3164 377.707 96.3164 378.081 96.3164C389.875 96.3164 401.086 98.8015 411.212 103.275L410.692 103.071C411.397 101.905 412.069 100.547 412.625 99.1328L412.69 98.9465C402.133 94.6182 389.884 92.074 377.044 92H377.014C364.147 92.071 351.895 94.6153 340.69 99.1831L341.338 98.9494C342.004 100.591 342.673 101.952 343.428 103.263L343.336 103.091C352.962 98.8074 364.197 96.3134 376.021 96.3134C376.372 96.3134 376.72 96.3164 377.068 96.3193H377.014V96.3223Z" fill="white"/>
<path d="M378 187L377 405" stroke="url(#paint17_linear)" stroke-miterlimit="10"/>
<path opacity="0.4" d="M377 447C396.882 447 413 430.882 413 411C413 391.118 396.882 375 377 375C357.118 375 341 391.118 341 411C341 430.882 357.118 447 377 447Z" fill="url(#paint18_radial)"/>
<path d="M377.5 427C387.165 427 395 418.941 395 409C395 399.059 387.165 391 377.5 391C367.835 391 360 399.059 360 409C360 418.941 367.835 427 377.5 427Z" fill="url(#paint19_radial)"/>
<path d="M438.998 125.15C439.059 133.27 437.527 141.41 434.434 148.96C431.36 156.51 426.755 163.46 420.981 169.28C415.197 175.09 408.244 179.78 400.636 182.95C393.028 186.14 384.776 187.8 376.513 187.86C368.24 187.92 359.947 186.37 352.258 183.27C348.419 181.71 344.731 179.78 341.275 177.49C337.828 175.19 334.614 172.55 331.692 169.63C325.898 163.74 321.252 156.74 318.229 149.11C316.718 145.29 315.599 141.34 314.884 137.32C314.199 133.29 313.886 129.21 314.037 125.15H314.239C314.531 133.24 316.295 141.23 319.529 148.58C322.754 155.92 327.359 162.65 333.123 168.22C335.974 171.03 339.098 173.56 342.444 175.76C345.779 177.98 349.316 179.89 353.024 181.44C360.42 184.56 368.451 186.19 376.523 186.26C384.584 186.31 392.666 184.78 400.153 181.75C407.64 178.73 414.522 174.22 420.286 168.57C426.06 162.93 430.725 156.15 433.889 148.72C437.074 141.3 438.736 133.23 438.807 125.14H438.998V125.15Z" fill="url(#paint20_linear)"/>
<path d="M314.002 121.99C313.941 113.964 315.473 105.917 318.566 98.4541C321.64 90.9909 326.245 84.1209 332.019 78.3679C337.803 72.6247 344.756 67.9887 352.364 64.8552C359.972 61.7019 368.224 60.061 376.487 60.0017C384.76 59.9423 393.053 61.4745 400.742 64.5388C404.581 66.0809 408.269 67.9887 411.725 70.2523C415.172 72.5259 418.386 75.1355 421.308 78.0219C427.102 83.8441 431.748 90.7636 434.771 98.3058C436.282 102.082 437.401 105.986 438.116 109.96C438.801 113.944 439.114 117.977 438.963 121.99H438.761C438.469 113.993 436.705 106.095 433.471 98.8297C430.246 91.5742 425.631 84.9216 419.877 79.4157C417.026 76.638 413.902 74.1371 410.556 71.9624C407.221 69.768 403.684 67.88 399.976 66.3478C392.58 63.2637 384.549 61.6524 376.477 61.5833C368.416 61.5338 360.334 63.0462 352.847 66.0414C345.36 69.0266 338.478 73.4847 332.714 79.0697C326.94 84.6448 322.275 91.3468 319.111 98.6913C315.926 106.026 314.264 114.003 314.193 122H314.002V121.99Z" fill="url(#paint21_linear)"/>
<g filter="url(#filter0_f)">
<path d="M438.574 126.709C438.774 134.849 437.364 143.069 434.364 150.719C431.384 158.369 426.854 165.459 421.124 171.429C415.364 177.379 408.414 182.199 400.764 185.509C393.124 188.829 384.784 190.609 376.404 190.749C368.024 190.889 359.584 189.409 351.704 186.349C343.824 183.279 336.614 178.459 330.744 172.369C327.834 169.309 325.214 165.979 322.974 162.409C320.764 158.829 318.874 155.059 317.474 151.119C314.604 143.269 313.464 134.849 314.234 126.709H314.764C315.534 134.779 317.574 142.569 320.934 149.689C322.634 153.239 324.584 156.649 326.884 159.799C329.154 162.969 331.694 165.939 334.514 168.609C340.114 173.979 346.624 178.359 353.724 181.489C360.814 184.649 368.574 186.349 376.414 186.499C384.244 186.629 392.124 185.229 399.444 182.329C406.774 179.439 413.544 175.069 419.244 169.559C424.974 164.069 429.644 157.429 432.854 150.099C436.074 142.779 437.844 134.789 438.054 126.719H438.574V126.709Z" fill="#EB1CFD"/>
<path d="M314.214 122.049C314.014 113.909 315.424 105.689 318.424 98.0391C321.404 90.3891 325.934 83.2991 331.664 77.3291C337.424 71.3791 344.374 66.5591 352.024 63.2491C359.664 59.9291 368.004 58.1491 376.384 58.0091C384.764 57.8691 393.204 59.3491 401.084 62.4091C408.964 65.4791 416.174 70.2991 422.044 76.3891C424.954 79.4491 427.574 82.7791 429.814 86.3491C432.024 89.9291 433.914 93.6991 435.314 97.6391C438.184 105.489 439.324 113.909 438.554 122.049H438.024C437.254 113.979 435.214 106.189 431.854 99.0691C430.154 95.5191 428.204 92.1091 425.904 88.9591C423.634 85.7891 421.094 82.8191 418.274 80.1491C412.674 74.7791 406.164 70.3991 399.064 67.2691C391.974 64.1091 384.214 62.4091 376.374 62.2591C368.544 62.1291 360.664 63.5291 353.344 66.4291C346.014 69.3191 339.244 73.6891 333.544 79.1991C327.814 84.6891 323.144 91.3291 319.934 98.6591C316.714 105.979 314.944 113.969 314.734 122.039H314.214V122.049Z" fill="#31D8A4"/>
</g>
<g filter="url(#filter1_f)">
<path d="M438.84 126.243C439.1 134.393 437.73 142.643 434.75 150.333C431.8 158.033 427.29 165.163 421.55 171.203C415.78 177.203 408.81 182.093 401.12 185.453C393.44 188.823 385.04 190.653 376.6 190.823C368.15 191.003 359.62 189.543 351.64 186.503C343.67 183.433 336.37 178.563 330.47 172.383C327.55 169.273 324.91 165.893 322.68 162.283C320.49 158.653 318.6 154.833 317.23 150.843C314.42 142.893 313.39 134.393 314.35 126.243H315.02C315.98 134.303 318.14 142.013 321.56 149.043C323.3 152.543 325.25 155.903 327.57 159.003C329.84 162.123 332.38 165.043 335.18 167.663C340.74 172.953 347.17 177.263 354.17 180.403C361.16 183.573 368.84 185.303 376.6 185.493C384.36 185.653 392.18 184.303 399.47 181.453C406.76 178.613 413.51 174.303 419.21 168.843C424.94 163.413 429.62 156.823 432.87 149.543C436.11 142.263 437.93 134.303 438.19 126.243H438.84Z" fill="#EB1CFD"/>
<path d="M314.35 121.583C314.09 113.433 315.46 105.193 318.44 97.5028C321.39 89.8129 325.9 82.6729 331.63 76.6429C337.39 70.6429 344.36 65.7529 352.05 62.3929C359.73 59.0129 368.12 57.1829 376.56 57.0129C384.97 56.8529 393.52 58.1829 401.52 61.2229C409.52 64.2729 416.8 69.2329 422.62 75.4729C425.51 78.6129 428.11 82.0028 430.31 85.6229C432.48 89.2629 434.36 93.0629 435.74 97.0329C438.56 104.933 439.77 113.413 438.83 121.583H438.16C436.21 105.523 428.89 90.8428 417.86 80.1329C412.36 74.7829 405.99 70.4229 399 67.3129C395.51 65.7529 391.84 64.5329 388.08 63.7129C384.31 62.8929 380.45 62.4429 376.56 62.3329C368.8 62.1729 360.99 63.5329 353.7 66.3829C346.42 69.2229 339.67 73.5329 333.98 78.9929C328.26 84.4229 323.57 91.0028 320.33 98.2929C317.09 105.573 315.28 113.523 315.01 121.583H314.35Z" fill="#31D8A4"/>
</g>
<path d="M226.95 169.423C226.971 172.214 226.444 175.012 225.381 177.607C224.325 180.202 222.743 182.59 220.759 184.591C218.772 186.588 216.383 188.199 213.769 189.289C211.154 190.385 208.319 190.956 205.48 190.977C202.637 190.997 199.787 190.464 197.146 189.399C195.826 188.863 194.559 188.2 193.372 187.412C192.188 186.622 191.083 185.715 190.079 184.711C188.088 182.687 186.492 180.281 185.453 177.658C184.934 176.345 184.55 174.988 184.304 173.606C184.068 172.221 183.961 170.819 184.013 169.423H184.082C184.183 172.204 184.788 174.95 185.9 177.476C187.008 179.999 188.59 182.312 190.571 184.226C191.55 185.192 192.624 186.062 193.773 186.818C194.919 187.581 196.135 188.237 197.409 188.77C199.95 189.842 202.71 190.403 205.483 190.427C208.253 190.444 211.03 189.918 213.602 188.877C216.175 187.839 218.54 186.289 220.52 184.347C222.504 182.408 224.107 180.078 225.194 177.524C226.288 174.974 226.86 172.2 226.884 169.42H226.95V169.423Z" fill="url(#paint22_linear)"/>
<path d="M184.001 168.337C183.98 165.578 184.506 162.813 185.569 160.248C186.625 157.683 188.207 155.321 190.191 153.344C192.179 151.37 194.568 149.777 197.182 148.7C199.796 147.616 202.632 147.052 205.471 147.032C208.313 147.011 211.163 147.538 213.805 148.591C215.124 149.121 216.391 149.777 217.579 150.555C218.763 151.336 219.867 152.233 220.871 153.225C222.862 155.226 224.458 157.605 225.497 160.197C226.017 161.495 226.401 162.837 226.647 164.202C226.882 165.572 226.989 166.958 226.938 168.337H226.868C226.768 165.589 226.162 162.874 225.051 160.377C223.943 157.883 222.357 155.597 220.38 153.704C219.4 152.75 218.327 151.89 217.177 151.143C216.031 150.388 214.816 149.739 213.542 149.213C211 148.153 208.241 147.599 205.467 147.575C202.697 147.558 199.921 148.078 197.348 149.108C194.776 150.134 192.411 151.666 190.43 153.585C188.446 155.502 186.843 157.805 185.756 160.329C184.662 162.85 184.091 165.592 184.066 168.34H184.001V168.337Z" fill="url(#paint23_linear)"/>
<g filter="url(#filter2_f)">
<path d="M226.804 169.959C226.873 172.757 226.388 175.582 225.358 178.211C224.334 180.841 222.777 183.277 220.808 185.329C218.829 187.374 216.441 189.031 213.812 190.169C211.187 191.31 208.322 191.921 205.442 191.97C202.563 192.018 199.663 191.509 196.955 190.457C194.248 189.402 191.77 187.745 189.753 185.652C188.754 184.601 187.853 183.456 187.084 182.229C186.324 180.999 185.675 179.703 185.194 178.349C184.208 175.651 183.816 172.757 184.081 169.959H184.263C184.527 172.733 185.228 175.41 186.383 177.857C186.967 179.077 187.637 180.249 188.427 181.332C189.207 182.422 190.08 183.442 191.049 184.36C192.973 186.206 195.21 187.711 197.649 188.787C200.086 189.873 202.752 190.457 205.446 190.509C208.136 190.553 210.844 190.072 213.359 189.076C215.878 188.082 218.204 186.58 220.162 184.687C222.131 182.8 223.736 180.517 224.839 177.998C225.945 175.482 226.553 172.736 226.625 169.962H226.804V169.959Z" fill="#EB1CFD"/>
<path d="M184.074 168.357C184.005 165.56 184.49 162.734 185.52 160.105C186.544 157.476 188.101 155.039 190.07 152.987C192.049 150.942 194.437 149.285 197.065 148.148C199.691 147.007 202.556 146.395 205.436 146.347C208.315 146.299 211.215 146.807 213.923 147.859C216.63 148.914 219.108 150.571 221.124 152.664C222.124 153.716 223.025 154.86 223.794 156.087C224.554 157.318 225.203 158.613 225.684 159.968C226.67 162.666 227.062 165.56 226.797 168.357H226.615C226.351 165.584 225.65 162.906 224.495 160.459C223.911 159.239 223.241 158.067 222.451 156.984C221.671 155.895 220.798 154.874 219.829 153.956C217.905 152.111 215.668 150.605 213.228 149.529C210.792 148.443 208.126 147.859 205.432 147.808C202.742 147.763 200.034 148.244 197.519 149.241C195 150.234 192.674 151.736 190.716 153.63C188.747 155.517 187.142 157.799 186.039 160.318C184.933 162.834 184.325 165.58 184.252 168.354H184.074V168.357Z" fill="#31D8A4"/>
</g>
<g filter="url(#filter3_f)">
<path d="M226.896 169.799C226.985 172.6 226.514 175.435 225.49 178.078C224.477 180.725 222.927 183.176 220.955 185.252C218.972 187.314 216.577 188.994 213.935 190.149C211.296 191.308 208.41 191.936 205.51 191.995C202.606 192.057 199.675 191.555 196.933 190.51C194.195 189.455 191.687 187.781 189.659 185.657C188.656 184.588 187.749 183.426 186.983 182.186C186.23 180.938 185.581 179.625 185.11 178.254C184.144 175.521 183.791 172.6 184.12 169.799H184.351C184.68 172.569 185.423 175.219 186.598 177.635C187.196 178.838 187.866 179.993 188.663 181.058C189.443 182.131 190.316 183.134 191.278 184.035C193.188 185.853 195.397 187.334 197.803 188.414C200.204 189.503 202.843 190.098 205.51 190.163C208.176 190.218 210.863 189.754 213.368 188.774C215.873 187.798 218.192 186.317 220.151 184.44C222.119 182.574 223.727 180.309 224.844 177.807C225.957 175.305 226.583 172.569 226.672 169.799H226.896Z" fill="#EB1CFD"/>
<path d="M184.12 168.197C184.031 165.396 184.501 162.564 185.525 159.921C186.539 157.278 188.089 154.824 190.058 152.751C192.037 150.689 194.432 149.008 197.074 147.854C199.713 146.692 202.596 146.063 205.496 146.004C208.385 145.949 211.323 146.407 214.072 147.451C216.821 148.5 219.322 150.204 221.322 152.349C222.315 153.428 223.208 154.593 223.964 155.838C224.71 157.089 225.356 158.395 225.83 159.759C226.799 162.475 227.215 165.389 226.892 168.197H226.662C225.992 162.677 223.476 157.632 219.686 153.951C217.797 152.112 215.608 150.613 213.206 149.545C212.007 149.008 210.746 148.589 209.454 148.307C208.159 148.025 206.832 147.871 205.496 147.833C202.829 147.778 200.146 148.245 197.641 149.225C195.139 150.201 192.82 151.682 190.865 153.559C188.9 155.425 187.288 157.687 186.175 160.192C185.062 162.694 184.44 165.427 184.347 168.197H184.12Z" fill="#31D8A4"/>
</g>
<path d="M118.922 230.153C118.954 234.461 118.134 238.779 116.478 242.784C114.832 246.789 112.367 250.476 109.276 253.564C106.179 256.646 102.457 259.134 98.3835 260.816C94.3104 262.508 89.892 263.389 85.4682 263.42C81.039 263.452 76.599 262.63 72.4827 260.985C70.4273 260.158 68.4528 259.134 66.6023 257.919C64.7573 256.699 63.0363 255.299 61.4718 253.75C58.3698 250.625 55.8827 246.911 54.2643 242.864C53.455 240.837 52.8562 238.742 52.4732 236.609C52.1063 234.471 51.9391 232.307 52.02 230.153H52.1279C52.2844 234.445 53.2285 238.684 54.9602 242.583C56.6866 246.476 59.152 250.047 62.2379 253.002C63.7646 254.492 65.437 255.834 67.2281 257.001C69.0138 258.179 70.9074 259.192 72.8927 260.015C76.8526 261.67 81.1523 262.535 85.4736 262.572C89.7895 262.598 94.1162 261.787 98.1245 260.179C102.133 258.577 105.818 256.185 108.903 253.187C111.995 250.195 114.493 246.598 116.187 242.657C117.891 238.721 118.781 234.44 118.819 230.148H118.922V230.153Z" fill="url(#paint24_linear)"/>
<path d="M52.0009 228.477C51.9686 224.219 52.7886 219.95 54.4448 215.991C56.0902 212.032 58.5557 208.387 61.6469 205.336C64.7436 202.289 68.466 199.829 72.5392 198.167C76.6123 196.494 81.0307 195.624 85.4545 195.592C89.8837 195.561 94.3236 196.374 98.4399 197.999C100.495 198.817 102.47 199.829 104.32 201.03C106.165 202.236 107.886 203.621 109.451 205.152C112.553 208.241 115.04 211.911 116.658 215.912C117.468 217.916 118.066 219.987 118.449 222.095C118.816 224.208 118.984 226.348 118.903 228.477H118.795C118.638 224.235 117.694 220.045 115.962 216.19C114.236 212.341 111.765 208.812 108.685 205.891C107.158 204.418 105.486 203.091 103.695 201.937C101.909 200.773 100.015 199.772 98.0299 198.959C94.0701 197.323 89.7704 196.468 85.4491 196.431C81.1332 196.405 76.8065 197.207 72.7981 198.796C68.7897 200.38 65.105 202.745 62.0192 205.708C58.9279 208.665 56.4301 212.221 54.7361 216.117C53.0313 220.008 52.1412 224.24 52.1034 228.482H52.0009V228.477Z" fill="url(#paint25_linear)"/>
<g filter="url(#filter4_f)">
<path d="M118.695 230.98C118.802 235.298 118.047 239.659 116.441 243.717C114.845 247.776 112.42 251.537 109.352 254.704C106.269 257.86 102.548 260.417 98.452 262.173C94.3617 263.934 89.8966 264.879 85.4101 264.953C80.9236 265.027 76.405 264.242 72.1862 262.619C67.9674 260.99 64.1073 258.433 60.9646 255.203C59.4066 253.579 58.0039 251.813 56.8047 249.919C55.6215 248.02 54.6096 246.02 53.8601 243.93C52.3235 239.765 51.7132 235.298 52.1254 230.98H52.4092C52.8214 235.261 53.9136 239.394 55.7125 243.171C56.6227 245.054 57.6666 246.863 58.898 248.534C60.1133 250.216 61.4732 251.791 62.983 253.208C65.9811 256.057 69.4664 258.38 73.2677 260.041C77.0635 261.717 81.2181 262.619 85.4155 262.698C89.6075 262.767 93.8263 262.025 97.7453 260.486C101.67 258.953 105.294 256.635 108.346 253.712C111.414 250.799 113.914 247.277 115.632 243.388C117.356 239.505 118.304 235.267 118.416 230.986H118.695V230.98Z" fill="#EB1CFD"/>
<path d="M52.1145 228.508C52.0074 224.19 52.7623 219.829 54.3684 215.771C55.9639 211.713 58.3891 207.952 61.4569 204.784C64.5407 201.628 68.2616 199.071 72.3572 197.315C76.4475 195.554 80.9126 194.61 85.3991 194.535C89.8856 194.461 94.4042 195.246 98.623 196.87C102.842 198.498 106.702 201.055 109.845 204.286C111.403 205.909 112.805 207.676 114.005 209.57C115.188 211.469 116.2 213.469 116.949 215.559C118.486 219.723 119.096 224.19 118.684 228.508H118.4C117.988 224.227 116.896 220.095 115.097 216.317C114.187 214.434 113.143 212.625 111.911 210.954C110.696 209.272 109.336 207.697 107.826 206.28C104.828 203.432 101.343 201.108 97.5416 199.448C93.7457 197.771 89.5912 196.87 85.3938 196.79C81.2017 196.721 76.9829 197.464 73.0639 199.002C69.1396 200.535 65.5151 202.853 62.4634 205.776C59.3957 208.689 56.8954 212.211 55.1769 216.1C53.4529 219.983 52.5053 224.222 52.3929 228.503H52.1145V228.508Z" fill="#31D8A4"/>
</g>
<g filter="url(#filter5_f)">
<path d="M118.837 230.733C118.976 235.056 118.243 239.433 116.647 243.512C115.068 247.597 112.654 251.38 109.58 254.584C106.491 257.767 102.76 260.361 98.6426 262.143C94.5309 263.931 90.0337 264.902 85.515 264.992C80.9911 265.088 76.4243 264.313 72.1519 262.7C67.8849 261.072 63.9767 258.488 60.8179 255.21C59.2546 253.56 57.8412 251.767 56.6473 249.852C55.4748 247.926 54.4629 245.9 53.7295 243.783C52.225 239.566 51.6736 235.056 52.1876 230.733H52.5463C53.0602 235.009 54.2167 239.099 56.0477 242.828C56.9792 244.685 58.0232 246.467 59.2653 248.112C60.4806 249.767 61.8405 251.316 63.3396 252.706C66.3163 255.512 69.7588 257.799 73.5064 259.464C77.2488 261.146 81.3605 262.064 85.515 262.165C89.6696 262.249 93.8563 261.533 97.7592 260.021C101.662 258.515 105.276 256.228 108.328 253.332C111.395 250.451 113.901 246.955 115.641 243.093C117.376 239.231 118.35 235.009 118.489 230.733H118.837Z" fill="#EB1CFD"/>
<path d="M52.1876 228.261C52.0484 223.937 52.7818 219.566 54.3773 215.486C55.9566 211.407 58.3712 207.619 61.4389 204.42C64.5227 201.237 68.2543 198.643 72.3714 196.861C76.4832 195.068 80.975 194.097 85.4936 194.007C89.9962 193.922 94.5737 194.627 98.8567 196.24C103.14 197.858 107.037 200.489 110.153 203.8C111.701 205.465 113.093 207.264 114.27 209.184C115.432 211.115 116.439 213.131 117.177 215.237C118.687 219.428 119.335 223.927 118.832 228.261H118.473C117.429 219.741 113.51 211.953 107.605 206.272C104.66 203.434 101.25 201.121 97.5076 199.471C95.6391 198.643 93.6742 197.996 91.6612 197.561C89.6428 197.126 87.5763 196.887 85.4936 196.829C81.3391 196.744 77.1577 197.466 73.2548 198.978C69.3572 200.484 65.7434 202.771 62.6971 205.667C59.6347 208.548 57.1238 212.038 55.3891 215.906C53.6545 219.768 52.6855 223.985 52.5409 228.261H52.1876Z" fill="#31D8A4"/>
</g>
<path d="M633.891 145.411C633.936 151.417 632.798 157.438 630.499 163.023C628.215 168.608 624.793 173.749 620.502 178.054C616.204 182.352 611.037 185.821 605.383 188.166C599.729 190.525 593.596 191.753 587.456 191.798C581.308 191.842 575.145 190.695 569.431 188.402C566.578 187.248 563.837 185.821 561.269 184.127C558.708 182.426 556.319 180.473 554.147 178.313C549.842 173.956 546.389 168.778 544.143 163.134C543.02 160.308 542.188 157.387 541.657 154.413C541.148 151.432 540.915 148.414 541.028 145.411H541.178C541.395 151.395 542.705 157.305 545.109 162.742C547.505 168.171 550.927 173.15 555.211 177.27C557.33 179.348 559.651 181.22 562.138 182.847C564.616 184.489 567.245 185.902 570 187.049C575.497 189.357 581.465 190.562 587.463 190.614C593.454 190.651 599.46 189.519 605.024 187.278C610.587 185.044 615.702 181.708 619.985 177.529C624.276 173.357 627.743 168.342 630.095 162.846C632.461 157.357 633.697 151.388 633.749 145.403H633.891V145.411Z" fill="url(#paint26_linear)"/>
<path d="M541.001 143.073C540.956 137.136 542.095 131.184 544.394 125.664C546.677 120.143 550.1 115.061 554.391 110.806C558.689 106.558 563.856 103.128 569.51 100.81C575.163 98.478 581.296 97.2642 587.437 97.2203C593.585 97.1765 599.748 98.3098 605.461 100.577C608.314 101.717 611.055 103.128 613.624 104.803C616.185 106.485 618.574 108.415 620.745 110.55C625.051 114.857 628.503 119.975 630.75 125.554C631.873 128.347 632.704 131.235 633.236 134.175C633.745 137.121 633.977 140.105 633.865 143.073H633.715C633.498 137.158 632.187 131.316 629.784 125.942C627.387 120.575 623.958 115.654 619.682 111.581C617.563 109.526 615.241 107.676 612.755 106.068C610.276 104.445 607.648 103.048 604.892 101.915C599.396 99.6333 593.428 98.4414 587.429 98.3902C581.439 98.3537 575.433 99.4724 569.869 101.688C564.305 103.896 559.191 107.194 554.907 111.325C550.616 115.449 547.149 120.406 544.798 125.839C542.432 131.265 541.196 137.165 541.144 143.081H541.001V143.073Z" fill="url(#paint27_linear)"/>
<g filter="url(#filter6_f)">
<path d="M633.576 146.564C633.725 152.585 632.677 158.665 630.448 164.324C628.233 169.983 624.867 175.227 620.608 179.643C616.328 184.045 611.163 187.61 605.478 190.058C599.801 192.514 593.603 193.831 587.375 193.934C581.148 194.038 574.876 192.943 569.02 190.68C563.164 188.409 557.806 184.844 553.443 180.339C551.281 178.075 549.334 175.612 547.669 172.971C546.027 170.323 544.622 167.535 543.582 164.62C541.449 158.813 540.602 152.585 541.174 146.564H541.568C542.14 152.533 543.656 158.296 546.153 163.562C547.417 166.188 548.866 168.711 550.575 171.041C552.262 173.386 554.149 175.582 556.245 177.557C560.407 181.53 565.244 184.77 570.521 187.085C575.79 189.422 581.556 190.68 587.383 190.791C593.201 190.887 599.057 189.851 604.497 187.706C609.944 185.568 614.975 182.336 619.211 178.26C623.47 174.199 626.94 169.288 629.326 163.866C631.718 158.451 633.034 152.541 633.19 146.571H633.576V146.564Z" fill="#EB1CFD"/>
<path d="M541.159 143.117C541.011 137.096 542.059 131.015 544.288 125.357C546.503 119.698 549.869 114.453 554.127 110.037C558.408 105.636 563.572 102.071 569.258 99.6225C574.935 97.1667 581.133 95.85 587.36 95.7464C593.588 95.6429 599.86 96.7376 605.716 99.0011C611.572 101.272 616.93 104.837 621.292 109.342C623.455 111.606 625.402 114.069 627.066 116.71C628.709 119.358 630.113 122.146 631.154 125.061C633.287 130.867 634.134 137.096 633.562 143.117H633.168C632.595 137.148 631.079 131.385 628.582 126.119C627.319 123.493 625.87 120.97 624.161 118.64C622.474 116.295 620.586 114.098 618.491 112.123C614.329 108.151 609.491 104.911 604.215 102.596C598.946 100.259 593.179 99.0011 587.353 98.8902C581.534 98.794 575.678 99.8296 570.238 101.975C564.791 104.112 559.76 107.345 555.524 111.421C551.266 115.482 547.796 120.393 545.41 125.815C543.017 131.23 541.702 137.14 541.546 143.11H541.159V143.117Z" fill="#31D8A4"/>
</g>
<g filter="url(#filter7_f)">
<path d="M633.774 146.219C633.967 152.248 632.949 158.35 630.735 164.038C628.542 169.734 625.191 175.008 620.925 179.476C616.637 183.914 611.457 187.531 605.743 190.017C600.035 192.51 593.793 193.863 587.521 193.989C581.241 194.122 574.902 193.042 568.972 190.793C563.049 188.523 557.624 184.92 553.24 180.349C551.07 178.048 549.108 175.548 547.451 172.878C545.823 170.193 544.419 167.367 543.401 164.416C541.312 158.535 540.547 152.248 541.26 146.219H541.758C542.472 152.181 544.077 157.884 546.618 163.084C547.911 165.673 549.361 168.159 551.085 170.452C552.772 172.76 554.659 174.919 556.74 176.858C560.872 180.771 565.65 183.959 570.852 186.281C576.047 188.626 581.754 189.906 587.521 190.046C593.288 190.165 599.099 189.166 604.517 187.058C609.934 184.957 614.95 181.769 619.186 177.73C623.444 173.714 626.922 168.839 629.337 163.454C631.745 158.069 633.098 152.181 633.291 146.219H633.774Z" fill="#EB1CFD"/>
<path d="M541.26 142.772C541.067 136.743 542.085 130.648 544.3 124.96C546.492 119.272 549.844 113.99 554.102 109.53C558.382 105.092 563.562 101.475 569.277 98.9891C574.984 96.4889 581.219 95.1353 587.491 95.0095C593.741 94.8912 600.095 95.875 606.04 98.1237C611.985 100.38 617.395 104.049 621.72 108.664C623.868 110.987 625.8 113.495 627.435 116.172C629.048 118.865 630.445 121.676 631.47 124.612C633.566 130.456 634.465 136.729 633.767 142.772H633.269C631.82 130.892 626.38 120.034 618.183 112.111C614.096 108.154 609.362 104.929 604.167 102.628C601.574 101.475 598.846 100.572 596.052 99.9655C593.251 99.359 590.382 99.0261 587.491 98.9447C581.724 98.8264 575.921 99.8324 570.503 101.941C565.093 104.041 560.077 107.229 555.848 111.268C551.598 115.285 548.112 120.152 545.704 125.544C543.297 130.929 541.952 136.81 541.751 142.772H541.26Z" fill="#31D8A4"/>
</g>
<path d="M701.96 112.331C701.977 114.515 701.561 116.705 700.72 118.736C699.885 120.766 698.634 122.636 697.065 124.201C695.494 125.764 693.605 127.026 691.538 127.878C689.471 128.736 687.229 129.183 684.984 129.199C682.736 129.215 680.483 128.798 678.394 127.964C677.351 127.545 676.349 127.026 675.41 126.41C674.474 125.791 673.601 125.081 672.807 124.296C671.232 122.711 669.97 120.828 669.149 118.776C668.738 117.748 668.434 116.686 668.24 115.605C668.054 114.521 667.969 113.423 668.01 112.331H668.065C668.144 114.507 668.623 116.656 669.502 118.633C670.378 120.608 671.629 122.418 673.195 123.916C673.97 124.672 674.819 125.353 675.728 125.944C676.634 126.542 677.595 127.055 678.602 127.472C680.612 128.311 682.794 128.75 684.987 128.769C687.177 128.782 689.372 128.371 691.406 127.556C693.441 126.743 695.31 125.53 696.876 124.01C698.445 122.493 699.713 120.67 700.572 118.671C701.437 116.675 701.889 114.505 701.908 112.328H701.96V112.331Z" fill="url(#paint28_linear)"/>
<path d="M668 111.481C667.984 109.322 668.4 107.158 669.241 105.15C670.076 103.143 671.327 101.295 672.895 99.7476C674.467 98.2028 676.356 96.9558 678.423 96.1129C680.49 95.2647 682.732 94.8233 684.977 94.8074C687.225 94.7914 689.478 95.2036 691.567 96.0278C692.61 96.4426 693.612 96.9558 694.551 97.5646C695.487 98.1762 696.36 98.8781 697.154 99.6545C698.728 101.221 699.99 103.082 700.812 105.111C701.222 106.126 701.526 107.176 701.721 108.245C701.907 109.317 701.992 110.402 701.951 111.481H701.896C701.816 109.33 701.337 107.206 700.459 105.251C699.582 103.3 698.329 101.51 696.765 100.029C695.991 99.2823 695.142 98.6096 694.233 98.0246C693.327 97.4344 692.366 96.9265 691.358 96.5144C689.349 95.6848 687.167 95.2514 684.974 95.2328C682.784 95.2195 680.588 95.6263 678.554 96.432C676.52 97.2349 674.65 98.4341 673.084 99.9364C671.516 101.436 670.248 103.239 669.388 105.214C668.523 107.187 668.072 109.333 668.052 111.484H668V111.481Z" fill="url(#paint29_linear)"/>
<g filter="url(#filter8_f)">
<path d="M701.845 112.751C701.899 114.94 701.516 117.151 700.701 119.209C699.892 121.267 698.661 123.174 697.104 124.779C695.539 126.38 693.651 127.676 691.573 128.567C689.497 129.46 687.231 129.939 684.954 129.976C682.678 130.014 680.385 129.616 678.244 128.793C676.103 127.967 674.144 126.67 672.549 125.032C671.759 124.209 671.047 123.313 670.438 122.353C669.838 121.39 669.324 120.376 668.944 119.316C668.164 117.205 667.854 114.94 668.064 112.751H668.208C668.417 114.921 668.971 117.017 669.884 118.932C670.346 119.887 670.876 120.804 671.5 121.651C672.117 122.504 672.807 123.303 673.573 124.021C675.095 125.465 676.864 126.643 678.793 127.485C680.719 128.335 682.827 128.793 684.957 128.833C687.084 128.868 689.225 128.491 691.214 127.711C693.205 126.934 695.045 125.759 696.593 124.276C698.15 122.8 699.419 121.014 700.291 119.042C701.166 117.073 701.647 114.924 701.704 112.753H701.845V112.751Z" fill="#EB1CFD"/>
<path d="M668.058 111.497C668.004 109.308 668.387 107.097 669.202 105.039C670.012 102.981 671.242 101.074 672.799 99.4682C674.364 97.8677 676.252 96.5712 678.331 95.6809C680.406 94.7879 682.672 94.3091 684.949 94.2714C687.226 94.2338 689.519 94.6319 691.66 95.4549C693.801 96.2807 695.759 97.5772 697.354 99.2153C698.145 100.038 698.857 100.934 699.465 101.894C700.066 102.857 700.579 103.871 700.959 104.931C701.739 107.043 702.049 109.308 701.84 111.497H701.696C701.487 109.326 700.932 107.231 700.019 105.316C699.558 104.361 699.028 103.444 698.403 102.596C697.786 101.744 697.096 100.945 696.33 100.227C694.808 98.7823 693.04 97.6041 691.111 96.7622C689.185 95.9122 687.076 95.4549 684.946 95.4146C682.819 95.3796 680.678 95.7562 678.689 96.5363C676.698 97.3136 674.859 98.4891 673.31 99.9712C671.753 101.448 670.484 103.234 669.612 105.206C668.738 107.175 668.257 109.324 668.2 111.494H668.058V111.497Z" fill="#31D8A4"/>
</g>
<g filter="url(#filter9_f)">
<path d="M701.917 112.625C701.988 114.817 701.616 117.036 700.806 119.105C700.005 121.176 698.779 123.094 697.22 124.719C695.652 126.332 693.759 127.648 691.669 128.552C689.583 129.458 687.301 129.95 685.008 129.996C682.712 130.044 680.394 129.652 678.226 128.834C676.061 128.008 674.078 126.698 672.475 125.036C671.681 124.199 670.964 123.29 670.358 122.319C669.763 121.343 669.25 120.315 668.878 119.242C668.114 117.104 667.834 114.817 668.095 112.625H668.277C668.538 114.793 669.125 116.867 670.054 118.758C670.527 119.699 671.057 120.603 671.687 121.437C672.304 122.276 672.994 123.062 673.754 123.766C675.265 125.189 677.012 126.349 678.914 127.193C680.813 128.046 682.899 128.511 685.008 128.562C687.116 128.605 689.241 128.242 691.221 127.476C693.202 126.712 695.036 125.552 696.584 124.084C698.141 122.623 699.412 120.851 700.295 118.892C701.176 116.934 701.67 114.793 701.741 112.625H701.917Z" fill="#EB1CFD"/>
<path d="M668.095 111.372C668.024 109.179 668.396 106.963 669.206 104.895C670.008 102.826 671.233 100.906 672.79 99.2836C674.355 97.6697 676.248 96.3544 678.337 95.4506C680.424 94.5414 682.703 94.0492 684.996 94.0035C687.281 93.9604 689.604 94.3182 691.778 95.1359C693.951 95.9563 695.929 97.2904 697.51 98.9689C698.295 99.8135 699.002 100.725 699.6 101.699C700.189 102.678 700.7 103.7 701.075 104.768C701.841 106.893 702.17 109.174 701.914 111.372H701.732C701.203 107.052 699.214 103.103 696.217 100.222C694.723 98.7833 692.992 97.6105 691.093 96.774C690.145 96.3544 689.148 96.0262 688.126 95.8056C687.102 95.5851 686.053 95.464 684.996 95.4344C682.888 95.3914 680.766 95.7572 678.786 96.5238C676.808 97.2877 674.974 98.447 673.428 99.9157C671.874 101.376 670.6 103.146 669.72 105.107C668.839 107.065 668.348 109.204 668.274 111.372H668.095Z" fill="#31D8A4"/>
</g>
<defs>
<filter id="filter0_f" x="304" y="48" width="144.789" height="152.758" filterUnits="userSpaceOnUse" color-interpolation-filters="sRGB">
<feFlood flood-opacity="0" result="BackgroundImageFix"/>
<feBlend mode="normal" in="SourceGraphic" in2="BackgroundImageFix" result="shape"/>
<feGaussianBlur stdDeviation="5" result="effect1_foregroundBlur"/>
</filter>
<filter id="filter1_f" x="298" y="41" width="157.145" height="165.838" filterUnits="userSpaceOnUse" color-interpolation-filters="sRGB">
<feFlood flood-opacity="0" result="BackgroundImageFix"/>
<feBlend mode="normal" in="SourceGraphic" in2="BackgroundImageFix" result="shape"/>
<feGaussianBlur stdDeviation="8" result="effect1_foregroundBlur"/>
</filter>
<filter id="filter2_f" x="174" y="136.344" width="62.8779" height="65.629" filterUnits="userSpaceOnUse" color-interpolation-filters="sRGB">
<feFlood flood-opacity="0" result="BackgroundImageFix"/>
<feBlend mode="normal" in="SourceGraphic" in2="BackgroundImageFix" result="shape"/>
<feGaussianBlur stdDeviation="5" result="effect1_foregroundBlur"/>
</filter>
<filter id="filter3_f" x="168" y="130" width="74.9997" height="78" filterUnits="userSpaceOnUse" color-interpolation-filters="sRGB">
<feFlood flood-opacity="0" result="BackgroundImageFix"/>
<feBlend mode="normal" in="SourceGraphic" in2="BackgroundImageFix" result="shape"/>
<feGaussianBlur stdDeviation="8" result="effect1_foregroundBlur"/>
</filter>
<filter id="filter4_f" x="42" y="184.531" width="86.8092" height="90.4273" filterUnits="userSpaceOnUse" color-interpolation-filters="sRGB">
<feFlood flood-opacity="0" result="BackgroundImageFix"/>
<feBlend mode="normal" in="SourceGraphic" in2="BackgroundImageFix" result="shape"/>
<feGaussianBlur stdDeviation="5" result="effect1_foregroundBlur"/>
</filter>
<filter id="filter5_f" x="36" y="178" width="99" height="103" filterUnits="userSpaceOnUse" color-interpolation-filters="sRGB">
<feFlood flood-opacity="0" result="BackgroundImageFix"/>
<feBlend mode="normal" in="SourceGraphic" in2="BackgroundImageFix" result="shape"/>
<feGaussianBlur stdDeviation="8" result="effect1_foregroundBlur"/>
</filter>
<filter id="filter6_f" x="531" y="85.7397" width="112.736" height="118.201" filterUnits="userSpaceOnUse" color-interpolation-filters="sRGB">
<feFlood flood-opacity="0" result="BackgroundImageFix"/>
<feBlend mode="normal" in="SourceGraphic" in2="BackgroundImageFix" result="shape"/>
<feGaussianBlur stdDeviation="5" result="effect1_foregroundBlur"/>
</filter>
<filter id="filter7_f" x="525" y="79" width="125" height="131" filterUnits="userSpaceOnUse" color-interpolation-filters="sRGB">
<feFlood flood-opacity="0" result="BackgroundImageFix"/>
<feBlend mode="normal" in="SourceGraphic" in2="BackgroundImageFix" result="shape"/>
<feGaussianBlur stdDeviation="8" result="effect1_foregroundBlur"/>
</filter>
<filter id="filter8_f" x="658" y="84.269" width="53.9034" height="55.7096" filterUnits="userSpaceOnUse" color-interpolation-filters="sRGB">
<feFlood flood-opacity="0" result="BackgroundImageFix"/>
<feBlend mode="normal" in="SourceGraphic" in2="BackgroundImageFix" result="shape"/>
<feGaussianBlur stdDeviation="5" result="effect1_foregroundBlur"/>
</filter>
<filter id="filter9_f" x="652" y="78" width="65.9997" height="68" filterUnits="userSpaceOnUse" color-interpolation-filters="sRGB">
<feFlood flood-opacity="0" result="BackgroundImageFix"/>
<feBlend mode="normal" in="SourceGraphic" in2="BackgroundImageFix" result="shape"/>
<feGaussianBlur stdDeviation="8" result="effect1_foregroundBlur"/>
</filter>
<linearGradient id="paint0_linear" x1="442" y1="161" x2="502.5" y2="658" gradientUnits="userSpaceOnUse">
<stop stop-color="#00D1FF" stop-opacity="0"/>
<stop offset="0.28708" stop-color="#ED1EFF"/>
<stop offset="0.482591" stop-color="#71DDFF"/>
<stop offset="0.854167" stop-color="#1AD4FF" stop-opacity="0.233608"/>
<stop offset="0.955974" stop-color="#00D1FF" stop-opacity="0"/>
</linearGradient>
<radialGradient id="paint1_radial" cx="0" cy="0" r="1" gradientUnits="userSpaceOnUse" gradientTransform="translate(85.2236 343.111) scale(18.5953)">
<stop offset="0.0261" stop-color="white"/>
<stop offset="0.3263" stop-color="#67AFFE" stop-opacity="0.6"/>
<stop offset="0.3613" stop-color="#6DA8FE" stop-opacity="0.549"/>
<stop offset="0.4125" stop-color="#7F94FE" stop-opacity="0.4742"/>
<stop offset="0.4738" stop-color="#9C74FE" stop-opacity="0.3849"/>
<stop offset="0.5422" stop-color="#C448FD" stop-opacity="0.2851"/>
<stop offset="0.6006" stop-color="#EB1CFD" stop-opacity="0.2"/>
<stop offset="0.9644" stop-color="#0A0324" stop-opacity="0"/>
</radialGradient>
<radialGradient id="paint2_radial" cx="0" cy="0" r="1" gradientUnits="userSpaceOnUse" gradientTransform="translate(85.2236 343.111) scale(19.0953)">
<stop offset="0.0261" stop-color="white"/>
<stop offset="0.3263" stop-color="#31D8A4" stop-opacity="0.6"/>
<stop offset="0.3559" stop-color="#38D1A7" stop-opacity="0.5568"/>
<stop offset="0.3993" stop-color="#4BBDB1" stop-opacity="0.4936"/>
<stop offset="0.4512" stop-color="#6B9DC0" stop-opacity="0.4179"/>
<stop offset="0.5096" stop-color="#9870D5" stop-opacity="0.3327"/>
<stop offset="0.5728" stop-color="#D037F0" stop-opacity="0.2406"/>
<stop offset="0.6006" stop-color="#EB1CFD" stop-opacity="0.2"/>
<stop offset="0.9644" stop-color="#0A0324" stop-opacity="0"/>
</radialGradient>
<linearGradient id="paint3_linear" x1="-30.7861" y1="323.583" x2="-25.6793" y2="254.59" gradientUnits="userSpaceOnUse">
<stop stop-color="#31D8A4"/>
<stop offset="0.1079" stop-color="#38D1A7"/>
<stop offset="0.2661" stop-color="#4BBDB1"/>
<stop offset="0.4552" stop-color="#6B9DC0"/>
<stop offset="0.6683" stop-color="#9870D5"/>
<stop offset="0.8985" stop-color="#D037F0"/>
<stop offset="1" stop-color="#EB1CFD"/>
</linearGradient>
<linearGradient id="paint4_linear" x1="51.7475" y1="229.882" x2="117.747" y2="229.882" gradientUnits="userSpaceOnUse">
<stop offset="0.000282939" stop-color="#0F0436"/>
<stop offset="1" stop-color="#090221"/>
</linearGradient>
<linearGradient id="paint5_linear" x1="196.719" y1="231.849" x2="218.389" y2="197.861" gradientUnits="userSpaceOnUse">
<stop stop-color="#31D8A4"/>
<stop offset="0.1079" stop-color="#38D1A7"/>
<stop offset="0.2661" stop-color="#4BBDB1"/>
<stop offset="0.4552" stop-color="#6B9DC0"/>
<stop offset="0.6683" stop-color="#9870D5"/>
<stop offset="0.8985" stop-color="#D037F0"/>
<stop offset="1" stop-color="#EB1CFD"/>
</linearGradient>
<radialGradient id="paint6_radial" cx="0" cy="0" r="1" gradientUnits="userSpaceOnUse" gradientTransform="translate(206.002 237.5) scale(10.9972 10.4973)">
<stop offset="0.0261" stop-color="white"/>
<stop offset="0.3263" stop-color="#67AFFE" stop-opacity="0.6"/>
<stop offset="0.3613" stop-color="#6DA8FE" stop-opacity="0.549"/>
<stop offset="0.4125" stop-color="#7F94FE" stop-opacity="0.4742"/>
<stop offset="0.4738" stop-color="#9C74FE" stop-opacity="0.3849"/>
<stop offset="0.5422" stop-color="#C448FD" stop-opacity="0.2851"/>
<stop offset="0.6006" stop-color="#EB1CFD" stop-opacity="0.2"/>
<stop offset="0.9644" stop-color="#0A0324" stop-opacity="0"/>
</radialGradient>
<radialGradient id="paint7_radial" cx="0" cy="0" r="1" gradientUnits="userSpaceOnUse" gradientTransform="translate(206.002 237.5) scale(11.2929 10.7796)">
<stop offset="0.0261" stop-color="white"/>
<stop offset="0.3263" stop-color="#31D8A4" stop-opacity="0.6"/>
<stop offset="0.3559" stop-color="#38D1A7" stop-opacity="0.5568"/>
<stop offset="0.3993" stop-color="#4BBDB1" stop-opacity="0.4936"/>
<stop offset="0.4512" stop-color="#6B9DC0" stop-opacity="0.4179"/>
<stop offset="0.5096" stop-color="#9870D5" stop-opacity="0.3327"/>
<stop offset="0.5728" stop-color="#D037F0" stop-opacity="0.2406"/>
<stop offset="0.6006" stop-color="#EB1CFD" stop-opacity="0.2"/>
<stop offset="0.9644" stop-color="#0A0324" stop-opacity="0"/>
</radialGradient>
<linearGradient id="paint8_linear" x1="183.998" y1="169.282" x2="227.197" y2="169.282" gradientUnits="userSpaceOnUse">
<stop offset="0.000282939" stop-color="#0F0436"/>
<stop offset="1" stop-color="#090221"/>
</linearGradient>
<linearGradient id="paint9_linear" x1="471.994" y1="259.979" x2="478.603" y2="181.556" gradientUnits="userSpaceOnUse">
<stop stop-color="#31D8A4"/>
<stop offset="0.1079" stop-color="#38D1A7"/>
<stop offset="0.2661" stop-color="#4BBDB1"/>
<stop offset="0.4552" stop-color="#6B9DC0"/>
<stop offset="0.6683" stop-color="#9870D5"/>
<stop offset="0.8985" stop-color="#D037F0"/>
<stop offset="1" stop-color="#EB1CFD"/>
</linearGradient>
<radialGradient id="paint10_radial" cx="0" cy="0" r="1" gradientUnits="userSpaceOnUse" gradientTransform="translate(588.646 269.221) scale(30.6535)">
<stop offset="0.0261" stop-color="white"/>
<stop offset="0.3263" stop-color="#67AFFE" stop-opacity="0.6"/>
<stop offset="0.3791" stop-color="#6DA8FE" stop-opacity="0.549"/>
<stop offset="0.4566" stop-color="#7F94FE" stop-opacity="0.4742"/>
<stop offset="0.5492" stop-color="#9C74FE" stop-opacity="0.3849"/>
<stop offset="0.6526" stop-color="#C448FD" stop-opacity="0.2851"/>
<stop offset="0.7408" stop-color="#EB1CFD" stop-opacity="0.2"/>
<stop offset="1" stop-color="#0A0324" stop-opacity="0"/>
</radialGradient>
<radialGradient id="paint11_radial" cx="0" cy="0" r="1" gradientUnits="userSpaceOnUse" gradientTransform="translate(588.556 269.821) scale(11.5617)">
<stop offset="0.0261" stop-color="white"/>
<stop offset="0.3263" stop-color="#67AFFE" stop-opacity="0.6"/>
<stop offset="0.3613" stop-color="#6DA8FE" stop-opacity="0.549"/>
<stop offset="0.4125" stop-color="#7F94FE" stop-opacity="0.4742"/>
<stop offset="0.4738" stop-color="#9C74FE" stop-opacity="0.3849"/>
<stop offset="0.5422" stop-color="#C448FD" stop-opacity="0.2851"/>
<stop offset="0.6006" stop-color="#EB1CFD" stop-opacity="0.2"/>
<stop offset="0.9644" stop-color="#0A0324" stop-opacity="0"/>
</radialGradient>
<linearGradient id="paint12_linear" x1="541.003" y1="144.69" x2="634.603" y2="144.69" gradientUnits="userSpaceOnUse">
<stop offset="0.000282939" stop-color="#0F0436"/>
<stop offset="1" stop-color="#090221"/>
</linearGradient>
<linearGradient id="paint13_linear" x1="667.998" y1="112.212" x2="701.823" y2="112.212" gradientUnits="userSpaceOnUse">
<stop offset="0.000282939" stop-color="#0F0436"/>
<stop offset="1" stop-color="#090221"/>
</linearGradient>
<linearGradient id="paint14_linear" x1="568.994" y1="162.459" x2="570.571" y2="124.046" gradientUnits="userSpaceOnUse">
<stop stop-color="#31D8A4"/>
<stop offset="0.1079" stop-color="#38D1A7"/>
<stop offset="0.2661" stop-color="#4BBDB1"/>
<stop offset="0.4552" stop-color="#6B9DC0"/>
<stop offset="0.6683" stop-color="#9870D5"/>
<stop offset="0.8985" stop-color="#D037F0"/>
<stop offset="1" stop-color="#EB1CFD"/>
</linearGradient>
<radialGradient id="paint15_radial" cx="0" cy="0" r="1" gradientUnits="userSpaceOnUse" gradientTransform="translate(685.317 167.323) scale(9.31891)">
<stop offset="0.0261" stop-color="white"/>
<stop offset="0.3263" stop-color="#67AFFE" stop-opacity="0.6"/>
<stop offset="0.3613" stop-color="#6DA8FE" stop-opacity="0.549"/>
<stop offset="0.4125" stop-color="#7F94FE" stop-opacity="0.4742"/>
<stop offset="0.4738" stop-color="#9C74FE" stop-opacity="0.3849"/>
<stop offset="0.5422" stop-color="#C448FD" stop-opacity="0.2851"/>
<stop offset="0.6006" stop-color="#EB1CFD" stop-opacity="0.2"/>
<stop offset="0.9644" stop-color="#0A0324" stop-opacity="0"/>
</radialGradient>
<linearGradient id="paint16_linear" x1="314.004" y1="124.681" x2="440.004" y2="124.681" gradientUnits="userSpaceOnUse">
<stop offset="0.000282939" stop-color="#0F0436"/>
<stop offset="1" stop-color="#090221"/>
</linearGradient>
<linearGradient id="paint17_linear" x1="261.114" y1="378.418" x2="311.333" y2="169.505" gradientUnits="userSpaceOnUse">
<stop stop-color="#31D8A4"/>
<stop offset="0.1079" stop-color="#38D1A7"/>
<stop offset="0.2661" stop-color="#4BBDB1"/>
<stop offset="0.4552" stop-color="#6B9DC0"/>
<stop offset="0.6683" stop-color="#9870D5"/>
<stop offset="0.8985" stop-color="#D037F0"/>
<stop offset="1" stop-color="#EB1CFD"/>
</linearGradient>
<radialGradient id="paint18_radial" cx="0" cy="0" r="1" gradientUnits="userSpaceOnUse" gradientTransform="translate(377.001 411.005) scale(36.0041)">
<stop offset="0.0261" stop-color="white"/>
<stop offset="0.3263" stop-color="#67AFFE" stop-opacity="0.6"/>
<stop offset="0.3791" stop-color="#6DA8FE" stop-opacity="0.549"/>
<stop offset="0.4566" stop-color="#7F94FE" stop-opacity="0.4742"/>
<stop offset="0.5492" stop-color="#9C74FE" stop-opacity="0.3849"/>
<stop offset="0.6526" stop-color="#C448FD" stop-opacity="0.2851"/>
<stop offset="0.7408" stop-color="#EB1CFD" stop-opacity="0.2"/>
<stop offset="1" stop-color="#0A0324" stop-opacity="0"/>
</radialGradient>
<radialGradient id="paint19_radial" cx="0" cy="0" r="1" gradientUnits="userSpaceOnUse" gradientTransform="translate(377.497 408.993) scale(17.4941 17.9939)">
<stop offset="0.0261" stop-color="white"/>
<stop offset="0.3263" stop-color="#67AFFE" stop-opacity="0.6"/>
<stop offset="0.3791" stop-color="#6DA8FE" stop-opacity="0.5617"/>
<stop offset="0.4566" stop-color="#7F94FE" stop-opacity="0.5057"/>
<stop offset="0.5492" stop-color="#9C74FE" stop-opacity="0.4387"/>
<stop offset="0.6526" stop-color="#C448FD" stop-opacity="0.3638"/>
<stop offset="0.7408" stop-color="#EB1CFD" stop-opacity="0.3"/>
<stop offset="1" stop-color="#0A0324" stop-opacity="0"/>
</radialGradient>
<linearGradient id="paint20_linear" x1="313.117" y1="156.502" x2="439.903" y2="156.502" gradientUnits="userSpaceOnUse">
<stop offset="0.0261" stop-color="white"/>
<stop offset="1" stop-color="#EB1CFD"/>
</linearGradient>
<linearGradient id="paint21_linear" x1="313.092" y1="90.9903" x2="439.878" y2="90.9903" gradientUnits="userSpaceOnUse">
<stop offset="0.000250888" stop-color="#31D8A3"/>
<stop offset="0.9739" stop-color="white"/>
</linearGradient>
<linearGradient id="paint22_linear" x1="183.697" y1="180.199" x2="227.261" y2="180.199" gradientUnits="userSpaceOnUse">
<stop offset="0.0261" stop-color="white"/>
<stop offset="1" stop-color="#EB1CFD"/>
</linearGradient>
<linearGradient id="paint23_linear" x1="183.688" y1="157.682" x2="227.252" y2="157.682" gradientUnits="userSpaceOnUse">
<stop offset="0.000250888" stop-color="#31D8A3"/>
<stop offset="0.9739" stop-color="white"/>
</linearGradient>
<linearGradient id="paint24_linear" x1="51.5275" y1="246.785" x2="119.406" y2="246.785" gradientUnits="userSpaceOnUse">
<stop offset="0.0261" stop-color="white"/>
<stop offset="1" stop-color="#EB1CFD"/>
</linearGradient>
<linearGradient id="paint25_linear" x1="51.5138" y1="212.032" x2="119.393" y2="212.032" gradientUnits="userSpaceOnUse">
<stop offset="0.000250888" stop-color="#31D8A3"/>
<stop offset="0.9739" stop-color="white"/>
</linearGradient>
<linearGradient id="paint26_linear" x1="540.344" y1="168.602" x2="634.564" y2="168.602" gradientUnits="userSpaceOnUse">
<stop offset="0.0261" stop-color="white"/>
<stop offset="1" stop-color="#EB1CFD"/>
</linearGradient>
<linearGradient id="paint27_linear" x1="540.325" y1="120.143" x2="634.545" y2="120.143" gradientUnits="userSpaceOnUse">
<stop offset="0.000250888" stop-color="#31D8A3"/>
<stop offset="0.9739" stop-color="white"/>
</linearGradient>
<linearGradient id="paint28_linear" x1="667.76" y1="120.764" x2="702.206" y2="120.764" gradientUnits="userSpaceOnUse">
<stop offset="0.0261" stop-color="white"/>
<stop offset="1" stop-color="#EB1CFD"/>
</linearGradient>
<linearGradient id="paint29_linear" x1="667.753" y1="103.143" x2="702.199" y2="103.143" gradientUnits="userSpaceOnUse">
<stop offset="0.000250888" stop-color="#31D8A3"/>
<stop offset="0.9739" stop-color="white"/>
</linearGradient>
</defs>
</svg>
