<svg width="1246" height="701" viewBox="0 0 1246 701" fill="none" xmlns="http://www.w3.org/2000/svg">
<path d="M1244.72 697.75C1229.61 644.9 1183.82 606.4 1157.38 561.67C1148.48 546.61 1142.07 529.32 1146.73 511.16C1154.01 482.75 1165.79 454.37 1168.4 424.75C1171.09 394.27 1156.42 368.96 1137.3 347.75C1119.48 327.98 1097.82 310.73 1075.23 296.16C1063.1 288.34 1031.54 276.6 1031.51 259.18C1031.48 241.89 1036.03 223.28 1040.33 206.05C1043.69 192.57 1045.24 178.48 1049.43 165.08M1041.43 165.55C1036.62 178.23 1034.92 191.79 1030.86 204.63C1025.67 221.02 1020.08 238.15 1017.06 254.33C1014.46 268.3 1040.93 277.38 1050.49 282.97C1090.66 306.45 1134.17 345.12 1131.69 397.14C1130.55 421.11 1121.8 443.96 1118.39 467.67C1114.21 496.68 1119.72 521.85 1134.97 545.85C1166.49 595.47 1217.2 637.69 1236.19 696.51M1033.15 166.13C1027.97 178.21 1026.31 191.29 1021.69 203.55C1015.84 219.06 1009.94 234.68 1003.24 249.45C997.84 261.35 1020.24 268.4 1027.59 272.32C1065.93 292.78 1099.64 327.99 1098.72 374.74C1098.11 405.31 1090.36 436.61 1089.47 467.21C1088.76 491.64 1101.66 513.22 1115.16 532.72C1152.17 586.17 1206.07 631.42 1228.03 694.97M1024.61 166.8C1020.15 178.69 1017.24 191.36 1012.82 202.77C1007.65 216.11 1002.49 231.77 992.5 243.11C990.1 245.84 984.69 248.19 985.95 252.12C987.3 256.35 1001.98 261.66 1006.29 263.91C1043.93 283.48 1068.65 315.19 1069.34 359.54C1069.82 390.44 1064.01 421.61 1065.84 452.05C1067.41 478.11 1082.6 501.27 1097.59 521.97C1137.88 577.64 1196.87 625.97 1220.13 693.21M1015.86 167.55C1011.47 179.08 1008.77 191.63 1004.04 202.32C998.08 215.8 989.73 231.54 977.39 241.53C968.52 248.72 972.23 250.7 986.42 257.44C1020.91 273.82 1040.59 303.79 1042.61 342.71C1044.28 375.06 1040.6 408.41 1044.88 440.21C1048.55 467.45 1065.8 491.56 1082.06 513.27C1125.29 571 1187.49 621.01 1212.49 691.24M1006.94 168.36C1002.7 179.59 1000.35 191.99 995.55 202.09C989.68 214.43 979.9 228.47 967.69 237.02C959.21 242.96 950.33 245.55 967.83 252.67C1002.25 266.67 1015.73 299.96 1018.63 334.51C1021.32 366.65 1019.37 400.68 1026.53 431.01C1033.11 458.9 1050.21 483.15 1068.25 506.5C1113.81 565.46 1178.9 616.65 1205.03 689.14M997.92 169.21C993.96 180.17 992.09 192.5 987.42 202.02C981.36 214.37 968.39 227.51 955.13 235.01C948.29 238.88 934.9 243.41 950.42 249.38C982.79 261.83 992.66 295.59 996.7 326.54C1000.89 358.66 1001.59 391.95 1009.94 423.06C1017.76 452.21 1037.29 477.76 1056 501.34C1092.35 547.17 1135.23 589.09 1169.03 636.45C1180.32 652.27 1190.1 668.72 1197.71 686.92M988.83 170.09C984.37 180.47 983.91 193.32 979.2 202.21C972.59 214.68 956.81 226.77 942.51 233.64C937.38 236.11 920.74 242.17 934.05 247.37C963.07 258.72 971.13 291.21 976.16 318.51C981.97 350.05 984.37 383.51 993.81 413.3C1003.67 444.41 1024.06 471.88 1045.07 497.65C1083.07 544.26 1127.76 587.41 1162.79 636.13C1173.61 651.18 1183.73 667.05 1190.47 684.68M979.71 170.96C975.6 181.34 977.08 193.56 971.31 202.48C963.06 215.22 946.42 225.18 931.91 231.85C927.09 234.07 907.1 240.98 918.64 246.41C944.39 258.54 951.91 289.93 957.62 315.16C964.74 346.64 969.71 378.8 980.2 409.2C991.28 441.3 1013.75 469.47 1035.26 495.25C1074.38 542.15 1119.04 585.39 1155.91 634.76C1166.86 649.42 1176.79 665.24 1183.24 682.44M970.63 171.82C967 182.1 969.34 194.35 963.62 202.84C955.12 215.46 936.56 224.27 921.8 230.42C915.82 232.92 897.56 240.14 904.14 246.32C920.28 261.47 933.96 289.44 940.54 313.6C949.05 344.86 955.96 376.68 967.93 406.65C980.88 439.07 1004.01 467.61 1026.45 493.95C1066.41 540.87 1111.85 584.07 1149.31 633.67C1160.08 647.93 1169.9 663.36 1176.02 680.24M961.63 172.65C958.54 182.84 961.85 195.03 956.34 203.21C948.11 215.41 928.63 222.4 914.09 228.45C907.51 231.19 884.89 239.3 890.49 246.91C903.3 264.32 917.17 289.85 924.75 313.55C934.65 344.53 943.43 375.93 956.77 405.42C971.49 437.97 995.16 466.65 1018.41 493.61C1058.97 540.63 1104.96 583.19 1142.83 632.87C1153.35 646.68 1162.96 661.68 1168.69 678.15M952.76 173.42C950.18 183.54 954.16 195.33 948.75 203.69C940.4 216.61 917.55 222.4 902.97 228.43C895.43 231.55 873.69 238.8 877.62 247.97C886.44 268.56 901.99 293.14 910.95 317.01C922.55 347.91 933.22 379.85 948.65 409.19C964.9 440.11 987.93 468.02 1011.02 494.06C1051.7 539.94 1097.53 582.13 1135.48 631.04C1146.08 644.7 1155.84 659.63 1161.22 676.17M944.07 174.13C941.52 184.25 947.19 195.75 941.57 204.11C932.87 217.06 909.07 221.77 894.23 227.78C885.15 231.46 863.26 238.5 865.5 249.34C870.03 271.28 887.47 295.92 897.39 319.04C924.64 382.54 957.74 443.5 1004.11 495.15C1044.82 540.5 1092.49 582.29 1129.06 630.76C1139.35 644.39 1147.62 658.06 1153.55 674.42M935.61 174.74C933.58 184.84 940.07 196.28 934.54 204.47C925.83 217.36 900.96 221.42 885.95 227.28C876.07 231.14 853.15 238.11 854.12 250.8C855.94 274.74 874.07 299.38 884.75 321.72C914.75 384.44 950.48 445.16 997.58 496.71C1038.45 541.45 1086.28 582.5 1122.58 630.71C1132.5 643.89 1140.35 656.95 1145.67 672.91M927.45 175.24C925.94 185.29 933.15 196.84 927.67 204.72C914.19 224.08 844.51 221.77 843.43 252.13C842.54 277.37 861.44 302.8 872.91 324.75C905.39 386.9 943.43 447.06 991.22 498.55C1032.13 542.63 1080.02 582.93 1115.88 630.81C1125.05 643.06 1134.12 656.09 1137.45 671.63M919.62 175.62C918.54 185.6 926.46 197.02 921.08 204.79C912.7 216.91 888.09 220.79 873.07 225.98C859.8 230.57 835.63 237.27 833.43 253.18C829.86 279.05 849.37 305.8 861.78 327.9C896.47 389.67 936.48 449.12 984.91 500.58C1025.75 543.99 1073.67 583.53 1108.89 631.12C1117.62 642.92 1126.34 655.57 1128.85 670.7M912.18 175.85C911.44 185.74 919.41 196.94 913.87 204.84C905.25 217.14 880.88 220.87 865.9 226.14C851.6 231.18 828.63 237.73 824.09 253.71C816.67 279.84 838.33 309.15 851.27 330.87C887.88 392.29 929.48 450.76 978.49 502.64C1019.22 545.76 1065.46 583.92 1101.52 631.6C1110.06 642.9 1118.21 655.74 1119.82 670.16M905.19 175.9C904.82 185.71 912.73 196.91 906.81 204.86C897.62 217.19 873.65 220.78 858.75 226.34C844.45 231.67 822.25 237.98 815.61 253.67C804.32 280.38 827.82 311.68 841.35 333.36C879.49 394.49 922.36 452.54 971.87 504.54C1012.39 547.11 1058.49 584.57 1093.7 632.22C1101.84 643.24 1109.51 655.96 1110.28 670.03M898.92 175.75C899.12 185.47 906.39 196.89 899.88 204.86C889.82 217.2 866.76 220.79 851.62 226.58C837.19 232.09 815.41 238.42 808.31 254.04C795.86 281.44 817.76 312.92 831.94 335.1C870.82 395.89 915 453.97 964.9 506.15C1005.08 548.17 1051.33 584.78 1084.81 632.82C1092.51 643.87 1099.4 656.64 1100.09 670.45M893.42 175.38C894.05 185.16 900.35 196.81 893.07 204.85C881.95 217.13 859.95 220.81 844.51 226.86C830.01 232.55 808.27 238.94 801.01 254.5C788.28 281.78 808.67 313.53 822.98 335.77C862.11 396.54 907.13 454.85 957.41 507.21C997.18 548.62 1042.32 585.37 1074.48 633.45C1081.99 644.68 1088.65 657.58 1089.22 671.42M888.57 174.83C889.51 184.93 894.48 197.18 886.15 204.87C874.08 216.02 855.21 220.17 839.49 226.35C823.75 232.53 801.54 239.22 793.69 255.09C780.6 281.53 800.76 314.02 815.06 336.18C854.02 396.56 899.39 454.32 949.23 506.62C988.73 548.06 1032.8 585.73 1063.68 634.44C1070.95 645.91 1077.32 659 1077.72 672.91M884.3 174.13C885.53 184.72 888.84 196.83 879.53 204.85C854.48 226.44 801.88 224.33 786.38 255.77C773.19 282.53 793.1 314.7 807.52 336.73C846.58 396.4 892.11 453.5 941.24 505.85C980.32 547.5 1023.15 586.27 1052.56 635.69C1059.56 647.46 1065.58 660.78 1065.78 674.8M880.5 173.29C881.92 184.54 882.9 196.76 873.1 204.8C847.2 226.05 794.86 224.94 779.06 256.55C765.69 283.29 785.45 315.5 800.11 337.28C839.51 395.84 885.16 452.33 933.37 504.91C971.89 546.92 1013.32 586.94 1041.08 637.14C1047.77 649.25 1053.41 662.83 1053.35 676.97M877.08 172.35C878.58 184.47 876.86 196.85 866.56 204.78C840.07 225.2 787.88 225.76 771.74 257.43C758.13 284.15 777.9 316.29 792.83 337.84C832.65 395.32 878.59 450.95 925.68 503.82C963.56 546.35 1003.43 587.75 1029.39 638.78C1035.74 651.26 1040.97 665.14 1040.65 679.43M873.94 171.34C875.4 184.49 870.81 196.9 859.96 204.8C833.8 223.85 778.68 225.93 764.42 258.41C752.24 286.15 769.89 316.44 785.67 338.41C826.06 394.66 872.32 449.33 918.14 502.59C955.29 545.78 993.41 588.64 1017.51 640.52C1023.49 653.39 1028.29 667.57 1027.69 682.03M870.97 170.26C871.73 184.25 865.1 196.93 853.54 204.78C838.96 214.68 821.75 220.13 805.81 227.64C789.84 235.17 764.96 242.41 757.08 259.48C744.46 286.8 762.4 317.35 778.61 338.99C819.73 393.88 866.33 447.48 910.76 501.22C947.11 545.19 983.33 589.6 1005.52 642.32C1011.1 655.59 1015.46 670.08 1014.6 684.72M868.1 169.16C868.39 184.15 859.04 196.75 846.99 204.81C831.63 215.08 813.46 221.31 796.83 229.11C780.88 236.59 757.69 243.99 749.74 260.65C736.77 287.82 754.94 318.33 771.67 339.6C813.65 392.99 860.8 445.55 903.56 499.73C938.94 544.56 974.45 591.16 993.51 644.14C998.44 657.83 1002.62 672.3 1001.48 687.43M865.21 168.06C864.89 183.98 853.1 196.51 840.51 204.84C824.3 215.58 805.35 222.25 787.95 230.62C772.4 238.1 750.25 245.65 742.38 261.91C729.15 289.27 747.51 319.37 764.82 340.23C807.78 392.02 855.48 443.48 896.53 498.11C930.87 543.82 964.22 592.1 981.53 645.9C986.06 659.96 989.8 674.74 988.42 690.03M862.21 166.98C861.11 184.61 846.75 196.21 833.96 204.91C818.29 215.57 798.53 222.52 780.93 231.27C765.25 239.07 743.11 246.84 735.03 263.27C721.48 290.8 740.13 320.49 758.08 340.9C802.13 390.98 850.39 441.25 889.69 496.4C922.95 543.08 954.11 592.96 969.69 647.57C973.8 661.99 977.12 677.05 975.57 692.5M859 165.95C857 184.22 840.94 195.29 827.35 205C810.73 216.87 790.29 223.38 772.17 232.88C756.83 240.91 735.79 248.7 727.66 264.71C713.6 292.4 732.82 321.75 751.41 341.58C796.63 389.85 845.46 438.88 883.03 494.55C915.2 542.22 944.09 593.66 958.04 649.05C961.85 664.17 963.73 678.76 962.99 694.68M855.5 164.99C854.43 183.16 833.82 196.6 820.69 205.12C804.11 215.87 784.55 223.27 766.89 232.64C750.92 241.11 728.92 249.45 720.28 266.24C705.89 294.18 725.46 323.18 744.82 342.32C767.46 364.7 793.9 386.13 815.26 410.26C837.72 435.63 858.26 463.85 876.55 492.64C907.56 541.45 934.2 594.24 946.65 650.35C950.05 665.69 951.66 680.56 950.79 696.57M851.58 164.12C849.76 182.86 827.51 195.79 814 205.25C796.92 217.21 776.43 224.11 758.23 234.29C742.56 243.06 721.81 251.25 712.87 267.84C697.73 295.92 718.6 325.07 738.27 343.08C761.69 364.52 788.72 384.98 810.32 408.59C832.93 433.32 852.86 461.6 870.24 490.59C900.13 540.43 924.53 594.55 935.62 651.34C938.65 666.83 940.02 681.93 939.11 697.99M847.18 163.39C844.65 182.54 821.49 195.58 807.55 205.37C790.27 217.51 769.56 224.51 751.23 235.03C735.36 244.14 714.63 252.7 705.46 269.55C689.94 298.04 711.26 326.5 731.8 343.91C755.93 364.37 783.67 383.82 805.54 406.92C828.34 431.01 847.66 459.33 864.16 488.49C892.92 539.31 915.13 594.63 925.05 652.03C927.75 667.62 928.96 682.89 928.08 698.94M842.17 162.79C838.93 182.19 815.29 195.38 801.01 205.51C784.11 217.49 763.77 224.23 745.91 234.78C729.31 244.59 707.57 253.75 698.04 271.31C693.47 279.74 692.39 292.37 693.56 301.67C695.77 319.25 709.8 333.29 723.52 343.39C749.6 362.61 777.36 381.59 799.96 404.18C823.41 427.63 842.42 456.44 858.23 486.26C886.1 538.83 906.43 595.25 915.21 653.73C917.48 668.85 918.51 683.76 917.79 699.25M836.52 162.36C831.83 181.78 809.25 195.01 794.45 205.68C776.96 218.29 755.84 225.37 737.36 236.52C720.97 246.4 700.1 255.87 690.59 273.25C685.94 281.75 684.76 294.45 685.87 303.83C687.98 321.53 703.03 334.93 717.06 344.4C743.88 362.5 772.39 380.46 795.36 402.52C819.04 425.26 837.5 454.06 852.53 484C879.33 537.37 897.78 594.62 905.73 653.47C907.77 668.57 908.63 683.4 907.66 698.8M830.28 162.07C824.44 181.51 803 194.57 787.81 205.88C770.26 218.95 748.9 225.88 730.37 237.34C713.74 247.62 692.84 257.54 683.12 275.27C678.41 283.86 677.08 296.63 678.15 306.12C680.15 323.97 696.31 336.66 710.62 345.47C738.17 362.43 767.42 379.35 790.82 400.88C814.75 422.91 832.7 451.65 847.04 481.65C872.78 535.49 889.76 593.16 896.2 652.15C897.85 667.29 898.34 682.14 897.02 697.51M823.54 161.9C816.86 181.17 796.45 194.36 781.14 206.09C763.62 219.51 741.96 226.41 723.39 238.19C706.51 248.89 685.58 259.28 675.63 277.37C671.07 285.66 669.48 297.84 670.24 307.02C671.88 326.96 690.39 338.91 706.32 347.86C733.61 363.2 762.23 378.32 785.23 398.4C809.95 419.99 827.86 448.99 841.67 479.59C865.86 533.21 881.18 590.44 886.22 648.7C887.57 664.34 887.73 679.67 886.01 695.48M816.35 161.86C809.09 180.76 789.66 194.41 774.44 206.33C757.45 219.64 735.99 226.2 718.01 238C700.65 249.4 678.53 260.52 668.14 279.53C663.45 288.12 661.7 300.62 662.53 310.1C664.17 328.84 682.74 340.3 697.95 347.96C726.06 362.12 755.98 376.32 779.76 395.9C805.28 416.91 822.71 446.39 836.11 477.5C859.42 531.65 872.47 588.91 876.22 647.92C877.18 663.05 876.71 677.78 874.68 692.83M808.77 161.9C801.14 180.52 782.78 194.36 767.73 206.58C750.82 220.3 729.02 226.79 711.04 238.88C693.44 250.72 671.17 262.38 660.62 281.79C655.88 290.5 653.96 303.14 654.74 312.78C656.32 332.35 676.1 341.95 691.55 349.34C720.05 362.97 751.04 375.4 775.28 394.48C801.03 414.75 817.81 444.23 830.49 475.38C852.51 529.49 863.77 586.58 865.82 645.12C866.35 660.17 865.48 674.81 863.1 689.72M800.89 162.03C793.07 180.34 775.34 194.35 761.01 206.84C753.03 213.79 743.36 218.17 733.79 222.46C722.98 227.31 713.93 232.95 704.09 239.78C686.21 252.19 663.86 264.3 653.08 284.1C648.19 293.09 646.15 306.14 646.95 316.09C648.57 336.21 671.56 345.26 687.52 351.76C717.34 363.92 748.38 375.87 774.17 395.75C799.1 414.96 813.89 444.62 824.77 473.22C845.14 526.76 855.04 583.52 855.17 640.44C855.21 655.82 854.09 670.87 851.29 686.19M792.75 162.23C783.95 180.36 768.73 193.8 754.3 207.12C746.43 214.39 736.6 218.61 727.05 222.93C716.12 227.87 707.05 233.66 697.15 240.71C679 253.63 654.72 266.82 645.54 286.48C640.41 297.48 638.82 307.11 639.16 319.53C639.69 338.52 663.4 346.76 678.68 352.32C709.47 363.51 741.63 374.27 768.46 393.71C794.09 412.27 808.52 442.29 818.87 471.12C838.2 524.94 845.73 581.36 844.43 638.63C844.1 653.29 842.97 668.1 839.45 682.43M784.42 162.47C775.79 180.29 761.72 194.03 747.59 207.4C739.85 214.72 730.14 219.61 720.31 223.41C709.34 227.64 699.54 234.69 690.2 241.66C672.11 255.15 649.21 268.31 637.96 288.93C633.06 297.91 630.69 310.84 631.22 320.83C632.33 342.08 658.34 349.59 674.84 354.82C705.36 364.47 736.02 374.24 762.81 391.73C789.17 408.95 802.99 440.05 812.95 469.08C835.88 535.92 844.72 609.24 827.53 678.51M775.98 162.76C767.6 180.26 754.4 194.16 740.9 207.69C733.56 215.05 723.69 219.61 714.57 223.53C703.8 228.16 694.58 234.26 684.82 241.46C665.68 255.58 640.13 270.11 630.37 291.45C625.33 302.46 623.41 312.15 623.35 324.47C623.25 344.77 650.03 351.32 665.84 355.77C696.83 364.48 730.74 372.24 756.77 390.14C783.08 408.24 796.8 436.29 806.77 467.19C828.24 533.71 833.78 606.56 815.65 674.59M767.48 163.07C759.41 180.28 747.13 194.4 734.24 207.99C727.05 215.57 717.42 220.24 707.86 224.04C696.96 228.37 687.09 235.27 677.89 242.43C658.77 257.32 634.53 271.8 622.75 294.04C617.96 303.08 615.16 315.83 615.32 325.83C615.65 346.82 640.07 352.96 656.41 356.96C688.39 364.79 722.01 371.71 750.77 388.61C778.6 404.95 791.82 435.88 800.59 465.44C820.3 531.86 822.62 603.8 803.87 670.74M759 163.38C751.29 180.34 739.9 194.67 727.61 208.28C720.58 216.07 710.75 220.71 701.17 224.55C690.15 228.96 680.21 236.05 670.98 243.43C651.55 258.95 625.59 274.14 615.2 296.54C610.08 307.57 607.83 317.3 607.39 329.65C606.61 351.63 635.91 356.22 652.59 359.69C685.57 366.54 720.48 372.63 749.6 390.5C775.25 406.24 786.64 436.17 794.12 463.89C812.1 530.53 811.41 600.85 792.23 667.07M750.6 163.68C743.26 180.43 732.76 194.94 721.03 208.57C714.14 216.57 704.1 221.18 694.47 225.06C683.32 229.56 673.32 236.86 664.05 244.42C644.56 260.31 618.57 276.78 607.66 298.89C601.99 310.39 599.81 320.43 599.41 333.54C598.71 356.45 632.25 359.46 648.96 362.36C679.48 367.66 709.96 372.98 737.85 386.49C767.2 400.71 780.19 432.45 787.62 462.54C803.97 528.78 800.19 598.47 780.76 663.66M742.36 163.96C735.4 180.55 725.74 195.23 714.51 208.85C707.75 217.05 697.48 221.65 687.8 225.58C676.51 230.17 666.46 237.68 657.15 245.44C637.61 261.74 611.16 278.71 600.14 301.29C594.31 313.23 591.91 323.43 591.41 336.92C590.54 360.22 625.57 362.18 642.21 364.58C673.16 369.03 704.08 373.47 732.47 386.6C761.75 400.14 774.24 431.76 780.92 461.51C795.74 527.5 788.79 596.31 769.58 660.71M734.33 164.21C727.89 180.29 719.19 195.92 708.06 209.13C701.34 217.11 691.66 221.94 682.15 225.68C669.59 230.63 658.78 239.17 648.62 247.84C628.45 265.06 605.67 281.09 592.53 303.84C586.25 314.71 583.17 328.2 583.35 341.04C583.66 363.78 616.25 364.61 632.21 366.55C665.43 370.6 700.75 373.41 730.86 389.02C757.58 402.87 768.55 433.27 773.91 460.79C786.75 526.69 777.43 593.7 758.64 658.24M726.6 164.39C720.51 180.37 712.57 196.19 701.68 209.39C694.95 217.54 685.11 222.39 675.51 226.21C662.79 231.27 651.91 240.04 641.71 248.93C621.01 266.98 598.47 282.8 584.89 306.59C578.39 317.97 574.93 331.88 575.31 345.27C575.92 366.8 606.87 367.41 621.74 368.83C657.65 372.28 696.77 373.44 728.99 391.84C753.24 405.68 762.53 434.87 766.94 460.4C778.28 525.98 765.91 592.27 748.1 656.36M719.23 164.51C713.43 180.45 706.03 196.43 695.32 209.65C688.57 217.97 678.13 222.68 668.87 226.75C656.32 232.27 645.33 240.61 634.77 250.05C613.5 269.06 590.03 284.88 577.13 309.6C570.85 321.64 566.5 335.15 567.22 349.63C568.33 372.09 602.89 370.92 617.91 371.96C650.72 374.25 685.66 375.39 716.08 389.2C744.13 401.92 755.19 432.49 759.57 460.46C769.79 525.68 754.34 591.4 737.91 655.25M712.27 164.55C706.57 180.52 699.49 196.58 688.9 209.94C681.47 219.31 669.76 224.1 659.17 228.57C646.59 233.88 636.26 243.45 626.26 252.59C604.76 272.24 582.58 287.26 569.29 312.84C562.92 325.09 558.47 338.7 559.08 353.33C560.04 376.26 595.05 374.15 610.51 374.94C643.59 376.63 678.85 376.84 709.6 390.51C737.42 402.88 748.23 433.36 752.08 460.95C761.15 525.91 742.81 591.12 728.14 654.93M705.41 164.58C699.43 180.42 692.94 196.74 682.52 210.22C675.13 219.78 663.18 224.6 652.5 229.16C639.79 234.6 629.48 244.62 619.37 253.65C597.06 273.54 575.3 289.59 561.4 316.27C554.83 328.89 549.88 342.75 550.92 357.88C552.56 381.54 591 377.77 606.69 378.25C640.02 379.28 676.42 378.7 706.92 394.23C731.76 406.89 741.34 436.48 744.45 461.89C752.4 526.71 735 591.68 719.1 655M698.4 164.65C692.22 180.35 686.47 196.95 676.17 210.49C668.99 219.92 657.38 224.76 646.92 229.33C634.45 234.78 624.32 244.24 614.16 252.95C589.97 273.69 569.54 291.04 553.5 319.73C546.45 332.34 541.85 347.03 542.73 361.72C544.17 385.73 583.31 381.34 598.98 381.57C632.34 382.07 669.1 380.62 699.69 396.28C724.22 408.83 733.76 438.19 736.51 463.38C743.55 527.82 727.39 592.45 710.91 655.23M691.26 164.77C684.9 180.34 679.84 197.16 669.77 210.78C662.65 220.4 650.31 225.09 640.27 229.92C628.4 235.64 618.12 244.64 607.62 253.14C582.06 273.84 562.14 293.76 545.67 323.04C538.5 335.79 533.57 350.72 534.53 365.62C536.06 389.49 575.63 384.86 591.2 384.99C624.49 385.28 661.21 383.49 691.81 398.95C716.22 411.29 724.79 440.66 727.44 465.52C734.24 529.41 720.15 593.41 703.52 655.58M684 164.92C677.46 180.36 673 197.29 663.32 211.09C656.61 220.66 644.54 225.4 634.69 230.01C623.18 235.39 612.92 243.88 602.64 251.85C575.73 272.71 554.64 295.72 537.87 326.21C530.97 338.77 526.96 353.22 526.36 367.42C525.33 391.91 564.59 388.29 579.72 388.5C613.59 388.96 650.49 386.64 681.91 401.6C707.15 413.61 715.34 442.67 718.2 467.98C725.32 531.17 713.21 594.52 696.85 656.06M676.62 165.11C669.97 180.42 666.3 197.54 656.92 211.4C650.31 221.16 637.97 225.92 628.07 230.61C616.94 235.88 606.59 243.95 596.39 251.37C568.3 271.79 547.04 298.88 530.09 329.44C523.03 342.16 518.83 356.91 518.13 371.42C516.96 395.91 556.71 392.08 571.69 392.27C605.37 392.69 641.99 390.43 673.29 405.07C698.36 416.8 705.99 445.82 709.03 470.75C716.63 533.13 706.84 595.76 690.92 656.68M669.12 165.33C662.43 180.51 659.72 197.79 650.56 211.69C644.19 221.35 632.23 226.12 622.46 230.79C610.9 236.31 599.77 244.18 588.94 251.44C560.51 270.49 537.51 303.12 522.25 332.69C515.59 345.6 510.19 359.99 509.5 375.01C508.36 399.74 548.29 396 563.45 396.18C596.87 396.59 633.31 394.44 664.33 408.81C689.14 420.3 696.43 449.22 699.75 473.76C708.08 535.23 700.81 597.07 685.6 657.37M661.52 165.58C654.77 180.64 652.97 198.05 644.13 212C637.88 221.86 625.88 226.72 615.82 231.4C604.47 236.69 593.54 243.49 582.91 250.29C554.05 268.78 529.94 305.86 514.43 336.02C507.61 349.29 500.65 362.79 500.28 377.91C499.65 403.37 538.24 399.99 555.05 400.25C588.23 400.76 624.28 398.68 655.07 412.84C679.62 424.13 686.5 452.83 690.42 477.04C700.15 537.22 695.05 599.03 680.89 658.17M653.83 165.87C647.05 180.83 646.21 198.33 637.73 212.32C631.69 222.26 619.48 227.43 609.31 231.83C598.24 236.62 587.37 242.55 577 249.01C546.8 267.83 524.02 308.93 506.52 339.22C498.55 353.02 491.6 365.67 490.8 380.49C489.47 405.06 528.45 404.15 546.54 404.49C579.41 405.1 615.07 403.16 645.57 417.15C669.83 428.28 676.68 456.78 681.06 480.57C691.92 539.61 689.86 600.45 676.77 659.06M646.04 166.17C640.19 181.52 637.99 198.91 631.24 212.65C626.53 222.24 613.88 227.76 603.84 231.66C592.24 236.17 580.33 241.45 569.85 248.44C538.84 269.16 519.17 311.38 498.26 342.07C488.87 355.86 481.62 367.69 481.25 383.1C480.64 408.11 518.35 408.42 537.83 408.87C570.35 409.62 605.58 407.86 635.75 421.72C659.69 432.72 666.65 460.96 671.59 484.34C683.8 542.17 684.96 601.95 673.11 660.05M638.17 166.51C632.49 181.81 631.11 199.25 624.82 212.97C620.36 222.69 607.67 228.15 597.45 231.74C586.06 235.74 573.72 240.07 563.94 247.13C532.12 270.1 514.78 313.71 489.66 344.48C478.38 358.3 472.17 368.48 471.89 385.99C471.46 412.76 509.87 412.8 529 413.36C561.15 414.31 596.15 412.34 625.69 426.5C649.37 437.85 656.51 464.64 662.08 488.3C675.52 545.39 680.38 603.05 669.93 661.09M630.23 166.87C624.73 182.14 624.21 199.52 618.4 213.3C614.25 223.14 601.45 228.46 591.13 231.69C579.88 235.21 567.42 238.69 557.98 246.01C525.39 271.3 509.6 316.54 480.69 346.43C467.22 360.36 462.27 370.14 462.9 389.41C463.78 416.61 499.87 417.44 520.05 418.01C551.52 418.9 586.32 417.47 615.39 431.55C638.7 442.84 646.12 469.41 652.54 492.5C667.88 547.68 676.07 605.01 667.2 662.24M622.22 167.24C616.97 182.53 617.56 200.03 612.05 213.59C607.76 224.15 593.2 229.29 582.03 232.21C572.4 234.73 561.29 237.4 553.25 244.08C519.37 272.22 504.07 319.06 471.33 347.91C455.69 361.69 452.79 372.51 454.33 393.44C456.37 421.2 489.77 422.1 511.02 422.86C542.14 423.97 576.44 422.87 604.83 436.8C627.77 448.06 635.67 474.21 642.91 496.87C660.13 550.67 672.07 606.58 664.82 663.45M614.14 167.63C609.09 182.95 610.66 200.31 605.62 213.91C601.7 224.5 586.94 229.3 575.83 231.77C566.15 233.92 554.78 236.11 547.09 243.44C514.06 274.94 499.53 322.03 461.62 348.97C443.64 361.74 443.93 377.85 446.21 398.13C449.38 426.3 480.02 426.55 501.77 427.7C532.55 429.33 566.03 428.25 594.03 442.23C616.59 453.5 625.08 479.18 633.23 501.37C652.46 553.73 668.3 608.1 662.75 664.67M606.02 168.04C601.18 183.43 603.78 200.63 599.21 214.23C595.66 224.78 580.67 229.19 569.68 231.24C559.69 233.1 548.11 235.21 540.77 243.32C509.66 277.69 492.78 323.65 451.68 349.73C432.35 362 436.04 383.97 438.54 403.42C442.08 430.89 470.67 431.21 492.37 432.61C522.54 434.55 555.65 433.81 583.03 447.87C605.27 459.3 614.4 484.36 623.51 506.07C644.87 556.95 664.76 609.65 660.98 665.99M597.85 168.46C593.14 183.95 596.6 200.79 592.7 214.59C589.77 224.96 574.97 228.81 564.49 230.53C554.53 232.16 542.88 233.97 535.74 242.16C517.65 262.91 502.71 288.85 486.14 311.82C473.37 329.52 459.61 339.02 441.59 350.33C422.23 362.48 428.56 390.55 431.2 409.18C434.96 435.76 461.46 436.05 482.91 437.67C512.52 439.91 545.07 439.59 571.81 453.66C593.71 465.18 603.65 489.5 613.73 510.88C632.03 549.69 647.61 589.91 655.99 631.23C658.46 643.42 659.49 654.65 659.42 667.33M589.64 168.89C582.72 184.01 591.29 200.22 586.29 214.92C582.56 225.86 568.82 228.78 558.39 229.94C547.07 231.2 536.4 233.52 529.04 243.06C511.28 266.1 495.98 291.39 478.5 314.91C465.18 332.83 449.48 339.27 431.54 350.99C411.49 364.09 420.98 400.38 424.42 418.56C428.81 441.77 457.9 441.57 476.37 443.12C504.85 445.51 536.34 446 561.73 460.09C582.56 471.65 593.08 495.53 603.94 515.82C623.42 552.22 640.22 589.51 651.93 629.06C655.72 641.87 658.59 655.23 658.06 668.71M581.41 169.33C574.45 184.62 584.47 200.46 579.88 215.22C576.5 226.08 562.37 228.49 552.28 229.35C538.28 230.55 530.49 234.55 522.05 244.73C504.16 266.31 489.6 294.65 470.98 317.72C456.85 335.23 437.7 338.84 421.73 351.94C404.45 366.11 414.58 406.02 416.96 424.22C419.75 445.49 450.67 446.79 466.66 448.37C494.52 451.11 525.45 452.07 550.15 466.17C570.69 477.9 582.19 501.15 594.09 520.84C615.42 556.14 634.87 592.28 648.92 631.12C653.43 643.58 656.99 656.7 656.86 670.1M573.14 169.77C565.23 183.79 577.15 201.97 573.56 215.48C570.87 225.6 556.57 228.08 547.02 228.7C530.35 229.77 522.43 236.98 512.92 249.61C496.13 271.91 481.9 299.58 462.76 321.28C448.6 337.33 424.38 339.05 412.35 353.52C398.29 370.43 407.6 407.91 408.91 429.18C410.22 450.26 441.79 451.96 456.81 453.7C484.08 456.87 514.3 458.28 538.36 472.37C558.78 484.33 571.12 506.81 584.15 525.95C607.47 560.18 629.55 595.11 645.96 633.22C651.16 645.31 655.42 658.18 655.7 671.5M564.87 170.22C556.88 184.31 570.33 202.38 567.17 215.76C564.82 225.72 550.16 227.51 540.87 228.27C523.09 229.73 515.25 238.91 505.4 252.68C489.21 275.32 475.11 303.02 455.39 323.54C441.26 338.25 412.69 339.32 403.76 356.07C392.8 376.62 400.42 409.78 400.5 433.6C400.57 454.77 431.88 457.04 446.92 459.08C473.58 462.69 503.05 464.59 526.47 478.67C546.81 490.9 560.03 512.57 574.23 531.13C599.6 564.29 624.28 597.95 643.11 635.35C649 647.06 653.97 659.67 654.64 672.95M556.58 170.66C548.51 184.83 563.51 202.8 560.78 216C558.75 225.78 543.64 227.18 534.65 227.95C516.28 229.53 507.49 242.09 497.75 256.06C482.27 278.29 468.31 307.03 447.86 325.58C433.39 338.7 402 339.59 396.08 359.83C389.09 383.75 393.74 412.31 392.13 437.03C390.79 457.71 418.88 461.6 434.02 464.01C459.85 468.12 488.01 470.48 511.16 483.16C533.28 495.28 548.11 517.49 564.22 536.33C591.98 568.79 619.75 601.44 640.95 638.74C647.17 649.68 652.48 661.62 653.51 674.36M548.31 171.11C540.01 186.99 558.06 201.49 554.32 216.28C551.64 226.9 534.79 226.93 525.72 228.25C507.52 230.89 497.73 248.3 488.04 262.64C473.58 284.03 459.79 311.92 439.26 328.21C419.96 343.52 395.66 340.38 389.31 364.76C383.57 386.82 385.15 416.57 383.7 441.4C382.49 462.23 408.83 466.62 424.08 469.43C449.23 474.07 476.6 476.85 499.1 489.59C521.14 502.08 536.94 523.47 554.22 541.59C584.15 572.99 614.52 604.24 638.2 640.83C645.03 651.38 651 663.07 652.37 675.79M540.04 171.55C531.62 187.69 551.28 201.79 547.95 216.51C545.61 226.86 528.25 226.95 519.29 228.5C500.55 231.75 489.85 252.16 480.28 266.39C466.21 287.3 452.31 314.85 431.4 329.79C409.32 345.57 387.83 341.47 383.1 370.41C379.35 393.35 377.67 420.09 375.38 444.81C373.5 465.09 396.16 470.93 411.49 474.27C438.5 480.14 469.35 483 491.92 499.2C510.76 512.72 527.16 530.66 544.21 546.84C576.49 577.48 611.6 607.83 636.21 644.06C643.62 654.97 647.82 664.04 651.12 677.21M531.79 171.98C523.24 188.37 544.51 202.11 541.58 216.73C539.56 226.81 521.39 227 512.74 229.06C493.65 233.61 482.59 255.2 472.53 270.1C458.9 290.3 444.79 318.06 423.44 331.21C398.42 346.63 381.47 344.51 377.23 376.45C374.14 399.71 369.12 425.16 366.97 449.1C365.17 469.02 386.12 475.76 401.55 479.62C427.81 486.18 457.41 489.74 479.58 505.68C498.68 519.41 516.14 536.59 534.17 552.06C568.69 581.69 604.86 610.15 633.43 646.05C640.98 655.54 647.85 666.32 649.75 678.58M523.57 172.4C514.91 188.95 537.16 202.05 535.32 216.93C534.2 226.01 518.28 226.74 510.87 228.43C489.93 233.23 478 254.44 466.84 270.79C453.04 291 437.94 318.95 416.45 331.75C389.37 347.88 375.94 347.74 371.5 382.62C368.52 406.01 360.86 429.92 358.58 453.37C356.67 473 376.01 480.65 391.59 484.96C417.07 492.01 445.6 496.64 467.2 512.15C486.61 526.08 505.12 542.54 524.11 557.26C560.84 585.73 599.52 612.8 630.53 648.01C638.56 657.13 646.03 667.66 648.16 679.94M515.38 172.81C506.65 188.91 530.12 203.14 528.95 217.17C528.21 226.04 511.43 226.98 504.26 229.23C482.96 235.89 471.23 256.83 459.2 274.28C445.27 294.5 430.37 320.76 408.47 333.06C379.91 349.1 370.77 353.68 365.7 388.71C362.37 411.75 353.23 433.96 350.32 456.7C347.67 477.39 367.57 485.96 383.92 490.98C406.88 498.03 432.03 503.12 452.06 516.63C473.08 530.81 493.24 547.66 514.03 562.4C552.99 590.02 595.62 615.66 628.43 650.94C636.39 659.5 644.1 669.41 646.32 681.27M507.24 173.2C498.4 189.51 523.39 203.41 522.59 217.42C522.1 226.02 504.48 227.7 497.57 230.24C476.19 238.12 464.15 259.66 451.69 277.51C437.38 298.01 422.89 321.9 400.53 334.31C371.58 350.38 365.74 361.15 359.77 394.5C355.75 416.93 345.01 438.4 341.99 460.88C339.25 481.25 357.42 490.72 373.88 496.31C396.61 504.02 420.14 510.4 439.76 522.99C460.94 536.58 482.25 553.43 503.99 567.45C545.44 594.18 589.46 618.08 625.32 652.74C633.78 660.92 641.87 670.63 644.23 682.53M499.15 173.58C490.14 190.13 517.2 204.11 516.14 217.66C515.46 226.42 495.34 229.43 487.74 232.86C468.85 241.38 457.49 261.77 446.15 277.85C431.28 298.93 416.54 321.74 393.89 335.12C364.95 352.22 360.88 367.72 353.57 399.9C348.69 421.37 337.34 442.09 333.83 464.1C330.44 485.38 348.69 495.86 365.84 502.37C385.56 509.86 407.09 515.51 424.87 527.43C447.71 542.75 470.4 558.55 493.95 572.4C536.3 597.31 580.7 619.57 618.73 651.58C628.83 660.08 638.95 670.34 641.76 683.74M491.12 173.94C481.73 190.77 510.65 204.27 509.82 217.8C509.28 226.59 488.52 230.61 480.83 234.44C462.04 243.8 450.53 264.31 438.84 280.6C423.55 301.9 408.81 322.37 386.3 336.73C358.67 354.35 355.62 375.05 347.06 404.85C341.05 425.77 329.18 446.11 325.54 468.21C322.09 489.13 338.69 500.47 355.75 507.65C374.76 515.65 395.5 521.91 412.7 533.62C435.68 549.28 459.46 564.19 483.91 577.25C528.28 600.94 574.83 621.98 615.02 653.32C625.44 661.45 636.1 671.42 638.94 684.91M483.17 174.28C473.68 191.24 504.26 204.98 503.51 217.97C503.02 226.48 481.85 231.74 473.89 236.14C455.37 246.38 443.73 266.59 431.69 282.98C415.96 304.41 400.94 322.96 378.93 338.55C353.2 356.77 350.03 381.64 340.23 409.26C332.95 429.76 321.08 449.93 317.3 472.22C313.81 492.79 328.75 505.03 345.73 512.8C364.32 521.3 383.75 528.7 400.64 539.65C423.97 554.77 448.57 569.57 473.9 581.93C520.27 604.55 568.76 624.23 611.04 654.93C621.73 662.69 632.89 672.4 635.67 685.98M475.28 174.59C465.75 191.64 497.49 205.36 497.29 218.13C497.16 226.68 475.85 232.63 467.99 237.31C448.39 248.98 436.38 269.62 422.95 287.24C406.9 308.31 391.44 324.58 370.71 341.42C347.89 359.96 343.74 388 333.06 413.19C324.5 433.38 312.97 453.76 309.07 476.18C305.55 496.41 319.01 509.43 335.75 517.86C353.54 526.82 372.17 534.65 388.65 545.52C412.4 561.18 437.69 574.66 463.89 586.43C512.29 608.17 562.49 626.24 606.74 656.42C617.61 663.84 629.26 673.3 631.9 686.97M467.49 174.88C457.81 192.11 491.03 205.66 490.96 218.35C490.92 227.21 469.15 234 461.01 239.09C441.81 251.1 429.76 271.21 416.17 288.7C399.9 309.63 383.32 325.78 363.84 343.81C343.11 363 337.37 392.66 325.64 416.69C316.05 436.33 305.34 457.18 301.06 479.18C297.41 497.95 308.51 513 324.12 521.84C365.92 545.53 408.86 572.12 453.95 590.78C504.24 611.59 557.29 628.21 603.44 658.71C613.97 665.67 625.37 674.69 627.61 687.93M459.79 175.13C450.57 192.76 483.72 205.3 484.62 218.59C485.23 227.63 461.22 235.86 454.04 240.85C436.01 253.37 423.42 271.97 409.54 289.78C393.22 310.72 375.38 327.28 357.18 346.4C338.22 366.31 330.62 396.21 318.03 419.82C301.29 451.2 273.79 500.56 314.44 526.61C355.69 553.05 398.38 577.31 444.05 594.88C495.67 614.74 551.74 629.81 598.52 659.91C608.95 666.62 620.78 675.45 622.75 688.75M452.21 175.36C442.8 193.24 477.38 205.34 478.17 218.88C478.72 228.23 455.64 236.71 448.17 241.82C428.98 254.93 415.82 274.18 401.33 292.93C385.46 313.46 366.26 330.32 349.86 350.19C332.81 370.85 323.09 399.42 310.37 422.73C293.15 454.28 265.87 503.77 304.9 531.22C344.79 559.28 388.27 582.43 434.22 598.75C487.31 617.6 544.98 631.25 593.22 660.97C603.67 667.41 615.81 676.1 617.28 689.47M444.73 175.54C435.11 193.65 471.1 205.48 471.83 219.14C472.36 228.96 449.18 237.93 441.28 243.39C422.22 256.56 409.14 275.24 394.75 293.95C378.91 314.54 359.03 332.4 343.57 353.1C327.47 374.65 315.6 402.13 302.79 425.65C285.49 457.41 257.6 507.46 295.5 535.65C311.78 547.76 329.48 558.85 346.32 569.86C370.06 585.38 397.18 593.6 424.45 602.34C479.78 620.09 536.76 632.48 587.48 661.85C598.07 667.98 610.28 676.64 611.12 690.07M437.38 175.7C427.67 194.49 464.8 205.03 465.48 219.41C465.97 229.82 442.71 239.1 434.44 244.8C415.36 257.96 402.52 276.21 388.18 294.95C372.27 315.75 352.21 334.53 337.34 356.01C321.76 378.51 308.28 404.56 295.24 428.49C277.83 460.44 249.83 510.57 286.23 539.89C301.71 552.36 318.82 563.17 335.37 574.45C358.97 590.52 387.69 597.62 414.73 605.64C470.66 622.23 530.71 633.38 581.27 662.56C591.58 668.51 604.17 677.09 604.24 690.55M430.16 175.81C420.19 194.92 458.7 204.83 459.27 219.64C459.72 231.53 434.19 241.83 424.58 248.14C408.56 258.66 397.84 274.7 386.54 289.59C369.78 311.66 349.19 332.31 333.38 355.18C316.74 379.27 301.68 405.72 287.75 431.28C270.22 463.46 242.19 513.61 277.16 543.94C291.9 556.73 308.42 567.69 324.76 578.71C348.58 594.78 377.78 601.13 405.1 608.66C461.94 624.31 523.19 634.04 574.57 663.1C584.73 668.85 597.46 677.5 596.59 690.93M423.08 175.88C412.95 195.05 452.15 205.02 452.69 219.96C453.13 232.2 428.25 242.63 418.29 249.09C402.24 259.49 391.54 275.77 380.26 290.6C344.84 337.21 308.55 382.21 280.33 433.97C262.66 466.38 234.99 515.53 268.3 547.74C282.11 561.09 298.61 571.98 314.53 582.56C338.46 598.47 368.07 604.24 395.57 611.3C453.09 626.05 515.4 634.36 567.36 663.41C577.34 668.99 590.11 677.81 588.13 691.14M416.16 175.91C406.17 194.93 445.81 205.24 446.22 220.25C446.57 232.78 421.87 243.04 412.37 249.77C397.13 260.58 385.93 276.3 374.29 291.67C338.74 338.59 301.47 384.38 272.97 436.59C255.2 469.14 227.58 518.3 259.68 551.31C293.52 586.11 340.31 602.3 386.17 613.61C443.8 627.82 507.35 634.37 559.61 663.53C569.39 668.99 582.05 678.1 578.84 691.23M409.9 175.81C401.56 195.31 439.95 204.39 439.72 220.51C439.55 231.92 420.45 241.02 411.41 247.16C393.48 259.34 380.46 277.2 366.88 294.94C331.29 341.46 294.07 387.18 265.81 438.82C247.47 472.34 219.98 521.71 252.49 555.82C285.11 590.04 331.86 605.39 376.85 615.51C414.37 623.95 452.15 631.64 489.39 641.29C509.8 646.58 531.55 652.29 549.71 662.72C559.51 668.36 571.73 678.21 567.46 691.27M404.64 175.44C397.3 194.38 433.94 204.63 433.4 220.7C433.01 232.24 414.72 241.3 405.6 247.69C388 260.02 374.93 278.44 361.33 296.1C325.3 342.87 287.6 389.08 258.8 441C240.18 474.56 212.75 524.14 244.31 558.84C276.02 593.7 323.26 607.29 367.64 617.01C424.03 629.36 487.13 632.8 537.38 663.13C546.88 668.86 557.86 679.08 552.76 691.48M400.3 174.83C394.15 193.98 428.26 204.29 427.25 220.78C426.47 233.44 406.82 242.61 397.11 250.12C380.38 263.05 367.76 282.01 354.28 299.41C318.36 345.76 280.81 391.67 251.98 443.11C233.47 476.14 205.47 525.29 235.56 560.24C266.31 595.96 315.06 608.96 359.41 618.23C394.44 625.55 429.64 632.37 464.27 641.37C485.06 646.77 508.74 653.97 525.73 665.83C532.89 670.83 540.26 682.77 535.24 691.83M396.79 174.04C390.44 193.06 423.14 203.43 421.04 220.82C419.45 234 401.08 242.56 391.46 250.62C375.26 264.19 362.54 283.24 349.03 300.56C312.64 347.21 274.62 393.39 245.3 445.11C226.92 477.53 198.27 526.32 226.93 561.39C256.77 597.9 306.69 610.56 350.45 619.35C374.8 624.24 544.13 645.91 515.21 692.2M394 173.1C388.01 192.05 417.98 203.32 414.8 220.8C412.26 234.74 393.75 243.68 383.54 253.17C367.87 267.75 355.6 286.77 342.2 303.82C305.9 350.02 268.13 395.81 238.78 447.02C219.95 479.87 190.47 529.6 220.58 564.9C250.29 599.72 298.44 611.6 340.74 620.44C364.05 625.31 524.89 647.31 493.12 692.68M391.79 172.07C386.16 190.73 412.03 203.63 408.26 220.69C405.24 234.38 387.82 243.6 378.14 253.72C363.31 269.2 350.66 287.83 337.13 304.94C300.38 351.4 262.24 397.4 232.4 448.85C213.43 481.55 183.04 531.66 213.35 567.01C242.43 600.92 288.99 612.54 330.32 621.48C353.03 626.39 504.41 648.57 469.33 693.23M390.04 170.94C384.49 189.26 406.56 203.24 401.42 220.35C397.72 232.67 384.34 241.47 376.07 250.61C362.65 265.43 350 283.38 337.15 299.67C298.64 348.5 257.81 396.58 226.14 450.56C207.31 482.66 176.45 532.13 204.97 567.72C232.35 601.88 279.1 613.37 319.3 622.48C341.1 627.42 483.12 650.21 444.27 693.84M388.59 169.77C382.87 187.35 400.05 203.29 394.13 219.87C389.8 232 378.16 241.23 370.4 250.98C357.8 266.79 345.04 284.35 332.15 300.65C293.29 349.77 251.99 397.97 219.99 452.15C200.53 485.09 168.28 536.52 200.09 572.19C227.21 602.61 269.69 614.48 307.79 623.39C329.87 628.56 459.88 651.53 418.27 694.46M387.31 168.56C380.97 185.19 391.9 203.8 386.48 219.26C382.18 231.53 370.82 242.37 363.13 253.59C351.47 270.62 338.33 287.46 325.41 303.69C286.79 352.21 245.98 400.05 213.95 453.6C194.91 485.44 162.5 535.3 190.81 571.2C215.77 602.85 258.69 614.82 295.95 624.24C319.35 630.15 434.53 652.27 391.83 695.11M386.05 167.35C380.3 183.91 384.16 204.03 378.66 218.51C374.74 228.83 366.21 239.75 359.87 250.19C347.93 269.86 333.14 288.5 318.6 306.64C280.11 354.64 239.81 402.04 207.99 454.94C188.52 487.32 155.33 537.78 185 574.11C208.95 603.43 248.79 615.4 283.81 625.03C308.6 631.85 408.62 654.25 365.27 695.79M384.68 166.16C378.2 182.87 376.91 202.12 370.53 217.67C366.16 228.32 359.5 239.51 353.94 250.39C343.28 271.25 327.94 289.23 313.36 307.38C274.66 355.54 234.22 403.09 202.13 456.09C182.65 488.27 149.12 539.17 178.3 575.42C200.7 603.26 238.79 615.61 271.57 625.71C296.74 633.46 383.06 657.39 339.03 696.43M383.06 165.03C375.84 182.18 369.57 199.9 362.17 216.78C355.3 232.43 351.57 250.22 342.52 264.92C332.55 281.12 318.31 295.41 306.34 310.09C267.67 357.5 228.19 404.78 196.34 457.11C177.04 488.83 143.42 538.64 170.38 575.22C190.75 602.86 228.01 615.79 259.34 626.32C288.63 636.16 353.39 658.78 313.5 697.04M381.07 163.97C372.43 181.52 361.69 198.49 353.7 215.82C346.59 231.25 345.05 250.01 336.36 265.1C326.93 281.48 312.67 295.98 300.8 310.61C262.11 358.3 222.6 405.56 190.62 457.95C171.06 490 136.65 541 164.95 577.69C184.57 603.12 218.18 615.77 247.15 626.83C276.72 638.11 327.63 662.22 289.09 697.63M378.57 163.03C368.42 181.07 353.32 197.18 345.12 214.85C338.15 229.88 338.55 249.79 330.14 265.24C321.15 281.75 306.82 296.43 295.06 311.01C256.45 358.89 216.98 406.19 184.96 458.63C165.38 490.69 130.66 541.6 158.61 578.51C176.89 602.66 208.13 615.7 235.22 627.25C269.62 641.92 296.44 663.64 266.22 698.15M375.42 162.22C363.73 180.7 343.91 196.02 336.49 213.88C331 227.09 332.42 247.54 325.88 262.3C318.98 277.87 304.45 291.99 293.95 305.16C254.04 355.2 212.65 404.43 179.34 459.09C160 490.84 125.23 540.59 151.04 577.66C168.02 602.06 197.82 614.82 223.67 627.52C257.54 644.16 271.58 667.02 245.27 698.56M371.51 161.58C360.49 181.39 333.91 192.48 327.84 212.96C323.54 227.47 325.81 247.41 319.46 262.32C312.84 277.85 298.05 292.13 287.69 305.22C248.03 355.36 206.94 404.7 173.77 459.37C154.27 491.5 118.75 542.5 146 579.7C162.28 601.93 189.1 614.92 212.51 627.7C244.89 645.37 248.46 670.52 226.66 698.91M366.71 161.15C354.92 180.98 325.13 190.92 319.77 211.99C316.06 226.58 319.4 247.18 313.07 262.22C306.55 277.71 291.42 292.09 281.15 305.2C241.8 355.44 201.13 404.81 168.23 459.43C148.82 491.66 113.46 542.62 139.92 579.94C155.01 601.22 180.5 614.42 202 627.74C231.6 646.08 228.38 673.16 210.81 699.13M360.87 160.94C347.48 177.91 317.49 190.74 312.29 210.96C308.27 226.58 312.92 246.22 306.08 261.85C299.18 277.63 284.74 291.76 274.25 305.3C235.41 355.41 195.16 404.82 162.7 459.3C143.04 492.31 108.05 543.77 135.11 581.64C149.37 601.59 173.05 613.68 192.26 627.68C218.4 646.75 211.94 674.61 198.1 699.26M354.09 160.94C340.37 176.93 310.04 189.82 305.35 209.89C301.61 225.89 306.69 245.57 299.52 261.58C292.38 277.52 277.63 291.68 267.07 305.47C229.04 355.12 190.28 404.84 157.92 458.54C137.97 491.65 103.13 543.22 129.31 581.5C142.71 601.09 165.58 612.23 183.36 627.47C206.81 647.57 200.26 675.02 188.1 699.28M346.94 160.98C333.05 176.11 303.46 188.84 298.87 208.81C295.57 223.17 296.6 239.61 293.22 254.24C288.63 274.09 267.29 295.25 255.17 311.63C220.01 359.12 183.67 406.49 153.37 457.46C133.49 490.91 98.3102 542.32 123.61 581.15C136.27 600.59 158.86 611.3 175.4 627.1C197.05 647.78 190.17 675.55 178.21 699.27M339.5 161.06C325.65 175.4 296.87 188.31 292.93 207.74C289.92 222.61 290.29 239.68 285.86 254.66C280 274.43 259.86 294.93 247.6 311.85C213.52 358.89 178.3 405.92 148.85 456.28C129.06 490.13 94.1802 541.08 118.18 580.48C130.03 599.94 152.42 610.41 167.71 626.88C187.8 648.52 180.15 675.77 168.37 699.29M331.82 161.18C318.23 174.88 291.46 187.57 287.56 206.67C284.57 221.31 284.87 238.47 279.74 252.07C272.25 271.91 254.47 291.49 241.28 310.09C207.8 357.31 173.31 404.54 144.37 454.94C124.69 489.21 90.5902 539.26 113.17 579.23C124.15 598.66 145.49 609.87 159.68 626.71C178.42 648.94 170.34 675.99 158.52 699.26M323.91 161.32C310.7 174.58 286.61 187.06 282.76 205.72C279.67 220.7 279.81 238.41 272.59 252.5C262.32 272.56 246.44 291.44 233.34 310.35C201 357.03 167.85 403.81 139.91 453.49C120.66 487.73 87.8702 535.93 107.57 576.11C117.47 596.3 138.34 608.73 151.65 626.47C168.89 649.45 160.59 676.1 148.64 699.29M315.82 161.5C303.39 175.43 282.48 186.4 278.38 204.81C274.94 220.25 274.11 238.64 265.44 252.94C253.53 272.57 238.36 291.29 225.33 310.59C194.19 356.7 162.47 402.98 135.55 451.89C116.49 486.52 84.8802 533.92 102.94 574.46C111.93 594.64 131.66 607.93 143.77 626.09C159.53 649.73 150.83 676.22 138.77 699.29M307.54 161.69C295.26 174.24 278.36 187.22 274.32 203.97C269.86 222.46 267.44 242.5 254.49 258.59C241.51 274.71 229.96 291.47 218.56 308.83C188.24 354.97 157.48 401.33 131.28 450.11C112.43 485.2 82.0202 531.76 98.4902 572.58C106.65 592.81 125.09 606.77 135.98 625.59C150.15 650.1 141.12 676.26 128.91 699.29M299.1 161.88C287.58 173.94 274.91 187.43 270.73 203.17C265.48 222.95 261.66 242.95 246.66 259.02C232.51 274.18 221.59 291.48 210.45 308.98C181.51 354.46 152.19 400.22 127.13 448.15C108.53 483.72 79.4902 529.25 94.2202 570.48C101.48 590.79 118.69 605.72 128.29 624.97C140.86 650.17 131.46 676.23 119.07 699.29M290.55 162.09C279.62 174.38 272.38 187.52 267.49 202.39C261.19 221.53 256.82 240.49 241.87 256.15C226.87 271.87 214.97 288.6 203.56 307.13C175.59 352.54 147.34 398.3 123.1 446C104.79 482.03 77.1902 526.57 90.1102 568.15C96.4602 588.58 112.37 604.52 120.66 624.22C131.57 650.13 121.83 676.11 109.18 699.27M281.96 162.32C270.28 173.21 269.59 188.14 264.43 201.68C256.56 222.31 251.29 240.33 234.3 256.42C218.44 271.42 206.74 288.26 195.52 307.15C168.98 351.84 142.34 396.91 119.25 443.68C100.23 482.2 76.6902 523.68 86.2102 565.63C90.7602 585.67 106.18 603.22 113.15 623.39C122.34 650.02 112.26 675.97 99.3302 699.31M273.33 162.56C261.46 173.53 266.74 187.82 261.44 201.07C251.16 226.73 240.89 244.06 220.11 262.08C204.47 275.65 194.9 294.11 184.4 312.6C160.5 354.68 136.55 397.24 115.58 441.12C97.0702 479.85 74.7602 520.72 82.5002 562.84C86.2302 583.14 100.13 601.73 105.74 622.38C113.17 649.72 102.76 675.68 89.4802 699.28M264.71 162.82C252.03 174.59 264.04 187.23 258.63 200.44C256.01 206.82 252.41 214.8 248.45 222.47C239.75 239.28 225.47 250.51 211.89 262.19C196.23 275.65 186.95 293.68 176.85 312.26C154.39 353.6 131.92 395.45 112.1 438.37C94.1302 477.28 73.0202 517.66 78.9602 559.86C81.8702 580.49 94.1502 600.14 98.4002 621.28C104.04 649.33 93.2802 675.37 79.6102 699.29M256.13 163.08C242.56 176.27 261.62 186.19 255.97 199.77C253.2 206.41 248.54 215.45 243.87 222.94C234.68 237.71 222.39 248.02 208.18 258.78C190.42 272.24 180.56 290.61 170.48 309.92C149 351.11 127.79 392.79 108.83 435.37C91.4402 474.42 71.4902 514.41 75.6202 556.62C77.6802 577.66 88.3002 598.36 91.1702 620.02C94.9802 648.75 83.8502 674.95 69.7502 699.26M247.59 163.34C233.34 177.93 258.89 185.08 253.08 199.27C250.3 206.06 244.69 215.37 239.52 223.12C230.62 236.48 217.85 245.65 205.45 254.96C186.59 269.12 174.9 286.05 164.27 307.44C143.9 348.43 123.9 389.93 105.79 432.15C88.9602 471.38 70.2402 511.11 72.4602 553.17C73.5902 574.62 82.0702 597.05 84.0402 618.65C86.6402 647.19 74.5302 674.64 59.8802 699.26M239.13 163.59C224.33 179.24 256.18 184.03 250.24 198.74C246.85 207.14 241.11 215.85 235.4 222.81C224.76 235.79 211.98 244.99 198.1 254.69C186.26 262.96 173.64 272.98 167.28 286.29C164.09 292.97 160.69 299.8 157.42 306.66C138.26 346.86 120.02 387.51 103.03 428.71C86.8102 468.03 69.1702 507.57 69.5202 549.52C69.7102 571.61 76.3902 594.93 77.0302 617.17C77.8602 646.43 65.1902 674.16 50.0302 699.28M230.76 163.83C216.28 180.88 251.96 182.98 247.41 198.16C245.63 204.11 239.61 211.53 234.93 217.87C221.54 235.99 200.15 247.65 182.06 260.64C167.14 271.35 158.94 287.56 151.72 303.87C134.07 343.74 116.68 384.24 100.53 425.01C84.6702 465.04 67.6902 505.19 66.7102 547.66C66.2002 569.8 70.8802 593.27 70.1402 615.55C69.1502 645.51 55.8902 673.59 40.1602 699.27M222.49 164.02C207.79 182.34 249.22 182.93 244.15 197.78C240.9 207.29 233.06 215.99 225.55 223.45C212.35 236.56 195.48 245.86 180.26 256.33C170.64 262.94 160.16 270.4 154.98 281.05C150.78 289.68 147.09 298.91 143.35 307.87C127.75 345.28 112.76 383.11 98.3302 421.04C83.0802 461.13 66.3102 501.66 64.0902 543.57C62.8902 566.29 65.4602 590.81 63.3402 613.79C60.5102 644.45 46.6602 672.95 30.3102 699.27M214.35 164.18C199.1 181.03 243.81 183.31 240.96 197.25C239.68 203.48 231.77 211.96 225.85 218.24C211 233.96 189.77 244.86 171.95 256.91C161.58 263.93 151.64 272.61 146.7 284.46C143.94 291.09 141.2 297.81 138.53 304.57C123.88 341.68 110.14 379.34 96.4402 416.82C82.0302 456.26 66.0502 496.08 61.8702 537.08C59.4002 561.37 60.2602 587.48 56.6302 611.89C51.9702 643.23 37.4602 672.25 20.4502 699.28M206.37 164.3C191.52 181.8 239.33 183.07 237.35 196.86C236.47 202.99 227.86 211.67 221.47 217.73C205.45 232.92 183.7 243.9 165.4 256.16C155.23 262.97 145.47 271.49 140.9 283.2C138.38 289.65 135.87 296.2 133.45 302.79C120.11 339.08 107.66 375.9 94.8702 412.35C81.2502 451.16 66.3202 490.02 60.0602 530.34C56.0002 556.46 55.3802 583.92 50.0702 609.89C43.5202 641.95 28.3302 671.53 10.5702 699.28M198.69 164.41C183.96 181.82 235.65 184.06 233.23 196.61C231.28 206.72 218.99 216.58 209.02 222.99C191.59 234.2 173.78 245.19 156.78 256.74C141.82 266.9 134.99 282.48 129.5 299C117.58 334.89 105.79 371.56 93.6402 407.56C80.3002 447.11 65.3802 486.87 57.8802 527.51C53.0202 553.87 50.2602 581.62 43.6002 607.69C35.2502 640.37 19.3002 670.77 0.720215 699.26" stroke="url(#paint0_linear)" stroke-width="1.4327" stroke-miterlimit="10" stroke-linecap="round"/>
<path d="M408.22 361.71C418.493 361.71 426.82 353.382 426.82 343.11C426.82 332.837 418.493 324.51 408.22 324.51C397.948 324.51 389.62 332.837 389.62 343.11C389.62 353.382 397.948 361.71 408.22 361.71Z" fill="url(#paint1_radial)" stroke="url(#paint2_radial)" stroke-miterlimit="10"/>
<path d="M408.22 263.26V331.77" stroke="url(#paint3_linear)" stroke-miterlimit="10"/>
<path d="M407.75 262.88C425.975 262.88 440.75 248.105 440.75 229.88C440.75 211.655 425.975 196.88 407.75 196.88C389.525 196.88 374.75 211.655 374.75 229.88C374.75 248.105 389.525 262.88 407.75 262.88Z" fill="url(#paint4_linear)"/>
<path d="M407.41 241.82C406.21 241.72 405.08 241.46 404.03 241.03C402.98 240.57 402.06 239.99 401.3 239.27C400.54 238.55 399.92 237.72 399.47 236.79C399.01 235.86 398.77 234.84 398.75 233.73H403.17C403.22 234.9 403.63 235.89 404.39 236.68C405.18 237.45 406.19 237.89 407.41 238.01V230.89L405.72 230.64C403.78 230.38 402.23 229.65 401.08 228.45C399.95 227.25 399.39 225.73 399.39 223.88C399.39 222.92 399.61 222.02 400.04 221.18C400.47 220.32 401.06 219.56 401.8 218.91C402.54 218.24 403.39 217.7 404.35 217.29C405.33 216.88 406.35 216.63 407.41 216.53V213.19H410.03V216.61C411.11 216.75 412.1 217.04 413.01 217.47C413.92 217.88 414.71 218.4 415.38 219.05C416.05 219.7 416.58 220.44 416.96 221.28C417.37 222.12 417.6 223.02 417.64 223.98H413.22C413.17 223.12 412.85 222.37 412.25 221.75C411.67 221.1 410.93 220.66 410.02 220.42V227L411.24 227.18C412.15 227.32 413.01 227.58 413.83 227.94C414.64 228.3 415.35 228.77 415.95 229.34C416.57 229.92 417.05 230.61 417.39 231.43C417.75 232.22 417.93 233.12 417.93 234.13C417.93 235.21 417.73 236.19 417.32 237.08C416.94 237.94 416.39 238.71 415.67 239.38C414.97 240.03 414.14 240.57 413.15 241C412.19 241.41 411.15 241.67 410.02 241.79V245.49H407.4V241.82H407.41ZM410.04 237.97C411.17 237.78 412.04 237.37 412.66 236.75C413.28 236.1 413.59 235.29 413.59 234.31C413.59 233.4 413.29 232.73 412.69 232.3C412.09 231.84 411.41 231.54 410.64 231.4L410.03 231.29V237.97H410.04ZM407.41 220.32C406.4 220.46 405.54 220.84 404.82 221.43C404.12 222.01 403.78 222.78 403.78 223.77C403.78 224.61 404.01 225.24 404.46 225.68C404.94 226.09 405.56 226.35 406.33 226.47L407.41 226.65V220.32Z" fill="white"/>
<path d="M529 190.28L529.08 237.49" stroke="url(#paint5_linear)" stroke-miterlimit="10"/>
<path d="M529 248C535.075 248 540 243.299 540 237.5C540 231.701 535.075 227 529 227C522.925 227 518 231.701 518 237.5C518 243.299 522.925 248 529 248Z" fill="url(#paint6_radial)" stroke="url(#paint7_radial)" stroke-miterlimit="10"/>
<path d="M528.6 190.88C540.529 190.88 550.2 181.209 550.2 169.28C550.2 157.351 540.529 147.68 528.6 147.68C516.671 147.68 507 157.351 507 169.28C507 181.209 516.671 190.88 528.6 190.88Z" fill="url(#paint8_linear)"/>
<path d="M522.73 166.83L524.31 159.52H533.21L534.72 166.76L522.73 166.83Z" fill="white" stroke="white" stroke-width="0.0754" stroke-miterlimit="10" stroke-linejoin="round"/>
<path d="M515.12 176.9L516.7 169.59H525.6L527.1 176.82L515.12 176.9Z" fill="white" stroke="white" stroke-width="0.0754" stroke-miterlimit="10" stroke-linejoin="round"/>
<path d="M530.57 176.9L532.16 169.59H541.05L542.56 176.82L530.57 176.9Z" fill="white" stroke="white" stroke-width="0.0754" stroke-miterlimit="10" stroke-linejoin="round"/>
<path d="M911 191.3V269.3" stroke="url(#paint9_linear)" stroke-miterlimit="10"/>
<path opacity="0.4" d="M911.65 299.87C928.577 299.87 942.3 286.148 942.3 269.22C942.3 252.293 928.577 238.57 911.65 238.57C894.722 238.57 881 252.293 881 269.22C881 286.148 894.722 299.87 911.65 299.87Z" fill="url(#paint10_radial)"/>
<path d="M911.56 281.38C917.944 281.38 923.12 276.204 923.12 269.82C923.12 263.436 917.944 258.26 911.56 258.26C905.176 258.26 900 263.436 900 269.82C900 276.204 905.176 281.38 911.56 281.38Z" fill="url(#paint11_radial)"/>
<path d="M910.8 191.49C936.647 191.49 957.6 170.537 957.6 144.69C957.6 118.843 936.647 97.89 910.8 97.89C884.953 97.89 864 118.843 864 144.69C864 170.537 884.953 191.49 910.8 191.49Z" fill="url(#paint12_linear)"/>
<path d="M919.681 126.74L921.561 119.2L916.971 118.06L915.141 125.41C913.931 125.11 912.691 124.83 911.461 124.54L913.301 117.15L908.711 116.01L906.831 123.55C905.831 123.32 904.851 123.1 903.901 122.86L903.911 122.84L897.581 121.26L896.361 126.16C896.361 126.16 899.771 126.94 899.701 126.99C901.561 127.45 901.901 128.68 901.841 129.66L899.701 138.25C899.831 138.28 899.991 138.33 900.181 138.4C900.031 138.36 899.861 138.32 899.691 138.28L896.691 150.32C896.461 150.88 895.891 151.73 894.591 151.41C894.641 151.48 891.251 150.58 891.251 150.58L888.971 155.84L894.951 157.33C896.061 157.61 897.151 157.9 898.221 158.17L896.321 165.8L900.911 166.94L902.791 159.39C903.801 159.66 905.441 160.09 906.451 160.34L904.571 167.85L909.161 168.99L911.061 161.38C918.891 162.86 924.781 162.26 927.261 155.18C929.261 149.48 927.161 146.19 923.041 144.04C926.041 143.35 928.301 141.38 928.901 137.3C929.711 131.73 925.471 128.74 919.681 126.74ZM904.251 153.86L906.771 143.75C909.881 144.53 919.861 146.06 918.381 152.01C916.971 157.71 907.371 154.63 904.251 153.86ZM907.931 139.12L910.221 129.95C912.811 130.6 921.161 131.8 919.811 137.21C918.511 142.4 910.521 139.77 907.931 139.12Z" fill="white"/>
<path d="M1007.91 129.12C1017.25 129.12 1024.82 121.549 1024.82 112.21C1024.82 102.871 1017.25 95.3 1007.91 95.3C998.571 95.3 991 102.871 991 112.21C991 121.549 998.571 129.12 1007.91 129.12Z" fill="url(#paint13_linear)"/>
<path d="M1008 129L1008 167" stroke="url(#paint14_linear)" stroke-miterlimit="10"/>
<path d="M1008.32 176.64C1013.47 176.64 1017.64 172.467 1017.64 167.32C1017.64 162.173 1013.47 158 1008.32 158C1003.17 158 999 162.173 999 167.32C999 172.467 1003.17 176.64 1008.32 176.64Z" fill="url(#paint15_radial)"/>
<path d="M1014.96 114.94C1014.96 118.66 1011.99 121.67 1008.31 121.67C1004.63 121.67 1001.66 118.66 1001.66 114.94C1001.66 110.74 1005.44 109.12 1007.2 103.16C1007.54 102.02 1009.11 102.07 1009.41 103.16C1011.19 109.15 1014.96 110.72 1014.96 114.94ZM1008.92 118.65C1008.92 118.32 1008.65 118.05 1008.32 118.05C1006.65 118.05 1005.3 116.69 1005.3 115.03C1005.3 114.7 1005.03 114.43 1004.7 114.43C1004.37 114.43 1004.1 114.7 1004.1 115.03C1004.1 117.36 1006 119.26 1008.33 119.26C1008.65 119.25 1008.92 118.98 1008.92 118.65Z" fill="white"/>
<path d="M700 187.68C734.794 187.68 763 159.474 763 124.68C763 89.8861 734.794 61.68 700 61.68C665.206 61.68 637 89.8861 637 124.68C637 159.474 665.206 187.68 700 187.68Z" fill="url(#paint16_linear)"/>
<path d="M700.014 107.86L707.372 98.908C716.591 99.408 725.177 101.594 732.996 105.165L732.559 104.985C730.098 108.174 726.851 110.65 723.105 112.144L722.954 112.197C722.52 107.94 719.523 106.902 710.009 106.902L700.017 163L689.965 106.89C680.511 106.89 677.514 107.937 677.077 112.191C673.183 110.656 669.939 108.192 667.516 105.065L667.478 105.014C674.854 101.618 683.44 99.4257 692.477 98.9287L692.659 98.9198L700.017 107.86H700.014ZM700.014 96.3223C700.332 96.3164 700.707 96.3164 701.081 96.3164C712.875 96.3164 724.086 98.8015 734.212 103.275L733.692 103.071C734.397 101.905 735.069 100.547 735.625 99.1328L735.69 98.9465C725.133 94.6182 712.884 92.074 700.044 92H700.014C687.147 92.071 674.895 94.6153 663.69 99.1831L664.338 98.9494C665.004 100.591 665.673 101.952 666.428 103.263L666.336 103.091C675.962 98.8074 687.197 96.3134 699.021 96.3134C699.372 96.3134 699.72 96.3164 700.068 96.3193H700.014V96.3223Z" fill="white"/>
<path d="M701 187L700 405" stroke="url(#paint17_linear)" stroke-miterlimit="10"/>
<path opacity="0.4" d="M700 447C719.882 447 736 430.882 736 411C736 391.118 719.882 375 700 375C680.118 375 664 391.118 664 411C664 430.882 680.118 447 700 447Z" fill="url(#paint18_radial)"/>
<path d="M700.5 427C710.165 427 718 418.941 718 409C718 399.059 710.165 391 700.5 391C690.835 391 683 399.059 683 409C683 418.941 690.835 427 700.5 427Z" fill="url(#paint19_radial)"/>
<path d="M761.998 125.15C762.059 133.27 760.527 141.41 757.434 148.96C754.36 156.51 749.755 163.46 743.981 169.28C738.197 175.09 731.244 179.78 723.636 182.95C716.028 186.14 707.776 187.8 699.513 187.86C691.24 187.92 682.947 186.37 675.258 183.27C671.419 181.71 667.731 179.78 664.275 177.49C660.828 175.19 657.614 172.55 654.692 169.63C648.898 163.74 644.252 156.74 641.229 149.11C639.718 145.29 638.599 141.34 637.884 137.32C637.199 133.29 636.886 129.21 637.037 125.15H637.239C637.531 133.24 639.295 141.23 642.529 148.58C645.754 155.92 650.359 162.65 656.123 168.22C658.974 171.03 662.098 173.56 665.444 175.76C668.779 177.98 672.316 179.89 676.024 181.44C683.42 184.56 691.451 186.19 699.523 186.26C707.584 186.31 715.666 184.78 723.153 181.75C730.64 178.73 737.522 174.22 743.286 168.57C749.06 162.93 753.725 156.15 756.889 148.72C760.074 141.3 761.736 133.23 761.807 125.14H761.998V125.15Z" fill="url(#paint20_linear)"/>
<path d="M637.002 121.99C636.941 113.964 638.473 105.917 641.566 98.4541C644.64 90.9909 649.245 84.1209 655.019 78.3679C660.803 72.6247 667.756 67.9887 675.364 64.8552C682.972 61.7019 691.224 60.061 699.487 60.0017C707.76 59.9423 716.053 61.4745 723.742 64.5388C727.581 66.0809 731.269 67.9887 734.725 70.2523C738.172 72.5259 741.386 75.1355 744.308 78.0219C750.102 83.8441 754.748 90.7636 757.771 98.3058C759.282 102.082 760.401 105.986 761.116 109.96C761.801 113.944 762.114 117.977 761.963 121.99H761.761C761.469 113.993 759.705 106.095 756.471 98.8297C753.246 91.5742 748.631 84.9216 742.877 79.4157C740.026 76.638 736.902 74.1371 733.556 71.9624C730.221 69.768 726.684 67.88 722.976 66.3478C715.58 63.2637 707.549 61.6524 699.477 61.5833C691.416 61.5338 683.334 63.0462 675.847 66.0414C668.36 69.0266 661.478 73.4847 655.714 79.0697C649.94 84.6448 645.275 91.3468 642.111 98.6913C638.926 106.026 637.264 114.003 637.193 122H637.002V121.99Z" fill="url(#paint21_linear)"/>
<g filter="url(#filter0_f)">
<path d="M761.574 126.709C761.774 134.849 760.364 143.069 757.364 150.719C754.384 158.369 749.854 165.459 744.124 171.429C738.364 177.379 731.414 182.199 723.764 185.509C716.124 188.829 707.784 190.609 699.404 190.749C691.024 190.889 682.584 189.409 674.704 186.349C666.824 183.279 659.614 178.459 653.744 172.369C650.834 169.309 648.214 165.979 645.974 162.409C643.764 158.829 641.874 155.059 640.474 151.119C637.604 143.269 636.464 134.849 637.234 126.709H637.764C638.534 134.779 640.574 142.569 643.934 149.689C645.634 153.239 647.584 156.649 649.884 159.799C652.154 162.969 654.694 165.939 657.514 168.609C663.114 173.979 669.624 178.359 676.724 181.489C683.814 184.649 691.574 186.349 699.414 186.499C707.244 186.629 715.124 185.229 722.444 182.329C729.774 179.439 736.544 175.069 742.244 169.559C747.974 164.069 752.644 157.429 755.854 150.099C759.074 142.779 760.844 134.789 761.054 126.719H761.574V126.709Z" fill="#EB1CFD"/>
<path d="M637.214 122.049C637.014 113.909 638.424 105.689 641.424 98.0391C644.404 90.3891 648.934 83.2991 654.664 77.3291C660.424 71.3791 667.374 66.5591 675.024 63.2491C682.664 59.9291 691.004 58.1491 699.384 58.0091C707.764 57.8691 716.204 59.3491 724.084 62.4091C731.964 65.4791 739.174 70.2991 745.044 76.3891C747.954 79.4491 750.574 82.7791 752.814 86.3491C755.024 89.9291 756.914 93.6991 758.314 97.6391C761.184 105.489 762.324 113.909 761.554 122.049H761.024C760.254 113.979 758.214 106.189 754.854 99.0691C753.154 95.5191 751.204 92.1091 748.904 88.9591C746.634 85.7891 744.094 82.8191 741.274 80.1491C735.674 74.7791 729.164 70.3991 722.064 67.2691C714.974 64.1091 707.214 62.4091 699.374 62.2591C691.544 62.1291 683.664 63.5291 676.344 66.4291C669.014 69.3191 662.244 73.6891 656.544 79.1991C650.814 84.6891 646.144 91.3291 642.934 98.6591C639.714 105.979 637.944 113.969 637.734 122.039H637.214V122.049Z" fill="#31D8A4"/>
</g>
<g filter="url(#filter1_f)">
<path d="M761.84 126.243C762.1 134.393 760.73 142.643 757.75 150.333C754.8 158.033 750.29 165.163 744.55 171.203C738.78 177.203 731.81 182.093 724.12 185.453C716.44 188.823 708.04 190.653 699.6 190.823C691.15 191.003 682.62 189.543 674.64 186.503C666.67 183.433 659.37 178.563 653.47 172.383C650.55 169.273 647.91 165.893 645.68 162.283C643.49 158.653 641.6 154.833 640.23 150.843C637.42 142.893 636.39 134.393 637.35 126.243H638.02C638.98 134.303 641.14 142.013 644.56 149.043C646.3 152.543 648.25 155.903 650.57 159.003C652.84 162.123 655.38 165.043 658.18 167.663C663.74 172.953 670.17 177.263 677.17 180.403C684.16 183.573 691.84 185.303 699.6 185.493C707.36 185.653 715.18 184.303 722.47 181.453C729.76 178.613 736.51 174.303 742.21 168.843C747.94 163.413 752.62 156.823 755.87 149.543C759.11 142.263 760.93 134.303 761.19 126.243H761.84Z" fill="#EB1CFD"/>
<path d="M637.35 121.583C637.09 113.433 638.46 105.193 641.44 97.5028C644.39 89.8129 648.9 82.6729 654.63 76.6429C660.39 70.6429 667.36 65.7529 675.05 62.3929C682.73 59.0129 691.12 57.1829 699.56 57.0129C707.97 56.8529 716.52 58.1829 724.52 61.2229C732.52 64.2729 739.8 69.2329 745.62 75.4729C748.51 78.6129 751.11 82.0028 753.31 85.6229C755.48 89.2629 757.36 93.0629 758.74 97.0329C761.56 104.933 762.77 113.413 761.83 121.583H761.16C759.21 105.523 751.89 90.8428 740.86 80.1329C735.36 74.7829 728.99 70.4229 722 67.3129C718.51 65.7529 714.84 64.5329 711.08 63.7129C707.31 62.8929 703.45 62.4429 699.56 62.3329C691.8 62.1729 683.99 63.5329 676.7 66.3829C669.42 69.2229 662.67 73.5329 656.98 78.9929C651.26 84.4229 646.57 91.0028 643.33 98.2929C640.09 105.573 638.28 113.523 638.01 121.583H637.35Z" fill="#31D8A4"/>
</g>
<path d="M549.95 169.423C549.971 172.214 549.444 175.012 548.381 177.607C547.325 180.202 545.743 182.59 543.759 184.591C541.772 186.588 539.383 188.2 536.769 189.289C534.154 190.385 531.319 190.956 528.48 190.977C525.637 190.997 522.787 190.465 520.146 189.399C518.826 188.863 517.559 188.2 516.372 187.412C515.188 186.622 514.083 185.715 513.079 184.711C511.088 182.687 509.492 180.281 508.453 177.658C507.934 176.345 507.55 174.988 507.304 173.606C507.068 172.221 506.961 170.819 507.013 169.423H507.082C507.183 172.204 507.788 174.95 508.9 177.476C510.008 179.999 511.59 182.312 513.571 184.226C514.55 185.192 515.624 186.062 516.773 186.818C517.919 187.581 519.135 188.237 520.409 188.77C522.95 189.842 525.71 190.403 528.483 190.427C531.253 190.444 534.03 189.918 536.602 188.877C539.175 187.839 541.54 186.289 543.52 184.347C545.504 182.408 547.107 180.078 548.194 177.524C549.288 174.974 549.86 172.2 549.884 169.42H549.95V169.423Z" fill="url(#paint22_linear)"/>
<path d="M507.001 168.337C506.98 165.578 507.506 162.813 508.569 160.248C509.625 157.683 511.207 155.321 513.191 153.344C515.179 151.37 517.568 149.777 520.182 148.7C522.796 147.616 525.632 147.052 528.471 147.032C531.313 147.011 534.163 147.538 536.805 148.591C538.124 149.121 539.391 149.777 540.579 150.555C541.763 151.336 542.867 152.233 543.871 153.225C545.862 155.226 547.458 157.605 548.497 160.197C549.017 161.495 549.401 162.837 549.647 164.202C549.882 165.572 549.989 166.958 549.938 168.337H549.868C549.768 165.589 549.162 162.874 548.051 160.377C546.943 157.883 545.357 155.597 543.38 153.704C542.4 152.75 541.327 151.89 540.177 151.143C539.031 150.388 537.816 149.739 536.542 149.213C534 148.153 531.241 147.599 528.467 147.575C525.697 147.558 522.921 148.078 520.348 149.108C517.776 150.134 515.411 151.666 513.43 153.585C511.446 155.502 509.843 157.805 508.756 160.329C507.662 162.85 507.091 165.592 507.066 168.341H507.001V168.337Z" fill="url(#paint23_linear)"/>
<g filter="url(#filter2_f)">
<path d="M549.804 169.959C549.873 172.757 549.388 175.582 548.358 178.211C547.334 180.841 545.777 183.277 543.808 185.329C541.829 187.374 539.441 189.031 536.812 190.169C534.187 191.31 531.322 191.921 528.442 191.97C525.563 192.018 522.663 191.509 519.955 190.457C517.248 189.402 514.77 187.745 512.753 185.652C511.754 184.601 510.853 183.456 510.084 182.229C509.324 180.999 508.675 179.703 508.194 178.349C507.208 175.651 506.816 172.757 507.081 169.959H507.263C507.527 172.733 508.228 175.41 509.383 177.857C509.967 179.077 510.637 180.249 511.427 181.332C512.207 182.422 513.08 183.442 514.049 184.36C515.973 186.206 518.21 187.711 520.649 188.787C523.086 189.873 525.752 190.457 528.446 190.509C531.136 190.553 533.844 190.072 536.359 189.076C538.878 188.082 541.204 186.58 543.162 184.687C545.131 182.8 546.736 180.517 547.839 177.998C548.945 175.482 549.553 172.736 549.625 169.962H549.804V169.959Z" fill="#EB1CFD"/>
<path d="M507.074 168.357C507.005 165.56 507.49 162.734 508.52 160.105C509.544 157.476 511.101 155.039 513.07 152.987C515.049 150.942 517.437 149.285 520.065 148.148C522.691 147.007 525.556 146.395 528.436 146.347C531.315 146.299 534.215 146.807 536.923 147.859C539.63 148.914 542.108 150.571 544.124 152.664C545.124 153.716 546.025 154.86 546.794 156.087C547.554 157.318 548.203 158.613 548.684 159.968C549.67 162.666 550.062 165.56 549.797 168.357H549.615C549.351 165.584 548.65 162.906 547.495 160.459C546.911 159.239 546.241 158.067 545.451 156.984C544.671 155.895 543.798 154.874 542.829 153.956C540.905 152.111 538.668 150.605 536.228 149.529C533.792 148.443 531.126 147.859 528.432 147.808C525.742 147.763 523.034 148.244 520.519 149.241C518 150.234 515.674 151.736 513.716 153.63C511.747 155.517 510.142 157.799 509.039 160.318C507.933 162.834 507.325 165.58 507.252 168.354H507.074V168.357Z" fill="#31D8A4"/>
</g>
<g filter="url(#filter3_f)">
<path d="M549.896 169.799C549.985 172.6 549.514 175.435 548.49 178.078C547.477 180.725 545.927 183.176 543.955 185.252C541.972 187.314 539.577 188.994 536.935 190.149C534.296 191.308 531.41 191.936 528.51 191.995C525.606 192.057 522.675 191.555 519.933 190.51C517.195 189.455 514.687 187.781 512.659 185.657C511.656 184.588 510.749 183.426 509.983 182.186C509.23 180.938 508.581 179.625 508.11 178.254C507.144 175.521 506.791 172.6 507.12 169.799H507.351C507.68 172.569 508.423 175.219 509.598 177.635C510.196 178.838 510.866 179.993 511.663 181.058C512.443 182.131 513.316 183.134 514.278 184.035C516.188 185.853 518.397 187.334 520.803 188.414C523.204 189.503 525.843 190.098 528.51 190.163C531.176 190.218 533.863 189.754 536.368 188.774C538.873 187.798 541.192 186.317 543.151 184.44C545.119 182.574 546.727 180.309 547.844 177.807C548.957 175.305 549.583 172.569 549.672 169.799H549.896Z" fill="#EB1CFD"/>
<path d="M507.12 168.197C507.031 165.396 507.501 162.564 508.525 159.921C509.539 157.278 511.089 154.824 513.058 152.751C515.037 150.689 517.432 149.008 520.074 147.854C522.713 146.692 525.596 146.063 528.496 146.004C531.385 145.949 534.323 146.407 537.072 147.451C539.821 148.5 542.322 150.204 544.322 152.349C545.315 153.428 546.208 154.593 546.964 155.838C547.71 157.089 548.356 158.395 548.83 159.759C549.799 162.475 550.215 165.389 549.892 168.197H549.662C548.992 162.677 546.476 157.632 542.686 153.951C540.797 152.112 538.608 150.613 536.206 149.545C535.007 149.008 533.746 148.589 532.454 148.307C531.159 148.025 529.832 147.871 528.496 147.833C525.829 147.778 523.146 148.245 520.641 149.225C518.139 150.201 515.82 151.682 513.865 153.559C511.9 155.425 510.288 157.687 509.175 160.192C508.062 162.694 507.44 165.427 507.347 168.197H507.12Z" fill="#31D8A4"/>
</g>
<path d="M441.922 230.153C441.954 234.461 441.134 238.779 439.478 242.784C437.832 246.79 435.367 250.476 432.276 253.564C429.179 256.646 425.457 259.134 421.383 260.816C417.31 262.508 412.892 263.389 408.468 263.42C404.039 263.452 399.599 262.63 395.483 260.986C393.427 260.158 391.453 259.134 389.602 257.919C387.757 256.699 386.036 255.299 384.472 253.75C381.37 250.625 378.883 246.912 377.264 242.864C376.455 240.837 375.856 238.742 375.473 236.609C375.106 234.471 374.939 232.307 375.02 230.153H375.128C375.284 234.445 376.228 238.684 377.96 242.583C379.687 246.477 382.152 250.047 385.238 253.002C386.765 254.492 388.437 255.834 390.228 257.002C392.014 258.179 393.907 259.192 395.893 260.015C399.853 261.67 404.152 262.535 408.474 262.572C412.789 262.598 417.116 261.787 421.125 260.179C425.133 258.577 428.818 256.185 431.903 253.187C434.995 250.195 437.493 246.599 439.187 242.657C440.891 238.721 441.781 234.44 441.819 230.148H441.922V230.153Z" fill="url(#paint24_linear)"/>
<path d="M375.001 228.477C374.969 224.219 375.789 219.95 377.445 215.991C379.09 212.032 381.556 208.387 384.647 205.336C387.744 202.289 391.466 199.829 395.539 198.167C399.612 196.494 404.031 195.624 408.454 195.592C412.884 195.561 417.324 196.374 421.44 197.999C423.495 198.817 425.47 199.829 427.32 201.03C429.165 202.236 430.886 203.621 432.451 205.152C435.553 208.241 438.04 211.911 439.658 215.912C440.468 217.916 441.066 219.987 441.449 222.095C441.816 224.208 441.984 226.348 441.903 228.477H441.795C441.638 224.235 440.694 220.045 438.962 216.19C437.236 212.341 434.765 208.812 431.685 205.891C430.158 204.418 428.486 203.091 426.695 201.937C424.909 200.773 423.015 199.772 421.03 198.959C417.07 197.323 412.77 196.468 408.449 196.431C404.133 196.405 399.807 197.207 395.798 198.796C391.79 200.38 388.105 202.745 385.019 205.708C381.928 208.665 379.43 212.221 377.736 216.117C376.031 220.008 375.141 224.24 375.103 228.482H375.001V228.477Z" fill="url(#paint25_linear)"/>
<g filter="url(#filter4_f)">
<path d="M441.695 230.98C441.802 235.298 441.047 239.659 439.441 243.717C437.845 247.776 435.42 251.537 432.352 254.704C429.269 257.86 425.548 260.417 421.452 262.173C417.362 263.934 412.897 264.879 408.41 264.953C403.924 265.027 399.405 264.242 395.186 262.619C390.967 260.99 387.107 258.433 383.965 255.203C382.407 253.579 381.004 251.813 379.805 249.919C378.621 248.02 377.61 246.02 376.86 243.93C375.324 239.765 374.713 235.298 375.125 230.98H375.409C375.821 235.261 376.914 239.394 378.713 243.171C379.623 245.054 380.667 246.863 381.898 248.534C383.113 250.216 384.473 251.791 385.983 253.208C388.981 256.057 392.466 258.38 396.268 260.041C400.064 261.717 404.218 262.619 408.415 262.698C412.607 262.767 416.826 262.025 420.745 260.486C424.67 258.953 428.294 256.635 431.346 253.712C434.414 250.799 436.914 247.277 438.632 243.388C440.356 239.505 441.304 235.267 441.416 230.986H441.695V230.98Z" fill="#EB1CFD"/>
<path d="M375.114 228.508C375.007 224.19 375.762 219.829 377.368 215.771C378.964 211.713 381.389 207.952 384.457 204.784C387.541 201.628 391.262 199.071 395.357 197.315C399.448 195.554 403.913 194.61 408.399 194.535C412.886 194.461 417.404 195.246 421.623 196.87C425.842 198.498 429.702 201.055 432.845 204.286C434.403 205.909 435.805 207.676 437.005 209.57C438.188 211.469 439.2 213.469 439.949 215.559C441.486 219.723 442.096 224.19 441.684 228.508H441.4C440.988 224.227 439.896 220.095 438.097 216.317C437.187 214.434 436.143 212.625 434.911 210.954C433.696 209.272 432.336 207.697 430.826 206.28C427.828 203.432 424.343 201.108 420.542 199.448C416.746 197.771 412.591 196.87 408.394 196.79C404.202 196.721 399.983 197.464 396.064 199.002C392.14 200.535 388.515 202.853 385.463 205.776C382.396 208.689 379.895 212.211 378.177 216.1C376.453 219.983 375.505 224.222 375.393 228.503H375.114V228.508Z" fill="#31D8A4"/>
</g>
<g filter="url(#filter5_f)">
<path d="M441.837 230.733C441.976 235.056 441.243 239.433 439.647 243.512C438.068 247.597 435.654 251.38 432.58 254.584C429.491 257.767 425.76 260.361 421.643 262.143C417.531 263.931 413.034 264.902 408.515 264.992C403.991 265.088 399.424 264.313 395.152 262.7C390.885 261.072 386.977 258.488 383.818 255.21C382.255 253.56 380.841 251.767 379.647 249.852C378.475 247.926 377.463 245.9 376.729 243.783C375.225 239.566 374.674 235.056 375.188 230.733H375.546C376.06 235.009 377.217 239.099 379.048 242.828C379.979 244.685 381.023 246.467 382.265 248.112C383.481 249.767 384.84 251.316 386.34 252.706C389.316 255.512 392.759 257.799 396.506 259.464C400.249 261.146 404.36 262.064 408.515 262.165C412.67 262.25 416.856 261.533 420.759 260.021C424.662 258.515 428.276 256.228 431.328 253.332C434.395 250.451 436.901 246.955 438.641 243.093C440.376 239.231 441.35 235.009 441.489 230.733H441.837Z" fill="#EB1CFD"/>
<path d="M375.188 228.261C375.048 223.937 375.782 219.566 377.377 215.486C378.957 211.407 381.371 207.619 384.439 204.42C387.523 201.237 391.254 198.643 395.371 196.861C399.483 195.068 403.975 194.097 408.494 194.007C412.996 193.922 417.574 194.627 421.857 196.24C426.14 197.858 430.037 200.489 433.153 203.8C434.701 205.465 436.093 207.264 437.27 209.184C438.432 211.115 439.439 213.131 440.177 215.237C441.687 219.428 442.335 223.927 441.832 228.261H441.473C440.429 219.741 436.51 211.953 430.605 206.272C427.66 203.434 424.25 201.121 420.508 199.471C418.639 198.643 416.674 197.996 414.661 197.561C412.643 197.126 410.576 196.887 408.494 196.829C404.339 196.744 400.158 197.466 396.255 198.978C392.357 200.484 388.743 202.771 385.697 205.667C382.635 208.548 380.124 212.038 378.389 215.906C376.655 219.768 375.685 223.985 375.541 228.261H375.188Z" fill="#31D8A4"/>
</g>
<path d="M956.891 145.411C956.936 151.417 955.798 157.438 953.499 163.023C951.215 168.608 947.793 173.749 943.502 178.054C939.204 182.351 934.037 185.821 928.383 188.166C922.729 190.525 916.596 191.753 910.456 191.797C904.308 191.842 898.145 190.695 892.431 188.402C889.578 187.248 886.837 185.821 884.269 184.127C881.708 182.425 879.319 180.473 877.147 178.313C872.842 173.956 869.389 168.778 867.143 163.134C866.02 160.308 865.188 157.387 864.657 154.413C864.148 151.432 863.915 148.414 864.028 145.411H864.178C864.395 151.395 865.705 157.305 868.109 162.742C870.505 168.171 873.927 173.15 878.211 177.27C880.33 179.348 882.651 181.22 885.138 182.847C887.616 184.489 890.245 185.902 893 187.049C898.497 189.356 904.465 190.562 910.463 190.614C916.454 190.651 922.46 189.519 928.024 187.278C933.587 185.044 938.702 181.708 942.985 177.529C947.276 173.357 950.743 168.342 953.095 162.846C955.461 157.357 956.697 151.388 956.749 145.403H956.891V145.411Z" fill="url(#paint26_linear)"/>
<path d="M864.001 143.073C863.956 137.136 865.095 131.184 867.394 125.664C869.677 120.143 873.1 115.061 877.391 110.806C881.689 106.558 886.856 103.128 892.51 100.81C898.163 98.478 904.296 97.2642 910.437 97.2203C916.585 97.1765 922.748 98.3098 928.461 100.577C931.314 101.717 934.055 103.128 936.624 104.803C939.185 106.485 941.574 108.415 943.745 110.55C948.051 114.857 951.503 119.975 953.75 125.554C954.873 128.347 955.704 131.235 956.236 134.175C956.745 137.121 956.977 140.105 956.865 143.073H956.715C956.498 137.158 955.187 131.316 952.784 125.942C950.387 120.575 946.958 115.654 942.682 111.581C940.563 109.526 938.241 107.676 935.755 106.068C933.276 104.445 930.648 103.048 927.892 101.915C922.396 99.6333 916.428 98.4414 910.429 98.3902C904.439 98.3537 898.433 99.4724 892.869 101.688C887.305 103.896 882.191 107.194 877.907 111.325C873.616 115.449 870.149 120.406 867.798 125.839C865.432 131.265 864.196 137.165 864.144 143.081H864.001V143.073Z" fill="url(#paint27_linear)"/>
<g filter="url(#filter6_f)">
<path d="M956.576 146.564C956.725 152.585 955.677 158.665 953.448 164.324C951.233 169.983 947.867 175.227 943.608 179.643C939.328 184.045 934.163 187.61 928.478 190.058C922.801 192.514 916.603 193.831 910.375 193.934C904.148 194.038 897.876 192.943 892.02 190.68C886.164 188.409 880.806 184.843 876.443 180.339C874.281 178.075 872.334 175.612 870.669 172.971C869.027 170.323 867.622 167.534 866.582 164.62C864.449 158.813 863.602 152.585 864.174 146.564H864.568C865.14 152.533 866.656 158.296 869.153 163.562C870.417 166.188 871.866 168.711 873.575 171.041C875.262 173.385 877.149 175.582 879.245 177.557C883.407 181.53 888.244 184.77 893.521 187.085C898.79 189.422 904.556 190.68 910.383 190.791C916.201 190.887 922.057 189.851 927.497 187.706C932.944 185.568 937.975 182.336 942.211 178.26C946.47 174.199 949.94 169.288 952.326 163.866C954.718 158.451 956.034 152.541 956.19 146.571H956.576V146.564Z" fill="#EB1CFD"/>
<path d="M864.159 143.117C864.011 137.096 865.059 131.015 867.288 125.357C869.503 119.698 872.869 114.453 877.127 110.037C881.408 105.636 886.572 102.071 892.258 99.6224C897.935 97.1666 904.133 95.85 910.36 95.7464C916.588 95.6428 922.86 96.7376 928.716 99.0011C934.572 101.272 939.93 104.837 944.292 109.342C946.455 111.606 948.402 114.069 950.066 116.71C951.709 119.358 953.113 122.146 954.154 125.061C956.287 130.867 957.134 137.096 956.562 143.117H956.168C955.595 137.148 954.079 131.385 951.582 126.119C950.319 123.493 948.87 120.97 947.161 118.64C945.474 116.295 943.586 114.098 941.491 112.123C937.329 108.151 932.491 104.911 927.215 102.596C921.946 100.259 916.179 99.0011 910.353 98.8901C904.534 98.794 898.678 99.8296 893.238 101.975C887.791 104.112 882.76 107.345 878.524 111.421C874.266 115.482 870.796 120.393 868.41 125.815C866.017 131.23 864.702 137.14 864.546 143.11H864.159V143.117Z" fill="#31D8A4"/>
</g>
<g filter="url(#filter7_f)">
<path d="M956.774 146.219C956.967 152.248 955.949 158.35 953.735 164.038C951.542 169.734 948.191 175.008 943.925 179.476C939.637 183.914 934.457 187.531 928.743 190.017C923.035 192.51 916.793 193.863 910.521 193.989C904.241 194.122 897.902 193.042 891.972 190.793C886.049 188.523 880.624 184.92 876.24 180.349C874.07 178.048 872.108 175.548 870.451 172.878C868.823 170.193 867.419 167.367 866.401 164.416C864.312 158.535 863.547 152.248 864.26 146.219H864.758C865.472 152.181 867.077 157.884 869.618 163.084C870.911 165.673 872.361 168.159 874.085 170.452C875.772 172.76 877.659 174.919 879.74 176.858C883.872 180.771 888.65 183.959 893.852 186.281C899.047 188.626 904.754 189.906 910.521 190.046C916.288 190.165 922.099 189.166 927.517 187.058C932.934 184.957 937.95 181.769 942.186 177.73C946.444 173.714 949.922 168.839 952.337 163.454C954.745 158.069 956.098 152.181 956.291 146.219H956.774Z" fill="#EB1CFD"/>
<path d="M864.26 142.772C864.067 136.743 865.085 130.648 867.3 124.96C869.492 119.272 872.844 113.99 877.102 109.53C881.382 105.092 886.562 101.475 892.277 98.9891C897.984 96.4889 904.219 95.1353 910.491 95.0095C916.741 94.8912 923.095 95.875 929.04 98.1237C934.985 100.38 940.395 104.049 944.72 108.664C946.868 110.987 948.8 113.495 950.435 116.172C952.048 118.865 953.445 121.676 954.47 124.612C956.566 130.456 957.465 136.729 956.767 142.772H956.269C954.82 130.892 949.38 120.034 941.183 112.111C937.096 108.154 932.362 104.929 927.167 102.628C924.574 101.475 921.846 100.572 919.052 99.9655C916.251 99.359 913.382 99.0261 910.491 98.9447C904.724 98.8264 898.921 99.8324 893.503 101.941C888.093 104.041 883.077 107.229 878.848 111.268C874.598 115.285 871.112 120.152 868.704 125.544C866.297 130.929 864.952 136.81 864.751 142.772H864.26Z" fill="#31D8A4"/>
</g>
<path d="M1024.96 112.331C1024.98 114.515 1024.56 116.705 1023.72 118.736C1022.89 120.766 1021.63 122.636 1020.07 124.201C1018.49 125.764 1016.6 127.026 1014.54 127.878C1012.47 128.736 1010.23 129.183 1007.98 129.199C1005.74 129.215 1003.48 128.798 1001.39 127.964C1000.35 127.545 999.349 127.026 998.41 126.41C997.474 125.791 996.601 125.081 995.807 124.296C994.232 122.711 992.97 120.828 992.149 118.776C991.738 117.748 991.434 116.686 991.24 115.605C991.054 114.521 990.969 113.423 991.01 112.331H991.065C991.144 114.507 991.623 116.656 992.502 118.633C993.378 120.608 994.629 122.418 996.195 123.916C996.97 124.672 997.819 125.353 998.728 125.944C999.634 126.542 1000.59 127.055 1001.6 127.472C1003.61 128.311 1005.79 128.75 1007.99 128.769C1010.18 128.782 1012.37 128.371 1014.41 127.556C1016.44 126.743 1018.31 125.53 1019.88 124.01C1021.45 122.493 1022.71 120.67 1023.57 118.671C1024.44 116.675 1024.89 114.505 1024.91 112.328H1024.96V112.331Z" fill="url(#paint28_linear)"/>
<path d="M991 111.481C990.984 109.322 991.4 107.158 992.241 105.15C993.076 103.143 994.327 101.295 995.895 99.7476C997.467 98.2028 999.356 96.9558 1001.42 96.1129C1003.49 95.2647 1005.73 94.8233 1007.98 94.8074C1010.22 94.7914 1012.48 95.2036 1014.57 96.0278C1015.61 96.4426 1016.61 96.9558 1017.55 97.5646C1018.49 98.1762 1019.36 98.8781 1020.15 99.6545C1021.73 101.221 1022.99 103.082 1023.81 105.111C1024.22 106.126 1024.53 107.176 1024.72 108.245C1024.91 109.317 1024.99 110.402 1024.95 111.481H1024.9C1024.82 109.33 1024.34 107.206 1023.46 105.251C1022.58 103.3 1021.33 101.51 1019.77 100.029C1018.99 99.2823 1018.14 98.6096 1017.23 98.0246C1016.33 97.4344 1015.37 96.9265 1014.36 96.5144C1012.35 95.6848 1010.17 95.2514 1007.97 95.2328C1005.78 95.2195 1003.59 95.6263 1001.55 96.432C999.52 97.2349 997.65 98.4341 996.084 99.9364C994.516 101.436 993.248 103.239 992.388 105.214C991.523 107.187 991.072 109.333 991.052 111.484H991V111.481Z" fill="url(#paint29_linear)"/>
<g filter="url(#filter8_f)">
<path d="M1024.85 112.751C1024.9 114.94 1024.52 117.151 1023.7 119.209C1022.89 121.267 1021.66 123.174 1020.1 124.779C1018.54 126.38 1016.65 127.676 1014.57 128.567C1012.5 129.46 1010.23 129.939 1007.95 129.976C1005.68 130.014 1003.38 129.616 1001.24 128.793C999.103 127.967 997.144 126.67 995.549 125.032C994.759 124.209 994.047 123.313 993.438 122.353C992.838 121.39 992.324 120.376 991.944 119.316C991.164 117.205 990.854 114.94 991.064 112.751H991.208C991.417 114.921 991.971 117.017 992.884 118.932C993.346 119.887 993.876 120.804 994.5 121.651C995.117 122.504 995.807 123.303 996.573 124.021C998.095 125.465 999.864 126.643 1001.79 127.485C1003.72 128.335 1005.83 128.793 1007.96 128.833C1010.08 128.868 1012.23 128.491 1014.21 127.711C1016.21 126.934 1018.04 125.759 1019.59 124.276C1021.15 122.8 1022.42 121.014 1023.29 119.042C1024.17 117.073 1024.65 114.924 1024.7 112.753H1024.85V112.751Z" fill="#EB1CFD"/>
<path d="M991.058 111.497C991.003 109.308 991.387 107.097 992.202 105.039C993.011 102.981 994.242 101.074 995.799 99.4682C997.364 97.8677 999.252 96.5712 1001.33 95.6809C1003.41 94.7879 1005.67 94.3091 1007.95 94.2714C1010.23 94.2338 1012.52 94.6319 1014.66 95.4549C1016.8 96.2807 1018.76 97.5772 1020.35 99.2153C1021.14 100.038 1021.86 100.934 1022.46 101.894C1023.07 102.857 1023.58 103.871 1023.96 104.931C1024.74 107.043 1025.05 109.308 1024.84 111.497H1024.7C1024.49 109.326 1023.93 107.231 1023.02 105.316C1022.56 104.361 1022.03 103.444 1021.4 102.596C1020.79 101.744 1020.1 100.945 1019.33 100.227C1017.81 98.7823 1016.04 97.6041 1014.11 96.7622C1012.18 95.9122 1010.08 95.4549 1007.95 95.4146C1005.82 95.3796 1003.68 95.7562 1001.69 96.5363C999.697 97.3136 997.858 98.4891 996.309 99.9712C994.753 101.448 993.484 103.234 992.612 105.206C991.737 107.175 991.256 109.324 991.199 111.494H991.058V111.497Z" fill="#31D8A4"/>
</g>
<g filter="url(#filter9_f)">
<path d="M1024.92 112.625C1024.99 114.817 1024.62 117.036 1023.81 119.105C1023 121.176 1021.78 123.094 1020.22 124.719C1018.65 126.332 1016.76 127.648 1014.67 128.552C1012.58 129.458 1010.3 129.95 1008.01 129.996C1005.71 130.044 1003.39 129.652 1001.23 128.834C999.061 128.008 997.078 126.698 995.475 125.036C994.681 124.199 993.964 123.29 993.358 122.319C992.763 121.343 992.25 120.315 991.878 119.242C991.114 117.104 990.834 114.817 991.095 112.625H991.277C991.538 114.793 992.125 116.867 993.054 118.758C993.527 119.699 994.057 120.603 994.687 121.437C995.304 122.276 995.994 123.062 996.754 123.766C998.265 125.189 1000.01 126.349 1001.91 127.193C1003.81 128.046 1005.9 128.511 1008.01 128.562C1010.12 128.605 1012.24 128.242 1014.22 127.476C1016.2 126.712 1018.04 125.552 1019.58 124.084C1021.14 122.623 1022.41 120.851 1023.3 118.892C1024.18 116.934 1024.67 114.793 1024.74 112.625H1024.92Z" fill="#EB1CFD"/>
<path d="M991.095 111.372C991.025 109.179 991.397 106.963 992.207 104.895C993.008 102.826 994.233 100.906 995.79 99.2836C997.355 97.6697 999.249 96.3544 1001.34 95.4506C1003.42 94.5414 1005.7 94.0492 1008 94.0035C1010.28 93.9604 1012.6 94.3182 1014.78 95.1359C1016.95 95.9563 1018.93 97.2904 1020.51 98.9689C1021.3 99.8135 1022 100.725 1022.6 101.699C1023.19 102.678 1023.7 103.7 1024.08 104.768C1024.84 106.893 1025.17 109.174 1024.91 111.372H1024.73C1024.2 107.052 1022.21 103.103 1019.22 100.222C1017.72 98.7833 1015.99 97.6105 1014.09 96.774C1013.15 96.3544 1012.15 96.0262 1011.13 95.8056C1010.1 95.5851 1009.05 95.464 1008 95.4344C1005.89 95.3914 1003.77 95.7572 1001.79 96.5238C999.808 97.2877 997.974 98.447 996.429 99.9157C994.875 101.376 993.6 103.146 992.72 105.107C991.84 107.065 991.348 109.204 991.275 111.372H991.095Z" fill="#31D8A4"/>
</g>
<defs>
<filter id="filter0_f" x="627" y="48" width="144.789" height="152.758" filterUnits="userSpaceOnUse" color-interpolation-filters="sRGB">
<feFlood flood-opacity="0" result="BackgroundImageFix"/>
<feBlend mode="normal" in="SourceGraphic" in2="BackgroundImageFix" result="shape"/>
<feGaussianBlur stdDeviation="5" result="effect1_foregroundBlur"/>
</filter>
<filter id="filter1_f" x="621" y="41" width="157.145" height="165.838" filterUnits="userSpaceOnUse" color-interpolation-filters="sRGB">
<feFlood flood-opacity="0" result="BackgroundImageFix"/>
<feBlend mode="normal" in="SourceGraphic" in2="BackgroundImageFix" result="shape"/>
<feGaussianBlur stdDeviation="8" result="effect1_foregroundBlur"/>
</filter>
<filter id="filter2_f" x="497" y="136.344" width="62.8779" height="65.629" filterUnits="userSpaceOnUse" color-interpolation-filters="sRGB">
<feFlood flood-opacity="0" result="BackgroundImageFix"/>
<feBlend mode="normal" in="SourceGraphic" in2="BackgroundImageFix" result="shape"/>
<feGaussianBlur stdDeviation="5" result="effect1_foregroundBlur"/>
</filter>
<filter id="filter3_f" x="491" y="130" width="74.9997" height="78" filterUnits="userSpaceOnUse" color-interpolation-filters="sRGB">
<feFlood flood-opacity="0" result="BackgroundImageFix"/>
<feBlend mode="normal" in="SourceGraphic" in2="BackgroundImageFix" result="shape"/>
<feGaussianBlur stdDeviation="8" result="effect1_foregroundBlur"/>
</filter>
<filter id="filter4_f" x="365" y="184.531" width="86.8092" height="90.4273" filterUnits="userSpaceOnUse" color-interpolation-filters="sRGB">
<feFlood flood-opacity="0" result="BackgroundImageFix"/>
<feBlend mode="normal" in="SourceGraphic" in2="BackgroundImageFix" result="shape"/>
<feGaussianBlur stdDeviation="5" result="effect1_foregroundBlur"/>
</filter>
<filter id="filter5_f" x="359" y="178" width="99" height="103" filterUnits="userSpaceOnUse" color-interpolation-filters="sRGB">
<feFlood flood-opacity="0" result="BackgroundImageFix"/>
<feBlend mode="normal" in="SourceGraphic" in2="BackgroundImageFix" result="shape"/>
<feGaussianBlur stdDeviation="8" result="effect1_foregroundBlur"/>
</filter>
<filter id="filter6_f" x="854" y="85.7397" width="112.736" height="118.201" filterUnits="userSpaceOnUse" color-interpolation-filters="sRGB">
<feFlood flood-opacity="0" result="BackgroundImageFix"/>
<feBlend mode="normal" in="SourceGraphic" in2="BackgroundImageFix" result="shape"/>
<feGaussianBlur stdDeviation="5" result="effect1_foregroundBlur"/>
</filter>
<filter id="filter7_f" x="848" y="79" width="125" height="131" filterUnits="userSpaceOnUse" color-interpolation-filters="sRGB">
<feFlood flood-opacity="0" result="BackgroundImageFix"/>
<feBlend mode="normal" in="SourceGraphic" in2="BackgroundImageFix" result="shape"/>
<feGaussianBlur stdDeviation="8" result="effect1_foregroundBlur"/>
</filter>
<filter id="filter8_f" x="981" y="84.269" width="53.9029" height="55.7096" filterUnits="userSpaceOnUse" color-interpolation-filters="sRGB">
<feFlood flood-opacity="0" result="BackgroundImageFix"/>
<feBlend mode="normal" in="SourceGraphic" in2="BackgroundImageFix" result="shape"/>
<feGaussianBlur stdDeviation="5" result="effect1_foregroundBlur"/>
</filter>
<filter id="filter9_f" x="975" y="78" width="66.0002" height="68" filterUnits="userSpaceOnUse" color-interpolation-filters="sRGB">
<feFlood flood-opacity="0" result="BackgroundImageFix"/>
<feBlend mode="normal" in="SourceGraphic" in2="BackgroundImageFix" result="shape"/>
<feGaussianBlur stdDeviation="8" result="effect1_foregroundBlur"/>
</filter>
<linearGradient id="paint0_linear" x1="756" y1="181.5" x2="810" y2="674.5" gradientUnits="userSpaceOnUse">
<stop stop-color="#00D1FF" stop-opacity="0"/>
<stop offset="0.124821" stop-color="#A91EFF" stop-opacity="0.45"/>
<stop offset="0.287747" stop-color="#ED1EFF" stop-opacity="0.78"/>
<stop offset="0.500125" stop-color="#71DDFF" stop-opacity="0.93"/>
<stop offset="0.806602" stop-color="#1AD4FF" stop-opacity="0.233608"/>
<stop offset="0.955974" stop-color="#00D1FF" stop-opacity="0"/>
</linearGradient>
<radialGradient id="paint1_radial" cx="0" cy="0" r="1" gradientUnits="userSpaceOnUse" gradientTransform="translate(408.224 343.111) scale(18.5953)">
<stop offset="0.0261" stop-color="white"/>
<stop offset="0.3263" stop-color="#67AFFE" stop-opacity="0.6"/>
<stop offset="0.3613" stop-color="#6DA8FE" stop-opacity="0.549"/>
<stop offset="0.4125" stop-color="#7F94FE" stop-opacity="0.4742"/>
<stop offset="0.4738" stop-color="#9C74FE" stop-opacity="0.3849"/>
<stop offset="0.5422" stop-color="#C448FD" stop-opacity="0.2851"/>
<stop offset="0.6006" stop-color="#EB1CFD" stop-opacity="0.2"/>
<stop offset="0.9644" stop-color="#0A0324" stop-opacity="0"/>
</radialGradient>
<radialGradient id="paint2_radial" cx="0" cy="0" r="1" gradientUnits="userSpaceOnUse" gradientTransform="translate(408.224 343.111) scale(19.0953)">
<stop offset="0.0261" stop-color="white"/>
<stop offset="0.3263" stop-color="#31D8A4" stop-opacity="0.6"/>
<stop offset="0.3559" stop-color="#38D1A7" stop-opacity="0.5568"/>
<stop offset="0.3993" stop-color="#4BBDB1" stop-opacity="0.4936"/>
<stop offset="0.4512" stop-color="#6B9DC0" stop-opacity="0.4179"/>
<stop offset="0.5096" stop-color="#9870D5" stop-opacity="0.3327"/>
<stop offset="0.5728" stop-color="#D037F0" stop-opacity="0.2406"/>
<stop offset="0.6006" stop-color="#EB1CFD" stop-opacity="0.2"/>
<stop offset="0.9644" stop-color="#0A0324" stop-opacity="0"/>
</radialGradient>
<linearGradient id="paint3_linear" x1="292.214" y1="323.583" x2="297.321" y2="254.59" gradientUnits="userSpaceOnUse">
<stop stop-color="#31D8A4"/>
<stop offset="0.1079" stop-color="#38D1A7"/>
<stop offset="0.2661" stop-color="#4BBDB1"/>
<stop offset="0.4552" stop-color="#6B9DC0"/>
<stop offset="0.6683" stop-color="#9870D5"/>
<stop offset="0.8985" stop-color="#D037F0"/>
<stop offset="1" stop-color="#EB1CFD"/>
</linearGradient>
<linearGradient id="paint4_linear" x1="374.747" y1="229.882" x2="440.747" y2="229.882" gradientUnits="userSpaceOnUse">
<stop offset="0.000282939" stop-color="#0F0436"/>
<stop offset="1" stop-color="#090221"/>
</linearGradient>
<linearGradient id="paint5_linear" x1="519.719" y1="231.849" x2="541.389" y2="197.861" gradientUnits="userSpaceOnUse">
<stop stop-color="#31D8A4"/>
<stop offset="0.1079" stop-color="#38D1A7"/>
<stop offset="0.2661" stop-color="#4BBDB1"/>
<stop offset="0.4552" stop-color="#6B9DC0"/>
<stop offset="0.6683" stop-color="#9870D5"/>
<stop offset="0.8985" stop-color="#D037F0"/>
<stop offset="1" stop-color="#EB1CFD"/>
</linearGradient>
<radialGradient id="paint6_radial" cx="0" cy="0" r="1" gradientUnits="userSpaceOnUse" gradientTransform="translate(529.002 237.5) scale(10.9972 10.4973)">
<stop offset="0.0261" stop-color="white"/>
<stop offset="0.3263" stop-color="#67AFFE" stop-opacity="0.6"/>
<stop offset="0.3613" stop-color="#6DA8FE" stop-opacity="0.549"/>
<stop offset="0.4125" stop-color="#7F94FE" stop-opacity="0.4742"/>
<stop offset="0.4738" stop-color="#9C74FE" stop-opacity="0.3849"/>
<stop offset="0.5422" stop-color="#C448FD" stop-opacity="0.2851"/>
<stop offset="0.6006" stop-color="#EB1CFD" stop-opacity="0.2"/>
<stop offset="0.9644" stop-color="#0A0324" stop-opacity="0"/>
</radialGradient>
<radialGradient id="paint7_radial" cx="0" cy="0" r="1" gradientUnits="userSpaceOnUse" gradientTransform="translate(529.002 237.5) scale(11.2929 10.7796)">
<stop offset="0.0261" stop-color="white"/>
<stop offset="0.3263" stop-color="#31D8A4" stop-opacity="0.6"/>
<stop offset="0.3559" stop-color="#38D1A7" stop-opacity="0.5568"/>
<stop offset="0.3993" stop-color="#4BBDB1" stop-opacity="0.4936"/>
<stop offset="0.4512" stop-color="#6B9DC0" stop-opacity="0.4179"/>
<stop offset="0.5096" stop-color="#9870D5" stop-opacity="0.3327"/>
<stop offset="0.5728" stop-color="#D037F0" stop-opacity="0.2406"/>
<stop offset="0.6006" stop-color="#EB1CFD" stop-opacity="0.2"/>
<stop offset="0.9644" stop-color="#0A0324" stop-opacity="0"/>
</radialGradient>
<linearGradient id="paint8_linear" x1="506.998" y1="169.282" x2="550.197" y2="169.282" gradientUnits="userSpaceOnUse">
<stop offset="0.000282939" stop-color="#0F0436"/>
<stop offset="1" stop-color="#090221"/>
</linearGradient>
<linearGradient id="paint9_linear" x1="794.994" y1="259.979" x2="801.603" y2="181.556" gradientUnits="userSpaceOnUse">
<stop stop-color="#31D8A4"/>
<stop offset="0.1079" stop-color="#38D1A7"/>
<stop offset="0.2661" stop-color="#4BBDB1"/>
<stop offset="0.4552" stop-color="#6B9DC0"/>
<stop offset="0.6683" stop-color="#9870D5"/>
<stop offset="0.8985" stop-color="#D037F0"/>
<stop offset="1" stop-color="#EB1CFD"/>
</linearGradient>
<radialGradient id="paint10_radial" cx="0" cy="0" r="1" gradientUnits="userSpaceOnUse" gradientTransform="translate(911.646 269.221) scale(30.6535)">
<stop offset="0.0261" stop-color="white"/>
<stop offset="0.3263" stop-color="#67AFFE" stop-opacity="0.6"/>
<stop offset="0.3791" stop-color="#6DA8FE" stop-opacity="0.549"/>
<stop offset="0.4566" stop-color="#7F94FE" stop-opacity="0.4742"/>
<stop offset="0.5492" stop-color="#9C74FE" stop-opacity="0.3849"/>
<stop offset="0.6526" stop-color="#C448FD" stop-opacity="0.2851"/>
<stop offset="0.7408" stop-color="#EB1CFD" stop-opacity="0.2"/>
<stop offset="1" stop-color="#0A0324" stop-opacity="0"/>
</radialGradient>
<radialGradient id="paint11_radial" cx="0" cy="0" r="1" gradientUnits="userSpaceOnUse" gradientTransform="translate(911.556 269.821) scale(11.5617)">
<stop offset="0.0261" stop-color="white"/>
<stop offset="0.3263" stop-color="#67AFFE" stop-opacity="0.6"/>
<stop offset="0.3613" stop-color="#6DA8FE" stop-opacity="0.549"/>
<stop offset="0.4125" stop-color="#7F94FE" stop-opacity="0.4742"/>
<stop offset="0.4738" stop-color="#9C74FE" stop-opacity="0.3849"/>
<stop offset="0.5422" stop-color="#C448FD" stop-opacity="0.2851"/>
<stop offset="0.6006" stop-color="#EB1CFD" stop-opacity="0.2"/>
<stop offset="0.9644" stop-color="#0A0324" stop-opacity="0"/>
</radialGradient>
<linearGradient id="paint12_linear" x1="864.003" y1="144.69" x2="957.603" y2="144.69" gradientUnits="userSpaceOnUse">
<stop offset="0.000282939" stop-color="#0F0436"/>
<stop offset="1" stop-color="#090221"/>
</linearGradient>
<linearGradient id="paint13_linear" x1="990.998" y1="112.212" x2="1024.82" y2="112.212" gradientUnits="userSpaceOnUse">
<stop offset="0.000282939" stop-color="#0F0436"/>
<stop offset="1" stop-color="#090221"/>
</linearGradient>
<linearGradient id="paint14_linear" x1="891.994" y1="162.459" x2="893.571" y2="124.046" gradientUnits="userSpaceOnUse">
<stop stop-color="#31D8A4"/>
<stop offset="0.1079" stop-color="#38D1A7"/>
<stop offset="0.2661" stop-color="#4BBDB1"/>
<stop offset="0.4552" stop-color="#6B9DC0"/>
<stop offset="0.6683" stop-color="#9870D5"/>
<stop offset="0.8985" stop-color="#D037F0"/>
<stop offset="1" stop-color="#EB1CFD"/>
</linearGradient>
<radialGradient id="paint15_radial" cx="0" cy="0" r="1" gradientUnits="userSpaceOnUse" gradientTransform="translate(1008.32 167.323) scale(9.31891)">
<stop offset="0.0261" stop-color="white"/>
<stop offset="0.3263" stop-color="#67AFFE" stop-opacity="0.6"/>
<stop offset="0.3613" stop-color="#6DA8FE" stop-opacity="0.549"/>
<stop offset="0.4125" stop-color="#7F94FE" stop-opacity="0.4742"/>
<stop offset="0.4738" stop-color="#9C74FE" stop-opacity="0.3849"/>
<stop offset="0.5422" stop-color="#C448FD" stop-opacity="0.2851"/>
<stop offset="0.6006" stop-color="#EB1CFD" stop-opacity="0.2"/>
<stop offset="0.9644" stop-color="#0A0324" stop-opacity="0"/>
</radialGradient>
<linearGradient id="paint16_linear" x1="637.004" y1="124.681" x2="763.004" y2="124.681" gradientUnits="userSpaceOnUse">
<stop offset="0.000282939" stop-color="#0F0436"/>
<stop offset="1" stop-color="#090221"/>
</linearGradient>
<linearGradient id="paint17_linear" x1="584.114" y1="378.418" x2="634.333" y2="169.505" gradientUnits="userSpaceOnUse">
<stop stop-color="#31D8A4"/>
<stop offset="0.1079" stop-color="#38D1A7"/>
<stop offset="0.2661" stop-color="#4BBDB1"/>
<stop offset="0.4552" stop-color="#6B9DC0"/>
<stop offset="0.6683" stop-color="#9870D5"/>
<stop offset="0.8985" stop-color="#D037F0"/>
<stop offset="1" stop-color="#EB1CFD"/>
</linearGradient>
<radialGradient id="paint18_radial" cx="0" cy="0" r="1" gradientUnits="userSpaceOnUse" gradientTransform="translate(700.001 411.005) scale(36.0041)">
<stop offset="0.0261" stop-color="white"/>
<stop offset="0.3263" stop-color="#67AFFE" stop-opacity="0.6"/>
<stop offset="0.3791" stop-color="#6DA8FE" stop-opacity="0.549"/>
<stop offset="0.4566" stop-color="#7F94FE" stop-opacity="0.4742"/>
<stop offset="0.5492" stop-color="#9C74FE" stop-opacity="0.3849"/>
<stop offset="0.6526" stop-color="#C448FD" stop-opacity="0.2851"/>
<stop offset="0.7408" stop-color="#EB1CFD" stop-opacity="0.2"/>
<stop offset="1" stop-color="#0A0324" stop-opacity="0"/>
</radialGradient>
<radialGradient id="paint19_radial" cx="0" cy="0" r="1" gradientUnits="userSpaceOnUse" gradientTransform="translate(700.497 408.993) scale(17.4941 17.9939)">
<stop offset="0.0261" stop-color="white"/>
<stop offset="0.3263" stop-color="#67AFFE" stop-opacity="0.6"/>
<stop offset="0.3791" stop-color="#6DA8FE" stop-opacity="0.5617"/>
<stop offset="0.4566" stop-color="#7F94FE" stop-opacity="0.5057"/>
<stop offset="0.5492" stop-color="#9C74FE" stop-opacity="0.4387"/>
<stop offset="0.6526" stop-color="#C448FD" stop-opacity="0.3638"/>
<stop offset="0.7408" stop-color="#EB1CFD" stop-opacity="0.3"/>
<stop offset="1" stop-color="#0A0324" stop-opacity="0"/>
</radialGradient>
<linearGradient id="paint20_linear" x1="636.117" y1="156.502" x2="762.903" y2="156.502" gradientUnits="userSpaceOnUse">
<stop offset="0.0261" stop-color="white"/>
<stop offset="1" stop-color="#EB1CFD"/>
</linearGradient>
<linearGradient id="paint21_linear" x1="636.092" y1="90.9903" x2="762.878" y2="90.9903" gradientUnits="userSpaceOnUse">
<stop offset="0.000250888" stop-color="#31D8A3"/>
<stop offset="0.9739" stop-color="white"/>
</linearGradient>
<linearGradient id="paint22_linear" x1="506.697" y1="180.199" x2="550.261" y2="180.199" gradientUnits="userSpaceOnUse">
<stop offset="0.0261" stop-color="white"/>
<stop offset="1" stop-color="#EB1CFD"/>
</linearGradient>
<linearGradient id="paint23_linear" x1="506.688" y1="157.682" x2="550.252" y2="157.682" gradientUnits="userSpaceOnUse">
<stop offset="0.000250888" stop-color="#31D8A3"/>
<stop offset="0.9739" stop-color="white"/>
</linearGradient>
<linearGradient id="paint24_linear" x1="374.528" y1="246.785" x2="442.406" y2="246.785" gradientUnits="userSpaceOnUse">
<stop offset="0.0261" stop-color="white"/>
<stop offset="1" stop-color="#EB1CFD"/>
</linearGradient>
<linearGradient id="paint25_linear" x1="374.514" y1="212.032" x2="442.393" y2="212.032" gradientUnits="userSpaceOnUse">
<stop offset="0.000250888" stop-color="#31D8A3"/>
<stop offset="0.9739" stop-color="white"/>
</linearGradient>
<linearGradient id="paint26_linear" x1="863.344" y1="168.602" x2="957.564" y2="168.602" gradientUnits="userSpaceOnUse">
<stop offset="0.0261" stop-color="white"/>
<stop offset="1" stop-color="#EB1CFD"/>
</linearGradient>
<linearGradient id="paint27_linear" x1="863.325" y1="120.143" x2="957.545" y2="120.143" gradientUnits="userSpaceOnUse">
<stop offset="0.000250888" stop-color="#31D8A3"/>
<stop offset="0.9739" stop-color="white"/>
</linearGradient>
<linearGradient id="paint28_linear" x1="990.76" y1="120.764" x2="1025.21" y2="120.764" gradientUnits="userSpaceOnUse">
<stop offset="0.0261" stop-color="white"/>
<stop offset="1" stop-color="#EB1CFD"/>
</linearGradient>
<linearGradient id="paint29_linear" x1="990.753" y1="103.143" x2="1025.2" y2="103.143" gradientUnits="userSpaceOnUse">
<stop offset="0.000250888" stop-color="#31D8A3"/>
<stop offset="0.9739" stop-color="white"/>
</linearGradient>
</defs>
</svg>
