<svg width="1246" height="701" viewBox="0 0 1246 701" fill="none" xmlns="http://www.w3.org/2000/svg">
<path d="M1.27979 697.75C16.3898 644.9 62.1798 606.4 88.6198 561.67C97.5198 546.61 103.93 529.32 99.2698 511.16C91.9898 482.75 80.2097 454.37 77.5997 424.75C74.9097 394.27 89.5797 368.96 108.7 347.75C126.52 327.98 148.18 310.73 170.77 296.16C182.9 288.34 214.46 276.6 214.49 259.18C214.52 241.89 209.97 223.28 205.67 206.05C202.31 192.57 200.76 178.48 196.57 165.08M204.57 165.55C209.38 178.23 211.08 191.79 215.14 204.63C220.33 221.02 225.92 238.15 228.94 254.33C231.54 268.3 205.07 277.38 195.51 282.97C155.34 306.45 111.83 345.12 114.31 397.14C115.45 421.11 124.2 443.96 127.61 467.67C131.79 496.68 126.28 521.85 111.03 545.85C79.5098 595.47 28.7998 637.69 9.80981 696.51M212.85 166.13C218.03 178.21 219.69 191.29 224.31 203.55C230.16 219.06 236.06 234.68 242.76 249.45C248.16 261.35 225.76 268.4 218.41 272.32C180.07 292.78 146.36 327.99 147.28 374.74C147.89 405.31 155.64 436.61 156.53 467.21C157.24 491.64 144.34 513.22 130.84 532.72C93.8297 586.17 39.9297 631.42 17.9697 694.97M221.39 166.8C225.85 178.69 228.76 191.36 233.18 202.77C238.35 216.11 243.51 231.77 253.5 243.11C255.9 245.84 261.31 248.19 260.05 252.12C258.7 256.35 244.02 261.66 239.71 263.91C202.07 283.48 177.35 315.19 176.66 359.54C176.18 390.44 181.99 421.61 180.16 452.05C178.59 478.11 163.4 501.27 148.41 521.97C108.12 577.64 49.1298 625.97 25.8698 693.21M230.14 167.55C234.53 179.08 237.23 191.63 241.96 202.32C247.92 215.8 256.27 231.54 268.61 241.53C277.48 248.72 273.77 250.7 259.58 257.44C225.09 273.82 205.41 303.79 203.39 342.71C201.72 375.06 205.4 408.41 201.12 440.21C197.45 467.45 180.2 491.56 163.94 513.27C120.71 571 58.5098 621.01 33.5098 691.24M239.06 168.36C243.3 179.59 245.65 191.99 250.45 202.09C256.32 214.43 266.1 228.47 278.31 237.02C286.79 242.96 295.67 245.55 278.17 252.67C243.75 266.67 230.27 299.96 227.37 334.51C224.68 366.65 226.63 400.68 219.47 431.01C212.89 458.9 195.79 483.15 177.75 506.5C132.19 565.46 67.0997 616.65 40.9697 689.14M248.08 169.21C252.04 180.17 253.91 192.5 258.58 202.02C264.64 214.37 277.61 227.51 290.87 235.01C297.71 238.88 311.1 243.41 295.58 249.38C263.21 261.83 253.34 295.59 249.3 326.54C245.11 358.66 244.41 391.95 236.06 423.06C228.24 452.21 208.71 477.76 190 501.34C153.65 547.17 110.77 589.09 76.9697 636.45C65.6797 652.27 55.8998 668.72 48.2898 686.92M257.17 170.09C261.63 180.47 262.09 193.32 266.8 202.21C273.41 214.68 289.19 226.77 303.49 233.64C308.62 236.11 325.26 242.17 311.95 247.37C282.93 258.72 274.87 291.21 269.84 318.51C264.03 350.05 261.63 383.51 252.19 413.3C242.33 444.41 221.94 471.88 200.93 497.65C162.93 544.26 118.24 587.41 83.2097 636.13C72.3897 651.18 62.2698 667.05 55.5298 684.68M266.29 170.96C270.4 181.34 268.92 193.56 274.69 202.48C282.94 215.22 299.58 225.18 314.09 231.85C318.91 234.07 338.9 240.98 327.36 246.41C301.61 258.54 294.09 289.93 288.38 315.16C281.26 346.64 276.29 378.8 265.8 409.2C254.72 441.3 232.25 469.47 210.74 495.25C171.62 542.15 126.96 585.39 90.0897 634.76C79.1397 649.42 69.2098 665.24 62.7598 682.44M275.37 171.82C279 182.1 276.66 194.35 282.38 202.84C290.88 215.46 309.44 224.27 324.2 230.42C330.18 232.92 348.44 240.14 341.86 246.32C325.72 261.47 312.04 289.44 305.46 313.6C296.95 344.86 290.04 376.68 278.07 406.65C265.12 439.07 241.99 467.61 219.55 493.95C179.59 540.87 134.15 584.07 96.6897 633.67C85.9197 647.93 76.0997 663.36 69.9797 680.24M284.37 172.65C287.46 182.84 284.15 195.03 289.66 203.21C297.89 215.41 317.37 222.4 331.91 228.45C338.49 231.19 361.11 239.3 355.51 246.91C342.7 264.32 328.83 289.85 321.25 313.55C311.35 344.53 302.57 375.93 289.23 405.42C274.51 437.97 250.84 466.65 227.59 493.61C187.03 540.63 141.04 583.19 103.17 632.87C92.6498 646.68 83.0398 661.68 77.3098 678.15M293.24 173.42C295.82 183.54 291.84 195.33 297.25 203.69C305.6 216.61 328.45 222.4 343.03 228.43C350.57 231.55 372.31 238.8 368.38 247.97C359.56 268.56 344.01 293.14 335.05 317.01C323.45 347.91 312.78 379.85 297.35 409.19C281.1 440.11 258.07 468.02 234.98 494.06C194.3 539.94 148.47 582.13 110.52 631.04C99.9198 644.7 90.1598 659.63 84.7798 676.17M301.93 174.13C304.48 184.25 298.81 195.75 304.43 204.11C313.13 217.06 336.93 221.77 351.77 227.78C360.85 231.46 382.74 238.5 380.5 249.34C375.97 271.28 358.53 295.92 348.61 319.04C321.36 382.54 288.26 443.5 241.89 495.15C201.18 540.5 153.51 582.29 116.94 630.76C106.65 644.39 98.3797 658.06 92.4497 674.42M310.39 174.74C312.42 184.84 305.93 196.28 311.46 204.47C320.17 217.36 345.04 221.42 360.05 227.28C369.93 231.14 392.85 238.11 391.88 250.8C390.06 274.74 371.93 299.38 361.25 321.72C331.25 384.44 295.52 445.16 248.42 496.71C207.55 541.45 159.72 582.5 123.42 630.71C113.5 643.89 105.65 656.95 100.33 672.91M318.55 175.24C320.06 185.29 312.85 196.84 318.33 204.72C331.81 224.08 401.49 221.77 402.57 252.13C403.46 277.37 384.56 302.8 373.09 324.75C340.61 386.9 302.57 447.06 254.78 498.55C213.87 542.63 165.98 582.93 130.12 630.81C120.95 643.06 111.88 656.09 108.55 671.63M326.38 175.62C327.46 185.6 319.54 197.02 324.92 204.79C333.3 216.91 357.91 220.79 372.93 225.98C386.2 230.57 410.37 237.27 412.57 253.18C416.14 279.05 396.63 305.8 384.22 327.9C349.53 389.67 309.52 449.12 261.09 500.58C220.25 543.99 172.33 583.53 137.11 631.12C128.38 642.92 119.66 655.57 117.15 670.7M333.82 175.85C334.56 185.74 326.59 196.94 332.13 204.84C340.75 217.14 365.12 220.87 380.1 226.14C394.4 231.18 417.37 237.73 421.91 253.71C429.33 279.84 407.67 309.15 394.73 330.87C358.12 392.29 316.52 450.76 267.51 502.64C226.78 545.76 180.54 583.92 144.48 631.6C135.94 642.9 127.79 655.74 126.18 670.16M340.81 175.9C341.18 185.71 333.27 196.91 339.19 204.86C348.38 217.19 372.35 220.78 387.25 226.34C401.55 231.67 423.75 237.98 430.39 253.67C441.68 280.38 418.18 311.68 404.65 333.36C366.51 394.49 323.64 452.54 274.13 504.54C233.61 547.11 187.51 584.57 152.3 632.22C144.16 643.24 136.49 655.96 135.72 670.03M347.08 175.75C346.88 185.47 339.61 196.89 346.12 204.86C356.18 217.2 379.24 220.79 394.38 226.58C408.81 232.09 430.59 238.42 437.69 254.04C450.14 281.44 428.24 312.92 414.06 335.1C375.18 395.89 331 453.97 281.1 506.15C240.92 548.17 194.67 584.78 161.19 632.82C153.49 643.87 146.6 656.64 145.91 670.45M352.58 175.38C351.95 185.16 345.65 196.81 352.93 204.85C364.05 217.13 386.05 220.81 401.49 226.86C415.99 232.55 437.73 238.94 444.99 254.5C457.72 281.78 437.33 313.53 423.02 335.77C383.89 396.54 338.87 454.85 288.59 507.21C248.82 548.62 203.68 585.37 171.52 633.45C164.01 644.68 157.35 657.58 156.78 671.42M357.43 174.83C356.49 184.93 351.52 197.18 359.85 204.87C371.92 216.02 390.79 220.17 406.51 226.35C422.25 232.53 444.46 239.22 452.31 255.09C465.4 281.53 445.24 314.02 430.94 336.18C391.98 396.56 346.61 454.32 296.77 506.62C257.27 548.06 213.2 585.73 182.32 634.44C175.05 645.91 168.68 659 168.28 672.91M361.7 174.13C360.47 184.72 357.16 196.83 366.47 204.85C391.52 226.44 444.12 224.33 459.62 255.77C472.81 282.53 452.9 314.7 438.48 336.73C399.42 396.4 353.89 453.5 304.76 505.85C265.68 547.5 222.85 586.27 193.44 635.69C186.44 647.46 180.42 660.78 180.22 674.8M365.5 173.29C364.08 184.54 363.1 196.76 372.9 204.8C398.8 226.05 451.14 224.94 466.94 256.55C480.31 283.29 460.55 315.5 445.89 337.28C406.49 395.84 360.84 452.33 312.63 504.91C274.11 546.92 232.68 586.94 204.92 637.14C198.23 649.25 192.59 662.83 192.65 676.97M368.92 172.35C367.42 184.47 369.14 196.85 379.44 204.78C405.93 225.2 458.12 225.76 474.26 257.43C487.87 284.15 468.1 316.29 453.17 337.84C413.35 395.32 367.41 450.95 320.32 503.82C282.44 546.35 242.57 587.75 216.61 638.78C210.26 651.26 205.03 665.14 205.35 679.43M372.06 171.34C370.6 184.49 375.19 196.9 386.04 204.8C412.2 223.85 467.32 225.93 481.58 258.41C493.76 286.15 476.11 316.44 460.33 338.41C419.94 394.66 373.68 449.33 327.86 502.59C290.71 545.78 252.59 588.64 228.49 640.52C222.51 653.39 217.71 667.57 218.31 682.03M375.03 170.26C374.27 184.25 380.9 196.93 392.46 204.78C407.04 214.68 424.25 220.13 440.19 227.64C456.16 235.17 481.04 242.41 488.92 259.48C501.54 286.8 483.6 317.35 467.39 338.99C426.27 393.88 379.67 447.48 335.24 501.22C298.89 545.19 262.67 589.6 240.48 642.32C234.9 655.59 230.54 670.08 231.4 684.72M377.9 169.16C377.61 184.15 386.96 196.75 399.01 204.81C414.37 215.08 432.54 221.31 449.17 229.11C465.12 236.59 488.31 243.99 496.26 260.65C509.23 287.82 491.06 318.33 474.33 339.6C432.35 392.99 385.2 445.55 342.44 499.73C307.06 544.56 271.55 591.16 252.49 644.14C247.56 657.83 243.38 672.3 244.52 687.43M380.79 168.06C381.11 183.98 392.9 196.51 405.49 204.84C421.7 215.58 440.65 222.25 458.05 230.62C473.6 238.1 495.75 245.65 503.62 261.91C516.85 289.27 498.49 319.37 481.18 340.23C438.22 392.02 390.52 443.48 349.47 498.11C315.13 543.82 281.78 592.1 264.47 645.9C259.94 659.96 256.2 674.74 257.58 690.03M383.79 166.98C384.89 184.61 399.25 196.21 412.04 204.91C427.71 215.57 447.47 222.52 465.07 231.27C480.75 239.07 502.89 246.84 510.97 263.27C524.52 290.8 505.87 320.49 487.92 340.9C443.87 390.98 395.61 441.25 356.31 496.4C323.05 543.08 291.89 592.96 276.31 647.57C272.2 661.99 268.88 677.05 270.43 692.5M387 165.95C389 184.22 405.06 195.29 418.65 205C435.27 216.87 455.71 223.38 473.83 232.88C489.17 240.91 510.21 248.7 518.34 264.71C532.4 292.4 513.18 321.75 494.59 341.58C449.37 389.85 400.54 438.88 362.97 494.55C330.8 542.22 301.91 593.66 287.96 649.05C284.15 664.17 282.27 678.76 283.01 694.68M390.5 164.99C391.57 183.16 412.18 196.6 425.31 205.12C441.89 215.87 461.45 223.27 479.11 232.64C495.08 241.11 517.08 249.45 525.72 266.24C540.11 294.18 520.54 323.18 501.18 342.32C478.54 364.7 452.1 386.13 430.74 410.26C408.28 435.63 387.74 463.85 369.45 492.64C338.44 541.45 311.8 594.24 299.35 650.35C295.95 665.69 294.34 680.56 295.21 696.57M394.42 164.12C396.24 182.86 418.49 195.79 432 205.25C449.08 217.21 469.57 224.11 487.77 234.29C503.44 243.06 524.19 251.25 533.13 267.84C548.27 295.92 527.4 325.07 507.73 343.08C484.31 364.52 457.28 384.98 435.68 408.59C413.07 433.32 393.14 461.6 375.76 490.59C345.87 540.43 321.47 594.55 310.38 651.34C307.35 666.83 305.98 681.93 306.89 697.99M398.82 163.39C401.35 182.54 424.51 195.58 438.45 205.37C455.73 217.51 476.44 224.51 494.77 235.03C510.64 244.14 531.37 252.7 540.54 269.55C556.06 298.04 534.74 326.5 514.2 343.91C490.07 364.37 462.33 383.82 440.46 406.92C417.66 431.01 398.34 459.33 381.84 488.49C353.08 539.31 330.87 594.63 320.95 652.03C318.25 667.62 317.04 682.89 317.92 698.94M403.83 162.79C407.07 182.19 430.71 195.38 444.99 205.51C461.89 217.49 482.23 224.23 500.09 234.78C516.69 244.59 538.43 253.75 547.96 271.31C552.53 279.74 553.61 292.37 552.44 301.67C550.23 319.25 536.2 333.29 522.48 343.39C496.4 362.61 468.64 381.59 446.04 404.18C422.59 427.63 403.58 456.44 387.77 486.26C359.9 538.83 339.57 595.25 330.79 653.73C328.52 668.85 327.49 683.76 328.21 699.25M409.48 162.36C414.17 181.78 436.75 195.01 451.55 205.68C469.04 218.29 490.16 225.37 508.64 236.52C525.03 246.4 545.9 255.87 555.41 273.25C560.06 281.75 561.24 294.45 560.13 303.83C558.02 321.53 542.97 334.93 528.94 344.4C502.12 362.5 473.61 380.46 450.64 402.52C426.96 425.26 408.5 454.06 393.47 484C366.67 537.37 348.22 594.62 340.27 653.47C338.23 668.57 337.37 683.4 338.34 698.8M415.72 162.07C421.56 181.51 443 194.57 458.19 205.88C475.74 218.95 497.1 225.88 515.63 237.34C532.26 247.62 553.16 257.54 562.88 275.27C567.59 283.86 568.92 296.63 567.85 306.12C565.85 323.97 549.69 336.66 535.38 345.47C507.83 362.43 478.58 379.35 455.18 400.88C431.25 422.91 413.3 451.65 398.96 481.65C373.22 535.49 356.24 593.16 349.8 652.15C348.15 667.29 347.66 682.14 348.98 697.51M422.46 161.9C429.14 181.17 449.55 194.36 464.86 206.09C482.38 219.51 504.04 226.41 522.61 238.19C539.49 248.89 560.42 259.28 570.37 277.37C574.93 285.66 576.52 297.84 575.76 307.02C574.12 326.96 555.61 338.91 539.68 347.86C512.39 363.2 483.77 378.32 460.77 398.4C436.05 419.99 418.14 448.99 404.33 479.59C380.14 533.21 364.82 590.44 359.78 648.7C358.43 664.34 358.27 679.67 359.99 695.48M429.65 161.86C436.91 180.76 456.34 194.41 471.56 206.33C488.55 219.64 510.01 226.2 527.99 238C545.35 249.4 567.47 260.52 577.86 279.53C582.55 288.12 584.3 300.62 583.47 310.1C581.83 328.84 563.26 340.3 548.05 347.96C519.94 362.12 490.02 376.32 466.24 395.9C440.72 416.91 423.29 446.39 409.89 477.5C386.58 531.65 373.53 588.91 369.78 647.92C368.82 663.05 369.29 677.78 371.32 692.83M437.23 161.9C444.86 180.52 463.22 194.36 478.27 206.58C495.18 220.3 516.98 226.79 534.96 238.88C552.56 250.72 574.83 262.38 585.38 281.79C590.12 290.5 592.04 303.14 591.26 312.78C589.68 332.35 569.9 341.95 554.45 349.34C525.95 362.97 494.96 375.4 470.72 394.48C444.97 414.75 428.19 444.23 415.51 475.38C393.49 529.49 382.23 586.58 380.18 645.12C379.65 660.17 380.52 674.81 382.9 689.72M445.11 162.03C452.93 180.34 470.66 194.35 484.99 206.84C492.97 213.79 502.64 218.17 512.21 222.46C523.02 227.31 532.07 232.95 541.91 239.78C559.79 252.19 582.14 264.3 592.92 284.1C597.81 293.09 599.85 306.14 599.05 316.09C597.43 336.21 574.44 345.26 558.48 351.76C528.66 363.92 497.62 375.87 471.83 395.75C446.9 414.96 432.11 444.62 421.23 473.22C400.86 526.76 390.96 583.52 390.83 640.44C390.79 655.82 391.91 670.87 394.71 686.19M453.25 162.23C462.05 180.36 477.27 193.8 491.7 207.12C499.57 214.39 509.4 218.61 518.95 222.93C529.88 227.87 538.95 233.66 548.85 240.71C567 253.63 591.28 266.82 600.46 286.48C605.59 297.48 607.18 307.11 606.84 319.53C606.31 338.52 582.6 346.76 567.32 352.32C536.53 363.51 504.37 374.27 477.54 393.71C451.91 412.27 437.48 442.29 427.13 471.12C407.8 524.94 400.27 581.36 401.57 638.63C401.9 653.29 403.03 668.1 406.55 682.43M461.58 162.47C470.21 180.29 484.28 194.03 498.41 207.4C506.15 214.72 515.86 219.61 525.69 223.41C536.66 227.64 546.46 234.69 555.8 241.66C573.89 255.15 596.79 268.31 608.04 288.93C612.94 297.91 615.31 310.84 614.78 320.83C613.67 342.08 587.66 349.59 571.16 354.82C540.64 364.47 509.98 374.24 483.19 391.73C456.83 408.95 443.01 440.05 433.05 469.08C410.12 535.92 401.28 609.24 418.47 678.51M470.02 162.76C478.4 180.26 491.6 194.16 505.1 207.69C512.44 215.05 522.31 219.61 531.43 223.53C542.2 228.16 551.42 234.26 561.18 241.46C580.32 255.58 605.87 270.11 615.63 291.45C620.67 302.46 622.59 312.15 622.65 324.47C622.75 344.77 595.97 351.32 580.16 355.77C549.17 364.48 515.26 372.24 489.23 390.14C462.92 408.24 449.2 436.29 439.23 467.19C417.76 533.71 412.22 606.56 430.35 674.59M478.52 163.07C486.59 180.28 498.87 194.4 511.76 207.99C518.95 215.57 528.58 220.24 538.14 224.04C549.04 228.37 558.91 235.27 568.11 242.43C587.23 257.32 611.47 271.8 623.25 294.04C628.04 303.08 630.84 315.83 630.68 325.83C630.35 346.82 605.93 352.96 589.59 356.96C557.61 364.79 523.99 371.71 495.23 388.61C467.4 404.95 454.18 435.88 445.41 465.44C425.7 531.86 423.38 603.8 442.13 670.74M487 163.38C494.71 180.34 506.1 194.67 518.39 208.28C525.42 216.07 535.25 220.71 544.83 224.55C555.85 228.96 565.79 236.05 575.02 243.43C594.45 258.95 620.41 274.14 630.8 296.54C635.92 307.57 638.17 317.3 638.61 329.65C639.39 351.63 610.09 356.22 593.41 359.69C560.43 366.54 525.52 372.63 496.4 390.5C470.75 406.24 459.36 436.17 451.88 463.89C433.9 530.53 434.59 600.85 453.77 667.07M495.4 163.68C502.74 180.43 513.24 194.94 524.97 208.57C531.86 216.57 541.9 221.18 551.53 225.06C562.68 229.56 572.68 236.86 581.95 244.42C601.44 260.31 627.43 276.78 638.34 298.89C644.01 310.39 646.19 320.43 646.59 333.54C647.29 356.45 613.75 359.46 597.04 362.36C566.52 367.66 536.04 372.98 508.15 386.49C478.8 400.71 465.81 432.45 458.38 462.54C442.03 528.78 445.81 598.47 465.24 663.66M503.64 163.96C510.6 180.55 520.26 195.23 531.49 208.85C538.25 217.05 548.52 221.65 558.2 225.58C569.49 230.17 579.54 237.68 588.85 245.44C608.39 261.74 634.84 278.71 645.86 301.29C651.69 313.23 654.09 323.43 654.59 336.92C655.46 360.22 620.43 362.18 603.79 364.58C572.84 369.03 541.92 373.47 513.53 386.6C484.25 400.14 471.76 431.76 465.08 461.51C450.26 527.5 457.21 596.31 476.42 660.71M511.67 164.21C518.11 180.29 526.81 195.92 537.94 209.13C544.66 217.11 554.34 221.94 563.85 225.68C576.41 230.63 587.22 239.17 597.38 247.84C617.55 265.06 640.33 281.09 653.47 303.84C659.75 314.71 662.83 328.2 662.65 341.04C662.34 363.78 629.75 364.61 613.79 366.55C580.57 370.6 545.25 373.41 515.14 389.02C488.42 402.87 477.45 433.27 472.09 460.79C459.25 526.69 468.57 593.7 487.36 658.24M519.4 164.39C525.49 180.37 533.43 196.19 544.32 209.39C551.05 217.54 560.89 222.39 570.49 226.21C583.21 231.27 594.09 240.04 604.29 248.93C624.99 266.98 647.53 282.8 661.11 306.59C667.61 317.97 671.07 331.88 670.69 345.27C670.08 366.8 639.13 367.41 624.26 368.83C588.35 372.28 549.23 373.44 517.01 391.84C492.76 405.68 483.47 434.87 479.06 460.4C467.72 525.98 480.09 592.27 497.9 656.36M526.77 164.51C532.57 180.45 539.97 196.43 550.68 209.65C557.43 217.97 567.87 222.68 577.13 226.75C589.68 232.27 600.67 240.61 611.23 250.05C632.5 269.06 655.97 284.88 668.87 309.6C675.15 321.64 679.5 335.15 678.78 349.63C677.67 372.09 643.11 370.92 628.09 371.96C595.28 374.25 560.34 375.39 529.92 389.2C501.87 401.92 490.81 432.49 486.43 460.46C476.21 525.68 491.66 591.4 508.09 655.25M533.73 164.55C539.43 180.52 546.51 196.58 557.1 209.94C564.53 219.31 576.24 224.1 586.83 228.57C599.41 233.88 609.74 243.45 619.74 252.59C641.24 272.24 663.42 287.26 676.71 312.84C683.08 325.09 687.53 338.7 686.92 353.33C685.96 376.26 650.95 374.15 635.49 374.94C602.41 376.63 567.15 376.84 536.4 390.51C508.58 402.88 497.77 433.36 493.92 460.95C484.85 525.91 503.19 591.12 517.86 654.93M540.59 164.58C546.57 180.42 553.06 196.74 563.48 210.22C570.87 219.78 582.82 224.6 593.5 229.16C606.21 234.6 616.52 244.62 626.63 253.65C648.94 273.54 670.7 289.59 684.6 316.27C691.17 328.89 696.12 342.75 695.08 357.88C693.44 381.54 655 377.77 639.31 378.25C605.98 379.28 569.58 378.7 539.08 394.23C514.24 406.89 504.66 436.48 501.55 461.89C493.6 526.71 511 591.68 526.9 655M547.6 164.65C553.78 180.35 559.53 196.95 569.83 210.49C577.01 219.92 588.62 224.76 599.08 229.33C611.55 234.78 621.68 244.24 631.84 252.95C656.03 273.69 676.46 291.04 692.5 319.73C699.55 332.34 704.15 347.03 703.27 361.72C701.83 385.73 662.69 381.34 647.02 381.57C613.66 382.07 576.9 380.62 546.31 396.28C521.78 408.83 512.24 438.19 509.49 463.38C502.45 527.82 518.61 592.45 535.09 655.23M554.74 164.77C561.1 180.34 566.16 197.16 576.23 210.78C583.35 220.4 595.69 225.09 605.73 229.92C617.6 235.64 627.88 244.64 638.38 253.14C663.94 273.84 683.86 293.76 700.33 323.04C707.5 335.79 712.43 350.72 711.47 365.62C709.94 389.49 670.37 384.86 654.8 384.99C621.51 385.28 584.79 383.49 554.19 398.95C529.78 411.29 521.21 440.66 518.56 465.52C511.76 529.41 525.85 593.41 542.48 655.58M562 164.92C568.54 180.36 573 197.29 582.68 211.09C589.39 220.66 601.46 225.4 611.31 230.01C622.82 235.39 633.08 243.88 643.36 251.85C670.27 272.71 691.36 295.72 708.13 326.21C715.03 338.77 719.04 353.22 719.64 367.42C720.67 391.91 681.41 388.29 666.28 388.5C632.41 388.96 595.51 386.64 564.09 401.6C538.85 413.61 530.66 442.67 527.8 467.98C520.68 531.17 532.79 594.52 549.15 656.06M569.38 165.11C576.03 180.42 579.7 197.54 589.08 211.4C595.69 221.16 608.03 225.92 617.93 230.61C629.06 235.88 639.41 243.95 649.61 251.37C677.7 271.79 698.96 298.88 715.91 329.44C722.97 342.16 727.17 356.91 727.87 371.42C729.04 395.91 689.29 392.08 674.31 392.27C640.63 392.69 604.01 390.43 572.71 405.07C547.64 416.8 540.01 445.82 536.97 470.75C529.37 533.13 539.16 595.76 555.08 656.68M576.88 165.33C583.57 180.51 586.28 197.79 595.44 211.69C601.81 221.35 613.77 226.12 623.54 230.79C635.1 236.31 646.23 244.18 657.06 251.44C685.49 270.49 708.49 303.12 723.75 332.69C730.41 345.6 735.81 359.99 736.5 375.01C737.64 399.74 697.71 396 682.55 396.18C649.13 396.59 612.69 394.44 581.67 408.81C556.86 420.3 549.57 449.22 546.25 473.76C537.92 535.23 545.19 597.07 560.4 657.37M584.48 165.58C591.23 180.64 593.03 198.05 601.87 212C608.12 221.86 620.12 226.72 630.18 231.4C641.53 236.69 652.46 243.49 663.09 250.29C691.95 268.78 716.06 305.86 731.57 336.02C738.39 349.29 745.35 362.79 745.72 377.91C746.35 403.37 707.76 399.99 690.95 400.25C657.77 400.76 621.72 398.68 590.93 412.84C566.38 424.13 559.5 452.83 555.58 477.04C545.85 537.22 550.95 599.03 565.11 658.17M592.17 165.87C598.95 180.83 599.79 198.33 608.27 212.32C614.31 222.26 626.52 227.43 636.69 231.83C647.76 236.62 658.63 242.55 669 249.01C699.2 267.83 721.98 308.93 739.48 339.22C747.45 353.02 754.4 365.67 755.2 380.49C756.53 405.06 717.55 404.15 699.46 404.49C666.59 405.1 630.93 403.16 600.43 417.15C576.17 428.28 569.32 456.78 564.94 480.57C554.08 539.61 556.14 600.45 569.23 659.06M599.96 166.17C605.81 181.52 608.01 198.91 614.76 212.65C619.47 222.24 632.12 227.76 642.16 231.66C653.76 236.17 665.67 241.45 676.15 248.44C707.16 269.16 726.83 311.38 747.74 342.07C757.13 355.86 764.38 367.69 764.75 383.1C765.36 408.11 727.65 408.42 708.17 408.87C675.65 409.62 640.42 407.86 610.25 421.72C586.31 432.72 579.35 460.96 574.41 484.34C562.2 542.17 561.04 601.95 572.89 660.05M607.83 166.51C613.51 181.81 614.89 199.25 621.18 212.97C625.64 222.69 638.33 228.15 648.55 231.74C659.94 235.74 672.28 240.07 682.06 247.13C713.88 270.1 731.22 313.71 756.34 344.48C767.62 358.3 773.83 368.48 774.11 385.99C774.54 412.76 736.13 412.8 717 413.36C684.85 414.31 649.85 412.34 620.31 426.5C596.63 437.85 589.49 464.64 583.92 488.3C570.48 545.39 565.62 603.05 576.07 661.09M615.77 166.87C621.27 182.14 621.79 199.52 627.6 213.3C631.75 223.14 644.55 228.46 654.87 231.69C666.12 235.21 678.58 238.69 688.02 246.01C720.61 271.3 736.4 316.54 765.31 346.43C778.78 360.36 783.73 370.14 783.1 389.41C782.22 416.61 746.13 417.44 725.95 418.01C694.48 418.9 659.68 417.47 630.61 431.55C607.3 442.84 599.88 469.41 593.46 492.5C578.12 547.68 569.93 605.01 578.8 662.24M623.78 167.24C629.03 182.53 628.44 200.03 633.95 213.59C638.24 224.15 652.8 229.29 663.97 232.21C673.6 234.73 684.71 237.4 692.75 244.08C726.63 272.22 741.93 319.06 774.67 347.91C790.31 361.69 793.21 372.51 791.67 393.44C789.63 421.2 756.23 422.1 734.98 422.86C703.86 423.97 669.56 422.87 641.17 436.8C618.23 448.06 610.33 474.21 603.09 496.87C585.87 550.67 573.93 606.58 581.18 663.45M631.86 167.63C636.91 182.95 635.34 200.31 640.38 213.91C644.3 224.5 659.06 229.3 670.17 231.77C679.85 233.92 691.22 236.11 698.91 243.44C731.94 274.94 746.47 322.03 784.38 348.97C802.36 361.74 802.07 377.85 799.79 398.13C796.62 426.3 765.98 426.55 744.23 427.7C713.45 429.33 679.97 428.25 651.97 442.23C629.41 453.5 620.92 479.18 612.77 501.37C593.54 553.73 577.7 608.1 583.25 664.67M639.98 168.04C644.82 183.43 642.22 200.63 646.79 214.23C650.34 224.78 665.33 229.19 676.32 231.24C686.31 233.1 697.89 235.21 705.23 243.32C736.34 277.69 753.22 323.65 794.32 349.73C813.65 362 809.96 383.97 807.46 403.42C803.92 430.89 775.33 431.21 753.63 432.61C723.46 434.55 690.35 433.81 662.97 447.87C640.73 459.3 631.6 484.36 622.49 506.07C601.13 556.95 581.24 609.65 585.02 665.99M648.15 168.46C652.86 183.95 649.4 200.79 653.3 214.59C656.23 224.96 671.03 228.81 681.51 230.53C691.47 232.16 703.12 233.97 710.26 242.16C728.35 262.91 743.29 288.85 759.86 311.82C772.63 329.52 786.39 339.02 804.41 350.33C823.77 362.48 817.44 390.55 814.8 409.18C811.04 435.76 784.54 436.05 763.09 437.67C733.48 439.91 700.93 439.59 674.19 453.66C652.29 465.18 642.35 489.5 632.27 510.88C613.97 549.69 598.39 589.91 590.01 631.23C587.54 643.42 586.51 654.65 586.58 667.33M656.36 168.89C663.28 184.01 654.71 200.22 659.71 214.92C663.44 225.86 677.18 228.78 687.61 229.94C698.93 231.2 709.6 233.52 716.96 243.06C734.72 266.1 750.02 291.39 767.5 314.91C780.82 332.83 796.52 339.27 814.46 350.99C834.51 364.09 825.02 400.38 821.58 418.56C817.19 441.77 788.1 441.57 769.63 443.12C741.15 445.51 709.66 446 684.27 460.09C663.44 471.65 652.92 495.53 642.06 515.82C622.58 552.22 605.78 589.51 594.07 629.06C590.28 641.87 587.41 655.23 587.94 668.71M664.59 169.33C671.55 184.62 661.53 200.46 666.12 215.22C669.5 226.08 683.63 228.49 693.72 229.35C707.72 230.55 715.51 234.55 723.95 244.73C741.84 266.31 756.4 294.65 775.02 317.72C789.15 335.23 808.3 338.84 824.27 351.94C841.55 366.11 831.42 406.02 829.04 424.22C826.25 445.49 795.33 446.79 779.34 448.37C751.48 451.11 720.55 452.07 695.85 466.17C675.31 477.9 663.81 501.15 651.91 520.84C630.58 556.14 611.13 592.28 597.08 631.12C592.57 643.58 589.01 656.7 589.14 670.1M672.86 169.77C680.77 183.79 668.85 201.97 672.44 215.48C675.13 225.6 689.43 228.08 698.98 228.7C715.65 229.77 723.57 236.98 733.08 249.61C749.87 271.91 764.1 299.58 783.24 321.28C797.4 337.33 821.62 339.05 833.65 353.52C847.71 370.43 838.4 407.91 837.09 429.18C835.78 450.26 804.21 451.96 789.19 453.7C761.92 456.87 731.7 458.28 707.64 472.37C687.22 484.33 674.88 506.81 661.85 525.95C638.53 560.18 616.45 595.11 600.04 633.22C594.84 645.31 590.58 658.18 590.3 671.5M681.13 170.22C689.12 184.31 675.67 202.38 678.83 215.76C681.18 225.72 695.84 227.51 705.13 228.27C722.91 229.73 730.75 238.91 740.6 252.68C756.79 275.32 770.89 303.02 790.61 323.54C804.74 338.25 833.31 339.32 842.24 356.07C853.2 376.62 845.58 409.78 845.5 433.6C845.43 454.77 814.12 457.04 799.08 459.08C772.42 462.69 742.95 464.59 719.53 478.67C699.19 490.9 685.97 512.57 671.77 531.13C646.4 564.29 621.72 597.95 602.89 635.35C597 647.06 592.03 659.67 591.36 672.95M689.42 170.66C697.49 184.83 682.49 202.8 685.22 216C687.25 225.78 702.36 227.18 711.35 227.95C729.72 229.53 738.51 242.09 748.25 256.06C763.73 278.29 777.69 307.03 798.14 325.58C812.61 338.7 844 339.59 849.92 359.83C856.91 383.75 852.26 412.31 853.87 437.03C855.21 457.71 827.12 461.6 811.98 464.01C786.15 468.12 757.99 470.48 734.84 483.16C712.72 495.28 697.89 517.49 681.78 536.33C654.02 568.79 626.25 601.44 605.05 638.74C598.83 649.68 593.52 661.62 592.49 674.36M697.69 171.11C705.99 186.99 687.94 201.49 691.68 216.28C694.36 226.9 711.21 226.93 720.28 228.25C738.48 230.89 748.27 248.3 757.96 262.64C772.42 284.03 786.21 311.92 806.74 328.21C826.04 343.52 850.34 340.38 856.69 364.76C862.43 386.82 860.85 416.57 862.3 441.4C863.51 462.23 837.17 466.62 821.92 469.43C796.77 474.07 769.4 476.85 746.9 489.59C724.86 502.08 709.06 523.47 691.78 541.59C661.85 572.99 631.48 604.24 607.8 640.83C600.97 651.38 595 663.07 593.63 675.79M705.96 171.55C714.38 187.69 694.72 201.79 698.05 216.51C700.39 226.86 717.75 226.95 726.71 228.5C745.45 231.75 756.15 252.16 765.72 266.39C779.79 287.3 793.69 314.85 814.6 329.79C836.68 345.57 858.17 341.47 862.9 370.41C866.65 393.35 868.33 420.09 870.62 444.81C872.5 465.09 849.84 470.93 834.51 474.27C807.5 480.14 776.65 483 754.08 499.2C735.24 512.72 718.84 530.66 701.79 546.84C669.51 577.48 634.4 607.83 609.79 644.06C602.38 654.97 598.18 664.04 594.88 677.21M714.21 171.98C722.76 188.37 701.49 202.11 704.42 216.73C706.44 226.81 724.61 227 733.26 229.06C752.35 233.61 763.41 255.2 773.47 270.1C787.1 290.3 801.21 318.06 822.56 331.21C847.58 346.63 864.53 344.51 868.77 376.45C871.86 399.71 876.88 425.16 879.03 449.1C880.83 469.02 859.88 475.76 844.45 479.62C818.19 486.18 788.59 489.74 766.42 505.68C747.32 519.41 729.86 536.59 711.83 552.06C677.31 581.69 641.14 610.15 612.57 646.05C605.02 655.54 598.15 666.32 596.25 678.58M722.43 172.4C731.09 188.95 708.84 202.05 710.68 216.93C711.8 226.01 727.72 226.74 735.13 228.43C756.07 233.23 768 254.44 779.16 270.79C792.96 291 808.06 318.95 829.55 331.75C856.63 347.88 870.06 347.74 874.5 382.62C877.48 406.01 885.14 429.92 887.42 453.37C889.33 473 869.99 480.65 854.41 484.96C828.93 492.01 800.4 496.64 778.8 512.15C759.39 526.08 740.88 542.54 721.89 557.26C685.16 585.73 646.48 612.8 615.47 648.01C607.44 657.13 599.97 667.66 597.84 679.94M730.62 172.81C739.35 188.91 715.88 203.14 717.05 217.17C717.79 226.04 734.57 226.98 741.74 229.23C763.04 235.89 774.77 256.83 786.8 274.28C800.73 294.5 815.63 320.76 837.53 333.06C866.09 349.1 875.23 353.68 880.3 388.71C883.63 411.75 892.77 433.96 895.68 456.7C898.33 477.39 878.43 485.96 862.08 490.98C839.12 498.03 813.97 503.12 793.94 516.63C772.92 530.81 752.76 547.66 731.97 562.4C693.01 590.02 650.38 615.66 617.57 650.94C609.61 659.5 601.9 669.41 599.68 681.27M738.76 173.2C747.6 189.51 722.61 203.41 723.41 217.42C723.9 226.02 741.52 227.7 748.43 230.24C769.81 238.12 781.85 259.66 794.31 277.51C808.62 298.01 823.11 321.9 845.47 334.31C874.42 350.38 880.26 361.15 886.23 394.5C890.25 416.93 900.99 438.4 904.01 460.88C906.75 481.25 888.58 490.72 872.12 496.31C849.39 504.02 825.86 510.4 806.24 522.99C785.06 536.58 763.75 553.43 742.01 567.45C700.56 594.18 656.54 618.08 620.68 652.74C612.22 660.92 604.13 670.63 601.77 682.53M746.85 173.58C755.86 190.13 728.8 204.11 729.86 217.66C730.54 226.42 750.66 229.43 758.26 232.86C777.15 241.38 788.51 261.77 799.85 277.85C814.72 298.93 829.46 321.74 852.11 335.12C881.05 352.22 885.12 367.72 892.43 399.9C897.31 421.37 908.66 442.09 912.17 464.1C915.56 485.38 897.31 495.86 880.16 502.37C860.44 509.86 838.91 515.51 821.13 527.43C798.29 542.75 775.6 558.55 752.05 572.4C709.7 597.31 665.3 619.57 627.27 651.58C617.17 660.08 607.05 670.34 604.24 683.74M754.88 173.94C764.27 190.77 735.35 204.27 736.18 217.8C736.72 226.59 757.48 230.61 765.17 234.44C783.96 243.8 795.47 264.31 807.16 280.6C822.45 301.9 837.19 322.37 859.7 336.73C887.33 354.35 890.38 375.05 898.94 404.85C904.95 425.77 916.82 446.11 920.46 468.21C923.91 489.13 907.31 500.47 890.25 507.65C871.24 515.65 850.5 521.91 833.3 533.62C810.32 549.28 786.54 564.19 762.09 577.25C717.72 600.94 671.17 621.98 630.98 653.32C620.56 661.45 609.9 671.42 607.06 684.91M762.83 174.28C772.32 191.24 741.74 204.98 742.49 217.97C742.98 226.48 764.15 231.74 772.11 236.14C790.63 246.38 802.27 266.59 814.31 282.98C830.04 304.41 845.06 322.96 867.07 338.55C892.8 356.77 895.97 381.64 905.77 409.26C913.05 429.76 924.92 449.93 928.7 472.22C932.19 492.79 917.25 505.03 900.27 512.8C881.68 521.3 862.25 528.7 845.36 539.65C822.03 554.77 797.43 569.57 772.1 581.93C725.73 604.55 677.24 624.23 634.96 654.93C624.27 662.69 613.11 672.4 610.33 685.98M770.72 174.59C780.25 191.64 748.51 205.36 748.71 218.13C748.84 226.68 770.15 232.63 778.01 237.31C797.61 248.98 809.62 269.62 823.05 287.24C839.1 308.31 854.56 324.58 875.29 341.42C898.11 359.96 902.26 388 912.94 413.19C921.5 433.38 933.03 453.76 936.93 476.18C940.45 496.41 926.99 509.43 910.25 517.86C892.46 526.82 873.83 534.65 857.35 545.52C833.6 561.18 808.31 574.66 782.11 586.43C733.71 608.17 683.51 626.24 639.26 656.42C628.39 663.84 616.74 673.3 614.1 686.97M778.51 174.88C788.19 192.11 754.97 205.66 755.04 218.35C755.08 227.21 776.85 234 784.99 239.09C804.19 251.1 816.24 271.21 829.83 288.7C846.1 309.63 862.68 325.78 882.16 343.81C902.89 363 908.63 392.66 920.36 416.69C929.95 436.33 940.66 457.18 944.94 479.18C948.59 497.95 937.49 513 921.88 521.84C880.08 545.53 837.14 572.12 792.05 590.78C741.76 611.59 688.71 628.21 642.56 658.71C632.03 665.67 620.63 674.69 618.39 687.93M786.21 175.13C795.43 192.76 762.28 205.3 761.38 218.59C760.77 227.63 784.78 235.86 791.96 240.85C809.99 253.37 822.58 271.97 836.46 289.78C852.78 310.72 870.62 327.28 888.82 346.4C907.78 366.31 915.38 396.21 927.97 419.82C944.71 451.2 972.21 500.56 931.56 526.61C890.31 553.05 847.62 577.31 801.95 594.88C750.33 614.74 694.26 629.81 647.48 659.91C637.05 666.62 625.22 675.45 623.25 688.75M793.79 175.36C803.2 193.24 768.62 205.34 767.83 218.88C767.28 228.23 790.36 236.71 797.83 241.82C817.02 254.93 830.18 274.18 844.67 292.93C860.54 313.46 879.74 330.32 896.14 350.19C913.19 370.85 922.91 399.42 935.63 422.73C952.85 454.28 980.13 503.77 941.1 531.22C901.21 559.28 857.73 582.43 811.78 598.75C758.69 617.6 701.02 631.25 652.78 660.97C642.33 667.41 630.19 676.1 628.72 689.47M801.27 175.54C810.89 193.65 774.9 205.48 774.17 219.14C773.64 228.96 796.82 237.93 804.72 243.39C823.78 256.56 836.86 275.24 851.25 293.95C867.09 314.54 886.97 332.4 902.43 353.1C918.53 374.65 930.4 402.13 943.21 425.65C960.51 457.41 988.4 507.46 950.5 535.65C934.22 547.76 916.52 558.85 899.68 569.86C875.94 585.38 848.82 593.6 821.55 602.34C766.22 620.09 709.24 632.48 658.52 661.85C647.93 667.98 635.72 676.64 634.88 690.07M808.62 175.7C818.33 194.49 781.2 205.03 780.52 219.41C780.03 229.82 803.29 239.1 811.56 244.8C830.64 257.96 843.48 276.21 857.82 294.95C873.73 315.75 893.79 334.53 908.66 356.01C924.24 378.51 937.72 404.56 950.76 428.49C968.17 460.44 996.17 510.57 959.77 539.89C944.29 552.36 927.18 563.17 910.63 574.45C887.03 590.52 858.31 597.62 831.27 605.64C775.34 622.23 715.29 633.38 664.73 662.56C654.42 668.51 641.83 677.09 641.76 690.55M815.84 175.81C825.81 194.92 787.3 204.83 786.73 219.64C786.28 231.53 811.81 241.83 821.42 248.14C837.44 258.66 848.16 274.7 859.46 289.59C876.22 311.66 896.81 332.31 912.62 355.18C929.26 379.27 944.32 405.72 958.25 431.28C975.78 463.46 1003.81 513.61 968.84 543.94C954.1 556.73 937.58 567.69 921.24 578.71C897.42 594.78 868.22 601.13 840.9 608.66C784.06 624.31 722.81 634.04 671.43 663.1C661.27 668.85 648.54 677.5 649.41 690.93M822.92 175.88C833.05 195.05 793.85 205.02 793.31 219.96C792.87 232.2 817.75 242.63 827.71 249.09C843.76 259.49 854.46 275.77 865.74 290.6C901.16 337.21 937.45 382.21 965.67 433.97C983.34 466.38 1011.01 515.53 977.7 547.74C963.89 561.09 947.39 571.98 931.47 582.56C907.54 598.47 877.93 604.24 850.43 611.3C792.91 626.05 730.6 634.36 678.64 663.41C668.66 668.99 655.89 677.81 657.87 691.14M829.84 175.91C839.83 194.93 800.19 205.24 799.78 220.25C799.43 232.78 824.13 243.04 833.63 249.77C848.87 260.58 860.07 276.3 871.71 291.67C907.26 338.59 944.53 384.38 973.03 436.59C990.8 469.14 1018.42 518.3 986.32 551.31C952.48 586.11 905.69 602.3 859.83 613.61C802.2 627.82 738.65 634.37 686.39 663.53C676.61 668.99 663.95 678.1 667.16 691.23M836.1 175.81C844.44 195.31 806.05 204.39 806.28 220.51C806.45 231.92 825.55 241.02 834.59 247.16C852.52 259.34 865.54 277.2 879.12 294.94C914.71 341.46 951.93 387.18 980.19 438.82C998.53 472.34 1026.02 521.71 993.51 555.82C960.89 590.04 914.14 605.39 869.15 615.51C831.63 623.95 793.85 631.64 756.61 641.29C736.2 646.58 714.45 652.29 696.29 662.72C686.49 668.36 674.27 678.21 678.54 691.27M841.36 175.44C848.7 194.38 812.06 204.63 812.6 220.7C812.99 232.24 831.28 241.3 840.4 247.69C858 260.02 871.07 278.44 884.67 296.1C920.7 342.87 958.4 389.08 987.2 441C1005.82 474.56 1033.25 524.14 1001.69 558.84C969.98 593.7 922.74 607.29 878.36 617.01C821.97 629.36 758.87 632.8 708.62 663.13C699.12 668.86 688.14 679.08 693.24 691.48M845.7 174.83C851.85 193.98 817.74 204.29 818.75 220.78C819.53 233.44 839.18 242.61 848.89 250.12C865.62 263.05 878.24 282.01 891.72 299.41C927.64 345.76 965.19 391.67 994.02 443.11C1012.53 476.14 1040.53 525.29 1010.44 560.24C979.69 595.96 930.94 608.96 886.59 618.23C851.56 625.55 816.36 632.37 781.73 641.37C760.94 646.77 737.26 653.97 720.27 665.83C713.11 670.83 705.74 682.77 710.76 691.83M849.21 174.04C855.56 193.06 822.86 203.43 824.96 220.82C826.55 234 844.92 242.56 854.54 250.62C870.74 264.19 883.46 283.24 896.97 300.56C933.36 347.21 971.38 393.39 1000.7 445.11C1019.08 477.53 1047.73 526.32 1019.07 561.39C989.23 597.9 939.31 610.56 895.55 619.35C871.2 624.24 701.87 645.91 730.79 692.2M852 173.1C857.99 192.05 828.02 203.32 831.2 220.8C833.74 234.74 852.25 243.68 862.46 253.17C878.13 267.75 890.4 286.77 903.8 303.82C940.1 350.02 977.87 395.81 1007.22 447.02C1026.05 479.87 1055.53 529.6 1025.42 564.9C995.71 599.72 947.56 611.6 905.26 620.44C881.95 625.31 721.11 647.31 752.88 692.68M854.21 172.07C859.84 190.73 833.97 203.63 837.74 220.69C840.76 234.38 858.18 243.6 867.86 253.72C882.69 269.2 895.34 287.83 908.87 304.94C945.62 351.4 983.76 397.4 1013.6 448.85C1032.57 481.55 1062.96 531.66 1032.65 567.01C1003.57 600.92 957.01 612.54 915.68 621.48C892.97 626.39 741.59 648.57 776.67 693.23M855.96 170.94C861.51 189.26 839.44 203.24 844.58 220.35C848.28 232.67 861.66 241.47 869.93 250.61C883.35 265.43 896 283.38 908.85 299.67C947.36 348.5 988.19 396.58 1019.86 450.56C1038.69 482.66 1069.55 532.13 1041.03 567.72C1013.65 601.88 966.9 613.37 926.7 622.48C904.9 627.42 762.88 650.21 801.73 693.84M857.41 169.77C863.13 187.35 845.95 203.29 851.87 219.87C856.2 232 867.84 241.23 875.6 250.98C888.2 266.79 900.96 284.35 913.85 300.65C952.71 349.77 994.01 397.97 1026.01 452.15C1045.47 485.09 1077.72 536.52 1045.91 572.19C1018.79 602.61 976.31 614.48 938.21 623.39C916.13 628.56 786.12 651.53 827.73 694.46M858.69 168.56C865.03 185.19 854.1 203.8 859.52 219.26C863.82 231.53 875.18 242.37 882.87 253.59C894.53 270.62 907.67 287.46 920.59 303.69C959.21 352.21 1000.02 400.05 1032.05 453.6C1051.09 485.44 1083.5 535.3 1055.19 571.2C1030.23 602.85 987.31 614.82 950.05 624.24C926.65 630.15 811.47 652.27 854.17 695.11M859.95 167.35C865.7 183.91 861.84 204.03 867.34 218.51C871.26 228.83 879.79 239.75 886.13 250.19C898.07 269.86 912.86 288.5 927.4 306.64C965.89 354.64 1006.19 402.04 1038.01 454.94C1057.48 487.32 1090.67 537.78 1061 574.11C1037.05 603.43 997.21 615.4 962.19 625.03C937.4 631.85 837.38 654.25 880.73 695.79M861.32 166.16C867.8 182.87 869.09 202.12 875.47 217.67C879.84 228.32 886.5 239.51 892.06 250.39C902.72 271.25 918.06 289.23 932.64 307.38C971.34 355.54 1011.78 403.09 1043.87 456.09C1063.35 488.27 1096.88 539.17 1067.7 575.42C1045.3 603.26 1007.21 615.61 974.43 625.71C949.26 633.46 862.94 657.39 906.97 696.43M862.94 165.03C870.16 182.18 876.43 199.9 883.83 216.78C890.7 232.43 894.43 250.22 903.48 264.92C913.45 281.12 927.69 295.41 939.66 310.09C978.33 357.5 1017.81 404.78 1049.66 457.11C1068.96 488.83 1102.58 538.64 1075.62 575.22C1055.25 602.86 1017.99 615.79 986.66 626.32C957.37 636.16 892.61 658.78 932.5 697.04M864.93 163.97C873.57 181.52 884.31 198.49 892.3 215.82C899.41 231.25 900.95 250.01 909.64 265.1C919.07 281.48 933.33 295.98 945.2 310.61C983.89 358.3 1023.4 405.56 1055.38 457.95C1074.94 490 1109.35 541 1081.05 577.69C1061.43 603.12 1027.82 615.77 998.85 626.83C969.28 638.11 918.37 662.22 956.91 697.63M867.43 163.03C877.58 181.07 892.68 197.18 900.88 214.85C907.85 229.88 907.45 249.79 915.86 265.24C924.85 281.75 939.18 296.43 950.94 311.01C989.55 358.89 1029.02 406.19 1061.04 458.63C1080.62 490.69 1115.34 541.6 1087.39 578.51C1069.11 602.66 1037.87 615.7 1010.78 627.25C976.38 641.92 949.56 663.64 979.78 698.15M870.58 162.22C882.27 180.7 902.09 196.02 909.51 213.88C915 227.09 913.58 247.54 920.12 262.3C927.02 277.87 941.55 291.99 952.05 305.16C991.96 355.2 1033.35 404.43 1066.66 459.09C1086 490.84 1120.77 540.59 1094.96 577.66C1077.98 602.06 1048.18 614.82 1022.33 627.52C988.46 644.16 974.42 667.02 1000.73 698.56M874.49 161.58C885.51 181.39 912.09 192.48 918.16 212.96C922.46 227.47 920.19 247.41 926.54 262.32C933.16 277.85 947.95 292.13 958.31 305.22C997.97 355.36 1039.06 404.7 1072.23 459.37C1091.73 491.5 1127.25 542.5 1100 579.7C1083.72 601.93 1056.9 614.92 1033.49 627.7C1001.11 645.37 997.54 670.52 1019.34 698.91M879.29 161.15C891.08 180.98 920.87 190.92 926.23 211.99C929.94 226.58 926.6 247.18 932.93 262.22C939.45 277.71 954.58 292.09 964.85 305.2C1004.2 355.44 1044.87 404.81 1077.77 459.43C1097.18 491.66 1132.54 542.62 1106.08 579.94C1090.99 601.22 1065.5 614.42 1044 627.74C1014.4 646.08 1017.62 673.16 1035.19 699.13M885.13 160.94C898.52 177.91 928.51 190.74 933.71 210.96C937.73 226.58 933.08 246.22 939.92 261.85C946.82 277.63 961.26 291.76 971.75 305.3C1010.59 355.41 1050.84 404.82 1083.3 459.3C1102.96 492.31 1137.95 543.77 1110.89 581.64C1096.63 601.59 1072.95 613.68 1053.74 627.68C1027.6 646.75 1034.06 674.61 1047.9 699.26M891.91 160.94C905.63 176.93 935.96 189.82 940.65 209.89C944.39 225.89 939.31 245.57 946.48 261.58C953.62 277.52 968.37 291.68 978.93 305.47C1016.96 355.12 1055.72 404.84 1088.08 458.54C1108.03 491.65 1142.87 543.22 1116.69 581.5C1103.29 601.09 1080.42 612.23 1062.64 627.47C1039.19 647.57 1045.74 675.02 1057.9 699.28M899.06 160.98C912.95 176.11 942.54 188.84 947.13 208.81C950.43 223.17 949.4 239.61 952.78 254.24C957.37 274.09 978.71 295.25 990.83 311.63C1025.99 359.12 1062.33 406.49 1092.63 457.46C1112.51 490.91 1147.69 542.32 1122.39 581.15C1109.73 600.59 1087.14 611.3 1070.6 627.1C1048.95 647.78 1055.83 675.55 1067.79 699.27M906.5 161.06C920.35 175.4 949.13 188.31 953.07 207.74C956.08 222.61 955.71 239.68 960.14 254.66C966 274.43 986.14 294.93 998.4 311.85C1032.48 358.89 1067.7 405.92 1097.15 456.28C1116.94 490.13 1151.82 541.08 1127.82 580.48C1115.97 599.94 1093.58 610.41 1078.29 626.88C1058.2 648.52 1065.85 675.77 1077.63 699.29M914.18 161.18C927.77 174.88 954.54 187.57 958.44 206.67C961.43 221.31 961.13 238.47 966.26 252.07C973.75 271.91 991.53 291.49 1004.72 310.09C1038.2 357.31 1072.69 404.54 1101.63 454.94C1121.31 489.21 1155.41 539.26 1132.83 579.23C1121.85 598.66 1100.51 609.87 1086.32 626.71C1067.58 648.94 1075.66 675.99 1087.48 699.26M922.09 161.32C935.3 174.58 959.39 187.06 963.24 205.72C966.33 220.7 966.19 238.41 973.41 252.5C983.68 272.56 999.56 291.44 1012.66 310.35C1045 357.03 1078.15 403.81 1106.09 453.49C1125.34 487.73 1158.13 535.93 1138.43 576.11C1128.53 596.3 1107.66 608.73 1094.35 626.47C1077.11 649.45 1085.41 676.1 1097.36 699.29M930.18 161.5C942.61 175.43 963.52 186.4 967.62 204.81C971.06 220.25 971.89 238.64 980.56 252.94C992.47 272.57 1007.64 291.29 1020.67 310.59C1051.81 356.7 1083.53 402.98 1110.45 451.89C1129.51 486.52 1161.12 533.92 1143.06 574.46C1134.07 594.64 1114.34 607.93 1102.23 626.09C1086.47 649.73 1095.17 676.22 1107.23 699.29M938.46 161.69C950.74 174.24 967.64 187.22 971.68 203.97C976.14 222.46 978.56 242.5 991.51 258.59C1004.49 274.71 1016.04 291.47 1027.44 308.83C1057.76 354.97 1088.52 401.33 1114.72 450.11C1133.57 485.2 1163.98 531.76 1147.51 572.58C1139.35 592.81 1120.91 606.77 1110.02 625.59C1095.85 650.1 1104.88 676.26 1117.09 699.29M946.9 161.88C958.42 173.94 971.09 187.43 975.27 203.17C980.52 222.95 984.34 242.95 999.34 259.02C1013.49 274.18 1024.41 291.48 1035.55 308.98C1064.49 354.46 1093.81 400.22 1118.87 448.15C1137.47 483.72 1166.51 529.25 1151.78 570.48C1144.52 590.79 1127.31 605.72 1117.71 624.97C1105.14 650.17 1114.54 676.23 1126.93 699.29M955.45 162.09C966.38 174.38 973.62 187.52 978.51 202.39C984.81 221.53 989.18 240.49 1004.13 256.15C1019.13 271.87 1031.03 288.6 1042.44 307.13C1070.41 352.54 1098.66 398.3 1122.9 446C1141.21 482.03 1168.81 526.57 1155.89 568.15C1149.54 588.58 1133.63 604.52 1125.34 624.22C1114.43 650.13 1124.17 676.11 1136.82 699.27M964.04 162.32C975.72 173.21 976.41 188.14 981.57 201.68C989.44 222.31 994.71 240.33 1011.7 256.42C1027.56 271.42 1039.26 288.26 1050.48 307.15C1077.02 351.84 1103.66 396.91 1126.75 443.68C1145.77 482.2 1169.31 523.68 1159.79 565.63C1155.24 585.67 1139.82 603.22 1132.85 623.39C1123.66 650.02 1133.74 675.97 1146.67 699.31M972.67 162.56C984.54 173.53 979.26 187.82 984.56 201.07C994.84 226.73 1005.11 244.06 1025.89 262.08C1041.53 275.65 1051.1 294.11 1061.6 312.6C1085.5 354.68 1109.45 397.24 1130.42 441.12C1148.93 479.85 1171.24 520.72 1163.5 562.84C1159.77 583.14 1145.87 601.73 1140.26 622.38C1132.83 649.72 1143.24 675.68 1156.52 699.28M981.29 162.82C993.97 174.59 981.96 187.23 987.37 200.44C989.99 206.82 993.59 214.8 997.55 222.47C1006.25 239.28 1020.53 250.51 1034.11 262.19C1049.77 275.65 1059.05 293.68 1069.15 312.26C1091.61 353.6 1114.08 395.45 1133.9 438.37C1151.87 477.28 1172.98 517.66 1167.04 559.86C1164.13 580.49 1151.85 600.14 1147.6 621.28C1141.96 649.33 1152.72 675.37 1166.39 699.29M989.87 163.08C1003.44 176.27 984.38 186.19 990.03 199.77C992.8 206.41 997.46 215.45 1002.13 222.94C1011.32 237.71 1023.61 248.02 1037.82 258.78C1055.58 272.24 1065.44 290.61 1075.52 309.92C1097 351.11 1118.21 392.79 1137.17 435.37C1154.56 474.42 1174.51 514.41 1170.38 556.62C1168.32 577.66 1157.7 598.36 1154.83 620.02C1151.02 648.75 1162.15 674.95 1176.25 699.26M998.41 163.34C1012.66 177.93 987.11 185.08 992.92 199.27C995.7 206.06 1001.31 215.37 1006.48 223.12C1015.38 236.48 1028.15 245.65 1040.55 254.96C1059.41 269.12 1071.1 286.05 1081.73 307.44C1102.1 348.43 1122.1 389.93 1140.21 432.15C1157.04 471.38 1175.76 511.11 1173.54 553.17C1172.41 574.62 1163.93 597.05 1161.96 618.65C1159.36 647.19 1171.47 674.64 1186.12 699.26M1006.87 163.59C1021.67 179.24 989.82 184.03 995.76 198.74C999.15 207.14 1004.89 215.85 1010.6 222.81C1021.24 235.79 1034.02 244.99 1047.9 254.69C1059.74 262.96 1072.36 272.98 1078.72 286.29C1081.91 292.97 1085.31 299.8 1088.58 306.66C1107.74 346.86 1125.98 387.51 1142.97 428.71C1159.19 468.03 1176.83 507.57 1176.48 549.52C1176.29 571.61 1169.61 594.93 1168.97 617.17C1168.14 646.43 1180.81 674.16 1195.97 699.28M1015.24 163.83C1029.72 180.88 994.04 182.98 998.59 198.16C1000.37 204.11 1006.39 211.53 1011.07 217.87C1024.46 235.99 1045.85 247.65 1063.94 260.64C1078.86 271.35 1087.06 287.56 1094.28 303.87C1111.93 343.74 1129.32 384.24 1145.47 425.01C1161.33 465.04 1178.31 505.19 1179.29 547.66C1179.8 569.8 1175.12 593.27 1175.86 615.55C1176.85 645.51 1190.11 673.59 1205.84 699.27M1023.51 164.02C1038.21 182.34 996.78 182.93 1001.85 197.78C1005.1 207.29 1012.94 215.99 1020.45 223.45C1033.65 236.56 1050.52 245.86 1065.74 256.33C1075.36 262.94 1085.84 270.4 1091.02 281.05C1095.22 289.68 1098.91 298.91 1102.65 307.87C1118.25 345.28 1133.24 383.11 1147.67 421.04C1162.92 461.13 1179.69 501.66 1181.91 543.57C1183.11 566.29 1180.54 590.81 1182.66 613.79C1185.49 644.45 1199.34 672.95 1215.69 699.27M1031.65 164.18C1046.9 181.03 1002.19 183.31 1005.04 197.25C1006.32 203.48 1014.23 211.96 1020.15 218.24C1035 233.96 1056.23 244.86 1074.05 256.91C1084.42 263.93 1094.36 272.61 1099.3 284.46C1102.06 291.09 1104.8 297.81 1107.47 304.57C1122.12 341.68 1135.86 379.34 1149.56 416.82C1163.97 456.26 1179.95 496.08 1184.13 537.08C1186.6 561.37 1185.74 587.48 1189.37 611.89C1194.03 643.23 1208.54 672.25 1225.55 699.28M1039.63 164.3C1054.48 181.8 1006.67 183.07 1008.65 196.86C1009.53 202.99 1018.14 211.67 1024.53 217.73C1040.55 232.92 1062.3 243.9 1080.6 256.16C1090.77 262.97 1100.53 271.49 1105.1 283.2C1107.62 289.65 1110.13 296.2 1112.55 302.79C1125.89 339.08 1138.34 375.9 1151.13 412.35C1164.75 451.16 1179.68 490.02 1185.94 530.34C1190 556.46 1190.62 583.92 1195.93 609.89C1202.48 641.95 1217.67 671.53 1235.43 699.28M1047.31 164.41C1062.04 181.82 1010.35 184.06 1012.77 196.61C1014.72 206.72 1027.01 216.58 1036.98 222.99C1054.41 234.2 1072.22 245.19 1089.22 256.74C1104.18 266.9 1111.01 282.48 1116.5 299C1128.42 334.89 1140.21 371.56 1152.36 407.56C1165.7 447.11 1180.62 486.87 1188.12 527.51C1192.98 553.87 1195.74 581.62 1202.4 607.69C1210.75 640.37 1226.7 670.77 1245.28 699.26" stroke="url(#paint0_linear)" strokeWidth="1.4327" stroke-miterlimit="10" strokeLinecap="round"/>
<path d="M837.78 361.71C827.508 361.71 819.18 353.382 819.18 343.11C819.18 332.837 827.508 324.51 837.78 324.51C848.052 324.51 856.38 332.837 856.38 343.11C856.38 353.382 848.052 361.71 837.78 361.71Z" fill="url(#paint1_radial)" stroke="url(#paint2_radial)" stroke-miterlimit="10"/>
<path d="M837.78 263.26V331.77" stroke="url(#paint3_linear)" stroke-miterlimit="10"/>
<path d="M838.25 262.88C820.025 262.88 805.25 248.105 805.25 229.88C805.25 211.655 820.025 196.88 838.25 196.88C856.475 196.88 871.25 211.655 871.25 229.88C871.25 248.105 856.475 262.88 838.25 262.88Z" fill="url(#paint4_linear)"/>
<path d="M836.73 241.82C835.53 241.72 834.4 241.46 833.35 241.03C832.3 240.57 831.38 239.99 830.62 239.27C829.86 238.55 829.24 237.72 828.79 236.79C828.33 235.86 828.09 234.84 828.07 233.73H832.49C832.54 234.9 832.95 235.89 833.71 236.68C834.5 237.45 835.51 237.89 836.73 238.01V230.89L835.04 230.64C833.1 230.38 831.55 229.65 830.4 228.45C829.27 227.25 828.71 225.73 828.71 223.88C828.71 222.92 828.93 222.02 829.36 221.18C829.79 220.32 830.38 219.56 831.12 218.91C831.86 218.24 832.71 217.7 833.67 217.29C834.65 216.88 835.67 216.63 836.73 216.53V213.19H839.35V216.61C840.43 216.75 841.42 217.04 842.33 217.47C843.24 217.88 844.03 218.4 844.7 219.05C845.37 219.7 845.9 220.44 846.28 221.28C846.69 222.12 846.92 223.02 846.96 223.98H842.54C842.49 223.12 842.17 222.37 841.57 221.75C840.99 221.1 840.25 220.66 839.34 220.42V227L840.56 227.18C841.47 227.32 842.33 227.58 843.15 227.94C843.96 228.3 844.67 228.77 845.27 229.34C845.89 229.92 846.37 230.61 846.71 231.43C847.07 232.22 847.25 233.12 847.25 234.13C847.25 235.21 847.05 236.19 846.64 237.08C846.26 237.94 845.71 238.71 844.99 239.38C844.29 240.03 843.46 240.57 842.47 241C841.51 241.41 840.47 241.67 839.34 241.79V245.49H836.72V241.82H836.73ZM839.36 237.97C840.49 237.78 841.36 237.37 841.98 236.75C842.6 236.1 842.91 235.29 842.91 234.31C842.91 233.4 842.61 232.73 842.01 232.3C841.41 231.84 840.73 231.54 839.96 231.4L839.35 231.29V237.97H839.36ZM836.73 220.32C835.72 220.46 834.86 220.84 834.14 221.43C833.44 222.01 833.1 222.78 833.1 223.77C833.1 224.61 833.33 225.24 833.78 225.68C834.26 226.09 834.88 226.35 835.65 226.47L836.73 226.65V220.32Z" fill="white"/>
<path d="M717 190.28L716.92 237.49" stroke="url(#paint5_linear)" stroke-miterlimit="10"/>
<path d="M717 248C710.925 248 706 243.299 706 237.5C706 231.701 710.925 227 717 227C723.075 227 728 231.701 728 237.5C728 243.299 723.075 248 717 248Z" fill="url(#paint6_radial)" stroke="url(#paint7_radial)" stroke-miterlimit="10"/>
<path d="M717.4 190.88C705.471 190.88 695.8 181.209 695.8 169.28C695.8 157.351 705.471 147.68 717.4 147.68C729.329 147.68 739 157.351 739 169.28C739 181.209 729.329 190.88 717.4 190.88Z" fill="url(#paint8_linear)"/>
<path d="M723.27 166.83L721.69 159.52H712.79L711.28 166.76L723.27 166.83Z" fill="white" stroke="white" strokeWidth="0.0754" stroke-miterlimit="10" strokeLinejoin="round"/>
<path d="M730.88 176.9L729.3 169.59H720.4L718.9 176.82L730.88 176.9Z" fill="white" stroke="white" strokeWidth="0.0754" stroke-miterlimit="10" strokeLinejoin="round"/>
<path d="M715.43 176.9L713.84 169.59H704.95L703.44 176.82L715.43 176.9Z" fill="white" stroke="white" strokeWidth="0.0754" stroke-miterlimit="10" strokeLinejoin="round"/>
<path d="M335 191.3V269.3" stroke="url(#paint9_linear)" stroke-miterlimit="10"/>
<path opacity="0.4" d="M334.35 299.87C317.423 299.87 303.7 286.148 303.7 269.22C303.7 252.293 317.423 238.57 334.35 238.57C351.278 238.57 365 252.293 365 269.22C365 286.148 351.278 299.87 334.35 299.87Z" fill="url(#paint10_radial)"/>
<path d="M334.44 281.38C328.056 281.38 322.88 276.204 322.88 269.82C322.88 263.436 328.056 258.26 334.44 258.26C340.825 258.26 346 263.436 346 269.82C346 276.204 340.825 281.38 334.44 281.38Z" fill="url(#paint11_radial)"/>
<path d="M335.2 191.49C309.353 191.49 288.4 170.537 288.4 144.69C288.4 118.843 309.353 97.89 335.2 97.89C361.047 97.89 382 118.843 382 144.69C382 170.537 361.047 191.49 335.2 191.49Z" fill="url(#paint12_linear)"/>
<path d="M347.711 126.74L349.591 119.2L345.001 118.06L343.171 125.41C341.961 125.11 340.721 124.83 339.491 124.54L341.331 117.15L336.741 116.01L334.861 123.55C333.861 123.32 332.881 123.1 331.931 122.86L331.941 122.84L325.611 121.26L324.391 126.16C324.391 126.16 327.801 126.94 327.731 126.99C329.591 127.45 329.931 128.68 329.871 129.66L327.731 138.25C327.861 138.28 328.021 138.33 328.211 138.4C328.061 138.36 327.891 138.32 327.721 138.28L324.721 150.32C324.491 150.88 323.921 151.73 322.621 151.41C322.671 151.48 319.281 150.58 319.281 150.58L317.001 155.84L322.981 157.33C324.091 157.61 325.181 157.9 326.251 158.17L324.351 165.8L328.941 166.94L330.821 159.39C331.831 159.66 333.471 160.09 334.481 160.34L332.601 167.85L337.191 168.99L339.091 161.38C346.921 162.86 352.811 162.26 355.291 155.18C357.291 149.48 355.191 146.19 351.071 144.04C354.071 143.35 356.331 141.38 356.931 137.3C357.741 131.73 353.501 128.74 347.711 126.74ZM332.281 153.86L334.801 143.75C337.911 144.53 347.891 146.06 346.411 152.01C345.001 157.71 335.401 154.63 332.281 153.86ZM335.961 139.12L338.251 129.95C340.841 130.6 349.191 131.8 347.841 137.21C346.541 142.4 338.551 139.77 335.961 139.12Z" fill="white"/>
<path d="M238.09 129.12C228.751 129.12 221.18 121.549 221.18 112.21C221.18 102.871 228.751 95.3 238.09 95.3C247.429 95.3 255 102.871 255 112.21C255 121.549 247.429 129.12 238.09 129.12Z" fill="url(#paint13_linear)"/>
<path d="M238 129L238 167" stroke="url(#paint14_linear)" stroke-miterlimit="10"/>
<path d="M237.68 176.64C232.532 176.64 228.36 172.467 228.36 167.32C228.36 162.173 232.532 158 237.68 158C242.827 158 247 162.173 247 167.32C247 172.467 242.827 176.64 237.68 176.64Z" fill="url(#paint15_radial)"/>
<path d="M231.04 114.94C231.04 118.66 234.01 121.67 237.69 121.67C241.37 121.67 244.34 118.66 244.34 114.94C244.34 110.74 240.56 109.12 238.8 103.16C238.46 102.02 236.89 102.07 236.59 103.16C234.81 109.15 231.04 110.72 231.04 114.94ZM237.08 118.65C237.08 118.32 237.35 118.05 237.68 118.05C239.35 118.05 240.7 116.69 240.7 115.03C240.7 114.7 240.97 114.43 241.3 114.43C241.63 114.43 241.9 114.7 241.9 115.03C241.9 117.36 240 119.26 237.67 119.26C237.35 119.25 237.08 118.98 237.08 118.65Z" fill="white"/>
<path d="M546 187.68C511.206 187.68 483 159.474 483 124.68C483 89.886 511.206 61.6799 546 61.6799C580.794 61.6799 609 89.886 609 124.68C609 159.474 580.794 187.68 546 187.68Z" fill="url(#paint16_linear)"/>
<path d="M545.986 107.86L538.628 98.908C529.409 99.408 520.823 101.594 513.004 105.165L513.441 104.985C515.902 108.174 519.149 110.65 522.895 112.144L523.046 112.197C523.48 107.94 526.477 106.902 535.991 106.902L545.983 163L556.035 106.89C565.489 106.89 568.486 107.937 568.923 112.191C572.817 110.656 576.061 108.192 578.484 105.065L578.522 105.014C571.146 101.618 562.56 99.4257 553.523 98.9287L553.341 98.9198L545.983 107.86H545.986ZM545.986 96.3223C545.668 96.3164 545.293 96.3164 544.919 96.3164C533.125 96.3164 521.914 98.8015 511.788 103.275L512.308 103.071C511.603 101.905 510.931 100.547 510.375 99.1328L510.31 98.9465C520.867 94.6182 533.116 92.074 545.956 92H545.986C558.853 92.071 571.105 94.6153 582.31 99.1831L581.662 98.9494C580.996 100.591 580.327 101.952 579.572 103.263L579.664 103.091C570.038 98.8074 558.803 96.3134 546.979 96.3134C546.628 96.3134 546.28 96.3164 545.932 96.3193H545.986V96.3223Z" fill="white"/>
<path d="M545 187L546 405" stroke="url(#paint17_linear)" stroke-miterlimit="10"/>
<path opacity="0.4" d="M546 447C526.118 447 510 430.882 510 411C510 391.118 526.118 375 546 375C565.882 375 582 391.118 582 411C582 430.882 565.882 447 546 447Z" fill="url(#paint18_radial)"/>
<path d="M545.5 427C535.835 427 528 418.941 528 409C528 399.059 535.835 391 545.5 391C555.165 391 563 399.059 563 409C563 418.941 555.165 427 545.5 427Z" fill="url(#paint19_radial)"/>
<path d="M484.002 125.15C483.941 133.27 485.473 141.41 488.566 148.96C491.64 156.51 496.245 163.46 502.019 169.28C507.803 175.09 514.756 179.78 522.364 182.95C529.972 186.14 538.224 187.8 546.487 187.86C554.76 187.92 563.053 186.37 570.742 183.27C574.581 181.71 578.269 179.78 581.725 177.49C585.172 175.19 588.386 172.55 591.308 169.63C597.102 163.74 601.748 156.74 604.771 149.11C606.282 145.29 607.401 141.34 608.116 137.32C608.801 133.29 609.114 129.21 608.963 125.15H608.761C608.469 133.24 606.705 141.23 603.471 148.58C600.246 155.92 595.641 162.65 589.877 168.22C587.026 171.03 583.902 173.56 580.556 175.76C577.221 177.98 573.684 179.89 569.976 181.44C562.58 184.56 554.549 186.19 546.477 186.26C538.416 186.31 530.334 184.78 522.847 181.75C515.36 178.73 508.478 174.22 502.714 168.57C496.94 162.93 492.275 156.15 489.111 148.72C485.926 141.3 484.264 133.23 484.193 125.14H484.002V125.15Z" fill="url(#paint20_linear)"/>
<path d="M608.998 121.99C609.059 113.964 607.527 105.917 604.434 98.4541C601.36 90.9909 596.755 84.1209 590.981 78.3679C585.197 72.6247 578.244 67.9887 570.636 64.8552C563.028 61.7019 554.776 60.061 546.513 60.0017C538.24 59.9423 529.947 61.4745 522.258 64.5388C518.419 66.0809 514.731 67.9887 511.275 70.2523C507.828 72.5259 504.614 75.1355 501.692 78.0219C495.898 83.8441 491.252 90.7636 488.229 98.3058C486.718 102.082 485.599 105.986 484.884 109.96C484.199 113.944 483.886 117.977 484.037 121.99H484.239C484.531 113.993 486.295 106.095 489.529 98.8297C492.754 91.5742 497.369 84.9216 503.123 79.4157C505.974 76.638 509.098 74.1371 512.444 71.9624C515.779 69.768 519.316 67.88 523.024 66.3478C530.42 63.2637 538.451 61.6524 546.523 61.5833C554.584 61.5338 562.666 63.0462 570.153 66.0414C577.64 69.0266 584.522 73.4847 590.286 79.0697C596.06 84.6448 600.725 91.3468 603.889 98.6913C607.074 106.026 608.736 114.003 608.807 122H608.998V121.99Z" fill="url(#paint21_linear)"/>
<g filter="url(#filter0_f)">
<path d="M484.426 126.709C484.226 134.849 485.636 143.069 488.636 150.719C491.616 158.369 496.146 165.459 501.876 171.429C507.636 177.379 514.586 182.199 522.236 185.509C529.876 188.829 538.216 190.609 546.596 190.749C554.976 190.889 563.416 189.409 571.296 186.349C579.176 183.279 586.386 178.459 592.256 172.369C595.166 169.309 597.786 165.979 600.026 162.409C602.236 158.829 604.126 155.059 605.526 151.119C608.396 143.269 609.536 134.849 608.766 126.709H608.236C607.466 134.779 605.426 142.569 602.066 149.689C600.366 153.239 598.416 156.649 596.116 159.799C593.846 162.969 591.306 165.939 588.486 168.609C582.886 173.979 576.376 178.359 569.276 181.489C562.186 184.649 554.426 186.349 546.586 186.499C538.756 186.629 530.876 185.229 523.556 182.329C516.226 179.439 509.456 175.069 503.756 169.559C498.026 164.069 493.356 157.429 490.146 150.099C486.926 142.779 485.156 134.789 484.946 126.719H484.426V126.709Z" fill="#EB1CFD"/>
<path d="M608.786 122.049C608.986 113.909 607.576 105.689 604.576 98.0391C601.596 90.3891 597.066 83.2991 591.336 77.3291C585.576 71.3791 578.626 66.5591 570.976 63.2491C563.336 59.9291 554.996 58.1491 546.616 58.0091C538.236 57.8691 529.796 59.3491 521.916 62.4091C514.036 65.4791 506.826 70.2991 500.956 76.3891C498.046 79.4491 495.426 82.7791 493.186 86.3491C490.976 89.9291 489.086 93.6991 487.686 97.6391C484.816 105.489 483.676 113.909 484.446 122.049H484.976C485.746 113.979 487.786 106.189 491.146 99.0691C492.846 95.5191 494.796 92.1091 497.096 88.9591C499.366 85.7891 501.906 82.8191 504.726 80.1491C510.326 74.7791 516.836 70.3991 523.936 67.2691C531.026 64.1091 538.786 62.4091 546.626 62.2591C554.456 62.1291 562.336 63.5291 569.656 66.4291C576.986 69.3191 583.756 73.6891 589.456 79.1991C595.186 84.6891 599.856 91.3291 603.066 98.6591C606.286 105.979 608.056 113.969 608.266 122.039H608.786V122.049Z" fill="#31D8A4"/>
</g>
<g filter="url(#filter1_f)">
<path d="M484.16 126.243C483.9 134.393 485.27 142.643 488.25 150.333C491.2 158.033 495.71 165.163 501.45 171.203C507.22 177.203 514.19 182.093 521.88 185.453C529.56 188.823 537.96 190.653 546.4 190.823C554.85 191.003 563.38 189.543 571.36 186.503C579.33 183.433 586.63 178.563 592.53 172.383C595.45 169.273 598.09 165.893 600.32 162.283C602.51 158.653 604.4 154.833 605.77 150.843C608.58 142.893 609.61 134.393 608.65 126.243H607.98C607.02 134.303 604.86 142.013 601.44 149.043C599.7 152.543 597.75 155.903 595.43 159.003C593.16 162.123 590.62 165.043 587.82 167.663C582.26 172.953 575.83 177.263 568.83 180.403C561.84 183.573 554.16 185.303 546.4 185.493C538.64 185.653 530.82 184.303 523.53 181.453C516.24 178.613 509.49 174.303 503.79 168.843C498.06 163.413 493.38 156.823 490.13 149.543C486.89 142.263 485.07 134.303 484.81 126.243H484.16V126.243Z" fill="#EB1CFD"/>
<path d="M608.65 121.583C608.91 113.433 607.54 105.193 604.56 97.5028C601.61 89.8128 597.1 82.6729 591.37 76.6429C585.61 70.6429 578.64 65.7529 570.95 62.3929C563.27 59.0129 554.88 57.1829 546.44 57.0129C538.03 56.8529 529.48 58.1829 521.48 61.2229C513.48 64.2729 506.2 69.2329 500.38 75.4729C497.49 78.6129 494.89 82.0029 492.69 85.6229C490.52 89.2629 488.64 93.0629 487.26 97.0329C484.44 104.933 483.23 113.413 484.17 121.583H484.84C486.79 105.523 494.11 90.8429 505.14 80.1329C510.64 74.7829 517.01 70.4229 524 67.3129C527.49 65.7529 531.16 64.5329 534.92 63.7129C538.69 62.8929 542.55 62.4429 546.44 62.3329C554.2 62.1729 562.01 63.5329 569.3 66.3829C576.58 69.2229 583.33 73.5329 589.02 78.9929C594.74 84.4229 599.43 91.0029 602.67 98.2929C605.91 105.573 607.72 113.523 607.99 121.583H608.65Z" fill="#31D8A4"/>
</g>
<path d="M696.05 169.423C696.029 172.214 696.556 175.012 697.619 177.607C698.675 180.202 700.257 182.59 702.241 184.591C704.228 186.588 706.617 188.2 709.231 189.289C711.846 190.385 714.681 190.956 717.52 190.977C720.363 190.997 723.213 190.465 725.854 189.399C727.174 188.863 728.441 188.2 729.628 187.412C730.812 186.622 731.917 185.715 732.921 184.711C734.912 182.687 736.508 180.281 737.547 177.658C738.066 176.345 738.45 174.988 738.696 173.606C738.932 172.221 739.039 170.819 738.987 169.423H738.918C738.817 172.204 738.212 174.95 737.1 177.476C735.992 179.999 734.41 182.312 732.429 184.226C731.45 185.192 730.376 186.062 729.227 186.818C728.081 187.581 726.865 188.237 725.591 188.77C723.05 189.842 720.29 190.403 717.517 190.427C714.747 190.444 711.97 189.918 709.398 188.877C706.825 187.839 704.46 186.289 702.48 184.347C700.496 182.408 698.893 180.078 697.806 177.524C696.712 174.974 696.14 172.2 696.116 169.42H696.05V169.423Z" fill="url(#paint22_linear)"/>
<path d="M738.999 168.337C739.02 165.578 738.494 162.813 737.431 160.248C736.375 157.683 734.793 155.321 732.809 153.344C730.821 151.37 728.432 149.777 725.818 148.7C723.204 147.616 720.368 147.052 717.529 147.032C714.687 147.011 711.837 147.538 709.195 148.591C707.876 149.121 706.609 149.777 705.421 150.555C704.237 151.336 703.133 152.233 702.129 153.225C700.138 155.226 698.542 157.605 697.503 160.197C696.983 161.495 696.599 162.837 696.353 164.202C696.118 165.572 696.011 166.958 696.062 168.337H696.132C696.232 165.589 696.838 162.874 697.949 160.377C699.057 157.883 700.643 155.597 702.62 153.704C703.6 152.75 704.673 151.89 705.823 151.143C706.969 150.388 708.184 149.739 709.458 149.213C712 148.153 714.759 147.599 717.533 147.575C720.303 147.558 723.079 148.078 725.652 149.108C728.224 150.134 730.589 151.666 732.57 153.585C734.554 155.502 736.157 157.805 737.244 160.329C738.338 162.85 738.909 165.592 738.934 168.341H738.999V168.337Z" fill="url(#paint23_linear)"/>
<g filter="url(#filter2_f)">
<path d="M696.196 169.959C696.127 172.757 696.612 175.582 697.642 178.211C698.666 180.841 700.223 183.277 702.192 185.329C704.171 187.374 706.559 189.031 709.188 190.169C711.813 191.31 714.678 191.922 717.558 191.97C720.437 192.018 723.337 191.509 726.045 190.457C728.752 189.402 731.23 187.746 733.247 185.652C734.246 184.601 735.147 183.456 735.916 182.229C736.676 180.999 737.325 179.703 737.806 178.349C738.792 175.651 739.184 172.757 738.919 169.959H738.737C738.473 172.733 737.772 175.41 736.617 177.857C736.033 179.077 735.363 180.249 734.573 181.332C733.793 182.422 732.92 183.442 731.951 184.36C730.027 186.206 727.79 187.711 725.351 188.787C722.914 189.873 720.248 190.457 717.554 190.509C714.864 190.554 712.156 190.072 709.641 189.076C707.122 188.082 704.796 186.58 702.838 184.687C700.869 182.8 699.264 180.518 698.161 177.998C697.055 175.482 696.447 172.736 696.375 169.963H696.196V169.959Z" fill="#EB1CFD"/>
<path d="M738.926 168.357C738.995 165.56 738.511 162.734 737.48 160.105C736.456 157.476 734.899 155.039 732.931 152.987C730.951 150.942 728.563 149.286 725.935 148.148C723.31 147.007 720.444 146.395 717.565 146.347C714.685 146.299 711.785 146.807 709.078 147.859C706.37 148.914 703.893 150.571 701.876 152.664C700.876 153.716 699.976 154.86 699.206 156.087C698.447 157.318 697.797 158.614 697.316 159.968C696.33 162.666 695.938 165.56 696.203 168.357H696.385C696.65 165.584 697.351 162.906 698.505 160.459C699.089 159.239 699.759 158.067 700.549 156.984C701.329 155.895 702.202 154.874 703.171 153.956C705.095 152.111 707.332 150.605 709.772 149.53C712.208 148.443 714.874 147.859 717.568 147.808C720.259 147.763 722.966 148.244 725.481 149.241C728 150.234 730.326 151.736 732.285 153.63C734.253 155.517 735.858 157.799 736.961 160.318C738.067 162.834 738.676 165.58 738.748 168.354H738.926V168.357Z" fill="#31D8A4"/>
</g>
<g filter="url(#filter3_f)">
<path d="M696.104 169.799C696.015 172.6 696.486 175.435 697.51 178.078C698.523 180.725 700.073 183.176 702.045 185.251C704.028 187.314 706.423 188.994 709.065 190.149C711.704 191.307 714.59 191.936 717.49 191.995C720.394 192.057 723.325 191.555 726.067 190.51C728.805 189.455 731.313 187.781 733.341 185.657C734.344 184.588 735.251 183.426 736.017 182.186C736.77 180.938 737.419 179.625 737.89 178.254C738.856 175.521 739.209 172.6 738.88 169.799H738.649C738.32 172.569 737.577 175.219 736.402 177.635C735.804 178.838 735.134 179.993 734.337 181.058C733.557 182.131 732.684 183.134 731.722 184.035C729.812 185.853 727.603 187.334 725.197 188.414C722.796 189.503 720.157 190.098 717.49 190.163C714.824 190.218 712.137 189.754 709.632 188.774C707.127 187.798 704.808 186.317 702.849 184.44C700.881 182.574 699.273 180.309 698.156 177.807C697.043 175.305 696.417 172.569 696.328 169.799H696.104V169.799Z" fill="#EB1CFD"/>
<path d="M738.88 168.197C738.969 165.396 738.498 162.564 737.474 159.921C736.461 157.278 734.911 154.824 732.942 152.751C730.963 150.689 728.568 149.008 725.926 147.854C723.287 146.692 720.404 146.063 717.504 146.004C714.614 145.949 711.677 146.407 708.928 147.451C706.179 148.5 703.678 150.204 701.678 152.349C700.685 153.428 699.791 154.593 699.036 155.838C698.29 157.089 697.644 158.395 697.17 159.759C696.201 162.475 695.785 165.389 696.108 168.197H696.338C697.008 162.677 699.523 157.632 703.313 153.951C705.203 152.112 707.392 150.613 709.794 149.545C710.993 149.008 712.254 148.589 713.546 148.307C714.841 148.025 716.168 147.871 717.504 147.833C720.171 147.778 722.854 148.245 725.359 149.225C727.86 150.201 730.18 151.682 732.135 153.559C734.1 155.425 735.712 157.687 736.825 160.192C737.938 162.694 738.56 165.427 738.653 168.197H738.88Z" fill="#31D8A4"/>
</g>
<path d="M804.078 230.153C804.046 234.461 804.866 238.779 806.522 242.784C808.168 246.789 810.633 250.476 813.724 253.564C816.821 256.646 820.543 259.134 824.617 260.816C828.69 262.508 833.108 263.389 837.532 263.42C841.961 263.452 846.401 262.63 850.517 260.985C852.573 260.158 854.547 259.134 856.398 257.919C858.243 256.699 859.964 255.299 861.528 253.749C864.63 250.625 867.117 246.911 868.736 242.864C869.545 240.837 870.144 238.742 870.527 236.609C870.894 234.471 871.061 232.307 870.98 230.153H870.872C870.716 234.445 869.772 238.683 868.04 242.583C866.313 246.476 863.848 250.047 860.762 253.001C859.235 254.492 857.563 255.834 855.772 257.001C853.986 258.179 852.093 259.192 850.107 260.015C846.147 261.67 841.848 262.534 837.526 262.572C833.211 262.598 828.884 261.786 824.875 260.179C820.867 258.577 817.182 256.184 814.097 253.187C811.005 250.195 808.507 246.598 806.813 242.657C805.109 238.721 804.219 234.44 804.181 230.148H804.078V230.153Z" fill="url(#paint24_linear)"/>
<path d="M870.999 228.477C871.031 224.219 870.211 219.95 868.555 215.991C866.91 212.032 864.444 208.387 861.353 205.335C858.256 202.289 854.534 199.829 850.461 198.167C846.388 196.494 841.969 195.624 837.546 195.592C833.116 195.561 828.676 196.374 824.56 197.999C822.505 198.817 820.53 199.829 818.68 201.03C816.835 202.236 815.114 203.621 813.549 205.152C810.447 208.241 807.96 211.911 806.342 215.912C805.532 217.916 804.934 219.987 804.551 222.095C804.184 224.208 804.016 226.348 804.097 228.477H804.205C804.362 224.234 805.306 220.045 807.038 216.19C808.764 212.341 811.235 208.812 814.315 205.891C815.842 204.418 817.514 203.091 819.305 201.937C821.091 200.773 822.985 199.772 824.97 198.959C828.93 197.323 833.23 196.468 837.551 196.431C841.867 196.405 846.193 197.207 850.202 198.796C854.21 200.38 857.895 202.745 860.981 205.708C864.072 208.665 866.57 212.221 868.264 216.117C869.969 220.008 870.859 224.24 870.897 228.482H870.999V228.477Z" fill="url(#paint25_linear)"/>
<g filter="url(#filter4_f)">
<path d="M804.305 230.98C804.198 235.298 804.953 239.659 806.559 243.717C808.155 247.776 810.58 251.537 813.648 254.704C816.731 257.86 820.452 260.417 824.548 262.173C828.638 263.934 833.103 264.879 837.59 264.953C842.076 265.027 846.595 264.242 850.814 262.619C855.033 260.99 858.893 258.433 862.035 255.203C863.593 253.579 864.996 251.813 866.195 249.919C867.379 248.02 868.39 246.02 869.14 243.93C870.676 239.765 871.287 235.298 870.875 230.98H870.591C870.179 235.261 869.086 239.394 867.287 243.171C866.377 245.054 865.333 246.863 864.102 248.534C862.887 250.216 861.527 251.791 860.017 253.208C857.019 256.057 853.534 258.38 849.732 260.041C845.936 261.717 841.782 262.619 837.585 262.698C833.393 262.767 829.174 262.025 825.255 260.486C821.33 258.953 817.706 256.635 814.654 253.712C811.586 250.799 809.086 247.277 807.368 243.388C805.644 239.505 804.696 235.267 804.584 230.986H804.305V230.98Z" fill="#EB1CFD"/>
<path d="M870.885 228.508C870.992 224.19 870.237 219.829 868.631 215.771C867.036 211.713 864.611 207.952 861.543 204.784C858.459 201.628 854.738 199.071 850.643 197.315C846.552 195.554 842.087 194.61 837.601 194.535C833.114 194.461 828.596 195.246 824.377 196.87C820.158 198.498 816.298 201.055 813.155 204.286C811.597 205.909 810.194 207.676 808.995 209.57C807.812 211.469 806.8 213.469 806.051 215.559C804.514 219.723 803.904 224.19 804.316 228.508H804.6C805.012 224.227 806.104 220.095 807.903 216.317C808.813 214.434 809.857 212.625 811.089 210.954C812.304 209.272 813.664 207.697 815.174 206.28C818.172 203.432 821.657 201.108 825.458 199.448C829.254 197.771 833.409 196.87 837.606 196.79C841.798 196.721 846.017 197.464 849.936 199.002C853.86 200.535 857.485 202.853 860.536 205.776C863.604 208.689 866.104 212.211 867.823 216.1C869.547 219.983 870.494 224.222 870.607 228.503H870.885V228.508Z" fill="#31D8A4"/>
</g>
<g filter="url(#filter5_f)">
<path d="M804.163 230.733C804.024 235.056 804.757 239.433 806.353 243.512C807.932 247.597 810.346 251.38 813.42 254.584C816.509 257.767 820.24 260.361 824.357 262.143C828.469 263.931 832.966 264.902 837.485 264.992C842.009 265.088 846.576 264.313 850.848 262.7C855.115 261.072 859.023 258.488 862.182 255.21C863.745 253.56 865.159 251.767 866.353 249.852C867.525 247.926 868.537 245.9 869.271 243.783C870.775 239.566 871.326 235.056 870.812 230.733H870.454C869.94 235.009 868.783 239.099 866.952 242.828C866.021 244.685 864.977 246.467 863.735 248.112C862.519 249.767 861.16 251.316 859.66 252.706C856.684 255.512 853.241 257.799 849.494 259.464C845.751 261.146 841.64 262.064 837.485 262.165C833.33 262.25 829.144 261.533 825.241 260.021C821.338 258.515 817.724 256.228 814.672 253.332C811.605 250.451 809.099 246.955 807.359 243.093C805.624 239.231 804.65 235.009 804.511 230.733H804.163V230.733Z" fill="#EB1CFD"/>
<path d="M870.812 228.261C870.952 223.937 870.218 219.566 868.623 215.486C867.043 211.407 864.629 207.619 861.561 204.42C858.477 201.237 854.746 198.643 850.629 196.861C846.517 195.068 842.025 194.097 837.506 194.007C833.004 193.922 828.426 194.627 824.143 196.24C819.86 197.858 815.963 200.489 812.847 203.8C811.299 205.465 809.907 207.264 808.73 209.184C807.568 211.115 806.561 213.131 805.823 215.237C804.313 219.428 803.665 223.927 804.168 228.261H804.527C805.571 219.741 809.49 211.953 815.395 206.272C818.34 203.434 821.75 201.121 825.492 199.471C827.361 198.643 829.326 197.996 831.339 197.561C833.357 197.126 835.424 196.887 837.506 196.829C841.661 196.744 845.842 197.466 849.745 198.978C853.643 200.484 857.257 202.771 860.303 205.667C863.365 208.548 865.876 212.038 867.611 215.906C869.345 219.768 870.315 223.985 870.459 228.261H870.812Z" fill="#31D8A4"/>
</g>
<path d="M289.109 145.411C289.064 151.417 290.202 157.438 292.501 163.023C294.785 168.608 298.207 173.749 302.498 178.054C306.796 182.352 311.963 185.821 317.617 188.166C323.271 190.525 329.404 191.753 335.544 191.798C341.692 191.842 347.855 190.695 353.569 188.402C356.422 187.248 359.163 185.821 361.731 184.127C364.292 182.426 366.681 180.473 368.853 178.313C373.158 173.956 376.611 168.778 378.857 163.134C379.98 160.308 380.812 157.387 381.343 154.413C381.852 151.432 382.085 148.414 381.972 145.411H381.822C381.605 151.395 380.295 157.305 377.891 162.742C375.495 168.171 372.073 173.15 367.789 177.27C365.67 179.348 363.349 181.22 360.862 182.847C358.384 184.489 355.755 185.902 353 187.049C347.503 189.357 341.535 190.562 335.537 190.614C329.546 190.651 323.54 189.519 317.976 187.278C312.413 185.044 307.298 181.708 303.015 177.529C298.724 173.357 295.257 168.342 292.905 162.846C290.539 157.357 289.303 151.388 289.251 145.403H289.109V145.411Z" fill="url(#paint26_linear)"/>
<path d="M381.999 143.073C382.044 137.136 380.905 131.184 378.606 125.664C376.323 120.143 372.9 115.061 368.609 110.806C364.311 106.558 359.144 103.128 353.49 100.81C347.837 98.478 341.704 97.2642 335.563 97.2203C329.415 97.1765 323.252 98.3098 317.539 100.577C314.686 101.717 311.945 103.128 309.376 104.803C306.815 106.485 304.426 108.415 302.255 110.55C297.949 114.857 294.497 119.975 292.25 125.554C291.127 128.347 290.296 131.235 289.764 134.175C289.255 137.121 289.023 140.105 289.135 143.073H289.285C289.502 137.158 290.813 131.316 293.216 125.942C295.613 120.575 299.042 115.654 303.318 111.581C305.437 109.526 307.759 107.676 310.245 106.068C312.724 104.445 315.352 103.048 318.108 101.915C323.604 99.6333 329.572 98.4414 335.571 98.3902C341.561 98.3537 347.567 99.4724 353.131 101.688C358.695 103.896 363.809 107.194 368.093 111.325C372.384 115.449 375.851 120.406 378.202 125.839C380.568 131.265 381.804 137.165 381.856 143.081H381.999V143.073Z" fill="url(#paint27_linear)"/>
<g filter="url(#filter6_f)">
<path d="M289.424 146.564C289.275 152.585 290.323 158.665 292.552 164.324C294.767 169.983 298.133 175.227 302.392 179.643C306.672 184.045 311.837 187.61 317.522 190.058C323.199 192.514 329.397 193.831 335.625 193.934C341.852 194.038 348.124 192.943 353.98 190.68C359.836 188.409 365.194 184.844 369.557 180.339C371.719 178.075 373.666 175.612 375.331 172.971C376.973 170.323 378.378 167.535 379.418 164.62C381.551 158.813 382.398 152.585 381.826 146.564H381.432C380.86 152.533 379.344 158.296 376.847 163.562C375.583 166.188 374.134 168.711 372.425 171.041C370.738 173.386 368.851 175.582 366.755 177.557C362.593 181.53 357.756 184.77 352.479 187.085C347.21 189.422 341.444 190.68 335.617 190.791C329.799 190.887 323.943 189.851 318.503 187.706C313.056 185.568 308.025 182.336 303.789 178.26C299.53 174.199 296.06 169.288 293.674 163.866C291.282 158.451 289.966 152.541 289.81 146.571H289.424V146.564Z" fill="#EB1CFD"/>
<path d="M381.841 143.117C381.989 137.096 380.941 131.015 378.712 125.357C376.497 119.698 373.131 114.454 368.873 110.038C364.592 105.636 359.428 102.071 353.742 99.6225C348.065 97.1667 341.867 95.85 335.64 95.7465C329.412 95.6429 323.14 96.7377 317.284 99.0011C311.428 101.272 306.07 104.837 301.708 109.342C299.545 111.606 297.598 114.069 295.934 116.71C294.291 119.358 292.887 122.146 291.846 125.061C289.713 130.868 288.866 137.096 289.438 143.117H289.832C290.405 137.148 291.921 131.385 294.418 126.119C295.681 123.493 297.13 120.97 298.839 118.64C300.526 116.295 302.414 114.098 304.509 112.123C308.671 108.151 313.509 104.911 318.785 102.596C324.054 100.259 329.821 99.0011 335.647 98.8902C341.466 98.794 347.322 99.8296 352.762 101.975C358.209 104.112 363.24 107.345 367.476 111.421C371.734 115.482 375.204 120.393 377.59 125.815C379.983 131.23 381.298 137.14 381.454 143.11H381.841V143.117Z" fill="#31D8A4"/>
</g>
<g filter="url(#filter7_f)">
<path d="M289.226 146.219C289.033 152.248 290.051 158.35 292.265 164.039C294.458 169.734 297.809 175.008 302.075 179.476C306.363 183.914 311.543 187.531 317.257 190.017C322.965 192.51 329.207 193.863 335.479 193.989C341.759 194.122 348.098 193.042 354.028 190.794C359.951 188.523 365.376 184.92 369.76 180.349C371.93 178.048 373.892 175.548 375.549 172.878C377.177 170.193 378.581 167.367 379.599 164.416C381.688 158.535 382.453 152.248 381.74 146.219H381.242C380.528 152.181 378.923 157.884 376.382 163.084C375.089 165.673 373.639 168.159 371.915 170.452C370.228 172.76 368.341 174.92 366.26 176.858C362.128 180.771 357.35 183.959 352.148 186.281C346.953 188.626 341.246 189.906 335.479 190.046C329.712 190.165 323.901 189.166 318.483 187.058C313.066 184.957 308.05 181.769 303.814 177.73C299.556 173.714 296.078 168.839 293.663 163.454C291.255 158.069 289.902 152.181 289.709 146.219H289.226V146.219Z" fill="#EB1CFD"/>
<path d="M381.74 142.772C381.933 136.743 380.915 130.648 378.7 124.96C376.508 119.272 373.156 113.99 368.898 109.53C364.618 105.092 359.438 101.475 353.723 98.9891C348.016 96.4889 341.781 95.1353 335.509 95.0095C329.259 94.8912 322.905 95.875 316.96 98.1237C311.015 100.38 305.605 104.049 301.28 108.664C299.132 110.987 297.2 113.495 295.565 116.172C293.952 118.865 292.555 121.676 291.53 124.612C289.434 130.456 288.535 136.729 289.233 142.772H289.731C291.18 130.892 296.62 120.034 304.817 112.111C308.904 108.154 313.638 104.929 318.833 102.628C321.426 101.475 324.154 100.572 326.948 99.9655C329.749 99.359 332.618 99.0261 335.509 98.9447C341.276 98.8264 347.079 99.8324 352.497 101.941C357.907 104.041 362.923 107.229 367.152 111.268C371.402 115.285 374.888 120.152 377.296 125.544C379.703 130.929 381.048 136.81 381.249 142.772H381.74Z" fill="#31D8A4"/>
</g>
<path d="M221.04 112.331C221.023 114.515 221.439 116.705 222.28 118.736C223.115 120.767 224.366 122.636 225.935 124.202C227.506 125.764 229.395 127.026 231.462 127.878C233.529 128.737 235.771 129.183 238.016 129.199C240.264 129.215 242.517 128.798 244.606 127.965C245.649 127.545 246.651 127.026 247.59 126.41C248.526 125.791 249.399 125.081 250.193 124.296C251.768 122.711 253.03 120.828 253.851 118.776C254.262 117.749 254.566 116.686 254.76 115.605C254.946 114.521 255.031 113.423 254.99 112.331H254.935C254.856 114.507 254.377 116.657 253.498 118.634C252.622 120.608 251.371 122.418 249.805 123.916C249.03 124.672 248.181 125.353 247.272 125.945C246.366 126.542 245.405 127.055 244.398 127.472C242.388 128.312 240.206 128.75 238.013 128.769C235.823 128.782 233.628 128.371 231.594 127.556C229.559 126.743 227.69 125.53 226.124 124.011C224.555 122.493 223.287 120.67 222.428 118.671C221.563 116.675 221.111 114.505 221.092 112.329H221.04V112.331Z" fill="url(#paint28_linear)"/>
<path d="M255 111.481C255.016 109.322 254.6 107.158 253.759 105.15C252.924 103.143 251.673 101.295 250.105 99.7476C248.533 98.2028 246.644 96.9558 244.577 96.113C242.51 95.2648 240.268 94.8234 238.023 94.8075C235.775 94.7915 233.522 95.2036 231.433 96.0279C230.39 96.4427 229.388 96.9558 228.449 97.5647C227.513 98.1762 226.64 98.8782 225.846 99.6546C224.272 101.221 223.01 103.082 222.188 105.111C221.778 106.126 221.474 107.177 221.279 108.245C221.093 109.317 221.008 110.402 221.049 111.481H221.104C221.184 109.33 221.663 107.206 222.541 105.252C223.418 103.3 224.671 101.51 226.235 100.029C227.009 99.2823 227.858 98.6096 228.767 98.0247C229.673 97.4344 230.634 96.9266 231.642 96.5145C233.651 95.6849 235.833 95.2515 238.026 95.2329C240.216 95.2196 242.412 95.6264 244.446 96.432C246.48 97.235 248.35 98.4342 249.916 99.9364C251.484 101.436 252.752 103.239 253.612 105.214C254.477 107.187 254.928 109.333 254.948 111.484H255V111.481Z" fill="url(#paint29_linear)"/>
<g filter="url(#filter8_f)">
<path d="M221.155 112.751C221.101 114.94 221.484 117.151 222.299 119.209C223.108 121.267 224.339 123.174 225.896 124.78C227.461 126.38 229.349 127.676 231.427 128.567C233.503 129.46 235.769 129.939 238.046 129.976C240.322 130.014 242.615 129.616 244.756 128.793C246.897 127.967 248.856 126.67 250.451 125.032C251.241 124.209 251.953 123.314 252.562 122.353C253.162 121.39 253.676 120.376 254.056 119.316C254.836 117.205 255.146 114.94 254.936 112.751H254.792C254.583 114.921 254.029 117.017 253.116 118.932C252.654 119.887 252.124 120.804 251.5 121.651C250.883 122.504 250.193 123.303 249.427 124.021C247.905 125.465 246.136 126.644 244.207 127.485C242.281 128.335 240.173 128.793 238.043 128.833C235.916 128.868 233.775 128.491 231.786 127.711C229.795 126.934 227.955 125.759 226.407 124.277C224.85 122.8 223.581 121.014 222.709 119.042C221.834 117.073 221.353 114.924 221.296 112.753H221.155V112.751Z" fill="#EB1CFD"/>
<path d="M254.942 111.497C254.996 109.308 254.613 107.097 253.798 105.039C252.989 102.981 251.758 101.074 250.201 99.4682C248.636 97.8678 246.748 96.5713 244.67 95.681C242.594 94.7879 240.328 94.3091 238.051 94.2715C235.775 94.2338 233.481 94.6319 231.341 95.455C229.2 96.2808 227.241 97.5773 225.646 99.2154C224.855 100.038 224.144 100.934 223.535 101.894C222.935 102.857 222.421 103.871 222.041 104.931C221.261 107.043 220.951 109.308 221.161 111.497H221.305C221.514 109.326 222.068 107.231 222.981 105.316C223.443 104.361 223.972 103.444 224.597 102.596C225.214 101.744 225.904 100.945 226.67 100.227C228.192 98.7823 229.96 97.6042 231.889 96.7623C233.816 95.9123 235.924 95.455 238.054 95.4147C240.181 95.3797 242.322 95.7563 244.311 96.5363C246.302 97.3137 248.142 98.4891 249.69 99.9712C251.247 101.448 252.516 103.234 253.388 105.206C254.263 107.175 254.744 109.324 254.801 111.494H254.942V111.497Z" fill="#31D8A4"/>
</g>
<g filter="url(#filter9_f)">
<path d="M221.083 112.625C221.012 114.817 221.384 117.036 222.194 119.105C222.995 121.176 224.221 123.094 225.78 124.719C227.348 126.332 229.241 127.648 231.331 128.552C233.417 129.458 235.699 129.95 237.992 129.996C240.288 130.044 242.606 129.652 244.774 128.834C246.939 128.008 248.922 126.698 250.525 125.036C251.319 124.199 252.036 123.29 252.642 122.319C253.237 121.343 253.75 120.315 254.122 119.242C254.886 117.104 255.166 114.817 254.905 112.625H254.723C254.462 114.793 253.875 116.867 252.946 118.758C252.473 119.699 251.943 120.603 251.313 121.437C250.696 122.276 250.006 123.062 249.246 123.766C247.735 125.189 245.988 126.349 244.086 127.193C242.187 128.046 240.101 128.511 237.992 128.562C235.884 128.605 233.759 128.242 231.779 127.476C229.798 126.712 227.964 125.552 226.416 124.084C224.859 122.623 223.588 120.851 222.705 118.892C221.824 116.934 221.33 114.793 221.259 112.625H221.083V112.625Z" fill="#EB1CFD"/>
<path d="M254.905 111.372C254.976 109.179 254.603 106.963 253.794 104.895C252.992 102.826 251.767 100.906 250.21 99.2836C248.645 97.6697 246.752 96.3544 244.662 95.4506C242.576 94.5414 240.296 94.0492 238.003 94.0035C235.718 93.9604 233.395 94.3182 231.222 95.1359C229.049 95.9563 227.071 97.2904 225.489 98.9689C224.704 99.8135 223.998 100.725 223.4 101.699C222.811 102.678 222.3 103.7 221.925 104.768C221.159 106.893 220.83 109.174 221.085 111.372H221.267C221.797 107.052 223.786 103.103 226.783 100.222C228.277 98.7833 230.008 97.6105 231.907 96.774C232.855 96.3544 233.852 96.0262 234.873 95.8056C235.898 95.5851 236.946 95.464 238.003 95.4344C240.112 95.3914 242.233 95.7572 244.214 96.5238C246.192 97.2877 248.026 98.447 249.572 99.9157C251.126 101.376 252.4 103.146 253.28 105.107C254.16 107.065 254.652 109.204 254.726 111.372H254.905Z" fill="#31D8A4"/>
</g>
<defs>
<filter id="filter0_f" x="474.211" y="48" width="144.789" height="152.758" filterUnits="userSpaceOnUse" colorInterpolationFilters="sRGB">
<feFlood floodOpacity="0" result="BackgroundImageFix"/>
<feBlend mode="normal" in="SourceGraphic" in2="BackgroundImageFix" result="shape"/>
<feGaussianBlur stdDeviation="5" result="effect1_foregroundBlur"/>
</filter>
<filter id="filter1_f" x="467.855" y="41" width="157.145" height="165.838" filterUnits="userSpaceOnUse" colorInterpolationFilters="sRGB">
<feFlood floodOpacity="0" result="BackgroundImageFix"/>
<feBlend mode="normal" in="SourceGraphic" in2="BackgroundImageFix" result="shape"/>
<feGaussianBlur stdDeviation="8" result="effect1_foregroundBlur"/>
</filter>
<filter id="filter2_f" x="686.122" y="136.344" width="62.8777" height="65.629" filterUnits="userSpaceOnUse" colorInterpolationFilters="sRGB">
<feFlood floodOpacity="0" result="BackgroundImageFix"/>
<feBlend mode="normal" in="SourceGraphic" in2="BackgroundImageFix" result="shape"/>
<feGaussianBlur stdDeviation="5" result="effect1_foregroundBlur"/>
</filter>
<filter id="filter3_f" x="680" y="130" width="74.9999" height="78" filterUnits="userSpaceOnUse" colorInterpolationFilters="sRGB">
<feFlood floodOpacity="0" result="BackgroundImageFix"/>
<feBlend mode="normal" in="SourceGraphic" in2="BackgroundImageFix" result="shape"/>
<feGaussianBlur stdDeviation="8" result="effect1_foregroundBlur"/>
</filter>
<filter id="filter4_f" x="794.191" y="184.531" width="86.8094" height="90.4274" filterUnits="userSpaceOnUse" colorInterpolationFilters="sRGB">
<feFlood floodOpacity="0" result="BackgroundImageFix"/>
<feBlend mode="normal" in="SourceGraphic" in2="BackgroundImageFix" result="shape"/>
<feGaussianBlur stdDeviation="5" result="effect1_foregroundBlur"/>
</filter>
<filter id="filter5_f" x="788" y="178" width="99" height="103" filterUnits="userSpaceOnUse" colorInterpolationFilters="sRGB">
<feFlood floodOpacity="0" result="BackgroundImageFix"/>
<feBlend mode="normal" in="SourceGraphic" in2="BackgroundImageFix" result="shape"/>
<feGaussianBlur stdDeviation="8" result="effect1_foregroundBlur"/>
</filter>
<filter id="filter6_f" x="279.264" y="85.7397" width="112.736" height="118.201" filterUnits="userSpaceOnUse" colorInterpolationFilters="sRGB">
<feFlood floodOpacity="0" result="BackgroundImageFix"/>
<feBlend mode="normal" in="SourceGraphic" in2="BackgroundImageFix" result="shape"/>
<feGaussianBlur stdDeviation="5" result="effect1_foregroundBlur"/>
</filter>
<filter id="filter7_f" x="273" y="79" width="125" height="131" filterUnits="userSpaceOnUse" colorInterpolationFilters="sRGB">
<feFlood floodOpacity="0" result="BackgroundImageFix"/>
<feBlend mode="normal" in="SourceGraphic" in2="BackgroundImageFix" result="shape"/>
<feGaussianBlur stdDeviation="8" result="effect1_foregroundBlur"/>
</filter>
<filter id="filter8_f" x="211.097" y="84.269" width="53.9031" height="55.7096" filterUnits="userSpaceOnUse" colorInterpolationFilters="sRGB">
<feFlood floodOpacity="0" result="BackgroundImageFix"/>
<feBlend mode="normal" in="SourceGraphic" in2="BackgroundImageFix" result="shape"/>
<feGaussianBlur stdDeviation="5" result="effect1_foregroundBlur"/>
</filter>
<filter id="filter9_f" x="205" y="78" width="66" height="68" filterUnits="userSpaceOnUse" colorInterpolationFilters="sRGB">
<feFlood floodOpacity="0" result="BackgroundImageFix"/>
<feBlend mode="normal" in="SourceGraphic" in2="BackgroundImageFix" result="shape"/>
<feGaussianBlur stdDeviation="8" result="effect1_foregroundBlur"/>
</filter>
<linearGradient id="paint0_linear" x1="490" y1="181.5" x2="436" y2="674.5" gradientUnits="userSpaceOnUse">
<stop stopColor="#00D1FF" stop-opacity="0"/>
<stop offset="0.124821" stopColor="#A91EFF" stop-opacity="0.45"/>
<stop offset="0.287747" stopColor="#ED1EFF" stop-opacity="0.78"/>
<stop offset="0.500125" stopColor="#71DDFF" stop-opacity="0.93"/>
<stop offset="0.806602" stopColor="#1AD4FF" stop-opacity="0.233608"/>
<stop offset="0.955974" stopColor="#00D1FF" stop-opacity="0"/>
</linearGradient>
<radialGradient id="paint1_radial" cx="0" cy="0" r="1" gradientUnits="userSpaceOnUse" gradientTransform="translate(837.777 343.111) rotate(180) scale(18.5953)">
<stop offset="0.0261" stopColor="white"/>
<stop offset="0.3263" stopColor="#67AFFE" stop-opacity="0.6"/>
<stop offset="0.3613" stopColor="#6DA8FE" stop-opacity="0.549"/>
<stop offset="0.4125" stopColor="#7F94FE" stop-opacity="0.4742"/>
<stop offset="0.4738" stopColor="#9C74FE" stop-opacity="0.3849"/>
<stop offset="0.5422" stopColor="#C448FD" stop-opacity="0.2851"/>
<stop offset="0.6006" stopColor="#EB1CFD" stop-opacity="0.2"/>
<stop offset="0.9644" stopColor="#0A0324" stop-opacity="0"/>
</radialGradient>
<radialGradient id="paint2_radial" cx="0" cy="0" r="1" gradientUnits="userSpaceOnUse" gradientTransform="translate(837.777 343.111) rotate(180) scale(19.0953)">
<stop offset="0.0261" stopColor="white"/>
<stop offset="0.3263" stopColor="#31D8A4" stop-opacity="0.6"/>
<stop offset="0.3559" stopColor="#38D1A7" stop-opacity="0.5568"/>
<stop offset="0.3993" stopColor="#4BBDB1" stop-opacity="0.4936"/>
<stop offset="0.4512" stopColor="#6B9DC0" stop-opacity="0.4179"/>
<stop offset="0.5096" stopColor="#9870D5" stop-opacity="0.3327"/>
<stop offset="0.5728" stopColor="#D037F0" stop-opacity="0.2406"/>
<stop offset="0.6006" stopColor="#EB1CFD" stop-opacity="0.2"/>
<stop offset="0.9644" stopColor="#0A0324" stop-opacity="0"/>
</radialGradient>
<linearGradient id="paint3_linear" x1="953.786" y1="323.583" x2="948.68" y2="254.59" gradientUnits="userSpaceOnUse">
<stop stopColor="#31D8A4"/>
<stop offset="0.1079" stopColor="#38D1A7"/>
<stop offset="0.2661" stopColor="#4BBDB1"/>
<stop offset="0.4552" stopColor="#6B9DC0"/>
<stop offset="0.6683" stopColor="#9870D5"/>
<stop offset="0.8985" stopColor="#D037F0"/>
<stop offset="1" stopColor="#EB1CFD"/>
</linearGradient>
<linearGradient id="paint4_linear" x1="871.253" y1="229.882" x2="805.253" y2="229.882" gradientUnits="userSpaceOnUse">
<stop offset="0.000282939" stopColor="#0F0436"/>
<stop offset="1" stopColor="#090221"/>
</linearGradient>
<linearGradient id="paint5_linear" x1="726.281" y1="231.849" x2="704.611" y2="197.861" gradientUnits="userSpaceOnUse">
<stop stopColor="#31D8A4"/>
<stop offset="0.1079" stopColor="#38D1A7"/>
<stop offset="0.2661" stopColor="#4BBDB1"/>
<stop offset="0.4552" stopColor="#6B9DC0"/>
<stop offset="0.6683" stopColor="#9870D5"/>
<stop offset="0.8985" stopColor="#D037F0"/>
<stop offset="1" stopColor="#EB1CFD"/>
</linearGradient>
<radialGradient id="paint6_radial" cx="0" cy="0" r="1" gradientUnits="userSpaceOnUse" gradientTransform="translate(716.998 237.5) rotate(180) scale(10.9972 10.4973)">
<stop offset="0.0261" stopColor="white"/>
<stop offset="0.3263" stopColor="#67AFFE" stop-opacity="0.6"/>
<stop offset="0.3613" stopColor="#6DA8FE" stop-opacity="0.549"/>
<stop offset="0.4125" stopColor="#7F94FE" stop-opacity="0.4742"/>
<stop offset="0.4738" stopColor="#9C74FE" stop-opacity="0.3849"/>
<stop offset="0.5422" stopColor="#C448FD" stop-opacity="0.2851"/>
<stop offset="0.6006" stopColor="#EB1CFD" stop-opacity="0.2"/>
<stop offset="0.9644" stopColor="#0A0324" stop-opacity="0"/>
</radialGradient>
<radialGradient id="paint7_radial" cx="0" cy="0" r="1" gradientUnits="userSpaceOnUse" gradientTransform="translate(716.998 237.5) rotate(180) scale(11.2929 10.7796)">
<stop offset="0.0261" stopColor="white"/>
<stop offset="0.3263" stopColor="#31D8A4" stop-opacity="0.6"/>
<stop offset="0.3559" stopColor="#38D1A7" stop-opacity="0.5568"/>
<stop offset="0.3993" stopColor="#4BBDB1" stop-opacity="0.4936"/>
<stop offset="0.4512" stopColor="#6B9DC0" stop-opacity="0.4179"/>
<stop offset="0.5096" stopColor="#9870D5" stop-opacity="0.3327"/>
<stop offset="0.5728" stopColor="#D037F0" stop-opacity="0.2406"/>
<stop offset="0.6006" stopColor="#EB1CFD" stop-opacity="0.2"/>
<stop offset="0.9644" stopColor="#0A0324" stop-opacity="0"/>
</radialGradient>
<linearGradient id="paint8_linear" x1="739.003" y1="169.282" x2="695.803" y2="169.282" gradientUnits="userSpaceOnUse">
<stop offset="0.000282939" stopColor="#0F0436"/>
<stop offset="1" stopColor="#090221"/>
</linearGradient>
<linearGradient id="paint9_linear" x1="451.007" y1="259.979" x2="444.398" y2="181.556" gradientUnits="userSpaceOnUse">
<stop stopColor="#31D8A4"/>
<stop offset="0.1079" stopColor="#38D1A7"/>
<stop offset="0.2661" stopColor="#4BBDB1"/>
<stop offset="0.4552" stopColor="#6B9DC0"/>
<stop offset="0.6683" stopColor="#9870D5"/>
<stop offset="0.8985" stopColor="#D037F0"/>
<stop offset="1" stopColor="#EB1CFD"/>
</linearGradient>
<radialGradient id="paint10_radial" cx="0" cy="0" r="1" gradientUnits="userSpaceOnUse" gradientTransform="translate(334.354 269.221) rotate(180) scale(30.6535)">
<stop offset="0.0261" stopColor="white"/>
<stop offset="0.3263" stopColor="#67AFFE" stop-opacity="0.6"/>
<stop offset="0.3791" stopColor="#6DA8FE" stop-opacity="0.549"/>
<stop offset="0.4566" stopColor="#7F94FE" stop-opacity="0.4742"/>
<stop offset="0.5492" stopColor="#9C74FE" stop-opacity="0.3849"/>
<stop offset="0.6526" stopColor="#C448FD" stop-opacity="0.2851"/>
<stop offset="0.7408" stopColor="#EB1CFD" stop-opacity="0.2"/>
<stop offset="1" stopColor="#0A0324" stop-opacity="0"/>
</radialGradient>
<radialGradient id="paint11_radial" cx="0" cy="0" r="1" gradientUnits="userSpaceOnUse" gradientTransform="translate(334.444 269.821) rotate(180) scale(11.5617)">
<stop offset="0.0261" stopColor="white"/>
<stop offset="0.3263" stopColor="#67AFFE" stop-opacity="0.6"/>
<stop offset="0.3613" stopColor="#6DA8FE" stop-opacity="0.549"/>
<stop offset="0.4125" stopColor="#7F94FE" stop-opacity="0.4742"/>
<stop offset="0.4738" stopColor="#9C74FE" stop-opacity="0.3849"/>
<stop offset="0.5422" stopColor="#C448FD" stop-opacity="0.2851"/>
<stop offset="0.6006" stopColor="#EB1CFD" stop-opacity="0.2"/>
<stop offset="0.9644" stopColor="#0A0324" stop-opacity="0"/>
</radialGradient>
<linearGradient id="paint12_linear" x1="381.998" y1="144.69" x2="288.398" y2="144.69" gradientUnits="userSpaceOnUse">
<stop offset="0.000282939" stopColor="#0F0436"/>
<stop offset="1" stopColor="#090221"/>
</linearGradient>
<linearGradient id="paint13_linear" x1="255.002" y1="112.213" x2="221.177" y2="112.213" gradientUnits="userSpaceOnUse">
<stop offset="0.000282939" stopColor="#0F0436"/>
<stop offset="1" stopColor="#090221"/>
</linearGradient>
<linearGradient id="paint14_linear" x1="354.006" y1="162.459" x2="352.429" y2="124.046" gradientUnits="userSpaceOnUse">
<stop stopColor="#31D8A4"/>
<stop offset="0.1079" stopColor="#38D1A7"/>
<stop offset="0.2661" stopColor="#4BBDB1"/>
<stop offset="0.4552" stopColor="#6B9DC0"/>
<stop offset="0.6683" stopColor="#9870D5"/>
<stop offset="0.8985" stopColor="#D037F0"/>
<stop offset="1" stopColor="#EB1CFD"/>
</linearGradient>
<radialGradient id="paint15_radial" cx="0" cy="0" r="1" gradientUnits="userSpaceOnUse" gradientTransform="translate(237.683 167.323) rotate(180) scale(9.31891)">
<stop offset="0.0261" stopColor="white"/>
<stop offset="0.3263" stopColor="#67AFFE" stop-opacity="0.6"/>
<stop offset="0.3613" stopColor="#6DA8FE" stop-opacity="0.549"/>
<stop offset="0.4125" stopColor="#7F94FE" stop-opacity="0.4742"/>
<stop offset="0.4738" stopColor="#9C74FE" stop-opacity="0.3849"/>
<stop offset="0.5422" stopColor="#C448FD" stop-opacity="0.2851"/>
<stop offset="0.6006" stopColor="#EB1CFD" stop-opacity="0.2"/>
<stop offset="0.9644" stopColor="#0A0324" stop-opacity="0"/>
</radialGradient>
<linearGradient id="paint16_linear" x1="608.996" y1="124.681" x2="482.996" y2="124.681" gradientUnits="userSpaceOnUse">
<stop offset="0.000282939" stopColor="#0F0436"/>
<stop offset="1" stopColor="#090221"/>
</linearGradient>
<linearGradient id="paint17_linear" x1="661.886" y1="378.418" x2="611.667" y2="169.505" gradientUnits="userSpaceOnUse">
<stop stopColor="#31D8A4"/>
<stop offset="0.1079" stopColor="#38D1A7"/>
<stop offset="0.2661" stopColor="#4BBDB1"/>
<stop offset="0.4552" stopColor="#6B9DC0"/>
<stop offset="0.6683" stopColor="#9870D5"/>
<stop offset="0.8985" stopColor="#D037F0"/>
<stop offset="1" stopColor="#EB1CFD"/>
</linearGradient>
<radialGradient id="paint18_radial" cx="0" cy="0" r="1" gradientUnits="userSpaceOnUse" gradientTransform="translate(545.999 411.005) rotate(180) scale(36.0041)">
<stop offset="0.0261" stopColor="white"/>
<stop offset="0.3263" stopColor="#67AFFE" stop-opacity="0.6"/>
<stop offset="0.3791" stopColor="#6DA8FE" stop-opacity="0.549"/>
<stop offset="0.4566" stopColor="#7F94FE" stop-opacity="0.4742"/>
<stop offset="0.5492" stopColor="#9C74FE" stop-opacity="0.3849"/>
<stop offset="0.6526" stopColor="#C448FD" stop-opacity="0.2851"/>
<stop offset="0.7408" stopColor="#EB1CFD" stop-opacity="0.2"/>
<stop offset="1" stopColor="#0A0324" stop-opacity="0"/>
</radialGradient>
<radialGradient id="paint19_radial" cx="0" cy="0" r="1" gradientUnits="userSpaceOnUse" gradientTransform="translate(545.503 408.993) rotate(180) scale(17.4941 17.9939)">
<stop offset="0.0261" stopColor="white"/>
<stop offset="0.3263" stopColor="#67AFFE" stop-opacity="0.6"/>
<stop offset="0.3791" stopColor="#6DA8FE" stop-opacity="0.5617"/>
<stop offset="0.4566" stopColor="#7F94FE" stop-opacity="0.5057"/>
<stop offset="0.5492" stopColor="#9C74FE" stop-opacity="0.4387"/>
<stop offset="0.6526" stopColor="#C448FD" stop-opacity="0.3638"/>
<stop offset="0.7408" stopColor="#EB1CFD" stop-opacity="0.3"/>
<stop offset="1" stopColor="#0A0324" stop-opacity="0"/>
</radialGradient>
<linearGradient id="paint20_linear" x1="609.883" y1="156.502" x2="483.097" y2="156.502" gradientUnits="userSpaceOnUse">
<stop offset="0.0261" stopColor="white"/>
<stop offset="1" stopColor="#EB1CFD"/>
</linearGradient>
<linearGradient id="paint21_linear" x1="609.908" y1="90.9903" x2="483.122" y2="90.9903" gradientUnits="userSpaceOnUse">
<stop offset="0.000250888" stopColor="#31D8A3"/>
<stop offset="0.9739" stopColor="white"/>
</linearGradient>
<linearGradient id="paint22_linear" x1="739.303" y1="180.199" x2="695.739" y2="180.199" gradientUnits="userSpaceOnUse">
<stop offset="0.0261" stopColor="white"/>
<stop offset="1" stopColor="#EB1CFD"/>
</linearGradient>
<linearGradient id="paint23_linear" x1="739.312" y1="157.682" x2="695.748" y2="157.682" gradientUnits="userSpaceOnUse">
<stop offset="0.000250888" stopColor="#31D8A3"/>
<stop offset="0.9739" stopColor="white"/>
</linearGradient>
<linearGradient id="paint24_linear" x1="871.472" y1="246.785" x2="803.594" y2="246.785" gradientUnits="userSpaceOnUse">
<stop offset="0.0261" stopColor="white"/>
<stop offset="1" stopColor="#EB1CFD"/>
</linearGradient>
<linearGradient id="paint25_linear" x1="871.486" y1="212.032" x2="803.607" y2="212.032" gradientUnits="userSpaceOnUse">
<stop offset="0.000250888" stopColor="#31D8A3"/>
<stop offset="0.9739" stopColor="white"/>
</linearGradient>
<linearGradient id="paint26_linear" x1="382.656" y1="168.602" x2="288.436" y2="168.602" gradientUnits="userSpaceOnUse">
<stop offset="0.0261" stopColor="white"/>
<stop offset="1" stopColor="#EB1CFD"/>
</linearGradient>
<linearGradient id="paint27_linear" x1="382.675" y1="120.143" x2="288.455" y2="120.143" gradientUnits="userSpaceOnUse">
<stop offset="0.000250888" stopColor="#31D8A3"/>
<stop offset="0.9739" stopColor="white"/>
</linearGradient>
<linearGradient id="paint28_linear" x1="255.24" y1="120.764" x2="220.794" y2="120.764" gradientUnits="userSpaceOnUse">
<stop offset="0.0261" stopColor="white"/>
<stop offset="1" stopColor="#EB1CFD"/>
</linearGradient>
<linearGradient id="paint29_linear" x1="255.247" y1="103.143" x2="220.801" y2="103.143" gradientUnits="userSpaceOnUse">
<stop offset="0.000250888" stopColor="#31D8A3"/>
<stop offset="0.9739" stopColor="white"/>
</linearGradient>
</defs>
</svg>
