<svg width="1440" height="870" viewBox="0 0 1440 870" fill="none" xmlns="http://www.w3.org/2000/svg">
<mask id="mask0" style="mask-type:alpha" maskUnits="userSpaceOnUse" x="0" y="-10" width="1440" height="1195">
<rect y="-9.6377" width="1440" height="1194" fill="#160654"/>
<rect y="-9.6377" width="1440" height="1194" fill="black" fill-opacity="0.47"/>
</mask>
<g mask="url(#mask0)">
<path d="M790.308 450.725L1079.67 775.741" stroke="url(#paint0_linear)" stroke-linecap="round" stroke-linejoin="round"/>
<path d="M931.218 450.725L1439.75 640.895" stroke="url(#paint1_linear)" stroke-linecap="round" stroke-linejoin="round"/>
<path d="M719.854 450.725L719.33 775.741" stroke="url(#paint2_linear)" stroke-linecap="round" stroke-linejoin="round"/>
<path d="M1213.03 450.725L1439.75 487.047" stroke="url(#paint3_linear)" stroke-linecap="round" stroke-linejoin="round"/>
<path d="M1283.48 450.725L1439.75 472.628" stroke="url(#paint4_linear)" stroke-linecap="round" stroke-linejoin="round"/>
<path d="M1072.12 450.725L1439.75 533.189" stroke="url(#paint5_linear)" stroke-linecap="round" stroke-linejoin="round"/>
<path d="M1001.67 450.725L1439.75 573.571" stroke="url(#paint6_linear)" stroke-linecap="round" stroke-linejoin="round"/>
<path d="M1142.58 450.725L1439.75 506.274" stroke="url(#paint7_linear)" stroke-linecap="round" stroke-linejoin="round"/>
<path d="M226.675 450.725L0.216198 486.987" stroke="url(#paint8_linear)" stroke-linecap="round" stroke-linejoin="round"/>
<path d="M1353.94 450.725L1439.75 461.416" stroke="url(#paint9_linear)" stroke-linecap="round" stroke-linejoin="round"/>
<path d="M1424.4 450.725L1439.75 452.446" stroke="url(#paint10_linear)" stroke-linecap="round" stroke-linejoin="round"/>
<path d="M297.131 450.725L0.215218 506.191" stroke="url(#paint11_linear)" stroke-linecap="round" stroke-linejoin="round"/>
<path d="M438.04 450.725L0.215212 573.391" stroke="url(#paint12_linear)" stroke-linecap="round" stroke-linejoin="round"/>
<path d="M649.398 450.725L358.998 775.741" stroke="url(#paint13_linear)" stroke-linecap="round" stroke-linejoin="round"/>
<path d="M156.22 450.725L0.215218 472.586" stroke="url(#paint14_linear)" stroke-linecap="round" stroke-linejoin="round"/>
<path d="M367.585 450.725L0.215214 533.071" stroke="url(#paint15_linear)" stroke-linecap="round" stroke-linejoin="round"/>
<path d="M508.495 450.725L0.216181 640.571" stroke="url(#paint16_linear)" stroke-linecap="round" stroke-linejoin="round"/>
<path d="M15.3177 450.725L0.215221 452.418" stroke="url(#paint17_linear)" stroke-linecap="round" stroke-linejoin="round"/>
<path d="M85.7721 450.725L0.215221 461.381" stroke="url(#paint18_linear)" stroke-linecap="round" stroke-linejoin="round"/>
<path d="M578.943 450.725L-1.33471 775.741" stroke="url(#paint19_linear)" stroke-linecap="round" stroke-linejoin="round"/>
<path d="M860.763 450.725L1440 775.741" stroke="url(#paint20_linear)" stroke-linecap="round" stroke-linejoin="round"/>
<path d="M1439.75 639.293L0.215204 639.293" stroke="url(#paint21_linear)" stroke-linecap="round" stroke-linejoin="round"/>
<path d="M1439.75 508.601L0.215218 508.601" stroke="url(#paint22_linear)" stroke-linecap="round" stroke-linejoin="round"/>
<path d="M1439.75 552.831L0.215214 552.831" stroke="url(#paint23_linear)" stroke-linecap="round" stroke-linejoin="round"/>
<path d="M1439.75 602.56L0.21521 602.56" stroke="url(#paint24_linear)" stroke-linecap="round" stroke-linejoin="round"/>
<path d="M1439.75 689.935L0.2152 689.935" stroke="url(#paint25_linear)" stroke-linecap="round" stroke-linejoin="round"/>
<path d="M1439.75 574.691L0.21521 574.691" stroke="url(#paint26_linear)" stroke-linecap="round" stroke-linejoin="round"/>
<path d="M1439.75 535.22L0.215218 535.22" stroke="url(#paint27_linear)" stroke-linecap="round" stroke-linejoin="round"/>
<path d="M1439.75 463.685L0.215219 463.685" stroke="url(#paint28_linear)" stroke-linecap="round" stroke-linejoin="round"/>
<path d="M1439.75 474.98L0.215218 474.98" stroke="url(#paint29_linear)" stroke-linecap="round" stroke-linejoin="round"/>
<path d="M1439.75 481.737L0.215221 481.737" stroke="url(#paint30_linear)" stroke-linecap="round" stroke-linejoin="round"/>
<path d="M1439.75 469.004L0.215219 469.004" stroke="url(#paint31_linear)" stroke-linecap="round" stroke-linejoin="round"/>
<path d="M1439.75 454.617L0.215221 454.617" stroke="url(#paint32_linear)" stroke-linecap="round" stroke-linejoin="round"/>
<path d="M1439.75 458.916L0.215221 458.916" stroke="url(#paint33_linear)" stroke-linecap="round" stroke-linejoin="round"/>
<path d="M1439.75 450.725L0.215221 450.725" stroke="url(#paint34_linear)" stroke-linecap="round" stroke-linejoin="round"/>
<path d="M1439.75 498.298L0.215218 498.298" stroke="url(#paint35_linear)" stroke-linecap="round" stroke-linejoin="round"/>
<path d="M1439.75 520.731L0.215214 520.731" stroke="url(#paint36_linear)" stroke-linecap="round" stroke-linejoin="round"/>
<path d="M1439.75 489.437L0.215221 489.437" stroke="url(#paint37_linear)" stroke-linecap="round" stroke-linejoin="round"/>
<path d="M1439.75 775.33L0.214485 775.33" stroke="url(#paint38_linear)" stroke-width="2" stroke-linecap="round" stroke-linejoin="round"/>
<path d="M1079 776.362L1079 869.362" stroke="url(#paint39_linear)"/>
<path d="M720 776.362L720 869.362" stroke="url(#paint40_linear)"/>
<path d="M359 776.362L359 869.362" stroke="url(#paint41_linear)"/>
<path opacity="0.0344828" d="M548.738 426.239C507.04 382.359 502.334 315.065 537.52 265.809V265.809C545.688 254.374 551.891 241.656 555.873 228.18V228.18C573.025 170.128 628.95 132.406 689.2 138.249V138.249C703.187 139.605 717.303 138.618 730.965 135.328V135.328C789.815 121.157 850.446 150.728 875.511 205.828V205.828C881.33 218.62 889.242 230.35 898.922 240.537V240.537C940.621 284.417 945.326 351.711 910.141 400.968V400.968C901.972 412.402 895.77 425.12 891.788 438.597V438.597C874.635 496.649 818.71 534.371 758.46 528.528V528.528C744.473 527.171 730.358 528.158 716.696 531.448V531.448C657.845 545.62 597.214 516.048 572.149 460.948V460.948C566.331 448.157 558.418 436.426 548.738 426.239V426.239Z" stroke="url(#paint42_linear)"/>
<path opacity="0.0689655" d="M546.328 415.921C507.467 370.485 506.304 303.866 543.555 257.101V257.101C552.203 246.244 558.979 234.021 563.603 220.934V220.934C583.522 164.561 640.634 130.244 699.76 139.122V139.122C713.486 141.183 727.459 140.94 741.105 138.401V138.401C799.885 127.465 858.16 159.767 880.034 215.41V215.41C885.112 228.328 892.31 240.308 901.332 250.856V250.856C940.193 296.292 941.355 362.911 904.104 409.676V409.676C895.456 420.533 888.68 432.757 884.056 445.843V445.843C864.137 502.216 807.025 536.533 747.9 527.655V527.655C734.174 525.594 720.2 525.838 706.554 528.376V528.376C647.774 539.312 589.499 507.01 567.625 451.367V451.367C562.547 438.449 555.349 426.47 546.328 415.921V415.921Z" stroke="url(#paint43_linear)"/>
<path opacity="0.103448" d="M544.512 405.608C508.536 358.79 510.832 293.03 549.987 248.836V248.836C559.076 238.576 566.39 226.871 571.627 214.204V214.204C594.185 159.639 652.282 128.748 710.133 140.559V140.559C723.563 143.301 737.356 143.783 750.945 141.984V141.984C809.479 134.237 865.28 169.106 883.976 225.112V225.112C888.317 238.113 894.796 250.3 903.148 261.168V261.168C939.124 307.987 936.828 373.746 897.673 417.941V417.941C888.584 428.2 881.27 439.905 876.033 452.572V452.572C853.475 507.138 795.378 538.028 737.527 526.217V526.217C724.097 523.475 710.304 522.993 696.715 524.792V524.792C638.181 532.539 582.38 497.671 563.684 441.665V441.665C559.343 428.663 552.864 416.477 544.512 405.608V405.608Z" stroke="url(#paint44_linear)"/>
<path opacity="0.137931" d="M543.283 395.333C510.229 347.309 515.891 282.587 556.783 241.032V241.032C566.276 231.385 574.092 220.222 579.911 208.002V208.002C604.973 155.364 663.856 127.907 720.289 142.543V142.543C733.39 145.941 746.966 147.128 760.458 146.057V146.057C818.575 141.443 871.795 178.708 887.336 234.899V234.899C890.944 247.943 896.704 260.294 904.377 271.443V271.443C937.432 319.467 931.769 384.189 890.878 425.744V425.744C881.385 435.391 873.568 446.554 867.75 458.774V458.774C842.687 511.412 783.804 538.869 727.372 524.233V524.233C714.271 520.835 700.695 519.648 687.203 520.719V520.719C629.086 525.333 575.865 488.068 560.324 431.877V431.877C556.716 418.833 550.957 406.482 543.283 395.333V395.333Z" stroke="url(#paint45_linear)"/>
<path opacity="0.172414" d="M542.631 385.13C512.525 336.076 521.451 272.56 563.913 233.705V233.705C573.77 224.685 582.053 214.083 588.421 202.336V202.336C615.849 151.736 675.319 127.709 730.199 145.054V145.054C742.939 149.081 756.262 150.953 769.619 150.594V150.594C827.154 149.048 877.698 188.537 890.116 244.737V244.737C892.999 257.784 898.039 270.258 905.028 281.646V281.646C935.135 330.699 926.208 394.216 883.747 433.07V433.07C873.89 442.091 865.606 452.692 859.239 464.439V464.439C831.811 515.039 772.341 539.066 717.461 521.721V521.721C704.72 517.695 691.397 515.822 678.041 516.181V516.181C620.506 517.727 569.962 478.239 557.543 422.039V422.039C554.66 408.992 549.621 396.518 542.631 385.13V385.13Z" stroke="url(#paint46_linear)"/>
<path opacity="0.206897" d="M542.546 375.03C515.404 325.122 527.484 262.974 571.346 226.868V226.868C581.529 218.486 590.241 208.463 597.125 197.213V197.213C626.775 148.753 686.637 128.141 739.837 148.073V148.073C752.187 152.701 765.223 155.235 778.408 155.571V155.571C835.201 157.019 882.982 198.555 892.321 254.594V254.594C894.488 267.603 898.812 280.159 905.113 291.745V291.745C932.255 341.654 920.175 403.802 876.313 439.908V439.908C866.131 448.29 857.418 458.313 850.535 469.563V469.563C820.884 518.023 761.022 538.635 707.822 518.702V518.702C695.472 514.075 682.436 511.541 669.251 511.205V511.205C612.458 509.757 564.677 468.221 555.339 412.182V412.182C553.171 399.173 548.848 386.617 542.546 375.03V375.03Z" stroke="url(#paint47_linear)"/>
<path opacity="0.241379" d="M543.015 365.065C518.843 314.476 533.959 253.85 579.052 220.531V220.531C589.52 212.796 598.624 203.369 605.989 192.637V192.637C637.714 146.408 697.775 129.186 749.177 151.578V151.578C761.11 156.777 773.827 159.947 786.803 160.96V160.96C842.701 165.32 887.646 208.723 893.955 264.435V264.435C895.419 277.368 899.032 289.966 904.643 301.71V301.71C928.816 352.299 913.7 412.925 868.607 446.244V446.244C858.139 453.979 849.035 463.407 841.67 474.139V474.139C809.945 520.367 749.883 537.589 698.482 515.197V515.197C686.549 509.999 673.832 506.828 660.856 505.816V505.816C604.958 501.455 560.013 458.052 553.704 402.341V402.341C552.24 389.407 548.627 376.809 543.015 365.065V365.065Z" stroke="url(#paint48_linear)"/>
<path opacity="0.275862" d="M544.025 355.265C522.819 304.168 540.844 245.209 586.998 214.706V214.706C597.713 207.625 607.171 198.805 614.982 188.611V188.611C648.63 144.697 708.702 130.828 758.196 155.547V155.547C769.686 161.286 782.053 165.067 794.787 166.734V166.734C849.642 173.918 891.689 219.007 895.028 274.229V274.229C895.803 287.049 898.712 299.65 903.635 311.512V311.512C924.842 362.609 906.816 421.567 860.662 452.07V452.07C849.948 459.152 840.49 467.971 832.678 478.166V478.166C799.03 522.08 738.958 535.949 689.464 511.229V511.229C677.975 505.491 665.608 501.71 652.873 500.042V500.042C598.018 492.859 555.972 447.769 552.632 392.547V392.547C551.857 379.727 548.948 367.127 544.025 355.265V355.265Z" stroke="url(#paint49_linear)"/>
<path opacity="0.310345" d="M545.557 345.657C527.303 294.222 548.106 237.067 595.151 209.398V209.398C606.073 202.975 615.846 194.774 624.068 185.134V185.134C659.486 143.608 719.385 133.046 766.869 159.955V159.955C777.892 166.201 789.881 170.565 802.341 172.865V172.865C856.013 182.774 895.109 229.368 895.547 283.944V283.944C895.649 296.614 897.865 309.179 902.102 321.119V321.119C920.357 372.555 899.554 429.71 852.508 457.378V457.378C841.587 463.802 831.813 472.002 823.591 481.643V481.643C788.174 523.169 728.275 533.731 680.791 506.822V506.822C669.767 500.575 657.778 496.212 645.319 493.911V493.911C591.647 484.002 552.551 437.409 552.112 382.832V382.832C552.01 370.162 549.795 357.598 545.557 345.657V345.657Z" stroke="url(#paint50_linear)"/>
<path opacity="0.344828" d="M547.596 336.271C532.27 284.664 555.712 229.439 603.481 204.614V204.614C614.57 198.851 624.62 191.278 633.217 182.206V182.206C670.247 143.131 729.793 135.819 775.177 164.776V164.776C785.713 171.498 797.297 176.415 809.451 179.324V179.324C861.807 191.856 897.912 239.768 895.526 293.55V293.55C894.973 306.035 896.506 318.526 900.064 330.506V330.506C915.389 382.113 891.948 437.338 844.179 462.163V462.163C833.09 467.926 823.039 475.499 814.443 484.571V484.571C777.413 523.646 717.866 530.958 672.483 502.001V502.001C661.947 495.279 650.363 490.362 638.209 487.453V487.453C585.853 474.921 549.748 427.008 552.133 373.227V373.227C552.687 360.741 551.154 348.251 547.596 336.271V336.271Z" stroke="url(#paint51_linear)"/>
<path opacity="0.37931" d="M550.122 327.131C537.692 275.516 563.628 222.339 611.953 200.357V200.357C623.172 195.253 633.461 188.314 642.395 179.824V179.824C680.88 143.252 739.9 139.125 783.1 169.985V169.985C793.129 177.149 804.283 182.589 816.103 186.081V186.081C867.017 201.124 900.102 250.174 894.977 303.016V303.016C893.787 315.283 894.653 327.663 897.538 339.646V339.646C909.967 391.26 884.031 444.437 835.706 466.42V466.42C824.488 471.523 814.199 478.462 805.265 486.953V486.953C766.78 523.524 707.76 527.651 664.559 496.792V496.792C654.53 489.628 643.376 484.187 631.557 480.695V480.695C580.642 465.652 547.558 416.602 552.683 363.76V363.76C553.873 351.493 553.007 339.113 550.122 327.131V327.131Z" stroke="url(#paint52_linear)"/>
<path opacity="0.413793" d="M553.114 318.264C543.54 266.801 571.821 215.78 620.538 196.629V196.629C631.847 192.183 642.336 185.881 651.571 177.982V177.982C691.352 143.959 749.677 142.941 790.621 175.555V175.555C800.126 183.127 810.828 189.059 822.286 193.107V193.107C871.642 210.547 901.686 260.549 893.913 312.315V312.315C892.109 324.333 892.323 336.567 894.545 348.514V348.514C904.12 399.977 875.839 450.997 827.122 470.149V470.149C815.812 474.595 805.324 480.897 796.089 488.795V488.795C756.308 522.819 697.982 523.837 657.038 491.222V491.222C647.533 483.651 636.831 477.719 625.374 473.67V473.67C576.018 456.231 545.973 406.228 553.746 354.463V354.463C555.551 342.445 555.337 330.211 553.114 318.264V318.264Z" stroke="url(#paint53_linear)"/>
<path opacity="0.448276" d="M556.553 309.692C549.782 258.536 580.255 209.769 629.202 193.429V193.429C640.565 189.636 651.215 183.973 660.714 176.674V176.674C701.63 145.233 759.101 147.24 797.725 181.459V181.459C806.691 189.402 816.92 195.794 827.991 200.371V200.371C875.678 220.085 902.675 270.86 892.353 321.418V321.418C889.956 333.155 889.535 345.21 891.107 357.086V357.086C897.878 408.242 867.405 457.009 818.458 473.349V473.349C807.095 477.142 796.445 482.805 786.946 490.104V490.104C746.03 521.545 688.559 519.538 649.936 485.319V485.319C640.969 477.375 630.74 470.983 619.669 466.407V466.407C571.982 446.692 544.985 395.918 555.307 345.36V345.36C557.704 333.622 558.125 321.568 556.553 309.692V309.692Z" stroke="url(#paint54_linear)"/>
<path opacity="0.482759" d="M560.413 301.437C556.388 250.739 588.896 204.313 637.913 190.756V190.756C649.292 187.608 660.067 182.584 669.792 175.89V175.89C711.685 147.055 768.146 151.995 804.395 187.666V187.666C812.81 195.947 822.549 202.766 833.209 207.842V207.842C879.127 229.705 903.079 281.071 890.312 330.299V330.299C887.348 341.728 886.311 353.571 887.246 365.34V365.34C891.271 416.038 858.763 462.464 809.746 476.022V476.022C798.367 479.169 787.592 484.193 777.867 490.887V490.887C735.974 519.722 679.513 514.782 643.264 479.111V479.111C634.849 470.83 625.11 464.011 614.45 458.936V458.936C568.532 437.072 544.58 385.707 557.348 336.478V336.478C560.312 325.049 561.348 313.207 560.413 301.437V301.437Z" stroke="url(#paint55_linear)"/>
<path opacity="0.517241" d="M564.674 293.52C563.328 243.425 597.71 199.417 646.643 188.605V188.605C658.003 186.094 668.864 181.706 678.779 175.621V175.621C721.49 149.407 776.793 157.18 810.623 194.15V194.15C818.477 202.733 827.708 209.945 837.936 215.489V215.489C881.992 239.371 902.913 291.151 887.811 338.934V338.934C884.305 350.027 882.674 361.627 882.987 373.257V373.257C884.333 423.352 849.951 467.36 801.018 478.172V478.172C789.658 480.682 778.797 485.071 768.882 491.156V491.156C726.171 517.37 670.868 509.597 637.038 472.627V472.627C629.184 464.044 619.953 456.832 609.725 451.288V451.288C565.668 427.406 544.748 375.626 559.85 327.843V327.843C563.356 316.75 564.986 305.15 564.674 293.52V293.52Z" stroke="url(#paint56_linear)"/>
<path opacity="0.551724" d="M569.307 285.96C570.566 236.607 606.66 195.085 655.358 186.97V186.97C666.663 185.086 677.574 181.329 687.642 175.854V175.854C731.012 152.267 785.019 162.765 816.395 200.881V200.881C823.679 209.729 832.389 217.3 842.165 223.282V223.282C884.276 249.048 902.188 301.068 884.867 347.298V347.298C880.846 358.031 878.644 369.359 878.352 380.816V380.816C877.094 430.169 840.999 471.691 792.302 479.806V479.806C780.996 481.689 770.085 485.447 760.017 490.922V490.922C716.647 514.509 662.64 504.011 631.264 465.895V465.895C623.98 457.047 615.271 449.476 605.494 443.494V443.494C563.383 417.728 545.471 365.708 562.792 319.478V319.478C566.813 308.745 569.015 297.417 569.307 285.96V285.96Z" stroke="url(#paint57_linear)"/>
<path opacity="0.586207" d="M574.291 278.774C578.072 230.297 615.714 191.317 664.03 185.846V185.846C675.247 184.576 686.173 181.443 696.358 176.576V176.576C740.231 155.613 792.809 168.722 821.706 207.829V207.829C828.414 216.908 836.59 224.803 845.897 231.191V231.191C885.989 258.704 900.925 310.793 881.506 355.371V355.371C876.997 365.72 874.247 376.749 873.37 388.003V388.003C869.588 436.48 831.946 475.46 783.63 480.931V480.931C772.414 482.201 761.488 485.334 751.302 490.201V490.201C707.429 511.164 654.851 498.055 625.955 458.948V458.948C619.246 449.869 611.07 441.973 601.763 435.586V435.586C561.671 408.072 546.735 355.984 566.155 311.405V311.405C570.663 301.057 573.413 290.028 574.291 278.774V278.774Z" stroke="url(#paint58_linear)"/>
<path opacity="0.62069" d="M579.595 271.977C585.812 224.502 624.836 188.112 672.629 185.222V185.222C683.724 184.551 694.63 182.033 704.896 177.772V177.772C749.119 159.419 800.146 175.019 826.546 214.964V214.964C832.674 224.238 840.307 232.423 849.13 239.184V239.184C887.137 268.305 899.14 320.296 877.746 363.131V363.131C872.779 373.075 869.507 383.778 868.064 394.8V394.8C861.847 442.275 822.823 478.665 775.03 481.555V481.555C763.935 482.226 753.029 484.744 742.763 489.005V489.005C698.54 507.358 647.513 491.758 621.114 451.813V451.813C614.985 442.54 607.352 434.354 598.529 427.593V427.593C560.523 398.472 548.52 346.481 569.913 303.646V303.646C574.88 293.702 578.152 282.999 579.595 271.977V271.977Z" stroke="url(#paint59_linear)"/>
<path opacity="0.655172" d="M585.196 265.583C593.754 219.23 633.993 185.465 681.128 185.086V185.086C692.07 184.998 702.921 183.085 713.233 179.425V179.425C757.655 163.66 807.016 181.626 830.912 222.257V222.257C836.459 231.689 843.541 240.129 851.867 247.23V247.23C887.731 277.818 896.852 329.549 873.613 370.558V370.558C868.218 380.079 864.45 390.432 862.463 401.193V401.193C853.905 447.546 813.665 481.311 766.531 481.69V481.69C755.589 481.778 744.738 483.691 734.425 487.351V487.351C690.003 503.116 640.642 485.15 616.747 444.519V444.519C611.2 435.087 604.117 426.647 595.792 419.546V419.546C559.928 388.958 550.806 337.227 574.046 296.218V296.218C579.44 286.698 583.209 276.344 585.196 265.583V265.583Z" stroke="url(#paint60_linear)"/>
<path opacity="0.689655" d="M591.063 259.595C601.862 214.477 643.151 183.364 689.497 185.419V185.419C700.256 185.896 711.02 184.575 721.344 181.509V181.509C765.816 168.302 813.406 188.503 834.799 229.668V229.668C839.766 239.224 846.292 247.885 854.109 255.293V255.293C887.783 287.204 894.083 338.518 869.13 377.627V377.627C863.337 386.706 859.1 396.689 856.593 407.163V407.163C845.794 452.28 804.505 483.394 758.158 481.338V481.338C747.399 480.861 736.636 482.183 726.311 485.249V485.249C681.839 498.455 634.249 478.255 612.856 437.09V437.09C607.89 427.533 601.364 418.873 593.546 411.465V411.465C559.873 379.554 553.572 328.239 578.526 289.13V289.13C584.319 280.051 588.556 270.069 591.063 259.595V259.595Z" stroke="url(#paint61_linear)"/>
<path opacity="0.724138" d="M597.172 254.042C610.106 210.265 652.279 181.819 697.714 186.225V186.225C708.262 187.248 718.906 186.504 729.208 184.023V184.023C773.588 173.336 819.309 195.636 838.21 237.186V237.186C842.598 246.832 848.565 255.679 855.865 263.36V263.36C887.31 296.45 890.858 347.197 864.325 384.341V384.341C858.165 392.964 853.487 402.554 850.485 412.717V412.717C837.55 456.494 795.377 484.94 749.943 480.534V480.534C739.395 479.511 728.751 480.255 718.448 482.736V482.736C674.069 493.423 628.347 471.123 609.446 429.572V429.572C605.058 419.926 599.091 411.08 591.792 403.398V403.398C560.347 370.308 556.798 319.562 583.332 282.418V282.418C589.491 273.795 594.169 264.204 597.172 254.042V254.042Z" stroke="url(#paint62_linear)"/>
<path opacity="0.758621" d="M603.492 248.921C618.451 206.583 661.345 180.81 705.75 187.478V187.478C716.059 189.026 726.554 188.842 736.802 186.936V186.936C780.948 178.722 824.715 202.983 841.143 244.773V244.773C844.957 254.474 850.363 263.472 857.138 271.394V271.394C886.324 305.518 887.198 355.551 859.22 390.674V390.674C852.726 398.828 847.637 408.008 844.164 417.837V417.837C829.204 460.175 786.311 485.948 741.905 479.28V479.28C731.596 477.732 721.102 477.915 710.853 479.822V479.822C666.707 488.035 622.941 463.775 606.512 421.985V421.985C602.699 412.283 597.292 403.286 590.517 395.364V395.364C561.331 361.239 560.458 311.206 588.435 276.084V276.084C594.93 267.93 600.019 258.75 603.492 248.921V248.921Z" stroke="url(#paint63_linear)"/>
<path opacity="0.793103" d="M609.996 244.241C626.867 203.432 670.317 180.328 713.584 189.162V189.162C723.628 191.213 733.944 191.573 744.107 190.228V190.228C787.885 184.434 829.618 210.512 843.601 252.399V252.399C846.848 262.123 851.694 271.237 857.94 279.366V279.366C884.846 314.381 883.129 363.562 853.846 396.615V396.615C847.047 404.289 841.577 413.042 837.661 422.516V422.516C820.79 463.326 777.339 486.429 734.072 477.595V477.595C724.028 475.545 713.712 475.184 703.549 476.529V476.529C659.772 482.323 618.038 456.245 604.055 414.359V414.359C600.809 404.635 595.963 395.52 589.716 387.392V387.392C562.81 352.376 564.527 303.195 593.811 270.142V270.142C600.609 262.469 606.079 253.715 609.996 244.241V244.241Z" stroke="url(#paint64_linear)"/>
<path opacity="0.827586" d="M616.654 240.007C635.317 200.808 679.166 180.361 721.191 191.26V191.26C730.947 193.79 741.057 194.675 751.104 193.877V193.877C794.382 190.441 834.015 218.192 845.588 260.036V260.036C848.275 269.75 852.564 278.947 858.278 287.25V287.25C882.893 323.012 878.676 371.21 848.225 402.155V402.155C841.156 409.338 835.335 417.652 831.002 426.751V426.751C812.339 465.95 768.49 486.397 726.465 475.498V475.498C716.709 472.968 706.599 472.083 696.552 472.881V472.881C653.274 476.317 613.641 448.566 602.068 406.722V406.722C599.381 397.008 595.092 387.811 589.378 379.508V379.508C564.763 343.746 568.98 295.548 599.431 264.603V264.603C606.5 257.42 612.321 249.107 616.654 240.007V240.007Z" stroke="url(#paint65_linear)"/>
<path opacity="0.862069" d="M623.439 236.22C643.774 198.707 687.864 180.893 728.551 193.753V193.753C737.996 196.738 747.873 198.126 757.776 197.86V197.86C800.431 196.714 837.903 225.99 847.11 267.655V267.655C849.247 277.328 852.984 286.576 858.165 295.019V295.019C880.486 331.386 873.868 378.476 842.388 407.282V407.282C835.08 413.969 828.939 421.829 824.218 430.538V430.538C803.883 468.052 759.793 485.865 719.106 473.006V473.006C709.661 470.021 699.784 468.633 689.881 468.899V468.899C647.226 470.045 609.754 440.769 600.547 399.103V399.103C598.41 389.431 594.673 380.182 589.492 371.74V371.74C567.171 335.372 573.789 288.283 605.269 259.477V259.477C612.577 252.789 618.718 244.929 623.439 236.22V236.22Z" stroke="url(#paint66_linear)"/>
<path opacity="0.896552" d="M630.321 232.883C652.203 197.12 696.381 181.908 735.642 196.618V196.618C744.756 200.033 754.377 201.903 764.107 202.151V202.151C806.02 203.22 841.282 233.873 848.173 275.229V275.229C849.773 284.83 852.964 294.096 857.614 302.647V302.647C877.645 339.479 868.73 385.343 836.36 411.99V411.99C828.845 418.176 822.416 425.572 817.336 433.874V433.874C795.454 469.638 751.276 484.849 712.015 470.139V470.139C702.901 466.724 693.28 464.854 683.55 464.606V464.606C641.637 463.538 606.375 432.884 599.484 391.528V391.528C597.884 381.928 594.693 372.661 590.043 364.11V364.11C570.012 327.279 578.927 281.414 611.297 254.768V254.768C618.812 248.582 625.241 241.185 630.321 232.883V232.883Z" stroke="url(#paint67_linear)"/>
<path opacity="0.931035" d="M637.273 229.996C660.575 196.04 704.691 183.39 742.446 199.838V199.838C751.211 203.656 760.552 205.985 770.083 206.728V206.728C811.14 209.931 844.154 241.811 848.787 282.732V282.732C849.863 292.232 852.516 301.485 856.638 310.112V310.112C874.393 347.27 863.291 391.8 830.169 416.273V416.273C822.48 421.955 815.793 428.88 810.383 436.762V436.762C787.081 470.718 742.965 483.368 705.21 466.92V466.92C696.445 463.102 687.104 460.773 677.573 460.03V460.03C636.516 456.827 603.502 424.946 598.869 384.026V384.026C597.793 374.526 595.139 365.273 591.018 356.646V356.646C573.263 319.488 584.365 274.958 617.487 250.484V250.484C625.176 244.803 631.863 237.878 637.273 229.996V229.996Z" stroke="url(#paint68_linear)"/>
<path opacity="0.965517" d="M644.267 227.556C668.862 195.457 712.771 185.32 748.948 203.388V203.388C757.346 207.583 766.386 210.346 775.694 211.565V211.565C815.79 216.816 846.523 249.774 848.964 290.138V290.138C849.531 299.509 851.657 308.719 855.256 317.389V317.389C870.756 354.738 857.581 397.834 823.845 420.13V420.13C816.013 425.306 809.1 431.752 803.39 439.204V439.204C778.795 471.302 734.886 481.439 698.709 463.371V463.371C690.311 459.177 681.271 456.413 671.963 455.194V455.194C631.868 449.944 601.134 416.986 598.693 376.622V376.622C598.126 367.251 596 358.041 592.402 349.37V349.37C576.901 312.021 590.077 268.926 623.812 246.63V246.63C631.644 241.454 638.557 235.007 644.267 227.556V227.556Z" stroke="url(#paint69_linear)"/>
<path d="M651.275 225.558C677.033 195.357 720.596 187.676 755.13 207.246V207.246C763.147 211.789 771.866 214.963 780.927 216.636V216.636C819.961 223.842 848.395 257.728 848.714 297.42V297.42C848.788 306.635 850.399 315.773 853.481 324.457V324.457C866.757 361.865 851.628 403.432 817.413 423.554V423.554C809.47 428.226 802.362 434.19 796.382 441.201V441.201C770.624 471.402 727.061 479.083 692.527 459.513V459.513C684.51 454.97 675.791 451.797 666.729 450.124V450.124C627.695 442.917 599.262 409.031 598.943 369.339V369.339C598.869 360.124 597.257 350.987 594.175 342.303V342.303C580.9 304.895 596.029 263.328 630.244 243.205V243.205C638.187 238.534 645.295 232.57 651.275 225.558V225.558Z" stroke="url(#paint70_linear)"/>
<g clip-path="url(#clip0)">
<path d="M692.739 325.868C691.898 324.926 690.864 324.454 689.632 324.454H664.451C664.227 324.454 664.044 324.384 663.907 324.246C663.766 324.109 663.696 323.955 663.696 323.789V307.166C663.696 307 663.766 306.848 663.907 306.709C664.044 306.57 664.227 306.501 664.451 306.501H691.06C697.775 306.501 703.567 309.19 708.436 314.564L714.9 322.293L702.309 337.337L692.739 325.868ZM739.243 314.481C744.112 309.161 749.931 306.501 756.702 306.501H783.228C783.452 306.501 783.619 306.557 783.732 306.667C783.842 306.778 783.899 306.944 783.899 307.166V323.789C783.899 323.955 783.842 324.109 783.732 324.246C783.619 324.384 783.452 324.454 783.228 324.454H758.047C756.815 324.454 755.781 324.926 754.94 325.868L736.39 347.977L755.024 370.251C755.864 371.139 756.869 371.582 758.047 371.582H783.228C783.452 371.582 783.619 371.652 783.732 371.79C783.842 371.929 783.899 372.11 783.899 372.329V388.953C783.899 389.119 783.842 389.273 783.732 389.41C783.619 389.548 783.452 389.618 783.228 389.618H756.702C749.931 389.618 744.139 386.931 739.327 381.555L723.882 363.104L708.436 381.555C703.567 386.931 697.748 389.618 690.977 389.618H664.451C664.227 389.618 664.058 389.548 663.947 389.41C663.834 389.271 663.78 389.092 663.78 388.868V372.244C663.78 372.079 663.834 371.927 663.947 371.788C664.058 371.649 664.227 371.58 664.451 371.58H689.632C690.807 371.58 691.842 371.11 692.739 370.166L710.953 348.39L739.243 314.481Z" fill="url(#paint71_linear)"/>
</g>
</g>
<rect x="479" y="45.3623" width="508" height="234" fill="url(#paint72_radial)"/>
<defs>
<linearGradient id="paint0_linear" x1="934.988" y1="775.741" x2="934.988" y2="450.725" gradientUnits="userSpaceOnUse">
<stop stop-color="#ED1EFF"/>
<stop offset="1" stop-color="#00D1FF"/>
</linearGradient>
<linearGradient id="paint1_linear" x1="1185.48" y1="640.895" x2="1185.48" y2="450.725" gradientUnits="userSpaceOnUse">
<stop stop-color="#ED1EFF"/>
<stop offset="1" stop-color="#00D1FF"/>
</linearGradient>
<linearGradient id="paint2_linear" x1="719.592" y1="775.741" x2="719.592" y2="450.725" gradientUnits="userSpaceOnUse">
<stop stop-color="#ED1EFF"/>
<stop offset="1" stop-color="#00D1FF"/>
</linearGradient>
<linearGradient id="paint3_linear" x1="1326.39" y1="487.047" x2="1326.39" y2="450.725" gradientUnits="userSpaceOnUse">
<stop stop-color="#ED1EFF"/>
<stop offset="1" stop-color="#00D1FF"/>
</linearGradient>
<linearGradient id="paint4_linear" x1="1361.62" y1="472.628" x2="1361.62" y2="450.725" gradientUnits="userSpaceOnUse">
<stop stop-color="#ED1EFF"/>
<stop offset="1" stop-color="#00D1FF"/>
</linearGradient>
<linearGradient id="paint5_linear" x1="1255.93" y1="533.189" x2="1255.93" y2="450.725" gradientUnits="userSpaceOnUse">
<stop stop-color="#ED1EFF"/>
<stop offset="1" stop-color="#00D1FF"/>
</linearGradient>
<linearGradient id="paint6_linear" x1="1220.71" y1="573.571" x2="1220.71" y2="450.725" gradientUnits="userSpaceOnUse">
<stop stop-color="#ED1EFF"/>
<stop offset="1" stop-color="#00D1FF"/>
</linearGradient>
<linearGradient id="paint7_linear" x1="1291.16" y1="506.274" x2="1291.16" y2="450.725" gradientUnits="userSpaceOnUse">
<stop stop-color="#ED1EFF"/>
<stop offset="1" stop-color="#00D1FF"/>
</linearGradient>
<linearGradient id="paint8_linear" x1="113.446" y1="486.987" x2="113.446" y2="450.725" gradientUnits="userSpaceOnUse">
<stop stop-color="#ED1EFF"/>
<stop offset="1" stop-color="#00D1FF"/>
</linearGradient>
<linearGradient id="paint9_linear" x1="1396.84" y1="461.416" x2="1396.84" y2="450.725" gradientUnits="userSpaceOnUse">
<stop stop-color="#ED1EFF"/>
<stop offset="1" stop-color="#00D1FF"/>
</linearGradient>
<linearGradient id="paint10_linear" x1="1432.07" y1="452.446" x2="1432.07" y2="450.725" gradientUnits="userSpaceOnUse">
<stop stop-color="#ED1EFF"/>
<stop offset="1" stop-color="#00D1FF"/>
</linearGradient>
<linearGradient id="paint11_linear" x1="148.673" y1="506.191" x2="148.673" y2="450.725" gradientUnits="userSpaceOnUse">
<stop stop-color="#ED1EFF"/>
<stop offset="1" stop-color="#00D1FF"/>
</linearGradient>
<linearGradient id="paint12_linear" x1="219.127" y1="573.391" x2="219.127" y2="450.725" gradientUnits="userSpaceOnUse">
<stop stop-color="#ED1EFF"/>
<stop offset="1" stop-color="#00D1FF"/>
</linearGradient>
<linearGradient id="paint13_linear" x1="504.198" y1="775.741" x2="504.198" y2="450.725" gradientUnits="userSpaceOnUse">
<stop stop-color="#ED1EFF"/>
<stop offset="1" stop-color="#00D1FF"/>
</linearGradient>
<linearGradient id="paint14_linear" x1="78.2175" y1="472.586" x2="78.2175" y2="450.725" gradientUnits="userSpaceOnUse">
<stop stop-color="#ED1EFF"/>
<stop offset="1" stop-color="#00D1FF"/>
</linearGradient>
<linearGradient id="paint15_linear" x1="183.9" y1="533.071" x2="183.9" y2="450.725" gradientUnits="userSpaceOnUse">
<stop stop-color="#ED1EFF"/>
<stop offset="1" stop-color="#00D1FF"/>
</linearGradient>
<linearGradient id="paint16_linear" x1="254.356" y1="640.571" x2="254.356" y2="450.725" gradientUnits="userSpaceOnUse">
<stop stop-color="#ED1EFF"/>
<stop offset="1" stop-color="#00D1FF"/>
</linearGradient>
<linearGradient id="paint17_linear" x1="7.76646" y1="452.418" x2="7.76646" y2="450.725" gradientUnits="userSpaceOnUse">
<stop stop-color="#ED1EFF"/>
<stop offset="1" stop-color="#00D1FF"/>
</linearGradient>
<linearGradient id="paint18_linear" x1="42.9937" y1="461.381" x2="42.9937" y2="450.725" gradientUnits="userSpaceOnUse">
<stop stop-color="#ED1EFF"/>
<stop offset="1" stop-color="#00D1FF"/>
</linearGradient>
<linearGradient id="paint19_linear" x1="288.804" y1="775.741" x2="288.804" y2="450.725" gradientUnits="userSpaceOnUse">
<stop stop-color="#ED1EFF"/>
<stop offset="1" stop-color="#00D1FF"/>
</linearGradient>
<linearGradient id="paint20_linear" x1="1150.38" y1="775.741" x2="1150.38" y2="450.725" gradientUnits="userSpaceOnUse">
<stop stop-color="#ED1EFF"/>
<stop offset="1" stop-color="#00D1FF"/>
</linearGradient>
<linearGradient id="paint21_linear" x1="719.982" y1="639.919" x2="719.982" y2="638.667" gradientUnits="userSpaceOnUse">
<stop stop-color="#ED1EFF"/>
<stop offset="1" stop-color="#00D1FF"/>
</linearGradient>
<linearGradient id="paint22_linear" x1="719.982" y1="509.227" x2="719.982" y2="507.976" gradientUnits="userSpaceOnUse">
<stop stop-color="#ED1EFF"/>
<stop offset="1" stop-color="#00D1FF"/>
</linearGradient>
<linearGradient id="paint23_linear" x1="719.982" y1="553.457" x2="719.982" y2="552.206" gradientUnits="userSpaceOnUse">
<stop stop-color="#ED1EFF"/>
<stop offset="1" stop-color="#00D1FF"/>
</linearGradient>
<linearGradient id="paint24_linear" x1="719.982" y1="603.185" x2="719.982" y2="601.934" gradientUnits="userSpaceOnUse">
<stop stop-color="#ED1EFF"/>
<stop offset="1" stop-color="#00D1FF"/>
</linearGradient>
<linearGradient id="paint25_linear" x1="719.982" y1="690.56" x2="719.982" y2="689.309" gradientUnits="userSpaceOnUse">
<stop stop-color="#ED1EFF"/>
<stop offset="1" stop-color="#00D1FF"/>
</linearGradient>
<linearGradient id="paint26_linear" x1="719.982" y1="575.317" x2="719.982" y2="574.066" gradientUnits="userSpaceOnUse">
<stop stop-color="#ED1EFF"/>
<stop offset="1" stop-color="#00D1FF"/>
</linearGradient>
<linearGradient id="paint27_linear" x1="719.982" y1="535.845" x2="719.982" y2="534.594" gradientUnits="userSpaceOnUse">
<stop stop-color="#ED1EFF"/>
<stop offset="1" stop-color="#00D1FF"/>
</linearGradient>
<linearGradient id="paint28_linear" x1="719.982" y1="464.311" x2="719.982" y2="463.06" gradientUnits="userSpaceOnUse">
<stop stop-color="#ED1EFF"/>
<stop offset="1" stop-color="#00D1FF"/>
</linearGradient>
<linearGradient id="paint29_linear" x1="719.982" y1="475.606" x2="719.982" y2="474.354" gradientUnits="userSpaceOnUse">
<stop stop-color="#ED1EFF"/>
<stop offset="1" stop-color="#00D1FF"/>
</linearGradient>
<linearGradient id="paint30_linear" x1="719.982" y1="482.363" x2="719.982" y2="481.111" gradientUnits="userSpaceOnUse">
<stop stop-color="#ED1EFF"/>
<stop offset="1" stop-color="#00D1FF"/>
</linearGradient>
<linearGradient id="paint31_linear" x1="719.982" y1="469.629" x2="719.982" y2="468.378" gradientUnits="userSpaceOnUse">
<stop stop-color="#ED1EFF"/>
<stop offset="1" stop-color="#00D1FF"/>
</linearGradient>
<linearGradient id="paint32_linear" x1="719.982" y1="455.243" x2="719.982" y2="453.991" gradientUnits="userSpaceOnUse">
<stop stop-color="#ED1EFF"/>
<stop offset="1" stop-color="#00D1FF"/>
</linearGradient>
<linearGradient id="paint33_linear" x1="719.982" y1="459.542" x2="719.982" y2="458.29" gradientUnits="userSpaceOnUse">
<stop stop-color="#ED1EFF"/>
<stop offset="1" stop-color="#00D1FF"/>
</linearGradient>
<linearGradient id="paint34_linear" x1="719.982" y1="451.351" x2="719.982" y2="450.1" gradientUnits="userSpaceOnUse">
<stop stop-color="#ED1EFF"/>
<stop offset="1" stop-color="#00D1FF"/>
</linearGradient>
<linearGradient id="paint35_linear" x1="719.982" y1="498.924" x2="719.982" y2="497.672" gradientUnits="userSpaceOnUse">
<stop stop-color="#ED1EFF"/>
<stop offset="1" stop-color="#00D1FF"/>
</linearGradient>
<linearGradient id="paint36_linear" x1="719.982" y1="521.356" x2="719.982" y2="520.105" gradientUnits="userSpaceOnUse">
<stop stop-color="#ED1EFF"/>
<stop offset="1" stop-color="#00D1FF"/>
</linearGradient>
<linearGradient id="paint37_linear" x1="719.982" y1="490.063" x2="719.982" y2="488.811" gradientUnits="userSpaceOnUse">
<stop stop-color="#ED1EFF"/>
<stop offset="1" stop-color="#00D1FF"/>
</linearGradient>
<linearGradient id="paint38_linear" x1="719.981" y1="774.704" x2="719.981" y2="775.956" gradientUnits="userSpaceOnUse">
<stop stop-color="#ED1EFF"/>
<stop offset="1" stop-color="#00D1FF"/>
</linearGradient>
<linearGradient id="paint39_linear" x1="1079.5" y1="776.362" x2="1079.5" y2="869.362" gradientUnits="userSpaceOnUse">
<stop stop-color="#ED1EFF"/>
<stop offset="0.643466" stop-color="#00D1FF"/>
<stop offset="1" stop-color="#0C0628"/>
</linearGradient>
<linearGradient id="paint40_linear" x1="720.5" y1="776.362" x2="720.5" y2="869.362" gradientUnits="userSpaceOnUse">
<stop stop-color="#ED1EFF"/>
<stop offset="0.643466" stop-color="#00D1FF"/>
<stop offset="1" stop-color="#0C0628"/>
</linearGradient>
<linearGradient id="paint41_linear" x1="359.5" y1="776.362" x2="359.5" y2="869.362" gradientUnits="userSpaceOnUse">
<stop stop-color="#ED1EFF"/>
<stop offset="0.643466" stop-color="#00D1FF"/>
<stop offset="1" stop-color="#0C0628"/>
</linearGradient>
<linearGradient id="paint42_linear" x1="476.912" y1="350.654" x2="970.749" y2="316.122" gradientUnits="userSpaceOnUse">
<stop stop-color="#ED1EFF"/>
<stop offset="1" stop-color="#00D1FF"/>
</linearGradient>
<linearGradient id="paint43_linear" x1="479.389" y1="337.655" x2="968.271" y2="329.122" gradientUnits="userSpaceOnUse">
<stop stop-color="#ED1EFF"/>
<stop offset="1" stop-color="#00D1FF"/>
</linearGradient>
<linearGradient id="paint44_linear" x1="482.542" y1="324.962" x2="965.118" y2="341.814" gradientUnits="userSpaceOnUse">
<stop stop-color="#ED1EFF"/>
<stop offset="1" stop-color="#00D1FF"/>
</linearGradient>
<linearGradient id="paint45_linear" x1="486.346" y1="312.611" x2="961.315" y2="354.165" gradientUnits="userSpaceOnUse">
<stop stop-color="#ED1EFF"/>
<stop offset="1" stop-color="#00D1FF"/>
</linearGradient>
<linearGradient id="paint46_linear" x1="490.772" y1="300.634" x2="956.888" y2="366.142" gradientUnits="userSpaceOnUse">
<stop stop-color="#ED1EFF"/>
<stop offset="1" stop-color="#00D1FF"/>
</linearGradient>
<linearGradient id="paint47_linear" x1="495.793" y1="289.062" x2="951.867" y2="377.714" gradientUnits="userSpaceOnUse">
<stop stop-color="#ED1EFF"/>
<stop offset="1" stop-color="#00D1FF"/>
</linearGradient>
<linearGradient id="paint48_linear" x1="501.378" y1="277.924" x2="946.281" y2="388.851" gradientUnits="userSpaceOnUse">
<stop stop-color="#ED1EFF"/>
<stop offset="1" stop-color="#00D1FF"/>
</linearGradient>
<linearGradient id="paint49_linear" x1="507.496" y1="267.248" x2="940.164" y2="399.528" gradientUnits="userSpaceOnUse">
<stop stop-color="#ED1EFF"/>
<stop offset="1" stop-color="#00D1FF"/>
</linearGradient>
<linearGradient id="paint50_linear" x1="514.114" y1="257.058" x2="933.546" y2="409.719" gradientUnits="userSpaceOnUse">
<stop stop-color="#ED1EFF"/>
<stop offset="1" stop-color="#00D1FF"/>
</linearGradient>
<linearGradient id="paint51_linear" x1="521.197" y1="247.376" x2="926.462" y2="419.401" gradientUnits="userSpaceOnUse">
<stop stop-color="#ED1EFF"/>
<stop offset="1" stop-color="#00D1FF"/>
</linearGradient>
<linearGradient id="paint52_linear" x1="528.712" y1="238.223" x2="918.948" y2="428.553" gradientUnits="userSpaceOnUse">
<stop stop-color="#ED1EFF"/>
<stop offset="1" stop-color="#00D1FF"/>
</linearGradient>
<linearGradient id="paint53_linear" x1="536.622" y1="229.618" x2="911.038" y2="437.16" gradientUnits="userSpaceOnUse">
<stop stop-color="#ED1EFF"/>
<stop offset="1" stop-color="#00D1FF"/>
</linearGradient>
<linearGradient id="paint54_linear" x1="544.89" y1="221.575" x2="902.77" y2="445.203" gradientUnits="userSpaceOnUse">
<stop stop-color="#ED1EFF"/>
<stop offset="1" stop-color="#00D1FF"/>
</linearGradient>
<linearGradient id="paint55_linear" x1="553.48" y1="214.108" x2="894.179" y2="452.669" gradientUnits="userSpaceOnUse">
<stop stop-color="#ED1EFF"/>
<stop offset="1" stop-color="#00D1FF"/>
</linearGradient>
<linearGradient id="paint56_linear" x1="562.355" y1="207.23" x2="885.306" y2="459.547" gradientUnits="userSpaceOnUse">
<stop stop-color="#ED1EFF"/>
<stop offset="1" stop-color="#00D1FF"/>
</linearGradient>
<linearGradient id="paint57_linear" x1="571.475" y1="200.948" x2="876.184" y2="465.828" gradientUnits="userSpaceOnUse">
<stop stop-color="#ED1EFF"/>
<stop offset="1" stop-color="#00D1FF"/>
</linearGradient>
<linearGradient id="paint58_linear" x1="580.805" y1="195.27" x2="866.856" y2="471.506" gradientUnits="userSpaceOnUse">
<stop stop-color="#ED1EFF"/>
<stop offset="1" stop-color="#00D1FF"/>
</linearGradient>
<linearGradient id="paint59_linear" x1="590.304" y1="190.2" x2="857.355" y2="476.577" gradientUnits="userSpaceOnUse">
<stop stop-color="#ED1EFF"/>
<stop offset="1" stop-color="#00D1FF"/>
</linearGradient>
<linearGradient id="paint60_linear" x1="599.937" y1="185.739" x2="847.722" y2="481.037" gradientUnits="userSpaceOnUse">
<stop stop-color="#ED1EFF"/>
<stop offset="1" stop-color="#00D1FF"/>
</linearGradient>
<linearGradient id="paint61_linear" x1="609.664" y1="181.878" x2="837.991" y2="484.879" gradientUnits="userSpaceOnUse">
<stop stop-color="#ED1EFF"/>
<stop offset="1" stop-color="#00D1FF"/>
</linearGradient>
<linearGradient id="paint62_linear" x1="619.452" y1="178.635" x2="828.205" y2="488.124" gradientUnits="userSpaceOnUse">
<stop stop-color="#ED1EFF"/>
<stop offset="1" stop-color="#00D1FF"/>
</linearGradient>
<linearGradient id="paint63_linear" x1="629.26" y1="175.992" x2="818.395" y2="490.765" gradientUnits="userSpaceOnUse">
<stop stop-color="#ED1EFF"/>
<stop offset="1" stop-color="#00D1FF"/>
</linearGradient>
<linearGradient id="paint64_linear" x1="639.056" y1="173.946" x2="808.6" y2="492.812" gradientUnits="userSpaceOnUse">
<stop stop-color="#ED1EFF"/>
<stop offset="1" stop-color="#00D1FF"/>
</linearGradient>
<linearGradient id="paint65_linear" x1="648.802" y1="172.486" x2="798.854" y2="494.272" gradientUnits="userSpaceOnUse">
<stop stop-color="#ED1EFF"/>
<stop offset="1" stop-color="#00D1FF"/>
</linearGradient>
<linearGradient id="paint66_linear" x1="658.466" y1="171.602" x2="789.191" y2="495.157" gradientUnits="userSpaceOnUse">
<stop stop-color="#ED1EFF"/>
<stop offset="1" stop-color="#00D1FF"/>
</linearGradient>
<linearGradient id="paint67_linear" x1="668.013" y1="171.28" x2="779.644" y2="495.478" gradientUnits="userSpaceOnUse">
<stop stop-color="#ED1EFF"/>
<stop offset="1" stop-color="#00D1FF"/>
</linearGradient>
<linearGradient id="paint68_linear" x1="677.412" y1="171.507" x2="770.244" y2="495.251" gradientUnits="userSpaceOnUse">
<stop stop-color="#ED1EFF"/>
<stop offset="1" stop-color="#00D1FF"/>
</linearGradient>
<linearGradient id="paint69_linear" x1="686.633" y1="172.265" x2="761.025" y2="494.494" gradientUnits="userSpaceOnUse">
<stop stop-color="#ED1EFF"/>
<stop offset="1" stop-color="#00D1FF"/>
</linearGradient>
<linearGradient id="paint70_linear" x1="695.644" y1="173.536" x2="752.013" y2="493.223" gradientUnits="userSpaceOnUse">
<stop stop-color="#ED1EFF"/>
<stop offset="1" stop-color="#00D1FF"/>
</linearGradient>
<linearGradient id="paint71_linear" x1="723.798" y1="306.501" x2="724.047" y2="389.62" gradientUnits="userSpaceOnUse">
<stop stop-color="#00D1FF"/>
<stop offset="1" stop-color="#110A36"/>
</linearGradient>
<radialGradient id="paint72_radial" cx="0" cy="0" r="1" gradientUnits="userSpaceOnUse" gradientTransform="translate(733 157.362) rotate(90) scale(122 264.855)">
<stop stop-color="#140635"/>
<stop offset="1" stop-color="#170637" stop-opacity="0"/>
</radialGradient>
<clipPath id="clip0">
<rect width="120.203" height="83.1188" fill="white" transform="translate(663.696 306.501)"/>
</clipPath>
</defs>
</svg>
