<svg width="512" height="454" viewBox="0 0 512 454" fill="none" xmlns="http://www.w3.org/2000/svg">
<path d="M279.181 232.661C295.001 224.256 306.405 214.771 304.654 211.475C302.903 208.179 288.66 212.321 272.84 220.726C257.021 229.131 245.616 238.616 247.367 241.912C249.118 245.208 263.362 241.066 279.181 232.661Z" stroke="url(#paint0_linear)" strokeWidth="3" stroke-miterlimit="10"/>
<path d="M279.425 232.809C296.326 223.398 308.506 213.037 306.63 209.668C304.754 206.299 289.532 211.196 272.631 220.607C255.73 230.018 243.55 240.379 245.427 243.748C247.303 247.117 262.525 242.22 279.425 232.809Z" stroke="url(#paint1_linear)" strokeWidth="3" stroke-miterlimit="10"/>
<path d="M279.741 232.91C297.804 222.396 310.824 211.083 308.821 207.643C306.818 204.202 290.552 209.936 272.489 220.451C254.425 230.965 241.406 242.278 243.409 245.718C245.411 249.159 261.678 243.424 279.741 232.91Z" stroke="url(#paint2_linear)" strokeWidth="3" stroke-miterlimit="10"/>
<path d="M279.796 233.112C299.043 221.429 312.918 209.113 310.788 205.603C308.658 202.094 291.329 208.721 272.082 220.405C252.835 232.089 238.959 244.405 241.089 247.914C243.219 251.423 260.549 244.796 279.796 233.112Z" stroke="url(#paint3_linear)" strokeWidth="3" stroke-miterlimit="10"/>
<path d="M280.154 233.219C300.609 220.293 315.36 206.917 313.1 203.341C310.841 199.765 292.427 207.345 271.972 220.27C251.517 233.195 236.766 246.572 239.026 250.148C241.285 253.723 259.699 246.144 280.154 233.219Z" stroke="url(#paint4_linear)" strokeWidth="3" stroke-miterlimit="10"/>
<path d="M280.341 233.274C302.074 219.003 317.755 204.484 315.365 200.844C312.975 197.205 293.419 205.823 271.686 220.094C249.954 234.365 234.273 248.885 236.663 252.524C239.053 256.164 258.608 247.545 280.341 233.274Z" stroke="url(#paint5_linear)" strokeWidth="3" stroke-miterlimit="10"/>
<path d="M280.537 233.555C303.565 217.867 320.16 202.107 317.604 198.355C315.047 194.602 294.307 204.278 271.279 219.967C248.251 235.655 231.656 251.415 234.212 255.167C236.768 258.919 257.509 249.243 280.537 233.555Z" stroke="url(#paint6_linear)" strokeWidth="3" stroke-miterlimit="10"/>
<path d="M280.845 233.724C305.234 216.506 322.796 199.417 320.07 195.556C317.343 191.694 295.362 202.522 270.973 219.739C246.584 236.957 229.022 254.046 231.748 257.907C234.475 261.769 256.456 250.941 280.845 233.724Z" stroke="url(#paint7_linear)" strokeWidth="3" stroke-miterlimit="10"/>
<path d="M281.236 233.858C306.949 215.069 325.443 196.621 322.544 192.654C319.645 188.686 296.45 200.702 270.738 219.491C245.025 238.28 226.531 256.728 229.43 260.696C232.329 264.663 255.524 252.648 281.236 233.858Z" stroke="url(#paint8_linear)" strokeWidth="3" stroke-miterlimit="10"/>
<path d="M281.584 234.196C308.682 213.724 328.156 193.83 325.082 189.76C322.007 185.691 297.548 198.987 270.451 219.459C243.353 239.93 223.879 259.825 226.953 263.895C230.028 267.964 254.487 254.668 281.584 234.196Z" stroke="url(#paint9_linear)" strokeWidth="3" stroke-miterlimit="10"/>
<path d="M282.08 234.313C310.616 212.035 331.081 190.558 327.789 186.341C324.497 182.124 298.695 196.765 270.159 219.043C241.622 241.32 221.157 262.798 224.449 267.015C227.741 271.232 253.543 256.591 282.08 234.313Z" stroke="url(#paint10_linear)" strokeWidth="3" stroke-miterlimit="10"/>
<path d="M282.339 234.673C312.267 210.553 333.682 187.466 330.169 183.107C326.656 178.748 299.547 194.769 269.618 218.89C239.689 243.01 218.274 266.097 221.787 270.456C225.3 274.814 252.41 258.794 282.339 234.673Z" stroke="url(#paint11_linear)" strokeWidth="3" stroke-miterlimit="10"/>
<path d="M282.655 234.861C314.025 208.771 336.424 183.978 332.685 179.483C328.947 174.988 300.487 192.494 269.117 218.583C237.748 244.672 215.349 269.466 219.087 273.961C222.826 278.456 251.286 260.95 282.655 234.861Z" stroke="url(#paint12_linear)" strokeWidth="3" stroke-miterlimit="10"/>
<path d="M283.185 235.043C315.996 206.897 339.377 180.329 335.408 175.703C331.439 171.076 301.624 190.143 268.813 218.289C236.002 246.435 212.621 273.003 216.59 277.629C220.559 282.256 250.375 263.189 283.185 235.043Z" stroke="url(#paint13_linear)" strokeWidth="3" stroke-miterlimit="10"/>
<path d="M283.739 235.429C318.032 205.101 342.391 176.624 338.147 171.825C333.903 167.026 302.662 187.721 268.369 218.05C234.076 248.378 209.717 276.855 213.961 281.654C218.206 286.453 249.446 265.758 283.739 235.429Z" stroke="url(#paint14_linear)" strokeWidth="3" stroke-miterlimit="10"/>
<path d="M284.263 235.816C319.979 203.257 345.229 172.801 340.661 167.791C336.094 162.78 303.438 185.113 267.723 217.673C232.008 250.232 206.757 280.688 211.325 285.698C215.892 290.709 248.548 268.376 284.263 235.816Z" stroke="url(#paint15_linear)" strokeWidth="3" stroke-miterlimit="10"/>
<path d="M284.955 236.12C322.081 201.236 348.207 168.73 343.308 163.517C338.41 158.304 304.342 182.357 267.216 217.242C230.09 252.127 203.964 284.633 208.863 289.846C213.761 295.059 247.829 271.005 284.955 236.12Z" stroke="url(#paint16_linear)" strokeWidth="3" stroke-miterlimit="10"/>
<path d="M285.56 236.462C324.078 199.162 351.059 164.54 345.823 159.134C340.587 153.727 305.117 179.582 266.599 216.883C228.082 254.183 201.101 288.805 206.337 294.211C211.573 299.618 247.043 273.763 285.56 236.462Z" stroke="url(#paint17_linear)" strokeWidth="3" stroke-miterlimit="10"/>
<path d="M286.175 236.982C326.105 197.13 353.916 160.256 348.292 154.621C342.668 148.986 305.739 176.723 265.808 216.575C225.878 256.427 198.067 293.301 203.691 298.936C209.315 304.571 246.244 276.833 286.175 236.982Z" stroke="url(#paint18_linear)" strokeWidth="3" stroke-miterlimit="10"/>
<path d="M286.943 237.333C328.172 194.915 356.713 155.784 350.692 149.932C344.67 144.079 306.366 173.721 265.138 216.139C223.909 258.556 195.367 297.687 201.389 303.54C207.41 309.393 245.714 279.751 286.943 237.333Z" stroke="url(#paint19_linear)" strokeWidth="3" stroke-miterlimit="10"/>
<path d="M287.789 237.79C330.324 192.663 359.521 151.1 353.003 144.956C346.486 138.813 306.721 170.415 264.186 215.542C221.651 260.669 192.454 302.232 198.972 308.375C205.489 314.519 245.254 282.916 287.789 237.79Z" stroke="url(#paint20_linear)" strokeWidth="3" stroke-miterlimit="10"/>
<path d="M288.659 238.276C332.423 190.386 362.243 146.393 355.264 140.015C348.285 133.637 307.149 167.29 263.385 215.18C219.621 263.07 189.801 307.063 196.78 313.441C203.759 319.819 244.895 286.166 288.659 238.276Z" stroke="url(#paint21_linear)" strokeWidth="3" stroke-miterlimit="10"/>
<path d="M289.614 238.715C334.516 188.001 364.8 141.475 357.256 134.795C349.712 128.116 307.196 163.812 262.294 214.526C217.392 265.239 187.108 311.766 194.652 318.445C202.196 325.125 244.712 289.428 289.614 238.715Z" stroke="url(#paint22_linear)" strokeWidth="3" stroke-miterlimit="10"/>
<path d="M290.834 239.448C336.833 185.811 367.5 136.651 359.332 129.645C351.164 122.64 307.253 160.443 261.254 214.08C215.255 267.717 184.587 316.877 192.755 323.882C200.924 330.888 244.835 293.085 290.834 239.448Z" stroke="url(#paint23_linear)" strokeWidth="3" stroke-miterlimit="10"/>
<path d="M291.895 239.991C338.845 183.417 369.766 131.63 360.959 124.322C352.152 117.013 306.953 156.95 260.003 213.524C213.053 270.098 182.132 321.884 190.939 329.193C199.745 336.502 244.945 296.564 291.895 239.991Z" stroke="url(#paint24_linear)" strokeWidth="3" stroke-miterlimit="10"/>
<path d="M293.285 240.484C341.123 180.858 372.156 126.306 362.598 118.638C353.041 110.969 306.512 153.09 258.674 212.715C210.836 272.341 179.803 326.894 189.361 334.562C198.918 342.23 245.447 300.11 293.285 240.484Z" stroke="url(#paint25_linear)" strokeWidth="3" stroke-miterlimit="10"/>
<path d="M294.773 241.232C343.355 178.55 374.33 121.218 363.956 113.178C353.583 105.138 305.79 149.435 257.208 212.117C208.626 274.799 177.652 332.131 188.025 340.171C198.399 348.211 246.191 303.914 294.773 241.232Z" stroke="url(#paint26_linear)" strokeWidth="3" stroke-miterlimit="10"/>
<path d="M296.454 242.092C345.663 176.293 376.389 116.098 365.082 107.642C353.776 99.1861 304.718 145.671 255.509 211.469C206.3 277.268 175.574 337.463 186.881 345.919C198.187 354.375 247.245 307.89 296.454 242.092Z" stroke="url(#paint27_linear)" strokeWidth="3" stroke-miterlimit="10"/>
<path d="M298.162 242.715C347.796 173.834 378.092 110.832 365.829 101.996C353.567 93.1598 303.39 141.836 253.756 210.718C204.122 279.599 173.826 342.601 186.089 351.437C198.351 360.273 248.528 311.597 298.162 242.715Z" stroke="url(#paint28_linear)" strokeWidth="3" stroke-miterlimit="10"/>
<path d="M300.149 243.514C350.077 171.492 379.695 105.58 366.303 96.296C352.911 87.012 301.579 137.871 251.651 209.893C201.723 281.915 172.105 347.827 185.497 357.111C198.89 366.395 250.221 315.536 300.149 243.514Z" stroke="url(#paint29_linear)" strokeWidth="3" stroke-miterlimit="10"/>
<path d="M302.518 244.301C352.57 169.123 381.267 100.272 366.615 90.5167C351.963 80.7614 299.509 133.796 249.457 208.974C199.405 284.151 170.708 353.002 185.361 362.758C200.013 372.513 252.466 319.478 302.518 244.301Z" stroke="url(#paint30_linear)" strokeWidth="3" stroke-miterlimit="10"/>
<path d="M305.011 245.115C355.005 166.778 382.569 94.9999 366.577 84.7936C350.584 74.5872 297.092 129.818 247.097 208.155C197.103 286.492 169.539 358.27 185.531 368.476C201.524 378.683 255.017 323.452 305.011 245.115Z" stroke="url(#paint31_linear)" strokeWidth="3" stroke-miterlimit="10"/>
<path d="M307.86 246.07C357.538 164.677 383.564 90.0002 365.99 79.2738C348.416 68.5475 293.897 125.834 244.219 207.226C194.54 288.619 168.515 363.296 186.089 374.022C203.663 384.749 258.181 327.462 307.86 246.07Z" stroke="url(#paint32_linear)" strokeWidth="3" stroke-miterlimit="10"/>
<path d="M310.898 247.011C360.068 162.565 384.329 85.0244 365.085 73.8194C345.842 62.6144 290.381 121.988 241.211 206.434C192.04 290.88 167.779 368.42 187.023 379.625C206.267 390.83 261.727 331.456 310.898 247.011Z" stroke="url(#paint33_linear)" strokeWidth="3" stroke-miterlimit="10"/>
<path d="M314.22 247.917C362.638 160.477 384.73 80.0913 363.564 68.3709C342.397 56.6505 285.988 118.034 237.57 205.474C189.152 292.915 167.06 373.301 188.226 385.021C209.393 396.741 265.802 335.358 314.22 247.917Z" stroke="url(#paint34_linear)" strokeWidth="3" stroke-miterlimit="10"/>
<path d="M318.293 248.993C365.735 158.621 385.265 75.4223 361.914 63.1643C338.564 50.9063 281.175 114.23 233.734 204.603C186.292 294.975 166.761 378.174 190.112 390.432C213.462 402.69 270.851 339.366 318.293 248.993Z" stroke="url(#paint35_linear)" strokeWidth="3" stroke-miterlimit="10"/>
<path d="M322.679 249.851C368.864 156.669 385.432 70.785 359.685 58.0232C333.937 45.2615 275.624 110.455 229.438 203.637C183.253 296.819 166.685 382.703 192.432 395.465C218.18 408.227 276.493 343.033 322.679 249.851Z" stroke="url(#paint36_linear)" strokeWidth="3" stroke-miterlimit="10"/>
<path d="M327.628 250.713C372.308 154.804 385.446 66.3006 356.972 53.0358C328.498 39.771 269.195 106.767 224.515 202.677C179.835 298.586 166.697 387.089 195.171 400.353C223.645 413.618 282.948 346.622 327.628 250.713Z" stroke="url(#paint37_linear)" strokeWidth="3" stroke-miterlimit="10"/>
<path d="M332.93 251.513C375.822 153.032 385.075 62.083 353.598 48.3734C322.12 34.6637 261.831 103.385 218.939 201.866C176.047 300.348 166.793 391.297 198.271 405.007C229.748 418.716 290.037 349.995 332.93 251.513Z" stroke="url(#paint38_linear)" strokeWidth="3" stroke-miterlimit="10"/>
<path d="M339.211 252.392C380.051 151.499 384.836 58.2448 349.898 44.1024C314.961 29.96 253.531 100.285 212.69 201.177C171.85 302.07 167.065 395.324 202.003 409.466C236.94 423.609 298.37 353.284 339.211 252.392Z" stroke="url(#paint39_linear)" strokeWidth="3" stroke-miterlimit="10"/>
<path d="M346.092 252.901C384.603 149.766 384.41 54.429 345.661 39.9603C306.913 25.4916 244.282 97.3702 205.771 200.506C167.26 303.641 167.453 398.978 206.202 413.447C244.951 427.916 307.582 356.037 346.092 252.901Z" stroke="url(#paint40_linear)" strokeWidth="3" stroke-miterlimit="10"/>
<path d="M353.976 253.407C389.9 148.225 384.094 51.0295 341.009 36.3141C297.924 21.5988 233.875 94.9364 197.951 200.118C162.027 305.3 167.832 402.496 210.917 417.212C254.002 431.927 318.052 358.589 353.976 253.407Z" stroke="url(#paint41_linear)" strokeWidth="3" stroke-miterlimit="10"/>
<path d="M362.82 253.557C395.9 146.532 383.84 47.7545 335.884 32.9319C287.928 18.1093 222.235 92.8544 189.155 199.88C156.075 306.905 168.134 405.682 216.091 420.505C264.047 435.328 329.74 360.583 362.82 253.557Z" stroke="url(#paint42_linear)" strokeWidth="3" stroke-miterlimit="10"/>
<path opacity="0.8" d="M372.602 253.413C402.61 144.716 383.631 44.6448 330.212 29.8976C276.793 15.1504 209.162 91.3116 179.154 200.009C149.147 308.706 168.126 408.777 221.545 423.524C274.964 438.272 342.595 362.11 372.602 253.413Z" stroke="url(#paint43_linear)" strokeWidth="3" stroke-miterlimit="10"/>
<path opacity="0.8" d="M383.801 252.877C410.524 142.745 383.921 41.7545 324.382 27.3078C264.843 12.8611 194.914 90.4293 168.191 200.561C141.469 310.693 168.072 411.684 227.61 426.131C287.149 440.577 357.078 363.009 383.801 252.877Z" stroke="url(#paint44_linear)" strokeWidth="3" stroke-miterlimit="10"/>
<path opacity="0.8" d="M396.136 251.789C419.365 140.487 384.395 39.0306 318.028 25.1795C251.66 11.3285 179.028 90.3279 155.799 201.63C132.57 312.932 167.54 414.388 233.908 428.239C300.275 442.09 372.907 363.091 396.136 251.789Z" stroke="url(#paint45_linear)" strokeWidth="3" stroke-miterlimit="10"/>
<path opacity="0.5" d="M410.082 250.146C429.669 137.832 385.495 36.3116 311.416 23.3924C237.337 10.4731 161.405 91.0477 141.818 203.361C122.231 315.674 166.405 417.195 240.484 430.114C314.563 443.034 390.494 362.459 410.082 250.146Z" stroke="url(#paint46_linear)" strokeWidth="3" stroke-miterlimit="10"/>
<path opacity="0.5" d="M425.553 247.543C441.358 134.44 387.203 33.3948 304.594 21.8509C221.985 10.307 142.205 92.6362 126.4 205.738C110.595 318.841 164.75 419.886 247.359 431.43C329.968 442.974 409.748 360.645 425.553 247.543Z" stroke="url(#paint47_linear)" strokeWidth="3" stroke-miterlimit="10"/>
<path opacity="0.5" d="M442.651 244.223C454.568 130.591 389.563 30.6429 297.457 20.9831C205.351 11.3234 121.024 95.6097 109.106 209.242C97.1888 322.874 162.194 422.822 254.3 432.482C346.406 442.142 430.734 357.855 442.651 244.223Z" stroke="url(#paint48_linear)" strokeWidth="3" stroke-miterlimit="10"/>
<path opacity="0.3" d="M461.847 239.638C469.822 125.59 393.087 27.3175 290.456 20.1411C187.825 12.9646 98.1607 99.6016 90.1859 213.65C82.2112 327.699 158.945 425.971 261.577 433.148C364.208 440.324 453.872 353.687 461.847 239.638Z" stroke="url(#paint49_linear)" strokeWidth="3" stroke-miterlimit="10"/>
<path opacity="0.3" d="M276 433.716C390.323 433.716 483 341.039 483 226.716C483 112.393 390.323 19.7164 276 19.7164C161.677 19.7164 69 112.393 69 226.716C69 341.039 161.677 433.716 276 433.716Z" stroke="url(#paint50_linear)" strokeWidth="3" stroke-miterlimit="10"/>
<path d="M411 317L133 141" stroke="url(#paint51_linear)" strokeWidth="3" stroke-miterlimit="10"/>
<path d="M449.8 375.6C475.647 375.6 496.6 354.647 496.6 328.8C496.6 302.953 475.647 282 449.8 282C423.953 282 403 302.953 403 328.8C403 354.647 423.953 375.6 449.8 375.6Z" fill="#0F0436"/>
<path d="M458.68 310.85L460.56 303.31L455.97 302.17L454.14 309.52C452.93 309.22 451.69 308.94 450.46 308.65L452.3 301.26L447.71 300.12L445.83 307.66C444.83 307.43 443.85 307.21 442.9 306.97L442.91 306.95L436.58 305.37L435.36 310.27C435.36 310.27 438.77 311.05 438.7 311.1C440.56 311.56 440.9 312.79 440.84 313.77L438.7 322.36C438.83 322.39 438.99 322.44 439.18 322.51C439.03 322.47 438.86 322.43 438.69 322.39L435.69 334.43C435.46 334.99 434.89 335.84 433.59 335.52C433.64 335.59 430.25 334.69 430.25 334.69L427.97 339.95L433.95 341.44C435.06 341.72 436.15 342.01 437.22 342.28L435.32 349.91L439.91 351.05L441.79 343.5C442.8 343.77 444.44 344.2 445.45 344.45L443.57 351.96L448.16 353.1L450.06 345.49C457.89 346.97 463.78 346.37 466.26 339.29C468.26 333.59 466.16 330.3 462.04 328.15C465.04 327.46 467.3 325.49 467.9 321.41C468.71 315.84 464.47 312.85 458.68 310.85ZM443.25 337.97L445.77 327.86C448.88 328.64 458.86 330.17 457.38 336.12C455.97 341.82 446.37 338.74 443.25 337.97ZM446.93 323.23L449.22 314.06C451.81 314.71 460.16 315.91 458.81 321.32C457.51 326.51 449.52 323.88 446.93 323.23Z" fill="white"/>
<path d="M495.891 329.411C495.936 335.417 494.798 341.438 492.499 347.023C490.215 352.608 486.793 357.749 482.502 362.054C478.204 366.351 473.037 369.821 467.383 372.166C461.729 374.525 455.596 375.753 449.456 375.797C443.308 375.842 437.145 374.695 431.431 372.402C428.578 371.248 425.837 369.821 423.269 368.127C420.708 366.425 418.319 364.473 416.147 362.313C411.842 357.956 408.389 352.778 406.143 347.134C405.02 344.308 404.188 341.387 403.657 338.413C403.148 335.432 402.915 332.414 403.028 329.411H403.178C403.395 335.395 404.705 341.305 407.109 346.742C409.505 352.171 412.927 357.15 417.211 361.27C419.33 363.348 421.651 365.22 424.138 366.847C426.616 368.489 429.245 369.902 432 371.049C437.497 373.356 443.465 374.562 449.463 374.614C455.454 374.651 461.46 373.519 467.024 371.278C472.587 369.044 477.702 365.708 481.985 361.529C486.276 357.357 489.743 352.342 492.095 346.846C494.461 341.357 495.697 335.388 495.749 329.403H495.891V329.411Z" fill="url(#paint52_linear)"/>
<path d="M403.001 327.073C402.956 321.136 404.095 315.184 406.394 309.664C408.677 304.143 412.1 299.061 416.391 294.806C420.689 290.558 425.856 287.128 431.51 284.81C437.163 282.478 443.296 281.264 449.437 281.22C455.585 281.176 461.748 282.31 467.461 284.577C470.314 285.717 473.055 287.128 475.624 288.803C478.185 290.485 480.574 292.415 482.745 294.55C487.051 298.857 490.503 303.975 492.75 309.554C493.873 312.347 494.704 315.235 495.236 318.175C495.745 321.121 495.977 324.105 495.865 327.073H495.715C495.498 321.158 494.187 315.316 491.784 309.942C489.387 304.575 485.958 299.654 481.682 295.581C479.563 293.526 477.241 291.676 474.755 290.068C472.276 288.445 469.648 287.048 466.892 285.915C461.396 283.633 455.428 282.441 449.429 282.39C443.439 282.354 437.433 283.472 431.869 285.688C426.305 287.896 421.191 291.194 416.907 295.325C412.616 299.449 409.149 304.406 406.798 309.839C404.432 315.265 403.196 321.165 403.144 327.081H403.001V327.073Z" fill="url(#paint53_linear)"/>
<g filter="url(#filter0_f)">
<path d="M495.576 330.564C495.725 336.585 494.677 342.665 492.448 348.324C490.233 353.983 486.867 359.227 482.608 363.643C478.328 368.045 473.163 371.61 467.478 374.058C461.801 376.514 455.603 377.831 449.375 377.934C443.148 378.038 436.876 376.943 431.02 374.68C425.164 372.409 419.806 368.843 415.443 364.339C413.281 362.075 411.334 359.612 409.669 356.971C408.027 354.323 406.622 351.534 405.582 348.62C403.449 342.813 402.602 336.585 403.174 330.564H403.568C404.14 336.533 405.656 342.296 408.153 347.562C409.417 350.188 410.866 352.711 412.575 355.041C414.262 357.385 416.149 359.582 418.245 361.557C422.407 365.53 427.244 368.77 432.521 371.085C437.79 373.422 443.556 374.68 449.383 374.791C455.201 374.887 461.057 373.851 466.497 371.706C471.944 369.568 476.975 366.336 481.211 362.26C485.47 358.199 488.94 353.288 491.326 347.866C493.718 342.451 495.034 336.541 495.19 330.571H495.576V330.564Z" fill="#EB1CFD"/>
<path d="M403.159 327.117C403.011 321.096 404.059 315.015 406.288 309.357C408.503 303.698 411.869 298.453 416.127 294.037C420.408 289.636 425.572 286.071 431.258 283.622C436.935 281.167 443.133 279.85 449.36 279.746C455.588 279.643 461.86 280.738 467.716 283.001C473.572 285.272 478.93 288.837 483.292 293.342C485.455 295.606 487.402 298.069 489.066 300.71C490.709 303.358 492.113 306.146 493.154 309.061C495.287 314.867 496.134 321.096 495.562 327.117H495.168C494.595 321.148 493.079 315.385 490.582 310.119C489.319 307.493 487.87 304.97 486.161 302.64C484.474 300.295 482.586 298.098 480.491 296.123C476.329 292.151 471.491 288.911 466.215 286.596C460.946 284.259 455.179 283.001 449.353 282.89C443.534 282.794 437.678 283.83 432.238 285.975C426.791 288.112 421.76 291.345 417.524 295.421C413.266 299.482 409.796 304.393 407.41 309.815C405.017 315.23 403.702 321.14 403.546 327.11H403.159V327.117Z" fill="#31D8A4"/>
</g>
<g filter="url(#filter1_f)">
<path d="M495.774 330.219C495.967 336.248 494.949 342.35 492.735 348.038C490.542 353.734 487.191 359.008 482.925 363.476C478.637 367.914 473.457 371.531 467.743 374.017C462.035 376.51 455.793 377.863 449.521 377.989C443.241 378.122 436.902 377.042 430.972 374.793C425.049 372.523 419.624 368.92 415.24 364.349C413.07 362.048 411.108 359.548 409.451 356.878C407.823 354.193 406.419 351.367 405.401 348.416C403.312 342.535 402.547 336.248 403.26 330.219H403.758C404.472 336.181 406.077 341.884 408.618 347.084C409.911 349.673 411.361 352.159 413.085 354.452C414.772 356.76 416.659 358.919 418.74 360.858C422.872 364.771 427.65 367.959 432.852 370.281C438.047 372.626 443.754 373.906 449.521 374.046C455.288 374.165 461.099 373.166 466.517 371.058C471.934 368.957 476.95 365.769 481.186 361.73C485.444 357.714 488.922 352.839 491.337 347.454C493.745 342.069 495.098 336.181 495.291 330.219H495.774Z" fill="#EB1CFD"/>
<path d="M403.26 326.772C403.067 320.743 404.085 314.648 406.3 308.96C408.492 303.272 411.844 297.99 416.102 293.53C420.382 289.092 425.562 285.475 431.277 282.989C436.984 280.489 443.219 279.135 449.491 279.01C455.741 278.891 462.095 279.875 468.04 282.124C473.985 284.38 479.395 288.049 483.72 292.664C485.868 294.987 487.8 297.495 489.435 300.172C491.048 302.865 492.445 305.676 493.47 308.612C495.566 314.456 496.465 320.729 495.767 326.772H495.269C493.82 314.892 488.38 304.034 480.183 296.111C476.096 292.154 471.362 288.929 466.167 286.628C463.574 285.475 460.846 284.572 458.052 283.966C455.251 283.359 452.382 283.026 449.491 282.945C443.724 282.826 437.921 283.832 432.503 285.941C427.093 288.041 422.077 291.229 417.848 295.268C413.598 299.285 410.112 304.152 407.704 309.544C405.297 314.929 403.952 320.81 403.751 326.772H403.26Z" fill="#31D8A4"/>
</g>
<path d="M81 171C116.899 171 146 141.899 146 106C146 70.1015 116.899 41 81 41C45.1015 41 16 70.1015 16 106C16 141.899 45.1015 171 81 171Z" fill="url(#paint54_linear)"/>
<path d="M81.0146 88.6463L88.6063 79.4098C98.1182 79.9257 106.977 82.1814 115.044 85.8656L114.593 85.6794C112.053 88.9699 108.704 91.5247 104.839 93.0662L104.682 93.1211C104.235 88.7287 101.143 87.6573 91.3271 87.6573L81.0176 145.536L70.6468 87.6451C60.8926 87.6451 57.8007 88.7257 57.3497 93.115C53.3315 91.5308 49.985 88.9882 47.4851 85.7618L47.4452 85.7099C55.0553 82.2058 63.9139 79.944 73.2388 79.4312L73.4259 79.422L81.0176 88.6463H81.0146ZM81.0146 76.7421C81.3428 76.7359 81.7293 76.7359 82.1157 76.7359C94.284 76.7359 105.851 79.2999 116.299 83.9151L115.762 83.7045C116.489 82.5019 117.182 81.1008 117.756 79.6418L117.823 79.4495C106.931 74.9839 94.2932 72.3588 81.0452 72.2825H81.0146C67.739 72.3558 55.0983 74.9808 43.5374 79.6937L44.206 79.4526C44.8931 81.1466 45.5833 82.5507 46.3624 83.9029L46.2673 83.7259C56.1995 79.306 67.7911 76.7329 79.9901 76.7329C80.352 76.7329 80.7109 76.7359 81.0698 76.739H81.0146V76.7421Z" fill="white"/>
<path d="M145.848 106.779C145.911 115.212 144.32 123.666 141.106 131.507C137.914 139.348 133.13 146.566 127.132 152.611C121.124 158.645 113.901 163.516 105.998 166.808C98.0947 170.121 89.5217 171.845 80.9382 171.908C72.3443 171.97 63.7295 170.36 55.7426 167.141C51.7545 165.52 47.9233 163.516 44.3329 161.138C40.7529 158.749 37.4138 156.007 34.3782 152.974C28.3593 146.857 23.5337 139.587 20.3934 131.663C18.8232 127.696 17.6613 123.593 16.9181 119.418C16.2063 115.233 15.8818 110.995 16.0388 106.779H16.2482C16.5517 115.181 18.3836 123.479 21.7437 131.113C25.0933 138.736 29.8771 145.725 35.8645 151.51C38.8269 154.428 42.0719 157.056 45.5471 159.341C49.0119 161.647 52.6861 163.63 56.5382 165.24C64.2214 168.48 72.5641 170.173 80.9487 170.246C89.3228 170.298 97.7179 168.709 105.495 165.562C113.273 162.425 120.422 157.742 126.41 151.874C132.408 146.016 137.254 138.975 140.541 131.258C143.849 123.552 145.576 115.17 145.649 106.768H145.848V106.779Z" fill="url(#paint55_linear)"/>
<path d="M16.0018 103.497C15.939 95.1607 17.5301 86.804 20.7436 79.053C23.9363 71.302 28.72 64.167 34.718 58.1921C40.7264 52.2274 47.949 47.4125 55.8521 44.1582C63.7552 40.8832 72.3282 39.179 80.9117 39.1174C89.5056 39.0558 98.1205 40.6471 106.107 43.8296C110.095 45.4312 113.927 47.4126 117.517 49.7635C121.097 52.1247 124.436 54.835 127.472 57.8328C133.491 63.8796 138.316 71.0659 141.457 78.899C143.027 82.8207 144.189 86.8759 144.932 91.0029C145.644 95.1402 145.968 99.3288 145.811 103.497H145.602C145.298 95.1915 143.466 86.9888 140.106 79.4431C136.757 71.9077 131.962 64.9986 125.985 59.2803C123.023 56.3955 119.778 53.7981 116.303 51.5396C112.838 49.2605 109.164 47.2996 105.312 45.7084C97.6285 42.5053 89.2858 40.8319 80.9012 40.76C72.5271 40.7087 64.132 42.2794 56.3546 45.3901C48.5771 48.4905 41.4277 53.1206 35.4402 58.921C29.4422 64.7111 24.5957 71.6716 21.3089 79.2994C18.0011 86.917 16.274 95.2018 16.2007 103.507H16.0018V103.497Z" fill="url(#paint56_linear)"/>
<g filter="url(#filter2_f)">
<path d="M145.408 108.398C145.615 116.852 144.151 125.389 141.034 133.334C137.939 141.279 133.233 148.642 127.281 154.843C121.297 161.022 114.078 166.028 106.131 169.466C98.1943 172.914 89.5307 174.763 80.8256 174.908C72.1204 175.053 63.353 173.516 55.1672 170.338C46.9815 167.15 39.4917 162.144 33.394 155.819C30.3711 152.641 27.6494 149.183 25.3225 145.475C23.0268 141.757 21.0634 137.841 19.6091 133.749C16.6278 125.597 15.4435 116.852 16.2434 108.398H16.794C17.5939 116.779 19.713 124.87 23.2034 132.264C24.9693 135.951 26.995 139.493 29.3842 142.764C31.7423 146.056 34.3809 149.141 37.3103 151.914C43.1275 157.491 49.8901 162.04 57.2656 165.291C64.6307 168.573 72.6918 170.338 80.836 170.494C88.9698 170.629 97.1555 169.175 104.76 166.163C112.374 163.162 119.407 158.623 125.328 152.901C131.28 147.199 136.131 140.303 139.466 132.69C142.811 125.088 144.649 116.789 144.868 108.408H145.408V108.398Z" fill="#EB1CFD"/>
<path d="M16.2227 103.558C16.015 95.1041 17.4797 86.5671 20.5961 78.622C23.6917 70.6769 28.3975 63.3135 34.3498 57.1132C40.3333 50.9337 47.5529 45.9278 55.4997 42.4901C63.4362 39.0421 72.0998 37.1934 80.8049 37.048C89.51 36.9026 98.2775 38.4397 106.463 41.6177C114.649 44.8061 122.139 49.812 128.236 56.1369C131.259 59.315 133.981 62.7734 136.308 66.4811C138.604 70.1992 140.567 74.1146 142.021 78.2066C145.003 86.3594 146.187 95.1041 145.387 103.558H144.836C144.037 95.1768 141.917 87.0864 138.427 79.6917C136.661 76.0048 134.635 72.4633 132.246 69.1918C129.888 65.8995 127.25 62.815 124.32 60.042C118.503 54.4648 111.74 49.9159 104.365 46.6652C96.9998 43.3833 88.9387 41.6177 80.7945 41.4619C72.6607 41.3269 64.475 42.7809 56.8709 45.7928C49.2565 48.7942 42.2239 53.3328 36.3027 59.0553C30.3504 64.7571 25.4992 71.6532 22.1647 79.2659C18.8197 86.8683 16.981 95.1665 16.7629 103.548H16.2227V103.558Z" fill="#31D8A4"/>
</g>
<g filter="url(#filter3_f)">
<path d="M145.684 107.914C145.954 116.378 144.531 124.946 141.435 132.933C138.371 140.93 133.686 148.335 127.723 154.608C121.729 160.839 114.489 165.918 106.501 169.407C98.5226 172.907 89.7967 174.808 81.0292 174.985C72.2514 175.172 63.3904 173.655 55.1008 170.498C46.8215 167.31 39.2383 162.252 33.1094 155.833C30.0761 152.603 27.3337 149.093 25.0171 145.344C22.7422 141.574 20.7788 137.606 19.3557 133.462C16.4367 125.206 15.3667 116.378 16.3639 107.914H17.0599C18.0572 116.285 20.301 124.292 23.8537 131.593C25.6612 135.228 27.6868 138.718 30.0969 141.937C32.4549 145.178 35.0935 148.21 38.0021 150.931C43.7779 156.425 50.4573 160.902 57.7289 164.163C64.9901 167.455 72.9681 169.252 81.0292 169.449C89.0903 169.615 97.2137 168.213 104.787 165.253C112.359 162.304 119.371 157.827 125.292 152.157C131.245 146.517 136.106 139.673 139.482 132.112C142.848 124.552 144.739 116.285 145.009 107.914H145.684Z" fill="#EB1CFD"/>
<path d="M16.3639 103.074C16.0938 94.6095 17.5169 86.0517 20.6126 78.0651C23.677 70.0785 28.362 62.6631 34.3143 56.4005C40.2978 50.1691 47.5382 45.0905 55.5266 41.6009C63.5046 38.0905 72.2201 36.1899 80.9876 36.0133C89.7239 35.8472 98.6056 37.2285 106.916 40.3857C115.226 43.5534 122.789 48.7047 128.835 55.1854C131.837 58.4465 134.538 61.9672 136.823 65.7269C139.077 69.5073 141.03 73.4538 142.464 77.577C145.393 85.7817 146.65 94.5888 145.674 103.074H144.978C142.952 86.3944 135.348 71.1482 123.89 60.0251C118.177 54.4688 111.559 49.9406 104.298 46.7106C100.673 45.0905 96.8604 43.8234 92.9545 42.9718C89.0383 42.1201 85.0285 41.6528 80.9876 41.5385C72.9265 41.3724 64.8135 42.7848 57.2406 45.7448C49.6782 48.6943 42.6663 53.1705 36.7555 58.8411C30.8136 64.4806 25.9416 71.3144 22.5759 78.8856C19.2102 86.4464 17.3299 94.703 17.0495 103.074H16.3639Z" fill="#31D8A4"/>
</g>
<g filter="url(#filter4_d)">
<circle cx="276.073" cy="227.072" r="62.9275" fill="#0E052F"/>
<circle cx="276.073" cy="227.072" r="61.9275" stroke="#ED1EFF" strokeWidth="2"/>
</g>
<g filter="url(#filter5_d)">
<path d="M247.48 207.278C247.071 207.686 247.071 208.34 247.48 208.749L250.821 212.09L258.494 219.762C258.902 220.171 259.556 220.171 259.964 219.762L262.57 217.156C262.979 216.748 262.979 216.094 262.57 215.685L255.633 208.749C255.225 208.34 255.225 207.686 255.633 207.278L262.57 200.341C262.979 199.932 262.979 199.279 262.57 198.87L259.964 196.264C259.556 195.855 258.902 195.855 258.494 196.264L250.821 203.936L247.48 207.278Z" fill="#ED1EFF"/>
</g>
<g filter="url(#filter6_d)">
<path d="M287.106 226.781C297.471 226.781 305.873 218.378 305.873 208.013C305.873 197.648 297.471 189.246 287.106 189.246C276.741 189.246 268.338 197.648 268.338 208.013C268.338 218.378 276.741 226.781 287.106 226.781Z" fill="#360937"/>
<path d="M304.873 208.013C304.873 217.826 296.919 225.781 287.106 225.781C277.293 225.781 269.338 217.826 269.338 208.013C269.338 198.2 277.293 190.246 287.106 190.246C296.919 190.246 304.873 198.2 304.873 208.013Z" stroke="#ED1EFF" strokeWidth="2"/>
</g>
<g filter="url(#filter7_d)">
<path d="M302.231 242.836L294.558 235.163C294.15 234.755 293.496 234.755 293.088 235.163L290.482 237.769C290.073 238.178 290.073 238.832 290.482 239.24L297.419 246.177C297.827 246.585 297.827 247.239 297.419 247.648L290.482 254.585C290.073 254.993 290.073 255.647 290.482 256.056L293.088 258.661C293.496 259.07 294.15 259.07 294.558 258.661L302.231 250.989L305.572 247.648C305.981 247.239 305.981 246.585 305.572 246.177L302.231 242.836Z" fill="#ED1EFF"/>
</g>
<g filter="url(#filter8_d)">
<path d="M265.946 265.68C276.311 265.68 284.713 257.278 284.713 246.913C284.713 236.548 276.311 228.145 265.946 228.145C255.581 228.145 247.178 236.548 247.178 246.913C247.178 257.278 255.581 265.68 265.946 265.68Z" fill="#360937"/>
<path d="M283.713 246.913C283.713 256.725 275.759 264.68 265.946 264.68C256.133 264.68 248.178 256.725 248.178 246.913C248.178 237.1 256.133 229.145 265.946 229.145C275.759 229.145 283.713 237.1 283.713 246.913Z" stroke="#ED1EFF" strokeWidth="2"/>
</g>
<defs>
<filter id="filter0_f" x="393" y="269.74" width="112.736" height="118.201" filterUnits="userSpaceOnUse" colorInterpolationFilters="sRGB">
<feFlood floodOpacity="0" result="BackgroundImageFix"/>
<feBlend mode="normal" in="SourceGraphic" in2="BackgroundImageFix" result="shape"/>
<feGaussianBlur stdDeviation="5" result="effect1_foregroundBlur"/>
</filter>
<filter id="filter1_f" x="387" y="263" width="125" height="131" filterUnits="userSpaceOnUse" colorInterpolationFilters="sRGB">
<feFlood floodOpacity="0" result="BackgroundImageFix"/>
<feBlend mode="normal" in="SourceGraphic" in2="BackgroundImageFix" result="shape"/>
<feGaussianBlur stdDeviation="8" result="effect1_foregroundBlur"/>
</filter>
<filter id="filter2_f" x="6" y="27.0386" width="149.63" height="157.879" filterUnits="userSpaceOnUse" colorInterpolationFilters="sRGB">
<feFlood floodOpacity="0" result="BackgroundImageFix"/>
<feBlend mode="normal" in="SourceGraphic" in2="BackgroundImageFix" result="shape"/>
<feGaussianBlur stdDeviation="5" result="effect1_foregroundBlur"/>
</filter>
<filter id="filter3_f" x="0" y="20" width="162" height="171" filterUnits="userSpaceOnUse" colorInterpolationFilters="sRGB">
<feFlood floodOpacity="0" result="BackgroundImageFix"/>
<feBlend mode="normal" in="SourceGraphic" in2="BackgroundImageFix" result="shape"/>
<feGaussianBlur stdDeviation="8" result="effect1_foregroundBlur"/>
</filter>
<filter id="filter4_d" x="173.145" y="124.145" width="205.855" height="205.855" filterUnits="userSpaceOnUse" colorInterpolationFilters="sRGB">
<feFlood floodOpacity="0" result="BackgroundImageFix"/>
<feColorMatrix in="SourceAlpha" type="matrix" values="0 0 0 0 0 0 0 0 0 0 0 0 0 0 0 0 0 0 127 0" result="hardAlpha"/>
<feOffset/>
<feGaussianBlur stdDeviation="20"/>
<feColorMatrix type="matrix" values="0 0 0 0 0 0 0 0 0 0 0 0 0 0 0 0 0 0 1 0"/>
<feBlend mode="normal" in2="BackgroundImageFix" result="effect1_dropShadow"/>
<feBlend mode="normal" in="SourceGraphic" in2="effect1_dropShadow" result="shape"/>
</filter>
<filter id="filter5_d" x="241.59" y="190.374" width="26.8698" height="35.2775" filterUnits="userSpaceOnUse" colorInterpolationFilters="sRGB">
<feFlood floodOpacity="0" result="BackgroundImageFix"/>
<feColorMatrix in="SourceAlpha" type="matrix" values="0 0 0 0 0 0 0 0 0 0 0 0 0 0 0 0 0 0 127 0" result="hardAlpha"/>
<feOffset/>
<feGaussianBlur stdDeviation="2.79166"/>
<feColorMatrix type="matrix" values="0 0 0 0 0.929412 0 0 0 0 0.117647 0 0 0 0 1 0 0 0 0.6 0"/>
<feBlend mode="normal" in2="BackgroundImageFix" result="effect1_dropShadow"/>
<feBlend mode="normal" in="SourceGraphic" in2="effect1_dropShadow" result="shape"/>
</filter>
<filter id="filter6_d" x="262.755" y="183.662" width="48.7016" height="48.7017" filterUnits="userSpaceOnUse" colorInterpolationFilters="sRGB">
<feFlood floodOpacity="0" result="BackgroundImageFix"/>
<feColorMatrix in="SourceAlpha" type="matrix" values="0 0 0 0 0 0 0 0 0 0 0 0 0 0 0 0 0 0 127 0" result="hardAlpha"/>
<feOffset/>
<feGaussianBlur stdDeviation="2.79166"/>
<feColorMatrix type="matrix" values="0 0 0 0 0.929412 0 0 0 0 0.117647 0 0 0 0 1 0 0 0 0.6 0"/>
<feBlend mode="normal" in2="BackgroundImageFix" result="effect1_dropShadow"/>
<feBlend mode="normal" in="SourceGraphic" in2="effect1_dropShadow" result="shape"/>
</filter>
<filter id="filter7_d" x="284.592" y="229.274" width="26.8698" height="35.2775" filterUnits="userSpaceOnUse" colorInterpolationFilters="sRGB">
<feFlood floodOpacity="0" result="BackgroundImageFix"/>
<feColorMatrix in="SourceAlpha" type="matrix" values="0 0 0 0 0 0 0 0 0 0 0 0 0 0 0 0 0 0 127 0" result="hardAlpha"/>
<feOffset/>
<feGaussianBlur stdDeviation="2.79166"/>
<feColorMatrix type="matrix" values="0 0 0 0 0.929412 0 0 0 0 0.117647 0 0 0 0 1 0 0 0 0.6 0"/>
<feBlend mode="normal" in2="BackgroundImageFix" result="effect1_dropShadow"/>
<feBlend mode="normal" in="SourceGraphic" in2="effect1_dropShadow" result="shape"/>
</filter>
<filter id="filter8_d" x="241.595" y="222.562" width="48.7016" height="48.7017" filterUnits="userSpaceOnUse" colorInterpolationFilters="sRGB">
<feFlood floodOpacity="0" result="BackgroundImageFix"/>
<feColorMatrix in="SourceAlpha" type="matrix" values="0 0 0 0 0 0 0 0 0 0 0 0 0 0 0 0 0 0 127 0" result="hardAlpha"/>
<feOffset/>
<feGaussianBlur stdDeviation="2.79166"/>
<feColorMatrix type="matrix" values="0 0 0 0 0.929412 0 0 0 0 0.117647 0 0 0 0 1 0 0 0 0.6 0"/>
<feBlend mode="normal" in2="BackgroundImageFix" result="effect1_dropShadow"/>
<feBlend mode="normal" in="SourceGraphic" in2="effect1_dropShadow" result="shape"/>
</filter>
<linearGradient id="paint0_linear" x1="272.84" y1="220.726" x2="279.181" y2="232.661" gradientUnits="userSpaceOnUse">
<stop stopColor="#ED1EFF"/>
<stop offset="1" stopColor="#00D1FF"/>
</linearGradient>
<linearGradient id="paint1_linear" x1="272.631" y1="220.607" x2="279.425" y2="232.809" gradientUnits="userSpaceOnUse">
<stop stopColor="#ED1EFF"/>
<stop offset="1" stopColor="#00D1FF"/>
</linearGradient>
<linearGradient id="paint2_linear" x1="272.489" y1="220.451" x2="279.741" y2="232.91" gradientUnits="userSpaceOnUse">
<stop stopColor="#ED1EFF"/>
<stop offset="1" stopColor="#00D1FF"/>
</linearGradient>
<linearGradient id="paint3_linear" x1="272.082" y1="220.405" x2="279.796" y2="233.112" gradientUnits="userSpaceOnUse">
<stop stopColor="#ED1EFF"/>
<stop offset="1" stopColor="#00D1FF"/>
</linearGradient>
<linearGradient id="paint4_linear" x1="271.972" y1="220.27" x2="280.154" y2="233.219" gradientUnits="userSpaceOnUse">
<stop stopColor="#ED1EFF"/>
<stop offset="1" stopColor="#00D1FF"/>
</linearGradient>
<linearGradient id="paint5_linear" x1="271.686" y1="220.094" x2="280.341" y2="233.274" gradientUnits="userSpaceOnUse">
<stop stopColor="#ED1EFF"/>
<stop offset="1" stopColor="#00D1FF"/>
</linearGradient>
<linearGradient id="paint6_linear" x1="271.279" y1="219.967" x2="280.536" y2="233.555" gradientUnits="userSpaceOnUse">
<stop stopColor="#ED1EFF"/>
<stop offset="1" stopColor="#00D1FF"/>
</linearGradient>
<linearGradient id="paint7_linear" x1="270.973" y1="219.739" x2="280.845" y2="233.724" gradientUnits="userSpaceOnUse">
<stop stopColor="#ED1EFF"/>
<stop offset="1" stopColor="#00D1FF"/>
</linearGradient>
<linearGradient id="paint8_linear" x1="270.738" y1="219.491" x2="281.236" y2="233.858" gradientUnits="userSpaceOnUse">
<stop stopColor="#ED1EFF"/>
<stop offset="1" stopColor="#00D1FF"/>
</linearGradient>
<linearGradient id="paint9_linear" x1="270.451" y1="219.459" x2="281.584" y2="234.196" gradientUnits="userSpaceOnUse">
<stop stopColor="#ED1EFF"/>
<stop offset="1" stopColor="#00D1FF"/>
</linearGradient>
<linearGradient id="paint10_linear" x1="270.159" y1="219.043" x2="282.08" y2="234.313" gradientUnits="userSpaceOnUse">
<stop stopColor="#ED1EFF"/>
<stop offset="1" stopColor="#00D1FF"/>
</linearGradient>
<linearGradient id="paint11_linear" x1="269.618" y1="218.89" x2="282.339" y2="234.673" gradientUnits="userSpaceOnUse">
<stop stopColor="#ED1EFF"/>
<stop offset="1" stopColor="#00D1FF"/>
</linearGradient>
<linearGradient id="paint12_linear" x1="269.117" y1="218.583" x2="282.655" y2="234.861" gradientUnits="userSpaceOnUse">
<stop stopColor="#ED1EFF"/>
<stop offset="1" stopColor="#00D1FF"/>
</linearGradient>
<linearGradient id="paint13_linear" x1="268.813" y1="218.289" x2="283.185" y2="235.043" gradientUnits="userSpaceOnUse">
<stop stopColor="#ED1EFF"/>
<stop offset="1" stopColor="#00D1FF"/>
</linearGradient>
<linearGradient id="paint14_linear" x1="268.369" y1="218.05" x2="283.739" y2="235.429" gradientUnits="userSpaceOnUse">
<stop stopColor="#ED1EFF"/>
<stop offset="1" stopColor="#00D1FF"/>
</linearGradient>
<linearGradient id="paint15_linear" x1="267.723" y1="217.673" x2="284.263" y2="235.816" gradientUnits="userSpaceOnUse">
<stop stopColor="#ED1EFF"/>
<stop offset="1" stopColor="#00D1FF"/>
</linearGradient>
<linearGradient id="paint16_linear" x1="267.216" y1="217.242" x2="284.955" y2="236.12" gradientUnits="userSpaceOnUse">
<stop stopColor="#ED1EFF"/>
<stop offset="1" stopColor="#00D1FF"/>
</linearGradient>
<linearGradient id="paint17_linear" x1="266.599" y1="216.883" x2="285.56" y2="236.462" gradientUnits="userSpaceOnUse">
<stop stopColor="#ED1EFF"/>
<stop offset="1" stopColor="#00D1FF"/>
</linearGradient>
<linearGradient id="paint18_linear" x1="265.808" y1="216.575" x2="286.175" y2="236.982" gradientUnits="userSpaceOnUse">
<stop stopColor="#ED1EFF"/>
<stop offset="1" stopColor="#00D1FF"/>
</linearGradient>
<linearGradient id="paint19_linear" x1="265.138" y1="216.139" x2="286.943" y2="237.333" gradientUnits="userSpaceOnUse">
<stop stopColor="#ED1EFF"/>
<stop offset="1" stopColor="#00D1FF"/>
</linearGradient>
<linearGradient id="paint20_linear" x1="264.186" y1="215.542" x2="287.789" y2="237.79" gradientUnits="userSpaceOnUse">
<stop stopColor="#ED1EFF"/>
<stop offset="1" stopColor="#00D1FF"/>
</linearGradient>
<linearGradient id="paint21_linear" x1="263.385" y1="215.18" x2="288.659" y2="238.276" gradientUnits="userSpaceOnUse">
<stop stopColor="#ED1EFF"/>
<stop offset="1" stopColor="#00D1FF"/>
</linearGradient>
<linearGradient id="paint22_linear" x1="262.294" y1="214.526" x2="289.614" y2="238.715" gradientUnits="userSpaceOnUse">
<stop stopColor="#ED1EFF"/>
<stop offset="1" stopColor="#00D1FF"/>
</linearGradient>
<linearGradient id="paint23_linear" x1="261.254" y1="214.08" x2="290.834" y2="239.448" gradientUnits="userSpaceOnUse">
<stop stopColor="#ED1EFF"/>
<stop offset="1" stopColor="#00D1FF"/>
</linearGradient>
<linearGradient id="paint24_linear" x1="260.003" y1="213.524" x2="291.895" y2="239.991" gradientUnits="userSpaceOnUse">
<stop stopColor="#ED1EFF"/>
<stop offset="1" stopColor="#00D1FF"/>
</linearGradient>
<linearGradient id="paint25_linear" x1="258.674" y1="212.715" x2="293.285" y2="240.484" gradientUnits="userSpaceOnUse">
<stop stopColor="#ED1EFF"/>
<stop offset="1" stopColor="#00D1FF"/>
</linearGradient>
<linearGradient id="paint26_linear" x1="257.208" y1="212.117" x2="294.773" y2="241.232" gradientUnits="userSpaceOnUse">
<stop stopColor="#ED1EFF"/>
<stop offset="1" stopColor="#00D1FF"/>
</linearGradient>
<linearGradient id="paint27_linear" x1="255.509" y1="211.469" x2="296.454" y2="242.092" gradientUnits="userSpaceOnUse">
<stop stopColor="#ED1EFF"/>
<stop offset="1" stopColor="#00D1FF"/>
</linearGradient>
<linearGradient id="paint28_linear" x1="253.756" y1="210.718" x2="298.162" y2="242.715" gradientUnits="userSpaceOnUse">
<stop stopColor="#ED1EFF"/>
<stop offset="1" stopColor="#00D1FF"/>
</linearGradient>
<linearGradient id="paint29_linear" x1="251.651" y1="209.893" x2="300.149" y2="243.514" gradientUnits="userSpaceOnUse">
<stop stopColor="#ED1EFF"/>
<stop offset="1" stopColor="#00D1FF"/>
</linearGradient>
<linearGradient id="paint30_linear" x1="249.457" y1="208.974" x2="302.518" y2="244.301" gradientUnits="userSpaceOnUse">
<stop stopColor="#ED1EFF"/>
<stop offset="1" stopColor="#00D1FF"/>
</linearGradient>
<linearGradient id="paint31_linear" x1="247.097" y1="208.155" x2="305.011" y2="245.115" gradientUnits="userSpaceOnUse">
<stop stopColor="#ED1EFF"/>
<stop offset="1" stopColor="#00D1FF"/>
</linearGradient>
<linearGradient id="paint32_linear" x1="244.219" y1="207.226" x2="307.86" y2="246.07" gradientUnits="userSpaceOnUse">
<stop stopColor="#ED1EFF"/>
<stop offset="1" stopColor="#00D1FF"/>
</linearGradient>
<linearGradient id="paint33_linear" x1="241.211" y1="206.434" x2="310.898" y2="247.011" gradientUnits="userSpaceOnUse">
<stop stopColor="#ED1EFF"/>
<stop offset="1" stopColor="#00D1FF"/>
</linearGradient>
<linearGradient id="paint34_linear" x1="237.57" y1="205.474" x2="314.22" y2="247.918" gradientUnits="userSpaceOnUse">
<stop stopColor="#ED1EFF"/>
<stop offset="1" stopColor="#00D1FF"/>
</linearGradient>
<linearGradient id="paint35_linear" x1="233.734" y1="204.603" x2="318.293" y2="248.993" gradientUnits="userSpaceOnUse">
<stop stopColor="#ED1EFF"/>
<stop offset="1" stopColor="#00D1FF"/>
</linearGradient>
<linearGradient id="paint36_linear" x1="229.438" y1="203.637" x2="322.679" y2="249.851" gradientUnits="userSpaceOnUse">
<stop stopColor="#ED1EFF"/>
<stop offset="1" stopColor="#00D1FF"/>
</linearGradient>
<linearGradient id="paint37_linear" x1="224.515" y1="202.677" x2="327.628" y2="250.713" gradientUnits="userSpaceOnUse">
<stop stopColor="#ED1EFF"/>
<stop offset="1" stopColor="#00D1FF"/>
</linearGradient>
<linearGradient id="paint38_linear" x1="218.939" y1="201.866" x2="332.93" y2="251.514" gradientUnits="userSpaceOnUse">
<stop stopColor="#ED1EFF"/>
<stop offset="1" stopColor="#00D1FF"/>
</linearGradient>
<linearGradient id="paint39_linear" x1="212.69" y1="201.177" x2="339.211" y2="252.392" gradientUnits="userSpaceOnUse">
<stop stopColor="#ED1EFF"/>
<stop offset="1" stopColor="#00D1FF"/>
</linearGradient>
<linearGradient id="paint40_linear" x1="205.771" y1="200.506" x2="346.092" y2="252.901" gradientUnits="userSpaceOnUse">
<stop stopColor="#ED1EFF"/>
<stop offset="1" stopColor="#00D1FF"/>
</linearGradient>
<linearGradient id="paint41_linear" x1="197.951" y1="200.118" x2="353.976" y2="253.407" gradientUnits="userSpaceOnUse">
<stop stopColor="#ED1EFF"/>
<stop offset="1" stopColor="#00D1FF"/>
</linearGradient>
<linearGradient id="paint42_linear" x1="189.155" y1="199.88" x2="362.82" y2="253.557" gradientUnits="userSpaceOnUse">
<stop stopColor="#ED1EFF"/>
<stop offset="1" stopColor="#00D1FF"/>
</linearGradient>
<linearGradient id="paint43_linear" x1="179.154" y1="200.009" x2="372.602" y2="253.413" gradientUnits="userSpaceOnUse">
<stop stopColor="#ED1EFF"/>
<stop offset="1" stopColor="#00D1FF"/>
</linearGradient>
<linearGradient id="paint44_linear" x1="168.191" y1="200.561" x2="383.801" y2="252.877" gradientUnits="userSpaceOnUse">
<stop stopColor="#ED1EFF"/>
<stop offset="1" stopColor="#00D1FF"/>
</linearGradient>
<linearGradient id="paint45_linear" x1="155.799" y1="201.63" x2="396.136" y2="251.789" gradientUnits="userSpaceOnUse">
<stop stopColor="#ED1EFF"/>
<stop offset="1" stopColor="#00D1FF"/>
</linearGradient>
<linearGradient id="paint46_linear" x1="141.818" y1="203.361" x2="410.082" y2="250.146" gradientUnits="userSpaceOnUse">
<stop stopColor="#ED1EFF"/>
<stop offset="1" stopColor="#00D1FF"/>
</linearGradient>
<linearGradient id="paint47_linear" x1="126.4" y1="205.738" x2="425.553" y2="247.543" gradientUnits="userSpaceOnUse">
<stop stopColor="#ED1EFF"/>
<stop offset="1" stopColor="#00D1FF"/>
</linearGradient>
<linearGradient id="paint48_linear" x1="109.106" y1="209.242" x2="442.651" y2="244.223" gradientUnits="userSpaceOnUse">
<stop stopColor="#ED1EFF"/>
<stop offset="1" stopColor="#00D1FF"/>
</linearGradient>
<linearGradient id="paint49_linear" x1="90.1859" y1="213.65" x2="461.847" y2="239.638" gradientUnits="userSpaceOnUse">
<stop stopColor="#ED1EFF"/>
<stop offset="1" stopColor="#00D1FF"/>
</linearGradient>
<linearGradient id="paint50_linear" x1="276" y1="19.7164" x2="276" y2="433.716" gradientUnits="userSpaceOnUse">
<stop stopColor="#ED1EFF"/>
<stop offset="1" stopColor="#00D1FF"/>
</linearGradient>
<linearGradient id="paint51_linear" x1="228.273" y1="64.0165" x2="421.942" y2="311.076" gradientUnits="userSpaceOnUse">
<stop stopColor="#31D8A4"/>
<stop offset="0.1079" stopColor="#38D1A7"/>
<stop offset="0.2661" stopColor="#4BBDB1"/>
<stop offset="0.4552" stopColor="#6B9DC0"/>
<stop offset="0.6683" stopColor="#9870D5"/>
<stop offset="0.8985" stopColor="#D037F0"/>
<stop offset="1" stopColor="#EB1CFD"/>
</linearGradient>
<linearGradient id="paint52_linear" x1="402.344" y1="352.602" x2="496.564" y2="352.602" gradientUnits="userSpaceOnUse">
<stop offset="0.0261" stopColor="white"/>
<stop offset="1" stopColor="#EB1CFD"/>
</linearGradient>
<linearGradient id="paint53_linear" x1="402.325" y1="304.143" x2="496.545" y2="304.143" gradientUnits="userSpaceOnUse">
<stop offset="0.000250888" stopColor="#31D8A3"/>
<stop offset="0.9739" stopColor="white"/>
</linearGradient>
<linearGradient id="paint54_linear" x1="16.0038" y1="106.001" x2="146.004" y2="106.001" gradientUnits="userSpaceOnUse">
<stop offset="0.000282939" stopColor="#0F0436"/>
<stop offset="1" stopColor="#090221"/>
</linearGradient>
<linearGradient id="paint55_linear" x1="15.0832" y1="139.34" x2="146.788" y2="139.34" gradientUnits="userSpaceOnUse">
<stop offset="0.0261" stopColor="white"/>
<stop offset="1" stopColor="#EB1CFD"/>
</linearGradient>
<linearGradient id="paint56_linear" x1="15.0567" y1="71.3013" x2="146.762" y2="71.3013" gradientUnits="userSpaceOnUse">
<stop offset="0.000250888" stopColor="#31D8A3"/>
<stop offset="0.9739" stopColor="white"/>
</linearGradient>
</defs>
</svg>
