<svg width="56" height="56" viewBox="0 0 56 56" fill="none" xmlns="http://www.w3.org/2000/svg">
<path d="M28 53.2C32.2 53.2 36.176 52.136 39.648 50.344L35.896 46.592C33.432 47.6 30.8 48.16 28 48.16C16.912 48.16 7.84002 39.144 7.84002 28C7.84002 25.2 8.40002 22.568 9.46402 20.104L5.71202 16.352C3.86402 19.824 2.80002 23.8 2.80002 28C2.80002 41.888 14.112 53.2 28 53.2Z" fill="#00D1FF"/>
<path d="M28 2.79999C21.952 2.79999 16.408 4.92799 12.04 8.51199L6.94399 3.35999L3.35999 6.94399L49.056 52.64L52.64 49.056L47.488 43.904C51.072 39.592 53.2 34.048 53.2 28C53.2 14.112 41.888 2.79999 28 2.79999ZM43.904 40.376L34.104 30.52H38.08V25.48H30.52V12.88H25.48V21.896L15.624 12.096C19.04 9.40799 23.352 7.83999 28 7.83999C39.088 7.83999 48.16 16.856 48.16 28C48.16 32.648 46.592 36.96 43.904 40.376Z" fill="#00D1FF"/>
</svg>
