<svg width="1513" height="1136" viewBox="0 0 1513 1136" fill="none" xmlns="http://www.w3.org/2000/svg">
<g clip-path="url(#clip0_5538_20055)">
<path d="M792.726 695.051C775.069 694.852 757.76 691.538 741.672 684.738C726.157 678.186 711.886 668.545 699.982 656.612C688.078 644.705 678.439 630.43 671.865 614.91C665.066 598.817 661.554 581.329 661.554 563.841C661.554 546.378 665.066 528.865 671.865 512.773C678.415 497.253 688.053 482.978 699.982 471.07C711.886 459.163 726.157 449.522 741.672 442.945C757.76 436.144 775.243 432.632 792.726 432.632C810.184 432.632 827.692 436.144 843.781 442.945C859.296 449.497 873.566 459.138 885.471 471.07C897.375 482.978 907.013 497.253 913.588 512.773C920.387 528.865 923.899 546.353 923.899 563.841C923.899 581.329 920.387 598.817 913.588 614.91C907.038 630.43 897.4 644.705 885.471 656.612C873.566 668.52 859.296 678.161 843.781 684.738C827.692 691.538 810.384 694.827 792.726 695.051ZM792.726 433.155C721.773 433.155 662.077 492.918 662.077 563.841C662.077 634.765 721.898 694.428 792.726 694.528C863.729 694.628 923.376 634.815 923.376 563.841C923.376 492.868 863.829 432.931 792.726 433.155Z" fill="url(#paint0_linear_5538_20055)"/>
<path d="M792.726 751.152C767.548 750.953 742.843 746.17 719.831 736.429C697.641 727.062 677.344 713.311 660.309 696.297C643.274 679.257 629.552 658.954 620.188 636.758C610.475 613.739 605.469 588.828 605.469 563.841C605.469 538.855 610.45 513.943 620.188 490.925C629.552 468.729 643.299 448.426 660.309 431.386C677.344 414.347 697.641 400.62 719.831 391.254C742.843 381.538 767.747 376.531 792.726 376.531C817.706 376.531 842.61 381.513 865.622 391.254C887.812 400.62 908.109 414.372 925.144 431.386C942.179 448.426 955.901 468.729 965.265 490.925C974.978 513.943 979.984 538.855 979.984 563.841C979.984 588.828 975.003 613.739 965.265 636.758C955.901 658.954 942.154 679.257 925.144 696.297C908.109 713.336 887.812 727.062 865.622 736.429C842.61 746.17 817.905 750.953 792.726 751.152ZM792.726 377.054C743.465 377.054 695.549 397.008 660.732 431.835C625.916 466.661 605.967 514.591 605.967 563.866C605.967 613.142 625.916 661.071 660.732 695.898C695.549 730.724 743.465 750.679 792.726 750.679C841.988 750.679 889.904 730.724 924.72 695.898C959.537 661.071 979.486 613.142 979.486 563.866C979.486 514.591 959.537 466.661 924.72 431.835C889.904 397.008 841.988 377.054 792.726 377.054Z" fill="url(#paint1_linear_5538_20055)"/>
<path d="M914.444 774.664C886.048 790.829 855.086 801.456 822.834 805.464C791.767 809.334 760.008 807.073 729.761 798.964C699.514 790.855 670.881 776.924 645.91 758.03C619.994 738.445 598.207 713.658 581.964 685.525C565.722 657.393 555.162 626.152 551.146 593.894C547.269 562.822 549.521 531.059 557.622 500.81C565.723 470.56 579.645 441.926 598.529 416.957C618.105 391.042 642.883 369.257 671.008 353.02C699.133 336.782 730.366 326.228 762.618 322.22C793.685 318.35 825.444 320.61 855.691 328.72C885.938 336.829 914.572 350.76 939.542 369.654C965.458 389.238 987.246 414.026 1003.49 442.158C1019.73 470.291 1030.29 501.532 1034.31 533.79C1038.18 564.862 1035.93 596.624 1027.83 626.874C1019.73 657.123 1005.81 685.757 986.923 710.727C967.326 736.654 942.642 758.154 914.444 774.664ZM671.269 353.473C646.445 367.805 624.204 386.514 605.893 408.592C541.848 485.84 532.236 598.397 582.408 685.298C632.58 772.198 734.829 820.144 833.785 803.312C862.039 798.506 889.392 788.553 914.208 774.254C1001.19 724.124 1049 621.845 1032.14 522.871C1027.33 494.611 1017.41 467.261 1003.07 442.429C988.733 417.597 970.021 395.349 947.942 377.03C870.654 312.947 758.187 303.089 671.269 353.473Z" fill="url(#paint2_linear_5538_20055)"/>
<path d="M592.976 787.076C563.193 760.155 538.849 727.94 521.822 691.808C513.607 674.36 507.035 656.01 502.349 637.308C497.689 618.763 494.777 599.609 493.702 580.494C492.646 561.396 493.427 542.037 496.029 523.07C498.642 503.98 503.147 484.978 509.371 466.745C522.309 428.947 542.934 393.949 569.581 364.173C596.227 334.397 628.73 310.028 664.865 292.989C682.315 284.769 700.667 278.192 719.37 273.501C737.915 268.835 757.069 265.918 776.184 264.838C795.282 263.776 814.64 264.551 833.605 267.148C852.694 269.756 871.694 274.256 889.925 280.475C927.718 293.402 962.709 314.018 992.477 340.657C1022.24 367.296 1046.6 399.792 1063.63 435.925C1071.85 453.372 1078.42 471.723 1083.1 490.425C1087.76 508.97 1090.68 528.124 1091.75 547.239C1092.81 566.337 1092.03 585.696 1089.42 604.662C1086.81 623.753 1082.31 642.755 1076.08 660.988C1063.14 698.786 1042.52 733.784 1015.87 763.56C989.225 793.336 956.723 817.705 920.587 834.743C903.138 842.964 884.786 849.541 866.083 854.232C847.537 858.897 828.383 861.815 809.269 862.895C790.171 863.957 770.813 863.181 751.848 860.584C732.758 857.977 713.758 853.477 695.528 847.258C657.734 834.331 623.041 813.681 592.976 787.076ZM992.161 341.01C966.087 317.676 935.981 298.958 903.446 286.055C788.178 240.269 652.699 272.039 569.952 364.505C487.204 456.97 470.646 595.13 528.863 704.629C545.301 735.519 567.217 763.389 593.291 786.723C685.712 869.43 823.881 885.967 933.393 827.716C964.287 811.269 992.162 789.345 1015.5 763.263C1038.84 737.181 1057.57 707.069 1070.48 674.529C1116.3 559.21 1084.58 423.717 992.161 341.01Z" fill="url(#paint3_linear_5538_20055)"/>
<path d="M792.726 919.505C745.084 919.306 698.014 910.039 654.332 891.554C633.238 882.636 612.916 871.575 593.938 858.771C575.11 846.041 557.378 831.418 541.315 815.35C525.252 799.282 510.608 781.544 497.906 762.711C485.081 743.729 474.048 723.376 465.132 702.3C446.628 658.581 437.164 611.298 437.164 563.842C437.164 516.385 446.628 469.103 465.107 425.408C474.023 404.308 485.081 383.98 497.882 364.997C510.608 346.164 525.227 328.427 541.29 312.359C557.354 296.291 575.086 281.643 593.913 268.938C612.891 256.108 633.238 245.072 654.307 236.154C697.989 217.67 745.258 208.203 792.701 208.203C840.144 208.203 887.413 217.67 931.096 236.154C952.19 245.072 972.512 256.133 991.489 268.938C1010.32 281.668 1028.05 296.291 1044.11 312.359C1060.18 328.427 1074.82 346.164 1087.52 364.997C1100.35 383.98 1111.38 404.332 1120.3 425.408C1138.77 469.103 1148.24 516.385 1148.24 563.842C1148.24 611.298 1138.77 658.581 1120.3 702.276C1111.38 723.376 1100.32 743.704 1087.52 762.686C1074.79 781.52 1060.18 799.257 1044.11 815.325C1028.05 831.393 1010.32 846.041 991.489 858.746C972.512 871.575 952.165 882.611 931.096 891.529C887.438 910.039 840.369 919.306 792.726 919.505ZM792.726 208.701C750.638 208.701 708.649 216.175 669.2 230.873C602.456 255.735 543.93 300.949 502.788 359.068C460.575 418.682 437.662 490.801 437.662 563.842C437.662 636.883 460.575 709.002 502.788 768.64C543.93 826.759 602.456 871.999 669.2 896.835C708.649 911.533 750.638 919.007 792.726 919.007C865.771 919.007 937.845 896.088 997.466 853.863C1055.57 812.709 1100.8 754.167 1125.63 687.403C1140.32 647.943 1147.79 605.942 1147.79 563.842C1147.79 521.741 1140.32 479.74 1125.63 440.28C1100.77 373.517 1055.57 314.974 997.466 273.82C937.845 231.595 865.771 208.701 792.726 208.701Z" fill="url(#paint4_linear_5538_20055)"/>
</g>
<g filter="url(#filter0_f_5538_20055)">
<path d="M372.655 602.58C372.655 647.089 386.435 691.048 413.009 731.319C439.583 771.591 478.297 807.179 526.386 835.544L796.477 602.58L372.655 602.58Z" fill="#00D1FF"/>
</g>
<g filter="url(#filter1_f_5538_20055)">
<path d="M1212.8 533.568C1212.8 489.059 1199.02 445.099 1172.44 404.828C1145.87 364.557 1107.16 328.968 1059.07 300.604L788.976 533.568L1212.8 533.568Z" fill="#ED1EFF"/>
</g>
<circle cx="950.153" cy="562.002" r="126.117" fill="#0E052F" stroke="url(#paint5_linear_5538_20055)" stroke-width="85.0303"/>
<g filter="url(#filter2_i_5538_20055)">
<circle cx="950.151" cy="562.002" r="199.464" fill="url(#paint6_linear_5538_20055)"/>
</g>
<circle cx="950.151" cy="562.002" r="199.464" stroke="#202020" stroke-opacity="0.5" stroke-width="12.6117" stroke-linecap="round" stroke-linejoin="round"/>
<g filter="url(#filter3_d_5538_20055)">
<path d="M914.398 693.674C987.153 713.168 1061.94 669.992 1081.43 597.237C1100.93 524.482 1057.75 449.699 984.994 430.204C912.239 410.709 837.456 453.885 817.961 526.641C798.467 599.396 841.643 674.179 914.398 693.674Z" fill="#090320"/>
<path d="M1077.5 596.184C1058.59 666.769 986.036 708.657 915.451 689.744C844.866 670.831 802.978 598.278 821.891 527.694C840.804 457.109 913.357 415.221 983.941 434.134C1054.53 453.047 1096.41 525.599 1077.5 596.184Z" stroke="url(#paint7_linear_5538_20055)" stroke-width="8.13657"/>
</g>
<g filter="url(#filter4_d_5538_20055)">
<path d="M913.741 535.103C912.73 533.948 911.486 533.369 910.005 533.369H879.719C879.45 533.369 879.229 533.284 879.064 533.114C878.895 532.947 878.811 532.758 878.811 532.555V512.173C878.811 511.97 878.895 511.783 879.064 511.613C879.229 511.443 879.45 511.358 879.719 511.358H911.722C919.798 511.358 926.765 514.655 932.621 521.243L940.395 530.72L925.251 549.165L913.741 535.103ZM969.673 521.142C975.528 514.619 982.528 511.358 990.672 511.358H1022.57C1022.84 511.358 1023.04 511.426 1023.18 511.561C1023.31 511.698 1023.38 511.901 1023.38 512.173V532.555C1023.38 532.758 1023.31 532.947 1023.18 533.114C1023.04 533.284 1022.84 533.369 1022.57 533.369H992.288C990.807 533.369 989.563 533.948 988.552 535.103L966.241 562.21L988.653 589.521C989.664 590.61 990.873 591.153 992.288 591.153H1022.57C1022.84 591.153 1023.04 591.238 1023.18 591.408C1023.31 591.578 1023.38 591.8 1023.38 592.069V612.451C1023.38 612.654 1023.31 612.843 1023.18 613.011C1023.04 613.181 1022.84 613.266 1022.57 613.266H990.672C982.528 613.266 975.561 609.971 969.773 603.38L951.198 580.757L932.621 603.38C926.765 609.971 919.765 613.266 911.622 613.266H879.719C879.45 613.266 879.246 613.181 879.113 613.011C878.977 612.841 878.912 612.621 878.912 612.347V591.965C878.912 591.762 878.977 591.575 879.113 591.405C879.246 591.235 879.45 591.15 879.719 591.15H910.005C911.418 591.15 912.662 590.574 913.741 589.417L935.648 562.718L969.673 521.142Z" fill="#00D1FF"/>
</g>
<circle cx="950.153" cy="562.002" r="132.137" stroke="url(#paint8_linear_5538_20055)" stroke-width="12.6117" stroke-linecap="round" stroke-linejoin="round"/>
<path d="M950.45 476.198L534.719 534.575L526.45 562.966L534.719 591.357L950.45 648.198L950.45 476.198Z" fill="url(#paint9_linear_5538_20055)" fill-opacity="0.23"/>
<g filter="url(#filter5_di_5538_20055)">
<path d="M494.094 543.008C493.381 542.193 492.503 541.785 491.458 541.785H470.09C469.9 541.785 469.745 541.725 469.628 541.605C469.509 541.487 469.45 541.354 469.45 541.211V526.836C469.45 526.693 469.509 526.562 469.628 526.442C469.745 526.322 469.9 526.262 470.09 526.262H492.67C498.367 526.262 503.283 528.587 507.414 533.233L512.899 539.916L502.215 552.925L494.094 543.008ZM533.556 533.162C537.687 528.562 542.626 526.262 548.372 526.262H570.88C571.07 526.262 571.212 526.31 571.308 526.405C571.402 526.502 571.45 526.645 571.45 526.836V541.211C571.45 541.354 571.402 541.487 571.308 541.605C571.212 541.725 571.07 541.785 570.88 541.785H549.512C548.467 541.785 547.589 542.193 546.876 543.008L531.135 562.125L546.947 581.386C547.66 582.154 548.513 582.537 549.512 582.537H570.88C571.07 582.537 571.212 582.596 571.308 582.716C571.402 582.836 571.45 582.993 571.45 583.183V597.557C571.45 597.7 571.402 597.834 571.308 597.952C571.212 598.071 571.07 598.131 570.88 598.131H548.372C542.626 598.131 537.71 595.808 533.627 591.16L520.522 575.205L507.414 591.16C503.283 595.808 498.344 598.131 492.599 598.131H470.09C469.9 598.131 469.756 598.071 469.663 597.952C469.567 597.832 469.521 597.677 469.521 597.483V583.109C469.521 582.966 469.567 582.834 469.663 582.714C469.756 582.595 469.9 582.535 470.09 582.535H491.458C492.455 582.535 493.333 582.128 494.094 581.312L509.55 562.483L533.556 533.162Z" fill="#00D1FF"/>
</g>
<defs>
<filter id="filter0_f_5538_20055" x="72.6553" y="302.58" width="1023.82" height="832.964" filterUnits="userSpaceOnUse" color-interpolation-filters="sRGB">
<feFlood flood-opacity="0" result="BackgroundImageFix"/>
<feBlend mode="normal" in="SourceGraphic" in2="BackgroundImageFix" result="shape"/>
<feGaussianBlur stdDeviation="150" result="effect1_foregroundBlur_5538_20055"/>
</filter>
<filter id="filter1_f_5538_20055" x="488.976" y="0.604004" width="1023.82" height="832.964" filterUnits="userSpaceOnUse" color-interpolation-filters="sRGB">
<feFlood flood-opacity="0" result="BackgroundImageFix"/>
<feBlend mode="normal" in="SourceGraphic" in2="BackgroundImageFix" result="shape"/>
<feGaussianBlur stdDeviation="150" result="effect1_foregroundBlur_5538_20055"/>
</filter>
<filter id="filter2_i_5538_20055" x="744.381" y="356.232" width="411.54" height="427.813" filterUnits="userSpaceOnUse" color-interpolation-filters="sRGB">
<feFlood flood-opacity="0" result="BackgroundImageFix"/>
<feBlend mode="normal" in="SourceGraphic" in2="BackgroundImageFix" result="shape"/>
<feColorMatrix in="SourceAlpha" type="matrix" values="0 0 0 0 0 0 0 0 0 0 0 0 0 0 0 0 0 0 127 0" result="hardAlpha"/>
<feOffset dy="16.2731"/>
<feGaussianBlur stdDeviation="8.13657"/>
<feComposite in2="hardAlpha" operator="arithmetic" k2="-1" k3="1"/>
<feColorMatrix type="matrix" values="0 0 0 0 0 0 0 0 0 0 0 0 0 0 0 0 0 0 0.75 0"/>
<feBlend mode="normal" in2="shape" result="effect1_innerShadow_5538_20055"/>
</filter>
<filter id="filter3_d_5538_20055" x="747.69" y="359.933" width="404.012" height="404.012" filterUnits="userSpaceOnUse" color-interpolation-filters="sRGB">
<feFlood flood-opacity="0" result="BackgroundImageFix"/>
<feColorMatrix in="SourceAlpha" type="matrix" values="0 0 0 0 0 0 0 0 0 0 0 0 0 0 0 0 0 0 127 0" result="hardAlpha"/>
<feOffset/>
<feGaussianBlur stdDeviation="32.7952"/>
<feColorMatrix type="matrix" values="0 0 0 0 0 0 0 0 0 0.819608 0 0 0 0 1 0 0 0 0.6 0"/>
<feBlend mode="normal" in2="BackgroundImageFix" result="effect1_dropShadow_5538_20055"/>
<feBlend mode="normal" in="SourceGraphic" in2="effect1_dropShadow_5538_20055" result="shape"/>
</filter>
<filter id="filter4_d_5538_20055" x="813.221" y="445.767" width="275.752" height="233.089" filterUnits="userSpaceOnUse" color-interpolation-filters="sRGB">
<feFlood flood-opacity="0" result="BackgroundImageFix"/>
<feColorMatrix in="SourceAlpha" type="matrix" values="0 0 0 0 0 0 0 0 0 0 0 0 0 0 0 0 0 0 127 0" result="hardAlpha"/>
<feOffset/>
<feGaussianBlur stdDeviation="32.7952"/>
<feColorMatrix type="matrix" values="0 0 0 0 0 0 0 0 0 0.819608 0 0 0 0 1 0 0 0 0.6 0"/>
<feBlend mode="normal" in2="BackgroundImageFix" result="effect1_dropShadow_5538_20055"/>
<feBlend mode="normal" in="SourceGraphic" in2="effect1_dropShadow_5538_20055" result="shape"/>
</filter>
<filter id="filter5_di_5538_20055" x="444.45" y="501.262" width="152" height="121.87" filterUnits="userSpaceOnUse" color-interpolation-filters="sRGB">
<feFlood flood-opacity="0" result="BackgroundImageFix"/>
<feColorMatrix in="SourceAlpha" type="matrix" values="0 0 0 0 0 0 0 0 0 0 0 0 0 0 0 0 0 0 127 0" result="hardAlpha"/>
<feOffset/>
<feGaussianBlur stdDeviation="12.5"/>
<feComposite in2="hardAlpha" operator="out"/>
<feColorMatrix type="matrix" values="0 0 0 0 0 0 0 0 0 0.82 0 0 0 0 1 0 0 0 1 0"/>
<feBlend mode="normal" in2="BackgroundImageFix" result="effect1_dropShadow_5538_20055"/>
<feBlend mode="normal" in="SourceGraphic" in2="effect1_dropShadow_5538_20055" result="shape"/>
<feColorMatrix in="SourceAlpha" type="matrix" values="0 0 0 0 0 0 0 0 0 0 0 0 0 0 0 0 0 0 127 0" result="hardAlpha"/>
<feOffset/>
<feGaussianBlur stdDeviation="2.5"/>
<feComposite in2="hardAlpha" operator="arithmetic" k2="-1" k3="1"/>
<feColorMatrix type="matrix" values="0 0 0 0 0.17982 0 0 0 0 0.851226 0 0 0 0 0.999 0 0 0 1 0"/>
<feBlend mode="normal" in2="shape" result="effect2_innerShadow_5538_20055"/>
</filter>
<linearGradient id="paint0_linear_5538_20055" x1="792.726" y1="432.632" x2="863.839" y2="661.625" gradientUnits="userSpaceOnUse">
<stop stop-color="#14C2FF"/>
<stop offset="1" stop-color="#131230"/>
</linearGradient>
<linearGradient id="paint1_linear_5538_20055" x1="979.494" y1="510.022" x2="516.873" y2="681.161" gradientUnits="userSpaceOnUse">
<stop stop-color="#14C2FF"/>
<stop offset="0.963254" stop-color="#131230"/>
</linearGradient>
<linearGradient id="paint2_linear_5538_20055" x1="671.008" y1="353.02" x2="914.444" y2="774.664" gradientUnits="userSpaceOnUse">
<stop stop-color="#14C2FF"/>
<stop offset="1" stop-color="#131230"/>
</linearGradient>
<linearGradient id="paint3_linear_5538_20055" x1="992.477" y1="340.657" x2="592.976" y2="787.076" gradientUnits="userSpaceOnUse">
<stop stop-color="#14C2FF"/>
<stop offset="1" stop-color="#131230"/>
</linearGradient>
<linearGradient id="paint4_linear_5538_20055" x1="997.467" y1="835.108" x2="548.912" y2="274.023" gradientUnits="userSpaceOnUse">
<stop stop-color="#14C2FF"/>
<stop offset="1" stop-color="#131230"/>
</linearGradient>
<linearGradient id="paint5_linear_5538_20055" x1="950.153" y1="393.37" x2="950.153" y2="886.491" gradientUnits="userSpaceOnUse">
<stop stop-color="#08021E"/>
<stop offset="1" stop-color="#1F0777"/>
</linearGradient>
<linearGradient id="paint6_linear_5538_20055" x1="750.687" y1="566.245" x2="1134.13" y2="489.196" gradientUnits="userSpaceOnUse">
<stop stop-color="#EE2EFF"/>
<stop offset="1" stop-color="#00D1FF"/>
</linearGradient>
<linearGradient id="paint7_linear_5538_20055" x1="950.151" y1="421.923" x2="950.151" y2="617.429" gradientUnits="userSpaceOnUse">
<stop stop-color="#00D1FF"/>
<stop offset="1" stop-color="#00D1FF" stop-opacity="0"/>
</linearGradient>
<linearGradient id="paint8_linear_5538_20055" x1="950.153" y1="429.865" x2="950.153" y2="816.265" gradientUnits="userSpaceOnUse">
<stop stop-color="#08021E"/>
<stop offset="1" stop-color="#120446"/>
</linearGradient>
<linearGradient id="paint9_linear_5538_20055" x1="876.193" y1="562.198" x2="505.817" y2="562.198" gradientUnits="userSpaceOnUse">
<stop stop-color="#3FFFF6" stop-opacity="0"/>
<stop offset="1" stop-color="#3FFFF6"/>
</linearGradient>
<clipPath id="clip0_5538_20055">
<rect width="711.124" height="758.011" fill="white" transform="translate(437.164 161.494)"/>
</clipPath>
</defs>
</svg>
