<svg width="164" height="36" viewBox="0 0 164 36" fill="none" xmlns="http://www.w3.org/2000/svg">
<path d="M6.17801 8.73101C5.99923 8.52497 5.77912 8.4217 5.5172 8.4217H0.160518C0.112939 8.4217 0.0740112 8.40653 0.044695 8.37619C0.0148984 8.34633 0 8.31256 0 8.27635V4.6395C0 4.60328 0.0148984 4.57 0.044695 4.53966C0.0740112 4.50931 0.112939 4.49414 0.160518 4.49414H5.82093C7.24925 4.49414 8.48149 5.08242 9.51716 6.258L10.8921 7.94893L8.2138 11.2402L6.17801 8.73101ZM16.0705 6.23989C17.1062 5.07606 18.3442 4.49414 19.7845 4.49414H25.4272C25.4747 4.49414 25.5103 4.50638 25.5343 4.53036C25.5579 4.55483 25.5699 4.59104 25.5699 4.6395V8.27635C25.5699 8.31256 25.5579 8.34633 25.5343 8.37619C25.5103 8.40653 25.4747 8.4217 25.4272 8.4217H20.0705C19.8086 8.4217 19.5884 8.52497 19.4097 8.73101L15.4635 13.5679L19.4274 18.441C19.6062 18.6353 19.8201 18.7322 20.0705 18.7322H25.4272C25.4747 18.7322 25.5103 18.7474 25.5343 18.7777C25.5579 18.8081 25.5699 18.8477 25.5699 18.8957V22.5325C25.5699 22.5688 25.5579 22.6025 25.5343 22.6324C25.5103 22.6627 25.4747 22.6779 25.4272 22.6779H19.7845C18.3442 22.6779 17.112 22.0901 16.0883 20.914L12.803 16.8773L9.51716 20.914C8.48149 22.0901 7.24348 22.6779 5.80315 22.6779H0.160518C0.112939 22.6779 0.0768947 22.6627 0.0533457 22.6324C0.0293161 22.602 0.0177819 22.5629 0.0177819 22.5139V18.8771C0.0177819 18.8409 0.0293161 18.8076 0.0533457 18.7773C0.0768947 18.7469 0.112939 18.7317 0.160518 18.7317H5.5172C5.7671 18.7317 5.98721 18.629 6.17801 18.4224L10.0525 13.6585L16.0705 6.23989Z" fill="#00D1FF"/>
<path d="M45.6556 19.7133H35.6216V7.36921H45.6556V9.2561H37.8259V12.5008H44.2977V14.3701H37.8259V17.8441H45.6556V19.7133Z" fill="white"/>
<path d="M51.1068 14.9344L47.2096 10.1555H49.5726L52.2883 13.4884L55.0216 10.1555H57.3846L53.4698 14.9344L57.3846 19.7133H55.0216L52.2883 16.3804L49.5726 19.7133H47.2096L51.1068 14.9344Z" fill="white"/>
<path d="M61.0567 19.7133C60.7158 19.7133 60.3925 19.6486 60.0868 19.5193C59.7929 19.39 59.5343 19.2137 59.3109 18.9903C59.0876 18.7552 58.9053 18.4906 58.7643 18.1967C58.6349 17.8911 58.5703 17.5619 58.5703 17.2092V12.6595C58.5703 12.3186 58.6349 12.0012 58.7643 11.7073C58.8936 11.4016 59.0699 11.1371 59.2933 10.9137C59.5167 10.6786 59.7753 10.4964 60.0692 10.3671C60.3749 10.226 60.7041 10.1555 61.0567 10.1555H64.8658C65.2067 10.1555 65.5241 10.2201 65.818 10.3494C66.1237 10.4787 66.3882 10.661 66.6116 10.8961C66.8467 11.1195 67.0289 11.384 67.1582 11.6896C67.2993 11.9836 67.3699 12.3068 67.3699 12.6595V13.5589H65.3419V12.9417C65.3419 12.6595 65.242 12.4244 65.0421 12.2363C64.8423 12.0365 64.6013 11.9365 64.3191 11.9365H61.621C61.3389 11.9365 61.0979 12.0365 60.898 12.2363C60.6982 12.4244 60.5982 12.6595 60.5982 12.9417V16.9271C60.5982 17.221 60.6982 17.4679 60.898 17.6677C61.0979 17.8558 61.3389 17.9499 61.621 17.9499H64.3191C64.6013 17.9499 64.8423 17.8558 65.0421 17.6677C65.242 17.4679 65.3419 17.221 65.3419 16.9271V16.3275H67.3699V17.2092C67.3699 17.5619 67.2993 17.8911 67.1582 18.1967C67.0289 18.4906 66.8467 18.7552 66.6116 18.9903C66.3882 19.2137 66.1237 19.39 65.818 19.5193C65.5241 19.6486 65.2067 19.7133 64.8658 19.7133H61.0567Z" fill="white"/>
<path d="M71.4869 19.7133H69.459V6.73438H71.4869V11.3899L72.9682 10.1555H76.0542C76.3952 10.1555 76.7126 10.2201 77.0065 10.3494C77.3122 10.4787 77.5767 10.6551 77.8001 10.8785C78.0352 11.1018 78.2174 11.3663 78.3467 11.672C78.4878 11.9777 78.5583 12.3068 78.5583 12.6595V19.7133H76.5127V12.9417C76.5127 12.6595 76.4128 12.4244 76.213 12.2363C76.0249 12.0365 75.7897 11.9365 75.5076 11.9365H72.1041C71.9396 11.9365 71.7926 11.9953 71.6633 12.1129C71.5457 12.2187 71.4869 12.3598 71.4869 12.5361V19.7133Z" fill="white"/>
<path d="M86.8903 17.9499C87.0549 17.9499 87.196 17.8911 87.3135 17.7735C87.4429 17.656 87.5075 17.509 87.5075 17.3327V11.9365H83.6985C83.4163 11.9365 83.1753 12.0365 82.9755 12.2363C82.7756 12.4244 82.6757 12.6595 82.6757 12.9417V16.9271C82.6757 17.221 82.7756 17.4679 82.9755 17.6677C83.1753 17.8558 83.4163 17.9499 83.6985 17.9499H86.8903ZM83.1518 19.7133C82.7991 19.7133 82.47 19.6486 82.1643 19.5193C81.8704 19.3782 81.6059 19.196 81.3708 18.9727C81.1474 18.7375 80.971 18.473 80.8417 18.1791C80.7124 17.8734 80.6477 17.5501 80.6477 17.2092V12.6595C80.6477 12.3068 80.7124 11.9836 80.8417 11.6896C80.9828 11.384 81.165 11.1195 81.3884 10.8961C81.6235 10.661 81.888 10.4787 82.1819 10.3494C82.4876 10.2201 82.8109 10.1555 83.1518 10.1555H89.5355V19.7133H87.5075V18.4084L85.9733 19.7133H83.1518Z" fill="white"/>
<path d="M93.8572 19.7133H91.8292V10.1555H93.8572V11.4075L95.3384 10.1555H98.4245C98.7654 10.1555 99.0828 10.2201 99.3767 10.3494C99.6824 10.4787 99.9469 10.661 100.17 10.8961C100.405 11.1195 100.588 11.384 100.717 11.6896C100.858 11.9836 100.929 12.3068 100.929 12.6595V19.7133H98.883V12.9417C98.883 12.6595 98.783 12.4244 98.5832 12.2363C98.3951 12.0365 98.1599 11.9365 97.8778 11.9365H94.4744C94.3098 11.9365 94.1628 11.9953 94.0335 12.1129C93.9159 12.2187 93.8572 12.3598 93.8572 12.5361V19.7133Z" fill="white"/>
<path d="M109.402 17.6501C109.566 17.6501 109.707 17.5972 109.825 17.4914C109.954 17.3738 110.019 17.2268 110.019 17.0505V11.9365H106.069C105.787 11.9365 105.546 12.0365 105.346 12.2363C105.146 12.4244 105.046 12.6595 105.046 12.9417V16.6449C105.046 16.9271 105.146 17.1681 105.346 17.3679C105.546 17.556 105.787 17.6501 106.069 17.6501H109.402ZM105.998 23.1696C105.657 23.1696 105.334 23.105 105.028 22.9757C104.734 22.8463 104.47 22.67 104.235 22.4466C104.011 22.2233 103.829 21.9587 103.688 21.6531C103.559 21.3592 103.494 21.0359 103.494 20.6832V20.1542H105.487V20.4539C105.487 20.7479 105.587 20.9889 105.787 21.177C105.986 21.3768 106.227 21.4767 106.51 21.4767H108.996C109.29 21.4767 109.531 21.3768 109.719 21.177C109.919 20.9889 110.019 20.7479 110.019 20.4539V18.1262L108.485 19.4312H105.522C105.169 19.4312 104.84 19.3665 104.535 19.2372C104.241 19.0961 103.976 18.9139 103.741 18.6905C103.518 18.4554 103.341 18.1909 103.212 17.897C103.083 17.5913 103.018 17.268 103.018 16.9271V12.6595C103.018 12.3068 103.083 11.9836 103.212 11.6896C103.353 11.384 103.535 11.1195 103.759 10.8961C103.994 10.661 104.258 10.4787 104.552 10.3494C104.858 10.2201 105.181 10.1555 105.522 10.1555H112.064V20.6832C112.064 21.0241 112 21.3415 111.87 21.6355C111.741 21.9411 111.559 22.2056 111.324 22.429C111.1 22.6524 110.836 22.8287 110.53 22.958C110.236 23.0991 109.913 23.1696 109.56 23.1696H105.998Z" fill="white"/>
<path d="M117.158 11.9013C116.876 11.9013 116.635 12.0012 116.435 12.201C116.247 12.3891 116.153 12.6301 116.153 12.9241V14.0174H121.038V12.8712C121.038 12.589 120.944 12.3598 120.756 12.1834C120.579 11.9953 120.35 11.9013 120.068 11.9013H117.158ZM116.629 19.7133C116.288 19.7133 115.965 19.6486 115.659 19.5193C115.354 19.39 115.089 19.2137 114.866 18.9903C114.642 18.7552 114.466 18.4848 114.337 18.1791C114.207 17.8734 114.143 17.5501 114.143 17.2092V12.6595C114.143 12.3068 114.207 11.9836 114.337 11.6896C114.466 11.384 114.642 11.1195 114.866 10.8961C115.089 10.661 115.354 10.4787 115.659 10.3494C115.965 10.2201 116.288 10.1555 116.629 10.1555H120.579C120.92 10.1555 121.238 10.2201 121.532 10.3494C121.837 10.4787 122.096 10.6551 122.308 10.8785C122.531 11.0901 122.707 11.3487 122.837 11.6544C122.966 11.9483 123.031 12.2657 123.031 12.6066V15.5868H116.153V16.9447C116.153 17.2386 116.247 17.4855 116.435 17.6853C116.635 17.8734 116.876 17.9675 117.158 17.9675H120.015C120.297 17.9675 120.538 17.8734 120.738 17.6853C120.938 17.4855 121.038 17.2386 121.038 16.9447V16.6978H123.031V17.3327C123.031 17.6853 122.96 18.0086 122.819 18.3025C122.69 18.5847 122.507 18.8316 122.272 19.0432C122.049 19.2548 121.784 19.4194 121.479 19.537C121.185 19.6545 120.867 19.7133 120.526 19.7133H116.629Z" fill="white"/>
<path fill-rule="evenodd" clip-rule="evenodd" d="M43 33.7313H44.1905V30.0434H44.1911V29.0759H44.1905V25.6953H43V33.7313ZM45.4532 30.0434H45.4527V29.0759H45.4532L47.5938 25.6953H48.9046L46.4393 29.5084V29.5312L49.0609 33.7313H47.714L45.4532 30.0434ZM57.0104 25.6953L55.3509 31.5914C55.2306 32.0353 55.1705 32.4451 55.1705 32.4451H55.1464C55.1464 32.4451 55.0983 32.0239 54.9901 31.5914L53.4869 25.6953H52.2603L54.4249 33.7313H55.8078L57.275 28.5181C57.4193 28.0059 57.5275 27.3799 57.5275 27.3799H57.5516C57.5516 27.3799 57.6598 28.0059 57.8041 28.5181L59.2712 33.7313H60.6542L62.8789 25.6953H61.6523L60.089 31.5914C59.9687 32.0239 59.9326 32.4451 59.9326 32.4451H59.9086C59.9086 32.4451 59.8485 32.0353 59.7282 31.5914L58.0687 25.6953H57.0104ZM72.0814 33.7313H66.9465V25.6953H71.877V26.6742H68.137V29.1897H71.1795V30.1686H68.137V32.7524H72.0814V33.7313ZM76.3654 33.7313H77.556V28.5181C77.556 28.0628 77.4718 27.3458 77.4718 27.3458H77.4958C77.4958 27.3458 77.8927 28.0742 78.2054 28.5181L81.9934 33.7313H83.1599V25.6953H81.9694V30.9198C81.9694 31.3637 82.0536 32.0808 82.0536 32.0808H82.0295C82.0295 32.0808 81.6327 31.3523 81.32 30.9198L77.544 25.6953H76.3654V33.7313ZM90.9986 33.7313H89.8081V26.6742H86.8979V25.6953H93.9088V26.6742H90.9986V33.7313ZM102.192 33.7313H103.431L100.376 25.6953H99.1256L96.0711 33.7313H97.2977L98.127 31.455L98.1267 31.455L98.4522 30.4873L98.4522 30.4872L99.4022 27.9376C99.5465 27.5279 99.7389 26.7994 99.7389 26.7994H99.763C99.763 26.7994 99.9433 27.5279 100.088 27.9376L101.026 30.4872H101.026L101.349 31.4492L102.192 33.7313Z" fill="white"/>
<path d="M2.75822 29.0254V29.6383H0.220703V29.0254H2.75822ZM0.980732 33.7327V28.3757C0.980732 28.106 1.04407 27.8813 1.17074 27.7015C1.29741 27.5217 1.46188 27.3868 1.66414 27.297C1.86641 27.2071 2.07991 27.1621 2.30465 27.1621C2.4824 27.1621 2.62746 27.1764 2.73983 27.205C2.8522 27.2336 2.93597 27.2602 2.99113 27.2847L2.78273 27.9099C2.74596 27.8976 2.69488 27.8823 2.6295 27.8639C2.56617 27.8455 2.4824 27.8363 2.3782 27.8363C2.13916 27.8363 1.96652 27.8966 1.86028 28.0171C1.75608 28.1377 1.70398 28.3144 1.70398 28.5473V33.7327H0.980732Z" fill="white"/>
<path d="M6.09444 33.8307C5.66947 33.8307 5.29661 33.7296 4.97585 33.5273C4.65712 33.3251 4.40787 33.0421 4.22808 32.6784C4.05033 32.3148 3.96145 31.8898 3.96145 31.4036C3.96145 30.9132 4.05033 30.4852 4.22808 30.1195C4.40787 29.7538 4.65712 29.4698 4.97585 29.2675C5.29661 29.0652 5.66947 28.9641 6.09444 28.9641C6.5194 28.9641 6.89124 29.0652 7.20996 29.2675C7.53073 29.4698 7.77998 29.7538 7.95773 30.1195C8.13752 30.4852 8.22742 30.9132 8.22742 31.4036C8.22742 31.8898 8.13752 32.3148 7.95773 32.6784C7.77998 33.0421 7.53073 33.3251 7.20996 33.5273C6.89124 33.7296 6.5194 33.8307 6.09444 33.8307ZM6.09444 33.181C6.41724 33.181 6.68284 33.0983 6.89124 32.9328C7.09963 32.7673 7.25389 32.5497 7.354 32.28C7.45411 32.0104 7.50417 31.7182 7.50417 31.4036C7.50417 31.0889 7.45411 30.7957 7.354 30.524C7.25389 30.2523 7.09963 30.0326 6.89124 29.8651C6.68284 29.6976 6.41724 29.6138 6.09444 29.6138C5.77163 29.6138 5.50603 29.6976 5.29763 29.8651C5.08924 30.0326 4.93498 30.2523 4.83487 30.524C4.73476 30.7957 4.68471 31.0889 4.68471 31.4036C4.68471 31.7182 4.73476 32.0104 4.83487 32.28C4.93498 32.5497 5.08924 32.7673 5.29763 32.9328C5.50603 33.0983 5.77163 33.181 6.09444 33.181Z" fill="white"/>
<path d="M9.93555 33.7327V29.0254H10.6343V29.7364H10.6833C10.7691 29.5035 10.9244 29.3145 11.1491 29.1694C11.3739 29.0244 11.6272 28.9519 11.9092 28.9519C11.9623 28.9519 12.0287 28.9529 12.1084 28.9549C12.1881 28.957 12.2483 28.96 12.2892 28.9641V29.6996C12.2647 29.6935 12.2085 29.6843 12.1206 29.672C12.0348 29.6577 11.9439 29.6506 11.8479 29.6506C11.6191 29.6506 11.4147 29.6986 11.235 29.7946C11.0572 29.8886 10.9162 30.0194 10.812 30.1869C10.7099 30.3524 10.6588 30.5414 10.6588 30.7539V33.7327H9.93555Z" fill="white"/>
<path d="M13.7506 33.7327V29.0254H14.4494V29.7609H14.5106C14.6087 29.5096 14.7671 29.3145 14.9857 29.1756C15.2043 29.0346 15.4668 28.9641 15.7733 28.9641C16.0838 28.9641 16.3423 29.0346 16.5486 29.1756C16.757 29.3145 16.9194 29.5096 17.0359 29.7609H17.0849C17.2055 29.5178 17.3863 29.3247 17.6274 29.1817C17.8685 29.0366 18.1576 28.9641 18.4947 28.9641C18.9155 28.9641 19.2598 29.0959 19.5274 29.3594C19.7951 29.621 19.9289 30.0286 19.9289 30.5822V33.7327H19.2057V30.5822C19.2057 30.2349 19.1107 29.9867 18.9207 29.8375C18.7306 29.6884 18.5069 29.6138 18.2495 29.6138C17.9185 29.6138 17.6621 29.7139 17.4803 29.9141C17.2984 30.1123 17.2075 30.3636 17.2075 30.668V33.7327H16.472V30.5087C16.472 30.241 16.3852 30.0255 16.2115 29.862C16.0379 29.6966 15.8141 29.6138 15.5404 29.6138C15.3524 29.6138 15.1767 29.6639 15.0132 29.764C14.8518 29.8641 14.7211 30.003 14.621 30.1808C14.5229 30.3565 14.4739 30.5598 14.4739 30.7906V33.7327H13.7506Z" fill="white"/>
<path d="M23.829 33.8307C23.3755 33.8307 22.9842 33.7306 22.6553 33.5304C22.3284 33.3281 22.0761 33.0462 21.8983 32.6846C21.7226 32.3209 21.6347 31.898 21.6347 31.4158C21.6347 30.9336 21.7226 30.5087 21.8983 30.1409C22.0761 29.7711 22.3233 29.4831 22.6399 29.2767C22.9587 29.0683 23.3305 28.9641 23.7555 28.9641C24.0006 28.9641 24.2428 29.005 24.4818 29.0867C24.7208 29.1684 24.9384 29.3012 25.1346 29.4851C25.3307 29.6669 25.487 29.908 25.6034 30.2084C25.7199 30.5087 25.7781 30.8785 25.7781 31.3177V31.6242H22.1496V30.999H25.0426C25.0426 30.7334 24.9895 30.4964 24.8833 30.288C24.7791 30.0796 24.6299 29.9152 24.4358 29.7946C24.2438 29.6741 24.017 29.6138 23.7555 29.6138C23.4674 29.6138 23.2181 29.6853 23.0077 29.8283C22.7993 29.9693 22.6389 30.1532 22.5266 30.38C22.4142 30.6068 22.358 30.8499 22.358 31.1094V31.5261C22.358 31.8816 22.4193 32.183 22.5419 32.4302C22.6665 32.6754 22.8391 32.8623 23.0598 32.991C23.2805 33.1177 23.5369 33.181 23.829 33.181C24.019 33.181 24.1907 33.1545 24.3439 33.1014C24.4992 33.0462 24.633 32.9645 24.7453 32.8562C24.8577 32.7459 24.9445 32.609 25.0058 32.4455L25.7046 32.6417C25.631 32.8787 25.5074 33.0871 25.3338 33.2669C25.1601 33.4446 24.9456 33.5835 24.6902 33.6836C24.4348 33.7817 24.1477 33.8307 23.829 33.8307Z" fill="white"/>
<path d="M27.4824 33.7327V29.0254H28.1812V29.7364H28.2302C28.316 29.5035 28.4713 29.3145 28.696 29.1694C28.9208 29.0244 29.1741 28.9519 29.4561 28.9519C29.5092 28.9519 29.5756 28.9529 29.6553 28.9549C29.7349 28.957 29.7952 28.96 29.8361 28.9641V29.6996C29.8116 29.6935 29.7554 29.6843 29.6675 29.672C29.5817 29.6577 29.4908 29.6506 29.3948 29.6506C29.1659 29.6506 28.9616 29.6986 28.7818 29.7946C28.6041 29.8886 28.4631 30.0194 28.3589 30.1869C28.2568 30.3524 28.2057 30.5414 28.2057 30.7539V33.7327H27.4824Z" fill="white"/>
<path d="M32.0208 27.4563V33.7327H31.2975V27.4563H32.0208Z" fill="white"/>
<path d="M34.4154 35.4979C34.2928 35.4979 34.1835 35.4877 34.0874 35.4673C33.9914 35.4489 33.925 35.4305 33.8882 35.4121L34.0721 34.7747C34.2478 34.8196 34.4031 34.8359 34.5379 34.8237C34.6728 34.8114 34.7923 34.7512 34.8965 34.6429C35.0028 34.5366 35.0998 34.364 35.1876 34.125L35.3225 33.7572L33.5818 29.0254H34.3663L35.6657 32.7765H35.7148L37.0142 29.0254H37.7987L35.8006 34.4192C35.7107 34.6623 35.5993 34.8635 35.4665 35.0229C35.3337 35.1843 35.1795 35.3038 35.0038 35.3814C34.8301 35.4591 34.634 35.4979 34.4154 35.4979Z" fill="white"/>
</svg>
