<svg width="32" height="32" viewBox="0 0 32 32" fill="none" xmlns="http://www.w3.org/2000/svg">
<path fill-rule="evenodd" clip-rule="evenodd" d="M16.0003 3.00073C8.82139 3.00073 3.00079 8.96908 3.00079 16.3302C3.00079 22.2191 6.72477 27.2162 11.891 28.9776C12.5411 29.1012 12.78 28.6885 12.78 28.3353C12.78 28.0175 12.7671 26.9668 12.7628 25.8544C9.14428 26.66 8.38226 24.2828 8.38226 24.2828C7.7903 22.7422 6.94003 22.3316 6.94003 22.3316C5.76041 21.5039 7.02828 21.5216 7.02828 21.5216C8.33275 21.6165 9.02158 22.8945 9.02158 22.8945C10.1818 24.9318 12.0632 24.3424 12.8037 24.0025C12.9199 23.1417 13.2579 22.5524 13.6281 22.2191C10.7415 21.8814 7.70635 20.738 7.70635 15.6327C7.70635 14.1781 8.21436 12.9884 9.04526 12.0548C8.90964 11.7193 8.46621 10.364 9.17011 8.52763C9.17011 8.52763 10.2615 8.17006 12.7456 9.89391C13.7831 9.59814 14.8938 9.45025 16.0003 9.44584C17.1045 9.45025 18.2174 9.59814 19.2571 9.89391C21.7391 8.17006 22.8283 8.52763 22.8283 8.52763C23.5365 10.364 23.0909 11.7193 22.9553 12.0548C23.7883 12.9884 24.292 14.1781 24.292 15.6327C24.292 20.7513 21.2504 21.8792 18.3573 22.2102C18.8245 22.623 19.2399 23.4353 19.2399 24.6779C19.2399 26.4614 19.2248 27.8961 19.2248 28.3353C19.2248 28.6907 19.4595 29.1056 20.1182 28.9754C25.2801 27.2118 28.9997 22.2169 28.9997 16.3302C28.9997 8.96908 23.1791 3.00073 16.0003 3.00073Z" fill="black"/>
<path d="M7.92395 22.1374C7.89597 22.2036 7.79264 22.2235 7.70008 22.1771C7.60537 22.133 7.55371 22.0425 7.58384 21.9763C7.61183 21.9078 7.713 21.8902 7.80771 21.9343C7.90242 21.9807 7.95624 22.0712 7.92395 22.1374Z" fill="black"/>
<path d="M8.45183 22.7402C8.3894 22.7998 8.26886 22.7711 8.18706 22.6784C8.10096 22.5857 8.08589 22.4621 8.14832 22.4025C8.21289 22.3429 8.32913 22.3716 8.41524 22.4643C8.49919 22.557 8.51641 22.6806 8.45183 22.7402Z" fill="black"/>
<path d="M8.96426 23.5085C8.88462 23.5659 8.75331 23.5129 8.67366 23.3937C8.59402 23.2745 8.59402 23.1333 8.67582 23.0759C8.75546 23.0185 8.88462 23.0693 8.96642 23.1885C9.04606 23.3076 9.04606 23.4511 8.96426 23.5085Z" fill="black"/>
<path d="M9.66481 24.2503C9.59378 24.3319 9.44095 24.3099 9.33116 24.1995C9.21708 24.0914 9.18694 23.9391 9.25798 23.8596C9.33116 23.7779 9.48184 23.8022 9.59378 23.9104C9.70571 24.0163 9.74015 24.1708 9.66481 24.2503Z" fill="black"/>
<path d="M10.6345 24.6804C10.6022 24.7842 10.4558 24.8327 10.3094 24.7886C10.1631 24.7422 10.0662 24.6208 10.0963 24.5149C10.1265 24.4089 10.2728 24.3604 10.4214 24.4067C10.5699 24.4531 10.6646 24.5745 10.6345 24.6804Z" fill="black"/>
<path d="M11.6978 24.7595C11.7021 24.8698 11.5773 24.9603 11.4223 24.9625C11.2673 24.9669 11.1403 24.8764 11.1403 24.7683C11.1403 24.6579 11.263 24.5674 11.418 24.5652C11.5708 24.563 11.6978 24.6513 11.6978 24.7595Z" fill="black"/>
<path d="M12.6873 24.5877C12.7066 24.6958 12.599 24.804 12.444 24.8349C12.2933 24.8636 12.1534 24.7974 12.1341 24.6914C12.1147 24.5811 12.2245 24.4707 12.3751 24.442C12.5301 24.4133 12.6679 24.4795 12.6873 24.5877Z" fill="black"/>
</svg>
