<svg width="1441" height="380" viewBox="0 0 1441 380" fill="none" xmlns="http://www.w3.org/2000/svg">
<path opacity="0.2" d="M-4.94672e-05 378.729C479.654 378.729 959.307 378.729 1438.96 378.729" stroke="url(#paint0_linear_2628_20945)" stroke-opacity="0.25" stroke-width="2" stroke-miterlimit="10"/>
<path opacity="0.2" d="M0.00080503 368.162C242.881 368.24 485.65 366.351 728.475 364.214C833.539 363.284 939.323 363.589 1044.38 365.549C1175.88 367.999 1307.45 365.691 1438.92 368.162" stroke="url(#paint1_linear_2628_20945)" stroke-opacity="0.25" stroke-width="2" stroke-miterlimit="10"/>
<path opacity="0.2" d="M-4.93953e-05 357.751C68.82 357.751 137.66 358.127 206.47 357.943C267.97 357.779 329.32 354.236 390.8 353.625C505.315 352.489 619.812 353.809 734.32 352.467C835.956 351.274 938.642 348.114 1040.21 352.936C1099.41 355.777 1157.99 357.069 1217.24 358.241C1291.19 359.704 1365.04 355.734 1438.96 357.751" stroke="url(#paint2_linear_2628_20945)" stroke-opacity="0.25" stroke-width="2" stroke-miterlimit="10"/>
<path opacity="0.5" d="M-4.91578e-05 347.482C67.83 347.482 135.84 348.292 203.65 347.418C267.38 346.595 330.73 340.821 394.41 339.337C509.142 336.659 622.98 344.308 737.597 342.944C838.455 341.765 937.883 332.192 1038.85 340.757C1097.87 345.764 1155.06 349.684 1214.5 350.827C1289.45 352.248 1364.03 345.338 1438.96 347.482" stroke="url(#paint3_linear_2628_20945)" stroke-opacity="0.25" stroke-width="2" stroke-miterlimit="10"/>
<path opacity="0.5" d="M-4.88042e-05 337.412C66.6 337.412 133.69 338.704 200.25 336.922C266.8 335.139 332.4 326.937 398.75 324.288C459.068 321.88 518.536 322.527 578.532 327.768C632.303 332.469 684.536 335.864 738.747 335.352C786.262 334.898 830.78 329.77 877.706 324.991C931.407 319.516 986.697 322.072 1039.9 329.046C1098.46 336.73 1153.69 344.08 1213.48 344.918C1288.91 345.983 1363.49 335.572 1438.96 337.412" stroke="url(#paint4_linear_2628_20945)" stroke-opacity="0.25" stroke-width="2" stroke-miterlimit="10"/>
<path opacity="0.5" d="M-4.83589e-05 327.484C65.16 327.484 131.32 329.224 196.37 326.44C265.88 323.471 334.21 312.72 403.57 308.686C463.121 305.178 523.071 307.582 581.69 315.83C634.022 323.088 684.616 329.572 738.107 329.274C787.641 328.997 832.459 320.084 880.544 312.876C935.125 304.695 989.136 307.798 1042.89 317.719C1100.5 328.372 1153.68 339.848 1213.88 340.153C1289.44 340.544 1363.28 326.291 1438.96 327.491" stroke="url(#paint5_linear_2628_20945)" stroke-opacity="0.25" stroke-width="2" stroke-miterlimit="10"/>
<path opacity="0.5" d="M-4.78481e-05 317.712C63.62 317.669 128.81 319.842 192.21 316.043C265 311.718 336.11 298.374 408.62 292.799C469.481 288.126 525.72 292.473 584.418 304.212C634.672 314.268 683.347 324.338 736.058 324.359C788.181 324.359 834.547 310.972 884.012 301.2C940.361 290.072 992.323 293.31 1047.38 306.754C1103.42 320.432 1154.88 336.581 1215.41 336.226C1290.86 335.743 1363.31 317.385 1438.96 317.712" stroke="url(#paint6_linear_2628_20945)" stroke-opacity="0.25" stroke-width="2" stroke-miterlimit="10"/>
<path d="M0.000440983 308.096C62.0204 308.033 126.22 310.447 187.86 305.774C263.99 300.008 337.76 284.086 413.61 276.898C475.317 271.054 528.879 277.303 586.627 292.942C634.273 305.845 681.069 319.828 732.922 320.269C787.722 320.737 837.126 302.351 887.81 289.973C946.338 275.677 996.311 278.716 1052.87 296.137C1106.73 312.727 1156.95 334.025 1217.75 332.832C1292.93 331.354 1363.47 308.778 1438.94 308.097" stroke="url(#paint7_linear_2628_20945)" stroke-opacity="0.25" stroke-width="2" stroke-miterlimit="10"/>
<path opacity="0.5" d="M0.00154017 298.637C60.4315 298.552 123.632 301.122 183.612 295.675C262.992 288.467 339.422 270.045 418.442 261.253C481.394 254.244 531.918 262.269 588.447 282.026C633.155 297.65 678.062 315.695 729.195 316.647C786.674 317.705 840.045 293.822 891.898 279.142C919.058 271.494 947.688 264.328 977.296 265.976C1006.27 267.595 1033.72 276.266 1059.06 285.861C1110.14 305.156 1159.9 331.716 1220.69 329.685C1295.54 327.178 1363.72 300.398 1438.97 298.658" stroke="url(#paint8_linear_2628_20945)" stroke-opacity="0.25" stroke-width="2" stroke-miterlimit="10"/>
<path d="M0.0496364 289.341C59.0096 289.234 121.18 291.869 179.52 285.79C261.93 277.225 340.75 256.424 422.69 246.112C487.088 238.002 534.694 247.653 589.694 271.48C631.394 289.547 674.423 311.626 725.096 313.124C785.053 314.892 843.011 285.392 895.853 268.696C923.533 259.946 954.061 250.721 984.979 252.753C1013.96 254.657 1041.11 265.054 1065.34 275.834C1113.66 297.337 1162.91 329.259 1223.85 326.411C1298.37 322.917 1363.92 292.068 1438.98 289.341" stroke="url(#paint9_linear_2628_20945)" stroke-opacity="0.25" stroke-width="2" stroke-miterlimit="10"/>
<path opacity="0.5" d="M0.061966 280.208C57.612 280.08 118.862 282.715 175.712 276.188C260.812 266.409 341.752 243.414 426.232 231.725C458.402 227.279 488.89 224.708 520.397 232.506C546.068 238.862 568.652 250.019 590.436 261.296C629.408 281.458 670.548 307.315 721.102 309.339C783.257 311.832 845.872 276.984 899.573 258.583C927.733 248.932 960.139 237.754 992.236 240.119C1021.35 242.249 1048.14 254.23 1071.33 266.061C1117.08 289.384 1165.74 326.298 1227.01 322.726C1301.26 318.387 1364.1 283.717 1439.02 280.173" stroke="url(#paint10_linear_2628_20945)" stroke-opacity="0.25" stroke-width="2" stroke-miterlimit="10"/>
<path opacity="0.5" d="M0.069901 271.224C56.4099 271.089 116.84 273.71 172.38 266.885C259.63 256.161 342.11 231.192 428.72 218.402C460.997 213.637 491.395 210.682 522.743 219.531C548.174 226.753 569.849 239.146 590.574 251.531C627.257 273.425 666.679 302.528 717.482 304.979C749.949 306.548 782.595 294.511 810.635 284.32C841.742 273.014 871.651 260.131 902.748 248.811C931.328 238.414 965.303 225.66 998.479 228.323C1027.8 230.673 1054.17 243.875 1076.53 256.588C1120.18 281.444 1167.93 322.534 1229.78 318.372C1303.91 313.401 1364.12 275.28 1439.03 271.197" stroke="url(#paint11_linear_2628_20945)" stroke-opacity="0.25" stroke-width="2" stroke-miterlimit="10"/>
<path opacity="0.5" d="M0.0808876 262.403C55.4109 262.268 115.201 264.896 169.671 257.943C258.461 246.616 341.901 219.942 429.961 206.357C462.088 201.386 492.716 198.211 523.744 207.692C549.146 215.454 570.17 228.912 590.146 242.149C625.301 265.436 663.233 296.953 714.656 299.673C748.012 301.42 781.608 288.382 810.087 277.601C842.234 265.421 873.042 251.559 905.188 239.366C934.168 228.365 969.142 214.609 1003.21 217.414C1032.84 219.857 1058.76 233.883 1080.51 247.326C1122.81 273.453 1169.1 317.491 1231.94 313.053C1306.07 307.819 1363.98 266.636 1439.04 262.432" stroke="url(#paint12_linear_2628_20945)" stroke-opacity="0.25" stroke-width="2" stroke-miterlimit="10"/>
<path opacity="0.5" d="M0.101029 253.74C54.651 253.626 114.071 256.304 167.741 249.408C257.281 237.903 340.951 209.83 429.691 195.876C461.377 190.904 492.575 187.666 523.163 197.211C548.774 205.2 569.509 219.382 589.115 233.181C623.71 257.568 660.524 290.349 713.026 292.991C747.121 294.71 780.807 281.536 809.686 270.265C842.512 257.482 873.89 242.91 906.706 230.113C936.055 218.665 971.179 204.689 1005.94 207.473C1035.92 209.873 1061.4 224.154 1082.89 238.173C1124.86 265.55 1168.94 310.703 1233.25 306.307C1307.57 301.229 1363.73 257.511 1439.1 253.755" stroke="url(#paint13_linear_2628_20945)" stroke-opacity="0.25" stroke-width="2" stroke-miterlimit="10"/>
<path d="M0.108964 245.218C54.459 244.976 113.689 247.987 167.129 240.957C256.069 229.232 338.669 200.321 426.699 186.039C458.298 180.919 489.476 177.851 520.044 187.282C546.025 195.314 567.17 209.667 587.065 223.636C622.3 248.378 659.503 281.578 712.695 284.675C747.03 286.67 780.516 273.66 809.525 262.212C842.401 249.23 873.718 234.373 906.585 221.384C936.073 209.723 971.018 195.939 1006.04 198.922C1036.22 201.493 1061.55 215.802 1083.08 229.977C1125.22 257.738 1168.46 302.294 1233.28 298.154C1307.81 293.41 1363.39 248.498 1439.07 245.218" stroke="url(#paint14_linear_2628_20945)" stroke-opacity="0.25" stroke-width="2" stroke-miterlimit="10"/>
<path d="M0.119584 236.887C54.6996 236.447 113.75 240.246 167.38 232.726C254.74 220.475 335.48 191.089 421.91 176.303C453.882 170.828 484.241 167.98 515.248 177.475C541.699 185.564 563.593 199.767 584.218 213.615C620.622 238.088 659.394 271.622 712.586 275.847C746.711 278.56 780.317 265.514 809.076 254.073C841.553 241.155 872.4 226.285 904.867 213.352C934.296 201.628 969.24 187.95 1004.21 191.494C1034.3 194.54 1060 209.056 1081.83 223.075C1124.19 250.274 1168.68 293.992 1232.72 289.973C1307.43 285.278 1363.19 240.113 1439.05 236.888" stroke="url(#paint15_linear_2628_20945)" stroke-opacity="0.25" stroke-width="2" stroke-miterlimit="10"/>
<path d="M0.139482 228.7C55.0295 228.174 113.919 233.032 167.879 225.071C253.46 212.444 332.09 182.674 416.7 167.547C448.947 161.766 478.596 159.189 509.953 168.563C536.814 176.595 559.588 190.429 580.982 204.17C618.605 228.316 659.166 261.729 712.307 266.977C746.123 270.322 779.469 257.546 807.968 246.155C839.895 233.372 870.093 218.594 902 205.818C931.339 194.072 965.954 180.785 1000.77 184.833C1030.89 188.341 1057.05 202.922 1079.36 216.791C1122.28 243.422 1168.23 286.046 1231.78 282.083C1306.82 277.411 1362.89 231.953 1439.08 228.743" stroke="url(#paint16_linear_2628_20945)" stroke-opacity="0.25" stroke-width="2" stroke-miterlimit="10"/>
<path d="M0.16121 220.667C55.4312 220.163 114.291 226.306 168.631 217.94C252.251 205.079 328.591 175.004 411.211 159.615C443.591 153.585 472.68 151.32 504.297 160.424C531.637 168.293 555.26 181.729 577.484 195.222C616.676 218.935 658.656 251.865 711.947 258.079C745.363 261.971 778.119 249.749 806.339 238.436C837.566 225.909 866.995 211.258 898.203 198.716C927.432 186.963 961.377 174.336 995.982 178.832C1026.24 182.773 1052.94 197.296 1075.92 210.974C1119.7 237.015 1167.29 278.333 1230.5 274.392C1306 269.683 1362.5 223.92 1439.15 220.689" stroke="url(#paint17_linear_2628_20945)" stroke-opacity="0.25" stroke-width="2" stroke-miterlimit="10"/>
<path d="M0.170976 212.792C55.891 212.394 114.731 220.014 169.561 211.286C251.081 198.312 325.001 167.966 405.491 152.492C437.841 146.257 466.535 144.318 498.312 153.024C526.142 160.652 550.594 173.619 573.728 186.7C614.698 209.873 657.957 242.015 711.448 249.124C776.002 257.71 841.235 213.026 893.547 191.963C922.666 180.231 955.692 168.478 989.997 173.399C1020.5 177.781 1047.76 192.162 1071.53 205.634C1116.42 231.065 1165.78 270.905 1228.84 266.942C1304.89 262.17 1361.93 216.073 1439.13 212.792" stroke="url(#paint18_linear_2628_20945)" stroke-opacity="0.25" stroke-width="2" stroke-miterlimit="10"/>
<path d="M0.19185 205.079C56.4019 204.859 115.252 214.112 170.652 205.079C249.982 192.097 321.352 161.61 399.602 146.086C431.852 139.694 460.259 138.103 492.126 146.306C520.466 153.613 545.767 166.006 569.81 178.675C612.559 201.187 657.107 232.257 710.868 240.246C774.442 249.677 836.867 206.286 888.21 185.564C916.6 174.123 949.696 162.59 983.062 168.484C1014.04 173.952 1041.33 187.211 1066.45 200.704C1112.63 225.489 1163.89 263.717 1226.95 259.712C1303.65 254.847 1361.3 208.403 1439.15 205.029" stroke="url(#paint19_linear_2628_20945)" stroke-opacity="0.25" stroke-width="2" stroke-miterlimit="10"/>
<path d="M0.208574 197.516C56.9486 197.516 115.859 208.545 171.879 199.178C248.949 186.288 317.699 155.673 393.649 140.234C525.55 113.397 594.36 212.472 710.226 231.434C772.681 241.668 831.948 199.839 882.362 179.535C910.622 168.173 942.439 157.826 975.385 164.054C1006.75 169.984 1034.68 182.951 1060.81 196.189C1108.43 220.334 1161.68 256.823 1224.86 252.753C1302.28 247.782 1360.61 200.975 1439.18 197.517" stroke="url(#paint20_linear_2628_20945)" stroke-opacity="0.25" stroke-width="2" stroke-miterlimit="10"/>
<path d="M0.230546 190.116C57.5206 190.414 116.531 203.254 173.211 193.61C247.991 180.891 314.111 150.205 387.691 134.901C516.867 108.042 595.541 202.366 709.538 222.684C770.914 233.635 826.624 193.66 876.118 173.747C904.258 162.427 934.686 153.443 967.162 159.955C998.949 166.347 1027.59 178.988 1054.77 191.948C1103.91 215.384 1159.19 250.118 1222.65 245.956C1300.82 240.836 1359.88 193.688 1439.21 190.116" stroke="url(#paint21_linear_2628_20945)" stroke-opacity="0.25" stroke-width="2" stroke-miterlimit="10"/>
<path d="M0.25081 182.872C58.1108 183.476 117.241 198.191 174.631 188.305C247.121 175.82 310.541 145.099 381.831 130.001C508.274 103.22 596.68 192.389 708.829 214.063C769.106 225.71 821.028 187.702 869.653 168.179C897.693 156.923 926.612 149.381 958.589 156.106C990.816 162.917 1020.19 175.281 1048.45 187.922C1099.18 210.647 1156.5 243.57 1220.27 239.316C1299.21 234.04 1359.05 186.537 1439.17 182.844" stroke="url(#paint22_linear_2628_20945)" stroke-opacity="0.25" stroke-width="2" stroke-miterlimit="10"/>
<path d="M0.268999 175.785C58.689 176.701 117.989 193.298 176.139 183.206C246.389 171.006 307.189 140.27 376.189 125.427C499.939 98.8034 597.798 182.617 708.108 205.591C767.296 217.919 815.321 181.935 863.116 162.789C891.036 151.604 918.546 145.546 949.994 152.513C982.67 159.757 1012.82 171.808 1042.14 184.137C1094.45 206.152 1153.79 237.257 1217.96 232.896C1297.73 227.471 1358.31 179.634 1439.23 175.785" stroke="url(#paint23_linear_2628_20945)" stroke-opacity="0.25" stroke-width="2" stroke-miterlimit="10"/>
<path d="M0.29207 168.861C59.2521 170.082 118.742 188.518 177.572 178.256C245.662 166.375 303.892 135.646 370.692 121.095C491.997 94.6773 598.93 173.037 707.451 197.296C765.559 210.292 809.678 176.332 856.694 157.527C884.494 146.413 910.655 141.839 941.502 149.005C974.628 156.689 1005.54 168.463 1035.9 180.451C1089.76 201.713 1151.07 231.064 1215.68 226.612C1296.26 221.037 1357.58 172.809 1439.29 168.875" stroke="url(#paint24_linear_2628_20945)" stroke-opacity="0.25" stroke-width="2" stroke-miterlimit="10"/>
<path d="M0.309526 162.086C59.8595 163.598 119.49 183.802 179.04 173.398C245.08 161.858 300.849 131.151 365.579 116.912C484.549 90.7354 600.036 163.655 706.739 189.2C763.878 202.877 804.049 170.799 850.416 152.37C878.126 141.363 902.918 138.167 933.246 145.539C966.802 153.663 998.459 165.203 1029.82 176.843C1085.15 197.374 1148.35 224.999 1213.41 220.433C1294.74 214.716 1356.79 166.141 1439.25 162.086" stroke="url(#paint25_linear_2628_20945)" stroke-opacity="0.25" stroke-width="2" stroke-miterlimit="10"/>
<path d="M0.331865 155.474C60.4419 157.235 120.242 179.101 180.462 168.591C244.612 157.399 298.082 126.691 360.862 112.786C421.772 99.2934 486.561 114.526 543.45 130.803C598.31 146.505 650.463 167.099 706.142 181.338C762.562 195.769 798.546 165.203 844.562 147.25C905.668 123.424 968.253 153.642 1024.18 173.235C1080.85 193.063 1145.84 219.041 1211.33 214.375C1293.38 208.538 1356.1 159.621 1439.29 155.467" stroke="url(#paint26_linear_2628_20945)" stroke-opacity="0.25" stroke-width="2" stroke-miterlimit="10"/>
<path d="M0.351762 149.012C61.0218 150.979 120.832 174.357 181.822 163.769C244.262 152.917 295.602 122.231 356.692 108.631C417.042 95.1814 483.544 109.789 540.702 124.695C596.672 139.296 649.943 158.577 705.613 173.747C761.283 188.916 793.8 159.849 839.227 142.151C898.944 118.893 964.137 151.383 1019.1 169.599C1076.95 188.774 1143.59 213.176 1209.44 208.446C1292.13 202.502 1355.47 153.259 1439.27 149.013" stroke="url(#paint27_linear_2628_20945)" stroke-opacity="0.25" stroke-width="2" stroke-miterlimit="10"/>
<path d="M0.369585 142.713C61.6096 144.843 121.37 169.528 183.07 158.876C244.02 148.358 293.47 117.686 352.95 104.349C412.83 90.9634 480.853 104.974 538.272 118.645C595.231 132.216 649.571 150.34 705.151 166.439C731.372 174.031 750.588 174.343 775.94 164.55C796.545 156.589 813.973 145.028 834.548 137.01C861.998 126.301 883.862 126.599 912.611 134.56C947.156 144.14 980.812 155.155 1014.71 165.857C1073.53 184.379 1141.62 207.36 1207.77 202.588C1291.03 196.58 1354.9 147.01 1439.3 142.714" stroke="url(#paint28_linear_2628_20945)" stroke-opacity="0.25" stroke-width="2" stroke-miterlimit="10"/>
<path d="M0.390825 136.562C62.2008 138.693 121.781 164.557 184.201 153.869C243.941 143.635 291.701 112.85 349.981 99.8544C409.561 86.5664 478.826 99.9964 536.474 112.637C594.123 125.278 649.473 142.464 704.873 159.508C730.474 167.383 749.191 168.498 774.323 158.755C794.248 151.028 810.876 139.623 830.752 131.839C858.052 121.144 879.577 122.281 907.826 130.504C942.541 140.61 976.717 151.603 1011.25 162.007C1070.82 179.946 1140.23 201.649 1206.48 196.862C1290.2 190.819 1354.5 140.951 1439.31 136.626" stroke="url(#paint29_linear_2628_20945)" stroke-opacity="0.25" stroke-width="2" stroke-miterlimit="10"/>
<path d="M0.409136 130.583C62.7991 132.656 122.039 159.415 185.159 148.699C244.009 138.693 290.279 107.673 347.749 95.0604C407.249 81.9864 477.265 94.8054 535.273 106.544C593.751 118.368 649.58 134.837 704.751 152.818C729.832 160.985 748.339 162.703 773.281 152.96C792.667 145.397 808.626 134.062 827.952 126.428C855.122 115.698 876.626 117.437 904.446 125.974C939.211 136.626 973.786 147.648 1008.85 157.832C1068.81 175.252 1139.38 195.833 1205.58 191.082C1289.63 185.045 1354.24 134.894 1439.41 130.584" stroke="url(#paint30_linear_2628_20945)" stroke-opacity="0.25" stroke-width="2" stroke-miterlimit="10"/>
<path d="M0.429033 124.752C63.389 126.634 122.119 154.04 185.939 143.295C244.179 133.487 289.449 102.332 346.229 89.8694C405.539 76.8594 476.476 89.4003 534.634 100.408C593.711 111.593 649.791 127.614 704.701 146.569C729.373 155.091 747.98 157.15 772.792 147.343C791.778 139.836 807.237 128.495 826.193 120.918C853.264 110.095 875.068 112.14 902.558 121.067C937.253 132.33 972.088 143.43 1007.54 153.443C1067.68 170.423 1139.07 190.081 1205 185.401C1289.25 179.428 1354.02 129.006 1439.39 124.752" stroke="url(#paint31_linear_2628_20945)" stroke-opacity="0.25" stroke-width="2" stroke-miterlimit="10"/>
<path d="M0.459917 119.071C63.7399 120.761 122.06 148.465 186.27 137.621C244.31 127.821 289.31 96.6944 345.91 84.3024C405.16 71.3344 476.417 84.1314 534.595 94.9044C593.882 105.884 649.782 121.784 704.762 140.824C729.345 149.346 748.211 151.121 772.853 141.378C791.709 133.921 807.068 122.679 825.925 115.201C852.905 104.506 875.109 106.494 902.34 115.677C936.885 127.323 971.76 138.509 1007.36 148.422C1067.21 165.09 1139.53 184.527 1204.95 179.67C1289.08 173.434 1354.27 123.865 1439.42 119.094" stroke="url(#paint32_linear_2628_20945)" stroke-opacity="0.25" stroke-width="2" stroke-miterlimit="10"/>
<path d="M0.481157 113.482C63.8912 115.087 122.051 142.975 186.411 132.003C244.361 122.118 289.591 91.2544 346.231 78.9404C405.481 66.0574 476.578 79.4154 534.666 90.2604C593.763 101.296 649.423 117.168 704.783 135.305C757.185 152.47 783.156 126.073 826.315 109.612C853.296 99.3214 875.64 101.196 902.62 110.414C937.015 122.167 971.83 133.324 1007.42 143.124C1066.92 159.501 1140.18 179.03 1205.13 173.761C1288.9 166.958 1354.89 119.405 1439.47 113.589" stroke="url(#paint33_linear_2628_20945)" stroke-opacity="0.25" stroke-width="2" stroke-miterlimit="10"/>
<path d="M0.500932 107.978C64.1009 109.526 122.121 137.621 186.671 126.556C244.631 116.614 290.041 86.0774 346.711 73.8764C405.961 61.0934 476.846 74.9634 534.844 85.8424C593.712 96.8864 649.162 112.687 704.841 129.908C756.804 145.986 783.704 120.058 826.893 104.342C853.874 94.4995 876.417 96.3175 903.158 105.55C937.393 117.367 972.108 128.438 1007.69 138.068C1066.95 154.111 1140.94 173.434 1205.35 167.81C1288.7 160.538 1355.5 115.053 1439.46 108.313" stroke="url(#paint34_linear_2628_20945)" stroke-opacity="0.25" stroke-width="2" stroke-miterlimit="10"/>
<path d="M0.521196 102.574C64.3412 104.08 122.271 132.401 187.061 121.287C244.951 111.359 290.631 81.1704 347.341 69.0974C406.591 56.5274 477.246 70.7454 535.134 81.6314C593.722 92.6394 649.052 108.319 704.932 124.589C756.525 139.595 784.344 114.242 827.643 99.2584C854.694 89.9054 877.407 91.7234 903.948 100.948C937.993 112.786 972.639 123.73 1008.16 133.133C1067.27 148.792 1141.71 167.64 1205.68 161.724C1288.62 154.061 1356.19 110.713 1439.51 103.142" stroke="url(#paint35_linear_2628_20945)" stroke-opacity="0.25" stroke-width="2" stroke-miterlimit="10"/>
<path d="M0.539995 97.2624C64.63 98.7544 122.45 127.295 187.57 116.174C245.41 106.303 291.37 76.4545 348.13 64.6235C407.36 52.2735 477.655 66.8105 535.523 77.6625C593.791 88.5985 648.951 104.115 705.06 119.405C756.263 133.36 785.063 108.675 828.561 94.5005C855.701 85.6515 878.595 87.5335 904.966 96.7305C938.745 108.629 973.408 119.217 1008.8 128.447C1067.86 143.672 1142.5 161.824 1206.11 155.639C1288.51 147.664 1356.91 106.502 1439.5 98.2145" stroke="url(#paint36_linear_2628_20945)" stroke-opacity="0.25" stroke-width="2" stroke-miterlimit="10"/>
<path d="M0.568193 92.0494C64.9482 93.5414 122.748 122.331 188.188 111.224C245.978 101.431 292.248 71.9804 349.078 60.3904C408.278 48.3174 478.282 63.0824 536.041 73.8834C593.999 84.7064 649.009 100.01 705.248 114.306C756.072 127.231 785.91 103.277 829.669 89.9614C856.939 81.6605 880.002 83.6485 906.223 92.8025C939.799 104.622 974.336 115.011 1009.65 123.914C1068.74 138.665 1143.37 155.829 1206.64 149.48C1288.51 141.265 1357.69 102.355 1439.56 93.4205" stroke="url(#paint37_linear_2628_20945)" stroke-opacity="0.25" stroke-width="2" stroke-miterlimit="10"/>
<path d="M0.589189 86.9514C65.2992 88.4494 123.089 117.488 188.899 106.466C246.649 96.7934 293.249 67.7694 350.099 56.4564C409.269 44.6814 478.902 59.6235 536.611 70.3335C594.139 80.9855 649.129 96.0485 705.429 109.328C755.892 121.237 786.83 98.1005 830.888 85.6865C858.308 77.9605 881.552 80.0975 907.663 89.2375C941.009 100.944 975.39 111.1 1010.59 119.641C1069.78 133.844 1144.18 149.864 1207.18 143.367C1288.48 134.987 1358.41 98.3705 1439.54 88.8895" stroke="url(#paint38_linear_2628_20945)" stroke-opacity="0.25" stroke-width="2" stroke-miterlimit="10"/>
<path d="M0.609941 81.9513C65.6799 83.4853 123.52 112.8 189.71 101.835C247.42 92.3333 294.36 63.7704 351.27 52.7634C410.4 41.3294 479.653 56.3784 537.232 66.9664C594.361 77.4774 649.291 92.1984 705.61 104.456C755.724 115.357 787.821 93.0934 832.209 81.6314C859.799 74.5294 883.222 76.8304 909.253 85.8924C942.379 97.4604 976.616 107.344 1011.71 115.471C1071.09 129.127 1145.07 143.792 1207.84 137.18C1288.55 128.658 1359.2 94.4214 1439.57 84.4514" stroke="url(#paint39_linear_2628_20945)" stroke-opacity="0.25" stroke-width="2" stroke-miterlimit="10"/>
<path d="M0.630449 77.0654C66.0905 78.6414 123.92 108.241 190.6 97.4254C248.27 88.0654 295.581 59.9854 352.541 49.3184C411.631 38.2614 480.453 53.3595 537.952 63.8135C594.681 74.1325 649.561 88.4845 705.831 99.7055C755.605 109.647 788.931 88.2925 833.668 77.8175C861.448 71.3195 885.051 73.8695 911.022 82.7895C943.916 94.1815 977.992 103.763 1012.95 111.451C1072.56 124.482 1145.94 137.636 1208.53 130.946C1288.64 122.424 1359.96 90.5365 1439.57 80.1545" stroke="url(#paint40_linear_2628_20945)" stroke-opacity="0.25" stroke-width="2" stroke-miterlimit="10"/>
<path d="M0.649003 72.3003C66.519 73.9334 124.409 103.817 191.509 93.1503C249.209 84.0103 296.889 56.4133 353.919 46.1164C412.949 35.4634 481.291 50.5544 538.79 60.8524C595.099 70.9504 649.939 84.8914 706.149 95.0674C755.583 104.023 790.208 83.6624 835.316 74.2244C863.295 68.3724 887.068 71.1704 913.02 80.0474C945.674 91.2404 979.579 100.487 1014.39 107.694C1074.22 120.058 1146.87 131.591 1209.32 124.823C1288.8 116.252 1360.76 86.8515 1439.61 76.1135" stroke="url(#paint41_linear_2628_20945)" stroke-opacity="0.25" stroke-width="2" stroke-miterlimit="10"/>
<path d="M0.671952 67.6774C66.952 69.3604 124.912 99.5284 192.602 89.0394C250.212 80.1054 298.282 53.0474 355.382 43.1414C414.342 32.9074 482.214 47.9635 539.583 58.0545C595.482 67.9115 650.283 81.3905 706.372 90.5305C755.497 98.5415 791.491 79.1675 836.948 70.8165C865.128 65.6245 889.09 68.6855 915.052 77.4985C947.459 88.4675 981.183 97.3545 1015.82 104.053C1076.04 115.699 1147.79 125.429 1210.14 118.675C1289 110.153 1361.53 83.2226 1439.63 72.1796" stroke="url(#paint42_linear_2628_20945)" stroke-opacity="0.25" stroke-width="2" stroke-miterlimit="10"/>
<path d="M0.69185 63.1313C67.4519 64.9143 125.522 95.3733 193.692 85.0823C251.292 76.3974 299.782 49.8794 356.922 40.3854C415.832 30.6064 483.193 45.5764 540.482 55.4974C595.962 65.1054 650.722 78.0734 706.662 86.1764C755.496 93.2784 792.909 74.9484 838.706 67.7124C867.096 63.2024 891.238 66.5904 917.24 75.2824C949.401 86.0054 982.938 94.5074 1017.39 100.671C1077.98 111.55 1148.73 119.412 1211 112.651C1289.24 104.165 1362.29 79.8065 1439.65 68.5075" stroke="url(#paint43_linear_2628_20945)" stroke-opacity="0.25" stroke-width="2" stroke-miterlimit="10"/>
<path d="M0.711869 58.7354C67.9519 60.6104 126.122 91.3604 194.862 81.2974C252.412 72.8684 301.292 46.9114 358.532 37.8494C417.362 28.5324 484.202 43.3964 541.4 53.0964C596.481 62.4354 651.171 74.8564 706.931 81.9224C755.516 88.0794 794.378 70.8584 840.524 64.7014C869.114 60.8874 893.426 64.6084 919.517 73.2235C951.428 83.6795 984.771 91.7705 1019.02 97.3685C1079.97 107.424 1149.64 113.333 1211.88 106.6C1289.51 98.2135 1363.02 76.4255 1439.67 64.8995" stroke="url(#paint44_linear_2628_20945)" stroke-opacity="0.25" stroke-width="2" stroke-miterlimit="10"/>
<path d="M0.730912 54.4743C68.4409 56.4493 126.761 87.4903 196.031 77.6683C253.591 69.5093 302.881 44.1273 360.191 35.5133C418.941 26.6863 485.251 41.4003 542.409 50.8743C597.1 59.9434 651.71 71.7674 707.29 77.8034C755.665 83.0514 796.006 66.9524 842.483 61.9314C871.282 58.8134 895.764 62.8904 921.955 71.3764C953.618 81.5624 986.764 89.2354 1020.79 94.2584C1082.16 103.44 1150.64 107.332 1212.86 100.649C1289.8 92.3694 1363.75 73.2084 1439.69 61.4914" stroke="url(#paint45_linear_2628_20945)" stroke-opacity="0.25" stroke-width="2" stroke-miterlimit="10"/>
<path d="M0.750565 50.3493C68.9506 52.4293 127.421 83.7263 197.261 74.2034C254.821 66.3274 304.521 41.5214 361.901 33.3764C420.571 25.0674 486.339 39.5974 543.428 48.8294C597.749 57.6144 652.259 68.8064 707.6 73.8194C755.805 78.1874 797.615 63.2314 844.391 59.3464C873.37 56.9394 898.042 61.3844 924.333 69.7644C955.75 79.6604 988.696 86.8954 1022.49 91.3184C1084.25 99.5774 1151.52 101.417 1213.73 94.7844C1290.12 86.6454 1364.36 70.1345 1439.64 58.2465" stroke="url(#paint46_linear_2628_20945)" stroke-opacity="0.25" stroke-width="2" stroke-miterlimit="10"/>
<path d="M0.770829 46.3723C69.4708 48.5593 128.111 80.1753 198.511 70.9013C256.061 63.3093 306.201 39.1003 363.651 31.4584C422.221 23.6464 487.439 38.0134 544.518 46.9894C598.479 55.5114 652.87 66.0154 707.98 70.0134C756.095 73.5074 799.334 59.7164 846.47 56.9744C875.659 55.2774 900.431 60.1134 926.972 68.3804C958.146 77.9814 990.891 84.7664 1024.44 88.5774C1165.34 105.116 1303.41 77.2144 1439.78 55.1994" stroke="url(#paint47_linear_2628_20945)" stroke-opacity="0.25" stroke-width="2" stroke-miterlimit="10"/>
<path d="M0.789994 42.5224C70 44.8304 128.81 76.7234 199.79 67.7404C257.33 60.4534 307.91 36.8484 365.43 29.6544C423.89 22.3394 488.567 36.5284 545.526 45.2424C599.177 53.4735 653.408 63.2945 708.268 66.2565C756.373 68.8765 800.971 56.3135 848.457 54.6805C877.816 53.6865 902.798 58.9415 929.488 67.0865C960.306 76.5535 993.032 82.5895 1026.26 85.9275C1163.57 99.7265 1306.79 74.1105 1439.75 52.2445" stroke="url(#paint48_linear_2628_20945)" stroke-opacity="0.25" stroke-width="2" stroke-miterlimit="10"/>
<path d="M0.809037 38.8293C70.529 41.2583 129.519 73.4293 201.069 64.7433C258.629 57.7343 309.629 34.7603 367.209 28.0493C425.579 21.2534 489.696 35.2504 546.594 43.6734C599.956 51.5914 653.997 60.7174 708.607 62.7124C756.803 64.4734 802.66 53.0974 850.505 52.6214C880.034 52.3304 905.175 57.9974 932.076 66.0434C962.694 75.1974 995.2 80.7154 1028.15 83.4564C1090.91 88.6764 1154.56 84.2304 1216.8 77.8464C1291.49 70.1834 1366.28 61.7754 1439.77 49.4394" stroke="url(#paint49_linear_2628_20945)" stroke-opacity="0.25" stroke-width="2" stroke-miterlimit="10"/>
<path d="M0.830155 35.2854C70.4602 37.7924 129.37 70.0194 200.85 62.0804C258.18 55.6884 309.28 33.6094 366.42 26.9124C424.17 20.1444 486.998 33.5744 543.397 41.6844C597.918 49.4964 653.148 58.2234 708.958 59.3174C758.502 60.2904 806.777 49.5384 856.211 50.7954C886.05 51.5554 910.922 58.4864 938.272 66.1844C966.682 74.1814 996.68 78.7614 1027.02 80.9274C1091.59 85.5365 1155.64 78.7405 1219.44 72.3275C1293.09 64.9275 1367.39 59.2325 1439.82 46.8615" stroke="url(#paint50_linear_2628_20945)" stroke-opacity="0.25" stroke-width="2" stroke-miterlimit="10"/>
<path d="M0.840897 31.8983C70.9509 34.5263 130.101 67.0233 202.111 59.3893C259.451 53.3103 310.951 31.8133 368.181 25.6063C425.821 19.3853 488.148 32.6233 544.467 40.4703C598.728 48.0403 653.748 56.0943 709.268 56.0943C759.102 56.0943 808.447 46.7693 858.291 49.1483C888.169 50.5693 913.251 57.8973 940.811 65.4323C969.031 73.1453 998.829 77.2423 1028.91 78.8623C1093.69 82.3494 1156.63 73.3794 1220.42 67.1444C1293.59 59.9924 1367.88 56.9464 1439.8 44.4184" stroke="url(#paint51_linear_2628_20945)" stroke-opacity="0.25" stroke-width="2" stroke-miterlimit="10"/>
<path d="M0.858842 28.6743C71.4988 31.4223 130.769 64.1823 203.389 56.8463C260.749 51.0513 312.649 30.1583 369.959 24.4343C427.479 18.6743 489.316 31.8204 545.605 39.4114C599.566 46.7054 654.377 54.0344 709.607 52.9974C759.8 52.0524 810.114 44.1274 860.378 47.6144C890.296 49.6944 915.578 57.4144 943.318 64.7864C971.298 72.2214 1000.96 75.8364 1030.75 76.9084C1095.71 79.2594 1157.6 68.1594 1221.38 62.0944C1294.09 55.1774 1368.27 54.7935 1439.77 42.1105" stroke="url(#paint52_linear_2628_20945)" stroke-opacity="0.25" stroke-width="2" stroke-miterlimit="10"/>
<path d="M0.878617 25.6144C72.0086 28.4544 131.519 61.4914 204.659 54.4614C262.029 48.9434 314.329 28.6184 371.729 23.4054C429.129 18.1924 490.464 31.1604 546.604 38.4895C600.435 45.5205 654.986 52.1605 709.916 50.0795C760.549 48.1615 811.722 41.6565 862.406 46.2375C892.384 48.9435 917.846 57.0815 945.846 64.2825C973.845 71.4835 1003.12 74.5805 1032.64 75.1195C1097.6 76.3195 1158.67 63.1395 1222.38 57.2445C1294.66 50.5555 1368.79 52.8275 1439.81 39.9595" stroke="url(#paint53_linear_2628_20945)" stroke-opacity="0.25" stroke-width="2" stroke-miterlimit="10"/>
<path d="M0.888871 22.7162C72.5089 25.6992 132.229 58.9342 205.889 52.2302C263.289 46.9822 315.969 27.2752 373.449 22.5032C430.689 17.7522 491.643 30.6342 547.683 37.7153C601.354 44.4903 655.605 50.4343 710.265 47.3303C761.399 44.4263 813.331 39.3343 864.464 44.9873C894.353 48.2963 920.114 56.8613 948.314 63.8983C975.994 70.8013 1005.27 73.4573 1034.47 73.4793C1099.42 73.5353 1159.72 58.3383 1223.33 52.6003C1295.28 46.1093 1369.23 51.0303 1439.81 37.9563" stroke="url(#paint54_linear_2628_20945)" stroke-opacity="0.25" stroke-width="2" stroke-miterlimit="10"/>
<path d="M0.899491 19.9964C72.9995 23.0784 132.899 56.5914 207.089 50.1424C264.519 45.1714 317.58 25.9974 375.13 21.7364C432.31 17.4754 492.654 30.2584 548.704 37.0904C602.265 43.5954 656.246 48.8714 710.587 44.7594C762.269 40.8534 814.872 37.1754 866.474 43.8795C896.353 47.7495 922.334 56.7475 950.743 63.6215C978.293 70.2835 1007.32 72.4635 1036.25 71.9805C1101.1 70.9085 1160.77 53.7645 1224.3 48.1615C1295.83 41.8555 1369.59 49.4255 1439.84 36.0885" stroke="url(#paint55_linear_2628_20945)" stroke-opacity="0.25" stroke-width="2" stroke-miterlimit="10"/>
<path d="M0.922074 17.4463C73.4721 20.6353 133.582 54.3752 208.262 48.2113C265.722 43.4603 319.182 24.9033 376.762 21.0473C433.822 17.2263 493.675 29.9883 549.695 36.5643C603.156 42.8203 656.867 47.4373 710.898 42.3383C763.16 37.4093 816.412 35.1223 868.375 42.8563C898.223 47.2943 924.424 56.7183 953.083 63.4513C980.464 69.8423 1009.34 71.6033 1038.02 70.6313C1102.71 68.4503 1161.86 49.4463 1225.28 43.9643C1296.48 37.8073 1370.01 48.0054 1439.92 34.4054" stroke="url(#paint56_linear_2628_20945)" stroke-opacity="0.25" stroke-width="2" stroke-miterlimit="10"/>
<path d="M0.93184 15.0753C73.8818 18.3633 134.212 52.3443 209.372 46.4293C266.862 41.8983 320.622 23.9023 378.332 20.4723C435.292 17.0923 494.705 29.8323 550.635 36.1813C604.026 42.2533 657.468 46.1733 711.179 40.1083C764.051 34.1433 817.782 33.2194 870.194 41.9544C899.982 46.9264 926.433 56.7763 955.282 63.3523C982.523 69.5593 1011.24 70.8444 1039.62 69.4094C1104.07 66.1504 1162.82 45.3924 1226.12 39.9804C1297.07 33.9374 1370.3 46.7484 1439.9 32.8224" stroke="url(#paint57_linear_2628_20945)" stroke-opacity="0.25" stroke-width="2" stroke-miterlimit="10"/>
<path d="M0.94185 12.8954C74.3519 16.2614 134.842 50.4694 210.422 44.7884C267.962 40.4704 322.052 23.0074 379.822 19.9964C436.682 17.0354 495.644 29.7754 551.524 35.9254C604.865 41.7985 658.047 45.0654 711.458 38.0564C764.87 31.0464 819.131 31.4584 871.952 41.1595C901.671 46.6205 928.382 56.7835 957.391 63.3305C984.371 69.4315 1013.13 70.1985 1041.16 68.3025C1105.35 64.0415 1163.77 41.6075 1226.94 36.2665C1297.58 30.2945 1370.6 45.6975 1439.9 31.3945" stroke="url(#paint58_linear_2628_20945)" stroke-opacity="0.25" stroke-width="2" stroke-miterlimit="10"/>
<path d="M1.0002 10.8633C74.8102 14.3003 135.43 48.7363 211.46 43.2753C268.98 39.1633 323.39 22.2263 381.22 19.6053C437.96 17.0353 496.541 29.8183 552.361 35.7903C605.672 41.4713 658.604 44.1203 711.706 36.1883C765.807 28.1133 820.387 29.7963 873.589 40.4493C903.247 46.3713 930.188 56.9174 959.367 63.3734C986.237 69.3174 1014.85 69.6583 1042.59 67.3783C1072.86 64.8853 1102.36 59.1764 1131.42 52.8414C1162.78 46.0164 1195.05 35.6054 1227.71 32.8504C1298.11 26.9064 1370.89 44.8664 1439.91 30.1374" stroke="url(#paint59_linear_2628_20945)" stroke-opacity="0.25" stroke-width="2" stroke-miterlimit="10"/>
<path d="M1.00179 9.08829C75.1718 12.5823 135.902 47.2383 212.372 41.9613C269.932 37.9843 324.642 21.5163 382.542 19.2863C439.192 17.0773 497.353 29.9383 553.122 35.7623C606.434 41.3153 659.156 43.3393 711.948 34.5123C766.638 25.3653 821.578 28.2694 875.17 39.8454C904.698 46.2364 931.869 57.1024 961.198 63.4654C987.958 69.2674 1016.44 69.2254 1043.91 66.5544C1074.12 63.6284 1103.45 57.4224 1132.34 50.6824C1163.47 43.4244 1195.79 32.4734 1228.44 29.6974C1298.62 23.7384 1371.17 44.2204 1439.92 28.9874" stroke="url(#paint60_linear_2628_20945)" stroke-opacity="0.25" stroke-width="2" stroke-miterlimit="10"/>
<path d="M0.999223 7.47625C75.5092 11.0263 136.399 45.8893 213.199 40.7683C270.799 36.9193 325.759 20.9473 383.719 19.0373C440.291 17.1693 498.059 30.1803 553.789 35.8543C607.11 41.2723 659.642 42.7283 712.124 33.0133C767.445 22.8083 822.635 26.8563 876.606 39.3193C906.024 46.1093 933.395 57.3083 962.873 63.6003C989.524 69.2813 1017.83 68.8843 1045.1 65.8663C1075.24 62.5283 1104.43 55.8523 1133.17 48.7434C1164.09 41.0954 1196.45 29.6614 1229.1 26.8424C1299.05 20.8054 1371.43 43.7794 1439.95 27.9994" stroke="url(#paint61_linear_2628_20945)" stroke-opacity="0.25" stroke-width="2" stroke-miterlimit="10"/>
<path d="M0.999224 6.06239C75.8092 9.61339 136.809 44.7174 213.939 39.7174C271.609 35.9744 326.849 20.4434 384.869 18.8454C441.38 17.2834 498.789 30.4854 554.458 36.0454C607.8 41.3654 660.182 42.2814 712.344 31.7355C768.234 20.4365 823.564 25.5494 877.915 38.8364C907.234 46.0165 934.784 57.5075 964.382 63.7425C990.943 69.3315 1019.15 68.6215 1046.16 65.2835C1076.26 61.5625 1105.29 54.4605 1133.9 47.0105C1164.65 38.9935 1197.02 27.1685 1229.72 24.2855C1299.53 18.1215 1371.73 43.5315 1439.95 27.1265" stroke="url(#paint62_linear_2628_20945)" stroke-opacity="0.25" stroke-width="2" stroke-miterlimit="10"/>
<path d="M1.00093 4.85541C76.1009 8.40641 137.161 43.7304 214.581 38.8084C272.271 35.1444 327.761 20.0244 385.831 18.6754C442.281 17.3895 499.31 30.8265 554.98 36.3085C608.351 41.5645 660.634 41.9905 712.496 30.6275C768.965 18.2495 824.325 24.3285 879.076 38.4395C908.265 45.9675 935.975 57.7205 965.683 63.9135C992.164 69.4385 1020.23 68.4585 1047.06 64.8365C1077.11 60.7675 1106.01 53.2815 1134.5 45.5195C1165.11 37.1755 1197.46 25.0455 1230.24 22.0845C1299.9 15.7285 1372.01 43.5315 1439.96 26.4015" stroke="url(#paint63_linear_2628_20945)" stroke-opacity="0.25" stroke-width="2" stroke-miterlimit="10"/>
<path d="M0.999224 3.84627C75.7392 7.39728 136.589 42.7213 213.569 38.1403C274.389 34.5253 333.189 18.1993 394.559 18.5323C447.036 18.8163 499.688 31.0673 551.52 36.3363C606.591 41.9323 659.303 41.7763 712.634 29.7963C771.771 16.5443 827.181 23.5113 884.18 39.2694C909.732 46.3284 934.074 55.9584 959.816 62.5704C987.056 69.5654 1016.96 68.8833 1044.99 64.9993C1076.8 60.5954 1107.25 52.2164 1137.25 43.6944C1167.49 35.0724 1199.63 22.9354 1232.24 20.0954C1301.19 14.1224 1372.9 43.6084 1439.95 25.8264" stroke="url(#paint64_linear_2628_20945)" stroke-opacity="0.25" stroke-width="2" stroke-miterlimit="10"/>
<path d="M1.00093 3.05237C75.9409 6.55338 136.801 42.1114 213.991 37.5234C274.831 33.9014 333.901 17.9584 395.251 18.4914C447.687 18.9524 500.07 31.5444 551.872 36.8204C606.982 42.4304 659.684 41.8764 712.756 29.1154C772.493 14.7414 827.613 22.5245 885.082 39.0575C910.513 46.3725 934.926 56.0874 960.737 62.7065C987.917 69.7085 1017.7 68.8845 1045.57 64.7795C1077.35 60.0995 1107.68 51.3575 1137.59 42.6085C1167.79 33.7745 1199.92 21.5025 1232.61 18.5195C1301.43 12.2845 1373.22 43.9795 1439.96 25.3375" stroke="url(#paint65_linear_2628_20945)" stroke-opacity="0.25" stroke-width="2" stroke-miterlimit="10"/>
<path d="M1.00093 2.48324C76.0909 5.92725 136.901 41.6983 214.301 37.0403C275.161 33.3753 334.361 17.7733 395.791 18.4763C448.207 19.0723 500.339 32.0683 552.122 37.3883C607.262 43.0693 660.044 42.1673 712.776 28.6383C773.092 13.1713 827.773 21.6083 885.731 38.8363C911.103 46.3713 935.575 56.1863 961.406 62.8833C988.567 69.9203 1018.09 69.0333 1045.94 64.7363C1110.28 54.7943 1167.93 23.6673 1232.89 17.3894C1301.59 10.7494 1373.57 44.5824 1439.96 25.0024" stroke="url(#paint66_linear_2628_20945)" stroke-opacity="0.25" stroke-width="2" stroke-miterlimit="10"/>
<path d="M1.00179 2.12223C76.2118 5.49524 137.002 41.4792 214.492 36.7072C275.362 32.9502 334.762 17.6533 396.162 18.4703C448.588 19.1803 500.49 32.6303 552.253 38.0423C607.413 43.8083 660.375 42.6433 712.807 28.3833C773.653 11.8303 827.724 20.7563 886.232 38.6813C911.394 46.3723 935.926 56.5633 961.817 62.9973C989.317 69.8213 1017.95 69.2683 1046.1 64.7793C1110.55 54.4963 1167.88 23.3413 1233.07 16.6093C1301.68 9.50735 1373.97 45.4064 1439.92 24.7904" stroke="url(#paint67_linear_2628_20945)" stroke-opacity="0.25" stroke-width="2" stroke-miterlimit="10"/>
<path d="M1.00008 1.98637C76.2901 5.26038 136.97 41.4574 214.54 36.5074C275.41 32.6224 334.89 17.5814 396.41 18.4624C448.846 19.2144 500.548 33.2334 552.301 38.7734C607.461 44.6744 660.703 43.3184 712.825 28.3404C774.141 10.7074 827.452 19.9534 886.519 38.5594C940.48 55.5474 984.938 74.8855 1046.04 64.9285C1110.67 54.3965 1167.73 23.5045 1233.15 16.2325C1301.68 8.61248 1374.35 46.4495 1440 24.7545" stroke="url(#paint68_linear_2628_20945)" stroke-opacity="0.25" stroke-width="2" stroke-miterlimit="10"/>
<defs>
<linearGradient id="paint0_linear_2628_20945" x1="590.136" y1="377.854" x2="1216.65" y2="377.743" gradientUnits="userSpaceOnUse">
<stop stop-color="#00F0FF"/>
<stop offset="0.489583" stop-color="#4C02E1"/>
<stop offset="0.8125" stop-color="#FF1CF7"/>
</linearGradient>
<linearGradient id="paint1_linear_2628_20945" x1="590.12" y1="364.266" x2="1216.62" y2="364.241" gradientUnits="userSpaceOnUse">
<stop stop-color="#00F0FF"/>
<stop offset="0.489583" stop-color="#4C02E1"/>
<stop offset="0.8125" stop-color="#FF1CF7"/>
</linearGradient>
<linearGradient id="paint2_linear_2628_20945" x1="590.136" y1="351.373" x2="1216.65" y2="351.359" gradientUnits="userSpaceOnUse">
<stop stop-color="#00F0FF"/>
<stop offset="0.489583" stop-color="#4C02E1"/>
<stop offset="0.8125" stop-color="#FF1CF7"/>
</linearGradient>
<linearGradient id="paint3_linear_2628_20945" x1="590.136" y1="338.953" x2="1216.65" y2="338.945" gradientUnits="userSpaceOnUse">
<stop stop-color="#00F0FF"/>
<stop offset="0.489583" stop-color="#4C02E1"/>
<stop offset="0.8125" stop-color="#FF1CF7"/>
</linearGradient>
<linearGradient id="paint4_linear_2628_20945" x1="590.136" y1="324.9" x2="1216.65" y2="324.895" gradientUnits="userSpaceOnUse">
<stop stop-color="#00F0FF"/>
<stop offset="0.489583" stop-color="#4C02E1"/>
<stop offset="0.8125" stop-color="#FF1CF7"/>
</linearGradient>
<linearGradient id="paint5_linear_2628_20945" x1="590.136" y1="311.253" x2="1216.65" y2="311.25" gradientUnits="userSpaceOnUse">
<stop stop-color="#00F0FF"/>
<stop offset="0.489583" stop-color="#4C02E1"/>
<stop offset="0.8125" stop-color="#FF1CF7"/>
</linearGradient>
<linearGradient id="paint6_linear_2628_20945" x1="590.136" y1="296.614" x2="1216.65" y2="296.611" gradientUnits="userSpaceOnUse">
<stop stop-color="#00F0FF"/>
<stop offset="0.489583" stop-color="#4C02E1"/>
<stop offset="0.8125" stop-color="#FF1CF7"/>
</linearGradient>
<linearGradient id="paint7_linear_2628_20945" x1="590.128" y1="282.008" x2="1216.63" y2="282.006" gradientUnits="userSpaceOnUse">
<stop stop-color="#00F0FF"/>
<stop offset="0.489583" stop-color="#4C02E1"/>
<stop offset="0.8125" stop-color="#FF1CF7"/>
</linearGradient>
<linearGradient id="paint8_linear_2628_20945" x1="590.141" y1="267.639" x2="1216.66" y2="267.637" gradientUnits="userSpaceOnUse">
<stop stop-color="#00F0FF"/>
<stop offset="0.489583" stop-color="#4C02E1"/>
<stop offset="0.8125" stop-color="#FF1CF7"/>
</linearGradient>
<linearGradient id="paint9_linear_2628_20945" x1="590.173" y1="253.703" x2="1216.67" y2="253.702" gradientUnits="userSpaceOnUse">
<stop stop-color="#00F0FF"/>
<stop offset="0.489583" stop-color="#4C02E1"/>
<stop offset="0.8125" stop-color="#FF1CF7"/>
</linearGradient>
<linearGradient id="paint10_linear_2628_20945" x1="590.198" y1="239.434" x2="1216.71" y2="239.433" gradientUnits="userSpaceOnUse">
<stop stop-color="#00F0FF"/>
<stop offset="0.489583" stop-color="#4C02E1"/>
<stop offset="0.8125" stop-color="#FF1CF7"/>
</linearGradient>
<linearGradient id="paint11_linear_2628_20945" x1="590.206" y1="226.943" x2="1216.72" y2="226.942" gradientUnits="userSpaceOnUse">
<stop stop-color="#00F0FF"/>
<stop offset="0.489583" stop-color="#4C02E1"/>
<stop offset="0.8125" stop-color="#FF1CF7"/>
</linearGradient>
<linearGradient id="paint12_linear_2628_20945" x1="590.217" y1="215.557" x2="1216.73" y2="215.556" gradientUnits="userSpaceOnUse">
<stop stop-color="#00F0FF"/>
<stop offset="0.489583" stop-color="#4C02E1"/>
<stop offset="0.8125" stop-color="#FF1CF7"/>
</linearGradient>
<linearGradient id="paint13_linear_2628_20945" x1="590.253" y1="205.518" x2="1216.78" y2="205.518" gradientUnits="userSpaceOnUse">
<stop stop-color="#00F0FF"/>
<stop offset="0.489583" stop-color="#4C02E1"/>
<stop offset="0.8125" stop-color="#FF1CF7"/>
</linearGradient>
<linearGradient id="paint14_linear_2628_20945" x1="590.245" y1="195.838" x2="1216.76" y2="195.838" gradientUnits="userSpaceOnUse">
<stop stop-color="#00F0FF"/>
<stop offset="0.489583" stop-color="#4C02E1"/>
<stop offset="0.8125" stop-color="#FF1CF7"/>
</linearGradient>
<linearGradient id="paint15_linear_2628_20945" x1="590.243" y1="186.13" x2="1216.74" y2="186.129" gradientUnits="userSpaceOnUse">
<stop stop-color="#00F0FF"/>
<stop offset="0.489583" stop-color="#4C02E1"/>
<stop offset="0.8125" stop-color="#FF1CF7"/>
</linearGradient>
<linearGradient id="paint16_linear_2628_20945" x1="590.268" y1="177.356" x2="1216.77" y2="177.355" gradientUnits="userSpaceOnUse">
<stop stop-color="#00F0FF"/>
<stop offset="0.489583" stop-color="#4C02E1"/>
<stop offset="0.8125" stop-color="#FF1CF7"/>
</linearGradient>
<linearGradient id="paint17_linear_2628_20945" x1="590.309" y1="169.372" x2="1216.84" y2="169.372" gradientUnits="userSpaceOnUse">
<stop stop-color="#00F0FF"/>
<stop offset="0.489583" stop-color="#4C02E1"/>
<stop offset="0.8125" stop-color="#FF1CF7"/>
</linearGradient>
<linearGradient id="paint18_linear_2628_20945" x1="590.307" y1="162.153" x2="1216.82" y2="162.152" gradientUnits="userSpaceOnUse">
<stop stop-color="#00F0FF"/>
<stop offset="0.489583" stop-color="#4C02E1"/>
<stop offset="0.8125" stop-color="#FF1CF7"/>
</linearGradient>
<linearGradient id="paint19_linear_2628_20945" x1="590.327" y1="155.623" x2="1216.84" y2="155.622" gradientUnits="userSpaceOnUse">
<stop stop-color="#00F0FF"/>
<stop offset="0.489583" stop-color="#4C02E1"/>
<stop offset="0.8125" stop-color="#FF1CF7"/>
</linearGradient>
<linearGradient id="paint20_linear_2628_20945" x1="590.348" y1="150.332" x2="1216.87" y2="150.331" gradientUnits="userSpaceOnUse">
<stop stop-color="#00F0FF"/>
<stop offset="0.489583" stop-color="#4C02E1"/>
<stop offset="0.8125" stop-color="#FF1CF7"/>
</linearGradient>
<linearGradient id="paint21_linear_2628_20945" x1="590.374" y1="144.649" x2="1216.9" y2="144.648" gradientUnits="userSpaceOnUse">
<stop stop-color="#00F0FF"/>
<stop offset="0.489583" stop-color="#4C02E1"/>
<stop offset="0.8125" stop-color="#FF1CF7"/>
</linearGradient>
<linearGradient id="paint22_linear_2628_20945" x1="590.37" y1="139.365" x2="1216.87" y2="139.364" gradientUnits="userSpaceOnUse">
<stop stop-color="#00F0FF"/>
<stop offset="0.489583" stop-color="#4C02E1"/>
<stop offset="0.8125" stop-color="#FF1CF7"/>
</linearGradient>
<linearGradient id="paint23_linear_2628_20945" x1="590.405" y1="134.393" x2="1216.92" y2="134.392" gradientUnits="userSpaceOnUse">
<stop stop-color="#00F0FF"/>
<stop offset="0.489583" stop-color="#4C02E1"/>
<stop offset="0.8125" stop-color="#FF1CF7"/>
</linearGradient>
<linearGradient id="paint24_linear_2628_20945" x1="590.444" y1="129.642" x2="1216.98" y2="129.641" gradientUnits="userSpaceOnUse">
<stop stop-color="#00F0FF"/>
<stop offset="0.489583" stop-color="#4C02E1"/>
<stop offset="0.8125" stop-color="#FF1CF7"/>
</linearGradient>
<linearGradient id="paint25_linear_2628_20945" x1="590.437" y1="125.028" x2="1216.94" y2="125.027" gradientUnits="userSpaceOnUse">
<stop stop-color="#00F0FF"/>
<stop offset="0.489583" stop-color="#4C02E1"/>
<stop offset="0.8125" stop-color="#FF1CF7"/>
</linearGradient>
<linearGradient id="paint26_linear_2628_20945" x1="590.468" y1="121.011" x2="1216.98" y2="121.01" gradientUnits="userSpaceOnUse">
<stop stop-color="#00F0FF"/>
<stop offset="0.489583" stop-color="#4C02E1"/>
<stop offset="0.8125" stop-color="#FF1CF7"/>
</linearGradient>
<linearGradient id="paint27_linear_2628_20945" x1="590.471" y1="116.538" x2="1216.97" y2="116.537" gradientUnits="userSpaceOnUse">
<stop stop-color="#00F0FF"/>
<stop offset="0.489583" stop-color="#4C02E1"/>
<stop offset="0.8125" stop-color="#FF1CF7"/>
</linearGradient>
<linearGradient id="paint28_linear_2628_20945" x1="590.493" y1="111.974" x2="1216.99" y2="111.973" gradientUnits="userSpaceOnUse">
<stop stop-color="#00F0FF"/>
<stop offset="0.489583" stop-color="#4C02E1"/>
<stop offset="0.8125" stop-color="#FF1CF7"/>
</linearGradient>
<linearGradient id="paint29_linear_2628_20945" x1="590.51" y1="107.26" x2="1217.01" y2="107.259" gradientUnits="userSpaceOnUse">
<stop stop-color="#00F0FF"/>
<stop offset="0.489583" stop-color="#4C02E1"/>
<stop offset="0.8125" stop-color="#FF1CF7"/>
</linearGradient>
<linearGradient id="paint30_linear_2628_20945" x1="590.561" y1="102.334" x2="1217.09" y2="102.333" gradientUnits="userSpaceOnUse">
<stop stop-color="#00F0FF"/>
<stop offset="0.489583" stop-color="#4C02E1"/>
<stop offset="0.8125" stop-color="#FF1CF7"/>
</linearGradient>
<linearGradient id="paint31_linear_2628_20945" x1="590.565" y1="97.0495" x2="1217.08" y2="97.0485" gradientUnits="userSpaceOnUse">
<stop stop-color="#00F0FF"/>
<stop offset="0.489583" stop-color="#4C02E1"/>
<stop offset="0.8125" stop-color="#FF1CF7"/>
</linearGradient>
<linearGradient id="paint32_linear_2628_20945" x1="590.596" y1="91.5366" x2="1217.11" y2="91.5356" gradientUnits="userSpaceOnUse">
<stop stop-color="#00F0FF"/>
<stop offset="0.489583" stop-color="#4C02E1"/>
<stop offset="0.8125" stop-color="#FF1CF7"/>
</linearGradient>
<linearGradient id="paint33_linear_2628_20945" x1="590.629" y1="86.2749" x2="1217.16" y2="86.2738" gradientUnits="userSpaceOnUse">
<stop stop-color="#00F0FF"/>
<stop offset="0.489583" stop-color="#4C02E1"/>
<stop offset="0.8125" stop-color="#FF1CF7"/>
</linearGradient>
<linearGradient id="paint34_linear_2628_20945" x1="590.636" y1="81.2621" x2="1217.15" y2="81.261" gradientUnits="userSpaceOnUse">
<stop stop-color="#00F0FF"/>
<stop offset="0.489583" stop-color="#4C02E1"/>
<stop offset="0.8125" stop-color="#FF1CF7"/>
</linearGradient>
<linearGradient id="paint35_linear_2628_20945" x1="590.669" y1="76.5105" x2="1217.2" y2="76.5094" gradientUnits="userSpaceOnUse">
<stop stop-color="#00F0FF"/>
<stop offset="0.489583" stop-color="#4C02E1"/>
<stop offset="0.8125" stop-color="#FF1CF7"/>
</linearGradient>
<linearGradient id="paint36_linear_2628_20945" x1="590.675" y1="72.0213" x2="1217.19" y2="72.0202" gradientUnits="userSpaceOnUse">
<stop stop-color="#00F0FF"/>
<stop offset="0.489583" stop-color="#4C02E1"/>
<stop offset="0.8125" stop-color="#FF1CF7"/>
</linearGradient>
<linearGradient id="paint37_linear_2628_20945" x1="590.716" y1="67.7442" x2="1217.24" y2="67.7431" gradientUnits="userSpaceOnUse">
<stop stop-color="#00F0FF"/>
<stop offset="0.489583" stop-color="#4C02E1"/>
<stop offset="0.8125" stop-color="#FF1CF7"/>
</linearGradient>
<linearGradient id="paint38_linear_2628_20945" x1="590.72" y1="63.7352" x2="1217.23" y2="63.734" gradientUnits="userSpaceOnUse">
<stop stop-color="#00F0FF"/>
<stop offset="0.489583" stop-color="#4C02E1"/>
<stop offset="0.8125" stop-color="#FF1CF7"/>
</linearGradient>
<linearGradient id="paint39_linear_2628_20945" x1="590.745" y1="59.9381" x2="1217.26" y2="59.9369" gradientUnits="userSpaceOnUse">
<stop stop-color="#00F0FF"/>
<stop offset="0.489583" stop-color="#4C02E1"/>
<stop offset="0.8125" stop-color="#FF1CF7"/>
</linearGradient>
<linearGradient id="paint40_linear_2628_20945" x1="590.758" y1="56.3609" x2="1217.26" y2="56.3596" gradientUnits="userSpaceOnUse">
<stop stop-color="#00F0FF"/>
<stop offset="0.489583" stop-color="#4C02E1"/>
<stop offset="0.8125" stop-color="#FF1CF7"/>
</linearGradient>
<linearGradient id="paint41_linear_2628_20945" x1="590.784" y1="53.0173" x2="1217.3" y2="53.0161" gradientUnits="userSpaceOnUse">
<stop stop-color="#00F0FF"/>
<stop offset="0.489583" stop-color="#4C02E1"/>
<stop offset="0.8125" stop-color="#FF1CF7"/>
</linearGradient>
<linearGradient id="paint42_linear_2628_20945" x1="590.808" y1="49.8706" x2="1217.32" y2="49.8692" gradientUnits="userSpaceOnUse">
<stop stop-color="#00F0FF"/>
<stop offset="0.489583" stop-color="#4C02E1"/>
<stop offset="0.8125" stop-color="#FF1CF7"/>
</linearGradient>
<linearGradient id="paint43_linear_2628_20945" x1="590.827" y1="46.9483" x2="1217.34" y2="46.9469" gradientUnits="userSpaceOnUse">
<stop stop-color="#00F0FF"/>
<stop offset="0.489583" stop-color="#4C02E1"/>
<stop offset="0.8125" stop-color="#FF1CF7"/>
</linearGradient>
<linearGradient id="paint44_linear_2628_20945" x1="590.847" y1="44.2209" x2="1217.36" y2="44.2195" gradientUnits="userSpaceOnUse">
<stop stop-color="#00F0FF"/>
<stop offset="0.489583" stop-color="#4C02E1"/>
<stop offset="0.8125" stop-color="#FF1CF7"/>
</linearGradient>
<linearGradient id="paint45_linear_2628_20945" x1="590.866" y1="41.6997" x2="1217.38" y2="41.6982" gradientUnits="userSpaceOnUse">
<stop stop-color="#00F0FF"/>
<stop offset="0.489583" stop-color="#4C02E1"/>
<stop offset="0.8125" stop-color="#FF1CF7"/>
</linearGradient>
<linearGradient id="paint46_linear_2628_20945" x1="590.857" y1="39.3915" x2="1217.34" y2="39.3899" gradientUnits="userSpaceOnUse">
<stop stop-color="#00F0FF"/>
<stop offset="0.489583" stop-color="#4C02E1"/>
<stop offset="0.8125" stop-color="#FF1CF7"/>
</linearGradient>
<linearGradient id="paint47_linear_2628_20945" x1="590.927" y1="37.2587" x2="1217.46" y2="37.257" gradientUnits="userSpaceOnUse">
<stop stop-color="#00F0FF"/>
<stop offset="0.489583" stop-color="#4C02E1"/>
<stop offset="0.8125" stop-color="#FF1CF7"/>
</linearGradient>
<linearGradient id="paint48_linear_2628_20945" x1="590.925" y1="35.4027" x2="1217.44" y2="35.401" gradientUnits="userSpaceOnUse">
<stop stop-color="#00F0FF"/>
<stop offset="0.489583" stop-color="#4C02E1"/>
<stop offset="0.8125" stop-color="#FF1CF7"/>
</linearGradient>
<linearGradient id="paint49_linear_2628_20945" x1="590.945" y1="33.6844" x2="1217.46" y2="33.6826" gradientUnits="userSpaceOnUse">
<stop stop-color="#00F0FF"/>
<stop offset="0.489583" stop-color="#4C02E1"/>
<stop offset="0.8125" stop-color="#FF1CF7"/>
</linearGradient>
<linearGradient id="paint50_linear_2628_20945" x1="590.978" y1="32.239" x2="1217.5" y2="32.2371" gradientUnits="userSpaceOnUse">
<stop stop-color="#00F0FF"/>
<stop offset="0.489583" stop-color="#4C02E1"/>
<stop offset="0.8125" stop-color="#FF1CF7"/>
</linearGradient>
<linearGradient id="paint51_linear_2628_20945" x1="590.976" y1="30.9498" x2="1217.49" y2="30.9478" gradientUnits="userSpaceOnUse">
<stop stop-color="#00F0FF"/>
<stop offset="0.489583" stop-color="#4C02E1"/>
<stop offset="0.8125" stop-color="#FF1CF7"/>
</linearGradient>
<linearGradient id="paint52_linear_2628_20945" x1="590.974" y1="29.7926" x2="1217.47" y2="29.7906" gradientUnits="userSpaceOnUse">
<stop stop-color="#00F0FF"/>
<stop offset="0.489583" stop-color="#4C02E1"/>
<stop offset="0.8125" stop-color="#FF1CF7"/>
</linearGradient>
<linearGradient id="paint53_linear_2628_20945" x1="591.002" y1="28.8264" x2="1217.5" y2="28.8243" gradientUnits="userSpaceOnUse">
<stop stop-color="#00F0FF"/>
<stop offset="0.489583" stop-color="#4C02E1"/>
<stop offset="0.8125" stop-color="#FF1CF7"/>
</linearGradient>
<linearGradient id="paint54_linear_2628_20945" x1="591.008" y1="27.977" x2="1217.5" y2="27.9749" gradientUnits="userSpaceOnUse">
<stop stop-color="#00F0FF"/>
<stop offset="0.489583" stop-color="#4C02E1"/>
<stop offset="0.8125" stop-color="#FF1CF7"/>
</linearGradient>
<linearGradient id="paint55_linear_2628_20945" x1="591.027" y1="26.5027" x2="1217.53" y2="26.5006" gradientUnits="userSpaceOnUse">
<stop stop-color="#00F0FF"/>
<stop offset="0.489583" stop-color="#4C02E1"/>
<stop offset="0.8125" stop-color="#FF1CF7"/>
</linearGradient>
<linearGradient id="paint56_linear_2628_20945" x1="591.074" y1="24.1258" x2="1217.6" y2="24.1238" gradientUnits="userSpaceOnUse">
<stop stop-color="#00F0FF"/>
<stop offset="0.489583" stop-color="#4C02E1"/>
<stop offset="0.8125" stop-color="#FF1CF7"/>
</linearGradient>
<linearGradient id="paint57_linear_2628_20945" x1="591.071" y1="21.9338" x2="1217.59" y2="21.9319" gradientUnits="userSpaceOnUse">
<stop stop-color="#00F0FF"/>
<stop offset="0.489583" stop-color="#4C02E1"/>
<stop offset="0.8125" stop-color="#FF1CF7"/>
</linearGradient>
<linearGradient id="paint58_linear_2628_20945" x1="591.077" y1="19.936" x2="1217.59" y2="19.9341" gradientUnits="userSpaceOnUse">
<stop stop-color="#00F0FF"/>
<stop offset="0.489583" stop-color="#4C02E1"/>
<stop offset="0.8125" stop-color="#FF1CF7"/>
</linearGradient>
<linearGradient id="paint59_linear_2628_20945" x1="591.115" y1="18.0909" x2="1217.61" y2="18.089" gradientUnits="userSpaceOnUse">
<stop stop-color="#00F0FF"/>
<stop offset="0.489583" stop-color="#4C02E1"/>
<stop offset="0.8125" stop-color="#FF1CF7"/>
</linearGradient>
<linearGradient id="paint60_linear_2628_20945" x1="591.121" y1="16.489" x2="1217.62" y2="16.4872" gradientUnits="userSpaceOnUse">
<stop stop-color="#00F0FF"/>
<stop offset="0.489583" stop-color="#4C02E1"/>
<stop offset="0.8125" stop-color="#FF1CF7"/>
</linearGradient>
<linearGradient id="paint61_linear_2628_20945" x1="591.13" y1="15.0462" x2="1217.64" y2="15.0444" gradientUnits="userSpaceOnUse">
<stop stop-color="#00F0FF"/>
<stop offset="0.489583" stop-color="#4C02E1"/>
<stop offset="0.8125" stop-color="#FF1CF7"/>
</linearGradient>
<linearGradient id="paint62_linear_2628_20945" x1="591.13" y1="13.7883" x2="1217.64" y2="13.7866" gradientUnits="userSpaceOnUse">
<stop stop-color="#00F0FF"/>
<stop offset="0.489583" stop-color="#4C02E1"/>
<stop offset="0.8125" stop-color="#FF1CF7"/>
</linearGradient>
<linearGradient id="paint63_linear_2628_20945" x1="591.136" y1="12.7244" x2="1217.65" y2="12.7227" gradientUnits="userSpaceOnUse">
<stop stop-color="#00F0FF"/>
<stop offset="0.489583" stop-color="#4C02E1"/>
<stop offset="0.8125" stop-color="#FF1CF7"/>
</linearGradient>
<linearGradient id="paint64_linear_2628_20945" x1="591.13" y1="11.8521" x2="1217.64" y2="11.8504" gradientUnits="userSpaceOnUse">
<stop stop-color="#00F0FF"/>
<stop offset="0.489583" stop-color="#4C02E1"/>
<stop offset="0.8125" stop-color="#FF1CF7"/>
</linearGradient>
<linearGradient id="paint65_linear_2628_20945" x1="591.136" y1="11.1612" x2="1217.65" y2="11.1596" gradientUnits="userSpaceOnUse">
<stop stop-color="#00F0FF"/>
<stop offset="0.489583" stop-color="#4C02E1"/>
<stop offset="0.8125" stop-color="#FF1CF7"/>
</linearGradient>
<linearGradient id="paint66_linear_2628_20945" x1="591.136" y1="10.6816" x2="1217.65" y2="10.6799" gradientUnits="userSpaceOnUse">
<stop stop-color="#00F0FF"/>
<stop offset="0.489583" stop-color="#4C02E1"/>
<stop offset="0.8125" stop-color="#FF1CF7"/>
</linearGradient>
<linearGradient id="paint67_linear_2628_20945" x1="591.121" y1="10.3751" x2="1217.62" y2="10.3735" gradientUnits="userSpaceOnUse">
<stop stop-color="#00F0FF"/>
<stop offset="0.489583" stop-color="#4C02E1"/>
<stop offset="0.8125" stop-color="#FF1CF7"/>
</linearGradient>
<linearGradient id="paint68_linear_2628_20945" x1="591.152" y1="10.1944" x2="1217.68" y2="10.1927" gradientUnits="userSpaceOnUse">
<stop stop-color="#00F0FF"/>
<stop offset="0.489583" stop-color="#4C02E1"/>
<stop offset="0.8125" stop-color="#FF1CF7"/>
</linearGradient>
</defs>
</svg>
