<svg width="937" height="937" viewBox="0 0 937 937" fill="none" xmlns="http://www.w3.org/2000/svg">
<path opacity="0.0344828" d="M176.689 414.124L327.468 387.732C340.969 385.369 350.16 372.719 348.236 359.148L326.742 207.593C323.295 183.291 353.854 169.685 369.608 188.508L467.853 305.891C476.65 316.402 492.201 318.036 502.992 309.584L623.495 215.193C642.819 200.056 669.881 219.718 661.457 242.773L608.922 386.547C604.218 399.422 610.578 413.706 623.293 418.825L765.291 475.988C788.061 485.155 784.564 518.422 760.386 522.654L609.607 549.045C596.105 551.408 586.914 564.059 588.839 577.63L610.333 729.184C613.779 753.487 583.221 767.093 567.466 748.27L469.221 630.887C460.424 620.376 444.873 618.741 434.083 627.193L313.579 721.585C294.256 736.721 267.194 717.059 275.618 694.004L328.152 550.23C332.856 537.356 326.496 523.071 313.781 517.953L171.784 460.79C149.014 451.623 152.51 418.356 176.689 414.124Z" stroke="url(#paint0_linear_2628_20927)"/>
<path opacity="0.0689655" d="M184.542 399.654L333.268 381.582C346.875 379.929 356.715 367.777 355.504 354.124L342.259 204.89C340.089 180.441 371.318 168.453 386.065 188.075L476.079 307.84C484.314 318.797 499.758 321.243 510.976 313.367L633.593 227.279C653.682 213.175 679.679 234.226 670.059 256.809L611.347 394.646C605.975 407.256 611.579 421.854 624.009 427.631L759.871 490.777C782.131 501.123 776.898 534.162 752.531 537.122L603.805 555.194C590.198 556.848 580.358 568.999 581.569 582.652L594.815 731.886C596.985 756.336 565.756 768.324 551.008 748.702L460.994 628.937C452.759 617.98 437.315 615.534 426.097 623.41L303.48 709.497C283.391 723.601 257.395 702.55 267.014 679.968L325.726 542.131C331.098 529.52 325.494 514.923 313.064 509.145L177.202 445.999C154.943 435.654 160.175 402.615 184.542 399.654Z" stroke="url(#paint1_linear_2628_20927)"/>
<path opacity="0.103448" d="M193.098 385.856L339.323 375.816C352.998 374.877 363.46 363.257 362.965 349.559L357.666 203.086C356.778 178.556 388.592 168.219 402.292 188.586L484.1 310.2C491.75 321.573 507.045 324.824 518.66 317.546L642.86 239.72C663.66 226.686 688.519 249.069 677.731 271.117L613.313 402.772C607.289 415.084 612.121 429.955 624.232 436.375L753.731 505.023C775.418 516.519 768.463 549.239 743.975 550.92L597.75 560.961C584.076 561.9 573.613 573.52 574.108 587.218L579.408 733.691C580.295 758.221 548.481 768.558 534.781 748.191L452.973 626.577C445.323 615.204 430.028 611.953 418.413 619.231L294.213 697.057C273.413 710.09 248.555 687.707 259.343 665.659L323.76 534.004C329.784 521.692 324.952 506.821 312.842 500.402L183.342 431.754C161.655 420.258 168.61 387.538 193.098 385.856Z" stroke="url(#paint2_linear_2628_20927)"/>
<path opacity="0.137931" d="M202.308 372.764L345.607 370.442C359.312 370.22 370.369 359.164 370.591 345.459L372.912 202.159C373.31 177.617 405.621 168.959 418.236 190.015L491.896 312.955C498.941 324.713 514.044 328.76 526.024 322.1L651.286 252.46C672.739 240.533 696.393 264.187 684.466 285.64L614.826 410.901C608.166 422.881 612.213 437.985 623.971 445.03L746.911 518.69C767.967 531.305 759.309 563.616 734.767 564.014L591.467 566.335C577.762 566.557 566.706 577.614 566.484 591.319L564.162 734.618C563.765 759.161 531.454 767.818 518.838 746.763L445.178 623.822C438.133 612.064 423.03 608.017 411.05 614.678L285.788 684.317C264.335 696.244 240.682 672.591 252.609 651.137L322.248 525.876C328.908 513.896 324.861 498.793 313.104 491.748L190.163 418.088C169.107 405.472 177.765 373.161 202.308 372.764Z" stroke="url(#paint3_linear_2628_20927)"/>
<path opacity="0.172414" d="M212.119 360.404L352.095 365.468C365.792 365.964 377.412 355.501 378.351 341.827L387.946 202.088C389.628 177.6 422.348 170.645 433.844 192.333L499.446 316.087C505.866 328.198 520.737 333.029 533.049 327.005L658.863 265.446C680.912 254.658 703.294 279.517 690.261 300.316L615.888 419.007C608.609 430.622 611.86 445.916 623.233 453.567L739.453 531.745C759.819 545.446 749.483 577.259 724.953 576.372L584.977 571.308C571.279 570.812 559.659 581.275 558.72 594.95L549.125 734.688C547.444 759.176 514.724 766.131 503.228 744.444L437.625 620.689C431.206 608.579 416.335 603.747 404.023 609.771L278.208 671.33C256.16 682.118 233.777 657.259 246.811 636.46L321.184 517.769C328.462 506.154 325.211 490.86 313.838 483.209L197.619 405.031C177.252 391.33 187.589 359.517 212.119 360.404Z" stroke="url(#paint4_linear_2628_20927)"/>
<path opacity="0.206897" d="M222.484 348.807L358.765 360.902C372.418 362.114 384.57 352.274 386.223 338.667L402.726 202.85C405.687 178.483 438.726 173.251 449.071 195.51L506.737 319.58C512.514 332.01 527.112 337.613 539.722 332.242L665.595 278.625C688.177 269.006 709.228 295.002 695.124 315.091L616.509 427.066C608.633 438.284 611.079 453.728 622.036 461.963L731.406 544.164C751.028 558.911 739.04 590.14 714.59 587.97L578.31 575.875C564.656 574.663 552.505 584.503 550.851 598.11L534.348 733.927C531.388 758.294 498.349 763.526 488.003 741.267L430.338 617.197C424.561 604.767 409.963 599.164 397.353 604.535L271.48 658.152C248.897 667.771 227.846 641.775 241.95 621.686L320.565 509.711C328.441 498.493 325.995 483.049 315.038 474.814L205.669 392.613C186.047 377.866 198.035 346.637 222.484 348.807Z" stroke="url(#paint5_linear_2628_20927)"/>
<path opacity="0.241379" d="M233.348 337.994L365.59 356.749C379.161 358.673 391.811 349.483 394.174 335.981L417.202 204.416C421.434 180.238 454.702 176.741 463.868 199.511L513.747 323.413C518.866 336.129 533.15 342.488 546.024 337.784L671.477 291.945C694.532 283.521 714.194 310.583 699.058 329.906L616.695 435.054C608.242 445.844 609.877 461.395 620.388 470.192L722.812 555.917C741.635 571.672 728.03 602.23 703.727 598.784L571.485 580.029C557.914 578.104 545.264 587.295 542.901 600.797L519.873 732.361C515.641 756.54 482.373 760.036 473.207 737.266L423.328 613.364C418.21 600.649 403.925 594.289 391.051 598.993L265.598 644.833C242.543 653.257 222.881 626.195 238.018 606.871L320.38 501.724C328.833 490.934 327.198 475.383 316.687 466.586L214.263 380.86C195.44 365.106 209.045 334.547 233.348 337.994Z" stroke="url(#paint6_linear_2628_20927)"/>
<path opacity="0.275862" d="M244.656 327.985L372.544 353.011C385.996 355.643 399.109 347.127 402.176 333.768L431.331 206.757C436.822 182.833 470.227 181.083 478.19 204.301L520.461 327.569C524.907 340.534 538.839 347.633 551.942 343.609L676.514 305.353C699.978 298.147 718.197 326.201 702.07 344.706L616.453 442.947C607.447 453.281 608.266 468.896 618.302 478.231L713.719 566.985C731.692 583.703 716.506 613.508 692.417 608.794L564.528 583.768C551.076 581.136 537.963 589.652 534.896 603.011L505.741 730.022C500.25 753.946 466.845 755.696 458.883 732.478L416.611 609.21C412.165 596.245 398.233 589.146 385.13 593.17L260.558 631.427C237.094 638.633 218.875 610.578 235.002 592.074L320.619 493.832C329.625 483.498 328.807 467.884 318.77 458.548L223.353 369.794C205.38 353.076 220.567 323.272 244.656 327.985Z" stroke="url(#paint7_linear_2628_20927)"/>
<path opacity="0.310345" d="M256.357 318.796L379.607 349.69C392.903 353.023 406.444 345.204 410.206 332.024L445.075 209.839C451.811 186.236 485.262 186.236 491.998 209.839L526.868 332.024C530.63 345.204 544.171 353.023 557.467 349.69L680.717 318.796C704.526 312.828 721.251 341.797 704.178 359.432L615.798 450.723C606.264 460.571 606.264 476.207 615.798 486.055L704.178 577.345C721.251 594.981 704.526 623.95 680.717 617.982L557.467 587.088C544.171 583.755 530.63 591.573 526.868 604.754L491.998 726.938C485.262 750.542 451.811 750.542 445.075 726.938L410.206 604.754C406.444 591.573 392.903 583.755 379.607 587.088L256.357 617.982C232.548 623.95 215.822 594.981 232.896 577.345L321.276 486.055C330.81 476.207 330.81 460.571 321.276 450.723L232.896 359.432C215.822 341.797 232.548 312.828 256.357 318.796Z" stroke="url(#paint8_linear_2628_20927)"/>
<path opacity="0.344828" d="M268.395 310.44L386.751 346.788C399.854 350.811 413.786 343.713 418.232 330.747L458.395 213.63C466.357 190.412 499.762 192.162 505.253 216.086L532.953 336.759C536.02 350.119 549.134 358.635 562.585 356.003L684.093 332.226C708.182 327.512 723.368 357.317 705.395 374.034L614.739 458.36C604.703 467.695 603.884 483.31 612.89 493.644L694.235 586.984C710.362 605.488 692.143 633.542 668.679 626.336L550.323 589.989C537.22 585.965 523.288 593.063 518.841 606.029L478.679 723.146C470.717 746.365 437.312 744.614 431.821 720.69L404.121 600.017C401.054 586.657 387.94 578.141 374.489 580.774L252.981 604.551C228.892 609.265 213.706 579.46 231.679 562.742L322.335 478.416C332.371 469.081 333.19 453.466 324.184 443.133L242.839 349.793C226.712 331.288 244.931 303.234 268.395 310.44Z" stroke="url(#paint9_linear_2628_20927)"/>
<path opacity="0.37931" d="M280.714 302.928L393.952 344.304C406.826 349.009 421.111 342.649 426.23 329.934L471.252 218.095C480.418 195.325 513.686 198.821 517.918 223L538.704 341.755C541.067 355.257 553.717 364.447 567.288 362.523L686.655 345.594C710.957 342.147 724.563 372.706 705.74 388.46L613.288 465.839C602.777 474.637 601.142 490.187 609.594 500.978L683.938 595.888C699.075 615.211 679.413 642.273 656.358 633.849L543.119 592.473C530.245 587.768 515.961 594.128 510.842 606.844L465.82 718.682C456.653 741.452 423.386 737.956 419.154 713.777L398.368 595.022C396.004 581.52 383.354 572.33 369.783 574.254L250.417 591.183C226.114 594.63 212.509 564.071 231.332 548.317L323.784 470.938C334.295 462.14 335.929 446.59 327.477 435.799L253.133 340.889C237.997 321.566 257.659 294.504 280.714 302.928Z" stroke="url(#paint10_linear_2628_20927)"/>
<path opacity="0.413793" d="M293.263 296.266L401.19 342.238C413.8 347.609 428.398 342.006 434.175 329.576L483.619 223.195C493.964 200.936 527.003 206.169 529.964 230.535L544.114 346.989C545.767 360.595 557.919 370.436 571.572 369.224L688.423 358.853C712.872 356.683 724.86 387.912 705.238 402.659L611.462 473.14C600.505 481.375 598.059 496.819 605.935 508.037L673.342 604.047C687.446 624.136 666.394 650.132 643.812 640.513L535.885 594.541C523.275 589.17 508.677 594.773 502.9 607.203L453.456 713.584C443.111 735.843 410.072 730.61 407.111 706.244L392.961 589.79C391.308 576.184 379.156 566.343 365.503 567.555L248.652 577.926C224.202 580.096 212.215 548.867 231.837 534.12L325.613 463.639C336.57 455.403 339.016 439.96 331.14 428.742L263.733 332.732C249.629 312.643 270.68 286.646 293.263 296.266Z" stroke="url(#paint11_linear_2628_20927)"/>
<path opacity="0.448276" d="M305.984 290.453L408.436 340.582C420.748 346.606 435.619 341.774 442.039 329.664L495.46 228.889C506.956 207.202 539.676 214.157 541.357 238.645L549.171 352.435C550.11 366.11 561.73 376.573 575.427 376.077L689.412 371.953C713.941 371.066 724.278 402.88 703.912 416.58L609.273 480.242C597.9 487.892 594.649 503.187 601.927 514.802L662.49 611.453C675.523 632.253 653.141 657.112 631.092 646.324L528.64 596.195C516.328 590.171 501.457 595.003 495.037 607.113L441.616 707.888C430.12 729.575 397.4 722.621 395.719 698.132L387.905 584.342C386.966 570.667 375.346 560.204 361.649 560.7L247.665 564.824C223.135 565.711 212.798 533.897 233.164 520.197L327.803 456.535C339.176 448.885 342.427 433.59 335.149 421.975L274.586 325.324C261.553 304.524 283.935 279.665 305.984 290.453Z" stroke="url(#paint12_linear_2628_20927)"/>
<path opacity="0.482759" d="M318.822 285.493L415.669 339.335C427.649 345.996 442.752 341.949 449.797 330.191L506.748 235.139C519.363 214.083 551.674 222.74 552.072 247.283L553.867 358.076C554.089 371.781 565.145 382.838 578.85 383.06L689.643 384.854C714.186 385.252 722.844 417.563 701.788 430.179L606.736 487.129C594.978 494.174 590.931 509.278 597.591 521.258L651.433 618.105C663.36 639.558 639.707 663.211 618.254 651.284L521.407 597.442C509.427 590.782 494.323 594.829 487.279 606.586L430.328 701.639C417.712 722.695 385.401 714.037 385.004 689.494L383.209 578.701C382.987 564.996 371.93 553.94 358.225 553.718L247.432 551.923C222.89 551.525 214.232 519.214 235.288 506.599L330.34 449.648C342.098 442.603 346.145 427.5 339.485 415.52L285.642 318.673C273.715 297.219 297.368 273.566 318.822 285.493Z" stroke="url(#paint13_linear_2628_20927)"/>
<path opacity="0.517241" d="M331.723 281.38L422.865 338.491C434.48 345.769 449.774 342.518 457.425 331.145L517.458 241.901C531.158 221.534 562.972 231.871 562.084 256.401L558.196 363.887C557.7 377.585 568.163 389.205 581.837 390.144L689.141 397.512C713.629 399.194 720.584 431.913 698.897 443.41L603.867 493.785C591.756 500.205 586.925 515.076 592.949 527.388L640.22 624C651.008 646.048 626.149 668.431 605.349 655.397L514.208 598.287C502.593 591.009 487.298 594.259 479.648 605.633L419.615 694.876C405.915 715.243 374.101 704.906 374.988 680.376L378.877 572.89C379.373 559.192 368.91 547.572 355.235 546.633L247.931 539.265C223.443 537.584 216.488 504.864 238.176 493.368L333.206 442.992C345.316 436.573 350.148 421.702 344.124 409.39L296.853 312.778C286.065 290.729 310.924 268.347 331.723 281.38Z" stroke="url(#paint14_linear_2628_20927)"/>
<path opacity="0.551724" d="M344.639 278.106L430.006 338.041C441.224 345.917 456.668 343.471 464.903 332.513L527.571 249.133C542.318 229.511 573.547 241.499 571.377 265.948L562.156 369.845C560.944 383.499 570.784 395.65 584.391 397.303L687.935 409.885C712.302 412.846 717.535 445.885 695.275 456.23L600.687 500.193C588.257 505.97 582.654 520.568 588.025 533.178L628.901 629.141C638.521 651.723 612.524 672.775 592.435 658.67L507.068 598.736C495.85 590.86 480.407 593.306 472.171 604.263L409.503 687.644C394.756 707.266 363.527 695.278 365.697 670.828L374.918 566.931C376.13 553.278 366.29 541.126 352.683 539.473L249.139 526.891C224.773 523.931 219.54 490.892 241.799 480.546L336.387 436.583C348.817 430.806 354.42 416.209 349.049 403.598L308.173 307.636C298.554 285.053 324.55 264.002 344.639 278.106Z" stroke="url(#paint15_linear_2628_20927)"/>
<path opacity="0.586207" d="M357.513 275.663L437.067 337.978C447.857 346.43 463.408 344.796 472.205 334.285L537.064 256.791C552.819 237.968 583.377 251.574 579.931 275.876L565.741 375.93C563.816 389.501 573.007 402.151 586.509 404.514L686.05 421.937C710.228 426.169 713.725 459.436 690.955 468.603L597.211 506.341C584.496 511.459 578.136 525.744 582.84 538.618L617.522 633.535C625.946 656.59 598.884 676.252 579.561 661.115L500.007 598.8C489.216 590.348 473.666 591.982 464.868 602.493L400.009 679.987C384.255 698.81 353.696 685.204 357.143 660.902L371.332 560.848C373.257 547.277 364.066 534.627 350.565 532.264L251.024 514.841C226.845 510.609 223.349 477.342 246.119 468.175L339.862 430.437C352.578 425.319 358.937 411.034 354.233 398.16L319.551 303.243C311.127 280.188 338.189 260.526 357.513 275.663Z" stroke="url(#paint16_linear_2628_20927)"/>
<path opacity="0.62069" d="M370.296 274.034L444.028 338.291C454.361 347.297 469.976 346.479 479.312 336.442L545.924 264.83C562.641 246.857 592.446 262.043 587.732 286.132L568.95 382.115C566.318 395.567 574.834 408.681 588.193 411.747L683.518 433.628C707.441 439.12 709.192 472.525 685.973 480.487L593.458 512.213C580.493 516.659 573.394 530.591 577.418 543.694L606.13 637.187C613.336 660.652 585.282 678.87 566.777 662.744L493.045 598.486C482.712 589.481 467.097 590.299 457.761 600.335L391.149 671.948C374.432 689.921 344.627 674.734 349.341 650.645L368.123 554.662C370.755 541.211 362.239 528.097 348.88 525.03L253.555 503.149C229.632 497.658 227.881 464.253 251.1 456.291L343.615 424.565C356.58 420.119 363.679 406.187 359.655 393.084L330.943 299.59C323.737 276.126 351.791 257.907 370.296 274.034Z" stroke="url(#paint17_linear_2628_20927)"/>
<path opacity="0.655172" d="M382.938 273.205L450.871 338.972C460.718 348.505 476.355 348.505 486.203 338.972L554.135 273.205C571.771 256.132 600.74 272.857 594.772 296.666L571.782 388.381C568.45 401.677 576.268 415.218 589.448 418.979L680.371 444.927C703.974 451.664 703.974 485.114 680.371 491.85L589.448 517.798C576.268 521.56 568.45 535.101 571.782 548.397L594.772 640.112C600.74 663.921 571.771 680.646 554.135 663.573L486.203 597.806C476.355 588.272 460.718 588.272 450.871 597.806L382.938 663.573C365.303 680.646 336.333 663.921 342.301 640.112L365.291 548.397C368.624 535.101 360.805 521.56 347.625 517.798L256.703 491.85C233.099 485.114 233.099 451.664 256.703 444.927L347.625 418.98C360.805 415.218 368.624 401.677 365.291 388.381L342.301 296.666C336.333 272.857 365.302 256.131 382.938 273.205Z" stroke="url(#paint18_linear_2628_20927)"/>
<path opacity="0.689655" d="M395.392 273.134L457.576 339.986C466.911 350.022 482.526 350.841 492.859 341.835L561.69 281.85C580.195 265.723 608.249 283.941 601.043 307.406L574.239 394.684C570.215 407.787 577.314 421.719 590.28 426.165L676.644 455.781C699.863 463.744 698.112 497.148 674.188 502.64L585.201 523.067C571.842 526.133 563.326 539.247 565.958 552.699L583.492 642.3C588.206 666.389 558.401 681.576 541.683 663.603L479.5 596.751C470.164 586.715 454.549 585.897 444.216 594.902L375.385 654.888C356.881 671.015 328.826 652.796 336.032 629.332L362.836 542.053C366.86 528.951 359.761 515.019 346.796 510.572L260.431 480.956C237.213 472.994 238.963 439.589 262.887 434.097L351.874 413.671C365.233 410.604 373.749 397.49 371.117 384.039L353.584 294.437C348.87 270.348 378.675 255.162 395.392 273.134Z" stroke="url(#paint19_linear_2628_20927)"/>
<path opacity="0.724138" d="M407.609 273.841L464.122 341.362C472.919 351.874 488.47 353.508 499.26 345.056L568.577 290.759C587.9 275.623 614.962 295.285 606.538 318.34L576.319 401.042C571.615 413.917 577.975 428.201 590.69 433.32L672.37 466.201C695.14 475.368 691.644 508.635 667.466 512.867L580.734 528.048C567.232 530.411 558.042 543.061 559.966 556.632L572.33 643.81C575.777 668.113 545.218 681.719 529.464 662.896L472.951 595.374C464.153 584.863 448.603 583.229 437.812 591.681L368.496 645.977C349.173 661.113 322.11 641.452 330.534 618.396L360.753 535.694C365.457 522.82 359.098 508.536 346.382 503.417L264.702 470.535C241.932 461.369 245.429 428.101 269.607 423.869L356.339 408.688C369.84 406.325 379.031 393.675 377.106 380.104L364.743 292.926C361.296 268.624 391.855 255.018 407.609 273.841Z" stroke="url(#paint20_linear_2628_20927)"/>
<path opacity="0.758621" d="M419.548 275.281L470.496 343.069C478.732 354.026 494.175 356.472 505.393 348.596L574.796 299.87C594.885 285.766 620.881 306.817 611.262 329.399L578.03 407.416C572.659 420.026 578.262 434.624 590.692 440.401L667.591 476.142C689.85 486.488 684.617 519.527 660.251 522.488L576.071 532.716C562.464 534.37 552.624 546.521 553.836 560.174L561.332 644.642C563.502 669.091 532.273 681.079 517.526 661.457L466.578 593.67C458.342 582.713 442.899 580.267 431.681 588.142L362.278 636.869C342.189 650.973 316.193 629.921 325.812 607.339L359.044 529.323C364.416 516.712 358.812 502.114 346.382 496.337L269.483 460.596C247.224 450.25 252.457 417.212 276.823 414.251L361.003 404.022C374.61 402.369 384.45 390.217 383.239 376.564L375.742 292.097C373.572 267.647 404.801 255.659 419.548 275.281Z" stroke="url(#paint21_linear_2628_20927)"/>
<path opacity="0.793103" d="M431.165 277.424L476.681 345.087C484.332 356.461 499.626 359.711 511.241 352.433L580.343 309.133C601.143 296.099 626.002 318.482 615.214 340.53L579.374 413.78C573.35 426.092 578.181 440.963 590.292 447.383L662.343 485.577C684.03 497.073 677.075 529.793 652.587 531.475L571.23 537.061C557.556 538 547.093 549.62 547.588 563.318L550.537 644.813C551.424 669.342 519.611 679.679 505.91 659.313L460.394 591.649C452.744 580.276 437.449 577.025 425.834 584.303L356.732 627.604C335.932 640.637 311.073 618.254 321.861 596.206L357.702 522.956C363.726 510.644 358.894 495.773 346.783 489.353L274.733 451.159C253.046 439.663 260 406.943 284.489 405.262L365.845 399.675C379.52 398.736 389.982 387.116 389.487 373.419L386.539 291.924C385.651 267.394 417.465 257.057 431.165 277.424Z" stroke="url(#paint22_linear_2628_20927)"/>
<path opacity="0.827586" d="M442.418 280.242L482.66 347.407C489.705 359.165 504.808 363.212 516.788 356.551L585.22 318.506C606.674 306.579 630.327 330.232 618.4 351.686L580.355 420.118C573.695 432.098 577.742 447.201 589.5 454.246L656.664 494.488C677.72 507.103 669.062 539.414 644.519 539.812L566.232 541.08C552.527 541.302 541.471 552.359 541.249 566.064L539.981 644.35C539.583 668.893 507.272 677.551 494.657 656.495L454.415 589.331C447.37 577.573 432.267 573.526 420.287 580.186L351.855 618.231C330.401 630.158 306.748 606.505 318.675 585.052L356.72 516.619C363.38 504.639 359.333 489.536 347.575 482.491L280.411 442.25C259.355 429.634 268.013 397.323 292.556 396.925L370.842 395.657C384.547 395.435 395.604 384.379 395.826 370.674L397.094 292.387C397.492 267.844 429.803 259.187 442.418 280.242Z" stroke="url(#paint23_linear_2628_20927)"/>
<path opacity="0.862069" d="M453.27 283.703L488.419 350.009C494.839 362.12 509.71 366.951 522.022 360.927L589.431 327.945C611.479 317.157 633.862 342.015 620.829 362.815L580.981 426.408C573.703 438.023 576.954 453.317 588.327 460.968L650.595 502.855C670.962 516.555 660.625 548.369 636.095 547.481L561.098 544.768C547.4 544.272 535.78 554.735 534.841 568.41L529.701 643.279C528.019 667.768 495.299 674.722 483.803 653.035L448.654 586.729C442.235 574.619 427.364 569.787 415.051 575.811L347.642 608.794C325.594 619.582 303.211 594.723 316.244 573.923L356.093 510.331C363.371 498.716 360.12 483.421 348.747 475.771L286.478 433.884C266.111 420.183 276.448 388.37 300.978 389.257L375.975 391.971C389.673 392.466 401.293 382.003 402.232 368.329L407.373 293.459C409.054 268.971 441.774 262.016 453.27 283.703Z" stroke="url(#paint24_linear_2628_20927)"/>
<path opacity="0.896552" d="M463.688 287.771L493.948 352.877C499.725 365.307 514.323 370.911 526.933 365.539L592.986 337.404C615.568 327.785 636.619 353.781 622.515 373.87L581.262 432.629C573.385 443.847 575.832 459.291 586.789 467.526L644.181 510.661C663.803 525.409 651.815 556.638 627.365 554.468L555.851 548.12C542.198 546.909 530.047 556.749 528.393 570.356L519.733 641.626C516.772 665.993 483.733 671.226 473.388 648.967L443.128 583.86C437.351 571.43 422.753 565.827 410.142 571.198L344.09 599.334C321.508 608.953 300.456 582.957 314.561 562.868L355.814 504.109C363.69 492.891 361.244 477.447 350.287 469.212L292.895 426.076C273.273 411.329 285.261 380.1 309.711 382.27L381.224 388.617C394.877 389.829 407.029 379.989 408.683 366.382L417.343 295.111C420.303 270.745 453.342 265.512 463.688 287.771Z" stroke="url(#paint25_linear_2628_20927)"/>
<path opacity="0.931035" d="M473.633 292.41L499.23 355.995C504.349 368.71 518.633 375.07 531.508 370.366L595.888 346.842C618.943 338.418 638.605 365.48 623.469 384.803L581.201 438.764C572.749 449.554 574.383 465.105 584.894 473.902L637.457 517.895C656.28 533.649 642.675 564.208 618.372 560.762L550.507 551.137C536.936 549.212 524.286 558.403 521.923 571.905L510.105 639.422C505.873 663.6 472.606 667.097 463.439 644.327L437.842 580.742C432.724 568.027 418.439 561.667 405.565 566.371L341.184 589.895C318.129 598.319 298.467 571.257 313.604 551.934L355.871 497.973C364.323 487.183 362.689 471.632 352.178 462.835L299.615 418.842C280.792 403.088 294.398 372.529 318.7 375.976L386.565 385.6C400.136 387.525 412.786 378.334 415.149 364.833L426.967 297.315C431.199 273.137 464.467 269.64 473.633 292.41Z" stroke="url(#paint26_linear_2628_20927)"/>
<path opacity="0.965517" d="M483.08 297.584L504.26 359.346C508.706 372.312 522.638 379.411 535.741 375.387L598.157 356.219C621.621 349.013 639.839 377.067 623.713 395.571L580.815 444.795C571.809 455.128 572.628 470.743 582.664 480.078L630.472 524.548C648.445 541.266 633.258 571.07 609.169 566.357L545.092 553.818C531.64 551.185 518.527 559.701 515.46 573.061L500.852 636.699C495.361 660.622 461.956 662.373 453.994 639.154L432.814 577.392C428.368 564.427 414.436 557.328 401.333 561.352L338.917 580.52C315.453 587.726 297.234 559.672 313.361 541.167L356.259 491.944C365.264 481.61 364.446 465.996 354.41 456.66L306.602 412.191C288.629 395.473 303.815 365.668 327.904 370.382L391.982 382.921C405.433 385.553 418.547 377.037 421.614 363.678L436.221 300.04C441.713 276.116 475.118 274.366 483.08 297.584Z" stroke="url(#paint27_linear_2628_20927)"/>
<path d="M491.998 303.25L509.024 362.91C512.786 376.091 526.327 383.909 539.623 380.576L599.803 365.491C623.612 359.523 640.337 388.492 623.264 406.128L580.11 450.703C570.576 460.55 570.576 476.187 580.11 486.035L623.264 530.61C640.337 548.245 623.612 577.214 599.802 571.246L539.623 556.161C526.327 552.828 512.786 560.647 509.024 573.827L491.998 633.487C485.262 657.09 451.811 657.09 445.075 633.487L428.049 573.827C424.287 560.647 410.746 552.828 397.451 556.161L337.271 571.246C313.461 577.214 296.736 548.245 313.809 530.609L356.963 486.035C366.497 476.187 366.497 460.55 356.963 450.703L313.809 406.128C296.736 388.492 313.461 359.523 337.271 365.491L397.451 380.576C410.746 383.909 424.287 376.091 428.049 362.91L445.075 303.25C451.811 279.647 485.262 279.647 491.998 303.25Z" stroke="url(#paint28_linear_2628_20927)"/>
<defs>
<linearGradient id="paint0_linear_2628_20927" x1="436.861" y1="847.106" x2="367.245" y2="105.35" gradientUnits="userSpaceOnUse">
<stop stop-color="#EE2EFF"/>
<stop offset="1" stop-color="#00D1FF"/>
</linearGradient>
<linearGradient id="paint1_linear_2628_20927" x1="417.716" y1="840.299" x2="387.393" y2="105.069" gradientUnits="userSpaceOnUse">
<stop stop-color="#EE2EFF"/>
<stop offset="1" stop-color="#00D1FF"/>
</linearGradient>
<linearGradient id="paint2_linear_2628_20927" x1="399.195" y1="832.539" x2="407.291" y2="105.889" gradientUnits="userSpaceOnUse">
<stop stop-color="#EE2EFF"/>
<stop offset="1" stop-color="#00D1FF"/>
</linearGradient>
<linearGradient id="paint3_linear_2628_20927" x1="381.346" y1="823.874" x2="426.879" y2="107.785" gradientUnits="userSpaceOnUse">
<stop stop-color="#EE2EFF"/>
<stop offset="1" stop-color="#00D1FF"/>
</linearGradient>
<linearGradient id="paint4_linear_2628_20927" x1="364.208" y1="814.349" x2="446.098" y2="110.723" gradientUnits="userSpaceOnUse">
<stop stop-color="#EE2EFF"/>
<stop offset="1" stop-color="#00D1FF"/>
</linearGradient>
<linearGradient id="paint5_linear_2628_20927" x1="347.828" y1="804.018" x2="464.896" y2="114.673" gradientUnits="userSpaceOnUse">
<stop stop-color="#EE2EFF"/>
<stop offset="1" stop-color="#00D1FF"/>
</linearGradient>
<linearGradient id="paint6_linear_2628_20927" x1="332.237" y1="792.933" x2="483.219" y2="119.598" gradientUnits="userSpaceOnUse">
<stop stop-color="#EE2EFF"/>
<stop offset="1" stop-color="#00D1FF"/>
</linearGradient>
<linearGradient id="paint7_linear_2628_20927" x1="317.47" y1="781.148" x2="501.015" y2="125.458" gradientUnits="userSpaceOnUse">
<stop stop-color="#EE2EFF"/>
<stop offset="1" stop-color="#00D1FF"/>
</linearGradient>
<linearGradient id="paint8_linear_2628_20927" x1="303.559" y1="768.717" x2="518.241" y2="132.211" gradientUnits="userSpaceOnUse">
<stop stop-color="#EE2EFF"/>
<stop offset="1" stop-color="#00D1FF"/>
</linearGradient>
<linearGradient id="paint9_linear_2628_20927" x1="290.528" y1="755.699" x2="534.85" y2="139.815" gradientUnits="userSpaceOnUse">
<stop stop-color="#EE2EFF"/>
<stop offset="1" stop-color="#00D1FF"/>
</linearGradient>
<linearGradient id="paint10_linear_2628_20927" x1="278.4" y1="742.151" x2="550.801" y2="148.225" gradientUnits="userSpaceOnUse">
<stop stop-color="#EE2EFF"/>
<stop offset="1" stop-color="#00D1FF"/>
</linearGradient>
<linearGradient id="paint11_linear_2628_20927" x1="267.197" y1="728.133" x2="566.059" y2="157.392" gradientUnits="userSpaceOnUse">
<stop stop-color="#EE2EFF"/>
<stop offset="1" stop-color="#00D1FF"/>
</linearGradient>
<linearGradient id="paint12_linear_2628_20927" x1="256.931" y1="713.7" x2="580.587" y2="167.264" gradientUnits="userSpaceOnUse">
<stop stop-color="#EE2EFF"/>
<stop offset="1" stop-color="#00D1FF"/>
</linearGradient>
<linearGradient id="paint13_linear_2628_20927" x1="247.615" y1="698.916" x2="594.351" y2="177.794" gradientUnits="userSpaceOnUse">
<stop stop-color="#EE2EFF"/>
<stop offset="1" stop-color="#00D1FF"/>
</linearGradient>
<linearGradient id="paint14_linear_2628_20927" x1="239.257" y1="683.838" x2="607.325" y2="188.927" gradientUnits="userSpaceOnUse">
<stop stop-color="#EE2EFF"/>
<stop offset="1" stop-color="#00D1FF"/>
</linearGradient>
<linearGradient id="paint15_linear_2628_20927" x1="231.864" y1="668.526" x2="619.486" y2="200.61" gradientUnits="userSpaceOnUse">
<stop stop-color="#EE2EFF"/>
<stop offset="1" stop-color="#00D1FF"/>
</linearGradient>
<linearGradient id="paint16_linear_2628_20927" x1="225.435" y1="653.04" x2="630.809" y2="212.79" gradientUnits="userSpaceOnUse">
<stop stop-color="#EE2EFF"/>
<stop offset="1" stop-color="#00D1FF"/>
</linearGradient>
<linearGradient id="paint17_linear_2628_20927" x1="219.968" y1="637.436" x2="641.278" y2="225.41" gradientUnits="userSpaceOnUse">
<stop stop-color="#EE2EFF"/>
<stop offset="1" stop-color="#00D1FF"/>
</linearGradient>
<linearGradient id="paint18_linear_2628_20927" x1="215.457" y1="621.773" x2="650.879" y2="238.415" gradientUnits="userSpaceOnUse">
<stop stop-color="#EE2EFF"/>
<stop offset="1" stop-color="#00D1FF"/>
</linearGradient>
<linearGradient id="paint19_linear_2628_20927" x1="211.895" y1="606.088" x2="659.601" y2="251.728" gradientUnits="userSpaceOnUse">
<stop stop-color="#EE2EFF"/>
<stop offset="1" stop-color="#00D1FF"/>
</linearGradient>
<linearGradient id="paint20_linear_2628_20927" x1="209.265" y1="590.477" x2="667.433" y2="265.334" gradientUnits="userSpaceOnUse">
<stop stop-color="#EE2EFF"/>
<stop offset="1" stop-color="#00D1FF"/>
</linearGradient>
<linearGradient id="paint21_linear_2628_20927" x1="207.556" y1="574.974" x2="674.376" y2="279.159" gradientUnits="userSpaceOnUse">
<stop stop-color="#EE2EFF"/>
<stop offset="1" stop-color="#00D1FF"/>
</linearGradient>
<linearGradient id="paint22_linear_2628_20927" x1="206.747" y1="559.63" x2="680.426" y2="293.143" gradientUnits="userSpaceOnUse">
<stop stop-color="#EE2EFF"/>
<stop offset="1" stop-color="#00D1FF"/>
</linearGradient>
<linearGradient id="paint23_linear_2628_20927" x1="206.816" y1="544.499" x2="685.585" y2="307.236" gradientUnits="userSpaceOnUse">
<stop stop-color="#EE2EFF"/>
<stop offset="1" stop-color="#00D1FF"/>
</linearGradient>
<linearGradient id="paint24_linear_2628_20927" x1="207.738" y1="529.63" x2="689.859" y2="321.38" gradientUnits="userSpaceOnUse">
<stop stop-color="#EE2EFF"/>
<stop offset="1" stop-color="#00D1FF"/>
</linearGradient>
<linearGradient id="paint25_linear_2628_20927" x1="209.489" y1="515.067" x2="693.261" y2="335.522" gradientUnits="userSpaceOnUse">
<stop stop-color="#EE2EFF"/>
<stop offset="1" stop-color="#00D1FF"/>
</linearGradient>
<linearGradient id="paint26_linear_2628_20927" x1="212.034" y1="500.858" x2="695.797" y2="349.612" gradientUnits="userSpaceOnUse">
<stop stop-color="#EE2EFF"/>
<stop offset="1" stop-color="#00D1FF"/>
</linearGradient>
<linearGradient id="paint27_linear_2628_20927" x1="215.346" y1="487.046" x2="697.487" y2="363.597" gradientUnits="userSpaceOnUse">
<stop stop-color="#EE2EFF"/>
<stop offset="1" stop-color="#00D1FF"/>
</linearGradient>
<linearGradient id="paint28_linear_2628_20927" x1="219.387" y1="473.67" x2="698.348" y2="377.428" gradientUnits="userSpaceOnUse">
<stop stop-color="#EE2EFF"/>
<stop offset="1" stop-color="#00D1FF"/>
</linearGradient>
</defs>
</svg>
