<svg width="972" height="971" viewBox="0 0 972 971" fill="none" xmlns="http://www.w3.org/2000/svg">
<rect opacity="0.010101" x="553.943" y="968.345" width="689" height="689" rx="4.5" transform="rotate(-143 553.943 968.345)" stroke="url(#paint0_linear_2628_20926)"/>
<rect opacity="0.020202" x="545.047" y="966.445" width="684" height="684" rx="4.5" transform="rotate(-142 545.047 966.445)" stroke="url(#paint1_linear_2628_20926)"/>
<rect opacity="0.030303" x="536.254" y="964.385" width="679" height="679" rx="4.5" transform="rotate(-141 536.254 964.385)" stroke="url(#paint2_linear_2628_20926)"/>
<rect opacity="0.040404" x="527.569" y="962.166" width="674" height="674" rx="4.5" transform="rotate(-140 527.569 962.166)" stroke="url(#paint3_linear_2628_20926)"/>
<rect opacity="0.050505" x="518.996" y="959.791" width="669" height="669" rx="4.5" transform="rotate(-139 518.996 959.791)" stroke="url(#paint4_linear_2628_20926)"/>
<rect opacity="0.0606061" x="510.533" y="957.265" width="664" height="664" rx="4.5" transform="rotate(-138 510.533 957.265)" stroke="url(#paint5_linear_2628_20926)"/>
<rect opacity="0.0707071" x="502.188" y="954.588" width="659" height="659" rx="4.5" transform="rotate(-137 502.188 954.588)" stroke="url(#paint6_linear_2628_20926)"/>
<rect opacity="0.0808081" x="493.96" y="951.767" width="654" height="654" rx="4.5" transform="rotate(-136 493.96 951.767)" stroke="url(#paint7_linear_2628_20926)"/>
<rect opacity="0.0909091" x="485.854" y="948.802" width="649" height="649" rx="4.5" transform="rotate(-135 485.854 948.802)" stroke="url(#paint8_linear_2628_20926)"/>
<rect opacity="0.10101" x="477.872" y="945.696" width="644" height="644" rx="4.5" transform="rotate(-134 477.872 945.696)" stroke="url(#paint9_linear_2628_20926)"/>
<rect opacity="0.111111" x="470.015" y="942.455" width="639" height="639" rx="4.5" transform="rotate(-133 470.015 942.455)" stroke="url(#paint10_linear_2628_20926)"/>
<rect opacity="0.121212" x="462.285" y="939.08" width="634" height="634" rx="4.5" transform="rotate(-132 462.285 939.08)" stroke="url(#paint11_linear_2628_20926)"/>
<rect opacity="0.131313" x="454.686" y="935.576" width="629" height="629" rx="4.5" transform="rotate(-131 454.686 935.576)" stroke="url(#paint12_linear_2628_20926)"/>
<rect opacity="0.141414" x="447.22" y="931.944" width="624" height="624" rx="4.5" transform="rotate(-130 447.22 931.944)" stroke="url(#paint13_linear_2628_20926)"/>
<rect opacity="0.151515" x="439.888" y="928.19" width="619" height="619" rx="4.5" transform="rotate(-129 439.888 928.19)" stroke="url(#paint14_linear_2628_20926)"/>
<rect opacity="0.161616" x="432.694" y="924.317" width="614" height="614" rx="4.5" transform="rotate(-128 432.694 924.317)" stroke="url(#paint15_linear_2628_20926)"/>
<rect opacity="0.171717" x="425.637" y="920.326" width="609" height="609" rx="4.5" transform="rotate(-127 425.637 920.326)" stroke="url(#paint16_linear_2628_20926)"/>
<rect opacity="0.181818" x="418.722" y="916.222" width="604" height="604" rx="4.5" transform="rotate(-126 418.722 916.222)" stroke="url(#paint17_linear_2628_20926)"/>
<rect opacity="0.191919" x="411.949" y="912.012" width="599" height="599" rx="4.5" transform="rotate(-125 411.949 912.012)" stroke="url(#paint18_linear_2628_20926)"/>
<rect opacity="0.20202" x="405.319" y="907.694" width="594" height="594" rx="4.5" transform="rotate(-124 405.319 907.694)" stroke="url(#paint19_linear_2628_20926)"/>
<rect opacity="0.212121" x="398.836" y="903.273" width="589" height="589" rx="4.5" transform="rotate(-123 398.836 903.273)" stroke="url(#paint20_linear_2628_20926)"/>
<rect opacity="0.222222" x="392.499" y="898.755" width="584" height="584" rx="4.5" transform="rotate(-122 392.499 898.755)" stroke="url(#paint21_linear_2628_20926)"/>
<rect opacity="0.232323" x="386.31" y="894.142" width="579" height="579" rx="4.5" transform="rotate(-121 386.31 894.142)" stroke="url(#paint22_linear_2628_20926)"/>
<rect opacity="0.242424" x="380.273" y="889.438" width="574" height="574" rx="4.5" transform="rotate(-120 380.273 889.438)" stroke="url(#paint23_linear_2628_20926)"/>
<rect opacity="0.252525" x="374.384" y="884.646" width="569" height="569" rx="4.5" transform="rotate(-119 374.384 884.646)" stroke="url(#paint24_linear_2628_20926)"/>
<rect opacity="0.262626" x="368.65" y="879.771" width="564" height="564" rx="4.5" transform="rotate(-118 368.65 879.771)" stroke="url(#paint25_linear_2628_20926)"/>
<rect opacity="0.272727" x="363.068" y="874.816" width="559" height="559" rx="4.5" transform="rotate(-117 363.068 874.816)" stroke="url(#paint26_linear_2628_20926)"/>
<rect opacity="0.282828" x="357.642" y="869.784" width="554" height="554" rx="4.5" transform="rotate(-116 357.642 869.784)" stroke="url(#paint27_linear_2628_20926)"/>
<rect opacity="0.292929" x="352.371" y="864.679" width="549" height="549" rx="4.5" transform="rotate(-115 352.371 864.679)" stroke="url(#paint28_linear_2628_20926)"/>
<rect opacity="0.30303" x="347.255" y="859.506" width="544" height="544" rx="4.5" transform="rotate(-114 347.255 859.506)" stroke="url(#paint29_linear_2628_20926)"/>
<rect opacity="0.313131" x="342.298" y="854.267" width="539" height="539" rx="4.5" transform="rotate(-113 342.298 854.267)" stroke="url(#paint30_linear_2628_20926)"/>
<rect opacity="0.323232" x="337.499" y="848.967" width="534" height="534" rx="4.5" transform="rotate(-112 337.499 848.967)" stroke="url(#paint31_linear_2628_20926)"/>
<rect opacity="0.333333" x="332.858" y="843.609" width="529" height="529" rx="4.5" transform="rotate(-111 332.858 843.609)" stroke="url(#paint32_linear_2628_20926)"/>
<rect opacity="0.343434" x="328.375" y="838.198" width="524" height="524" rx="4.5" transform="rotate(-110 328.375 838.198)" stroke="url(#paint33_linear_2628_20926)"/>
<rect opacity="0.353535" x="324.054" y="832.736" width="519" height="519" rx="4.5" transform="rotate(-109 324.054 832.736)" stroke="url(#paint34_linear_2628_20926)"/>
<rect opacity="0.363636" x="319.891" y="827.227" width="514" height="514" rx="4.5" transform="rotate(-108 319.891 827.227)" stroke="url(#paint35_linear_2628_20926)"/>
<rect opacity="0.373737" x="315.889" y="821.676" width="509" height="509" rx="4.5" transform="rotate(-107 315.889 821.676)" stroke="url(#paint36_linear_2628_20926)"/>
<rect opacity="0.383838" x="312.046" y="816.088" width="504" height="504" rx="4.5" transform="rotate(-106 312.046 816.088)" stroke="url(#paint37_linear_2628_20926)"/>
<rect opacity="0.393939" x="308.365" y="810.463" width="499" height="499" rx="4.5" transform="rotate(-105 308.365 810.463)" stroke="url(#paint38_linear_2628_20926)"/>
<rect opacity="0.40404" x="304.845" y="804.807" width="494" height="494" rx="4.5" transform="rotate(-104 304.845 804.807)" stroke="url(#paint39_linear_2628_20926)"/>
<rect opacity="0.414141" x="301.484" y="799.123" width="489" height="489" rx="4.5" transform="rotate(-103 301.484 799.123)" stroke="url(#paint40_linear_2628_20926)"/>
<rect opacity="0.424242" x="298.284" y="793.415" width="484" height="484" rx="4.5" transform="rotate(-102 298.284 793.415)" stroke="url(#paint41_linear_2628_20926)"/>
<rect opacity="0.434343" x="295.245" y="787.687" width="479" height="479" rx="4.5" transform="rotate(-101 295.245 787.687)" stroke="url(#paint42_linear_2628_20926)"/>
<rect opacity="0.444444" x="292.367" y="781.943" width="474" height="474" rx="4.5" transform="rotate(-100 292.367 781.943)" stroke="url(#paint43_linear_2628_20926)"/>
<rect opacity="0.454545" x="289.646" y="776.186" width="469" height="469" rx="4.5" transform="rotate(-99 289.646 776.186)" stroke="url(#paint44_linear_2628_20926)"/>
<rect opacity="0.464646" x="287.086" y="770.419" width="464" height="464" rx="4.5" transform="rotate(-98 287.086 770.419)" stroke="url(#paint45_linear_2628_20926)"/>
<rect opacity="0.474747" x="284.683" y="764.648" width="459" height="459" rx="4.5" transform="rotate(-97 284.683 764.648)" stroke="url(#paint46_linear_2628_20926)"/>
<rect opacity="0.484848" x="282.439" y="758.873" width="454" height="454" rx="4.5" transform="rotate(-96 282.439 758.873)" stroke="url(#paint47_linear_2628_20926)"/>
<rect opacity="0.494949" x="280.353" y="753.101" width="449" height="449" rx="4.5" transform="rotate(-95 280.353 753.101)" stroke="url(#paint48_linear_2628_20926)"/>
<rect opacity="0.50505" x="278.425" y="747.334" width="444" height="444" rx="4.5" transform="rotate(-94 278.425 747.334)" stroke="url(#paint49_linear_2628_20926)"/>
<rect opacity="0.515152" x="276.651" y="741.576" width="439" height="439" rx="4.5" transform="rotate(-93 276.651 741.576)" stroke="url(#paint50_linear_2628_20926)"/>
<rect opacity="0.525253" x="275.031" y="735.83" width="434" height="434" rx="4.5" transform="rotate(-92 275.031 735.83)" stroke="url(#paint51_linear_2628_20926)"/>
<rect opacity="0.535354" x="273.567" y="730.1" width="429" height="429" rx="4.5" transform="rotate(-91 273.567 730.1)" stroke="url(#paint52_linear_2628_20926)"/>
<rect opacity="0.545455" x="272.256" y="724.389" width="424" height="424" rx="4.5" transform="rotate(-90 272.256 724.389)" stroke="url(#paint53_linear_2628_20926)"/>
<rect opacity="0.555556" x="271.095" y="718.7" width="419" height="419" rx="4.5" transform="rotate(-89 271.095 718.7)" stroke="url(#paint54_linear_2628_20926)"/>
<rect opacity="0.565657" x="270.086" y="713.038" width="414" height="414" rx="4.5" transform="rotate(-88 270.086 713.038)" stroke="url(#paint55_linear_2628_20926)"/>
<rect opacity="0.575758" x="269.227" y="707.406" width="409" height="409" rx="4.5" transform="rotate(-87 269.227 707.406)" stroke="url(#paint56_linear_2628_20926)"/>
<rect opacity="0.585859" x="268.514" y="701.806" width="404" height="404" rx="4.5" transform="rotate(-86 268.514 701.806)" stroke="url(#paint57_linear_2628_20926)"/>
<rect opacity="0.59596" x="267.95" y="696.242" width="399" height="399" rx="4.5" transform="rotate(-85 267.95 696.242)" stroke="url(#paint58_linear_2628_20926)"/>
<rect opacity="0.606061" x="267.528" y="690.718" width="394" height="394" rx="4.5" transform="rotate(-84 267.528 690.718)" stroke="url(#paint59_linear_2628_20926)"/>
<rect opacity="0.616162" x="267.253" y="685.236" width="389" height="389" rx="4.5" transform="rotate(-83 267.253 685.236)" stroke="url(#paint60_linear_2628_20926)"/>
<rect opacity="0.626263" x="267.117" y="679.799" width="384" height="384" rx="4.5" transform="rotate(-82 267.117 679.799)" stroke="url(#paint61_linear_2628_20926)"/>
<rect opacity="0.636364" x="267.125" y="674.412" width="379" height="379" rx="4.5" transform="rotate(-81 267.125 674.412)" stroke="url(#paint62_linear_2628_20926)"/>
<rect opacity="0.646465" x="267.269" y="669.076" width="374" height="374" rx="4.5" transform="rotate(-80 267.269 669.076)" stroke="url(#paint63_linear_2628_20926)"/>
<rect opacity="0.656566" x="267.549" y="663.795" width="369" height="369" rx="4.5" transform="rotate(-79 267.549 663.795)" stroke="url(#paint64_linear_2628_20926)"/>
<rect opacity="0.666667" x="267.966" y="658.572" width="364" height="364" rx="4.5" transform="rotate(-78 267.966 658.572)" stroke="url(#paint65_linear_2628_20926)"/>
<rect opacity="0.676768" x="268.516" y="653.409" width="359" height="359" rx="4.5" transform="rotate(-77 268.516 653.409)" stroke="url(#paint66_linear_2628_20926)"/>
<rect opacity="0.686869" x="269.196" y="648.311" width="354" height="354" rx="4.5" transform="rotate(-76 269.196 648.311)" stroke="url(#paint67_linear_2628_20926)"/>
<rect opacity="0.69697" x="270.005" y="643.279" width="349" height="349" rx="4.5" transform="rotate(-75 270.005 643.279)" stroke="url(#paint68_linear_2628_20926)"/>
<rect opacity="0.707071" x="270.941" y="638.316" width="344" height="344" rx="4.5" transform="rotate(-74 270.941 638.316)" stroke="url(#paint69_linear_2628_20926)"/>
<rect opacity="0.717172" x="272.001" y="633.426" width="339" height="339" rx="4.5" transform="rotate(-73 272.001 633.426)" stroke="url(#paint70_linear_2628_20926)"/>
<rect opacity="0.727273" x="273.183" y="628.61" width="334" height="334" rx="4.5" transform="rotate(-72 273.183 628.61)" stroke="url(#paint71_linear_2628_20926)"/>
<rect opacity="0.737374" x="274.485" y="623.871" width="329" height="329" rx="4.5" transform="rotate(-71 274.485 623.871)" stroke="url(#paint72_linear_2628_20926)"/>
<rect opacity="0.747475" x="275.906" y="619.212" width="324" height="324" rx="4.5" transform="rotate(-70 275.906 619.212)" stroke="url(#paint73_linear_2628_20926)"/>
<rect opacity="0.757576" x="277.443" y="614.635" width="319" height="319" rx="4.5" transform="rotate(-69 277.443 614.635)" stroke="url(#paint74_linear_2628_20926)"/>
<rect opacity="0.767677" x="279.092" y="610.144" width="314" height="314" rx="4.5" transform="rotate(-68 279.092 610.144)" stroke="url(#paint75_linear_2628_20926)"/>
<rect opacity="0.777778" x="280.853" y="605.739" width="309" height="309" rx="4.5" transform="rotate(-67 280.853 605.739)" stroke="url(#paint76_linear_2628_20926)"/>
<rect opacity="0.787879" x="282.719" y="601.424" width="304" height="304" rx="4.5" transform="rotate(-66 282.719 601.424)" stroke="url(#paint77_linear_2628_20926)"/>
<rect opacity="0.79798" x="284.692" y="597.201" width="299" height="299" rx="4.5" transform="rotate(-65 284.692 597.201)" stroke="url(#paint78_linear_2628_20926)"/>
<rect opacity="0.808081" x="286.768" y="593.072" width="294" height="294" rx="4.5" transform="rotate(-64 286.768 593.072)" stroke="url(#paint79_linear_2628_20926)"/>
<rect opacity="0.818182" x="288.944" y="589.037" width="289" height="289" rx="4.5" transform="rotate(-63 288.944 589.037)" stroke="url(#paint80_linear_2628_20926)"/>
<rect opacity="0.828283" x="291.217" y="585.103" width="284" height="284" rx="4.5" transform="rotate(-62 291.217 585.103)" stroke="url(#paint81_linear_2628_20926)"/>
<rect opacity="0.838384" x="293.584" y="581.268" width="279" height="279" rx="4.5" transform="rotate(-61 293.584 581.268)" stroke="url(#paint82_linear_2628_20926)"/>
<rect opacity="0.848485" x="296.044" y="577.535" width="274" height="274" rx="4.5" transform="rotate(-60 296.044 577.535)" stroke="url(#paint83_linear_2628_20926)"/>
<rect opacity="0.858586" x="298.592" y="573.905" width="269" height="269" rx="4.5" transform="rotate(-59 298.592 573.905)" stroke="url(#paint84_linear_2628_20926)"/>
<rect opacity="0.868687" x="301.226" y="570.382" width="264" height="264" rx="4.5" transform="rotate(-58 301.226 570.382)" stroke="url(#paint85_linear_2628_20926)"/>
<rect opacity="0.878788" x="303.944" y="566.966" width="259" height="259" rx="4.5" transform="rotate(-57 303.944 566.966)" stroke="url(#paint86_linear_2628_20926)"/>
<rect opacity="0.888889" x="306.741" y="563.659" width="254" height="254" rx="4.5" transform="rotate(-56 306.741 563.659)" stroke="url(#paint87_linear_2628_20926)"/>
<rect opacity="0.89899" x="309.616" y="560.463" width="249" height="249" rx="4.5" transform="rotate(-55 309.616 560.463)" stroke="url(#paint88_linear_2628_20926)"/>
<rect opacity="0.909091" x="312.566" y="557.38" width="244" height="244" rx="4.5" transform="rotate(-54 312.566 557.38)" stroke="url(#paint89_linear_2628_20926)"/>
<rect opacity="0.919192" x="315.587" y="554.409" width="239" height="239" rx="4.5" transform="rotate(-53 315.587 554.409)" stroke="url(#paint90_linear_2628_20926)"/>
<rect opacity="0.929293" x="318.674" y="551.553" width="234" height="234" rx="4.5" transform="rotate(-52 318.674 551.553)" stroke="url(#paint91_linear_2628_20926)"/>
<rect opacity="0.939394" x="321.828" y="548.815" width="229" height="229" rx="4.5" transform="rotate(-51 321.828 548.815)" stroke="url(#paint92_linear_2628_20926)"/>
<rect opacity="0.949495" x="325.044" y="546.193" width="224" height="224" rx="4.5" transform="rotate(-50 325.044 546.193)" stroke="url(#paint93_linear_2628_20926)"/>
<rect opacity="0.959596" x="328.319" y="543.691" width="219" height="219" rx="4.5" transform="rotate(-49 328.319 543.691)" stroke="url(#paint94_linear_2628_20926)"/>
<rect opacity="0.969697" x="331.649" y="541.309" width="214" height="214" rx="4.5" transform="rotate(-48 331.649 541.309)" stroke="url(#paint95_linear_2628_20926)"/>
<rect opacity="0.979798" x="335.033" y="539.046" width="209" height="209" rx="4.5" transform="rotate(-47 335.033 539.046)" stroke="url(#paint96_linear_2628_20926)"/>
<rect opacity="0.989899" x="338.463" y="536.907" width="204" height="204" rx="4.5" transform="rotate(-46 338.463 536.907)" stroke="url(#paint97_linear_2628_20926)"/>
<rect x="341.941" y="534.889" width="199" height="199" rx="4.5" transform="rotate(-45 341.941 534.889)" stroke="url(#paint98_linear_2628_20926)"/>
<defs>
<linearGradient id="paint0_linear_2628_20926" x1="554.041" y1="1321.39" x2="1217.26" y2="1188.12" gradientUnits="userSpaceOnUse">
<stop stop-color="#EE2EFF"/>
<stop offset="1" stop-color="#00D1FF"/>
</linearGradient>
<linearGradient id="paint1_linear_2628_20926" x1="545.133" y1="1316.93" x2="1203.55" y2="1184.63" gradientUnits="userSpaceOnUse">
<stop stop-color="#EE2EFF"/>
<stop offset="1" stop-color="#00D1FF"/>
</linearGradient>
<linearGradient id="paint2_linear_2628_20926" x1="536.328" y1="1312.32" x2="1189.94" y2="1180.99" gradientUnits="userSpaceOnUse">
<stop stop-color="#EE2EFF"/>
<stop offset="1" stop-color="#00D1FF"/>
</linearGradient>
<linearGradient id="paint3_linear_2628_20926" x1="527.631" y1="1307.55" x2="1176.43" y2="1177.18" gradientUnits="userSpaceOnUse">
<stop stop-color="#EE2EFF"/>
<stop offset="1" stop-color="#00D1FF"/>
</linearGradient>
<linearGradient id="paint4_linear_2628_20926" x1="519.045" y1="1302.62" x2="1163.04" y2="1173.22" gradientUnits="userSpaceOnUse">
<stop stop-color="#EE2EFF"/>
<stop offset="1" stop-color="#00D1FF"/>
</linearGradient>
<linearGradient id="paint5_linear_2628_20926" x1="510.57" y1="1297.55" x2="1149.76" y2="1169.11" gradientUnits="userSpaceOnUse">
<stop stop-color="#EE2EFF"/>
<stop offset="1" stop-color="#00D1FF"/>
</linearGradient>
<linearGradient id="paint6_linear_2628_20926" x1="502.213" y1="1292.32" x2="1136.6" y2="1164.84" gradientUnits="userSpaceOnUse">
<stop stop-color="#EE2EFF"/>
<stop offset="1" stop-color="#00D1FF"/>
</linearGradient>
<linearGradient id="paint7_linear_2628_20926" x1="493.973" y1="1286.94" x2="1123.55" y2="1160.43" gradientUnits="userSpaceOnUse">
<stop stop-color="#EE2EFF"/>
<stop offset="1" stop-color="#00D1FF"/>
</linearGradient>
<linearGradient id="paint8_linear_2628_20926" x1="485.854" y1="1281.42" x2="1110.63" y2="1155.88" gradientUnits="userSpaceOnUse">
<stop stop-color="#EE2EFF"/>
<stop offset="1" stop-color="#00D1FF"/>
</linearGradient>
<linearGradient id="paint9_linear_2628_20926" x1="477.859" y1="1275.77" x2="1097.83" y2="1151.19" gradientUnits="userSpaceOnUse">
<stop stop-color="#EE2EFF"/>
<stop offset="1" stop-color="#00D1FF"/>
</linearGradient>
<linearGradient id="paint10_linear_2628_20926" x1="469.99" y1="1269.97" x2="1085.15" y2="1146.36" gradientUnits="userSpaceOnUse">
<stop stop-color="#EE2EFF"/>
<stop offset="1" stop-color="#00D1FF"/>
</linearGradient>
<linearGradient id="paint11_linear_2628_20926" x1="462.248" y1="1264.04" x2="1072.6" y2="1141.4" gradientUnits="userSpaceOnUse">
<stop stop-color="#EE2EFF"/>
<stop offset="1" stop-color="#00D1FF"/>
</linearGradient>
<linearGradient id="paint12_linear_2628_20926" x1="454.637" y1="1257.98" x2="1060.19" y2="1136.3" gradientUnits="userSpaceOnUse">
<stop stop-color="#EE2EFF"/>
<stop offset="1" stop-color="#00D1FF"/>
</linearGradient>
<linearGradient id="paint13_linear_2628_20926" x1="447.158" y1="1251.8" x2="1047.9" y2="1131.08" gradientUnits="userSpaceOnUse">
<stop stop-color="#EE2EFF"/>
<stop offset="1" stop-color="#00D1FF"/>
</linearGradient>
<linearGradient id="paint14_linear_2628_20926" x1="439.814" y1="1245.49" x2="1035.75" y2="1125.74" gradientUnits="userSpaceOnUse">
<stop stop-color="#EE2EFF"/>
<stop offset="1" stop-color="#00D1FF"/>
</linearGradient>
<linearGradient id="paint15_linear_2628_20926" x1="432.607" y1="1239.06" x2="1023.74" y2="1120.28" gradientUnits="userSpaceOnUse">
<stop stop-color="#EE2EFF"/>
<stop offset="1" stop-color="#00D1FF"/>
</linearGradient>
<linearGradient id="paint16_linear_2628_20926" x1="425.539" y1="1232.52" x2="1011.87" y2="1114.7" gradientUnits="userSpaceOnUse">
<stop stop-color="#EE2EFF"/>
<stop offset="1" stop-color="#00D1FF"/>
</linearGradient>
<linearGradient id="paint17_linear_2628_20926" x1="418.611" y1="1225.86" x2="1000.13" y2="1109.01" gradientUnits="userSpaceOnUse">
<stop stop-color="#EE2EFF"/>
<stop offset="1" stop-color="#00D1FF"/>
</linearGradient>
<linearGradient id="paint18_linear_2628_20926" x1="411.826" y1="1219.09" x2="988.54" y2="1103.21" gradientUnits="userSpaceOnUse">
<stop stop-color="#EE2EFF"/>
<stop offset="1" stop-color="#00D1FF"/>
</linearGradient>
<linearGradient id="paint19_linear_2628_20926" x1="405.184" y1="1212.22" x2="977.092" y2="1097.3" gradientUnits="userSpaceOnUse">
<stop stop-color="#EE2EFF"/>
<stop offset="1" stop-color="#00D1FF"/>
</linearGradient>
<linearGradient id="paint20_linear_2628_20926" x1="398.689" y1="1205.24" x2="965.792" y2="1091.29" gradientUnits="userSpaceOnUse">
<stop stop-color="#EE2EFF"/>
<stop offset="1" stop-color="#00D1FF"/>
</linearGradient>
<linearGradient id="paint21_linear_2628_20926" x1="392.34" y1="1198.17" x2="954.636" y2="1085.18" gradientUnits="userSpaceOnUse">
<stop stop-color="#EE2EFF"/>
<stop offset="1" stop-color="#00D1FF"/>
</linearGradient>
<linearGradient id="paint22_linear_2628_20926" x1="386.139" y1="1191" x2="943.629" y2="1078.98" gradientUnits="userSpaceOnUse">
<stop stop-color="#EE2EFF"/>
<stop offset="1" stop-color="#00D1FF"/>
</linearGradient>
<linearGradient id="paint23_linear_2628_20926" x1="380.09" y1="1183.74" x2="932.774" y2="1072.68" gradientUnits="userSpaceOnUse">
<stop stop-color="#EE2EFF"/>
<stop offset="1" stop-color="#00D1FF"/>
</linearGradient>
<linearGradient id="paint24_linear_2628_20926" x1="374.189" y1="1176.39" x2="922.068" y2="1066.3" gradientUnits="userSpaceOnUse">
<stop stop-color="#EE2EFF"/>
<stop offset="1" stop-color="#00D1FF"/>
</linearGradient>
<linearGradient id="paint25_linear_2628_20926" x1="368.443" y1="1168.96" x2="911.516" y2="1059.83" gradientUnits="userSpaceOnUse">
<stop stop-color="#EE2EFF"/>
<stop offset="1" stop-color="#00D1FF"/>
</linearGradient>
<linearGradient id="paint26_linear_2628_20926" x1="362.85" y1="1161.45" x2="901.116" y2="1053.29" gradientUnits="userSpaceOnUse">
<stop stop-color="#EE2EFF"/>
<stop offset="1" stop-color="#00D1FF"/>
</linearGradient>
<linearGradient id="paint27_linear_2628_20926" x1="357.412" y1="1153.86" x2="890.873" y2="1046.66" gradientUnits="userSpaceOnUse">
<stop stop-color="#EE2EFF"/>
<stop offset="1" stop-color="#00D1FF"/>
</linearGradient>
<linearGradient id="paint28_linear_2628_20926" x1="352.129" y1="1146.19" x2="880.784" y2="1039.97" gradientUnits="userSpaceOnUse">
<stop stop-color="#EE2EFF"/>
<stop offset="1" stop-color="#00D1FF"/>
</linearGradient>
<linearGradient id="paint29_linear_2628_20926" x1="347.002" y1="1138.46" x2="870.851" y2="1033.2" gradientUnits="userSpaceOnUse">
<stop stop-color="#EE2EFF"/>
<stop offset="1" stop-color="#00D1FF"/>
</linearGradient>
<linearGradient id="paint30_linear_2628_20926" x1="342.033" y1="1130.67" x2="861.076" y2="1026.37" gradientUnits="userSpaceOnUse">
<stop stop-color="#EE2EFF"/>
<stop offset="1" stop-color="#00D1FF"/>
</linearGradient>
<linearGradient id="paint31_linear_2628_20926" x1="337.223" y1="1122.81" x2="851.46" y2="1019.48" gradientUnits="userSpaceOnUse">
<stop stop-color="#EE2EFF"/>
<stop offset="1" stop-color="#00D1FF"/>
</linearGradient>
<linearGradient id="paint32_linear_2628_20926" x1="332.57" y1="1114.89" x2="842.001" y2="1012.53" gradientUnits="userSpaceOnUse">
<stop stop-color="#EE2EFF"/>
<stop offset="1" stop-color="#00D1FF"/>
</linearGradient>
<linearGradient id="paint33_linear_2628_20926" x1="328.076" y1="1106.92" x2="832.701" y2="1005.53" gradientUnits="userSpaceOnUse">
<stop stop-color="#EE2EFF"/>
<stop offset="1" stop-color="#00D1FF"/>
</linearGradient>
<linearGradient id="paint34_linear_2628_20926" x1="323.744" y1="1098.9" x2="823.563" y2="998.47" gradientUnits="userSpaceOnUse">
<stop stop-color="#EE2EFF"/>
<stop offset="1" stop-color="#00D1FF"/>
</linearGradient>
<linearGradient id="paint35_linear_2628_20926" x1="319.57" y1="1090.84" x2="814.583" y2="991.369" gradientUnits="userSpaceOnUse">
<stop stop-color="#EE2EFF"/>
<stop offset="1" stop-color="#00D1FF"/>
</linearGradient>
<linearGradient id="paint36_linear_2628_20926" x1="315.557" y1="1082.73" x2="805.764" y2="984.224" gradientUnits="userSpaceOnUse">
<stop stop-color="#EE2EFF"/>
<stop offset="1" stop-color="#00D1FF"/>
</linearGradient>
<linearGradient id="paint37_linear_2628_20926" x1="311.703" y1="1074.58" x2="797.104" y2="977.042" gradientUnits="userSpaceOnUse">
<stop stop-color="#EE2EFF"/>
<stop offset="1" stop-color="#00D1FF"/>
</linearGradient>
<linearGradient id="paint38_linear_2628_20926" x1="308.012" y1="1066.39" x2="788.607" y2="969.824" gradientUnits="userSpaceOnUse">
<stop stop-color="#EE2EFF"/>
<stop offset="1" stop-color="#00D1FF"/>
</linearGradient>
<linearGradient id="paint39_linear_2628_20926" x1="304.48" y1="1058.18" x2="780.27" y2="962.574" gradientUnits="userSpaceOnUse">
<stop stop-color="#EE2EFF"/>
<stop offset="1" stop-color="#00D1FF"/>
</linearGradient>
<linearGradient id="paint40_linear_2628_20926" x1="301.109" y1="1049.94" x2="772.093" y2="955.296" gradientUnits="userSpaceOnUse">
<stop stop-color="#EE2EFF"/>
<stop offset="1" stop-color="#00D1FF"/>
</linearGradient>
<linearGradient id="paint41_linear_2628_20926" x1="297.898" y1="1041.67" x2="764.076" y2="947.994" gradientUnits="userSpaceOnUse">
<stop stop-color="#EE2EFF"/>
<stop offset="1" stop-color="#00D1FF"/>
</linearGradient>
<linearGradient id="paint42_linear_2628_20926" x1="294.85" y1="1033.38" x2="756.221" y2="940.672" gradientUnits="userSpaceOnUse">
<stop stop-color="#EE2EFF"/>
<stop offset="1" stop-color="#00D1FF"/>
</linearGradient>
<linearGradient id="paint43_linear_2628_20926" x1="291.961" y1="1025.08" x2="748.526" y2="933.334" gradientUnits="userSpaceOnUse">
<stop stop-color="#EE2EFF"/>
<stop offset="1" stop-color="#00D1FF"/>
</linearGradient>
<linearGradient id="paint44_linear_2628_20926" x1="289.23" y1="1016.76" x2="740.99" y2="925.982" gradientUnits="userSpaceOnUse">
<stop stop-color="#EE2EFF"/>
<stop offset="1" stop-color="#00D1FF"/>
</linearGradient>
<linearGradient id="paint45_linear_2628_20926" x1="286.66" y1="1008.43" x2="733.614" y2="918.62" gradientUnits="userSpaceOnUse">
<stop stop-color="#EE2EFF"/>
<stop offset="1" stop-color="#00D1FF"/>
</linearGradient>
<linearGradient id="paint46_linear_2628_20926" x1="284.248" y1="1000.1" x2="726.396" y2="911.254" gradientUnits="userSpaceOnUse">
<stop stop-color="#EE2EFF"/>
<stop offset="1" stop-color="#00D1FF"/>
</linearGradient>
<linearGradient id="paint47_linear_2628_20926" x1="281.994" y1="991.763" x2="719.336" y2="903.884" gradientUnits="userSpaceOnUse">
<stop stop-color="#EE2EFF"/>
<stop offset="1" stop-color="#00D1FF"/>
</linearGradient>
<linearGradient id="paint48_linear_2628_20926" x1="279.898" y1="983.43" x2="712.434" y2="896.516" gradientUnits="userSpaceOnUse">
<stop stop-color="#EE2EFF"/>
<stop offset="1" stop-color="#00D1FF"/>
</linearGradient>
<linearGradient id="paint49_linear_2628_20926" x1="277.961" y1="975.101" x2="705.691" y2="889.154" gradientUnits="userSpaceOnUse">
<stop stop-color="#EE2EFF"/>
<stop offset="1" stop-color="#00D1FF"/>
</linearGradient>
<linearGradient id="paint50_linear_2628_20926" x1="276.178" y1="966.782" x2="699.101" y2="881.8" gradientUnits="userSpaceOnUse">
<stop stop-color="#EE2EFF"/>
<stop offset="1" stop-color="#00D1FF"/>
</linearGradient>
<linearGradient id="paint51_linear_2628_20926" x1="274.549" y1="958.474" x2="692.667" y2="874.458" gradientUnits="userSpaceOnUse">
<stop stop-color="#EE2EFF"/>
<stop offset="1" stop-color="#00D1FF"/>
</linearGradient>
<linearGradient id="paint52_linear_2628_20926" x1="273.076" y1="950.183" x2="686.388" y2="867.132" gradientUnits="userSpaceOnUse">
<stop stop-color="#EE2EFF"/>
<stop offset="1" stop-color="#00D1FF"/>
</linearGradient>
<linearGradient id="paint53_linear_2628_20926" x1="271.756" y1="941.91" x2="680.262" y2="859.825" gradientUnits="userSpaceOnUse">
<stop stop-color="#EE2EFF"/>
<stop offset="1" stop-color="#00D1FF"/>
</linearGradient>
<linearGradient id="paint54_linear_2628_20926" x1="270.586" y1="933.659" x2="674.286" y2="852.54" gradientUnits="userSpaceOnUse">
<stop stop-color="#EE2EFF"/>
<stop offset="1" stop-color="#00D1FF"/>
</linearGradient>
<linearGradient id="paint55_linear_2628_20926" x1="269.568" y1="925.435" x2="668.462" y2="845.282" gradientUnits="userSpaceOnUse">
<stop stop-color="#EE2EFF"/>
<stop offset="1" stop-color="#00D1FF"/>
</linearGradient>
<linearGradient id="paint56_linear_2628_20926" x1="268.701" y1="917.241" x2="662.789" y2="838.053" gradientUnits="userSpaceOnUse">
<stop stop-color="#EE2EFF"/>
<stop offset="1" stop-color="#00D1FF"/>
</linearGradient>
<linearGradient id="paint57_linear_2628_20926" x1="267.98" y1="909.078" x2="657.263" y2="830.856" gradientUnits="userSpaceOnUse">
<stop stop-color="#EE2EFF"/>
<stop offset="1" stop-color="#00D1FF"/>
</linearGradient>
<linearGradient id="paint58_linear_2628_20926" x1="267.408" y1="900.952" x2="651.884" y2="823.695" gradientUnits="userSpaceOnUse">
<stop stop-color="#EE2EFF"/>
<stop offset="1" stop-color="#00D1FF"/>
</linearGradient>
<linearGradient id="paint59_linear_2628_20926" x1="266.979" y1="892.865" x2="646.649" y2="816.575" gradientUnits="userSpaceOnUse">
<stop stop-color="#EE2EFF"/>
<stop offset="1" stop-color="#00D1FF"/>
</linearGradient>
<linearGradient id="paint60_linear_2628_20926" x1="266.695" y1="884.82" x2="641.56" y2="809.495" gradientUnits="userSpaceOnUse">
<stop stop-color="#EE2EFF"/>
<stop offset="1" stop-color="#00D1FF"/>
</linearGradient>
<linearGradient id="paint61_linear_2628_20926" x1="266.553" y1="876.82" x2="636.611" y2="802.461" gradientUnits="userSpaceOnUse">
<stop stop-color="#EE2EFF"/>
<stop offset="1" stop-color="#00D1FF"/>
</linearGradient>
<linearGradient id="paint62_linear_2628_20926" x1="266.553" y1="868.87" x2="631.805" y2="795.476" gradientUnits="userSpaceOnUse">
<stop stop-color="#EE2EFF"/>
<stop offset="1" stop-color="#00D1FF"/>
</linearGradient>
<linearGradient id="paint63_linear_2628_20926" x1="266.689" y1="860.971" x2="627.136" y2="788.543" gradientUnits="userSpaceOnUse">
<stop stop-color="#EE2EFF"/>
<stop offset="1" stop-color="#00D1FF"/>
</linearGradient>
<linearGradient id="paint64_linear_2628_20926" x1="266.963" y1="853.127" x2="622.603" y2="781.664" gradientUnits="userSpaceOnUse">
<stop stop-color="#EE2EFF"/>
<stop offset="1" stop-color="#00D1FF"/>
</linearGradient>
<linearGradient id="paint65_linear_2628_20926" x1="267.373" y1="845.34" x2="618.208" y2="774.844" gradientUnits="userSpaceOnUse">
<stop stop-color="#EE2EFF"/>
<stop offset="1" stop-color="#00D1FF"/>
</linearGradient>
<linearGradient id="paint66_linear_2628_20926" x1="267.916" y1="837.614" x2="613.945" y2="768.083" gradientUnits="userSpaceOnUse">
<stop stop-color="#EE2EFF"/>
<stop offset="1" stop-color="#00D1FF"/>
</linearGradient>
<linearGradient id="paint67_linear_2628_20926" x1="268.59" y1="829.951" x2="609.812" y2="761.386" gradientUnits="userSpaceOnUse">
<stop stop-color="#EE2EFF"/>
<stop offset="1" stop-color="#00D1FF"/>
</linearGradient>
<linearGradient id="paint68_linear_2628_20926" x1="269.393" y1="822.356" x2="605.809" y2="754.757" gradientUnits="userSpaceOnUse">
<stop stop-color="#EE2EFF"/>
<stop offset="1" stop-color="#00D1FF"/>
</linearGradient>
<linearGradient id="paint69_linear_2628_20926" x1="270.322" y1="814.829" x2="601.933" y2="748.196" gradientUnits="userSpaceOnUse">
<stop stop-color="#EE2EFF"/>
<stop offset="1" stop-color="#00D1FF"/>
</linearGradient>
<linearGradient id="paint70_linear_2628_20926" x1="271.377" y1="807.375" x2="598.182" y2="741.707" gradientUnits="userSpaceOnUse">
<stop stop-color="#EE2EFF"/>
<stop offset="1" stop-color="#00D1FF"/>
</linearGradient>
<linearGradient id="paint71_linear_2628_20926" x1="272.553" y1="799.994" x2="594.552" y2="735.292" gradientUnits="userSpaceOnUse">
<stop stop-color="#EE2EFF"/>
<stop offset="1" stop-color="#00D1FF"/>
</linearGradient>
<linearGradient id="paint72_linear_2628_20926" x1="273.85" y1="792.691" x2="591.042" y2="728.955" gradientUnits="userSpaceOnUse">
<stop stop-color="#EE2EFF"/>
<stop offset="1" stop-color="#00D1FF"/>
</linearGradient>
<linearGradient id="paint73_linear_2628_20926" x1="275.266" y1="785.468" x2="587.653" y2="722.697" gradientUnits="userSpaceOnUse">
<stop stop-color="#EE2EFF"/>
<stop offset="1" stop-color="#00D1FF"/>
</linearGradient>
<linearGradient id="paint74_linear_2628_20926" x1="276.797" y1="778.327" x2="584.378" y2="716.522" gradientUnits="userSpaceOnUse">
<stop stop-color="#EE2EFF"/>
<stop offset="1" stop-color="#00D1FF"/>
</linearGradient>
<linearGradient id="paint75_linear_2628_20926" x1="278.441" y1="771.271" x2="581.216" y2="710.432" gradientUnits="userSpaceOnUse">
<stop stop-color="#EE2EFF"/>
<stop offset="1" stop-color="#00D1FF"/>
</linearGradient>
<linearGradient id="paint76_linear_2628_20926" x1="280.197" y1="764.302" x2="578.166" y2="704.428" gradientUnits="userSpaceOnUse">
<stop stop-color="#EE2EFF"/>
<stop offset="1" stop-color="#00D1FF"/>
</linearGradient>
<linearGradient id="paint77_linear_2628_20926" x1="282.059" y1="757.422" x2="575.222" y2="698.514" gradientUnits="userSpaceOnUse">
<stop stop-color="#EE2EFF"/>
<stop offset="1" stop-color="#00D1FF"/>
</linearGradient>
<linearGradient id="paint78_linear_2628_20926" x1="284.027" y1="750.634" x2="572.385" y2="692.692" gradientUnits="userSpaceOnUse">
<stop stop-color="#EE2EFF"/>
<stop offset="1" stop-color="#00D1FF"/>
</linearGradient>
<linearGradient id="paint79_linear_2628_20926" x1="286.1" y1="743.94" x2="569.651" y2="686.964" gradientUnits="userSpaceOnUse">
<stop stop-color="#EE2EFF"/>
<stop offset="1" stop-color="#00D1FF"/>
</linearGradient>
<linearGradient id="paint80_linear_2628_20926" x1="288.271" y1="737.341" x2="567.017" y2="681.33" gradientUnits="userSpaceOnUse">
<stop stop-color="#EE2EFF"/>
<stop offset="1" stop-color="#00D1FF"/>
</linearGradient>
<linearGradient id="paint81_linear_2628_20926" x1="290.541" y1="730.841" x2="564.48" y2="675.796" gradientUnits="userSpaceOnUse">
<stop stop-color="#EE2EFF"/>
<stop offset="1" stop-color="#00D1FF"/>
</linearGradient>
<linearGradient id="paint82_linear_2628_20926" x1="292.904" y1="724.442" x2="562.038" y2="670.362" gradientUnits="userSpaceOnUse">
<stop stop-color="#EE2EFF"/>
<stop offset="1" stop-color="#00D1FF"/>
</linearGradient>
<linearGradient id="paint83_linear_2628_20926" x1="295.361" y1="718.143" x2="559.689" y2="665.03" gradientUnits="userSpaceOnUse">
<stop stop-color="#EE2EFF"/>
<stop offset="1" stop-color="#00D1FF"/>
</linearGradient>
<linearGradient id="paint84_linear_2628_20926" x1="297.906" y1="711.949" x2="557.428" y2="659.8" gradientUnits="userSpaceOnUse">
<stop stop-color="#EE2EFF"/>
<stop offset="1" stop-color="#00D1FF"/>
</linearGradient>
<linearGradient id="paint85_linear_2628_20926" x1="300.537" y1="705.86" x2="555.253" y2="654.678" gradientUnits="userSpaceOnUse">
<stop stop-color="#EE2EFF"/>
<stop offset="1" stop-color="#00D1FF"/>
</linearGradient>
<linearGradient id="paint86_linear_2628_20926" x1="303.252" y1="699.879" x2="553.161" y2="649.663" gradientUnits="userSpaceOnUse">
<stop stop-color="#EE2EFF"/>
<stop offset="1" stop-color="#00D1FF"/>
</linearGradient>
<linearGradient id="paint87_linear_2628_20926" x1="306.047" y1="694.007" x2="551.15" y2="644.756" gradientUnits="userSpaceOnUse">
<stop stop-color="#EE2EFF"/>
<stop offset="1" stop-color="#00D1FF"/>
</linearGradient>
<linearGradient id="paint88_linear_2628_20926" x1="308.92" y1="688.245" x2="549.218" y2="639.96" gradientUnits="userSpaceOnUse">
<stop stop-color="#EE2EFF"/>
<stop offset="1" stop-color="#00D1FF"/>
</linearGradient>
<linearGradient id="paint89_linear_2628_20926" x1="311.867" y1="682.597" x2="547.359" y2="635.277" gradientUnits="userSpaceOnUse">
<stop stop-color="#EE2EFF"/>
<stop offset="1" stop-color="#00D1FF"/>
</linearGradient>
<linearGradient id="paint90_linear_2628_20926" x1="314.887" y1="677.061" x2="545.572" y2="630.707" gradientUnits="userSpaceOnUse">
<stop stop-color="#EE2EFF"/>
<stop offset="1" stop-color="#00D1FF"/>
</linearGradient>
<linearGradient id="paint91_linear_2628_20926" x1="317.973" y1="671.64" x2="543.852" y2="626.252" gradientUnits="userSpaceOnUse">
<stop stop-color="#EE2EFF"/>
<stop offset="1" stop-color="#00D1FF"/>
</linearGradient>
<linearGradient id="paint92_linear_2628_20926" x1="321.125" y1="666.335" x2="542.199" y2="621.913" gradientUnits="userSpaceOnUse">
<stop stop-color="#EE2EFF"/>
<stop offset="1" stop-color="#00D1FF"/>
</linearGradient>
<linearGradient id="paint93_linear_2628_20926" x1="324.34" y1="661.148" x2="540.608" y2="617.692" gradientUnits="userSpaceOnUse">
<stop stop-color="#EE2EFF"/>
<stop offset="1" stop-color="#00D1FF"/>
</linearGradient>
<linearGradient id="paint94_linear_2628_20926" x1="327.613" y1="656.081" x2="539.075" y2="613.59" gradientUnits="userSpaceOnUse">
<stop stop-color="#EE2EFF"/>
<stop offset="1" stop-color="#00D1FF"/>
</linearGradient>
<linearGradient id="paint95_linear_2628_20926" x1="330.943" y1="651.133" x2="537.599" y2="609.608" gradientUnits="userSpaceOnUse">
<stop stop-color="#EE2EFF"/>
<stop offset="1" stop-color="#00D1FF"/>
</linearGradient>
<linearGradient id="paint96_linear_2628_20926" x1="334.326" y1="646.304" x2="536.176" y2="605.745" gradientUnits="userSpaceOnUse">
<stop stop-color="#EE2EFF"/>
<stop offset="1" stop-color="#00D1FF"/>
</linearGradient>
<linearGradient id="paint97_linear_2628_20926" x1="337.756" y1="641.6" x2="534.8" y2="602.006" gradientUnits="userSpaceOnUse">
<stop stop-color="#EE2EFF"/>
<stop offset="1" stop-color="#00D1FF"/>
</linearGradient>
<linearGradient id="paint98_linear_2628_20926" x1="341.234" y1="637.016" x2="533.472" y2="598.388" gradientUnits="userSpaceOnUse">
<stop stop-color="#EE2EFF"/>
<stop offset="1" stop-color="#00D1FF"/>
</linearGradient>
</defs>
</svg>
