<svg width="480" height="480" viewBox="0 0 480 480" fill="none" xmlns="http://www.w3.org/2000/svg"><circle cx="240" cy="240" r="240" fill="url(#paint0_linear)"/><path d="M413.332 74h-44.615c-26.479 0-49.238 10.625-68.278 31.874L246.427 172h98.441l16.957-20.643c3.287-3.762 7.334-5.647 12.149-5.647h86.795a236.19 236.19 0 00-3.128-7h-83.667c-6.927 0-12.865 2.828-17.42 8.042l-.07.08L341.559 165h-80.376l44.574-54.572C323.562 90.611 344.443 81 368.717 81h51.061a240.48 240.48 0 00-6.446-7zM66.667 406h45.017c26.479 0 49.239-10.732 68.278-32.205L233.888 308h-98.686l-16.626 20.303c-3.508 3.771-7.554 5.648-12.149 5.648H19.086a238.894 238.894 0 003.114 7h84.227c6.778 0 12.614-2.87 17.274-7.88l.151-.162L138.518 315H219.1l-44.464 54.252C156.819 389.299 135.94 399 111.684 399H60.221a240.688 240.688 0 006.446 7zm394.243-72.04h-86.936c-4.603 0-8.535-1.77-11.822-5.317L345.245 308h-98.397l53.918 65.795C319.585 395.268 342.238 406 368.717 406h44.615a239.704 239.704 0 006.446-7h-51.061c-24.257 0-45.021-9.701-62.611-29.732L261.634 315h80.296l14.942 18.244.145.156c4.535 4.895 10.294 7.56 16.957 7.56h83.821a239.708 239.708 0 003.115-7zM19.23 145.71h87.197c4.816 0 8.862 1.885 12.149 5.647L135.439 172h41.187l28.614-34.922-25.278-30.873C160.923 84.741 138.269 74 112.011 74H66.667a241.47 241.47 0 00-6.446 7h51.79c24.015 0 44.794 9.694 62.624 29.748l21.557 26.328L173.312 165H138.76l-14.836-18.161-.077-.087c-4.554-5.214-10.493-8.042-17.42-8.042H22.358a238.014 238.014 0 00-3.127 7z" fill="#ED1EFF"/><path d="M160.96 236.808c5.184.768 9.12 2.56 11.808 5.376 2.688 2.752 4.032 6.432 4.032 11.04 0 3.456-.896 6.688-2.688 9.696-1.728 2.944-4.576 5.376-8.544 7.296-3.968 1.856-9.056 2.784-15.264 2.784H94.816v-68.16h55.104c8.32 0 14.592 1.504 18.816 4.512 4.288 3.008 6.432 7.168 6.432 12.48 0 3.648-1.184 6.816-3.552 9.504-2.368 2.688-5.92 4.512-10.656 5.472zm-41.568-16.8v11.424h23.04c2.56 0 4.384-.576 5.472-1.728 1.088-1.152 1.632-2.592 1.632-4.32 0-3.584-2.368-5.376-7.104-5.376h-23.04zm24 37.824c2.56 0 4.48-.64 5.76-1.92 1.344-1.28 2.016-2.848 2.016-4.704 0-1.856-.672-3.328-2.016-4.416-1.344-1.152-3.264-1.728-5.76-1.728h-24v12.768h24zm81.114-52.992l27.936 31.776c2.304 2.688 4.224 5.504 5.76 8.448h.48V204.84h22.176V273h-24l-29.184-31.776c-1.024-1.152-2.144-2.592-3.36-4.32-1.216-1.728-2.048-3.168-2.496-4.32h-.48V273h-22.272v-68.16h25.44zm149.548 31.968c5.184.768 9.12 2.56 11.808 5.376 2.688 2.752 4.032 6.432 4.032 11.04 0 3.456-.896 6.688-2.688 9.696-1.728 2.944-4.576 5.376-8.544 7.296-3.968 1.856-9.056 2.784-15.264 2.784H307.91v-68.16h55.104c8.32 0 14.592 1.504 18.816 4.512 4.288 3.008 6.432 7.168 6.432 12.48 0 3.648-1.184 6.816-3.552 9.504-2.368 2.688-5.92 4.512-10.656 5.472zm-41.568-16.8v11.424h23.04c2.56 0 4.384-.576 5.472-1.728 1.088-1.152 1.632-2.592 1.632-4.32 0-3.584-2.368-5.376-7.104-5.376h-23.04zm24 37.824c2.56 0 4.48-.64 5.76-1.92 1.344-1.28 2.016-2.848 2.016-4.704 0-1.856-.672-3.328-2.016-4.416-1.344-1.152-3.264-1.728-5.76-1.728h-24v12.768h24z" fill="#fff"/><defs><linearGradient id="paint0_linear" x1="240" y1="0" x2="240" y2="701.818" gradientUnits="userSpaceOnUse"><stop stop-color="#08021E"/><stop offset="1" stop-color="#1F0777"/></linearGradient></defs></svg>