<svg width="480" height="480" viewBox="0 0 480 480" fill="none" xmlns="http://www.w3.org/2000/svg"><circle cx="240" cy="240" r="240" fill="url(#paint0_linear)"/><path d="M413.332 74h-44.615c-26.479 0-49.238 10.625-68.278 31.874L246.427 172h98.441l16.957-20.643c3.287-3.762 7.334-5.647 12.149-5.647h86.795a236.19 236.19 0 00-3.128-7h-83.667c-6.927 0-12.865 2.828-17.42 8.042l-.07.08L341.559 165h-80.376l44.574-54.572C323.562 90.611 344.443 81 368.717 81h51.061a240.48 240.48 0 00-6.446-7zM66.667 406h45.017c26.479 0 49.239-10.732 68.278-32.205L233.888 308h-98.686l-16.626 20.303c-3.508 3.771-7.554 5.648-12.149 5.648H19.086a238.894 238.894 0 003.114 7h84.227c6.778 0 12.614-2.87 17.274-7.88l.151-.162L138.518 315H219.1l-44.464 54.252C156.819 389.299 135.94 399 111.684 399H60.221a240.688 240.688 0 006.446 7zm394.243-72.04h-86.936c-4.603 0-8.535-1.77-11.822-5.317L345.245 308h-98.397l53.918 65.795C319.585 395.268 342.238 406 368.717 406h44.615a239.704 239.704 0 006.446-7h-51.061c-24.257 0-45.021-9.701-62.611-29.732L261.634 315h80.296l14.942 18.244.145.156c4.535 4.895 10.294 7.56 16.957 7.56h83.821a239.708 239.708 0 003.115-7zM19.23 145.71h87.197c4.816 0 8.862 1.885 12.149 5.647L135.439 172h41.187l28.614-34.922-25.278-30.873C160.923 84.741 138.269 74 112.011 74H66.667a241.47 241.47 0 00-6.446 7h51.79c24.015 0 44.794 9.694 62.624 29.748l21.557 26.328L173.312 165H138.76l-14.836-18.161-.077-.087c-4.554-5.214-10.493-8.042-17.42-8.042H22.358a238.014 238.014 0 00-3.127 7z" fill="#00D1FF"/><path d="M170.041 275.304c-9.344 0-17.504-1.472-24.48-4.416-6.976-3.008-12.352-7.232-16.128-12.672-3.776-5.504-5.664-11.936-5.664-19.296 0-7.36 1.888-13.76 5.664-19.2 3.776-5.504 9.152-9.728 16.128-12.672 6.976-3.008 15.136-4.512 24.48-4.512 9.344 0 17.472 1.504 24.384 4.512 6.976 2.944 12.352 7.168 16.128 12.672 3.776 5.44 5.664 11.84 5.664 19.2 0 7.36-1.888 13.792-5.664 19.296-3.776 5.44-9.152 9.664-16.128 12.672-6.912 2.944-15.04 4.416-24.384 4.416zm0-17.76c4.032 0 7.584-.768 10.656-2.304 3.072-1.536 5.44-3.712 7.104-6.528 1.664-2.816 2.496-6.08 2.496-9.792 0-5.632-1.856-10.144-5.568-13.536-3.648-3.392-8.544-5.088-14.688-5.088s-11.072 1.696-14.784 5.088c-3.712 3.392-5.568 7.904-5.568 13.536 0 3.712.832 6.976 2.496 9.792 1.728 2.752 4.128 4.928 7.2 6.528 3.072 1.536 6.624 2.304 10.656 2.304zM237.254 273v-68.16h24.576V273h-24.576zm51.563-68.16h24.576v49.344h43.008V273h-67.584v-68.16z" fill="#fff"/><defs><linearGradient id="paint0_linear" x1="240" y1="0" x2="240" y2="701.818" gradientUnits="userSpaceOnUse"><stop stop-color="#08021E"/><stop offset="1" stop-color="#1F0777"/></linearGradient></defs></svg>