<svg width="480" height="480" viewBox="0 0 480 480" fill="none" xmlns="http://www.w3.org/2000/svg"><circle cx="240" cy="240" r="240" fill="url(#paint0_linear)"/><path d="M413.332 74h-44.615c-26.479 0-49.238 10.625-68.278 31.874L246.427 172h98.441l16.957-20.643c3.287-3.762 7.334-5.647 12.149-5.647h86.795a236.19 236.19 0 00-3.128-7h-83.667c-6.927 0-12.865 2.828-17.42 8.042l-.07.08L341.559 165h-80.376l44.574-54.572C323.562 90.611 344.443 81 368.717 81h51.061a240.48 240.48 0 00-6.446-7zM66.667 406h45.017c26.479 0 49.239-10.732 68.278-32.205L233.888 308h-98.686l-16.626 20.303c-3.508 3.771-7.554 5.648-12.149 5.648H19.086a238.894 238.894 0 003.114 7h84.227c6.778 0 12.614-2.87 17.274-7.88l.151-.162L138.518 315H219.1l-44.464 54.252C156.819 389.299 135.94 399 111.684 399H60.221a240.688 240.688 0 006.446 7zm394.243-72.04h-86.936c-4.603 0-8.535-1.77-11.822-5.317L345.245 308h-98.397l53.918 65.795C319.585 395.268 342.238 406 368.717 406h44.615a239.704 239.704 0 006.446-7h-51.061c-24.257 0-45.021-9.701-62.611-29.732L261.634 315h80.296l14.942 18.244.145.156c4.535 4.895 10.294 7.56 16.957 7.56h83.821a239.708 239.708 0 003.115-7zM19.23 145.71h87.197c4.816 0 8.862 1.885 12.149 5.647L135.439 172h41.187l28.614-34.922-25.278-30.873C160.923 84.741 138.269 74 112.011 74H66.667a241.47 241.47 0 00-6.446 7h51.79c24.015 0 44.794 9.694 62.624 29.748l21.557 26.328L173.312 165H138.76l-14.836-18.161-.077-.087c-4.554-5.214-10.493-8.042-17.42-8.042H22.358a238.014 238.014 0 00-3.127 7z" fill="#00D1FF"/><path d="M122.407 241.44c0 5.184 1.376 9.216 4.128 12.096 2.816 2.88 6.944 4.32 12.384 4.32 5.12 0 9.12-1.472 12-4.416 2.944-2.944 4.416-6.944 4.416-12v-35.136h24.576v38.112c0 6.592-1.6 12.32-4.8 17.184-3.136 4.864-7.776 8.608-13.92 11.232-6.144 2.624-13.568 3.936-22.272 3.936-8.704 0-16.128-1.312-22.272-3.936-6.144-2.688-10.816-6.496-14.016-11.424-3.2-4.928-4.8-10.688-4.8-17.28v-37.824h24.576v35.136zm114.942 35.328c-8.832 0-17.248-1.312-25.248-3.936-7.936-2.688-14.016-6.048-18.24-10.08l15.84-13.824c3.584 3.2 7.936 5.856 13.056 7.968 5.12 2.048 10.464 3.072 16.032 3.072 9.984 0 14.976-1.824 14.976-5.472 0-1.28-.544-2.208-1.632-2.784-1.024-.64-2.976-1.12-5.856-1.44l-20.352-2.4c-8.768-1.088-15.264-3.328-19.488-6.72-4.16-3.456-6.24-8.448-6.24-14.976 0-4.608 1.472-8.576 4.416-11.904 3.008-3.328 7.36-5.856 13.056-7.584 5.696-1.792 12.544-2.688 20.544-2.688 7.744 0 15.008.864 21.792 2.592 6.784 1.664 12.704 4.256 17.76 7.776l-13.536 14.4c-2.88-2.496-6.784-4.512-11.712-6.048-4.928-1.536-10.144-2.304-15.648-2.304-4.096 0-7.2.416-9.312 1.248-2.112.768-3.168 1.92-3.168 3.456 0 1.344.608 2.336 1.824 2.976 1.28.64 3.616 1.152 7.008 1.536l17.568 1.728c6.656.704 11.968 1.856 15.936 3.456 4.032 1.536 6.976 3.712 8.832 6.528 1.856 2.816 2.784 6.4 2.784 10.752 0 7.872-3.616 13.952-10.848 18.24-7.168 4.288-17.216 6.432-30.144 6.432zm108.181-70.464c8.512 0 15.808 1.28 21.888 3.84 6.144 2.56 10.848 6.304 14.112 11.232 3.264 4.928 4.896 10.88 4.896 17.856 0 6.912-1.728 13.024-5.184 18.336-3.456 5.312-8.32 9.472-14.592 12.48-6.272 2.944-13.504 4.416-21.696 4.416h-45.216v-68.16h45.792zm-4.608 52.224c6.08 0 10.848-1.696 14.304-5.088 3.52-3.392 5.28-7.968 5.28-13.728 0-5.504-1.728-9.792-5.184-12.864-3.456-3.136-8.064-4.704-13.824-4.704h-17.184v36.384h16.608z" fill="#fff"/><defs><linearGradient id="paint0_linear" x1="240" y1="0" x2="240" y2="701.818" gradientUnits="userSpaceOnUse"><stop stop-color="#08021E"/><stop offset="1" stop-color="#1F0777"/></linearGradient></defs></svg>