<svg width="480" height="480" viewBox="0 0 480 480" fill="none" xmlns="http://www.w3.org/2000/svg"><circle cx="240" cy="240" r="240" fill="url(#paint0_linear)"/><path d="M413.332 74h-44.615c-26.479 0-49.238 10.625-68.278 31.874L246.427 172h98.441l16.957-20.643c3.287-3.762 7.334-5.647 12.149-5.647h86.795a236.19 236.19 0 00-3.128-7h-83.667c-6.927 0-12.865 2.828-17.42 8.042l-.07.08L341.559 165h-80.376l44.574-54.572C323.562 90.611 344.443 81 368.717 81h51.061a240.48 240.48 0 00-6.446-7zM66.667 406h45.017c26.479 0 49.239-10.732 68.278-32.205L233.888 308h-98.686l-16.626 20.303c-3.508 3.771-7.554 5.648-12.149 5.648H19.086a238.894 238.894 0 003.114 7h84.227c6.778 0 12.614-2.87 17.274-7.88l.151-.162L138.518 315H219.1l-44.464 54.252C156.819 389.299 135.94 399 111.684 399H60.221a240.688 240.688 0 006.446 7zm394.243-72.04h-86.936c-4.603 0-8.535-1.77-11.822-5.317L345.245 308h-98.397l53.918 65.795C319.585 395.268 342.238 406 368.717 406h44.615a239.704 239.704 0 006.446-7h-51.061c-24.257 0-45.021-9.701-62.611-29.732L261.634 315h80.296l14.942 18.244.145.156c4.535 4.895 10.294 7.56 16.957 7.56h83.821a239.708 239.708 0 003.115-7zM19.23 145.71h87.197c4.816 0 8.862 1.885 12.149 5.647L135.439 172h41.187l28.614-34.922-25.278-30.873C160.923 84.741 138.269 74 112.011 74H66.667a241.47 241.47 0 00-6.446 7h51.79c24.015 0 44.794 9.694 62.624 29.748l21.557 26.328L173.312 165H138.76l-14.836-18.161-.077-.087c-4.554-5.214-10.493-8.042-17.42-8.042H22.358a238.014 238.014 0 00-3.127 7z" fill="#00D1FF"/><path d="M70.031 268.92c-7.36 0-14.373-1.093-21.04-3.28-6.613-2.24-11.68-5.04-15.2-8.4l13.2-11.52c2.987 2.667 6.613 4.88 10.88 6.64a35.64 35.64 0 0013.36 2.56c8.32 0 12.48-1.52 12.48-4.56 0-1.067-.453-1.84-1.36-2.32-.853-.533-2.48-.933-4.88-1.2l-16.96-2c-7.307-.907-12.72-2.773-16.24-5.6-3.467-2.88-5.2-7.04-5.2-12.48 0-3.84 1.227-7.147 3.68-9.92 2.507-2.773 6.133-4.88 10.88-6.32 4.747-1.493 10.453-2.24 17.12-2.24 6.453 0 12.507.72 18.16 2.16 5.653 1.387 10.587 3.547 14.8 6.48l-11.28 12c-2.4-2.08-5.653-3.76-9.76-5.04-4.107-1.28-8.453-1.92-13.04-1.92-3.413 0-6 .347-7.76 1.04-1.76.64-2.64 1.6-2.64 2.88 0 1.12.507 1.947 1.52 2.48 1.067.533 3.013.96 5.84 1.28l14.64 1.44c5.547.587 9.973 1.547 13.28 2.88 3.36 1.28 5.813 3.093 7.36 5.44 1.547 2.347 2.32 5.333 2.32 8.96 0 6.56-3.013 11.627-9.04 15.2-5.973 3.573-14.347 5.36-25.12 5.36zm47.991-1.92v-56.8h20.48V267h-20.48zm38.968-56.8h20.48v41.12h35.84V267h-56.32v-56.8zm74.268 0l14.88 34.96c.8 1.813 1.413 3.84 1.84 6.08h.32c.427-2.24 1.04-4.267 1.84-6.08l14.88-34.96h22.72l-27.2 56.8h-24.8l-27.2-56.8h22.72zm88.837 43.04h39.44V267h-59.92v-56.8h59.36v13.76h-38.88v8.08h37.52v12.64h-37.52v8.56zm88.389-4.8h-11.92V267h-20.48v-56.8h39.76c9.013 0 15.467 1.787 19.36 5.36 3.947 3.52 5.92 7.947 5.92 13.28 0 3.573-.96 6.933-2.88 10.08-1.867 3.093-4.853 5.467-8.96 7.12l13.76 20.96h-22.56l-12-18.56zm-11.92-12.24h14.4c3.04 0 5.227-.587 6.56-1.76 1.333-1.227 2-2.853 2-4.88 0-1.92-.667-3.44-2-4.56-1.333-1.173-3.493-1.76-6.48-1.76h-14.48v12.96z" fill="#fff"/><defs><linearGradient id="paint0_linear" x1="240" y1="0" x2="240" y2="701.818" gradientUnits="userSpaceOnUse"><stop stop-color="#08021E"/><stop offset="1" stop-color="#1F0777"/></linearGradient></defs></svg>