<svg width="480" height="480" viewBox="0 0 480 480" fill="none" xmlns="http://www.w3.org/2000/svg"><circle cx="240" cy="240" r="240" fill="url(#paint0_linear)"/><path d="M413.332 74h-44.615c-26.479 0-49.238 10.625-68.278 31.874L246.427 172h98.441l16.957-20.643c3.287-3.762 7.334-5.647 12.149-5.647h86.795a236.19 236.19 0 00-3.128-7h-83.667c-6.927 0-12.865 2.828-17.42 8.042l-.07.08L341.559 165h-80.376l44.574-54.572C323.562 90.611 344.443 81 368.717 81h51.061a240.48 240.48 0 00-6.446-7zM66.667 406h45.017c26.479 0 49.239-10.732 68.278-32.205L233.888 308h-98.686l-16.626 20.303c-3.508 3.771-7.554 5.648-12.149 5.648H19.086a238.894 238.894 0 003.114 7h84.227c6.778 0 12.614-2.87 17.274-7.88l.151-.162L138.518 315H219.1l-44.464 54.252C156.819 389.299 135.94 399 111.684 399H60.221a240.688 240.688 0 006.446 7zm394.243-72.04h-86.936c-4.603 0-8.535-1.77-11.822-5.317L345.245 308h-98.397l53.918 65.795C319.585 395.268 342.238 406 368.717 406h44.615a239.704 239.704 0 006.446-7h-51.061c-24.257 0-45.021-9.701-62.611-29.732L261.634 315h80.296l14.942 18.244.145.156c4.535 4.895 10.294 7.56 16.957 7.56h83.821a239.708 239.708 0 003.115-7zM19.23 145.71h87.197c4.816 0 8.862 1.885 12.149 5.647L135.439 172h41.187l28.614-34.922-25.278-30.873C160.923 84.741 138.269 74 112.011 74H66.667a241.47 241.47 0 00-6.446 7h51.79c24.015 0 44.794 9.694 62.624 29.748l21.557 26.328L173.312 165H138.76l-14.836-18.161-.077-.087c-4.554-5.214-10.493-8.042-17.42-8.042H22.358a238.014 238.014 0 00-3.127 7z" fill="#00D1FF"/><path d="M81.461 275.304c-8 0-14.944-1.504-20.832-4.512-5.888-3.072-10.368-7.264-13.44-12.576-3.072-5.376-4.608-11.424-4.608-18.144 0-7.04 1.856-13.408 5.568-19.104 3.712-5.696 9.024-10.176 15.936-13.44 6.976-3.328 15.104-4.992 24.384-4.992 7.232 0 13.824.896 19.776 2.688 5.952 1.792 10.88 4.352 14.784 7.68 3.904 3.328 6.528 7.296 7.872 11.904l-26.688 4.32c-2.624-6.208-8.032-9.312-16.224-9.312-6.336 0-11.168 1.792-14.496 5.376-3.328 3.52-4.992 8.384-4.992 14.592 0 5.824 1.696 10.464 5.088 13.92 3.456 3.392 8.32 5.088 14.592 5.088 3.904 0 7.264-.512 10.08-1.536 2.88-1.024 5.088-2.336 6.624-3.936 1.6-1.664 2.528-3.392 2.784-5.184v-.096H85.205v-14.304h45.504V273h-18.72l-.864-11.328c-2.048 3.712-5.504 6.912-10.368 9.6-4.8 2.688-11.232 4.032-19.296 4.032zm113.517 0c-9.344 0-17.504-1.472-24.48-4.416-6.976-3.008-12.352-7.232-16.128-12.672-3.776-5.504-5.664-11.936-5.664-19.296 0-7.36 1.888-13.76 5.664-19.2 3.776-5.504 9.152-9.728 16.128-12.672 6.976-3.008 15.136-4.512 24.48-4.512 9.344 0 17.472 1.504 24.384 4.512 6.976 2.944 12.352 7.168 16.128 12.672 3.776 5.44 5.664 11.84 5.664 19.2 0 7.36-1.888 13.792-5.664 19.296-3.776 5.44-9.152 9.664-16.128 12.672-6.912 2.944-15.04 4.416-24.384 4.416zm0-17.76c4.032 0 7.584-.768 10.656-2.304 3.072-1.536 5.44-3.712 7.104-6.528 1.664-2.816 2.496-6.08 2.496-9.792 0-5.632-1.856-10.144-5.568-13.536-3.648-3.392-8.544-5.088-14.688-5.088s-11.072 1.696-14.784 5.088c-3.712 3.392-5.568 7.904-5.568 13.536 0 3.712.832 6.976 2.496 9.792 1.728 2.752 4.128 4.928 7.2 6.528 3.072 1.536 6.624 2.304 10.656 2.304zm67.214-52.704h24.576v49.344h43.008V273h-67.584v-68.16zm135.229 0c8.512 0 15.808 1.28 21.888 3.84 6.144 2.56 10.848 6.304 14.112 11.232 3.264 4.928 4.896 10.88 4.896 17.856 0 6.912-1.728 13.024-5.184 18.336-3.456 5.312-8.32 9.472-14.592 12.48-6.272 2.944-13.504 4.416-21.696 4.416h-45.216v-68.16h45.792zm-4.608 52.224c6.08 0 10.848-1.696 14.304-5.088 3.52-3.392 5.28-7.968 5.28-13.728 0-5.504-1.728-9.792-5.184-12.864-3.456-3.136-8.064-4.704-13.824-4.704h-17.184v36.384h16.608z" fill="#fff"/><defs><linearGradient id="paint0_linear" x1="240" y1="0" x2="240" y2="701.818" gradientUnits="userSpaceOnUse"><stop stop-color="#08021E"/><stop offset="1" stop-color="#1F0777"/></linearGradient></defs></svg>