<svg width="47" height="47" viewBox="0 0 47 47" fill="none" xmlns="http://www.w3.org/2000/svg">
<path d="M19.6789 39.7103L26.3999 32.9893C27.354 32.0352 28.0308 30.926 28.4491 29.7416C29.1118 27.9086 29.1353 25.9205 28.5619 24.0781C28.153 22.7809 27.4292 21.5448 26.3999 20.5155C26.2307 20.3463 26.0521 20.1818 25.8735 20.0314C24.2567 18.659 21.9537 20.5343 23.0159 22.3626L23.0394 22.4002C23.0394 22.4002 23.0535 22.4143 23.0629 22.4237C23.3449 22.6023 23.6081 22.8185 23.8525 23.0582C24.0922 23.2979 24.3131 23.5658 24.487 23.8478C24.5011 23.8619 24.5105 23.8713 24.5105 23.8713C25.6714 25.615 25.6714 27.8804 24.5105 29.6241C24.3319 29.9061 24.1016 30.1834 23.8478 30.4372L17.3383 36.9608C15.5288 38.7703 12.6336 39.2497 10.5186 37.8068C7.75026 35.9174 7.48706 32.0634 9.75716 29.798L16.4782 23.077C16.732 22.8232 17.014 22.5929 17.2913 22.4143C16.9858 21.1171 16.9482 19.7776 17.1785 18.4804C15.9941 18.8987 14.8849 19.5755 13.9308 20.5296L7.52936 26.931C4.24876 30.2116 3.68006 35.5555 6.65516 39.1134C10.0157 43.1413 16.0505 43.3387 19.6789 39.7103Z" fill="#00D1FF"/>
<path d="M17.9963 21.2252C18.0198 21.4555 18.0621 21.6952 18.1232 21.9396C18.1467 22.1934 18.2266 22.4472 18.2877 22.6916C18.6825 24.0546 19.4345 25.3377 20.5014 26.4093C20.6424 26.5503 20.7881 26.6866 20.9385 26.8135C22.5224 28.1953 24.9617 26.3247 23.8619 24.534C23.8525 24.5199 23.8478 24.5105 23.8384 24.4964C23.5564 24.3178 23.2885 24.1016 23.0488 23.8619C22.7809 23.594 22.5412 23.3026 22.3485 22.983C22.3109 22.9172 22.2733 22.8561 22.2357 22.7903C22.1464 22.6493 22.0806 22.5083 22.0054 22.3579C21.6247 21.5166 21.4555 20.586 21.5589 19.6695C21.5824 19.3405 21.6623 19.0068 21.7516 18.6872C21.7657 18.6496 21.7751 18.5838 21.8033 18.5321C21.8691 18.3394 21.9302 18.1514 22.0336 17.9728C22.0712 17.86 22.1229 17.7566 22.1887 17.6438C22.2545 17.531 22.3297 17.4041 22.419 17.2866C22.5976 17.0046 22.8138 16.7414 23.0676 16.4829L29.6664 9.88409C31.4477 8.10279 34.2865 7.67509 36.3686 9.08979C39.1745 10.9933 39.4377 14.8567 37.1629 17.1315L30.4419 23.8525C30.1881 24.1063 29.9061 24.3366 29.6147 24.5293C29.9202 25.8265 29.9578 27.166 29.7275 28.4632C30.9119 28.0449 32.0305 27.354 32.9846 26.3999L39.7056 19.6789C43.3481 16.0364 43.1319 9.96399 39.057 6.61289C35.5085 3.69419 30.2257 4.22999 26.978 7.48239L20.5202 13.9449C19.2324 15.2327 18.4193 16.8354 18.0997 18.5039C18.0339 18.7718 18.0104 19.0491 17.9869 19.3311C17.9634 19.5332 17.9493 19.7494 17.9493 19.9562C17.9258 20.21 17.9352 20.4544 17.9634 20.7082C17.9587 20.8821 17.9728 21.0466 17.9963 21.2252Z" fill="#00D1FF"/>
</svg>
