<svg width="188" height="60" viewBox="0 0 188 60" fill="none" xmlns="http://www.w3.org/2000/svg">
<path fill-rule="evenodd" clip-rule="evenodd" d="M41.3757 19.6529C40.5094 17.8936 39.2454 16.3602 37.6837 15.1741L39.6494 12.5859C41.6129 14.0772 43.2022 16.0052 44.2914 18.2172C45.3799 20.4276 45.9391 22.8609 45.9249 25.3247C45.9249 25.6892 45.9248 30.5445 45.9087 35.3923C45.9005 37.8266 45.8883 40.2623 45.87 42.1273C45.8608 43.059 45.8501 43.8535 45.8374 44.436C45.8311 44.7261 45.8242 44.9716 45.8164 45.1582C45.8125 45.2506 45.808 45.3385 45.8025 45.4147L45.8021 45.4207C45.799 45.4649 45.7886 45.6116 45.7562 45.7575L45.6212 46.3649L41.2443 49.4947L41.2368 49.5001L34.7449 54.1987V37.4595L38.7532 35.2928V29.6952L33.7916 32.2481V40.8572L32.4197 41.0735C30.8164 41.3263 29.1834 41.3263 27.5801 41.0735L26.2082 40.8572V32.2432L21.3332 29.7082V35.2928L25.3416 37.4595V54.1585L18.7692 49.5045L18.763 49.5001L14.2049 46.2407V45.405C14.2049 45.0981 14.1725 40.2333 14.1399 35.3571L14.1377 35.0222C14.1062 30.2935 14.0752 25.6535 14.0749 25.3241C14.0625 22.8608 14.6225 20.4283 15.7107 18.2183C16.7996 16.007 18.3876 14.079 20.3494 12.5867L22.3171 15.1733C20.7562 16.3607 19.4927 17.8946 18.6264 19.6541C17.76 21.4135 17.3144 23.3502 17.3249 25.3113L17.3249 25.32C17.3249 25.6017 17.3565 30.3389 17.3887 35.1532L17.3899 35.3354C17.4151 39.1186 17.4404 42.9153 17.4504 44.5661L20.6473 46.8521L20.6535 46.8565L22.0916 47.8748V39.3972L18.0832 37.2305V24.3551L29.4582 30.2701V38.0012C29.8192 38.0171 30.1806 38.0171 30.5416 38.0012V30.2653L42.0032 24.3681V37.2305L37.9949 39.3972V47.8346L39.3464 46.8565L42.5842 44.5412C42.5855 44.4856 42.5869 44.427 42.5882 44.3654C42.6004 43.8025 42.611 43.0233 42.6201 42.0954C42.6384 40.2411 42.6505 37.814 42.6587 35.3814C42.6749 30.5174 42.6749 25.6447 42.6749 25.32V25.3101C42.6868 23.3491 42.2421 21.4122 41.3757 19.6529ZM42.5587 45.2069C42.5587 45.2069 42.5591 45.2005 42.5602 45.1907C42.5592 45.2027 42.5587 45.2069 42.5587 45.2069ZM14.0749 25.3241L14.0749 25.32H15.6999L14.0749 25.3287L14.0749 25.3241Z" fill="#00D1FF"/>
<path d="M26.8065 10.6323C26.7698 10.5783 26.7199 10.5345 26.6614 10.5053C26.603 10.4761 26.538 10.4624 26.4728 10.4655H23.8273V8.65415H26.6158C26.9619 8.65706 27.3032 8.73532 27.6161 8.88349C27.9289 9.03167 28.2056 9.24619 28.4272 9.51216L29.0945 10.3225L27.7836 11.8955L26.8065 10.6323ZM31.5732 9.41682C31.7943 9.15825 32.0683 8.95001 32.3766 8.80613C32.6849 8.66225 33.0205 8.58605 33.3607 8.58265H36.1016V10.3225H33.5276C33.4659 10.3212 33.405 10.3359 33.3507 10.3652C33.2964 10.3944 33.2506 10.4372 33.2177 10.4893L31.2872 12.8727L33.2177 15.256C33.2568 15.2998 33.3045 15.3351 33.3578 15.3597C33.4111 15.3843 33.4689 15.3977 33.5276 15.399H36.1731V17.401H33.3846C33.0425 17.3947 32.7058 17.3148 32.3973 17.1667C32.0889 17.0187 31.8159 16.806 31.597 16.543L30.0002 14.541L28.4272 16.4715C28.2056 16.7375 27.9289 16.952 27.6161 17.1002C27.3032 17.2484 26.9619 17.3266 26.6158 17.3295H23.8273V15.4467H26.4728C26.5985 15.4449 26.7185 15.3935 26.8065 15.3037L28.6655 12.9203L31.5732 9.41682Z" fill="#00D1FF"/>
<path fill-rule="evenodd" clip-rule="evenodd" d="M105.376 19.6529C104.509 17.8936 103.245 16.3602 101.684 15.1741L103.649 12.5859C105.613 14.0772 107.202 16.0052 108.291 18.2172C109.38 20.4276 109.939 22.8609 109.925 25.3247C109.925 25.6892 109.925 30.5445 109.909 35.3923C109.901 37.8266 109.888 40.2623 109.87 42.1273C109.861 43.059 109.85 43.8535 109.837 44.436C109.831 44.7261 109.824 44.9716 109.816 45.1582C109.812 45.2506 109.808 45.3385 109.803 45.4147L109.802 45.4207C109.799 45.4649 109.789 45.6116 109.756 45.7575L109.621 46.3649L105.244 49.4947L105.237 49.5001L98.7449 54.1987V37.4595L102.753 35.2928V29.6952L97.7916 32.2481V40.8572L96.4197 41.0735C94.8164 41.3263 93.1834 41.3263 91.5801 41.0735L90.2082 40.8572V32.2432L85.3332 29.7082V35.2928L89.3416 37.4595V54.1585L82.7692 49.5045L82.763 49.5001L78.2049 46.2407V45.405C78.2049 45.0981 78.1725 40.2333 78.1399 35.3571L78.1377 35.0222C78.1062 30.2935 78.0752 25.6535 78.0749 25.3241C78.0625 22.8608 78.6225 20.4283 79.7107 18.2183C80.7996 16.007 82.3876 14.079 84.3494 12.5867L86.3171 15.1733C84.7562 16.3607 83.4927 17.8946 82.6264 19.6541C81.76 21.4135 81.3144 23.3502 81.3249 25.3113L81.3249 25.32C81.3249 25.6017 81.3565 30.3389 81.3887 35.1532L81.3899 35.3354C81.4151 39.1186 81.4404 42.9153 81.4504 44.5661L84.6473 46.8521L84.6535 46.8565L86.0916 47.8748V39.3972L82.0832 37.2305V24.3551L93.4582 30.2701V38.0012C93.8192 38.0171 94.1806 38.0171 94.5416 38.0012V30.2653L106.003 24.3681V37.2305L101.995 39.3972V47.8346L103.346 46.8565L106.584 44.5412C106.586 44.4856 106.587 44.427 106.588 44.3654C106.6 43.8025 106.611 43.0233 106.62 42.0954C106.638 40.2411 106.651 37.814 106.659 35.3814C106.675 30.5174 106.675 25.6447 106.675 25.32V25.3101C106.687 23.3491 106.242 21.4122 105.376 19.6529ZM106.559 45.2069C106.559 45.2069 106.559 45.2005 106.56 45.1907C106.559 45.2027 106.559 45.2069 106.559 45.2069ZM78.0749 25.3241L78.0749 25.32H79.6999L78.0749 25.3287L78.0749 25.3241Z" fill="#00D1FF"/>
<path d="M90.8065 10.6323C90.7698 10.5783 90.7199 10.5345 90.6614 10.5053C90.603 10.4761 90.538 10.4624 90.4728 10.4655H87.8273V8.65415H90.6158C90.9619 8.65706 91.3032 8.73532 91.6161 8.88349C91.9289 9.03167 92.2056 9.24619 92.4272 9.51216L93.0945 10.3225L91.7836 11.8955L90.8065 10.6323ZM95.5732 9.41682C95.7943 9.15825 96.0683 8.95001 96.3766 8.80613C96.6849 8.66225 97.0205 8.58605 97.3607 8.58265H100.102V10.3225H97.5276C97.4659 10.3212 97.405 10.3359 97.3507 10.3652C97.2964 10.3944 97.2506 10.4372 97.2177 10.4893L95.2872 12.8727L97.2177 15.256C97.2568 15.2998 97.3045 15.3351 97.3578 15.3597C97.4111 15.3843 97.4689 15.3977 97.5276 15.399H100.173V17.401H97.3846C97.0425 17.3947 96.7058 17.3148 96.3973 17.1667C96.0889 17.0187 95.8159 16.806 95.597 16.543L94.0002 14.541L92.4272 16.4715C92.2056 16.7375 91.9289 16.952 91.6161 17.1002C91.3032 17.2484 90.9619 17.3266 90.6158 17.3295H87.8273V15.4467H90.4728C90.5985 15.4449 90.7185 15.3935 90.8065 15.3037L92.6655 12.9203L95.5732 9.41682Z" fill="#00D1FF"/>
<path fill-rule="evenodd" clip-rule="evenodd" d="M169.376 19.6529C168.509 17.8936 167.245 16.3602 165.684 15.1741L167.649 12.5859C169.613 14.0772 171.202 16.0052 172.291 18.2172C173.38 20.4276 173.939 22.8609 173.925 25.3247C173.925 25.6892 173.925 30.5445 173.909 35.3923C173.901 37.8266 173.888 40.2623 173.87 42.1273C173.861 43.059 173.85 43.8535 173.837 44.436C173.831 44.7261 173.824 44.9716 173.816 45.1582C173.812 45.2506 173.808 45.3385 173.803 45.4147L173.802 45.4207C173.799 45.4649 173.789 45.6116 173.756 45.7575L173.621 46.3649L169.244 49.4947L169.237 49.5001L162.745 54.1987V37.4595L166.753 35.2928V29.6952L161.792 32.2481V40.8572L160.42 41.0735C158.816 41.3263 157.183 41.3263 155.58 41.0735L154.208 40.8572V32.2432L149.333 29.7082V35.2928L153.342 37.4595V54.1585L146.769 49.5045L146.763 49.5001L142.205 46.2407V45.405C142.205 45.0981 142.172 40.2333 142.14 35.3571L142.138 35.0222C142.106 30.2935 142.075 25.6535 142.075 25.3241C142.062 22.8608 142.622 20.4283 143.711 18.2183C144.8 16.007 146.388 14.079 148.349 12.5867L150.317 15.1733C148.756 16.3607 147.493 17.8946 146.626 19.6541C145.76 21.4135 145.314 23.3502 145.325 25.3113L145.325 25.32C145.325 25.6017 145.357 30.3389 145.389 35.1532L145.39 35.3354C145.415 39.1186 145.44 42.9153 145.45 44.5661L148.647 46.8521L148.653 46.8565L150.092 47.8748V39.3972L146.083 37.2305V24.3551L157.458 30.2701V38.0012C157.819 38.0171 158.181 38.0171 158.542 38.0012V30.2653L170.003 24.3681V37.2305L165.995 39.3972V47.8346L167.346 46.8565L170.584 44.5412C170.586 44.4856 170.587 44.427 170.588 44.3654C170.6 43.8025 170.611 43.0233 170.62 42.0954C170.638 40.2411 170.651 37.814 170.659 35.3814C170.675 30.5174 170.675 25.6447 170.675 25.32V25.3101C170.687 23.3491 170.242 21.4122 169.376 19.6529ZM170.559 45.2069C170.559 45.2069 170.559 45.2005 170.56 45.1907C170.559 45.2027 170.559 45.2069 170.559 45.2069ZM142.075 25.3241L142.075 25.32H143.7L142.075 25.3287L142.075 25.3241Z" fill="#00D1FF"/>
<path d="M154.806 10.6323C154.77 10.5783 154.72 10.5345 154.661 10.5053C154.603 10.4761 154.538 10.4624 154.473 10.4655H151.827V8.65415H154.616C154.962 8.65706 155.303 8.73532 155.616 8.88349C155.929 9.03167 156.206 9.24619 156.427 9.51216L157.095 10.3225L155.784 11.8955L154.806 10.6323ZM159.573 9.41682C159.794 9.15825 160.068 8.95001 160.377 8.80613C160.685 8.66225 161.02 8.58605 161.361 8.58265H164.102V10.3225H161.528C161.466 10.3212 161.405 10.3359 161.351 10.3652C161.296 10.3944 161.251 10.4372 161.218 10.4893L159.287 12.8727L161.218 15.256C161.257 15.2998 161.305 15.3351 161.358 15.3597C161.411 15.3843 161.469 15.3977 161.528 15.399H164.173V17.401H161.385C161.042 17.3947 160.706 17.3148 160.397 17.1667C160.089 17.0187 159.816 16.806 159.597 16.543L158 14.541L156.427 16.4715C156.206 16.7375 155.929 16.952 155.616 17.1002C155.303 17.2484 154.962 17.3266 154.616 17.3295H151.827V15.4467H154.473C154.599 15.4449 154.718 15.3935 154.806 15.3037L156.665 12.9203L159.573 9.41682Z" fill="#00D1FF"/>
</svg>
