<svg width="16" height="10" viewBox="0 0 16 10" fill="none" xmlns="http://www.w3.org/2000/svg">
<path d="M6.29865e-07 6.29605L4.03222e-07 3.70356C3.94635e-07 3.60534 0.0339674 3.51113 0.0944304 3.44168C0.154893 3.37222 0.236899 3.3332 0.322406 3.3332L10.7232 3.3332L8.51476 0.622199C8.47174 0.569628 8.44303 0.503769 8.43214 0.432711C8.42126 0.361654 8.42868 0.288492 8.4535 0.222213C8.47845 0.156542 8.51945 0.100594 8.57152 0.0611522C8.6236 0.0217101 8.68451 0.00046794 8.74689 6.34087e-07L11.929 3.55894e-07C11.9732 0.00016343 12.017 0.0107683 12.0574 0.0311569C12.0979 0.0515445 12.1343 0.0812791 12.1644 0.118513L15.914 4.74796C15.9693 4.81645 16 4.9064 16 4.99981C16 5.09321 15.9693 5.18316 15.914 5.25165L12.1805 9.8811C12.1486 9.92069 12.1096 9.95182 12.0662 9.97229C12.0227 9.99276 11.9759 10.0021 11.929 9.99961L8.73077 9.99961C8.66839 9.99914 8.60748 9.9779 8.5554 9.93846C8.50333 9.89902 8.46233 9.84307 8.43738 9.7774C8.41256 9.71112 8.40514 9.63796 8.41602 9.5669C8.42691 9.49584 8.45562 9.42998 8.49864 9.37741L10.7232 6.66641L0.322406 6.66641C0.236899 6.66641 0.154894 6.62739 0.0944306 6.55793C0.0339677 6.48848 6.38452e-07 6.39428 6.29865e-07 6.29605Z" fill="white"/>
</svg>
