<svg width="658" height="605" viewBox="0 0 658 605" fill="none" xmlns="http://www.w3.org/2000/svg">
<g filter="url(#filter0_d)">
<path d="M126.378 119.48C214.466 117.265 284.121 68.4641 364.674 40.3511C382.832 34.0154 401.51 28.9948 420.553 26.161C440.319 23.2217 464.706 18.5807 481.151 32.5739C522.445 67.7117 515.15 161.023 575.923 172.562C576.597 202.25 579.012 232.227 600.878 254.194C612.204 265.571 623.291 274.607 628.839 290.302C641.056 324.842 632.623 364.705 624.857 399.048C611.186 459.5 590.324 519.095 587.698 581.452C537.795 576.544 525.212 517.991 479.121 508.245C431.837 498.253 389.938 548.037 343.623 521.57C322.958 509.756 306.745 491.608 286.214 479.583C261.35 465.02 238.557 471.236 213.16 481.362C188.471 491.207 159.036 494.624 141.201 515.29C128.843 529.607 119.567 546.265 108.129 561.271C101.914 569.421 90.5532 586.796 77.872 579.955C75.3442 507.134 67.3043 434.109 67.0024 361.246C66.89 332.971 70.7379 305.526 81.2775 279.199C88.8329 260.333 99.4708 242.943 107.574 224.344C122.109 191 125.908 155.595 126.378 119.48Z" stroke="url(#paint0_linear)" stroke-miterlimit="10" stroke-linecap="round"/>
<path d="M76.5732 544.437C99.2183 556.033 128.941 497.465 140.485 484.681C158.636 464.585 186.442 462.721 211.173 454.002C236.43 445.092 259.026 439.481 282.935 454.487C303.129 467.158 319.377 485.223 339.832 497.521C349.283 503.203 359.633 507.605 370.748 508.406C383.415 509.321 393.878 503.92 405.857 501.051C427.224 495.932 455.325 485.687 477.247 490.342C523.415 500.144 539.459 556.996 588.71 562.516" stroke="url(#paint1_linear)" stroke-miterlimit="10" stroke-linecap="round"/>
<path d="M75.042 511.978C98.0592 523.06 125.711 472.509 138.027 459.36C156.094 440.079 180.473 439.34 204.614 431.31C227.807 423.589 250.726 416.712 273.104 429.967C293.874 442.265 310.494 460.478 331.405 472.551C340.884 478.022 350.82 482.248 361.781 483.443C374.224 484.801 384.953 480.026 397.086 478.296C410.982 476.313 425.131 477.122 438.971 474.605C450.332 472.537 460.177 469.633 471.847 471.616C519.995 479.808 541.404 536.245 591.391 541.997" stroke="url(#paint2_linear)" stroke-miterlimit="10" stroke-linecap="round"/>
<path d="M73.4062 482.41C96.3322 493.844 122.987 449.579 136.068 436.619C153.615 419.23 176.197 418.604 198.87 411.164C220.736 403.992 241.654 397.748 263.014 409.23C282.984 419.968 299.197 436.556 319.307 447.125C328.779 452.096 338.638 455.816 349.332 456.906C361.894 458.186 373.487 453.727 386.006 453.432C401.756 453.059 417.464 456.695 433.192 455.155C444.862 454.009 455.135 450.894 467.023 452.743C516.954 460.506 544.178 514.573 595.408 520.276" stroke="url(#paint3_linear)" stroke-miterlimit="10" stroke-linecap="round"/>
<path d="M71.749 455.528C93.9728 467.285 119.237 430.466 132.859 417.936C150.048 402.128 172.335 400.539 193.906 393.254C213.609 386.602 231.886 381.3 251.47 390.772C269.881 399.674 285.68 413.225 304.435 421.515C313.612 425.572 323.337 428.455 333.371 429.236C346.053 430.22 357.919 425.889 370.565 426.958C388.499 428.476 406.011 435.227 424.043 435.579C435.966 435.811 447.144 431.943 459.187 433.272C512.538 439.165 546.502 492.276 600.365 497.697" stroke="url(#paint4_linear)" stroke-miterlimit="10" stroke-linecap="round"/>
<path d="M70.1973 431.148C92.5334 443.693 118.05 410.742 133.035 399.034C147.998 387.34 166.774 385.653 184.335 379.092C202.704 372.229 219.374 366.414 238.438 373.537C255.423 379.887 270.625 390.167 287.913 395.863C310.446 403.288 331.132 396.327 353.615 399.836C373.767 402.979 392.663 412.155 412.885 414.827C426.929 416.684 440.635 412.732 454.791 414.377C510.15 420.825 550.041 469.767 605.983 474.633" stroke="url(#paint5_linear)" stroke-miterlimit="10" stroke-linecap="round"/>
<path d="M68.8418 409.069C90.23 421.691 113.633 396.594 129.776 385.273C144.206 375.154 161.809 372.447 177.938 365.507C193.674 358.735 207.423 353.602 224.668 357.413C240.242 360.852 254.84 367.687 270.562 370.661C292.266 374.768 314.033 366.47 335.056 371.688C359.71 377.798 382.811 391.567 407.977 395.483C420.602 397.445 433.052 394.295 445.859 395.244C505.488 399.646 552.175 447.125 611.888 451.456" stroke="url(#paint6_linear)" stroke-miterlimit="10" stroke-linecap="round"/>
<path d="M67.7891 389.112C87.9835 401.418 110.032 383.22 126.891 373.038C140.106 365.057 155.132 361.766 168.881 354.607C181.983 347.78 193.717 341.908 208.736 341.971C223.713 342.035 238.501 345.586 253.479 346.064C261.954 346.331 270.38 345.874 278.771 344.643C295.756 342.161 307.658 340.699 324.833 346.64C349.269 355.1 372.068 368.432 396.968 375.583C411.706 379.816 426.311 375.527 441.387 376.673C503.466 381.412 555.462 424.848 617.738 428.518" stroke="url(#paint7_linear)" stroke-miterlimit="10" stroke-linecap="round"/>
<path d="M67.1504 371.076C86.2214 382.77 107.153 370.71 124.574 361.85C137.656 355.198 150.561 351.317 163.011 343.28C187.369 327.549 209.488 326.319 237.525 322.473C245.636 321.362 253.696 319.892 261.659 318.007C279.979 313.676 289.943 313.078 308.073 320.342C336.391 331.691 363.874 350.557 393.555 357.962C406.573 361.211 419.451 357.54 432.715 358.138C499.057 361.14 556.958 403.021 623.222 406.172" stroke="url(#paint8_linear)" stroke-miterlimit="10" stroke-linecap="round"/>
<path d="M67.0225 354.776C93.1011 370.324 135.772 350.557 157.174 332.971C177.657 316.137 198.532 307.769 223.768 300.133C231.619 297.756 239.469 295.386 247.27 292.869C266.271 286.744 276.263 287.672 295.032 295.949C325.422 309.344 354.766 330.679 386.771 339.848C400.203 343.694 413.299 340.017 427.054 340.488C496.373 342.865 558.81 382.067 627.995 384.816" stroke="url(#paint9_linear)" stroke-miterlimit="10" stroke-linecap="round"/>
<path d="M67.5146 340.017C93.3546 354.354 132.55 343.575 152.428 323.204C170.727 304.45 189.04 290.175 213.173 279.354C220.644 276.006 228.235 272.948 235.868 269.994C240.972 268.025 247.502 264.116 253.029 263.588C262.69 262.667 273.567 268.272 282.021 272.005C314.862 286.512 344.578 307.649 377.994 320.897C393.73 327.134 408.511 323.021 425.04 323.696C495.784 326.607 561.015 362.272 631.696 364.775" stroke="url(#paint10_linear)" stroke-miterlimit="10" stroke-linecap="round"/>
<path d="M68.7363 326.607C95.5172 339.566 132.248 334.883 151.221 311.439C167.637 291.16 183.408 273.334 206.622 260.452C214.002 256.36 221.676 252.795 229.464 249.553C248.879 241.473 259.474 244.399 278.51 253.73C311.562 269.938 343.63 295.555 378.83 306.637C392.304 310.877 405.526 307.34 419.401 307.677C492.61 309.456 561.015 343.722 634.013 346.444" stroke="url(#paint11_linear)" stroke-miterlimit="10" stroke-linecap="round"/>
<path d="M70.7725 314.365C98.6347 325.532 133.189 324.294 152.042 299.148C167.953 277.927 182.067 257.984 205.344 243.963C212.625 239.575 220.314 235.856 228.171 232.635C247.425 224.731 258.203 227.572 276.993 236.819C292.961 244.68 308.395 253.512 323.87 262.295C340.877 271.95 359.737 285.085 378.521 290.682C391.623 294.592 404.887 291.217 418.355 291.617C492.013 293.804 561.163 326.98 634.589 330.166" stroke="url(#paint12_linear)" stroke-miterlimit="10" stroke-linecap="round"/>
<path d="M73.3574 303.219C101.669 313.978 135.956 312.051 154.683 286.631C170.601 265.03 184.961 244.757 208.294 230.293C215.47 225.842 223.054 222.031 230.82 218.726C249.582 210.723 260.627 212.995 279.305 221.538C312.005 236.488 344.368 261.964 379.238 271.161C392.439 274.642 406.054 271.436 419.549 272.132C492.912 275.908 560.63 312.726 633.909 316.235" stroke="url(#paint13_linear)" stroke-miterlimit="10" stroke-linecap="round"/>
<path d="M76.3057 293.024C104.765 303.142 138.946 300.794 157.982 275.817C174.687 253.899 189.348 232.979 213.236 217.981C220.49 213.424 228.101 209.521 235.959 206.125C254.145 198.278 266.763 200.563 285.497 208.431C316.083 221.278 344.22 240.56 375.642 251.41C391.476 256.88 407.555 253.139 423.972 254.602C495.601 260.973 560.531 300.421 632.419 304.464" stroke="url(#paint14_linear)" stroke-miterlimit="10" stroke-linecap="round"/>
<path d="M79.5576 283.636C110.2 292.489 142.837 290.302 163.411 264.355C180.579 242.711 195.95 221.834 219.81 206.842C240.278 193.981 259.63 184.994 283.63 193.067C317.18 204.353 346.945 225.42 380.951 235.475C394.833 239.575 409.431 236.628 423.826 238.091C495.398 245.383 558.25 289.768 630.18 294.605" stroke="url(#paint15_linear)" stroke-miterlimit="10" stroke-linecap="round"/>
<path d="M83.0605 274.902C113.998 283.017 147.021 280.275 168.55 255.052C187.038 233.387 203.294 212.024 227.94 196.716C235.432 192.068 243.261 188.046 251.357 184.565C266.833 177.899 277.26 177.639 293.677 183.363C322.824 193.531 349.795 209.219 379.167 218.754C395.506 224.063 412.379 220.828 429.246 223.367C498.332 233.767 557.301 280.711 627.342 286.371" stroke="url(#paint16_linear)" stroke-miterlimit="10" stroke-linecap="round"/>
<path d="M86.7539 266.661C119.482 274.361 152.428 270.093 175.719 244.743C195.057 223.704 212.422 202.454 237.229 187.371C258.856 174.222 278.594 165.643 303.844 173.554C332.296 182.47 358.375 199.107 387.396 206.293C401.355 209.753 415.89 206.743 430.088 209.113C498.634 220.561 554.26 272.751 623.958 279.473" stroke="url(#paint17_linear)" stroke-miterlimit="10" stroke-linecap="round"/>
<path d="M90.5811 258.779C124.026 265.747 157.252 260.79 182.032 236.418C203.125 215.674 221.747 193.939 247.601 178.694C255.465 174.053 263.652 170.031 272.093 166.55C287.899 160.039 299.084 159.926 315.747 165.27C342.176 173.743 367.37 187.835 394.671 193.235C408.426 195.957 422.336 193.7 436.317 196.822C501.808 211.434 552.624 265.979 620.145 273.672" stroke="url(#paint18_linear)" stroke-miterlimit="10" stroke-linecap="round"/>
<path d="M94.4785 251.086C129.987 257.541 163.439 251.037 190.381 226.707C212.514 206.716 232.42 185.339 258.653 170.432C281.298 157.564 301.296 149.147 327.417 156.671C352.12 163.78 377.321 179.882 403.28 181.725C417.106 182.702 428.993 181.338 442.665 185.297C504.821 203.298 550.624 259.981 615.996 268.672" stroke="url(#paint19_linear)" stroke-miterlimit="10" stroke-linecap="round"/>
<path d="M98.4033 243.45C135.955 249.314 170.025 241.27 199.221 217.066C222.421 197.841 243.599 176.992 270.309 162.465C289.064 152.262 309.561 142.073 331.202 146.432C356.044 151.432 379.019 165.938 404.249 169.039C418.229 170.755 430.608 168.779 444.378 173.09C505.755 192.315 546.6 254.264 611.607 264.214" stroke="url(#paint20_linear)" stroke-miterlimit="10" stroke-linecap="round"/>
<path d="M102.286 235.708C141.875 240.918 176.892 231.369 208.405 207.355C232.588 188.932 254.988 168.653 282.183 154.554C305.277 142.579 326.167 134.12 352.281 140.821C369.996 145.37 387.319 153.52 405.4 156.642C419.549 159.089 432.455 156.502 446.337 161.129C507.089 181.366 542.366 248.759 607.092 260.002" stroke="url(#paint21_linear)" stroke-miterlimit="10" stroke-linecap="round"/>
<path d="M106.071 227.712C145.105 231.953 180.551 222.797 212.879 200.858C239.954 182.491 264.629 161.129 294.169 146.58C313.409 137.101 334.916 127.109 356.62 130.955C377.945 134.738 398.835 146.32 420.75 146.531C432.785 146.643 441.464 146.46 452.916 151.151C510.073 174.573 539.74 243.597 602.535 255.79" stroke="url(#paint22_linear)" stroke-miterlimit="10" stroke-linecap="round"/>
<path d="M109.708 219.316C150.666 222.882 187.453 212.362 221.88 190.648C249.869 172.991 275.765 152.381 305.909 138.303C322.529 130.54 343.152 120.506 361.893 121.814C382.495 123.248 401.819 134.331 422.484 134.9C436.457 135.28 446.28 134.534 459.299 141.158C512.439 168.188 537.106 238.274 598.034 251.311" stroke="url(#paint23_linear)" stroke-miterlimit="10" stroke-linecap="round"/>
<path d="M113.128 210.365C156.08 213.248 194.152 201.533 230.777 179.932C259.559 162.95 286.586 143.184 317.27 129.591C336.77 120.949 359.064 111.252 380.627 114.283C395.184 116.329 409.41 121.87 424.099 123.045C438.065 124.156 448.247 122.138 461.223 128.979C514.117 156.896 532.5 232.079 593.702 246.262" stroke="url(#paint24_linear)" stroke-miterlimit="10" stroke-linecap="round"/>
<path d="M116.281 200.704C161.122 202.898 200.654 190.149 239.421 168.575C268.821 152.213 296.789 133.283 327.916 120.211C344.831 113.102 366.704 103.546 385.192 104.34C402.739 105.1 419.479 111.892 437.174 111.478C446.92 111.252 453.9 111.485 463.028 116.365C516.056 144.703 527.958 225.202 589.602 240.398" stroke="url(#paint25_linear)" stroke-miterlimit="10" stroke-linecap="round"/>
<path d="M119.118 190.184C203.92 192.961 263.176 139.808 337.697 110.015C354.465 103.313 375.917 94.2847 394.082 94.355C410.084 94.4113 425.553 99.5515 441.633 99.0382C451.161 98.7358 457.994 99.228 466.729 104.326C518.001 134.267 524.588 217.826 585.88 233.415" stroke="url(#paint26_linear)" stroke-miterlimit="10" stroke-linecap="round"/>
<path d="M121.561 178.666C207.317 180.192 269.986 128.058 346.34 98.8413C364.182 92.0134 384.222 84.4402 403.363 83.6034C416.459 83.0339 429.393 86.7115 442.502 86.1208C454.348 85.5864 461.686 86.1982 471.839 93.0471C519.411 125.133 522.55 209.542 582.586 225.083" stroke="url(#paint27_linear)" stroke-miterlimit="10" stroke-linecap="round"/>
<path d="M123.569 165.981C210.189 166.403 275.653 115.155 353.587 86.4514C371.338 79.9118 390.914 72.9574 409.81 71.4526C421.796 70.4963 433.789 72.8238 445.789 72.198C457.431 71.5862 464.832 72.4722 474.592 79.4407C520.774 112.434 519.749 199.853 579.855 215.09" stroke="url(#paint28_linear)" stroke-miterlimit="10" stroke-linecap="round"/>
<path d="M125.079 151.987C212.394 151.375 280.02 101.021 359.204 72.683C377.047 66.2981 396.953 59.4211 415.842 57.7897C435.889 56.0599 462.396 52.4315 478.672 65.9887C520.753 101.035 518.738 188.855 577.763 203.193" stroke="url(#paint29_linear)" stroke-miterlimit="10" stroke-linecap="round"/>
<path d="M126.034 136.538C213.869 135.062 282.892 85.5089 362.982 57.3818C380.972 51.0673 400.183 45.1325 419.128 42.8191C438.929 40.4001 464.025 36.2022 480.252 50.0196C521.645 85.2768 516.737 175.937 576.421 189.101" stroke="url(#paint30_linear)" stroke-miterlimit="10" stroke-linecap="round"/>
<path d="M559.766 168.005C561.121 196.934 563.937 225.75 582.797 248.836C593.161 261.528 603.321 272.019 608.51 288.073C619.724 322.746 612.73 359.466 605.695 394.196C593.266 455.52 575.375 516.071 571.232 578.759" stroke="url(#paint31_linear)" stroke-miterlimit="10" stroke-linecap="round"/>
<path d="M546.46 156.157C547.977 185.128 550.743 213.698 565.629 239.104C573.992 253.378 582.193 266.254 586.245 282.581C595.113 318.366 589.967 353.968 584.181 389.802C574.406 450.373 561.156 510.495 557.056 571.833" stroke="url(#paint32_linear)" stroke-miterlimit="10" stroke-linecap="round"/>
<path d="M535.268 138.887C536.517 168.069 538.743 196.991 548.293 224.752C553.995 241.333 559.766 257.288 562.505 274.72C568.389 312.199 565.033 348.947 561.143 386.454C555.083 444.881 547.457 503.182 544.543 561.883" stroke="url(#paint33_linear)" stroke-miterlimit="10" stroke-linecap="round"/>
<path d="M525.457 118.073C526.658 167.795 534.599 216.124 537.724 265.557C543.7 359.945 534.986 455.696 533.019 550.147" stroke="url(#paint34_linear)" stroke-miterlimit="10" stroke-linecap="round"/>
<path d="M516.294 95.5855C516.385 149.083 513.549 202.328 512.411 255.776C510.41 350.051 520.542 443.651 521.869 537.834" stroke="url(#paint35_linear)" stroke-miterlimit="10" stroke-linecap="round"/>
<path d="M507.061 73.2878C506.38 107.554 503.971 141.32 497.911 175.052C493.649 198.784 489.254 222.368 487.035 246.403C478.286 341.149 505.895 431.964 510.438 526.148" stroke="url(#paint36_linear)" stroke-miterlimit="10" stroke-linecap="round"/>
<path d="M497.02 53.0646C495.679 90.129 490.75 125.632 480.554 161.255C473.252 186.781 465.963 212.018 462.08 238.352C455.845 280.62 457.354 318.099 466.764 359.699C478.525 411.706 494.085 462.918 498.095 516.331" stroke="url(#paint37_linear)" stroke-miterlimit="10" stroke-linecap="round"/>
<path d="M485.448 36.7789C483.727 76.5295 476.228 113.362 462.704 150.623C452.944 177.506 443.261 204.17 437.988 232.382C430.496 272.442 430.404 309.295 441.688 348.596C457.038 402.065 479.318 453.657 484.191 509.595" stroke="url(#paint38_linear)" stroke-miterlimit="10" stroke-linecap="round"/>
<path d="M471.6 26.3016C470.07 66.9945 461.026 104.101 445.564 141.531C433.648 170.383 421.683 198.819 415.272 229.534C406.523 271.45 406.158 309.323 420.005 349.889C437.756 401.903 463.778 451.505 468.068 507.141" stroke="url(#paint39_linear)" stroke-miterlimit="10" stroke-linecap="round"/>
<path d="M454.84 23.3903C454.475 64.5543 444.876 101.436 428.017 138.683C414.451 168.653 400.47 197.996 393.414 230.349C384.236 272.413 383.85 313.198 398.898 353.785C417.962 405.187 447.305 454.065 449.166 510.129" stroke="url(#paint40_linear)" stroke-miterlimit="10" stroke-linecap="round"/>
<path d="M437.322 24.2271C436.711 66.2068 423.306 100.606 399.194 134.338C380.705 160.2 360.715 184.79 350.049 215.203C335.127 257.759 339.144 296.94 357.597 337.591C383.598 394.879 425.785 451.105 429.085 515.677" stroke="url(#paint41_linear)" stroke-miterlimit="10" stroke-linecap="round"/>
<path d="M420.357 26.189C417.695 69.7648 396.743 99.7061 363.86 126.68C339.902 146.334 313.023 164.068 296.514 191.028C287.99 204.95 282.05 221.517 281.291 237.951C280.013 265.656 296.093 293.051 308.908 316.516C326.532 348.778 346.397 379.76 364.646 411.663C384.363 446.14 404.256 481.84 408.911 521.851" stroke="url(#paint42_linear)" stroke-miterlimit="10" stroke-linecap="round"/>
<path d="M403.933 29.1917C401.693 75.0528 376.52 103.644 339.298 127.404C312.454 144.541 281.186 158.639 260.942 184.13C228.678 224.759 251.632 268.651 274.466 308.057C294.871 343.265 317.727 376.983 338.827 411.762C360.672 447.765 384.349 485.849 388.766 528.545" stroke="url(#paint43_linear)" stroke-miterlimit="10" stroke-linecap="round"/>
<path d="M387.937 33.0872C385.051 79.0327 359.872 108.257 322.832 132.741C296.037 150.447 265.001 165.094 244.498 190.634C212.057 231.052 233.459 273.545 256.856 313.05C276.847 346.802 299.323 379.008 319.883 412.409C342.43 449.037 364.878 487.142 369.66 530.606" stroke="url(#paint44_linear)" stroke-miterlimit="10" stroke-linecap="round"/>
<path d="M372.342 37.7632C369.14 82.8861 345.02 112.785 309.175 137.825C282.373 156.551 250.922 171.775 230.138 197.834C221.185 209.057 214.262 222.649 212.338 237.036C208.708 264.249 226.108 291.35 239.638 313.528C280.533 380.548 342.661 445.106 352.042 525.866" stroke="url(#paint45_linear)" stroke-miterlimit="10" stroke-linecap="round"/>
<path d="M357.077 43.0866C353.601 89.8689 328.885 120.19 292.161 146.65C266.679 165.01 237.406 180.501 217.675 205.605C208.652 217.081 201.202 231.454 199.573 246.199C197.017 269.355 210.765 291.695 222.604 310.582C263.814 376.357 325.704 435.923 335.401 516.346" stroke="url(#paint46_linear)" stroke-miterlimit="10" stroke-linecap="round"/>
<path d="M342.085 48.9508C338.82 93.926 316.87 124.62 282.19 151.593C256.715 171.409 226.795 187.765 206.847 213.789C197.796 225.589 189.945 240.742 188.724 255.839C186.877 278.721 201.777 300.407 214.177 318.183C255.444 377.334 310.157 429.102 319.243 504.124" stroke="url(#paint47_linear)" stroke-miterlimit="10" stroke-linecap="round"/>
<path d="M327.297 55.2231C324.236 101.323 302.019 133.177 267.016 161.48C243.226 180.719 215.961 197.342 197.402 222.206C173.634 254.046 177.173 284.121 199.972 315.595C241.316 372.672 294.457 417.036 303.086 491.228" stroke="url(#paint48_linear)" stroke-miterlimit="10" stroke-linecap="round"/>
<path d="M312.664 61.7908C310.171 105.774 291.1 137.987 258.583 166.634C235.095 187.329 207.57 204.908 189.117 230.701C180.494 242.76 173.781 257.204 172.335 272.097C170.432 291.737 181.547 308.05 193.435 322.613C209.353 342.098 227.736 359.431 243.542 379.029C268.16 409.54 282.309 440.557 286.41 479.71" stroke="url(#paint49_linear)" stroke-miterlimit="10" stroke-linecap="round"/>
<path d="M298.121 68.5345C296.092 113.496 277.126 146.932 244.7 177.049C223.242 196.977 198.462 214.591 181.8 239.097C161.682 268.687 160.58 298.234 184.152 325.897C199.263 343.624 217.084 358.743 231.738 376.913C254.973 405.722 265.519 435.037 268.735 471.624" stroke="url(#paint50_linear)" stroke-miterlimit="10" stroke-linecap="round"/>
<path d="M283.594 75.327C281.677 118.797 265.513 152.367 235.488 183.229C215.231 204.057 191.497 222.298 175.67 247.036C157.238 275.852 154.373 304.759 176.822 331.733C190.704 348.413 206.678 363.081 219.254 380.878C238.683 408.372 246.218 437.393 249.012 470.575" stroke="url(#paint51_linear)" stroke-miterlimit="10" stroke-linecap="round"/>
<path d="M269.031 82.0493C267.297 124.606 253.092 158.815 225.061 190.535C206.461 211.595 184.532 230.23 169.941 254.545C153.552 281.85 148.96 310.441 167.834 337.345C179.16 353.489 192.607 367.813 202.739 384.844C219.641 413.267 225.356 443.278 227.673 475.891" stroke="url(#paint52_linear)" stroke-miterlimit="10" stroke-linecap="round"/>
<path d="M254.37 88.5818C252.867 130.857 239.947 166.002 213.595 198.861C197.003 219.555 177.475 238.176 164.38 261.479C150.161 286.779 144.199 315.349 158.151 341.88C166.247 357.28 176.654 371.245 184.335 386.912C199.537 417.929 204.165 450.106 206.061 484.266" stroke="url(#paint53_linear)" stroke-miterlimit="10" stroke-linecap="round"/>
<path d="M239.561 94.805C238.29 136.088 227.287 171.704 203.273 205.246C188.401 226.018 170.72 244.912 158.832 267.716C145.983 292.377 139.937 320.729 149.866 347.365C155.532 362.568 163.376 376.828 168.923 392.101C180.726 424.616 184.019 458.045 185.564 492.381" stroke="url(#paint54_linear)" stroke-miterlimit="10" stroke-linecap="round"/>
<path d="M224.527 100.592C223.474 140.877 214.261 176.852 192.69 210.949C179.553 231.721 163.712 250.819 152.997 273.074C141.362 297.243 135.681 324.709 142.071 351.106C145.638 365.823 151.108 380.042 154.871 394.724C163.48 428.28 165.98 462.44 167.482 496.938" stroke="url(#paint55_linear)" stroke-miterlimit="10" stroke-linecap="round"/>
<path d="M209.227 105.831C208.722 144.907 201.419 180.459 182.039 214.521C170.025 235.637 155.062 255.024 145.147 277.322C134.839 300.498 129.004 327.437 132.325 352.773C134.481 369.227 139.143 385.358 142.121 401.671C148.363 435.86 150.287 470.287 151.2 504.989" stroke="url(#paint56_linear)" stroke-miterlimit="10" stroke-linecap="round"/>
<path d="M193.576 110.394C193.31 148.26 187.327 183.672 169.724 217.411C158.573 238.78 144.284 258.427 134.84 280.697C124.511 305.048 119.048 333.315 121.021 359.734C122.257 376.273 125.332 392.657 127.523 409.09C132.565 446.956 134.418 484.857 135.05 523.047" stroke="url(#paint57_linear)" stroke-miterlimit="10" stroke-linecap="round"/>
<path d="M177.531 114.164C177.293 152.543 171.619 188.806 154.205 223.233C144.045 243.316 131.321 262.056 122.755 282.94C112.665 307.537 107.553 335.418 108.016 361.963C108.388 383.192 111.338 404.414 113.332 425.53C117.088 465.408 118.802 505.292 119.356 545.345" stroke="url(#paint58_linear)" stroke-miterlimit="10" stroke-linecap="round"/>
<path d="M161.024 117.011C160.715 153.844 155.989 189.171 140.338 222.741C130.704 243.4 117.995 262.492 109.421 283.664C98.411 310.849 93.9663 340.593 94.4437 369.81C95.504 435.29 103.305 500.531 104.415 566.109" stroke="url(#paint59_linear)" stroke-miterlimit="10" stroke-linecap="round"/>
<path d="M143.988 118.826C143.567 155.855 139.08 191.703 123.562 225.575C114.729 244.849 103.34 262.843 95.398 282.539C84.6618 309.176 80.4768 337.675 80.5119 366.295C80.5892 437.344 88.7695 508.519 90.4758 579.582" stroke="url(#paint60_linear)" stroke-miterlimit="10" stroke-linecap="round"/>
</g>
<g filter="url(#filter1_d)">
<circle cx="261.5" cy="141.5" r="66.5" fill="#16261E" fill-opacity="0.93"/>
<circle cx="261.5" cy="141.5" r="65.5" stroke="#4DF4B8" stroke-width="2"/>
</g>
<path d="M272.271 172.088H272.272C285.456 172.081 296.136 161.368 296.136 148.163C296.136 134.951 285.456 124.237 272.271 124.237C259.086 124.237 248.407 134.951 248.407 148.163C248.407 161.375 259.086 172.088 272.271 172.088ZM243.004 134.981C242.183 136.811 241.526 138.732 241.057 140.725H226.25V134.981H243.004ZM226.25 122.619H252.772C250.61 124.28 248.667 126.211 246.989 128.363H226.25V122.619ZM226.25 110.25H277.193V115.994H226.25V110.25ZM255.029 148.163C255.029 138.618 262.768 130.863 272.279 130.863C281.79 130.863 289.529 138.618 289.529 148.163C289.529 157.708 281.79 165.463 272.279 165.463C262.768 165.463 255.029 157.708 255.029 148.163ZM226.25 153.094V147.35H240.208C240.175 148.672 240.203 150.769 240.563 153.094H226.25ZM297.75 148.163C297.75 162.249 286.318 173.707 272.279 173.707C258.239 173.707 246.807 162.249 246.807 148.163C246.807 134.077 258.239 122.619 272.279 122.619C286.318 122.619 297.75 134.077 297.75 148.163ZM245.226 165.463H226.25V159.719H242.327C243.106 161.739 244.08 163.662 245.226 165.463Z" fill="#295B43" stroke="#4DF4B8" stroke-width="2.5"/>
<g filter="url(#filter2_d)">
<circle cx="90.5" cy="322.5" r="66.5" fill="#1C1213" fill-opacity="0.8"/>
<circle cx="90.5" cy="322.5" r="65.5" stroke="#FC8738" stroke-opacity="0.8" stroke-width="2"/>
</g>
<g filter="url(#filter3_d)">
<path d="M93.8874 289.047C92.4722 287.003 89.5305 287.005 88.1171 289.049C81.7404 298.275 67 321.191 67 335.902C67 349.177 77.7789 360 91 360C104.221 360 115 349.177 115 335.902C115 321.128 100.267 298.257 93.8874 289.047ZM91 355.265C85.0211 355.265 80.2211 350.445 80.2211 344.442C80.2211 338.876 84.9872 330.617 88.1809 325.709C89.5366 323.625 92.4687 323.621 93.8278 325.703C97.0214 330.595 101.779 338.824 101.779 344.442C101.695 350.445 96.8947 355.265 91 355.265Z" fill="#3B2627"/>
<path d="M102.779 344.456H102.779V344.442C102.779 341.402 101.507 337.772 99.9056 334.374C98.2897 330.945 96.2749 327.622 94.6651 325.156C92.9107 322.469 89.0921 322.474 87.3426 325.163C85.7332 327.637 83.7165 330.971 82.0988 334.402C80.4961 337.802 79.2211 341.426 79.2211 344.442C79.2211 350.994 84.4649 356.265 91 356.265C97.4584 356.265 102.687 350.989 102.779 344.456ZM88.9398 289.618C89.9557 288.148 92.048 288.147 93.0653 289.616C96.243 294.204 101.494 302.184 105.947 310.845C110.421 319.549 114 328.774 114 335.902C114 348.629 103.665 359 91 359C78.3351 359 68 348.629 68 335.902C68 328.806 71.5802 319.586 76.0567 310.876C80.5109 302.209 85.7632 294.214 88.9398 289.618Z" stroke="#FC8738" stroke-width="2"/>
</g>
<g filter="url(#filter4_d)">
<circle cx="415" cy="232" r="44" fill="#18150D" fill-opacity="0.84"/>
<circle cx="415" cy="232" r="43" stroke="#FFD75C" stroke-width="2"/>
</g>
<g filter="url(#filter5_d)">
<path d="M413.735 260.108C404.679 259.647 396.478 254.996 391.55 247.528C388.951 243.591 387.455 239.339 386.977 234.559C386.848 233.271 386.848 230.718 386.977 229.43C387.635 222.839 390.346 216.979 394.903 212.322C399.571 207.542 405.652 204.652 412.436 203.977C413.724 203.847 416.278 203.847 417.566 203.977C422.347 204.449 426.594 205.951 430.537 208.549C437.102 212.879 441.579 219.847 442.8 227.625C443.042 229.183 443.12 230.246 443.12 231.995C443.12 233.744 443.042 234.807 442.8 236.364C441.579 244.142 437.102 251.11 430.537 255.44C426.611 258.027 422.285 259.557 417.617 260.001C416.733 260.086 414.517 260.148 413.735 260.108ZM410.023 241.066L415.023 236.061L413.758 234.795C413.06 234.098 412.464 233.53 412.436 233.53C412.408 233.53 412.329 233.479 412.278 233.417C412.222 233.356 412.138 233.305 412.093 233.305C412.048 233.305 410.85 234.464 409.432 235.875L406.861 238.445V228.182V217.918H404.881H402.901V228.182V238.445L400.331 235.875C398.801 234.345 397.721 233.305 397.659 233.305C397.552 233.305 394.818 235.971 394.818 236.078C394.818 236.111 397.051 238.366 399.78 241.1C403.723 245.042 404.769 246.06 404.881 246.06C404.994 246.06 406.046 245.042 410.023 241.066ZM426.988 235.802V225.538L429.558 228.109C430.97 229.52 432.169 230.679 432.219 230.679C432.27 230.679 432.354 230.628 432.405 230.566C432.461 230.504 432.534 230.454 432.562 230.454C432.596 230.454 433.192 229.886 433.884 229.188L435.15 227.923L430.149 222.918C426.172 218.942 425.115 217.913 425.008 217.913C424.901 217.913 423.849 218.93 419.906 222.873C417.178 225.6 414.945 227.861 414.945 227.895C414.945 227.996 417.678 230.667 417.785 230.667C417.847 230.667 418.927 229.627 420.457 228.097L423.028 225.527V235.791V246.054H425.008H426.988V235.802Z" fill="#4B3914"/>
<path d="M392.385 246.977L392.385 246.977C397.134 254.176 405.042 258.664 413.786 259.109C414.513 259.146 416.68 259.086 417.521 259.006L417.522 259.006C422.027 258.577 426.196 257.103 429.987 254.606L392.385 246.977ZM392.385 246.977C389.877 243.178 388.434 239.082 387.972 234.46L387.972 234.459M392.385 246.977L387.972 234.459M387.972 234.459C387.849 233.238 387.849 230.752 387.972 229.53L387.972 229.53M387.972 234.459L387.972 229.53M387.972 229.53C388.608 223.16 391.223 217.513 395.617 213.022L395.618 213.021M387.972 229.53L395.618 213.021M395.618 213.021C400.119 208.413 405.979 205.624 412.535 204.972L412.536 204.972M395.618 213.021L412.536 204.972M412.536 204.972C413.757 204.849 416.244 204.849 417.466 204.972L417.468 204.972M412.536 204.972L417.468 204.972M417.468 204.972C422.089 205.429 426.181 206.876 429.987 209.384M417.468 204.972L429.987 209.384M429.987 209.384C436.316 213.559 440.635 220.279 441.812 227.779M429.987 209.384L441.812 227.779M441.812 227.779C442.045 229.281 442.12 230.292 442.12 231.995C442.12 233.697 442.045 234.708 441.812 236.21C440.635 243.71 436.316 250.43 429.987 254.605L441.812 227.779ZM410.73 241.773L410.73 241.773L415.731 236.767L416.437 236.06L415.73 235.354L414.465 234.088C414.112 233.735 413.783 233.414 413.537 233.178C413.414 233.061 413.308 232.962 413.228 232.889C413.189 232.854 413.148 232.817 413.111 232.786C413.094 232.772 413.064 232.748 413.028 232.722C413.013 232.712 412.982 232.69 412.94 232.666C412.863 232.593 412.781 232.532 412.698 232.482C412.632 232.442 412.401 232.305 412.093 232.305C411.878 232.305 411.72 232.376 411.685 232.391L411.683 232.392C411.626 232.418 411.582 232.444 411.561 232.457C411.516 232.484 411.481 232.511 411.465 232.523C411.429 232.55 411.395 232.58 411.37 232.601C411.316 232.647 411.25 232.707 411.177 232.775C411.029 232.913 410.825 233.107 410.582 233.342C410.095 233.812 409.438 234.458 408.727 235.167L408.725 235.168L407.861 236.031V228.182V217.918V216.918H406.861H404.881H402.901H401.901V217.918V228.182V236.031L401.038 235.168L400.331 235.875L401.038 235.168C400.271 234.401 399.613 233.753 399.138 233.296C398.901 233.068 398.704 232.882 398.559 232.751C398.488 232.687 398.42 232.626 398.362 232.579C398.335 232.556 398.294 232.524 398.247 232.492C398.225 232.477 398.182 232.448 398.126 232.419C398.126 232.419 398.125 232.419 398.125 232.419C398.105 232.408 397.916 232.305 397.659 232.305C397.447 232.305 397.29 232.374 397.253 232.39L397.251 232.391C397.192 232.417 397.146 232.443 397.122 232.458C397.072 232.489 397.03 232.519 397.007 232.537C396.955 232.576 396.902 232.621 396.854 232.662C396.755 232.747 396.629 232.861 396.49 232.99C396.21 233.249 395.852 233.592 395.5 233.935C395.148 234.279 394.797 234.628 394.531 234.902C394.399 235.037 394.281 235.161 394.193 235.258C394.151 235.305 394.104 235.358 394.064 235.409C394.046 235.433 394.013 235.474 393.981 235.525C393.966 235.55 393.937 235.597 393.909 235.658L393.909 235.66C393.892 235.697 393.818 235.859 393.818 236.078C393.818 236.33 393.918 236.515 393.927 236.531L393.927 236.532C393.954 236.585 393.98 236.624 393.991 236.64C394.016 236.677 394.038 236.705 394.046 236.715C394.067 236.74 394.087 236.763 394.098 236.776C394.125 236.806 394.158 236.841 394.193 236.878C394.264 236.954 394.366 237.059 394.493 237.19C394.748 237.451 395.115 237.824 395.565 238.279C396.466 239.191 397.707 240.439 399.072 241.806L399.072 241.807C401.043 243.777 402.295 245.022 403.07 245.775C403.455 246.15 403.732 246.413 403.925 246.584C404.018 246.668 404.108 246.746 404.189 246.807C404.228 246.836 404.286 246.878 404.355 246.917C404.355 246.917 404.356 246.918 404.358 246.919C404.389 246.937 404.598 247.06 404.881 247.06C405.164 247.06 405.373 246.937 405.404 246.919C405.406 246.918 405.407 246.918 405.407 246.917C405.476 246.878 405.534 246.837 405.573 246.807C405.654 246.746 405.744 246.669 405.839 246.585C406.032 246.412 406.311 246.148 406.699 245.771C407.48 245.014 408.742 243.76 410.73 241.773ZM421.164 228.805L422.028 227.941V235.791V246.054V247.054H423.028H425.008H426.988H427.988V246.054V235.802V227.952L428.851 228.816C429.56 229.524 430.217 230.171 430.704 230.642C430.947 230.877 431.152 231.072 431.302 231.21C431.376 231.278 431.444 231.34 431.499 231.387C431.525 231.409 431.561 231.439 431.601 231.468C431.618 231.482 431.655 231.509 431.704 231.537C431.727 231.551 431.772 231.576 431.831 231.601L431.831 231.601C431.869 231.617 432.018 231.679 432.219 231.679C432.516 231.679 432.74 231.556 432.829 231.502C432.91 231.453 432.993 231.391 433.071 231.316C433.101 231.299 433.123 231.284 433.136 231.275C433.177 231.247 433.211 231.22 433.229 231.205C433.27 231.172 433.314 231.134 433.354 231.098C433.437 231.024 433.545 230.923 433.667 230.805C433.915 230.569 434.242 230.247 434.593 229.894C434.593 229.894 434.594 229.893 434.594 229.893L435.857 228.63L436.564 227.923L435.857 227.216L430.857 222.211L430.856 222.211C428.869 220.223 427.605 218.967 426.825 218.208C426.436 217.829 426.158 217.565 425.966 217.392C425.872 217.308 425.783 217.231 425.704 217.17C425.667 217.142 425.61 217.1 425.543 217.061C425.51 217.042 425.456 217.012 425.387 216.985C425.331 216.963 425.192 216.913 425.008 216.913C424.826 216.913 424.688 216.962 424.632 216.984C424.563 217.011 424.509 217.04 424.475 217.06C424.408 217.098 424.352 217.14 424.314 217.168C424.235 217.228 424.146 217.305 424.053 217.388C423.862 217.56 423.585 217.822 423.199 218.197C422.424 218.95 421.17 220.195 419.199 222.166C417.834 223.53 416.592 224.779 415.691 225.691C415.241 226.147 414.874 226.52 414.619 226.783C414.492 226.913 414.39 227.019 414.319 227.095C414.284 227.132 414.251 227.167 414.224 227.197C414.212 227.21 414.193 227.233 414.172 227.258C414.164 227.269 414.142 227.296 414.117 227.333C414.106 227.349 414.08 227.388 414.054 227.441C414.054 227.441 414.053 227.441 414.053 227.442C414.045 227.457 413.945 227.643 413.945 227.895C413.945 228.12 414.023 228.286 414.039 228.322L414.04 228.324C414.068 228.384 414.097 228.43 414.112 228.454C414.144 228.503 414.176 228.544 414.194 228.566C414.233 228.616 414.279 228.668 414.321 228.715C414.408 228.811 414.526 228.934 414.657 229.069C414.923 229.341 415.274 229.691 415.626 230.035C415.978 230.378 416.336 230.721 416.616 230.981C416.754 231.11 416.881 231.225 416.98 231.31C417.027 231.351 417.081 231.396 417.132 231.435C417.156 231.453 417.198 231.483 417.248 231.514C417.272 231.529 417.318 231.555 417.377 231.581L417.379 231.582C417.416 231.598 417.573 231.667 417.785 231.667C418.042 231.667 418.231 231.565 418.251 231.554C418.252 231.553 418.252 231.553 418.253 231.553C418.309 231.524 418.352 231.496 418.373 231.481C418.42 231.449 418.461 231.416 418.488 231.394C418.547 231.346 418.615 231.286 418.686 231.222C418.83 231.09 419.027 230.904 419.264 230.677C419.74 230.219 420.397 229.572 421.164 228.805Z" stroke="#FFD75C" stroke-width="2"/>
</g>
<g filter="url(#filter6_d)">
<circle cx="236" cy="486" r="44" fill="#0B1320" fill-opacity="0.89"/>
<circle cx="236" cy="486" r="43" stroke="#00D1FF" stroke-width="2"/>
</g>
<g filter="url(#filter7_d)">
<mask id="path-75-inside-1" fill="white">
<path d="M257.967 485.825H226.835V463.835H257.967L251.591 474.833L257.967 485.825Z"/>
</mask>
<path d="M257.967 485.825H226.835V463.835H257.967L251.591 474.833L257.967 485.825Z" fill="#0C2344" fill-opacity="0.9"/>
<path d="M257.967 485.825V488.325H262.307L260.129 484.571L257.967 485.825ZM226.835 485.825H224.335V488.325H226.835V485.825ZM226.835 463.835V461.335H224.335V463.835H226.835ZM257.967 463.835L260.13 465.088L262.306 461.335H257.967V463.835ZM251.591 474.833L249.428 473.579L248.701 474.833L249.428 476.087L251.591 474.833ZM257.967 483.325H226.835V488.325H257.967V483.325ZM229.335 485.825V463.835H224.335V485.825H229.335ZM226.835 466.335H257.967V461.335H226.835V466.335ZM255.804 462.581L249.428 473.579L253.753 476.087L260.13 465.088L255.804 462.581ZM249.428 476.087L255.804 487.08L260.129 484.571L253.753 473.579L249.428 476.087Z" fill="#00D1FF" fill-opacity="0.9" mask="url(#path-75-inside-1)"/>
</g>
<g filter="url(#filter8_d)">
<path d="M226.86 503.418H213.659V507.816H226.86V503.418Z" fill="#00D1FF"/>
<path d="M214.031 507.444V503.79H226.487V507.444H214.031Z" stroke="#00D1FF" stroke-width="0.744443"/>
</g>
<g filter="url(#filter9_d)">
<path d="M222.456 463.835H218.058V505.626H222.456V463.835Z" fill="#00D1FF"/>
<path d="M218.43 505.254V464.207H222.084V505.254H218.43Z" stroke="#00D1FF" stroke-width="0.744443"/>
</g>
<g filter="url(#filter10_d)">
<circle cx="430" cy="437" r="62" fill="#1C091D" fill-opacity="0.8"/>
<circle cx="430" cy="437" r="61" stroke="#ED1EFF" stroke-width="2"/>
</g>
<g filter="url(#filter11_d)">
<path d="M401.831 417.497C401.429 417.899 401.429 418.544 401.831 418.946L405.123 422.238L412.682 429.797C413.085 430.2 413.729 430.2 414.132 429.797L416.699 427.23C417.102 426.827 417.102 426.183 416.699 425.781L409.865 418.946C409.462 418.544 409.462 417.899 409.865 417.497L416.699 410.662C417.102 410.26 417.102 409.616 416.699 409.213L414.132 406.646C413.729 406.243 413.085 406.243 412.682 406.646L405.123 414.205L401.831 417.497Z" fill="#ED1EFF"/>
</g>
<g filter="url(#filter12_d)">
<path d="M440.872 436.713C451.084 436.713 459.363 428.434 459.363 418.222C459.363 408.009 451.084 399.731 440.872 399.731C430.66 399.731 422.381 408.009 422.381 418.222C422.381 428.434 430.66 436.713 440.872 436.713Z" fill="#360937"/>
<path d="M458.363 418.222C458.363 427.882 450.532 435.713 440.872 435.713C431.212 435.713 423.381 427.882 423.381 418.222C423.381 408.562 431.212 400.731 440.872 400.731C450.532 400.731 458.363 408.562 458.363 418.222Z" stroke="#ED1EFF" stroke-width="2"/>
</g>
<g filter="url(#filter13_d)">
<path d="M455.774 452.531L448.215 444.972C447.812 444.569 447.168 444.569 446.766 444.972L444.198 447.539C443.796 447.942 443.796 448.586 444.198 448.988L451.033 455.823C451.436 456.225 451.436 456.87 451.033 457.272L444.198 464.107C443.796 464.509 443.796 465.153 444.198 465.556L446.766 468.123C447.168 468.526 447.812 468.526 448.215 468.123L455.774 460.564L459.066 457.272C459.469 456.87 459.469 456.225 459.066 455.823L455.774 452.531Z" fill="#ED1EFF"/>
</g>
<g filter="url(#filter14_d)">
<path d="M420.027 475.039C430.239 475.039 438.518 466.76 438.518 456.548C438.518 446.336 430.239 438.057 420.027 438.057C409.815 438.057 401.536 446.336 401.536 456.548C401.536 466.76 409.815 475.039 420.027 475.039Z" fill="#360937"/>
<path d="M437.518 456.548C437.518 466.208 429.687 474.039 420.027 474.039C410.367 474.039 402.536 466.208 402.536 456.548C402.536 446.888 410.367 439.057 420.027 439.057C429.687 439.057 437.518 446.888 437.518 456.548Z" stroke="#ED1EFF" stroke-width="2"/>
</g>
<g filter="url(#filter15_d)">
<path d="M277.295 403.59C321.641 403.59 357.59 367.641 357.59 323.295C357.59 278.949 321.641 243 277.295 243C232.949 243 197 278.949 197 323.295C197 367.641 232.949 403.59 277.295 403.59Z" fill="#06061B"/>
<path d="M356.59 323.295C356.59 367.089 321.089 402.59 277.295 402.59C233.502 402.59 198 367.089 198 323.295C198 279.502 233.502 244 277.295 244C321.089 244 356.59 279.502 356.59 323.295Z" stroke="#00D1FF" stroke-width="2"/>
</g>
<g filter="url(#filter16_d)">
<path d="M256.155 307.274C255.56 306.594 254.827 306.253 253.955 306.253H236.124C235.966 306.253 235.836 306.203 235.739 306.103C235.639 306.005 235.59 305.893 235.59 305.774V293.774C235.59 293.654 235.639 293.544 235.739 293.444C235.836 293.344 235.966 293.294 236.124 293.294H254.966C259.721 293.294 263.823 295.235 267.27 299.114L271.847 304.693L262.932 315.553L256.155 307.274ZM289.085 299.054C292.532 295.214 296.653 293.294 301.448 293.294H320.231C320.389 293.294 320.508 293.335 320.588 293.414C320.666 293.494 320.706 293.614 320.706 293.774V305.774C320.706 305.893 320.666 306.005 320.588 306.103C320.508 306.203 320.389 306.253 320.231 306.253H302.4C301.528 306.253 300.795 306.594 300.2 307.274L287.064 323.234L300.259 339.313C300.854 339.954 301.566 340.274 302.4 340.274H320.231C320.389 340.274 320.508 340.324 320.588 340.424C320.666 340.524 320.706 340.655 320.706 340.813V352.813C320.706 352.932 320.666 353.044 320.588 353.142C320.508 353.243 320.389 353.293 320.231 353.293H301.448C296.653 353.293 292.552 351.353 289.144 347.473L278.208 334.153L267.27 347.473C263.823 351.353 259.702 353.293 254.907 353.293H236.124C235.966 353.293 235.846 353.243 235.767 353.142C235.687 353.042 235.649 352.913 235.649 352.752V340.752C235.649 340.632 235.687 340.522 235.767 340.422C235.846 340.322 235.966 340.272 236.124 340.272H253.955C254.787 340.272 255.52 339.933 256.155 339.251L269.052 323.532L289.085 299.054Z" fill="#06061B"/>
<path d="M256.929 306.641L256.918 306.628L256.907 306.615C256.131 305.728 255.128 305.253 253.955 305.253H236.59V294.294H254.966C259.401 294.294 263.235 296.086 266.51 299.764L270.554 304.693L262.933 313.976L256.929 306.641ZM277.435 333.519L266.51 346.823C263.237 350.5 259.385 352.293 254.907 352.293H236.649V341.272H253.955C255.098 341.272 256.087 340.792 256.887 339.933L256.908 339.91L256.928 339.886L269.826 324.167L269.826 324.166L289.844 299.706C293.115 296.07 296.968 294.294 301.448 294.294H319.706V305.253H302.4C301.227 305.253 300.224 305.728 299.448 306.615L299.438 306.627L299.428 306.639L286.292 322.598L285.77 323.233L286.291 323.868L299.486 339.947L299.506 339.971L299.526 339.993C300.3 340.826 301.273 341.274 302.4 341.274H319.706V352.293H301.448C296.97 352.293 293.138 350.5 289.906 346.825L278.981 333.519L278.208 332.577L277.435 333.519Z" stroke="#00D1FF" stroke-width="2"/>
</g>
<defs>
<filter id="filter0_d" x="44.1917" y="0.191696" width="613.616" height="604.134" filterUnits="userSpaceOnUse" color-interpolation-filters="sRGB">
<feFlood flood-opacity="0" result="BackgroundImageFix"/>
<feColorMatrix in="SourceAlpha" type="matrix" values="0 0 0 0 0 0 0 0 0 0 0 0 0 0 0 0 0 0 127 0"/>
<feOffset/>
<feGaussianBlur stdDeviation="11.1542"/>
<feColorMatrix type="matrix" values="0 0 0 0 0 0 0 0 0 0.82 0 0 0 0 1 0 0 0 0.63 0"/>
<feBlend mode="normal" in2="BackgroundImageFix" result="effect1_dropShadow"/>
<feBlend mode="normal" in="SourceGraphic" in2="effect1_dropShadow" result="shape"/>
</filter>
<filter id="filter1_d" x="171" y="75" width="181" height="181" filterUnits="userSpaceOnUse" color-interpolation-filters="sRGB">
<feFlood flood-opacity="0" result="BackgroundImageFix"/>
<feColorMatrix in="SourceAlpha" type="matrix" values="0 0 0 0 0 0 0 0 0 0 0 0 0 0 0 0 0 0 127 0"/>
<feOffset dy="24"/>
<feGaussianBlur stdDeviation="12"/>
<feColorMatrix type="matrix" values="0 0 0 0 0 0 0 0 0 0 0 0 0 0 0 0 0 0 0.53 0"/>
<feBlend mode="normal" in2="BackgroundImageFix" result="effect1_dropShadow"/>
<feBlend mode="normal" in="SourceGraphic" in2="effect1_dropShadow" result="shape"/>
</filter>
<filter id="filter2_d" x="0" y="256" width="181" height="181" filterUnits="userSpaceOnUse" color-interpolation-filters="sRGB">
<feFlood flood-opacity="0" result="BackgroundImageFix"/>
<feColorMatrix in="SourceAlpha" type="matrix" values="0 0 0 0 0 0 0 0 0 0 0 0 0 0 0 0 0 0 127 0"/>
<feOffset dy="24"/>
<feGaussianBlur stdDeviation="12"/>
<feColorMatrix type="matrix" values="0 0 0 0 0 0 0 0 0 0 0 0 0 0 0 0 0 0 0.53 0"/>
<feBlend mode="normal" in2="BackgroundImageFix" result="effect1_dropShadow"/>
<feBlend mode="normal" in="SourceGraphic" in2="effect1_dropShadow" result="shape"/>
</filter>
<filter id="filter3_d" x="61.4167" y="281.932" width="59.1666" height="83.6515" filterUnits="userSpaceOnUse" color-interpolation-filters="sRGB">
<feFlood flood-opacity="0" result="BackgroundImageFix"/>
<feColorMatrix in="SourceAlpha" type="matrix" values="0 0 0 0 0 0 0 0 0 0 0 0 0 0 0 0 0 0 127 0"/>
<feOffset/>
<feGaussianBlur stdDeviation="2.79166"/>
<feColorMatrix type="matrix" values="0 0 0 0 0.988235 0 0 0 0 0.529412 0 0 0 0 0.219608 0 0 0 0.6 0"/>
<feBlend mode="normal" in2="BackgroundImageFix" result="effect1_dropShadow"/>
<feBlend mode="normal" in="SourceGraphic" in2="effect1_dropShadow" result="shape"/>
</filter>
<filter id="filter4_d" x="347" y="188" width="136" height="136" filterUnits="userSpaceOnUse" color-interpolation-filters="sRGB">
<feFlood flood-opacity="0" result="BackgroundImageFix"/>
<feColorMatrix in="SourceAlpha" type="matrix" values="0 0 0 0 0 0 0 0 0 0 0 0 0 0 0 0 0 0 127 0"/>
<feOffset dy="24"/>
<feGaussianBlur stdDeviation="12"/>
<feColorMatrix type="matrix" values="0 0 0 0 0 0 0 0 0 0 0 0 0 0 0 0 0 0 0.53 0"/>
<feBlend mode="normal" in2="BackgroundImageFix" result="effect1_dropShadow"/>
<feBlend mode="normal" in="SourceGraphic" in2="effect1_dropShadow" result="shape"/>
</filter>
<filter id="filter5_d" x="381.297" y="198.296" width="67.4072" height="67.4072" filterUnits="userSpaceOnUse" color-interpolation-filters="sRGB">
<feFlood flood-opacity="0" result="BackgroundImageFix"/>
<feColorMatrix in="SourceAlpha" type="matrix" values="0 0 0 0 0 0 0 0 0 0 0 0 0 0 0 0 0 0 127 0"/>
<feOffset/>
<feGaussianBlur stdDeviation="2.79166"/>
<feColorMatrix type="matrix" values="0 0 0 0 1 0 0 0 0 0.843137 0 0 0 0 0.360784 0 0 0 0.6 0"/>
<feBlend mode="normal" in2="BackgroundImageFix" result="effect1_dropShadow"/>
<feBlend mode="normal" in="SourceGraphic" in2="effect1_dropShadow" result="shape"/>
</filter>
<filter id="filter6_d" x="168" y="442" width="136" height="136" filterUnits="userSpaceOnUse" color-interpolation-filters="sRGB">
<feFlood flood-opacity="0" result="BackgroundImageFix"/>
<feColorMatrix in="SourceAlpha" type="matrix" values="0 0 0 0 0 0 0 0 0 0 0 0 0 0 0 0 0 0 127 0"/>
<feOffset dy="24"/>
<feGaussianBlur stdDeviation="12"/>
<feColorMatrix type="matrix" values="0 0 0 0 0 0 0 0 0 0 0 0 0 0 0 0 0 0 0.53 0"/>
<feBlend mode="normal" in2="BackgroundImageFix" result="effect1_dropShadow"/>
<feBlend mode="normal" in="SourceGraphic" in2="effect1_dropShadow" result="shape"/>
</filter>
<filter id="filter7_d" x="221.252" y="458.251" width="42.2986" height="33.1575" filterUnits="userSpaceOnUse" color-interpolation-filters="sRGB">
<feFlood flood-opacity="0" result="BackgroundImageFix"/>
<feColorMatrix in="SourceAlpha" type="matrix" values="0 0 0 0 0 0 0 0 0 0 0 0 0 0 0 0 0 0 127 0"/>
<feOffset/>
<feGaussianBlur stdDeviation="2.79166"/>
<feColorMatrix type="matrix" values="0 0 0 0 0 0 0 0 0 0.819608 0 0 0 0 1 0 0 0 0.6 0"/>
<feBlend mode="normal" in2="BackgroundImageFix" result="effect1_dropShadow"/>
<feBlend mode="normal" in="SourceGraphic" in2="effect1_dropShadow" result="shape"/>
</filter>
<filter id="filter8_d" x="208.076" y="497.835" width="24.3672" height="15.5648" filterUnits="userSpaceOnUse" color-interpolation-filters="sRGB">
<feFlood flood-opacity="0" result="BackgroundImageFix"/>
<feColorMatrix in="SourceAlpha" type="matrix" values="0 0 0 0 0 0 0 0 0 0 0 0 0 0 0 0 0 0 127 0"/>
<feOffset/>
<feGaussianBlur stdDeviation="2.79166"/>
<feColorMatrix type="matrix" values="0 0 0 0 0 0 0 0 0 0.819608 0 0 0 0 1 0 0 0 0.6 0"/>
<feBlend mode="normal" in2="BackgroundImageFix" result="effect1_dropShadow"/>
<feBlend mode="normal" in="SourceGraphic" in2="effect1_dropShadow" result="shape"/>
</filter>
<filter id="filter9_d" x="212.474" y="458.251" width="15.5648" height="52.9583" filterUnits="userSpaceOnUse" color-interpolation-filters="sRGB">
<feFlood flood-opacity="0" result="BackgroundImageFix"/>
<feColorMatrix in="SourceAlpha" type="matrix" values="0 0 0 0 0 0 0 0 0 0 0 0 0 0 0 0 0 0 127 0"/>
<feOffset/>
<feGaussianBlur stdDeviation="2.79166"/>
<feColorMatrix type="matrix" values="0 0 0 0 0 0 0 0 0 0.819608 0 0 0 0 1 0 0 0 0.6 0"/>
<feBlend mode="normal" in2="BackgroundImageFix" result="effect1_dropShadow"/>
<feBlend mode="normal" in="SourceGraphic" in2="effect1_dropShadow" result="shape"/>
</filter>
<filter id="filter10_d" x="344" y="375" width="172" height="172" filterUnits="userSpaceOnUse" color-interpolation-filters="sRGB">
<feFlood flood-opacity="0" result="BackgroundImageFix"/>
<feColorMatrix in="SourceAlpha" type="matrix" values="0 0 0 0 0 0 0 0 0 0 0 0 0 0 0 0 0 0 127 0"/>
<feOffset dy="24"/>
<feGaussianBlur stdDeviation="12"/>
<feColorMatrix type="matrix" values="0 0 0 0 0 0 0 0 0 0 0 0 0 0 0 0 0 0 0.53 0"/>
<feBlend mode="normal" in2="BackgroundImageFix" result="effect1_dropShadow"/>
<feBlend mode="normal" in="SourceGraphic" in2="effect1_dropShadow" result="shape"/>
</filter>
<filter id="filter11_d" x="395.946" y="400.76" width="26.6384" height="34.9221" filterUnits="userSpaceOnUse" color-interpolation-filters="sRGB">
<feFlood flood-opacity="0" result="BackgroundImageFix"/>
<feColorMatrix in="SourceAlpha" type="matrix" values="0 0 0 0 0 0 0 0 0 0 0 0 0 0 0 0 0 0 127 0"/>
<feOffset/>
<feGaussianBlur stdDeviation="2.79166"/>
<feColorMatrix type="matrix" values="0 0 0 0 0.929412 0 0 0 0 0.117647 0 0 0 0 1 0 0 0 0.6 0"/>
<feBlend mode="normal" in2="BackgroundImageFix" result="effect1_dropShadow"/>
<feBlend mode="normal" in="SourceGraphic" in2="effect1_dropShadow" result="shape"/>
</filter>
<filter id="filter12_d" x="416.798" y="394.148" width="48.1484" height="48.1484" filterUnits="userSpaceOnUse" color-interpolation-filters="sRGB">
<feFlood flood-opacity="0" result="BackgroundImageFix"/>
<feColorMatrix in="SourceAlpha" type="matrix" values="0 0 0 0 0 0 0 0 0 0 0 0 0 0 0 0 0 0 127 0"/>
<feOffset/>
<feGaussianBlur stdDeviation="2.79166"/>
<feColorMatrix type="matrix" values="0 0 0 0 0.929412 0 0 0 0 0.117647 0 0 0 0 1 0 0 0 0.6 0"/>
<feBlend mode="normal" in2="BackgroundImageFix" result="effect1_dropShadow"/>
<feBlend mode="normal" in="SourceGraphic" in2="effect1_dropShadow" result="shape"/>
</filter>
<filter id="filter13_d" x="438.313" y="439.086" width="26.6383" height="34.9221" filterUnits="userSpaceOnUse" color-interpolation-filters="sRGB">
<feFlood flood-opacity="0" result="BackgroundImageFix"/>
<feColorMatrix in="SourceAlpha" type="matrix" values="0 0 0 0 0 0 0 0 0 0 0 0 0 0 0 0 0 0 127 0"/>
<feOffset/>
<feGaussianBlur stdDeviation="2.79166"/>
<feColorMatrix type="matrix" values="0 0 0 0 0.929412 0 0 0 0 0.117647 0 0 0 0 1 0 0 0 0.6 0"/>
<feBlend mode="normal" in2="BackgroundImageFix" result="effect1_dropShadow"/>
<feBlend mode="normal" in="SourceGraphic" in2="effect1_dropShadow" result="shape"/>
</filter>
<filter id="filter14_d" x="395.953" y="432.474" width="48.1484" height="48.1484" filterUnits="userSpaceOnUse" color-interpolation-filters="sRGB">
<feFlood flood-opacity="0" result="BackgroundImageFix"/>
<feColorMatrix in="SourceAlpha" type="matrix" values="0 0 0 0 0 0 0 0 0 0 0 0 0 0 0 0 0 0 127 0"/>
<feOffset/>
<feGaussianBlur stdDeviation="2.79166"/>
<feColorMatrix type="matrix" values="0 0 0 0 0.929412 0 0 0 0 0.117647 0 0 0 0 1 0 0 0 0.6 0"/>
<feBlend mode="normal" in2="BackgroundImageFix" result="effect1_dropShadow"/>
<feBlend mode="normal" in="SourceGraphic" in2="effect1_dropShadow" result="shape"/>
</filter>
<filter id="filter15_d" x="180.878" y="226.878" width="192.835" height="192.835" filterUnits="userSpaceOnUse" color-interpolation-filters="sRGB">
<feFlood flood-opacity="0" result="BackgroundImageFix"/>
<feColorMatrix in="SourceAlpha" type="matrix" values="0 0 0 0 0 0 0 0 0 0 0 0 0 0 0 0 0 0 127 0"/>
<feOffset/>
<feGaussianBlur stdDeviation="8.06119"/>
<feColorMatrix type="matrix" values="0 0 0 0 0 0 0 0 0 0.819608 0 0 0 0 1 0 0 0 0.6 0"/>
<feBlend mode="normal" in2="BackgroundImageFix" result="effect1_dropShadow"/>
<feBlend mode="normal" in="SourceGraphic" in2="effect1_dropShadow" result="shape"/>
</filter>
<filter id="filter16_d" x="219.467" y="277.172" width="117.361" height="92.2431" filterUnits="userSpaceOnUse" color-interpolation-filters="sRGB">
<feFlood flood-opacity="0" result="BackgroundImageFix"/>
<feColorMatrix in="SourceAlpha" type="matrix" values="0 0 0 0 0 0 0 0 0 0 0 0 0 0 0 0 0 0 127 0"/>
<feOffset/>
<feGaussianBlur stdDeviation="8.06119"/>
<feColorMatrix type="matrix" values="0 0 0 0 0 0 0 0 0 0.819608 0 0 0 0 1 0 0 0 0.6 0"/>
<feBlend mode="normal" in2="BackgroundImageFix" result="effect1_dropShadow"/>
<feBlend mode="normal" in="SourceGraphic" in2="effect1_dropShadow" result="shape"/>
</filter>
<linearGradient id="paint0_linear" x1="351" y1="23" x2="351" y2="581.516" gradientUnits="userSpaceOnUse">
<stop stop-color="#ED1EFF"/>
<stop offset="1" stop-color="#00D1FF"/>
</linearGradient>
<linearGradient id="paint1_linear" x1="332.641" y1="445.176" x2="332.641" y2="562.516" gradientUnits="userSpaceOnUse">
<stop stop-color="#ED1EFF"/>
<stop offset="1" stop-color="#00D1FF"/>
</linearGradient>
<linearGradient id="paint2_linear" x1="333.217" y1="422.487" x2="333.217" y2="541.997" gradientUnits="userSpaceOnUse">
<stop stop-color="#ED1EFF"/>
<stop offset="1" stop-color="#00D1FF"/>
</linearGradient>
<linearGradient id="paint3_linear" x1="334.407" y1="402.885" x2="334.407" y2="520.276" gradientUnits="userSpaceOnUse">
<stop stop-color="#ED1EFF"/>
<stop offset="1" stop-color="#00D1FF"/>
</linearGradient>
<linearGradient id="paint4_linear" x1="336.057" y1="385.635" x2="336.057" y2="497.697" gradientUnits="userSpaceOnUse">
<stop stop-color="#ED1EFF"/>
<stop offset="1" stop-color="#00D1FF"/>
</linearGradient>
<linearGradient id="paint5_linear" x1="338.09" y1="370.283" x2="338.09" y2="474.633" gradientUnits="userSpaceOnUse">
<stop stop-color="#ED1EFF"/>
<stop offset="1" stop-color="#00D1FF"/>
</linearGradient>
<linearGradient id="paint6_linear" x1="340.365" y1="356.113" x2="340.365" y2="451.456" gradientUnits="userSpaceOnUse">
<stop stop-color="#ED1EFF"/>
<stop offset="1" stop-color="#00D1FF"/>
</linearGradient>
<linearGradient id="paint7_linear" x1="342.763" y1="341.971" x2="342.763" y2="428.518" gradientUnits="userSpaceOnUse">
<stop stop-color="#ED1EFF"/>
<stop offset="1" stop-color="#00D1FF"/>
</linearGradient>
<linearGradient id="paint8_linear" x1="345.186" y1="314.802" x2="345.186" y2="406.172" gradientUnits="userSpaceOnUse">
<stop stop-color="#ED1EFF"/>
<stop offset="1" stop-color="#00D1FF"/>
</linearGradient>
<linearGradient id="paint9_linear" x1="347.509" y1="288.904" x2="347.509" y2="384.816" gradientUnits="userSpaceOnUse">
<stop stop-color="#ED1EFF"/>
<stop offset="1" stop-color="#00D1FF"/>
</linearGradient>
<linearGradient id="paint10_linear" x1="349.605" y1="263.488" x2="349.605" y2="364.775" gradientUnits="userSpaceOnUse">
<stop stop-color="#ED1EFF"/>
<stop offset="1" stop-color="#00D1FF"/>
</linearGradient>
<linearGradient id="paint11_linear" x1="351.375" y1="244.845" x2="351.375" y2="346.444" gradientUnits="userSpaceOnUse">
<stop stop-color="#ED1EFF"/>
<stop offset="1" stop-color="#00D1FF"/>
</linearGradient>
<linearGradient id="paint12_linear" x1="352.681" y1="228.03" x2="352.681" y2="330.166" gradientUnits="userSpaceOnUse">
<stop stop-color="#ED1EFF"/>
<stop offset="1" stop-color="#00D1FF"/>
</linearGradient>
<linearGradient id="paint13_linear" x1="353.633" y1="213.783" x2="353.633" y2="316.235" gradientUnits="userSpaceOnUse">
<stop stop-color="#ED1EFF"/>
<stop offset="1" stop-color="#00D1FF"/>
</linearGradient>
<linearGradient id="paint14_linear" x1="354.362" y1="201.261" x2="354.362" y2="304.464" gradientUnits="userSpaceOnUse">
<stop stop-color="#ED1EFF"/>
<stop offset="1" stop-color="#00D1FF"/>
</linearGradient>
<linearGradient id="paint15_linear" x1="354.869" y1="189.997" x2="354.869" y2="294.605" gradientUnits="userSpaceOnUse">
<stop stop-color="#ED1EFF"/>
<stop offset="1" stop-color="#00D1FF"/>
</linearGradient>
<linearGradient id="paint16_linear" x1="355.201" y1="179.302" x2="355.201" y2="286.371" gradientUnits="userSpaceOnUse">
<stop stop-color="#ED1EFF"/>
<stop offset="1" stop-color="#00D1FF"/>
</linearGradient>
<linearGradient id="paint17_linear" x1="355.356" y1="170.517" x2="355.356" y2="279.473" gradientUnits="userSpaceOnUse">
<stop stop-color="#ED1EFF"/>
<stop offset="1" stop-color="#00D1FF"/>
</linearGradient>
<linearGradient id="paint18_linear" x1="355.363" y1="161.449" x2="355.363" y2="273.672" gradientUnits="userSpaceOnUse">
<stop stop-color="#ED1EFF"/>
<stop offset="1" stop-color="#00D1FF"/>
</linearGradient>
<linearGradient id="paint19_linear" x1="355.237" y1="153.833" x2="355.237" y2="268.672" gradientUnits="userSpaceOnUse">
<stop stop-color="#ED1EFF"/>
<stop offset="1" stop-color="#00D1FF"/>
</linearGradient>
<linearGradient id="paint20_linear" x1="355.005" y1="145.397" x2="355.005" y2="264.214" gradientUnits="userSpaceOnUse">
<stop stop-color="#ED1EFF"/>
<stop offset="1" stop-color="#00D1FF"/>
</linearGradient>
<linearGradient id="paint21_linear" x1="354.689" y1="138.454" x2="354.689" y2="260.002" gradientUnits="userSpaceOnUse">
<stop stop-color="#ED1EFF"/>
<stop offset="1" stop-color="#00D1FF"/>
</linearGradient>
<linearGradient id="paint22_linear" x1="354.303" y1="130.11" x2="354.303" y2="255.79" gradientUnits="userSpaceOnUse">
<stop stop-color="#ED1EFF"/>
<stop offset="1" stop-color="#00D1FF"/>
</linearGradient>
<linearGradient id="paint23_linear" x1="353.871" y1="121.698" x2="353.871" y2="251.311" gradientUnits="userSpaceOnUse">
<stop stop-color="#ED1EFF"/>
<stop offset="1" stop-color="#00D1FF"/>
</linearGradient>
<linearGradient id="paint24_linear" x1="353.415" y1="113.716" x2="353.415" y2="246.262" gradientUnits="userSpaceOnUse">
<stop stop-color="#ED1EFF"/>
<stop offset="1" stop-color="#00D1FF"/>
</linearGradient>
<linearGradient id="paint25_linear" x1="352.941" y1="104.294" x2="352.941" y2="240.398" gradientUnits="userSpaceOnUse">
<stop stop-color="#ED1EFF"/>
<stop offset="1" stop-color="#00D1FF"/>
</linearGradient>
<linearGradient id="paint26_linear" x1="352.499" y1="94.3546" x2="352.499" y2="233.415" gradientUnits="userSpaceOnUse">
<stop stop-color="#ED1EFF"/>
<stop offset="1" stop-color="#00D1FF"/>
</linearGradient>
<linearGradient id="paint27_linear" x1="352.073" y1="83.5433" x2="352.073" y2="225.083" gradientUnits="userSpaceOnUse">
<stop stop-color="#ED1EFF"/>
<stop offset="1" stop-color="#00D1FF"/>
</linearGradient>
<linearGradient id="paint28_linear" x1="351.712" y1="71.2188" x2="351.712" y2="215.09" gradientUnits="userSpaceOnUse">
<stop stop-color="#ED1EFF"/>
<stop offset="1" stop-color="#00D1FF"/>
</linearGradient>
<linearGradient id="paint29_linear" x1="351.421" y1="56.0191" x2="351.421" y2="203.193" gradientUnits="userSpaceOnUse">
<stop stop-color="#ED1EFF"/>
<stop offset="1" stop-color="#00D1FF"/>
</linearGradient>
<linearGradient id="paint30_linear" x1="351.228" y1="40.2765" x2="351.228" y2="189.101" gradientUnits="userSpaceOnUse">
<stop stop-color="#ED1EFF"/>
<stop offset="1" stop-color="#00D1FF"/>
</linearGradient>
<linearGradient id="paint31_linear" x1="587.085" y1="168.005" x2="587.085" y2="578.759" gradientUnits="userSpaceOnUse">
<stop stop-color="#ED1EFF"/>
<stop offset="1" stop-color="#00D1FF"/>
</linearGradient>
<linearGradient id="paint32_linear" x1="568.74" y1="156.157" x2="568.74" y2="571.833" gradientUnits="userSpaceOnUse">
<stop stop-color="#ED1EFF"/>
<stop offset="1" stop-color="#00D1FF"/>
</linearGradient>
<linearGradient id="paint33_linear" x1="550.478" y1="138.887" x2="550.478" y2="561.883" gradientUnits="userSpaceOnUse">
<stop stop-color="#ED1EFF"/>
<stop offset="1" stop-color="#00D1FF"/>
</linearGradient>
<linearGradient id="paint34_linear" x1="532.622" y1="118.073" x2="532.622" y2="550.147" gradientUnits="userSpaceOnUse">
<stop stop-color="#ED1EFF"/>
<stop offset="1" stop-color="#00D1FF"/>
</linearGradient>
<linearGradient id="paint35_linear" x1="517.01" y1="95.5855" x2="517.01" y2="537.834" gradientUnits="userSpaceOnUse">
<stop stop-color="#ED1EFF"/>
<stop offset="1" stop-color="#00D1FF"/>
</linearGradient>
<linearGradient id="paint36_linear" x1="497.886" y1="73.2878" x2="497.886" y2="526.148" gradientUnits="userSpaceOnUse">
<stop stop-color="#ED1EFF"/>
<stop offset="1" stop-color="#00D1FF"/>
</linearGradient>
<linearGradient id="paint37_linear" x1="478.21" y1="53.0646" x2="478.21" y2="516.331" gradientUnits="userSpaceOnUse">
<stop stop-color="#ED1EFF"/>
<stop offset="1" stop-color="#00D1FF"/>
</linearGradient>
<linearGradient id="paint38_linear" x1="459.089" y1="36.7789" x2="459.089" y2="509.595" gradientUnits="userSpaceOnUse">
<stop stop-color="#ED1EFF"/>
<stop offset="1" stop-color="#00D1FF"/>
</linearGradient>
<linearGradient id="paint39_linear" x1="440.343" y1="26.3016" x2="440.343" y2="507.141" gradientUnits="userSpaceOnUse">
<stop stop-color="#ED1EFF"/>
<stop offset="1" stop-color="#00D1FF"/>
</linearGradient>
<linearGradient id="paint40_linear" x1="420.905" y1="23.3903" x2="420.905" y2="510.129" gradientUnits="userSpaceOnUse">
<stop stop-color="#ED1EFF"/>
<stop offset="1" stop-color="#00D1FF"/>
</linearGradient>
<linearGradient id="paint41_linear" x1="389.128" y1="24.2271" x2="389.128" y2="515.677" gradientUnits="userSpaceOnUse">
<stop stop-color="#ED1EFF"/>
<stop offset="1" stop-color="#00D1FF"/>
</linearGradient>
<linearGradient id="paint42_linear" x1="350.788" y1="26.189" x2="350.788" y2="521.851" gradientUnits="userSpaceOnUse">
<stop stop-color="#ED1EFF"/>
<stop offset="1" stop-color="#00D1FF"/>
</linearGradient>
<linearGradient id="paint43_linear" x1="324.457" y1="29.1917" x2="324.457" y2="528.545" gradientUnits="userSpaceOnUse">
<stop stop-color="#ED1EFF"/>
<stop offset="1" stop-color="#00D1FF"/>
</linearGradient>
<linearGradient id="paint44_linear" x1="307.956" y1="33.0872" x2="307.956" y2="530.606" gradientUnits="userSpaceOnUse">
<stop stop-color="#ED1EFF"/>
<stop offset="1" stop-color="#00D1FF"/>
</linearGradient>
<linearGradient id="paint45_linear" x1="292.096" y1="37.7632" x2="292.096" y2="525.866" gradientUnits="userSpaceOnUse">
<stop stop-color="#ED1EFF"/>
<stop offset="1" stop-color="#00D1FF"/>
</linearGradient>
<linearGradient id="paint46_linear" x1="278.17" y1="43.0866" x2="278.17" y2="516.346" gradientUnits="userSpaceOnUse">
<stop stop-color="#ED1EFF"/>
<stop offset="1" stop-color="#00D1FF"/>
</linearGradient>
<linearGradient id="paint47_linear" x1="265.326" y1="48.9508" x2="265.326" y2="504.124" gradientUnits="userSpaceOnUse">
<stop stop-color="#ED1EFF"/>
<stop offset="1" stop-color="#00D1FF"/>
</linearGradient>
<linearGradient id="paint48_linear" x1="254.223" y1="55.2231" x2="254.223" y2="491.228" gradientUnits="userSpaceOnUse">
<stop stop-color="#ED1EFF"/>
<stop offset="1" stop-color="#00D1FF"/>
</linearGradient>
<linearGradient id="paint49_linear" x1="242.392" y1="61.7908" x2="242.392" y2="479.71" gradientUnits="userSpaceOnUse">
<stop stop-color="#ED1EFF"/>
<stop offset="1" stop-color="#00D1FF"/>
</linearGradient>
<linearGradient id="paint50_linear" x1="232.355" y1="68.5345" x2="232.355" y2="471.624" gradientUnits="userSpaceOnUse">
<stop stop-color="#ED1EFF"/>
<stop offset="1" stop-color="#00D1FF"/>
</linearGradient>
<linearGradient id="paint51_linear" x1="222.252" y1="75.327" x2="222.252" y2="470.575" gradientUnits="userSpaceOnUse">
<stop stop-color="#ED1EFF"/>
<stop offset="1" stop-color="#00D1FF"/>
</linearGradient>
<linearGradient id="paint52_linear" x1="212.289" y1="82.0493" x2="212.289" y2="475.891" gradientUnits="userSpaceOnUse">
<stop stop-color="#ED1EFF"/>
<stop offset="1" stop-color="#00D1FF"/>
</linearGradient>
<linearGradient id="paint53_linear" x1="202.295" y1="88.5818" x2="202.295" y2="484.266" gradientUnits="userSpaceOnUse">
<stop stop-color="#ED1EFF"/>
<stop offset="1" stop-color="#00D1FF"/>
</linearGradient>
<linearGradient id="paint54_linear" x1="192.239" y1="94.805" x2="192.239" y2="492.381" gradientUnits="userSpaceOnUse">
<stop stop-color="#ED1EFF"/>
<stop offset="1" stop-color="#00D1FF"/>
</linearGradient>
<linearGradient id="paint55_linear" x1="181.967" y1="100.592" x2="181.967" y2="496.938" gradientUnits="userSpaceOnUse">
<stop stop-color="#ED1EFF"/>
<stop offset="1" stop-color="#00D1FF"/>
</linearGradient>
<linearGradient id="paint56_linear" x1="170.309" y1="105.831" x2="170.309" y2="504.989" gradientUnits="userSpaceOnUse">
<stop stop-color="#ED1EFF"/>
<stop offset="1" stop-color="#00D1FF"/>
</linearGradient>
<linearGradient id="paint57_linear" x1="157.099" y1="110.394" x2="157.099" y2="523.047" gradientUnits="userSpaceOnUse">
<stop stop-color="#ED1EFF"/>
<stop offset="1" stop-color="#00D1FF"/>
</linearGradient>
<linearGradient id="paint58_linear" x1="142.759" y1="114.164" x2="142.759" y2="545.345" gradientUnits="userSpaceOnUse">
<stop stop-color="#ED1EFF"/>
<stop offset="1" stop-color="#00D1FF"/>
</linearGradient>
<linearGradient id="paint59_linear" x1="127.716" y1="117.011" x2="127.716" y2="566.109" gradientUnits="userSpaceOnUse">
<stop stop-color="#ED1EFF"/>
<stop offset="1" stop-color="#00D1FF"/>
</linearGradient>
<linearGradient id="paint60_linear" x1="112.25" y1="118.826" x2="112.25" y2="579.582" gradientUnits="userSpaceOnUse">
<stop stop-color="#ED1EFF"/>
<stop offset="1" stop-color="#00D1FF"/>
</linearGradient>
</defs>
</svg>
