<svg width="60" height="61" viewBox="0 0 60 61" fill="none" xmlns="http://www.w3.org/2000/svg">
<path fill-rule="evenodd" clip-rule="evenodd" d="M30 9.25C18.2639 9.25 8.75 18.7639 8.75 30.5C8.75 42.2361 18.2639 51.75 30 51.75C41.7361 51.75 51.25 42.2361 51.25 30.5C51.25 18.7639 41.7361 9.25 30 9.25ZM6.25 30.5C6.25 17.3832 16.8832 6.75 30 6.75C43.1168 6.75 53.75 17.3832 53.75 30.5C53.75 43.6168 43.1168 54.25 30 54.25C16.8832 54.25 6.25 43.6168 6.25 30.5Z" fill="#00D1FF"/>
<path fill-rule="evenodd" clip-rule="evenodd" d="M30 9.75C18.5401 9.75 9.25 19.0401 9.25 30.5C9.25 41.9599 18.5401 51.25 30 51.25C41.4599 51.25 50.75 41.9599 50.75 30.5C50.75 19.0401 41.4599 9.75 30 9.75ZM5.75 30.5C5.75 17.1071 16.6071 6.25 30 6.25C43.3929 6.25 54.25 17.1071 54.25 30.5C54.25 43.8929 43.3929 54.75 30 54.75C16.6071 54.75 5.75 43.8929 5.75 30.5ZM8.75 30.5C8.75 18.7639 18.2639 9.25 30 9.25C41.7361 9.25 51.25 18.7639 51.25 30.5C51.25 42.2361 41.7361 51.75 30 51.75C18.2639 51.75 8.75 42.2361 8.75 30.5ZM30 6.75C16.8832 6.75 6.25 17.3832 6.25 30.5C6.25 43.6168 16.8832 54.25 30 54.25C43.1168 54.25 53.75 43.6168 53.75 30.5C53.75 17.3832 43.1168 6.75 30 6.75Z" fill="#00D1FF"/>
<path d="M25.925 27.525C25.871 27.4669 25.805 27.4212 25.7317 27.391C25.6583 27.3608 25.5793 27.3468 25.5 27.35H22.125V25.025H25.625C26.0623 25.0266 26.4937 25.1263 26.8874 25.3166C27.2811 25.507 27.6271 25.7832 27.9 26.125L28.75 27.15L27.1 29.175L25.925 27.525ZM32.025 26C32.3087 25.6661 32.6609 25.3973 33.0578 25.2118C33.4547 25.0263 33.8869 24.9285 34.325 24.925H37.875V27.15H34.5C34.4244 27.147 34.3492 27.1612 34.2799 27.1915C34.2106 27.2218 34.1491 27.2675 34.1 27.325L31.6 30.3L34.1 33.3C34.2092 33.4027 34.3505 33.4645 34.5 33.475H37.875V35.7H34.325C33.8891 35.705 33.4578 35.6108 33.0636 35.4246C32.6695 35.2384 32.3229 34.9649 32.05 34.625L30 32.125L27.975 34.625C27.697 34.9655 27.3459 35.2389 26.9477 35.4251C26.5495 35.6112 26.1145 35.7051 25.675 35.7H22.125V33.35H25.5C25.5809 33.3485 25.6606 33.3298 25.7339 33.2954C25.8071 33.2609 25.8722 33.2114 25.925 33.15L28.425 30.225L32.025 26Z" fill="#00D1FF"/>
<path fill-rule="evenodd" clip-rule="evenodd" d="M30 16.75C22.4061 16.75 16.25 22.9061 16.25 30.5C16.25 38.0939 22.4061 44.25 30 44.25C37.5939 44.25 43.75 38.0939 43.75 30.5C43.75 22.9061 37.5939 16.75 30 16.75ZM13.75 30.5C13.75 21.5254 21.0254 14.25 30 14.25C38.9746 14.25 46.25 21.5254 46.25 30.5C46.25 39.4746 38.9746 46.75 30 46.75C21.0254 46.75 13.75 39.4746 13.75 30.5Z" fill="#00D1FF"/>
<path fill-rule="evenodd" clip-rule="evenodd" d="M30 17.25C22.6822 17.25 16.75 23.1822 16.75 30.5C16.75 37.8178 22.6822 43.75 30 43.75C37.3178 43.75 43.25 37.8178 43.25 30.5C43.25 23.1822 37.3178 17.25 30 17.25ZM13.25 30.5C13.25 21.2492 20.7492 13.75 30 13.75C39.2508 13.75 46.75 21.2492 46.75 30.5C46.75 39.7508 39.2508 47.25 30 47.25C20.7492 47.25 13.25 39.7508 13.25 30.5ZM16.25 30.5C16.25 22.9061 22.4061 16.75 30 16.75C37.5939 16.75 43.75 22.9061 43.75 30.5C43.75 38.0939 37.5939 44.25 30 44.25C22.4061 44.25 16.25 38.0939 16.25 30.5ZM30 14.25C21.0254 14.25 13.75 21.5254 13.75 30.5C13.75 39.4746 21.0254 46.75 30 46.75C38.9746 46.75 46.25 39.4746 46.25 30.5C46.25 21.5254 38.9746 14.25 30 14.25Z" fill="#00D1FF"/>
</svg>
