<svg width="180" height="48" viewBox="0 0 400 107" fill="none" xmlns="http://www.w3.org/2000/svg">
<path fill-rule="evenodd" clip-rule="evenodd" d="M14.4922 57.907C20.3361 45.0752 26.2075 32.2546 31.9844 19.3955C32.6223 17.9755 33.3516 17.4539 34.9775 17.4721C42.3191 17.5584 49.6632 17.5364 57.0055 17.4868C58.3823 17.4776 59.2713 17.6725 59.8927 19.08C70.0608 42.1133 80.2939 65.12 90.5015 88.1372C90.6152 88.3943 90.5825 88.7108 90.6509 89.2614C86.3058 89.2614 82.0431 89.172 77.7869 89.3008C75.7972 89.361 75.6743 87.9308 75.1871 86.8316C67.153 68.689 59.092 50.5569 51.2262 32.3476C50.197 29.9655 48.9827 29.1218 46.4128 29.341C43.8076 29.5635 41.3679 28.8456 39.999 32.4015C36.6793 41.0253 32.7079 49.4193 28.9989 57.906C24.1636 57.9063 19.3279 57.9067 14.4922 57.907Z" fill="white"/>
<path fill-rule="evenodd" clip-rule="evenodd" d="M18.1723 70.3757C14.7065 70.3763 11.4419 70.3773 8.65169 70.3773C5.80647 76.5892 2.95916 82.8037 0 89.2631C4.76583 89.2631 8.9883 89.1972 13.2063 89.3006C14.6053 89.3348 15.2865 88.8761 15.7893 87.7182C18.3028 81.9252 20.8707 76.1527 23.4205 70.374C21.6606 70.3747 19.9003 70.3753 18.1723 70.3757Z" fill="white"/>
<path fill-rule="evenodd" clip-rule="evenodd" d="M165.453 38.2257C168.272 31.8965 171.103 25.5728 173.89 19.2302C174.197 18.5298 174.549 18.2725 175.333 18.2815C178.874 18.324 182.416 18.3132 185.957 18.2887C186.621 18.2841 187.05 18.3803 187.35 19.0745C192.254 30.4356 197.189 41.7835 202.112 53.1365C202.167 53.2633 202.152 53.4195 202.185 53.691C200.089 53.691 198.033 53.6469 195.98 53.7105C195.021 53.7402 194.961 53.0347 194.726 52.4926C190.851 43.5439 186.964 34.6003 183.17 25.6187C182.674 24.4438 182.088 24.0276 180.848 24.1357C179.592 24.2455 178.415 23.8914 177.755 25.6453C176.154 29.8989 174.239 34.0392 172.45 38.2252C170.118 38.2254 167.785 38.2255 165.453 38.2257Z" fill="white"/>
<path fill-rule="evenodd" clip-rule="evenodd" d="M275.148 38.2257C277.967 31.8965 280.799 25.5728 283.585 19.2302C283.893 18.5298 284.244 18.2725 285.029 18.2815C288.57 18.324 292.111 18.3132 295.653 18.2887C296.317 18.2841 296.745 18.3803 297.045 19.0745C301.949 30.4356 306.885 41.7835 311.808 53.1365C311.863 53.2633 311.847 53.4195 311.88 53.691C309.784 53.691 307.728 53.6469 305.676 53.7105C304.716 53.7402 304.657 53.0347 304.422 52.4926C300.547 43.5439 296.659 34.6003 292.865 25.6187C292.369 24.4438 291.783 24.0276 290.544 24.1357C289.287 24.2455 288.111 23.8914 287.451 25.6453C285.849 29.8989 283.934 34.0392 282.145 38.2252C279.813 38.2254 277.481 38.2255 275.148 38.2257Z" fill="white"/>
<path fill-rule="evenodd" clip-rule="evenodd" d="M134.412 37.3189C136.332 37.3189 137.661 37.1481 138.399 36.8063C139.136 36.4646 139.506 35.8381 139.506 34.9272V25.0753C139.506 24.1639 139.136 23.5379 138.399 23.1962C137.661 22.8544 136.332 22.6836 134.412 22.6836H123.636V37.3189H134.412ZM123.636 53.5487H116.254V17.957H134.339C137.635 17.957 140.207 18.3368 142.052 19.0961C143.898 19.8559 145.227 21.099 146.039 22.8258C146.851 24.5541 147.257 26.9357 147.257 29.9729C147.257 34.2254 146.345 37.2619 144.525 39.0842C142.705 40.9068 139.678 41.8178 135.446 41.8178H123.636V53.5487Z" fill="white"/>
<path fill-rule="evenodd" clip-rule="evenodd" d="M224.888 36.4646H236.016C237.932 36.4646 239.259 36.2937 239.996 35.9519C240.732 35.6102 241.101 34.9842 241.101 34.0728V25.0753C241.101 24.1639 240.732 23.5379 239.996 23.1962C239.259 22.8544 237.932 22.6836 236.016 22.6836H224.888V36.4646ZM243.017 53.5487L235.353 40.9634H224.888V53.5487H217.52V17.957H235.943C239.233 17.957 241.801 18.3368 243.644 19.0961C245.486 19.8559 246.812 21.099 247.623 22.8258C248.433 24.5541 248.839 26.9355 248.839 29.9727C248.839 32.8969 248.36 35.1832 247.402 36.8347C246.444 38.4864 244.884 39.6349 242.723 40.2799L251.05 53.5487H243.017Z" fill="white"/>
<path fill-rule="evenodd" clip-rule="evenodd" d="M337.458 53.5487H330.074V17.957H355.18L354.367 22.6837H337.458V34.2438H352.226V38.7425H337.458V53.5487Z" fill="white"/>
<mask id="mask0" mask-type="alpha" maskUnits="userSpaceOnUse" x="90" y="0" width="311" height="107">
<path d="M90.1445 106.775H400.003V0H90.1445V106.775Z" fill="white"/>
</mask>
<g mask="url(#mask0)">
<path fill-rule="evenodd" clip-rule="evenodd" d="M374.73 53.5487H381.976V17.957H374.73V53.5487Z" fill="white"/>
<path fill-rule="evenodd" clip-rule="evenodd" d="M162.553 44.1676C161.182 47.247 159.809 50.3278 158.383 53.5298C160.68 53.5298 162.715 53.4972 164.748 53.5484C165.423 53.5654 165.751 53.338 165.994 52.764C167.205 49.8922 168.443 47.0307 169.672 44.166C168.824 44.1663 167.975 44.1667 167.142 44.1668C165.472 44.1671 163.898 44.1676 162.553 44.1676Z" fill="white"/>
<path fill-rule="evenodd" clip-rule="evenodd" d="M277.033 44.1668C275.351 44.1671 273.767 44.1676 272.417 44.1676C271.042 47.2471 269.667 50.3277 268.238 53.53C270.533 53.53 272.566 53.4973 274.597 53.5484C275.271 53.5653 275.599 53.3388 275.841 52.7664C277.055 49.8938 278.296 47.0315 279.527 44.166C278.691 44.1663 277.855 44.1665 277.033 44.1668Z" fill="white"/>
<path fill-rule="evenodd" clip-rule="evenodd" d="M136.48 83.9576V78.6309C136.48 76.9335 136.875 75.699 137.662 74.9281C138.451 74.1569 139.704 73.7715 141.423 73.7715H144.312C145.777 73.7715 146.867 74.0715 147.584 74.671C148.3 75.2707 148.697 76.2326 148.777 77.5564C148.809 77.9614 148.602 78.1636 148.157 78.1636C147.775 78.1636 147.567 77.9614 147.536 77.5564C147.472 76.6065 147.201 75.9407 146.724 75.5589C146.246 75.1773 145.442 74.9863 144.312 74.9863H141.423C140.5 74.9863 139.772 75.1034 139.238 75.3368C138.705 75.5706 138.319 75.9482 138.08 76.4701C137.842 76.992 137.722 77.7122 137.722 78.6309V83.9576C137.722 84.877 137.842 85.597 138.08 86.1186C138.319 86.6407 138.705 87.0182 139.238 87.2519C139.772 87.4853 140.508 87.6024 141.447 87.6024H144.312C145.442 87.6024 146.246 87.4155 146.724 87.0417C147.201 86.6676 147.472 85.9983 147.536 85.0326C147.567 84.6275 147.775 84.4249 148.157 84.4249C148.602 84.4249 148.809 84.6351 148.777 85.0558C148.697 86.3798 148.3 87.3375 147.584 87.9294C146.867 88.5214 145.777 88.8171 144.312 88.8171H141.447C139.728 88.8171 138.47 88.428 137.674 87.6489C136.878 86.8703 136.48 85.6398 136.48 83.9576Z" fill="white"/>
<path fill-rule="evenodd" clip-rule="evenodd" d="M178.355 83.5371H185.081L181.718 75.6872L178.355 83.5371ZM188.373 88.2564C188.373 88.4591 188.239 88.6225 187.971 88.7469C187.876 88.7937 187.773 88.8171 187.663 88.8171C187.441 88.8171 187.284 88.6925 187.189 88.4433L185.602 84.7519H185.531H177.857L176.271 88.4433C176.16 88.6925 175.986 88.8171 175.749 88.8171C175.67 88.8171 175.568 88.7937 175.442 88.7469C175.189 88.6535 175.062 88.4823 175.062 88.233C175.062 88.1086 175.078 88.015 175.11 87.9528L180.984 74.2386C181.11 73.9273 181.347 73.7715 181.694 73.7715H181.742C182.057 73.7715 182.286 73.9273 182.428 74.2386L188.302 87.9528C188.35 88.0616 188.373 88.163 188.373 88.2564Z" fill="white"/>
<path fill-rule="evenodd" clip-rule="evenodd" d="M224.04 77.8132C224.04 76.8322 223.814 76.1158 223.363 75.664C222.912 75.2122 222.18 74.9863 221.168 74.9863H216.23V81.3411H221.168C222.18 81.3411 222.912 81.1192 223.363 80.6753C223.814 80.2313 224.04 79.5111 224.04 78.5141V77.8132ZM224.23 74.7993C224.926 75.4851 225.274 76.4898 225.274 77.8132V78.5141C225.274 79.8381 224.93 80.8427 224.242 81.5279C223.553 82.2136 222.529 82.5557 221.168 82.5557H216.23V88.2096C216.23 88.6148 216.024 88.8171 215.613 88.8171C215.202 88.8171 214.996 88.6148 214.996 88.2096V74.379C214.996 73.974 215.202 73.7715 215.613 73.7715H221.168C222.513 73.7715 223.533 74.1142 224.23 74.7993Z" fill="white"/>
<path fill-rule="evenodd" clip-rule="evenodd" d="M252.225 88.6535C252.119 88.5447 252.066 88.3964 252.066 88.2096V74.379C252.066 74.1922 252.119 74.0444 252.225 73.9351C252.331 73.8264 252.475 73.7715 252.656 73.7715C252.838 73.7715 252.981 73.8264 253.087 73.9351C253.193 74.0444 253.246 74.1922 253.246 74.379V88.2096C253.246 88.3964 253.193 88.5447 253.087 88.6535C252.981 88.7627 252.838 88.8171 252.656 88.8171C252.475 88.8171 252.331 88.7627 252.225 88.6535Z" fill="white"/>
<path fill-rule="evenodd" clip-rule="evenodd" d="M286.081 88.6421C285.961 88.5255 285.901 88.3819 285.901 88.2107V74.9843H280.823C280.648 74.9843 280.501 74.9262 280.382 74.8096C280.262 74.6927 280.203 74.5493 280.203 74.378C280.203 74.1914 280.262 74.0438 280.382 73.9346C280.501 73.8263 280.648 73.7715 280.823 73.7715H292.22C292.411 73.7715 292.562 73.8263 292.673 73.9346C292.784 74.0438 292.84 74.1914 292.84 74.378C292.84 74.5493 292.784 74.6927 292.673 74.8096C292.562 74.9262 292.411 74.9843 292.22 74.9843H287.141V88.2107C287.141 88.3819 287.085 88.5255 286.974 88.6421C286.864 88.759 286.712 88.8171 286.522 88.8171C286.346 88.8171 286.2 88.759 286.081 88.6421Z" fill="white"/>
<path fill-rule="evenodd" clip-rule="evenodd" d="M317.698 83.5371H324.425L321.062 75.6872L317.698 83.5371ZM327.717 88.2564C327.717 88.4591 327.582 88.6225 327.314 88.7469C327.219 88.7937 327.117 88.8171 327.006 88.8171C326.785 88.8171 326.628 88.6925 326.533 88.4433L324.945 84.7519H324.875H317.201L315.614 88.4433C315.503 88.6925 315.329 88.8171 315.093 88.8171C315.013 88.8171 314.911 88.7937 314.785 88.7469C314.532 88.6535 314.406 88.4823 314.406 88.233C314.406 88.1086 314.422 88.015 314.454 87.9528L320.327 74.2386C320.453 73.9273 320.69 73.7715 321.038 73.7715H321.085C321.401 73.7715 321.629 73.9273 321.772 74.2386L327.646 87.9528C327.693 88.0616 327.717 88.163 327.717 88.2564Z" fill="white"/>
<path fill-rule="evenodd" clip-rule="evenodd" d="M354.508 88.2096V74.3791C354.508 73.974 354.713 73.7715 355.125 73.7715C355.537 73.7715 355.743 73.974 355.743 74.3791V87.6024H362.989C363.4 87.6024 363.606 87.8048 363.606 88.2096C363.606 88.6148 363.4 88.8171 362.989 88.8171H355.125C354.713 88.8171 354.508 88.6148 354.508 88.2096Z" fill="white"/>
</g>
</svg>
