<svg width="60" height="61" viewBox="0 0 60 61" fill="none" xmlns="http://www.w3.org/2000/svg">
<path d="M52.5961 27.104L33.3961 7.904C32.4901 6.998 31.2841 6.5 30.0001 6.5C28.7161 6.5 27.5101 6.998 26.6041 7.904L7.4041 27.104C6.4981 28.01 6.0001 29.216 6.0001 30.5C6.0001 31.784 6.4981 32.99 7.4041 33.896L26.6041 53.096C27.5101 54.002 28.7161 54.5 30.0001 54.5C31.2841 54.5 32.4901 54.002 33.3961 53.096L52.5961 33.896C53.5021 32.99 54.0001 31.784 54.0001 30.5C54.0001 29.216 53.5021 28.01 52.5961 27.104ZM50.6041 31.904L31.4101 51.098V45.77H28.5901V51.098L9.3961 31.904C8.6221 31.13 8.6221 29.87 9.3961 29.096L28.5901 9.902V15.23H31.4101V9.902L50.6041 29.096C51.3781 29.87 51.3781 31.13 50.6041 31.904Z" fill="#00D1FF"/>
<path fill-rule="evenodd" clip-rule="evenodd" d="M31.4101 15.23H28.5901V9.902L9.3961 29.096C8.6221 29.87 8.6221 31.13 9.3961 31.904L28.5901 51.098V45.77H31.4101V51.098L50.6041 31.904C51.3781 31.13 51.3781 29.87 50.6041 29.096L31.4101 9.902V15.23ZM31.9019 11.0951V15.73H28.0983V11.0951L9.74097 29.4525C9.16288 30.0306 9.16288 30.9694 9.74097 31.5475L28.0983 49.9049V45.27H31.9019V49.9049L50.2592 31.5475C50.8373 30.9694 50.8373 30.0306 50.2592 29.4525L31.9019 11.0951ZM33.741 7.54754L52.941 26.7475C53.9405 27.747 54.4919 29.0813 54.4919 30.5C54.4919 31.9187 53.9405 33.253 52.941 34.2525L33.741 53.4525C32.7417 54.4517 31.4114 55 30.0001 55C28.5888 55 27.2584 54.4517 26.2592 53.4525L7.05923 34.2525C6.05972 33.253 5.5083 31.9187 5.5083 30.5C5.5083 29.0813 6.05972 27.747 7.05923 26.7475L26.2592 7.54754C27.2584 6.54832 28.5888 6 30.0001 6C31.4114 6 32.7417 6.54832 33.741 7.54754ZM33.3961 7.904L52.5961 27.104C53.5021 28.01 54.0001 29.216 54.0001 30.5C54.0001 31.784 53.5021 32.99 52.5961 33.896L33.3961 53.096C32.4901 54.002 31.2841 54.5 30.0001 54.5C28.7161 54.5 27.5101 54.002 26.6041 53.096L7.4041 33.896C6.4981 32.99 6.0001 31.784 6.0001 30.5C6.0001 29.216 6.4981 28.01 7.4041 27.104L26.6041 7.904C27.5101 6.998 28.7161 6.5 30.0001 6.5C31.2841 6.5 32.4901 6.998 33.3961 7.904Z" fill="#00D1FF"/>
<path d="M25.6621 27.332C25.5421 27.2 25.3981 27.128 25.2301 27.128H21.7141C21.6841 27.128 21.6601 27.116 21.6361 27.098C21.6181 27.08 21.6061 27.056 21.6061 27.032V24.662C21.6061 24.662 21.6181 24.614 21.6361 24.596C21.6541 24.578 21.6781 24.566 21.7141 24.566H25.4341C26.3701 24.566 27.1801 24.95 27.8641 25.718L28.7701 26.822L27.0121 28.97L25.6741 27.332H25.6621ZM32.1601 25.706C32.8381 24.95 33.6541 24.566 34.6021 24.566H38.3101C38.3401 24.566 38.3641 24.572 38.3821 24.59C38.4001 24.608 38.4061 24.632 38.4061 24.662V27.032C38.4061 27.032 38.4001 27.08 38.3821 27.098C38.3641 27.116 38.3401 27.128 38.3101 27.128H34.7941C34.6201 27.128 34.4761 27.194 34.3621 27.332L31.7701 30.488L34.3741 33.662C34.4941 33.788 34.6321 33.854 34.7941 33.854H38.3101C38.3401 33.854 38.3641 33.866 38.3821 33.884C38.4001 33.902 38.4061 33.932 38.4061 33.962V36.332C38.4061 36.332 38.4001 36.38 38.3821 36.398C38.3641 36.416 38.3401 36.428 38.3101 36.428H34.6021C33.6541 36.428 32.8441 36.044 32.1721 35.276L30.0121 32.642L27.8521 35.276C27.1741 36.044 26.3581 36.428 25.4101 36.428H21.7021C21.6721 36.428 21.6481 36.416 21.6301 36.398C21.6121 36.38 21.6061 36.35 21.6061 36.32V33.95C21.6061 33.95 21.6121 33.902 21.6301 33.884C21.6481 33.866 21.6721 33.854 21.7021 33.854H25.2181C25.3801 33.854 25.5241 33.788 25.6501 33.65L32.1481 25.706H32.1601Z" fill="#00D1FF"/>
</svg>
